<svg id="Layer_1" data-name="Layer 1" xmlns="http://www.w3.org/2000/svg" viewBox="0 0 160 51.74"><title>csr</title><path d="M54.37,77.08v7.63A19.08,19.08,0,0,0,47.16,83c-9.37,0-12,9.89-12,17.68,0,7.26,2.16,16.63,11.05,16.63,5.63,0,8.89-3.68,9.05-8.95H69.47c-.95,12.16-11.16,17.53-22.95,17.53C30,125.87,20,115.71,20,99.18c0-14.11,8.58-25.05,23.21-25.05A21.72,21.72,0,0,1,54.37,77.08Z" transform="translate(-20 -74.13)"/><path d="M57.53,75.66H69.21V93.82H57.53Zm20.16,49.21V108.34H89.32v16.53Z" transform="translate(-20 -74.13)"/><path d="M105.63,76.45V83.5a23.83,23.83,0,0,0-5.11-.68c-3.11,0-7.84.95-7.84,4.9,0,3.47,4.26,4.89,6.95,5.74l7.89,2.47c7.26,2.26,13.26,6.26,13.26,14.53,0,10.16-8.16,15.37-17.47,15.37a26,26,0,0,1-10.79-2.1v-7.05a24.69,24.69,0,0,0,5.89,1c3.42,0,8-1.42,8-5.53,0-3.47-4.42-4.9-7.05-5.79L92,103.92c-6.95-2.26-13.74-6.26-13.74-14.37,0-10,9.11-15,18.16-15A27.88,27.88,0,0,1,105.63,76.45Z" transform="translate(-20 -74.13)"/><path d="M108.79,91.08V75.66h10.95V91.08H108.79ZM129.47,84V75.66h19.21v49.21H129.42V116.6h5.47V84Zm22.32,21.32v-8.1c4.63-.16,10.05-.95,10.05-6.74,0-5.63-5.42-6.26-9.95-6.37V75.66h9.74c7.58,0,14.53,4.74,14.53,12.84,0,7.42-5.26,12.05-12.21,12.84,3.37.37,6.74,1.26,8,4.74l3.9,10.68H180v8.16H163.74l-5.42-15.58c-1.11-3.1-3.16-3.95-6.52-4.05Z" transform="translate(-20 -74.13)"/></svg>