<svg id="Layer_1" data-name="Layer 1" xmlns="http://www.w3.org/2000/svg" viewBox="0 0 160 62.95"><title>du_pont</title><path d="M100,68.52c-44.18,0-80,14.09-80,31.48s35.82,31.48,80,31.48,80-14.09,80-31.48-35.82-31.48-80-31.48Zm0,60c-42.57,0-77.08-12.79-77.08-28.57S57.43,71.43,100,71.43,177.08,84.22,177.08,100,142.57,128.57,100,128.57Z" transform="translate(-20 -68.52)"/><path d="M56,79.81v34.48c0,3.12.69,6.24,4.68,7q2.76.6,5.54,1c2.6.43,6.93-2.51,6.93-7.8V76.6c-.87.09-4,.52-4.68.69v36c0,2.77-1.13,4.24-3.21,3.9A10.36,10.36,0,0,1,63,116.8c-1.13-.17-2.34-1.21-2.34-3.47V78.77c-.87.17-3.47.69-4.68,1Zm72.6,43.31V77a31.66,31.66,0,0,1,3.64.43l8.66,26V79c1.12.35,3.2.78,4.68,1.21v39.59a25.2,25.2,0,0,1-3.81,1l-8.49-26.16v27.72A36.89,36.89,0,0,1,128.59,123.12ZM150,81.46v4.85c1,.26,5.2,1.65,6.5,2.17v28.07c1.21-.52,3.81-1.65,4.68-2.08V90.72a18.38,18.38,0,0,1,4.68,2.86V88.47C165.32,87.35,154.53,82.42,150,81.46ZM45,83.19c-1.3.35-6.84,2.51-9.1,4.24v25.38c1.39.61,5.8,3.2,8.66,4.07,2.34.78,6.76,1.3,6.76-4.94V88.82C51.31,86.74,50.27,81,45,83.19Zm1.65,26c0,4.6-1.73,2.62-3,2.25,0,0-2.34-1.13-3-1.39V90c.43-.09,3-1.3,3.55-1.56,2.48-1.1,2.51.21,2.51,2.77v17.93ZM96,75c-1.56-.17-10,.43-11.78.52v49c1.65.26,3.55.17,4.68.26V110H96a4.54,4.54,0,0,0,4.68-4.33v-26C100.78,75.91,96.79,75,96,75Zm0,30.41h-7.1V80c1-.09,5.8-.35,7.1-.26Zm22.52-29.63c-2-.17-5.55-.52-7.45-.52a4.87,4.87,0,0,0-4.68,4.59v39.24c0,2.43,1.56,5.8,4.68,5.72,1.9,0,5.8-.35,7.45-.43,2-.17,4.59-3.38,4.68-5.37V81.11C123.22,79.72,122.44,76.09,118.54,75.74Zm0,41.67a2.1,2.1,0,0,1-2,2.17l-3.29.26a2.62,2.62,0,0,1-2.16-2.51v-35a2.18,2.18,0,0,1,2.08-2.17l3.38.26c1,.09,2,.78,2,2.6Z" transform="translate(-20 -68.52)"/></svg>