<?xml version="1.0" encoding="UTF-8"?>
<svg width="420px" height="145px" viewBox="0 0 420 145" version="1.1" xmlns="http://www.w3.org/2000/svg" xmlns:xlink="http://www.w3.org/1999/xlink">
    <!-- Generator: Sketch 44 (41411) - http://www.bohemiancoding.com/sketch -->
    <title>Emma_Logo_B&amp;W_Horizontal</title>
    <desc>Created with Sketch.</desc>
    <defs></defs>
    <g id="Page-1" stroke="none" stroke-width="1" fill="none" fill-rule="evenodd">
        <g id="Artboard" transform="translate(-18.000000, -23.000000)" fill="#1A1918">
            <g id="Emma_Logo_B&amp;W_Horizontal" transform="translate(18.000000, 23.000000)">
                <g id="Group-4">
                    <path d="M72.171,5.997 C35.323,5.997 5.345,35.976 5.345,72.825 C5.345,109.674 35.323,139.655 72.171,139.655 C109.02,139.655 138.998,109.674 138.998,72.825 C138.998,35.976 109.02,5.997 72.171,5.997 Z M72.171,145 C32.376,145 0,112.623 0,72.825 C0,33.028 32.376,0.652 72.171,0.652 C111.968,0.652 144.343,33.028 144.343,72.825 C144.343,112.623 111.968,145 72.171,145 L72.171,145 Z" id="Fill-3"></path>
                </g>
                <path d="M94.357,91.712 C82.849,91.712 80.991,84.525 80.364,81.947 C79.738,79.385 76.345,72.757 93.508,72.757 C106.631,72.757 105.453,78.76 104.933,82.495 C104.284,87.175 101.034,91.712 94.357,91.712 Z M107.217,81.825 C107.767,76.728 108.975,74.983 111.023,74.562 L111.19,72.221 C111.19,72.221 103.421,70.464 93.574,70.464 C83.723,70.464 77.789,73.961 73.73,73.961 C69.667,73.961 63.733,70.464 53.885,70.464 C50.919,70.464 49.109,70.599 46.764,70.787 C46.403,71.853 46.028,73.029 45.634,74.339 C47.299,73.379 49.05,72.757 53.266,72.757 C70.431,72.757 67.756,79.406 67.12,81.959 C66.488,84.525 64.578,91.712 53.069,91.712 C46.4,91.712 44.093,87.552 43.314,82.893 C43.284,82.709 43.261,82.522 43.23,82.331 C42.76,83.749 42.29,85.075 41.805,86.33 C43.019,90.337 46.094,94.102 53.339,94.127 C66.495,94.165 69.15,85.844 70.558,82.082 C71.908,78.496 71.471,77.84 73.73,77.796 C75.986,77.84 75.612,78.431 76.956,82.021 C78.369,85.781 80.96,94.127 94.123,94.127 C105.203,94.127 106.735,86.332 107.217,81.825 L107.217,81.825 Z" id="Fill-5"></path>
                <path d="M39.936,91.218 C37.068,96.862 35.576,97.878 33.006,99.456 C33.042,101.852 31.539,104.076 28.788,104.399 C26.686,104.648 25.179,103.121 24.13,102.363 C23.873,102.179 23.486,102.252 23.357,102.36 C23.262,102.449 23.074,102.721 23.264,103.146 C23.648,103.992 24.377,104.89 24.775,105.354 C25.724,106.447 26.439,107.108 27.594,107.966 C29.383,109.298 31.689,109.948 33.789,109.845 C36.614,109.708 39.464,108.359 41.18,105.917 C42.196,104.477 43.166,102.363 42.993,99.916 C42.819,97.488 42.207,95.311 39.936,91.218" id="Fill-6"></path>
                <path d="M80.001,43.305 C78.104,39.827 73.575,36.229 66.33,35.546 C64.794,35.403 60.92,35.599 58.131,36.233 C52.822,37.436 47.889,39.816 44.349,43.121 C37.161,49.812 33.567,57.979 32.783,67.373 C32.195,74.523 33.117,82.827 29.009,89.028 C27.511,91.292 25.759,93.208 19.895,92.985 C19.38,92.961 19.043,92.938 18.844,93.152 C18.724,93.281 18.748,93.691 19.072,94.127 C22.978,99.294 34.932,106.391 42.23,78.489 C44.625,69.342 45.152,68.438 47.71,65.545 C50.559,62.324 57.875,60.722 60.697,60.205 C64.118,59.578 70.417,59.248 74.861,57.257 C78.798,55.491 80.377,52.525 80.746,51.379 C81.689,48.438 81.151,45.416 80.001,43.305" id="Fill-7"></path>
                <path d="M122.427,100.056 C122.284,100.032 122.06,100.126 121.853,100.37 C119.632,102.957 117.167,102.761 116.002,102.659 C114.327,102.516 111.48,100.472 111.171,97.864 C110.438,91.636 113.234,86.505 115.763,80.236 C116.693,77.921 117.542,74.729 118.176,71.541 C120.72,58.738 113.75,45.193 109.086,39.018 C96.252,22.024 73.44,20.965 66.826,20.741 C66.7,20.741 66.518,20.755 66.422,20.769 C64.794,20.994 67.779,22.129 69.416,23.526 C70.053,24.064 70.942,24.706 71.551,25.852 C72.16,26.993 72.303,28.242 71.202,27.628 C68.592,26.17 66.211,25.594 64.165,25.338 C59.382,24.737 57.017,25.171 54.503,25.566 C51.159,26.094 48.798,26.862 45.093,28.858 C39.929,31.642 36.816,34.262 33.687,38.315 C29.049,44.343 25.407,53.038 26.131,63.216 C26.632,70.247 28.146,74.884 30.201,82.751 C30.841,76.096 30.617,75.293 30.681,72.004 C30.726,69.9 30.766,67.914 30.916,66.073 C31.821,55.122 35.772,48.006 40.834,42.574 C46.623,36.369 54.576,33.228 63.093,32.997 C64.823,32.949 68.226,33.034 70.241,33.629 C75.257,35.119 84.498,39.496 83.352,50.238 C83.15,52.117 83.584,53.079 84.958,54.048 C90.002,57.609 101.816,57.09 105.256,68.193 C105.258,68.204 105.26,68.206 105.265,68.216 C105.317,68.369 105.366,68.523 105.42,68.683 C105.539,69.051 105.516,68.977 105.615,69.327 C109.091,69.785 112.042,70.543 112.211,70.583 L113.38,70.849 L113.297,72.319 L113.132,74.659 L113.067,75.773 L112.008,76.009 C111.277,76.156 109.848,76.923 109.332,81.976 C109.07,84.494 108.608,87.888 106.727,90.712 C106.128,91.61 105.081,92.972 103.539,93.691 C101.39,105.231 109.553,109.004 114.847,108.241 C119.54,107.562 122.36,104.277 122.759,100.519 C122.785,100.223 122.618,100.092 122.427,100.056" id="Fill-8"></path>
                <path d="M55.434,82.121 C54.926,82.121 54.508,81.707 54.508,81.198 C54.508,80.687 54.926,80.271 55.434,80.271 C55.956,80.271 56.372,80.687 56.372,81.198 C56.372,81.707 55.956,82.121 55.434,82.121 Z M62.914,81.979 C63.606,82.924 64.859,81.64 64.155,80.708 C59.49,74.577 51.38,76.688 46.311,80.21 C44.911,81.188 45.661,82.849 47.178,82.23 L47.55,82.044 C48.956,81.24 50.51,80.255 52.14,79.504 C51.855,80.029 51.693,80.63 51.693,81.264 C51.693,83.354 53.443,85.048 55.594,85.048 C57.75,85.048 59.497,83.354 59.497,81.264 C59.497,80.191 59.036,79.218 58.294,78.533 C59.879,78.925 61.442,79.962 62.914,81.979 L62.914,81.979 Z" id="Fill-9"></path>
                <path d="M91.981,82.181 C91.46,82.181 91.048,81.758 91.048,81.233 C91.048,80.704 91.46,80.281 91.981,80.281 C92.49,80.281 92.906,80.704 92.906,81.233 C92.906,81.758 92.49,82.181 91.981,82.181 Z M101.091,80.236 C96.002,76.709 87.873,74.661 83.207,80.798 C82.501,81.729 83.888,82.918 84.561,81.959 C86.028,79.876 87.606,78.849 89.216,78.489 C88.391,79.18 87.864,80.205 87.864,81.351 C87.864,83.445 89.61,85.141 91.763,85.141 C93.922,85.141 95.666,83.445 95.666,81.351 C95.666,80.697 95.499,80.088 95.199,79.55 C96.835,80.325 98.401,81.32 99.814,82.13 L100.179,82.322 C101.696,82.938 102.499,81.209 101.091,80.236 L101.091,80.236 Z" id="Fill-10"></path>
                <path d="M80.641,105.728 C81.502,104.848 80.444,103.836 79.533,104.546 C75.289,107.882 73.126,107.762 68.393,105.025 C67.309,104.401 66.471,105.624 67.469,106.313 C72.065,110.035 76.39,110.07 80.641,105.728" id="Fill-11"></path>
                <path d="M82.214,118.651 C80.001,119.582 76.848,121.075 73.968,121.108 C71.09,121.075 67.934,119.582 65.721,118.646 C64.884,118.293 64.722,119.133 65.141,119.455 C66.946,120.722 70.979,123.97 73.949,123.97 C76.902,123.97 81.031,120.73 82.792,119.455 C83.307,119.065 83.051,118.293 82.214,118.651" id="Fill-12"></path>
                <path d="M85.898,114.82 C84.907,115.197 84.354,115.26 83.354,115.255 C80.443,115.229 79.66,114.926 77.102,114.286 C76.241,114.074 74.811,115.33 73.996,115.339 C73.18,115.33 71.736,114.074 70.873,114.286 C68.317,114.926 67.534,115.229 64.619,115.255 C63.622,115.26 63.069,115.197 62.079,114.82 C61.435,114.576 61.065,115.163 61.47,115.51 C62.211,116.154 63.786,116.864 64.87,117.164 C66.312,117.56 70.074,118.508 73.926,118.508 C77.751,118.506 81.671,117.557 83.102,117.164 C84.192,116.864 85.762,116.154 86.512,115.51 C86.91,115.163 86.54,114.576 85.898,114.82" id="Fill-13"></path>
                <path d="M179.479,72.608 C180.232,65.978 183.357,61.796 187.752,60.853 C188.252,60.745 192.45,59.998 194.296,62.67 C195.351,64.192 195.389,66.75 194.389,68.754 C192.796,71.948 189.137,73.137 185.832,73.998 C184.868,74.252 182.698,74.793 181.65,74.949 C180.815,75.075 179.872,75.174 179.872,75.174 C179.858,75.174 180.14,75.176 180.123,75.176 C180.008,75.176 179.597,75.132 179.514,75.054 C179.416,74.966 179.36,74.84 179.364,74.709 C179.364,74.661 179.375,73.511 179.479,72.608 Z M167.146,76.855 C166.82,83.142 168.503,88.743 171.762,92.226 C175.011,95.705 179.172,97.728 183.484,97.926 C183.884,97.944 184.34,97.962 184.843,97.958 C190.679,97.958 195.809,96.079 200.089,92.379 C202.812,90.02 204.795,87.32 205.394,85.155 C205.568,84.521 205.478,84.104 205.349,83.933 C205.296,83.866 205.241,83.836 205.159,83.836 C205.07,83.836 204.823,83.875 204.43,84.245 C203.856,84.779 201.81,86.379 200.7,87.184 C198.535,88.756 194.282,90.532 191.187,90.751 C185.134,91.171 181.864,88.58 180.236,83.227 C180.015,82.489 179.632,80.933 179.618,80.868 C179.586,80.746 179.607,80.621 179.674,80.512 C179.743,80.408 179.848,80.332 179.968,80.309 C180.074,80.283 191.262,78.042 195.566,76.504 L195.875,76.396 C198.234,75.571 205.422,73.069 205.881,66.2 C206.125,62.593 203.542,58.3 199.744,55.99 C196.823,54.215 193.691,53.314 190.437,53.314 C188.803,53.314 187.114,53.544 185.412,53.994 C174.91,56.773 167.741,65.747 167.146,76.855 L167.146,76.855 Z" id="Fill-14"></path>
                <path d="M273.994,93.84 C274.127,93.41 274.608,91.265 274.686,90.848 C275.115,88.551 275.995,84.14 276.444,82.106 C276.647,81.177 278.014,73.721 278.367,71.775 L278.393,71.632 C278.988,68.351 279.987,62.86 279.176,59.918 C278.936,59.04 278.014,57.299 277.237,56.694 C275.658,55.463 274.072,54.842 271.753,54.546 C271.25,54.487 270.709,54.455 270.149,54.455 C265.317,54.455 259.504,56.717 256.261,58.951 C255.37,59.563 254.879,59.79 254.44,59.79 C253.806,59.79 253.459,59.319 253.014,58.725 C252.484,58.004 251.676,56.917 249.83,55.666 C248.723,54.916 246.84,54.504 244.522,54.504 C241.738,54.504 238.673,55.102 236.324,56.108 C235.151,56.611 233.94,57.22 232.873,57.757 C231.045,58.678 229.601,59.407 228.779,59.407 C228.247,59.407 228.027,59.113 227.944,58.94 C225.868,54.649 220.949,54.009 218.204,54.009 C217.906,54.009 217.61,54.016 217.316,54.03 C214.817,54.149 213.01,54.918 210.864,56.776 C210.141,57.404 209.831,58.128 210.007,58.383 C210.045,58.44 210.165,58.614 210.655,58.614 C210.828,58.614 211.031,58.59 211.254,58.546 C212.56,58.291 214.289,58.849 215.026,59.768 C217.702,63.08 215.469,73.467 214.628,77.378 C214.628,77.378 213.94,80.674 213.606,82.284 C212.787,86.227 211.839,90.837 211.341,93.505 C211.218,94.147 211.355,94.868 211.656,95.245 C212.479,96.275 213.58,96.221 215.963,96.226 C215.963,96.226 218.075,96.226 218.618,96.226 C220.833,96.226 222.111,95.435 222.355,94.303 C222.797,92.261 223.152,90.61 223.441,89.15 C223.705,87.814 224.401,84.661 224.401,84.661 C225.873,78.504 226.729,74.817 227.798,71.233 C228.901,67.529 230.992,64.557 234.568,62.868 C235.562,62.397 237.237,62.08 238.739,62.08 C239.792,62.08 240.716,62.235 241.41,62.525 C243.594,63.436 243.009,66.79 242.619,69.013 L242.591,69.181 C241.818,73.601 240.879,78.007 240.375,80.376 L240.222,81.08 C239.802,83.062 238.43,89.933 237.84,93.664 C237.678,94.686 237.723,95.257 237.987,95.565 C238.357,95.999 239.207,96.233 241.172,96.233 C242.31,96.233 244.184,96.233 244.718,96.226 C246.381,96.204 246.928,95.725 247.32,93.688 C247.785,91.296 249.864,81.919 250.937,77.247 L251.313,75.608 C251.328,75.531 253.045,68.081 254.973,65.928 C256.65,64.059 259.272,62.686 261.988,62.258 C262.46,62.178 262.98,62.133 263.488,62.133 C264.116,62.133 265.037,62.201 265.845,62.529 C268.038,63.423 267.828,66.918 267.557,68.43 C266.927,71.941 266.188,75.778 265.478,79.493 C264.686,83.624 263.564,89.256 262.898,93.221 C262.396,96.226 265.206,96.301 268.354,96.295 C270.177,96.288 273.163,96.531 273.994,93.84" id="Fill-15"></path>
                <path d="M347.74,93.84 C347.872,93.41 348.354,91.265 348.431,90.848 C348.857,88.551 349.739,84.14 350.188,82.106 C350.394,81.177 351.756,73.721 352.109,71.775 L352.139,71.632 C352.732,68.351 353.732,62.86 352.923,59.918 C352.68,59.04 351.761,57.299 350.981,56.694 C349.405,55.463 347.816,54.842 345.501,54.546 C344.992,54.487 344.453,54.455 343.893,54.455 C339.063,54.455 333.246,56.717 330.004,58.951 C329.117,59.563 328.623,59.79 328.186,59.79 C327.555,59.79 327.203,59.319 326.765,58.725 C326.227,58.004 325.421,56.917 323.57,55.666 C322.469,54.916 320.586,54.504 318.269,54.504 C315.482,54.504 312.417,55.102 310.067,56.108 C308.895,56.611 307.686,57.22 306.617,57.757 C304.788,58.678 303.348,59.407 302.526,59.407 C301.994,59.407 301.773,59.113 301.688,58.94 C299.612,54.649 294.696,54.009 291.947,54.009 C291.651,54.009 291.355,54.016 291.061,54.03 C288.562,54.149 286.756,54.918 284.61,56.776 C283.886,57.404 283.574,58.128 283.752,58.383 C283.79,58.44 283.91,58.614 284.399,58.614 C284.573,58.614 284.775,58.59 285.002,58.546 C286.305,58.291 288.032,58.849 288.772,59.768 C291.446,63.08 289.212,73.467 288.37,77.378 C288.37,77.378 287.685,80.674 287.351,82.284 C286.529,86.227 285.584,90.837 285.083,93.505 C284.963,94.147 285.099,94.868 285.4,95.245 C286.223,96.275 287.33,96.221 289.708,96.226 C289.708,96.226 291.822,96.226 292.363,96.226 C294.578,96.226 295.855,95.435 296.101,94.303 C296.539,92.261 296.899,90.61 297.188,89.15 C297.453,87.814 298.152,84.661 298.152,84.661 C299.617,78.504 300.474,74.817 301.542,71.233 C302.648,67.529 304.736,64.557 308.313,62.868 C309.309,62.397 310.984,62.08 312.482,62.08 C313.535,62.08 314.459,62.235 315.153,62.525 C317.341,63.436 316.753,66.79 316.363,69.013 L316.333,69.181 C315.563,73.601 314.625,78.007 314.118,80.376 L313.969,81.08 C313.546,83.062 312.173,89.933 311.583,93.664 C311.421,94.686 311.467,95.257 311.731,95.565 C312.1,95.999 312.952,96.233 314.915,96.233 C316.053,96.233 317.931,96.233 318.467,96.226 C320.127,96.204 320.675,95.725 321.067,93.688 C321.53,91.296 323.608,81.919 324.68,77.247 L325.058,75.608 C325.075,75.531 326.792,68.081 328.719,65.928 C330.395,64.059 333.015,62.686 335.735,62.258 C336.205,62.178 336.725,62.133 337.232,62.133 C337.862,62.133 338.781,62.201 339.59,62.529 C341.784,63.423 341.571,66.918 341.3,68.43 C340.67,71.941 339.937,75.778 339.223,79.493 C338.43,83.624 337.309,89.256 336.645,93.221 C336.14,96.226 338.951,96.301 342.103,96.295 C343.923,96.288 346.908,96.531 347.74,93.84" id="Fill-16"></path>
                <path d="M388.039,68.925 C387.74,70.696 387.246,73.228 386.813,75.231 C386.376,77.245 385.938,78.985 385.479,80.83 C385.174,82.035 384.867,83.258 384.558,84.572 C383.763,87.966 379.021,90.25 375.094,90.25 L375.093,90.25 C373.239,90.25 371.719,89.738 370.807,88.805 C367.608,85.536 367.91,79.392 371.682,71.042 C372.961,68.219 375.609,64.533 377.718,62.649 C379.113,61.403 381.118,60.657 383.079,60.657 C385.739,60.657 387.709,61.961 388.221,64.057 C388.481,65.114 388.421,66.661 388.039,68.925 Z M396.229,96.52 C397.632,96.52 399.029,96.301 400.275,95.89 C404.309,94.561 407.806,90.194 407.63,89.094 C407.621,89.042 407.607,88.962 407.327,88.962 C407.229,88.962 407.113,88.976 406.991,88.997 C406.724,89.046 406.266,89.244 405.78,89.453 C404.761,89.894 403.49,90.445 402.228,90.47 L402.224,90.47 C400.425,90.47 398.72,89.31 397.898,87.587 C396.736,85.148 397.376,82.51 398.059,79.712 L398.175,79.232 C398.598,77.483 403.842,56.541 403.866,56.442 C404.051,55.736 403.975,55.071 403.688,54.827 C403.219,54.428 402.21,54.76 401.235,55.127 C400.327,55.471 399.494,55.763 398.662,56.051 C397.87,56.329 397.084,56.606 396.276,56.906 C395.459,57.212 394.733,57.363 394.063,57.363 C392.567,57.363 391.864,56.661 390.829,55.877 C389.953,55.215 388.777,54.498 387.413,54.122 C385.475,53.587 383.52,53.314 381.604,53.314 C376.789,53.314 372.188,55.025 368.298,58.259 C360.642,64.631 355.547,78.103 356.949,88.291 C357.808,94.51 362.112,97.683 370.111,97.996 C374.21,98.16 377.141,96.785 379.952,95.461 L380.311,95.294 C381.219,94.868 382.229,94.205 383.201,93.566 C384.688,92.588 385.864,91.812 386.692,91.812 C387.075,91.812 387.387,91.981 387.566,92.286 C389.162,94.939 392.4,96.52 396.229,96.52 L396.229,96.52 Z" id="Fill-17"></path>
                <path d="M415.601,54.692 C414.007,54.692 412.72,55.982 412.72,57.58 C412.72,59.176 414.007,60.47 415.601,60.47 C417.198,60.47 418.496,59.176 418.496,57.58 C418.496,55.982 417.198,54.692 415.601,54.692 Z M415.601,61.041 C413.682,61.041 412.146,59.494 412.146,57.58 C412.146,55.662 413.682,54.117 415.601,54.117 C417.52,54.117 419.07,55.662 419.07,57.58 C419.07,59.494 417.52,61.041 415.601,61.041 L415.601,61.041 Z" id="Fill-18"></path>
                <path d="M414.926,56.125 L415.799,56.125 C416.199,56.125 416.455,56.372 416.455,56.755 C416.455,57.135 416.192,57.39 415.799,57.39 L414.926,57.39 L414.926,56.125 Z M416.199,57.933 C416.682,57.817 417.101,57.436 417.101,56.755 C417.101,56.03 416.577,55.524 415.827,55.524 L414.298,55.524 L414.298,59.511 L414.926,59.511 L414.926,57.992 L415.496,57.992 L416.523,59.511 L417.289,59.511 L416.199,57.933 L416.199,57.933 Z" id="Fill-19"></path>
            </g>
        </g>
    </g>
</svg>