<?xml version="1.0" encoding="UTF-8"?>
<svg width="661px" height="168px" viewBox="0 0 661 168" version="1.1" xmlns="http://www.w3.org/2000/svg" xmlns:xlink="http://www.w3.org/1999/xlink">
    <!-- Generator: Sketch 44 (41411) - http://www.bohemiancoding.com/sketch -->
    <title>rea</title>
    <desc>Created with Sketch.</desc>
    <defs></defs>
    <g id="Page-1" stroke="none" stroke-width="1" fill="none" fill-rule="evenodd">
        <g id="Artboard" transform="translate(-153.000000, -119.000000)" fill-rule="nonzero" fill="#000000">
            <g id="rea" transform="translate(152.000000, 119.000000)">
                <g id="Group">
                    <path d="M1,83.19 C1.24756446,37.176637 38.6159713,0.00483546078 84.63,0 L85.1,0 C118.933459,0.182520566 149.325367,20.728254 162.10354,52.0564295 C174.881713,83.384605 167.529601,119.325413 143.475601,143.119138 C119.421601,166.912863 83.4029361,173.87354 52.2156282,160.755304 C21.0283203,147.637069 0.814435918,117.023443 1,83.19 Z M139.5,72.16 L89.81,22.66 C88.4806324,21.2209838 86.6090712,20.404896 84.65,20.41 C82.6909288,20.404896 80.8193676,21.2209838 79.49,22.66 L29.79,72.16 C26.7473951,75.2325151 25.8463871,79.8311197 27.5045352,83.8246569 C29.1626832,87.8181941 33.0559275,90.4261874 37.38,90.44 L44.22,90.44 C44.22,90.44 44.22,128.02 44.22,128.11 C44.22,131.975993 47.3540068,135.11 51.22,135.11 L118.14,135.11 C122.005993,135.11 125.14,131.975993 125.14,128.11 C125.14,128.02 125.14,90.44 125.14,90.44 L131.98,90.44 C136.304073,90.4261874 140.197317,87.8181941 141.855465,83.8246569 C143.513613,79.8311197 142.612605,75.2325151 139.57,72.16 L139.5,72.16 Z M112.02,77.52 L112.02,122 L57.34,122 L57.34,77.52 L43,77.52 L84.65,36.05 L126.32,77.52 L112.02,77.52 Z" id="Combined-Shape"></path>
                </g>
                <path d="M250.22,121.87 L237.54,121.87 C236.4,121.87 235.99,120.87 235.47,119.79 L220.47,92.06 L219.02,92.06 C216.32,92.06 212.16,91.75 209.77,91.64 L209.77,119.79 C209.791784,120.334154 209.590727,120.86366 209.213267,121.256218 C208.835807,121.648776 208.314589,121.870436 207.77,121.87 L197.45,121.87 C196.305155,121.864496 195.379987,120.934858 195.38,119.79 L195.38,48.32 C195.38,46.25 196.62,45.52 198.7,45.21 C205.444675,44.2632245 212.249324,43.80869 219.06,43.85 C235.06,43.85 248.98,49.56 248.98,67.33 L248.98,68.26 C248.98,79.26 243.47,86.12 234.98,89.45 L251.29,119.78 C251.445584,120.027681 251.51907,120.31813 251.5,120.61 C251.535874,120.957535 251.411811,121.302532 251.162823,121.54763 C250.913835,121.792727 250.566927,121.911342 250.22,121.87 L250.22,121.87 Z M234.64,67.34 C234.64,59.55 229.44,56.22 219.06,56.22 C216.87,56.22 211.68,56.43 209.81,56.63 L209.81,80 C211.47,80.1 217.29,80.31 219.06,80.31 C229.76,80.31 234.64,77.41 234.64,68.31 L234.64,67.34 Z" id="Shape"></path>
                <path d="M301.22,121.25 C297.89,121.77 293.84,122.7 281.48,122.7 C267.98,122.7 257.48,119.06 257.48,101.4 L257.48,65.16 C257.48,47.5 267.98,43.86 281.48,43.86 C293.84,43.86 297.89,44.8 301.22,45.32 C302.78,45.53 303.29,46.05 303.29,47.5 L303.29,54.15 C303.290013,55.2948583 302.364845,56.2244959 301.22,56.23 L280,56.23 C274,56.23 271.8,58.31 271.8,65.16 L271.8,76.38 L300,76.38 C301.144845,76.3855041 302.070013,77.3151417 302.07,78.46 L302.07,85.94 C302.059079,87.0770479 301.137087,87.9945856 300,88 L271.82,88 L271.82,101.4 C271.82,108.26 274,110.33 280.02,110.33 L301.22,110.33 C302.364845,110.335504 303.290013,111.265142 303.29,112.41 L303.29,119.06 C303.3,120.52 302.78,121 301.22,121.25 Z" id="Shape"></path>
                <path d="M369.68,121.87 L358.68,121.87 C357.689086,121.801809 356.868144,121.075275 356.68,120.1 L351.9,100.37 L328,100.37 L323.22,120.1 C323.031856,121.075275 322.210914,121.801809 321.22,121.87 L310.22,121.87 C309.734255,121.894596 309.259601,121.719357 308.906373,121.385018 C308.553145,121.050679 308.35211,120.586362 308.35,120.1 C308.393512,119.92878 308.426903,119.755146 308.45,119.58 L325.45,54.45 C327.94,44.79 335.45,43.85 339.89,43.85 C344.33,43.85 351.84,44.79 354.33,54.45 L371.33,119.58 C371.35312,119.755142 371.386511,119.928775 371.43,120.1 C371.424701,121.067575 370.647453,121.853707 369.68,121.87 L369.68,121.87 Z M341.68,57.67 C341.31,56.43 341,56 340,56 C339,56 338.65,56.42 338.34,57.66 L330.86,88.51 L349.14,88.51 L341.68,57.67 Z" id="Shape"></path>
                <path d="M485.87,74.19 C480.852335,74.1925378 475.918929,75.4801119 471.54,77.93 L471.54,119.69 C471.541227,120.855985 470.624759,121.816515 469.46,121.87 L459.91,121.87 C458.742945,121.821573 457.823613,120.858042 457.83,119.69 L457.83,65.36 C457.835504,64.2151549 458.765142,63.2899868 459.91,63.29 L468.91,63.29 C470.05651,63.2899475 470.989029,64.213543 471,65.36 L471,67.54 C475.257067,64.2698601 480.481986,62.5106282 485.85,62.54 C486.416363,62.5237264 486.965064,62.7380979 487.370394,63.1340016 C487.775724,63.5299052 488.002945,64.0734108 488,64.64 L488,72.12 C487.994764,72.6778269 487.766739,73.2104112 487.366684,73.599197 C486.966629,73.9879828 486.427749,74.2007012 485.87,74.19 L485.87,74.19 Z" id="Shape"></path>
                <path d="M515.33,122.7 C499.03,122.7 490.51,111.7 490.51,96.83 L490.51,88.42 C490.51,73.57 499.03,62.55 515.33,62.55 C531.63,62.55 540.16,73.55 540.16,88.42 L540.16,96.84 C540.16,111.69 531.65,122.7 515.33,122.7 Z M526.45,88.42 C526.45,79.9 522.61,74.42 515.33,74.42 C508.05,74.42 504.22,79.92 504.22,88.42 L504.22,96.84 C504.22,105.36 508.07,110.84 515.33,110.84 C522.59,110.84 526.45,105.34 526.45,96.84 L526.45,88.42 Z" id="Shape"></path>
                <path d="M592.92,121.87 L583.36,121.87 C582.215155,121.864496 581.289987,120.934858 581.29,119.79 L581.29,117.4 C575.88,120.93 571.62,122.59 564.98,122.59 C559.79,122.59 555.22,121.24 552.2,118.23 C548.35,114.39 547,108 547,99.33 L547,65.47 C546.993398,64.3056669 547.906884,63.343638 549.07,63.29 L558.63,63.29 C559.797055,63.3384274 560.716387,64.3019577 560.71,65.47 L560.71,99.33 C560.71,104.52 561.12,107.54 563.1,109.33 C564.56,110.58 566.32,111.2 569.54,111.2 C573.39,111.2 578.37,108.61 581.28,107.04 L581.28,65.47 C581.273398,64.3056669 582.186884,63.343638 583.35,63.29 L592.91,63.29 C594.080992,63.3331832 595.006196,64.2982281 595,65.47 L595,119.8 C594.989079,120.942571 594.06261,121.864585 592.92,121.87 L592.92,121.87 Z" id="Shape"></path>
                <path d="M627,122.7 C623.654533,122.669604 620.314414,122.425775 617,121.97 L617,140.36 C616.994496,141.504845 616.064858,142.430013 614.92,142.43 L605.37,142.43 C604.225142,142.430013 603.295504,141.504845 603.29,140.36 L603.29,68.06 C603.29,66.5 603.7,65.88 606.09,65.26 C612.927904,63.5320729 619.947458,62.6256744 627,62.56 C643.73,62.56 651.83,72.43 651.83,88.63 L651.83,96.63 C651.82,112.84 643.71,122.7 627,122.7 Z M638.12,88.63 C638.12,80.11 635.93,73.78 627,73.78 C623.65225,73.7475061 620.307539,73.99167 617,74.51 L617,110.76 C620.316485,111.195792 623.655386,111.439532 627,111.49 C635.93,111.49 638.12,105.16 638.12,96.64 L638.12,88.63 Z" id="Shape"></path>
                <path d="M445.72,121 C440.53,122 433.78,122.77 423.09,122.77 C411.88,122.77 395.27,115.39 395.27,90.9 L395.27,75.9 C395.27,51.3 411.05,43.9 423.41,43.9 C430.888646,43.9112884 438.353734,44.5367236 445.73,45.77 C447.08,46.08 447.73,46.6 447.73,47.95 L447.73,54.95 C447.73,56.41 447.32,57.13 445.66,57.13 L445.35,57.13 C440.58,56.71 433.41,56.3 423.45,56.3 C416.45,56.3 409.85,61.18 409.85,75.92 L409.85,90.92 C409.85,105.66 417.01,110.44 423.14,110.44 C426.98,110.44 430.2,110.33 433.42,110.13 L433.42,83.58 C433.398216,83.0358464 433.599273,82.50634 433.976733,82.1137819 C434.354193,81.7212238 434.875411,81.4995641 435.42,81.5 L445.7,81.5 C446.844845,81.5055041 447.770013,82.4351417 447.77,83.58 L447.77,118.46 C447.837181,119.069096 447.658522,119.679818 447.273658,120.156673 C446.888795,120.633528 446.329551,120.937086 445.72,121 L445.72,121 Z" id="Shape"></path>
                <path d="M445.72,121 C440.53,122 433.78,122.77 423.09,122.77 C411.88,122.77 395.27,115.39 395.27,90.9 L395.27,75.9 C395.27,51.3 411.05,43.9 423.41,43.9 C430.888646,43.9112884 438.353734,44.5367236 445.73,45.77 C447.08,46.08 447.73,46.6 447.73,47.95 L447.73,54.95 C447.73,56.41 447.32,57.13 445.66,57.13 L445.35,57.13 C440.58,56.71 433.41,56.3 423.45,56.3 C416.45,56.3 409.85,61.18 409.85,75.92 L409.85,90.92 C409.85,105.66 417.01,110.44 423.14,110.44 C426.98,110.44 430.2,110.33 433.42,110.13 L433.42,83.58 C433.398216,83.0358464 433.599273,82.50634 433.976733,82.1137819 C434.354193,81.7212238 434.875411,81.4995641 435.42,81.5 L445.7,81.5 C446.844845,81.5055041 447.770013,82.4351417 447.77,83.58 L447.77,118.46 C447.837181,119.069096 447.658522,119.679818 447.273658,120.156673 C446.888795,120.633528 446.329551,120.937086 445.72,121 L445.72,121 Z" id="Shape"></path>
                <path d="M655,60 C652.320167,60.0487323 649.876984,58.4719595 648.817512,56.0099684 C647.758041,53.5479774 648.292703,50.6897449 650.170478,48.7771965 C652.048253,46.8646481 654.896195,46.2776356 657.377209,47.2917584 C659.858224,48.3058811 661.479557,50.719724 661.48,53.4 C661.526164,55.1433125 660.862245,56.8306055 659.64047,58.0750065 C658.418694,59.3194076 656.743866,60.014172 655,60 Z M655,47.95 C653.554541,47.9080304 652.158033,48.4757019 651.151805,49.5142667 C650.145576,50.5528315 649.622346,51.966591 649.71,53.41 C649.589072,55.3739154 650.568152,57.2426718 652.25165,58.261211 C653.935148,59.2797502 656.044852,59.2797502 657.72835,58.261211 C659.411848,57.2426718 660.390928,55.3739154 660.27,53.41 C660.37835,51.9601994 659.866452,50.5325103 658.861565,49.4818606 C657.856679,48.4312109 656.453186,47.8562809 655,47.9 L655,47.95 Z M656.45,56.74 L655.31,54.2 L653.96,54.2 L653.96,56.74 L652.76,56.74 L652.76,49.81 L655.29,49.81 C655.909744,49.7479928 656.526882,49.9503763 656.98955,50.3673488 C657.452218,50.7843212 657.717458,51.3771668 657.72,52 C657.782567,52.8675534 657.27724,53.6760757 656.47,54 L657.76,56.73 L656.45,56.74 Z M655.29,50.98 L653.94,50.98 L653.94,53 L655.29,53 C656,53 656.47,52.67 656.47,51.92 C656.473086,51.6179301 656.339456,51.3306541 656.106435,51.138412 C655.873414,50.9461698 655.565979,50.8695671 655.27,50.93 L655.29,50.98 Z" id="Shape"></path>
            </g>
        </g>
    </g>
</svg>