<svg id="Layer_1" data-name="Layer 1" xmlns="http://www.w3.org/2000/svg" viewBox="0 0 160 32.19"><title>steelcase_logo</title><path d="M49.72,109.2V96.32h3.7V92.63h-3.7V85.35H44.91v7.28H43c-.49-3.73-3.23-8.73-11.34-8.73-9.5,0-11.26,6-11.26,9.41,0,6.73,4.57,7.83,9.3,9l3.14.77c3.1.77,5.3,1.4,5.3,3.79,0,3.24-3.22,4-6.12,4-5.34,0-6.16-3.24-6.2-4.94H20c0,3.79,1.84,10.22,12.52,10.22,2.57,0,11.54-.81,11.54-10,0-5.49-3.67-7.2-7.67-8.22L29.26,96c-1.22-.3-3.1-.81-3.1-3.19,0-2.77,2.77-3.66,5.1-3.66,4.14,0,5.36,1.94,5.78,3.45H37v3.68h7.94v14.33c0,2.94-.21,4.9,4.94,4.9h.77c.94,0,1.87,0,2.81-.09v-4.51c-.43,0-.85.09-1.23.09C49.77,111,49.72,110.52,49.72,109.2Z" transform="translate(-20 -83.9)"/><path d="M139.66,110.86h0V98.6c0-5.58-5.83-6.56-9-6.56-4.35,0-8.85.86-10,6.68C119.27,93.34,114.21,92,111,92c-6.31,0-9.59,3.55-10.55,8.89V84.71h-6V101c-1.24-7.34-6.46-9-10.37-9-7.65,0-10,5.19-10.61,8.82C72.22,93.65,67.05,92,63.17,92c-9.92,0-10.86,8.73-10.86,11.45,0,9.33,4.9,12.39,11.28,12.39,3.87,0,8.39-1.79,10-7.24H67.42a3.83,3.83,0,0,1-3.83,2.47c-4.81,0-5.15-3.83-5.32-5.54H73.36c.69,7.7,5.31,10.3,11.19,10.3,3.86,0,8.35-1.77,9.95-7.18v6.58h6v-7.5c.82,4.05,3.45,8.1,10.17,8.1,5.33,0,8-2.68,9.27-5.22.62,3.68,3.74,5.22,6.79,5.22A9.22,9.22,0,0,0,134,112.6a10,10,0,0,0,.55,2.68H141v-.89C140.26,114.14,139.66,113.54,139.66,110.86ZM58.44,101.7c.34-3,1.83-4.77,4.64-4.77,1.92,0,4.26,1.11,4.6,4.77ZM84,96.93c1.92,0,4.26,1.11,4.6,4.77H79.4C79.74,98.72,81.23,96.93,84,96.93Zm4.34,11.71a3.83,3.83,0,0,1-3.83,2.47c-4.81,0-5.15-3.83-5.32-5.54H94.49v3.07H88.38ZM120.06,107h-5.14a4.16,4.16,0,0,1-4,4c-4.51,0-4.6-4.9-4.6-7.37,0-2.81,1-6.56,4.73-6.56,2.77-.17,3.71,2.17,4,3.66h6q0-.38-.09-.77h5.33c.17-1.32.68-3.15,3.66-3.15,1.53,0,3.92.13,3.92,2.64,0,1.28-1.15,1.66-2.09,1.79h0l-5.36.81C123.3,102.49,120.86,104.07,120.06,107Zm8.45,4.6a2.6,2.6,0,0,1-2.77-2.72c0-2.47,1.83-3,4-3.41,2.47-.38,3.45-.77,4-1.24v2.9h0C133.83,109.92,131.15,111.62,128.51,111.62Z" transform="translate(-20 -83.9)"/><path d="M180,104.51h0C180,94.17,173.82,92,169.35,92c-9.92,0-10.86,8.73-10.86,11.45,0,.38,0,.75,0,1.12-3.25-4.14-12.46-2.9-12.46-5.84,0-1,.41-2.21,3.51-2.21s3.59,1.53,3.84,3H159c-.45-6.39-5.51-7.49-9.75-7.49-6.77,0-8.77,4.26-8.77,7.58,0,8.47,13.46,5.62,13.46,9.41,0,.85-.69,2.34-3.63,2.34-3.59,0-4.73-1.4-4.73-3.32H139.7c.16,6,5.51,7.83,10.44,7.83,3.08,0,8.43-1,9.36-6.16,1.75,4.52,5.62,6.16,10.28,6.16,3.88,0,8.39-1.79,10-7.24h-6.13a3.83,3.83,0,0,1-3.83,2.47c-4.81,0-5.15-3.83-5.32-5.54H180Zm-15.37-2.81c.34-3,1.83-4.77,4.64-4.77,1.92,0,4.26,1.11,4.6,4.77Z" transform="translate(-20 -83.9)"/></svg>