<svg id="Layer_1" data-name="Layer 1" xmlns="http://www.w3.org/2000/svg" viewBox="0 0 160 155.8"><title>stockholms_universitet</title><path d="M148.23,36.81c.12.14.06.24-.07.35s-1.55,2.11-1.7,2.35-.11-.12-.06-.28a3.43,3.43,0,0,0-.94-3.64,2.39,2.39,0,0,0-3.39.51c-.82,1.22-.85,2.33,0,5.52s.52,4.55-.7,6a4.63,4.63,0,0,1-6,.41c-2.36-1.64-2.46-2-2.83-2.17s-.28-.35,0-.69c.42-.49,1.82-2.4,2.06-2.75s.2,0,0,.39-1,2.84.91,4.16,3.11.45,3.75-.31,1.11-1.65.12-5.46c-1.05-4-.33-5.34,1.19-6.53a4.21,4.21,0,0,1,5.36,0,18.4,18.4,0,0,1,1.72,1.55c.19.19.3.4.4.5s.12,0,.18.11ZM22.08,82.28c.06-.14.21-.07.41,0a13.43,13.43,0,0,0,2.53.44c.42,0-.29.32-.52.35-.6.07-1.79.43-2.32,2.42a2.15,2.15,0,0,0,1.56,2.76c1.75.36,2.67-.3,5.24-2.37s4.42-2.39,6.1-1.91a4.38,4.38,0,0,1,2.8,5.14,9.16,9.16,0,0,1-1.35,3.21c-.11.29-.24.39-.68.28s-2.66-.46-3-.5c-.68-.07-.39-.33,0-.38,1.08-.14,3.44-.43,3.91-2.74a2.25,2.25,0,0,0-1.83-2.79c-1.07-.26-2.24-.23-5.26,2.27-3.25,2.69-4.64,2.69-6.39,1.89S20.62,87.81,21,85.56a9.82,9.82,0,0,1,1-2.84c.07-.1,0-.34.07-.44Zm99.74,94.91c-.23,0-.18-.19-.22-.33s-.57-1.92-.63-2.06.11-.21.23-.08a3.41,3.41,0,0,0,3.29,1.05,2.44,2.44,0,0,0,1.82-2.89c-.46-1.4-1.83-2-4.82-3.43-2.7-1.24-3.57-2.5-3.82-4a4.91,4.91,0,0,1,3.47-5.19c2.26-.7,2.8-.63,3.25-.86s.39.53.44.67c.22.6.81,2.47.94,2.83s-.12.44-.29.08-1.84-2.41-3.89-1.74-2.31,2.09-2,3,.5,1.9,4.29,3.49,4.42,3.14,4.43,4.93c0,2-1.57,3.54-3.67,4.07a9.11,9.11,0,0,1-1.82.27l-.62.07c-.1,0-.18.11-.36.11ZM150,41a7.44,7.44,0,0,0,1.52-.9c.19-.16.56,0,.78.23s3.44,3.41,4.1,4.11c.88.94,3.81,3.62,4.18,4s.73.56.35.81-1.19.71-1.43.83-.17,0-.17-.25-.19-.69-1-1.55-1.76-1.83-1.93-2-.23-.16-.38,0-3.47,3.49-4.2,4.24-4.88,4.82-5,5.47.09.8.17.93.19.67,0,.47-1.56-1.68-1.88-2S143.49,54,143.3,53.8s-.06-.28.27-.15a1.5,1.5,0,0,0,1.43,0c1-.48,4.58-4.22,5.09-4.73s4-4.16,4.11-4.27.22-.25,0-.53a35.1,35.1,0,0,0-2.83-2.64,1.69,1.69,0,0,0-1-.37c-.28,0-.65,0-.35-.14ZM29.8,67.22a19.61,19.61,0,0,0-1.45-1.32c-.19-.16-.08-.37.08-.64s2.42-4.42,2.94-5.22c.7-1.08,2.79-4.57,3-5s.46-.79.67-.59a12.1,12.1,0,0,1,1.06,1.21c.18.26.08.13-.2.13s-.63.55-1.26,1.55a22.45,22.45,0,0,0-1.23,2.23c-.13.28.05.36.21.47s4.09,2.54,5,3.07,5.85,3.35,6.58,3.31.68-.15.8-.24.59-.2.39,0a19.37,19.37,0,0,0-1.37,2c-.32.58-1.06,2-1.16,2.17s-.1-.14-.08-.44.24-.67-.29-1.1c-.92-.76-5.32-3.33-5.94-3.71s-4.92-2.81-5.22-2.91-.41-.34-.58,0A21.29,21.29,0,0,0,29.87,66a2,2,0,0,0,0,.89c.08.37.09.51-.05.35ZM49.49,41.4a8,8,0,0,0-.82-1.66c-.14-.28-.15-.28.22-.58.16-.13,4-3,4.78-3.56,1-.8,4.58-3.18,5-3.49s.89-.49,1-.1.57,1.43.65,1.68-.05.1-.32-.15-.6-.15-1.58.5-2.36,1.58-2.55,1.74-.16.17-.07.34c.22.43,2.75,4.16,3.47,5.1.58.77,4.09,5.74,4.76,6a1.06,1.06,0,0,0,.84,0c.21,0,.46,0,.11.23s-1.4.91-1.78,1.17q-.88.62-1.71,1.31c-.41.35-.3,0-.11-.27s.32-.4.05-1A57.65,57.65,0,0,0,57.76,43c-.42-.59-3.76-5.06-4-5.34s-.16-.21-.46,0-2.89,2.19-3.28,2.56-.46.35-.49.73c0,.23,0,.79-.08.5ZM167.25,56.48c2.37,2.48,4.27,8.34-.61,12.41A8.66,8.66,0,0,1,155,68.49c-2-2.27-4.14-7.57.35-12a8.33,8.33,0,0,1,11.93,0Zm-9.92,2c-3.55,3.45-3.12,7.35-1.3,9.19s5.71,2.13,9.13-1.15,3.14-7.74,1-9.66c-1.6-1.41-5.2-1.86-8.78,1.62Zm14.7,78a8.34,8.34,0,0,1-11.47,4.81A8.61,8.61,0,0,1,155.93,131c1-2.88,5.22-7.13,10.67-5A8.48,8.48,0,0,1,172,136.53Zm-6.23-8.11c-4.84-1.73-7.92.56-8.71,2.87s.11,5.52,5,7.36c4.73,1.77,8.29,0,9.1-3.18.3-1.19.37-5-5.41-7Zm.08-40.51a16.38,16.38,0,0,1-2.14-.23c-.49-.1-.56-.11-.71-.31A10.53,10.53,0,0,1,160.84,81c0-4.13,2-7.52,5.9-8.68a8.56,8.56,0,0,1,9,3.06A10.38,10.38,0,0,1,177.67,81q.06,1.15.24,2.29c.1.65.1.83.23,1s-.06.34-.3.36-1.19.16-1.66.28l-1.19.31c-.52.12-.5,0-.1-.31a3.14,3.14,0,0,0,1.64-2.26c.17-1.3.38-4.16-1.69-6.27-1.53-1.56-4.1-2.81-7.78-1.3a7.61,7.61,0,0,0-5,6.88,5.65,5.65,0,0,0,3.64,5.57c.56.2.87.36.15.38Zm13.42,2a40,40,0,0,0,.4,4c.14.67-.15.36-.2.12a.9.9,0,0,0-.79-.66,54.61,54.61,0,0,0-6.92.51,63.17,63.17,0,0,0,6,4.74,5.22,5.22,0,0,0,1.58.9c.14,0,.07.11.14-.08s.36-1.11.32.18c0,.31,0,1.23,0,1.46s.11.88.13,1c.1.69,0,.55-.53-.08a18,18,0,0,0-3-2.51c-.57-.41-4.16-3.13-4.16-3.13s-5.16,4.9-6.14,6a13.54,13.54,0,0,0-2,2.55c-.17.37-.3.55-.24.2s.2-1.64.23-2.25.09-2.22.1-2.39c0-.33.15-.08.33,0s1.73-1.3,3.32-2.87c1.21-1.19,3.23-3.38,3.38-3.6a48.15,48.15,0,0,0-5,.6,4.34,4.34,0,0,0-1.79.64,1.12,1.12,0,0,0-.34.66c0,.21-.23.31-.26,0s-.1-1.74-.13-2.26-.21-1.74-.24-1.91.14-.32.24-.08a.71.71,0,0,0,.48.48c.58.23,1.35.23,7.06-.43s6.14-.82,6.71-1,1-.38,1.05-.89c0-.3.29-.87.28.06Zm.11,19.57c-.11.52-.58,3.32-.58,3.89s-.27.57-.33.19a.86.86,0,0,0-.53-.76,9.61,9.61,0,0,0-2.83-.69c-2-.32-3.26-.54-3.26-.54s-.61,2.6-1,4.18c-.43,2-.9,4.6-.9,4.6l3.8,1.07c1,.29,2.58.93,3.08.08.35-.59.57-.46.24.17-.11.22-.81,2.92-.92,3.46-.2,1-.34.37-.3.13s.23-.65-.65-1-3.86-1.35-6.48-2.1-5.62-1.71-6.81-1.61c-.59,0-.75.18-.89.39s-.55.36-.27-.1a19.71,19.71,0,0,0,1-3.6c.17-1.17.36-.36.33-.13a.88.88,0,0,0,.55.89,45.28,45.28,0,0,0,6,2s.6-2.4,1-4.24c.48-2.18.8-4.34.8-4.34l-2.05-.34a28.8,28.8,0,0,0-4.44-.48,1.06,1.06,0,0,0-.68.6c-.06.2-.45.58-.24-.14a22.89,22.89,0,0,0,.52-3.56c0-1,.31-.56.32-.28a1,1,0,0,0,.45.69c1.06.46,2.94.73,6.78,1.3s6.75,1,7.27.79.51-.4.62-.64.41-.59.26.14Zm-15.66,39.59a26.53,26.53,0,0,0-2.64,3.06c-.41.56-.35.12-.24-.1.19-.41.07-.53-.08-.88-.26-.58-2.23-2.19-4.78-4.32s-4.79-4-5.48-4.07c-.34,0-.64,0-1.34.6a18.29,18.29,0,0,0-2.6,3,2.87,2.87,0,0,0-.32,1.63c0,.38-.11.33-.25,0a15.64,15.64,0,0,1-.53-2.14.61.61,0,0,1,.22-.56c.4-.43,3.73-4.22,4.22-4.76a19.67,19.67,0,0,0,1.55-1.91c.32-.54.42-.15.32.12a1.4,1.4,0,0,0-.15,1.1c.33,1,3.48,3.32,5.3,4.78,3.56,2.87,5.3,4.37,5.89,4.38a1,1,0,0,0,.78-.25c.17-.14.58,0,.13.28Zm-20.46-.17c.17.43,1.87,3.36,3.65,6.34s3.82,6.28,4.1,6.76c.54.94.56,1.17-.37.7-1.35-.67-6.77-3.4-7.65-3.83s-5.33-2.68-5.33-2.68,1,7.23,1,7.64.86,6.43.9,6.73,0,.78-.5.27-9.1-11.43-9.53-11.92a2,2,0,0,0-1.25-.74,1.3,1.3,0,0,0-.67,0c-.22.08-.38-.12-.07-.24s3.44-1.72,3.74-1.9.45,0,.16.21-.44.4-.36.75c.19.83,6.38,8.52,6.38,8.52s-1.06-6.91-1.23-7.79-.79-5-.79-5,0-.26.26-.12l7,3.55,4.53,2.23s-3.4-5.52-4.8-7.72a1.83,1.83,0,0,0-.92-.85c-.48-.1-.63.11-.9.22s-.36-.11.06-.36a13.93,13.93,0,0,0,1.42-1c.34-.27,1.22-1.11,1.36-1.25s.36,0,.2.18a1,1,0,0,0-.34,1.24Zm-37.38,21c0,.28.06,3.63.09,4.05,0,.19-.15.14-.27-.28A1,1,0,0,0,105,173a18.14,18.14,0,0,0-3.75-.07s-.08,3.87.33,4.31.44.38.61.41.59.25.31.23c-.52,0-3.44,0-4.1,0-.48,0-.24-.17.17-.26s.61-.31.76-.82a30.06,30.06,0,0,0,.09-3.91,25.07,25.07,0,0,0-4,.2,1,1,0,0,0-.48.81c0,.27-.33.52-.29.15a29.76,29.76,0,0,0,0-3.62c-.07-.48,0-.41.2-.12s.13.55.55.72a30,30,0,0,0,4,.14s0-3.29-.07-3.79a1,1,0,0,0-.84-.84c-.24,0-.45-.23-.14-.19a26.25,26.25,0,0,0,3.91,0c.42,0,.17.18-.14.26a1.05,1.05,0,0,0-.83.8c-.14.51-.11,3.74-.11,3.74s3.07,0,3.62-.08a1,1,0,0,0,.82-.82C105.73,170,105.94,169.62,105.91,169.91Zm-27.76,7.86a21.68,21.68,0,0,0-4.44-1.59c-.48-.08,0-.21.27-.18s.74.09,1-.22c.76-.82,3.76-8.39,4.16-10.17s.47-4.24-2.88-5.44-4.88.66-6.78,4.22a60.73,60.73,0,0,0-3.59,7.76.79.79,0,0,0,.35.73c.31.25.49.66.19.42a20.93,20.93,0,0,0-3.85-1.86c-.3-.09-.06-.26.32-.18s.46,0,.76-.22c.75-.52,4.56-8.15,5.06-9a6.64,6.64,0,0,1,4.4-3.33,8.26,8.26,0,0,1,7.41,3.23,6.43,6.43,0,0,1,.69,5.47c-.33,1.44-3.47,8.45-3.48,9.4a.71.71,0,0,0,.36.66c.2.17.32.47,0,.29Zm-22-9.36s-.66-7.09-.86-9.55c-.23-2.86-.95-8.38-.95-8.38s-5.58,6-6.3,6.76-1.39,1.45-1.39,2,.23.6.32.78.19.62.05.45a18.31,18.31,0,0,0-1.53-1.56,14.3,14.3,0,0,0-1.47-1.2c-.38-.26.09-.21.3-.08a1,1,0,0,0,.77.16c.53-.06,4.54-4.47,6-6S56,146.49,56.32,146s.24-.19.27.18.62,7.75.74,8.59.49,5.75.54,6.31l.21,2.42s2.56-3.69,3.42-5,2.64-3.7,2.63-4.33a1.27,1.27,0,0,0-.57-1.07c-.12-.12-.21-.42.06-.19a19.57,19.57,0,0,0,3.53,2.36c.54.25-.27.09-.41,0a1.79,1.79,0,0,0-1,0c-.58.2-3.8,5.14-4.44,6.08s-2.6,3.69-3,4.42-1.49,2.27-1.7,2.64-.32.36-.37,0ZM49,138.68a15,15,0,0,0,1.3,1.89,18.35,18.35,0,0,0,1.6,1.75c.3.29-.12.18-.4,0s-.6-.3-1.49.18-10.19,8.27-10.54,8.71-.39.79-.21,1.19,0,.58-.08.39a22.49,22.49,0,0,0-2.71-3.43c-.41-.3,0-.23.28-.08s.36.15.67,0c1-.43,11.37-8.79,11.53-9.38a1.08,1.08,0,0,0-.08-.9C48.81,138.73,48.77,138.31,49,138.68ZM41,76.45a27.74,27.74,0,0,0-1.77,4.47c-.09.4-.29,0-.23-.31.1-.5.17-.77-.67-1.33-1.09-.72-11.89-4.85-13-4.85a.92.92,0,0,0-.89.48c-.17.22-.54.32-.31,0A34.65,34.65,0,0,0,26,70.46c.08-.49.27,0,.21.28a.86.86,0,0,0,.2.92c1,.88,12.71,5.36,13.58,5.22.59-.1.53-.29.73-.48s.62-.37.35.05ZM37,136.18l3.46-4.63s-6.07.33-7.37.44-5.08.27-5.5.88a1.09,1.09,0,0,0,0,1c.05.28,0,.72-.13.39q-.43-1.16-.92-2.3c-.33-.76-.78-1.7-.9-1.87s.13-.21.32,0a1.33,1.33,0,0,0,.82.49,74.13,74.13,0,0,0,7.59-.11c1.09,0,9.12-.56,9.79-.5.36,0,.67-.14.25.52-.24.37-5,6.65-5.4,7.16s-4.83,6.28-4.91,7a2,2,0,0,0,.05.94c0,.25,0,.92-.07.69a34,34,0,0,0-2.7-4.35c-.34-.44.11-.15.39,0s.44,0,.74-.17c.87-.58,4-4.86,4.49-5.51Zm.51-22.82c.23.66.94,3.53,1.29,4.79.13.44.92,3.37,1.16,3.86.12.24-.41-.13-.51-.39a.69.69,0,0,0-.31-.47,1.17,1.17,0,0,0-.53-.16c-.73-.09-4.92,1.3-7,1.94s-6.26,1.89-6.69,2.39a.91.91,0,0,0-.26,1c0,.23-.14,1-.23.53a22.53,22.53,0,0,0-.56-2.69c-.34-1.21-1.73-6.17-1.81-6.39s-.12-.38.08-.46a18.84,18.84,0,0,0,1.86-.73c.44-.26.27.12,0,.37s-.35.37-.31,1.15a35.77,35.77,0,0,0,1.16,4.32s2-.54,2.72-.78,2.9-.9,2.9-.9a32.57,32.57,0,0,0-1.32-4.14c-.33-.42-.54-.34-.87-.31s-.66-.16-.35-.22A20.46,20.46,0,0,0,31.41,115c.39-.19,0,.3-.18.4a.92.92,0,0,0-.5.91,9.12,9.12,0,0,0,.5,2.2c.15.42.57,1.85.57,1.85s3.71-1.07,4.33-1.37,1.1-.3,1-1.52a14,14,0,0,0-1.31-4.22,3.32,3.32,0,0,0-.87-.92c-.14-.11-.62-.52-.33-.43a21.71,21.71,0,0,1,2.51,1,.91.91,0,0,1,.39.52ZM55.7,55c-.44.47-3.7,4-4.61,5l-1.24,1.43c-.17.2-.24-.18-.11-.42a.85.85,0,0,0,.11-.91c-.23-.75-4-3.85-5.68-5.29s-4.64-4.15-5.29-4.24a1.33,1.33,0,0,0-1,.16c-.21.1-.71.31-.36,0s.89-.94,1.67-1.78,4.33-4.53,4.47-4.72.28-.24.43-.08a13.43,13.43,0,0,0,1.4,1.31c.52.32.05.28-.22.21s-.37-.15-.95.19a21.91,21.91,0,0,0-3,3.07l4.16,3.84s2.9-2.69,2.95-3.26a1.29,1.29,0,0,0-.06-.69c-.07-.22,0-.6.14-.35a14.23,14.23,0,0,0,2.27,2.24c.36.26-.06.27-.26.18s-.42-.35-1-.08a26.78,26.78,0,0,0-2.89,3s3,2.54,3.52,3c.73.53,1.24.66,2,0a15.54,15.54,0,0,0,2.81-3.17,2.58,2.58,0,0,0,.2-1.29c0-.25.17-.57.22-.36S56,54,56,54.31s0,.38-.3.66ZM36.32,105.41c0,.35.12,2,.23,2.76.06.41-.19-.1-.26-.32a.79.79,0,0,0-.44-.6c-.58-.3-4.62,0-7,.29-2.15.24-7.13.49-7.72,1a1.25,1.25,0,0,0-.36,1c0,.23-.41,1-.39.41,0-.34,0-1.84-.09-2.35a29.54,29.54,0,0,1-.26-5.39,4.38,4.38,0,0,1,4.06-3.49,4.42,4.42,0,0,1,4,2.53,4.12,4.12,0,0,1,1-1c.82-.62,6.21-3.8,6.62-4.77a1.59,1.59,0,0,0,.12-1.07c0-.64.09-1.07.39,0A4.83,4.83,0,0,1,35.86,98c-1,1.34-4,3.16-4.6,3.57s-2.33,1.38-2.33,2.35a6.89,6.89,0,0,0,.13,1.39l3-.32c.65-.07,3.18-.23,3.51-.61a.9.9,0,0,0,.29-.71c0-.18.41-1,.38.05,0,.38,0,1.32,0,1.67Zm-9.74-3.91a3.72,3.72,0,0,0-5.08,1,6.07,6.07,0,0,0-.32,3.36l3.43-.23,3.54-.25s.31-2.8-1.57-3.9ZM81,84.64a1.77,1.77,0,0,0,1.81-1.77A1.81,1.81,0,0,0,81.06,81a1.8,1.8,0,1,0,0,3.6Z" transform="translate(-20 -22.1)"/><path d="M83.2,87.72A1.81,1.81,0,0,0,85,85.93a1.83,1.83,0,0,0-1.83-1.81,1.85,1.85,0,0,0-1.85,1.81A1.83,1.83,0,0,0,83.2,87.72Zm-4.14.11a1.79,1.79,0,1,0,0-3.58,1.79,1.79,0,0,0,0,3.58Z" transform="translate(-20 -22.1)"/><path d="M87.59,95.64H74.39s-.65-4.87-1-7.16-.89-6.07-.89-6.07.14-.41.91,0,1.33.76,1.33,1.49-1.05.93-1.09,1,0,.53.29.36a1.58,1.58,0,0,1,2,1.08,1.62,1.62,0,0,1-.41,1.87,5.39,5.39,0,0,1-1,.52,2.79,2.79,0,0,0,2.71,2c2.14,0,3-2.09,3.22-2.46A12.46,12.46,0,0,0,81,86.91s.27.82.5,1.36a3.11,3.11,0,0,0,3.14,2.37,3.17,3.17,0,0,0,3-2.07s-1.27-.25-1.55-1.11A1.86,1.86,0,0,1,87,85.09c.92-.37.89,0,1.21,0s.36-.33.09-.38-1-.38-.64-1.41c.35-.88,1.41-.92,1.9-1,.27,0,.3-.07.27.23C89.7,83.78,88.31,93,87.59,95.64Zm-19.11,4.54a1.89,1.89,0,0,0,1.85-1.85,1.85,1.85,0,0,0-1.81-1.86,1.91,1.91,0,0,0-1.92,1.81,1.94,1.94,0,0,0,1.87,1.9Zm2.18,3a1.79,1.79,0,0,0,1.85-1.75,1.85,1.85,0,0,0-3.7,0A1.94,1.94,0,0,0,70.66,103.19Zm-4.24.3a1.79,1.79,0,0,0,1.85-1.81,1.85,1.85,0,1,0-1.85,1.81Z" transform="translate(-20 -22.1)"/><path d="M75.05,111.21h-13s-.77-4.89-1.18-7.18-1.2-5.86-1.2-5.86.31-.4,1.17-.08,1.24.42,1.29,1.15a.82.82,0,0,1-.74,1c-.25.19,0,.67.23.47.46-.36,1.56,0,1.84,1.06a2,2,0,0,1-.57,1.74,4.3,4.3,0,0,1-.9.47s.47,2.78,2.86,2.73c2.23,0,3.06-2.25,3.24-2.62a12.53,12.53,0,0,0,.47-1.32s.27.91.5,1.46a3,3,0,0,0,3.21,2,2.82,2.82,0,0,0,2.87-2.14s-1.27-.42-1.57-1.27a2.08,2.08,0,0,1,.93-2.14c.92-.39.92,0,1.23.07s.59-.3.18-.52c-.24-.13-1.39-.7-.45-1.66a2.35,2.35,0,0,1,1.73-.8c.27,0,.32,0,.3.27-.11,1.19-1.89,10.37-2.46,13.17ZM55.51,84.58a1.72,1.72,0,0,0,1.79-1.72A1.79,1.79,0,0,0,55.53,81a1.83,1.83,0,0,0-1.85,1.79A1.79,1.79,0,0,0,55.51,84.58Zm2.12,3.19A1.81,1.81,0,0,0,59.45,86a1.87,1.87,0,0,0-1.85-1.84A1.84,1.84,0,0,0,55.73,86,1.87,1.87,0,0,0,57.62,87.76Zm-4.14.09a1.84,1.84,0,0,0,1.81-1.77,1.81,1.81,0,0,0-3.61,0v0A1.84,1.84,0,0,0,53.48,87.86Z" transform="translate(-20 -22.1)"/><path d="M62.48,95.54H49.06s-.79-4.73-1.09-7-1-6-1-6,.14-.52.91-.11,1.22.54,1.25,1.55c0,.85-.91,1-.94,1s.14.7.41.56a1.36,1.36,0,0,1,1.84,1A1.3,1.3,0,0,1,50,88.14a4.17,4.17,0,0,1-1,.44,2.46,2.46,0,0,0,2.59,2.12,4,4,0,0,0,3.24-2.42c.18-.36.65-1.4.65-1.4a8.1,8.1,0,0,0,.61,1.57,3.49,3.49,0,0,0,6.21.17s-1.33-.4-1.6-1.26a2.25,2.25,0,0,1,1.06-2.59c.92-.37.75.37,1.3.37.32,0,.27-.55,0-.72-.09-.05-.48,0-.61,0-.33-.16-.21-1.05,0-1.67.35-.88,1.26-.89,1.74-.94.27,0,.33-.06.27.23-.37,1.78-1.71,10.72-2,13.54Zm61.94,12.58c-.47.26-1,.82-.77,1.46.29.8.61.77.82.77a1.68,1.68,0,0,0,1-.5,1.75,1.75,0,0,0,.14-1.48A1.21,1.21,0,0,0,124.43,108.12Zm-13.9.4c-.44.38-.75,1.47-.2,1.88a1,1,0,0,0,1.06.17c.17,0,.82-.82.75-1.16s-.65-1.71-1.61-.89Zm-4.81,15.7a1.52,1.52,0,0,0-.75,2.18c.27.55,1.23.27,1.4.2A3.35,3.35,0,0,0,107,125C106.9,124.73,106.63,123.78,105.71,124.22Zm18.87-41.94c-.52,0-1.36.49-.8,1.68.46,1,1.5,0,1.66-.32s.55-1.37-.87-1.37ZM146.29,87a1.2,1.2,0,0,0-1,1.82c.5.91,1.27.18,1.46,0S148.2,87,146.29,87Zm-11.4,12.1c-.26.1-1.26,1-.89,1.57a1,1,0,0,0,1.19.44,1.57,1.57,0,0,0,.89-1.36A.86.86,0,0,0,134.89,99.07Z" transform="translate(-20 -22.1)"/><path d="M103.92,111.18c1-.2,1.08-.68,1.52-1.08.8-.73,1.91-2.8,2.73-3.21s1-.22,1.81-.22a11.31,11.31,0,0,0,1.47-.23c.37,0,1.71.4,1.74.7a8.55,8.55,0,0,0,2.15,3.65,11.8,11.8,0,0,0,4,3.22c1.75.73,3.74,1,4.35,1.27s1.77.83,1.91.88.2.07-.11-.34-1.77-2.18-2.23-2.82a25.2,25.2,0,0,0-3.91-4.36,11.78,11.78,0,0,0-5.53-2,6.35,6.35,0,0,1-1.41-.43,3,3,0,0,1,1.23,0,42.6,42.6,0,0,0,5.6.5c1-.09,5.12-.32,5.71-.27s.15.1,1.12.35c1.36.36,3.18,1.32,4.14,1.41a11.64,11.64,0,0,0,5-.64c.86-.27,4.19-1.59,5.14-1.73.34,0,.59-.5,0-.5a10.34,10.34,0,0,1-1.27-.09,14.18,14.18,0,0,1-2-.5l-2.18-.86a8.41,8.41,0,0,0-3.87,0c-1.14.32-3.87,1.82-4.32,2a11,11,0,0,1-1.87.14s1.09-.59,1.82-1.09a20.35,20.35,0,0,0,4.6-4c2.37-2.64,3.78-3.37,4.42-3.58a5.94,5.94,0,0,1,1.86-.46,34,34,0,0,0,6.22,0,34.23,34.23,0,0,0,6.74-2.64,11,11,0,0,1,3.59-.82,17,17,0,0,0-4.1-1c-1.15-.17-4.26-1.34-6.26-.8a10.08,10.08,0,0,0-4.64,2.68c-1,.89-2.63,1.91-2.91,2.19a3.47,3.47,0,0,1-1.09.41A19.48,19.48,0,0,1,136.37,95a65.25,65.25,0,0,0,6.3-6.28c1.19-1.63,2.21-4.73,2.84-5.93a13.66,13.66,0,0,1,2.78-3.13c.18-.09,0-.46-.27-.27s-3.12,1.71-4,2A23.52,23.52,0,0,0,138.62,85a6.91,6.91,0,0,0-2.25,4.72c-.23,2.72-.13,4.58-1.91,6.84a42.59,42.59,0,0,1-4.69,4.95,27.59,27.59,0,0,1-5.12,3.7,4.76,4.76,0,0,1-2.22.54s1.46-1.32,1.77-1.64a14.43,14.43,0,0,1,2.1-1.26,9.87,9.87,0,0,0,5.27-5.4c1.36-3.73,1.54-4.72,2.08-5.22s.7-.93-.25-.48a26,26,0,0,0-3.4,2.15,10.6,10.6,0,0,0-4.47,5.37c-1.11,3.18-1.93,4.41-2.42,4.88a4.31,4.31,0,0,1-3.07,1.65,22,22,0,0,1-4.2-.14c-.91-.09-1.33-.11-1.33-.11a18.76,18.76,0,0,0,2.88-.88,18.19,18.19,0,0,0,3.88-2.57c.87-.83,1.66-2.56,2.29-3.24s2.28-2.54,2.69-2.85,1.16-.67-.27-.54a24.14,24.14,0,0,0-5.32,1.34,6.6,6.6,0,0,0-3.75,3.69,10.22,10.22,0,0,1-2.39,4,2.29,2.29,0,0,1-.95.8,9,9,0,0,0-2,.26,14.93,14.93,0,0,1-3.14.07,16.24,16.24,0,0,1,1-2.87c.27-.5,1.23-2.82,1.5-3.32s.51-.9.78-1.49,1-2.19,1.41-2.82.79-2,1.32-3.07a5.94,5.94,0,0,1,2.55-2.92,4.43,4.43,0,0,1,2.66-.16c.46,0,4.39.75,5.58.56s3.5-1.17,4.41-1.4a15.28,15.28,0,0,1,1.82-.34c.32,0,.23-.33-.27-.33a14,14,0,0,1-2.21-.42c-.82-.18-3.87-1.68-5-1.68a8.83,8.83,0,0,0-4.37,1.31A21.54,21.54,0,0,0,115.88,89a16.82,16.82,0,0,0-1.51,1.77l.07-1.72c0-.43,0-3.56.57-4.52A7.74,7.74,0,0,1,119.35,81a6.56,6.56,0,0,1,3.12-.72,15.28,15.28,0,0,0-7.86,8.59s0,.41.18.06a9.34,9.34,0,0,1,1.15-1.63,13.89,13.89,0,0,1,1.84-.92,11.26,11.26,0,0,0,3.66-3,8.71,8.71,0,0,1,2.78-2.72,10.07,10.07,0,0,1,1.41-.64c.32-.09.8-.66.41-.5a10.37,10.37,0,0,1-2.14.28,14,14,0,0,0-3.76.44,13.44,13.44,0,0,0-3.43,1.7,6.94,6.94,0,0,0-2.32,2.78c-.68,1.77-.36,4.72-.46,5.63a17.75,17.75,0,0,1-1.09,4l-3.16,6s.07-1,.16-1.41.21-1.65.36-2.07a15.44,15.44,0,0,0,1.55-6.33A9.62,9.62,0,0,0,110,85.09a8.26,8.26,0,0,1-.64-2.25s-.07-.55-.2-.46a2.75,2.75,0,0,0-.45,1c-.09.32-1.64,4.08-1.77,5a6.8,6.8,0,0,0,.43,5c1.18,2.64,1.84,3.66,1.89,5a17.4,17.4,0,0,1-.16,2.95c0,.18-.59,1-.91,1.55s-.64,1.59-.91,2.18a9.77,9.77,0,0,1-1.08,1.67c-.28.37-1.7,2.22-2.29,2.31h0l.12-5.2c.12-.3.43-1.12.53-1.39a49.65,49.65,0,0,1,1.79-5.21c.32-.54.5-.93-.27-.5-.45.25-1.37.77-1.89,1.12.19-8.14.3-14,.34-14.55.28-3.7.63-11.34,4.32-16,2.92-3.66,5.34-5.06,7.8-5.53l.16-1.68c-3.25.27-14.11.41-17.34.46-2.73,0-16.11,0-16.11,0v1.91a11.31,11.31,0,0,1,8,4.6c2.51,3.49,4.06,5.55,4.51,16.61.11,2.68.42,11.61.76,21.69a11.74,11.74,0,0,0-1.13-2.5A13.18,13.18,0,0,0,94.08,101c-.46-.48-1.34-1.52-1.53-1.8s-.36-.64-.5-.68-.27,0-.27.5-.32,2.37-.36,3.37-.2,3.39.89,5,2.31,2.31,2.9,3.14c.38.53,1.26,1.94,1.26,1.94s-1,2.46-1.27,3.19-.77,1.46-1,2-1.36,4.73-1.59,5.69-1.36,3.78-1.36,3.78-1-.86-1.23-1a8.9,8.9,0,0,1-1.41-1.23,15.8,15.8,0,0,0-1.91-2.41,8.55,8.55,0,0,0-4.23-1.77c-1.91-.23-3.73-.09-4.14-.18a5.32,5.32,0,0,1-1.14-.55c-.27-.14-.59,0-.36.23s2.09,2,2.41,2.41,2,2.24,3.23,2.55a24.27,24.27,0,0,0,4.78.23c.77,0,1.23,0,1.36.23s-.46.32-.73.36a8,8,0,0,0-4.19,2.41,11.46,11.46,0,0,0-2.18,4.41c-.18.73-.82,3.82-.82,3.82s.64-.59,1.09-1,3.85-2.22,5.05-3.69A13.09,13.09,0,0,0,89,127.22c.09-.86.23-1.09.36-1a9.72,9.72,0,0,1,1.18,1.18c.14.27,1.59,3.64,1.68,3.82s1.55,2.23,1.77,2.59a25,25,0,0,0,3.5,4.41l.14.11c0,.73,0,1.27,0,1.56,0,4.24.46,14.48.41,18.62l4.64,0s.15-6.51.37-15.58a2.8,2.8,0,0,1,.22.33c1,1.06,1.18,2.12,2,3.89a21.36,21.36,0,0,1,1.34,3.85c.48,1.3.39,2.46.66,2.59s2-2.37,1.5-3.89c-.41-1.32-1.94-3.39-2.41-4.8a15.37,15.37,0,0,0-2.3-3.8l-.93-.85c.06-2.44.1-4.82.16-7.5,0,0,0,0,0,0,1.36-.23,4.53-1.38,5.42-1.56.73-.15,1.5-.34,1.86-.39-1.31-.62-1.44-.73-1.79-.87s-1.41-.62-2.3-1a10.53,10.53,0,0,0-3.1-.79c.05-2.18.11-4,.17-6.24l.11-.19a9,9,0,0,1,1.7-2.54c1-.89.51-1.14,0-.82a9,9,0,0,1-1.72.76l.18-7.5a6.59,6.59,0,0,0-1.14.57,11.69,11.69,0,0,0-1.41,1.12C100,114.58,98,114.64,97.57,115a4,4,0,0,0-.59,1.19c.09,2.65.22,7.93.18,8a21.23,21.23,0,0,0-1.65,5.53,7.42,7.42,0,0,1-.61,1.81c-.26-.12-.23-.11-.41-.43a31.19,31.19,0,0,1-1.51-4c0-.5,1.91-5.46,1.91-5.73s1-2.41,1-2.64a10,10,0,0,1,1-3.39c.21-.38.2-.9,1.23-1.11a6.08,6.08,0,0,0,2.5-1,20.78,20.78,0,0,1,2.25-1.66,8.79,8.79,0,0,1,1.08-.36h0Zm-8,19a3.44,3.44,0,0,1,1.37-1.31c0,.33.09.71.1,1-.16.15-.42.47-.58.61a2.78,2.78,0,0,1-1.27.78,10.9,10.9,0,0,1,.38-1.11Zm.68,1.28c.15,0,.65.18.83.22,0,1.28.1,2.35.13,3.4-.67-1.28-1.9-2.14-2.18-3.06A1.27,1.27,0,0,1,96.6,131.45Zm14.33-31.61c.1-.17,1.73-2.53,2.44-3.53a14,14,0,0,1,2.5-2.86,12.4,12.4,0,0,1,4.53-1.92,25.77,25.77,0,0,0,3.21-.71c.55-.25.55-.07.34.16A4.93,4.93,0,0,0,122.61,92c-.87,1-2.6,3.19-2.85,3.41A33.26,33.26,0,0,1,117,98a15.9,15.9,0,0,1-4.05,1.5,9.84,9.84,0,0,0-1.77.59C111,100.09,110.86,100,110.93,99.84Zm3.67-2.73c1.14-1,2.23-2.18,3.71-3.25a42.23,42.23,0,0,1,4-2.3s-1.68.39-3.18.82a10.75,10.75,0,0,0-3.53,1.86,19.63,19.63,0,0,0-2,2.56c-.36.48-1.7,2.46-1.7,2.46s1.94-1.47,2.73-2.14Zm-13,31.31a12.93,12.93,0,0,1,4.35.7c.73.32,1.21.5,3.16,1.34-1.74.2-5.45,0-6.51,0s-5.19,0-5.19,0a7.28,7.28,0,0,1,4.19-2Zm6.73,21.25a3.45,3.45,0,0,1-.73,3.18S107,150.76,108.34,149.67ZM97.76,123.73c.86-1.59,1.34-2.42,3.1-3.23a13.6,13.6,0,0,1,3.52-1c-.55.41-2.73,2.32-4.46,4a27.77,27.77,0,0,0-3.78,5.64A14,14,0,0,1,97.76,123.73Zm31.6-18.7a5.75,5.75,0,0,1,3.32-.93,7.08,7.08,0,0,1,3.17.64,7.9,7.9,0,0,0,2.25.8,39.43,39.43,0,0,0-5.39.46,24.31,24.31,0,0,1-5.31,0S128.91,105.21,129.36,105Zm10.94-10.92A8.24,8.24,0,0,1,144.74,92c1.17-.13,3.9.68,5.9,1a37.61,37.61,0,0,0-4.73.55,21.87,21.87,0,0,0-4,1.14,37.88,37.88,0,0,1-3.82,1s1.57-1.18,2.25-1.64ZM137,91.33c.09-.59-.2-3,1.21-4.91A15,15,0,0,1,144.45,82c-1.23,1.46-3.78,4.14-4.76,6.55a36.05,36.05,0,0,1-3,5.32s.27-1.91.37-2.5Zm-13.7-5.51c2-.14,4.87,1.55,4.87,1.55s-3.87-.09-5.46-.18a18.61,18.61,0,0,0-4.8,1A11.19,11.19,0,0,1,123.31,85.83Zm4.35,10.85a22.08,22.08,0,0,1,4.83-3.76,36,36,0,0,0-4.28,5.73,27,27,0,0,1-3.64,4.46c.68-1,1.52-4.53,3.09-6.44Zm-10.8,5.43c.44-.82,1-2.9,2.84-4.13a30.76,30.76,0,0,1,5.36-1.82c-1.77.77-5.78,4.87-6.54,5.69a14.36,14.36,0,0,1-3.32,2.68,13.91,13.91,0,0,0,1.65-2.42Zm-.06,5.73a8.74,8.74,0,0,1,3.4,2.15c1,1,3.78,4.73,3.78,4.73s-2.31-1.95-3.37-2.68-2.78-1.59-4.05-2.5a17.38,17.38,0,0,1-2.45-2.31,14.13,14.13,0,0,1,2.7.61Zm-8.12-12.91a8.83,8.83,0,0,1-1.41-5.37A21.84,21.84,0,0,1,108.7,85c.5.91.68,5.05.73,5.82s0,5.41,0,6.32a20.88,20.88,0,0,0-.75-2.18Zm-9.21,7.14c1.6-2.41,5.67-4.29,5.78-4.3a65.5,65.5,0,0,0-3.55,5.57c-.73,1.55-3.41,5.46-3.41,5.46S98.05,104.19,99.47,102.07ZM94,101.61a12,12,0,0,1,2.57,5.25,7.71,7.71,0,0,1-.58,3.49c-.58-1.19-2-5.48-2.37-6.23a42.83,42.83,0,0,1-1.43-4.52C92.93,100.55,93.28,100.85,94,101.61Zm2.4,9.35a.88.88,0,0,1,.07-.4c.11-.36.29-1.24.29-.94,0,.1.05,1.69,0,2.26a6.48,6.48,0,0,1-.4-.92ZM87.63,124.5a42.9,42.9,0,0,0-4.6-2c-.82-.25-4-1.5-4-1.5a18.16,18.16,0,0,1,5.12.55,5.88,5.88,0,0,1,3.48,3Zm.55,1.82L86,129.1c-.59.77-2.14,2.32-2.91,3.28-.47.59-1.82,2.82-1.82,2.82s.45-1.76.55-2.18a10.76,10.76,0,0,1,1.87-4.21,9,9,0,0,1,4.46-2.48Z" transform="translate(-20 -22.1)"/><path d="M81.67,126.14a1.7,1.7,0,0,0-1,1.78c.18.68,1.59.55,1.91.14s.59-1.41.32-1.68a1,1,0,0,0-1.27-.23Zm1.19-70A45.38,45.38,0,0,1,80.7,42.4c.07-1.46,4.44-3.51,4.46-3.55a73,73,0,0,0,1.36-11.1,11.23,11.23,0,0,1-2.37,4.55L78.7,37.59a26.75,26.75,0,0,0-1.9,4.4c.09.27,2,6.28,1.89,8.24a43.51,43.51,0,0,1,4.16,5.92Z" transform="translate(-20 -22.1)"/><path d="M87.18,59.26c-.41-1.91-.8-10.54-.39-11.76.68.34,2,2.58,2.21,2.55.55-.07,2.73.86,4.19,2.73-.64-3-3.6-9.31-3.6-9.65a23.58,23.58,0,0,1,.68-2.46L91,45.31s.57-4.44.61-4.64c.16-.8,3.23-5.92,3.37-6.19a73.38,73.38,0,0,0,.23-7.78,38.21,38.21,0,0,1-3,7.76,31.58,31.58,0,0,1-5.05,6.3,13.24,13.24,0,0,0-3.18,3A13.44,13.44,0,0,0,82.29,47c-.29,4.71,4.89,12.31,4.89,12.31Z" transform="translate(-20 -22.1)"/><path d="M90.76,34.41c.31-2.39,1-6.51,1-7.07-.34-.55-4.2-4.38-4.47-4.58l-.58-.44,1,2.9a24.49,24.49,0,0,1,.72,2.95,51,51,0,0,1-.78,5.6l.28.11s1.62-4.15,1.89-4.77c.44.38,1,4.55,1,5.3Zm4.44,4.23a16.89,16.89,0,0,1,3-3.25c1.16-.72,4-2.58,4.3-3.37.4-1.16-2.82-8.74-3.36-9.91-.05-.11,0,.41,0,.41s.31,7.56,0,8.64c-.46,1.46-3.53,6.06-4.06,7.37Zm7.24-3.85a33,33,0,0,1,4.06-1.56,23.81,23.81,0,0,0,4.71-1.42A57.57,57.57,0,0,0,115,25c-1.4,1.43-4.27,3.28-6.35,3.52A34.32,34.32,0,0,1,105.91,32c-1.08,1-3.48,2.84-3.48,2.84Z" transform="translate(-20 -22.1)"/><path d="M100.56,53.64c.44-3.93,1.46-11.38,2.26-12.13.47-.43,2.25-.78,2.73-1.06A45,45,0,0,0,109.62,37c.59-.65,5.66-3.43,6-3.78s1.82-3.41,2.24-4.29c-1,1.51-5.45,4.74-6.81,5.22-1.19.42-8.6,1.4-8.94,1.5s-2.9,2-5.57,3.75a50.39,50.39,0,0,0-4.43,3c-.41,1.67,2.69,9.93,3.1,10.58.07-2-.18-6.26.26-7.18.65.68,2.95,5.57,3.25,5.88a7.68,7.68,0,0,1,1.89,2Z" transform="translate(-20 -22.1)"/><path d="M102,53.72s1.36-2.37,2.46-3.87,2.64-3.23,2.64-3.23a30.57,30.57,0,0,0-.25,3.82c0,2-.25,4.23-.25,4.23s1.18-2.14,2-3.78l2-3.82s-.5,3-.73,3.87c-.27,1-1,3.38-1,3.87.5,0,2.26-3.76,2.53-4.17a14.15,14.15,0,0,1,2.44-2.71c-.23,1.18,0,9.33,0,9.33s1.45-3.28,1.73-4.05a36.72,36.72,0,0,1,1.21-3.48,25.58,25.58,0,0,0,2.57-2.84,14.17,14.17,0,0,0-1.09-4.55,5.25,5.25,0,0,1-.52,2,39.58,39.58,0,0,1-3.23,2.78s.75-2.41,1-3.14.52-2,.77-2.62c.07-.32-.91-5.78-1-6.71-.32,1.68-1.75,8.62-2.48,9.62a6.59,6.59,0,0,1-2,1.89,2.81,2.81,0,0,0,.16-1.21,24.86,24.86,0,0,1,0-4,23.3,23.3,0,0,1,1.57-3.09s-2.64,1.36-3.19,1.55a27.33,27.33,0,0,0-3,1.41c-.14.14-1.25,3-1.61,4-.27.66-2.71,5.51-2.8,5.92s-.09,3.06-.09,3.06Zm16.79-12.66s1.84-5.8,2.27-6.44a8,8,0,0,1,2-1.71c-.8.07-1.71.27-2.21.34a3.72,3.72,0,0,0-1.52.59c-.14.18-.48,3.85-.5,4.21A11.86,11.86,0,0,0,118.83,41.06Zm1.64,2.59s1.82-.8,1.89-.86,1.5-2.93,1.8-3.23,2.87-2.64,3.34-2.93a25,25,0,0,1,3.3-1,16.29,16.29,0,0,0-4.87-.14c-.46.14-4.62,1.89-4.71,2.41s.11,2.14,0,2.73S120.47,43.65,120.47,43.65Z" transform="translate(-20 -22.1)"/></svg>