<?xml version="1.0" encoding="utf-8"?>
<!-- Generator: Adobe Illustrator 18.1.1, SVG Export Plug-In . SVG Version: 6.00 Build 0)  -->
<svg version="1.1" id="Layer_1" xmlns="http://www.w3.org/2000/svg" xmlns:xlink="http://www.w3.org/1999/xlink" x="0px" y="0px"
	 viewBox="0 0 506.3 457.9" enable-background="new 0 0 506.3 457.9" xml:space="preserve">
<path fill="none" stroke="#FAA333" stroke-width="2" stroke-linecap="round" stroke-linejoin="round" stroke-miterlimit="10" d="
	M429.3,71.3c9.8-0.5,19.1-3.1,20.3-8.1c0.1-0.2,0.1-0.5,0.1-0.8v-52c0,0,0,0,0,0c0,0,0,0,0,0c0-6.4-12.5-9.3-24-9.3s-24,2.9-24,9.3
	c0,0,0,0,0,0c0,0,0,0,0,0v2.3"/>
<path fill="#AFB2A8" d="M401.7,9.9c0,0,0-0.1,0-0.1"/>
<path fill="none" stroke="#FAA333" stroke-width="2" stroke-linecap="round" stroke-linejoin="round" stroke-miterlimit="10" d="
	M449.8,9.8c-0.3,2.3-8.8,7.4-23.1,7.7"/>
<path fill="none" stroke="#FAA333" stroke-width="2" stroke-linecap="round" stroke-linejoin="round" stroke-miterlimit="10" d="
	M449.8,27.5c-0.3,2.1-7.5,6.8-20.4,7.6"/>
<path fill="none" stroke="#FAA333" stroke-width="2" stroke-linecap="round" stroke-linejoin="round" stroke-miterlimit="10" d="
	M449.8,45.1c-0.3,2.2-7.5,6.9-20.5,7.6"/>
<path fill="none" stroke="#3A3C35" stroke-width="2.4022" stroke-linecap="round" stroke-linejoin="round" stroke-miterlimit="10" d="
	M429.3,22c0-6.4-12.5-9.3-24-9.3c-11.6,0-24,2.9-24,9.3c0,0,0,0,0,0c0,0,0,0,0,0.1v52c0,0.3,0,0.5,0.1,0.8c1.4,5.6,13,8.2,23.9,8.2
	c10.9,0,22.5-2.6,23.9-8.2c0.1-0.2,0.1-0.5,0.1-0.8V22C429.3,22.1,429.3,22.1,429.3,22C429.3,22.1,429.3,22,429.3,22z"/>
<path fill="none" stroke="#3A3C35" stroke-width="2.4022" stroke-linecap="round" stroke-linejoin="round" stroke-miterlimit="10" d="
	M429.3,21.5c-0.3,2.3-8.9,7.8-24.2,7.8c-15.3,0-23.6-5.4-23.9-7.7c0,0,0-0.1,0-0.1"/>
<path fill="none" stroke="#3A3C35" stroke-width="2.4022" stroke-linecap="round" stroke-linejoin="round" stroke-miterlimit="10" d="
	M429.3,39.1c-0.3,2.3-8.9,7.8-24.2,7.8c-15.3,0-23.6-5.4-23.9-7.7c0,0,0-0.1,0-0.1"/>
<path fill="none" stroke="#3A3C35" stroke-width="2.4022" stroke-linecap="round" stroke-linejoin="round" stroke-miterlimit="10" d="
	M429.3,56.7c-0.3,2.3-8.9,7.8-24.2,7.8c-15.3,0-23.6-5.4-23.9-7.7c0,0,0-0.1,0-0.1"/>
<g>
	<g>
		
			<path fill="none" stroke="#3A3C35" stroke-width="2.4022" stroke-linecap="round" stroke-linejoin="round" stroke-miterlimit="10" d="
			M175.9,50.1V8.4c0-1.6-1.3-2.8-2.8-2.8h-68.7c-1.6,0-2.8,1.3-2.8,2.8v41.7"/>
		
			<path fill="none" stroke="#3A3C35" stroke-width="2.4022" stroke-linecap="round" stroke-linejoin="round" stroke-miterlimit="10" d="
			M143.4,56.1v1.1c0,0.9-0.7,1.6-1.6,1.6h-6c-0.9,0-1.6-0.7-1.6-1.6v-1.1h-38V62c0,1.6,1.3,3,3,3h79.3c1.6,0,3-1.3,3-3v-5.9H143.4z"
			/>
	</g>
</g>
<g>
	
		<path fill="none" stroke="#3A3C35" stroke-width="2.4022" stroke-linecap="round" stroke-linejoin="round" stroke-miterlimit="10" d="
		M498,218.3h-28.4c-3.9,0-7.1,3.3-7.1,7.3v68.1c0,4,3.2,7.3,7.1,7.3H498c3.9,0,7.1-3.3,7.1-7.3v-68.1
		C505.1,221.6,501.9,218.3,498,218.3z"/>
	
		<ellipse fill="none" stroke="#3A3C35" stroke-width="2.4022" stroke-linecap="round" stroke-linejoin="round" stroke-miterlimit="10" cx="483.7" cy="294" rx="2.8" ry="2.9"/>
	
		<line fill="none" stroke="#3A3C35" stroke-width="2.4022" stroke-linecap="round" stroke-linejoin="round" stroke-miterlimit="10" x1="462.4" y1="229.7" x2="505.1" y2="229.7"/>
	
		<line fill="none" stroke="#3A3C35" stroke-width="2.4022" stroke-linecap="round" stroke-linejoin="round" stroke-miterlimit="10" x1="462.4" y1="286.7" x2="505.1" y2="286.7"/>
</g>
<rect x="217.6" y="376.3" fill="none" stroke="#3A3C35" stroke-width="2.4022" stroke-linecap="round" stroke-linejoin="round" stroke-miterlimit="10" width="33.3" height="80.4"/>
<line fill="none" stroke="#96C840" stroke-width="2.0942" stroke-linecap="round" stroke-linejoin="round" stroke-miterlimit="10" x1="225.9" y1="387.4" x2="242.5" y2="387.4"/>
<line fill="none" stroke="#96C840" stroke-width="2.0942" stroke-linecap="round" stroke-linejoin="round" stroke-miterlimit="10" x1="225.9" y1="393" x2="242.5" y2="393"/>
<line fill="none" stroke="#96C840" stroke-width="2.0942" stroke-linecap="round" stroke-linejoin="round" stroke-miterlimit="10" x1="225.9" y1="398.5" x2="242.5" y2="398.5"/>
<line fill="none" stroke="#96C840" stroke-width="2.0942" stroke-linecap="round" stroke-linejoin="round" stroke-miterlimit="10" x1="225.9" y1="404.1" x2="242.5" y2="404.1"/>
<line fill="none" stroke="#96C840" stroke-width="2.0942" stroke-linecap="round" stroke-linejoin="round" stroke-miterlimit="10" x1="225.9" y1="429" x2="242.5" y2="429"/>
<line fill="none" stroke="#3A3C35" stroke-width="2.4022" stroke-linecap="round" stroke-linejoin="round" stroke-miterlimit="10" x1="234.2" y1="417.8" x2="234.2" y2="417.8"/>
<line fill="none" stroke="#96C840" stroke-width="2.0942" stroke-linecap="round" stroke-linejoin="round" stroke-miterlimit="10" x1="225.9" y1="434.5" x2="242.5" y2="434.5"/>
<line fill="none" stroke="#96C840" stroke-width="2.0942" stroke-linecap="round" stroke-linejoin="round" stroke-miterlimit="10" x1="225.9" y1="440.1" x2="242.5" y2="440.1"/>
<line fill="none" stroke="#96C840" stroke-width="2.0942" stroke-linecap="round" stroke-linejoin="round" stroke-miterlimit="10" x1="225.9" y1="445.6" x2="242.5" y2="445.6"/>
<rect x="264.7" y="376.3" fill="none" stroke="#3A3C35" stroke-width="2.4022" stroke-linecap="round" stroke-linejoin="round" stroke-miterlimit="10" width="33.3" height="80.4"/>
<line fill="none" stroke="#96C840" stroke-width="2.0942" stroke-linecap="round" stroke-linejoin="round" stroke-miterlimit="10" x1="273" y1="387.4" x2="289.7" y2="387.4"/>
<line fill="none" stroke="#96C840" stroke-width="2.0942" stroke-linecap="round" stroke-linejoin="round" stroke-miterlimit="10" x1="273" y1="393" x2="289.7" y2="393"/>
<line fill="none" stroke="#96C840" stroke-width="2.0942" stroke-linecap="round" stroke-linejoin="round" stroke-miterlimit="10" x1="273" y1="398.5" x2="289.7" y2="398.5"/>
<line fill="none" stroke="#96C840" stroke-width="2.0942" stroke-linecap="round" stroke-linejoin="round" stroke-miterlimit="10" x1="273" y1="404.1" x2="289.7" y2="404.1"/>
<line fill="none" stroke="#96C840" stroke-width="2.0942" stroke-linecap="round" stroke-linejoin="round" stroke-miterlimit="10" x1="273" y1="429" x2="289.7" y2="429"/>
<line fill="none" stroke="#3A3C35" stroke-width="2.4022" stroke-linecap="round" stroke-linejoin="round" stroke-miterlimit="10" x1="281.3" y1="417.8" x2="281.3" y2="417.8"/>
<line fill="none" stroke="#96C840" stroke-width="2.0942" stroke-linecap="round" stroke-linejoin="round" stroke-miterlimit="10" x1="273" y1="434.5" x2="289.7" y2="434.5"/>
<line fill="none" stroke="#96C840" stroke-width="2.0942" stroke-linecap="round" stroke-linejoin="round" stroke-miterlimit="10" x1="273" y1="440.1" x2="289.7" y2="440.1"/>
<line fill="none" stroke="#96C840" stroke-width="2.0942" stroke-linecap="round" stroke-linejoin="round" stroke-miterlimit="10" x1="273" y1="445.6" x2="289.7" y2="445.6"/>
<g>
	
		<line fill="none" stroke="#3A3C35" stroke-width="2.4022" stroke-linecap="round" stroke-linejoin="round" stroke-miterlimit="10" x1="51.4" y1="296.7" x2="25.3" y2="296.7"/>
	
		<line fill="none" stroke="#3A3C35" stroke-width="2.4022" stroke-linecap="round" stroke-linejoin="round" stroke-miterlimit="10" x1="38.1" y1="296.7" x2="38.1" y2="280.7"/>
	
		<path fill="none" stroke="#3A3C35" stroke-width="2.4022" stroke-linecap="round" stroke-linejoin="round" stroke-miterlimit="10" d="
		M2.7,280.7H74c0.8,0,1.5-0.7,1.5-1.5v-55.4c0-0.8-0.7-1.5-1.5-1.5H2.7c-0.8,0-1.5,0.7-1.5,1.5v55.4C1.2,280,1.9,280.7,2.7,280.7z"
		/>
	
		<line fill="none" stroke="#3A3C35" stroke-width="2.4022" stroke-linecap="round" stroke-linejoin="round" stroke-miterlimit="10" x1="1.2" y1="270" x2="75.5" y2="270"/>
</g>
<path fill="none" stroke="#3A3C35" stroke-width="2.4022" stroke-linecap="round" stroke-linejoin="round" stroke-miterlimit="10" d="
	M307,245.9h23.2c25,0,46.1-19.6,46.1-42.9c0-24-22.9-45.4-51.4-42.6c-6.1-19.9-25.3-35.3-52.7-31.9c-36.6-30.9-91.3-10-99.3,38.5
	c-41.2,25.5-19.7,78.9,21.7,78.9h15.7"/>
<g>
	
		<path fill="none" stroke="#3A3C35" stroke-width="2.4022" stroke-linecap="round" stroke-linejoin="round" stroke-miterlimit="10" d="
		M229.1,213.2c-5.3,0-9.6,5-9.6,11.2l4.3,51.5c0,6.2,4.3,11.2,9.6,11.2h49.3c5.3,0,9.6-5,9.6-11.2l4.3-51.5c0-6.1-4.3-11.2-9.6-11.2
		H229.1z"/>
	
		<path fill="none" stroke="#3A3C35" stroke-width="2.4022" stroke-linecap="round" stroke-linejoin="round" stroke-miterlimit="10" d="
		M242.2,213.3v-25.8c0-8.8,7.1-15.9,15.7-15.9c8.7,0,15.7,7.1,15.7,15.9v25.8"/>
	
		<line fill="none" stroke="#3A3C35" stroke-width="2.4022" stroke-linecap="round" stroke-linejoin="round" stroke-miterlimit="10" x1="258" y1="245.6" x2="258" y2="258.6"/>
</g>
<line fill="none" stroke="#AFB2A8" stroke-width="2.4022" stroke-linecap="round" stroke-linejoin="round" stroke-dasharray="1.8591,5.5774" x1="145.9" y1="222.7" x2="81.9" y2="245.1"/>
<line fill="none" stroke="#AFB2A8" stroke-width="2.4022" stroke-linecap="round" stroke-linejoin="round" stroke-dasharray="1.8591,5.5774" x1="142.7" y1="70.5" x2="189.2" y2="121"/>
<line fill="none" stroke="#AFB2A8" stroke-width="2.4022" stroke-linecap="round" stroke-linejoin="round" stroke-dasharray="1.8591,5.5774" x1="387" y1="85.7" x2="323.7" y2="142.6"/>
<line fill="none" stroke="#AFB2A8" stroke-width="2.4022" stroke-linecap="round" stroke-linejoin="round" stroke-dasharray="1.8591,5.5774" x1="377.7" y1="223.9" x2="457" y2="260.7"/>
<line fill="none" stroke="#AFB2A8" stroke-width="2.4022" stroke-linecap="round" stroke-linejoin="round" stroke-dasharray="1.8591,5.5774" x1="257.8" y1="297.1" x2="257.8" y2="370.8"/>
<rect x="109" y="13.5" fill="none" stroke="#96C840" stroke-width="2.0942" stroke-linecap="round" stroke-linejoin="round" stroke-miterlimit="10" width="14.4" height="12"/>
<rect x="130" y="13.5" fill="none" stroke="#5EC8DF" stroke-width="2.0942" stroke-linecap="round" stroke-linejoin="round" stroke-miterlimit="10" width="14.4" height="12"/>
<rect x="130" y="31.5" fill="none" stroke="#FAA333" stroke-width="2" stroke-linecap="round" stroke-linejoin="round" stroke-miterlimit="10" width="14.4" height="12"/>
<rect x="8.9" y="230.5" fill="none" stroke="#96C840" stroke-width="2.0942" stroke-linecap="round" stroke-linejoin="round" stroke-miterlimit="10" width="14.4" height="12"/>
<rect x="470.2" y="237" fill="none" stroke="#96C840" stroke-width="2.0942" stroke-linecap="round" stroke-linejoin="round" stroke-miterlimit="10" width="27.1" height="22.6"/>
<rect x="29.9" y="230.5" fill="none" stroke="#5EC8DF" stroke-width="2.0942" stroke-linecap="round" stroke-linejoin="round" stroke-miterlimit="10" width="14.4" height="12"/>
<rect x="29.9" y="248.5" fill="none" stroke="#FAA333" stroke-width="2" stroke-linecap="round" stroke-linejoin="round" stroke-miterlimit="10" width="14.4" height="12"/>
<circle fill="none" stroke="#5EC8DF" stroke-width="2.0942" stroke-linecap="round" stroke-linejoin="round" stroke-miterlimit="10" cx="257.9" cy="251.7" r="21"/>
</svg>
