<svg id="Layer_1" data-name="Layer 1" xmlns="http://www.w3.org/2000/svg" viewBox="0 0 360 144"><defs><style>.cls-1{fill:#87c546;}</style></defs><title>LKArtboard 1.0</title><path class="cls-1" d="M338.86,97a5.71,5.71,0,1,1-5.67-5.83A5.72,5.72,0,0,1,338.86,97m-10.23,0a4.55,4.55,0,1,0,4.56-4.85A4.63,4.63,0,0,0,328.63,97m4.4-3.19c1.54,0,2.55.45,2.55,1.82a1.93,1.93,0,0,1-1.29,2l.37.66a18,18,0,0,0,1.14,1.69c.08.11-.12.17-.44.17H335c-.38,0-.48-.08-.55-.15a11.63,11.63,0,0,1-.85-1.28l-.55-1h-.82v2.25c0,.06-.12.14-.37.14h-.5c-.24,0-.38-.08-.38-.14V93.76Zm-.81,2.92h.92c.88,0,1.23-.42,1.23-1,0-.76-.73-.89-1.37-.89h-.78Zm-237-42.85a1.8,1.8,0,0,0-1.78,1.8V92.29a37.37,37.37,0,0,1-8.42.95c-6.31,0-8.6-2.35-8.6-9.25V55.65a1.73,1.73,0,0,0-1.71-1.8H65.07V84.06c0,14.18,7.49,18.8,19.62,18.8a80.3,80.3,0,0,0,20.09-3v-46Zm147.39,48.47a1.8,1.8,0,0,0,1.78-1.8v-37a37.64,37.64,0,0,1,8.42-.94c6.32,0,8.6,2.35,8.6,9.25v28.67a1.72,1.72,0,0,0,1.71,1.8h9.65V71.77c0-14.19-7.49-18.8-19.62-18.8a80.5,80.5,0,0,0-20.09,3v46.33ZM204.14,53c-12.49,0-20.37,6.77-20.37,21.26v7.27c0,16.05,8.53,21.26,17.77,21.26a15.55,15.55,0,0,0,10.76-5.21v3a1.76,1.76,0,0,0,1.7,1.69h9.63V55.81A78.83,78.83,0,0,0,204.14,53m8.15,37.51c-2.09,1.76-3.72,2.89-8.15,3-6.33,0-9.06-3.87-9.06-12.12V74.74c0-9.5,3.5-12.11,9.06-12.11a42.71,42.71,0,0,1,8.15.58ZM301.1,53c-12.49,0-20.38,6.77-20.38,21.26v7.27c0,16.05,8.53,21.26,17.76,21.26a15.55,15.55,0,0,0,10.76-5.21v3a1.76,1.76,0,0,0,1.7,1.69h9.63V55.81A78.88,78.88,0,0,0,301.1,53m8.15,37.51c-2.09,1.76-3.72,2.89-8.15,3-6.33,0-9.05-3.87-9.05-12.12V74.74c0-9.5,3.5-12.11,9.05-12.11a42.69,42.69,0,0,1,8.15.58ZM8,102.31H18.14a1.82,1.82,0,0,0,1.71-1.72V73.76H38.61A5.36,5.36,0,0,1,44,78.9v21.69a1.75,1.75,0,0,0,1.69,1.72H55.91V38.6H45.73A1.72,1.72,0,0,0,44,40.21V64.13H24.52a4.66,4.66,0,0,1-4.67-4.54V40.21a1.75,1.75,0,0,0-1.71-1.6H8ZM158.53,53a24.42,24.42,0,0,0-12.77,3.7c-3.48-2.62-8.23-3.7-14.1-3.7a51.3,51.3,0,0,0-17.4,3.19v46.14h9.61a1.74,1.74,0,0,0,1.71-1.81V63.43a20.69,20.69,0,0,1,5.57-.84c6.65,0,8.26,2.67,8.26,9.25v28.67a1.79,1.79,0,0,0,1.72,1.81h7.92a1.7,1.7,0,0,0,1.72-1.81V64.87a10.31,10.31,0,0,1,6.63-2.27c5.13,0,7.21,2.31,7.21,8.6v29.32a1.77,1.77,0,0,0,1.71,1.81h9.6V69.64c0-12.39-7.73-16.65-17.39-16.65"/></svg>