<svg xmlns="http://www.w3.org/2000/svg" xmlns:xlink="http://www.w3.org/1999/xlink" viewBox="0 0 880 520"><defs><style>.cls-1,.cls-11,.cls-12,.cls-14,.cls-26,.cls-27,.cls-33,.cls-34,.cls-35,.cls-36,.cls-37,.cls-4,.cls-41,.cls-48,.cls-54,.cls-6{fill:none;}.cls-2{isolation:isolate;}.cls-15,.cls-21,.cls-3,.cls-30,.cls-7{fill:#ecf1e9;}.cls-13,.cls-14,.cls-15,.cls-16,.cls-18,.cls-20,.cls-21,.cls-29,.cls-31,.cls-4,.cls-6,.cls-7,.cls-8,.cls-9{stroke:#d3d7d0;}.cls-10,.cls-11,.cls-12,.cls-13,.cls-14,.cls-15,.cls-16,.cls-18,.cls-20,.cls-21,.cls-26,.cls-27,.cls-28,.cls-29,.cls-30,.cls-31,.cls-32,.cls-33,.cls-34,.cls-35,.cls-36,.cls-37,.cls-38,.cls-39,.cls-4,.cls-40,.cls-41,.cls-43,.cls-44,.cls-45,.cls-46,.cls-47,.cls-48,.cls-49,.cls-50,.cls-51,.cls-52,.cls-53,.cls-54,.cls-6,.cls-7,.cls-8,.cls-9{stroke-linecap:round;stroke-linejoin:round;}.cls-18,.cls-20,.cls-21,.cls-27,.cls-28,.cls-4,.cls-54{stroke-width:1.5px;}.cls-10,.cls-13,.cls-20,.cls-5,.cls-8{fill:#fff;}.cls-12,.cls-13,.cls-15,.cls-16,.cls-30,.cls-31,.cls-35,.cls-36,.cls-38,.cls-39,.cls-40,.cls-41,.cls-43,.cls-44,.cls-45,.cls-46,.cls-47,.cls-49,.cls-50,.cls-6{stroke-width:0.5px;}.cls-16,.cls-17,.cls-18,.cls-29,.cls-31,.cls-9{fill:#d3d7d0;}.cls-10,.cls-11,.cls-12,.cls-26,.cls-50,.cls-54{stroke:#fff;}.cls-19{clip-path:url(#clip-path);}.cls-22,.cls-40{fill:#617e39;}.cls-23{fill:#91c53d;}.cls-24{clip-path:url(#clip-path-2);}.cls-25,.cls-53{fill:#ebefe8;}.cls-26{stroke-width:10px;}.cls-27,.cls-33{stroke:#627f3a;}.cls-28{fill:#bdc0b9;}.cls-28,.cls-34{stroke:#bdc0b9;}.cls-29,.cls-31,.cls-42{mix-blend-mode:multiply;}.cls-30,.cls-46{stroke:#ecf1e9;}.cls-32,.cls-38{fill:#8dc03e;}.cls-32,.cls-38,.cls-48{stroke:#8dc03e;}.cls-34,.cls-37,.cls-48{stroke-width:0.25px;}.cls-35,.cls-49{stroke:#8f938c;}.cls-36,.cls-37{stroke:#272b24;}.cls-39{fill:#8cc03d;stroke:#8cc03d;}.cls-40,.cls-41{stroke:#617e39;}.cls-43{fill:#3e423b;stroke:#3e423b;}.cls-44{fill:#e86360;stroke:#e86360;}.cls-45{fill:#ab4141;stroke:#ab4141;}.cls-46,.cls-47,.cls-52{fill:#5dc0d8;}.cls-47,.cls-52{stroke:#5dc0d8;}.cls-49{fill:#8f938c;}.cls-50{fill:#272b24;}.cls-51{fill:#f19a31;stroke:#f19a31;}.cls-53{stroke:#ebefe8;}</style><clipPath id="clip-path"><rect class="cls-1" x="260.43" y="-11.72" width="179.11" height="483.44" transform="translate(699.97 460) rotate(180)"/></clipPath><clipPath id="clip-path-2"><rect class="cls-1" x="440" y="-11.72" width="109.11" height="483.44" transform="translate(989.11 460) rotate(180)"/></clipPath></defs><title>LKArtboard 2.1</title><g class="cls-2"><g id="Artwork"><rect class="cls-3" x="723.45" y="62.55" width="2.81" height="9.01"/><path class="cls-3" d="M752.26,172.52a2.15,2.15,0,0,1-1.95-1.25,2.15,2.15,0,1,0,3.9,0A2.15,2.15,0,0,1,752.26,172.52Z"/><path class="cls-3" d="M715.92,160l1.38,1.32a19.92,19.92,0,0,1,6.15,14.39V241.1h2.81V154.53H715.92Z"/><rect class="cls-4" x="715.92" y="154.53" width="10.34" height="91.98"/><rect class="cls-4" x="715.92" y="62.55" width="10.34" height="9.01"/><rect class="cls-5" x="627" y="71.56" width="188.18" height="82.97"/><path class="cls-3" d="M805.46,71.56S770.22,152.71,627,152.71v1.82H815.18v-83Z"/><rect class="cls-4" x="627" y="71.56" width="188.18" height="82.97"/><line class="cls-6" x1="752.26" y1="154.53" x2="752.26" y2="170.02"/><circle class="cls-6" cx="752.26" cy="172.17" r="2.15"/><rect class="cls-5" x="-130.02" y="430.36" width="365.55" height="7.42"/><path class="cls-5" d="M-100.25,231.1h306a10,10,0,0,1,10,10V422.36a8,8,0,0,1-8,8h-310a8,8,0,0,1-8-8V241.1A10,10,0,0,1-100.25,231.1Z"/><path class="cls-3" d="M201.37,234.7h-290a18,18,0,0,0-18,18V419.56a14.32,14.32,0,0,0,2.58,8.22,14.32,14.32,0,0,0,8.22,2.58H201.37a14.4,14.4,0,0,0,14.4-14.4V249.1a17.9,17.9,0,0,0-3.61-10.79A17.9,17.9,0,0,0,201.37,234.7Z"/><path class="cls-4" d="M-100.25,231.1h306a10,10,0,0,1,10,10V422.36a8,8,0,0,1-8,8h-310a8,8,0,0,1-8-8V241.1A10,10,0,0,1-100.25,231.1Z"/><rect class="cls-7" x="-98.91" y="242.44" width="303.35" height="171.72"/><rect class="cls-8" x="-92.44" y="272.05" width="290.4" height="139.26"/><rect class="cls-9" x="-92.44" y="262.46" width="290.4" height="9.59"/><rect class="cls-10" x="124.77" y="265.77" width="2.98" height="2.98"/><circle class="cls-10" cx="148.1" cy="267.26" r="1.49"/><circle class="cls-11" cx="192.77" cy="267.26" r="2.48"/><circle class="cls-10" cx="178.21" cy="267.26" r="1.49"/><circle class="cls-10" cx="169.94" cy="267.26" r="1.49"/><circle class="cls-10" cx="161.66" cy="267.26" r="1.49"/><line class="cls-12" x1="184.99" y1="265.27" x2="184.99" y2="269.24"/><rect class="cls-10" x="138.33" y="265.77" width="2.98" height="2.98"/><line class="cls-12" x1="154.88" y1="265.27" x2="154.88" y2="269.24"/><rect class="cls-10" x="116.5" y="265.77" width="2.98" height="2.98"/><line class="cls-12" x1="133.04" y1="265.27" x2="133.04" y2="269.24"/><rect class="cls-8" x="-11.29" y="275.5" width="100.31" height="133.02"/><rect class="cls-8" x="-11.29" y="343.46" width="100.31" height="5.95"/><line class="cls-13" x1="27.66" y1="346.26" x2="50.07" y2="346.26"/><rect class="cls-8" x="-11.29" y="281.38" width="100.31" height="6.05"/><rect class="cls-8" x="-11.29" y="349.29" width="100.31" height="6.05"/><line class="cls-13" x1="14.89" y1="284.41" x2="29.5" y2="284.41"/><rect class="cls-14" x="-11.29" y="275.5" width="100.31" height="133.02"/><rect class="cls-8" x="91.9" y="275.5" width="67.39" height="133.02"/><rect class="cls-8" x="91.9" y="281.38" width="67.39" height="6.05"/><line class="cls-13" x1="101.26" y1="284.41" x2="115.87" y2="284.41"/><line class="cls-13" x1="14.89" y1="352.31" x2="29.5" y2="352.31"/><line class="cls-13" x1="144.22" y1="284.41" x2="135.32" y2="284.41"/><line class="cls-13" x1="76.76" y1="352.31" x2="67.86" y2="352.31"/><rect class="cls-13" x="153.91" y="282.49" width="3.83" height="3.83"/><line class="cls-13" x1="155.42" y1="284.41" x2="156.22" y2="284.41"/><rect class="cls-14" x="91.9" y="275.5" width="67.39" height="133.02"/><line class="cls-8" x1="125.59" y1="275.5" x2="125.59" y2="408.51"/><rect class="cls-13" x="49.94" y="282.49" width="3.83" height="3.83"/><line class="cls-13" x1="51.46" y1="284.41" x2="52.26" y2="284.41"/><line class="cls-8" x1="55.32" y1="349.29" x2="55.32" y2="408.51"/><line class="cls-8" x1="55.32" y1="281.59" x2="55.32" y2="343.46"/><rect class="cls-8" x="162.17" y="281.38" width="33.74" height="6.05"/><line class="cls-8" x1="174.99" y1="284.41" x2="183.03" y2="284.41"/><rect class="cls-8" x="162.17" y="275.43" width="33.74" height="133.08"/><rect class="cls-8" x="162.17" y="281.38" width="33.74" height="6.05"/><rect class="cls-8" x="162.17" y="275.38" width="33.74" height="6.05"/><line class="cls-13" x1="174.99" y1="284.41" x2="183.03" y2="284.41"/><line class="cls-13" x1="172.98" y1="278.41" x2="185.04" y2="278.41"/><rect class="cls-14" x="162.17" y="275.43" width="33.74" height="133.08"/><rect class="cls-8" x="-11.29" y="275.43" width="100.31" height="5.95"/><line class="cls-13" x1="27.66" y1="278.23" x2="50.07" y2="278.23"/><rect class="cls-8" x="91.9" y="275.43" width="67.39" height="5.95"/><rect class="cls-15" x="128.18" y="290.19" width="28.07" height="20.25"/><rect class="cls-16" x="128.18" y="290.19" width="28.07" height="3.94"/><line class="cls-13" x1="135.26" y1="306.07" x2="137.67" y2="306.07"/><line class="cls-13" x1="135.26" y1="308.25" x2="143.71" y2="308.25"/><line class="cls-13" x1="130.86" y1="297.25" x2="147.09" y2="297.25"/><line class="cls-13" x1="130.86" y1="299.43" x2="141.53" y2="299.43"/><rect class="cls-5" x="130.17" y="305.82" width="2.75" height="2.67" rx="0.25" ry="0.25"/><path class="cls-17" d="M132.67,306.07v2.17h-2.25v-2.17h2.25m0-.5h-2.25a.5.5,0,0,0-.5.5v2.17a.5.5,0,0,0,.5.5h2.25a.5.5,0,0,0,.5-.5v-2.17a.5.5,0,0,0-.5-.5Z"/><rect class="cls-13" x="153.21" y="292.1" width="6.07" height="6.06"/><path class="cls-16" d="M154.05,297.8c.37-.22,1.85-.56,1.88-.71v-.74a1.52,1.52,0,0,1-.22-.57.43.43,0,0,1,0-.49v-.47c0-.48.2-.81.63-.81s.63.33.63.81v.47a.43.43,0,0,1,0,.49,1.53,1.53,0,0,1-.22.57v.74c0,.16,1.47.48,1.84.69Z"/><polygon class="cls-13" points="153.49 308.68 154.13 308.04 155.22 307.69 156.3 308.77 155.95 309.85 155.31 310.49 153.49 308.68"/><rect class="cls-16" x="151.56" y="309.48" width="3.33" height="2.57" transform="translate(-174.86 199.36) rotate(-45)"/><circle class="cls-13" cx="155.07" cy="308.92" r="0.16" transform="translate(-173.02 200.13) rotate(-45)"/><rect class="cls-15" x="94.71" y="338.84" width="28.07" height="20.25"/><rect class="cls-16" x="94.71" y="338.84" width="28.07" height="3.94"/><line class="cls-13" x1="101.79" y1="354.72" x2="104.2" y2="354.72"/><line class="cls-13" x1="101.79" y1="356.89" x2="110.24" y2="356.89"/><line class="cls-13" x1="97.4" y1="345.9" x2="113.62" y2="345.9"/><line class="cls-13" x1="97.4" y1="348.07" x2="108.07" y2="348.07"/><rect class="cls-5" x="96.7" y="354.47" width="2.75" height="2.67" rx="0.25" ry="0.25"/><path class="cls-17" d="M99.21,354.72v2.17H97v-2.17h2.25m0-.5H97a.5.5,0,0,0-.5.5v2.17a.5.5,0,0,0,.5.5h2.25a.5.5,0,0,0,.5-.5v-2.17a.5.5,0,0,0-.5-.5Z"/><rect class="cls-13" x="119.74" y="340.74" width="6.07" height="6.06"/><path class="cls-16" d="M120.58,346.44c.37-.22,1.85-.56,1.88-.71V345a1.52,1.52,0,0,1-.22-.57.43.43,0,0,1,0-.49v-.47c0-.48.2-.81.63-.81s.63.33.63.81v.47a.43.43,0,0,1,0,.49,1.53,1.53,0,0,1-.22.57v.74c0,.16,1.47.48,1.84.69Z"/><polygon class="cls-13" points="120.02 357.32 120.67 356.68 121.75 356.33 122.83 357.41 122.48 358.5 121.84 359.14 120.02 357.32"/><rect class="cls-16" x="118.09" y="358.12" width="3.33" height="2.57" transform="translate(-219.06 189.95) rotate(-45)"/><circle class="cls-13" cx="121.6" cy="357.56" r="0.16" transform="translate(-217.22 190.71) rotate(-45)"/><rect class="cls-15" x="24.22" y="290.19" width="28.07" height="20.25"/><rect class="cls-16" x="24.22" y="290.19" width="28.07" height="3.94"/><line class="cls-13" x1="31.31" y1="306.07" x2="33.72" y2="306.07"/><line class="cls-13" x1="31.31" y1="308.25" x2="39.76" y2="308.25"/><line class="cls-13" x1="26.91" y1="297.25" x2="43.14" y2="297.25"/><line class="cls-13" x1="26.91" y1="299.43" x2="37.58" y2="299.43"/><rect class="cls-5" x="26.22" y="305.82" width="2.75" height="2.67" rx="0.25" ry="0.25"/><path class="cls-17" d="M28.72,306.07v2.17H26.47v-2.17h2.25m0-.5H26.47a.5.5,0,0,0-.5.5v2.17a.5.5,0,0,0,.5.5h2.25a.5.5,0,0,0,.5-.5v-2.17a.5.5,0,0,0-.5-.5Z"/><rect class="cls-13" x="49.26" y="292.1" width="6.07" height="6.06"/><path class="cls-16" d="M50.1,297.8c.37-.22,1.85-.56,1.88-.71v-.74a1.52,1.52,0,0,1-.22-.57.43.43,0,0,1,0-.49v-.47c0-.48.2-.81.63-.81s.63.33.63.81v.47a.43.43,0,0,1,0,.49,1.53,1.53,0,0,1-.22.57v.74c0,.16,1.47.48,1.84.69Z"/><rect class="cls-13" x="42.34" y="309.33" width="4.6" height="3.42"/><line class="cls-13" x1="44.01" y1="311.41" x2="45.28" y2="311.41"/><rect class="cls-16" x="42.34" y="308.21" width="4.6" height="1.12"/><line class="cls-12" x1="43.67" y1="307.79" x2="43.67" y2="308.64"/><line class="cls-12" x1="45.62" y1="307.79" x2="45.62" y2="308.64"/><polygon class="cls-13" points="50.63 308.85 51.27 308.21 52.35 307.86 53.43 308.94 53.08 310.03 52.44 310.67 50.63 308.85"/><rect class="cls-16" x="48.69" y="309.65" width="3.33" height="2.57" transform="translate(-205.12 126.68) rotate(-45)"/><circle class="cls-13" cx="52.2" cy="309.09" r="0.16" transform="translate(-203.27 127.44) rotate(-45)"/><rect class="cls-15" x="164.81" y="290.19" width="28.07" height="20.25"/><rect class="cls-16" x="164.81" y="290.19" width="28.07" height="3.94"/><line class="cls-13" x1="171.89" y1="306.07" x2="174.3" y2="306.07"/><line class="cls-13" x1="171.89" y1="308.25" x2="180.34" y2="308.25"/><line class="cls-13" x1="167.5" y1="297.25" x2="183.73" y2="297.25"/><line class="cls-13" x1="167.5" y1="299.43" x2="178.17" y2="299.43"/><rect class="cls-5" x="166.81" y="305.82" width="2.75" height="2.67" rx="0.25" ry="0.25"/><path class="cls-17" d="M169.31,306.07v2.17h-2.25v-2.17h2.25m0-.5h-2.25a.5.5,0,0,0-.5.5v2.17a.5.5,0,0,0,.5.5h2.25a.5.5,0,0,0,.5-.5v-2.17a.5.5,0,0,0-.5-.5Z"/><rect class="cls-13" x="189.84" y="292.1" width="6.07" height="6.06"/><path class="cls-16" d="M190.69,297.8c.37-.22,1.85-.56,1.88-.71v-.74a1.52,1.52,0,0,1-.22-.57.43.43,0,0,1,0-.49v-.47c0-.48.2-.81.63-.81s.63.33.63.81v.47a.43.43,0,0,1,0,.49,1.53,1.53,0,0,1-.22.57v.74c0,.16,1.47.48,1.84.69Z"/><rect class="cls-13" x="187.54" y="309.13" width="4.6" height="3.42"/><line class="cls-13" x1="189.21" y1="311.21" x2="190.48" y2="311.21"/><rect class="cls-16" x="187.54" y="308.01" width="4.6" height="1.12"/><line class="cls-12" x1="188.87" y1="307.59" x2="188.87" y2="308.44"/><line class="cls-12" x1="190.82" y1="307.59" x2="190.82" y2="308.44"/><rect class="cls-15" x="-8.92" y="290.19" width="28.07" height="20.25"/><rect class="cls-16" x="-8.92" y="290.19" width="28.07" height="3.94"/><line class="cls-13" x1="-1.84" y1="306.07" x2="0.57" y2="306.07"/><line class="cls-13" x1="-1.84" y1="308.25" x2="6.61" y2="308.25"/><line class="cls-13" x1="-6.23" y1="297.25" x2="9.99" y2="297.25"/><line class="cls-13" x1="-6.23" y1="299.43" x2="4.44" y2="299.43"/><rect class="cls-13" x="16.11" y="292.1" width="6.07" height="6.06"/><path class="cls-16" d="M17,297.8c.37-.22,1.85-.56,1.88-.71v-.74a1.52,1.52,0,0,1-.22-.57.43.43,0,0,1,0-.49v-.47c0-.48.2-.81.63-.81s.63.33.63.81v.47a.43.43,0,0,1,0,.49,1.53,1.53,0,0,1-.22.57v.74c0,.16,1.47.48,1.84.69Z"/><rect class="cls-15" x="94.73" y="315.59" width="28.07" height="20.25"/><rect class="cls-16" x="94.73" y="315.59" width="28.07" height="3.94"/><line class="cls-13" x1="101.81" y1="331.47" x2="104.22" y2="331.47"/><line class="cls-13" x1="101.81" y1="333.65" x2="110.26" y2="333.65"/><line class="cls-13" x1="97.41" y1="322.65" x2="113.64" y2="322.65"/><line class="cls-13" x1="97.41" y1="324.83" x2="108.08" y2="324.83"/><rect class="cls-5" x="96.72" y="331.22" width="2.75" height="2.67" rx="0.25" ry="0.25"/><path class="cls-17" d="M99.22,331.47v2.17H97v-2.17h2.25m0-.5H97a.5.5,0,0,0-.5.5v2.17a.5.5,0,0,0,.5.5h2.25a.5.5,0,0,0,.5-.5v-2.17a.5.5,0,0,0-.5-.5Z"/><rect class="cls-13" x="119.76" y="317.5" width="6.07" height="6.06"/><path class="cls-16" d="M120.6,323.19c.37-.22,1.85-.56,1.88-.71v-.74a1.52,1.52,0,0,1-.22-.57.43.43,0,0,1,0-.49v-.47c0-.48.2-.81.63-.81s.63.33.63.81v.47a.43.43,0,0,1,0,.49,1.53,1.53,0,0,1-.22.57v.74c0,.16,1.47.48,1.84.69Z"/><line class="cls-8" x1="93.61" y1="278.41" x2="94.98" y2="278.41"/><line class="cls-8" x1="163.88" y1="278.41" x2="165.25" y2="278.41"/><line class="cls-13" x1="114.39" y1="278.23" x2="136.8" y2="278.23"/><rect class="cls-15" x="57.92" y="357.49" width="28.07" height="20.25"/><rect class="cls-16" x="57.92" y="357.49" width="28.07" height="3.94"/><line class="cls-13" x1="65" y1="373.37" x2="67.41" y2="373.37"/><line class="cls-13" x1="65" y1="375.55" x2="73.45" y2="375.55"/><line class="cls-13" x1="60.61" y1="364.55" x2="76.84" y2="364.55"/><line class="cls-13" x1="60.61" y1="366.73" x2="71.28" y2="366.73"/><rect class="cls-5" x="59.92" y="373.12" width="2.75" height="2.67" rx="0.25" ry="0.25"/><path class="cls-17" d="M62.42,373.37v2.17H60.17v-2.17h2.25m0-.5H60.17a.5.5,0,0,0-.5.5v2.17a.5.5,0,0,0,.5.5h2.25a.5.5,0,0,0,.5-.5v-2.17a.5.5,0,0,0-.5-.5Z"/><polygon class="cls-16" points="83.88 375.69 81.71 375.69 80.17 377.22 80.17 379.4 81.71 380.93 83.88 380.93 85.42 379.4 85.42 377.22 83.88 375.69"/><rect class="cls-13" x="82.96" y="359.4" width="6.07" height="6.06"/><path class="cls-16" d="M83.8,365.1c.37-.22,1.85-.56,1.88-.71v-.74a1.52,1.52,0,0,1-.22-.57.43.43,0,0,1,0-.49v-.47c0-.48.2-.81.63-.81s.63.33.63.81v.47a.43.43,0,0,1,0,.49,1.53,1.53,0,0,1-.22.57v.74c0,.16,1.47.48,1.84.69Z"/><line class="cls-12" x1="81.84" y1="377.35" x2="83.75" y2="379.27"/><line class="cls-12" x1="81.84" y1="379.27" x2="83.75" y2="377.35"/><rect class="cls-15" x="-8.9" y="315.59" width="28.07" height="20.25"/><rect class="cls-16" x="-8.9" y="315.59" width="28.07" height="3.94"/><line class="cls-13" x1="-1.82" y1="331.47" x2="0.59" y2="331.47"/><line class="cls-13" x1="-1.82" y1="333.65" x2="6.63" y2="333.65"/><line class="cls-13" x1="-6.22" y1="322.65" x2="10.01" y2="322.65"/><line class="cls-13" x1="-6.22" y1="324.83" x2="4.45" y2="324.83"/><rect class="cls-13" x="16.13" y="317.5" width="6.07" height="6.06"/><path class="cls-16" d="M17,323.19c.37-.22,1.85-.56,1.88-.71v-.74a1.52,1.52,0,0,1-.22-.57.43.43,0,0,1,0-.49v-.47c0-.48.2-.81.63-.81s.63.33.63.81v.47a.43.43,0,0,1,0,.49,1.53,1.53,0,0,1-.22.57v.74c0,.16,1.47.48,1.84.69Z"/><rect class="cls-13" x="9.22" y="334.73" width="4.6" height="3.42"/><line class="cls-13" x1="10.88" y1="336.8" x2="12.15" y2="336.8"/><rect class="cls-16" x="9.22" y="333.61" width="4.6" height="1.12"/><line class="cls-12" x1="10.54" y1="333.18" x2="10.54" y2="334.03"/><line class="cls-12" x1="12.49" y1="333.18" x2="12.49" y2="334.03"/><polygon class="cls-13" points="17.5 334.25 18.14 333.61 19.22 333.26 20.3 334.34 19.95 335.42 19.31 336.06 17.5 334.25"/><rect class="cls-16" x="15.56" y="335.05" width="3.33" height="2.57" transform="translate(-232.78 110.69) rotate(-45)"/><circle class="cls-13" cx="19.07" cy="334.49" r="0.16" transform="translate(-230.93 111.46) rotate(-45)"/><rect class="cls-15" x="94.73" y="290.19" width="28.07" height="20.25"/><rect class="cls-16" x="94.73" y="290.19" width="28.07" height="3.94"/><line class="cls-13" x1="101.81" y1="306.07" x2="104.22" y2="306.07"/><line class="cls-13" x1="101.81" y1="308.25" x2="110.26" y2="308.25"/><line class="cls-13" x1="97.41" y1="297.25" x2="113.64" y2="297.25"/><line class="cls-13" x1="97.41" y1="299.43" x2="108.08" y2="299.43"/><rect class="cls-5" x="96.72" y="305.82" width="2.75" height="2.67" rx="0.25" ry="0.25"/><path class="cls-17" d="M99.22,306.07v2.17H97v-2.17h2.25m0-.5H97a.5.5,0,0,0-.5.5v2.17a.5.5,0,0,0,.5.5h2.25a.5.5,0,0,0,.5-.5v-2.17a.5.5,0,0,0-.5-.5Z"/><rect class="cls-13" x="119.76" y="292.1" width="6.07" height="6.06"/><path class="cls-16" d="M120.6,297.8c.37-.22,1.85-.56,1.88-.71v-.74a1.52,1.52,0,0,1-.22-.57.43.43,0,0,1,0-.49v-.47c0-.48.2-.81.63-.81s.63.33.63.81v.47a.43.43,0,0,1,0,.49,1.53,1.53,0,0,1-.22.57v.74c0,.16,1.47.48,1.84.69Z"/><rect class="cls-15" x="112.85" y="309.33" width="4.6" height="3.42"/><line class="cls-13" x1="114.52" y1="311.41" x2="115.78" y2="311.41"/><rect class="cls-16" x="112.85" y="308.21" width="4.6" height="1.12"/><line class="cls-12" x1="114.17" y1="307.79" x2="114.17" y2="308.64"/><line class="cls-12" x1="116.12" y1="307.79" x2="116.12" y2="308.64"/><polygon class="cls-13" points="121.13 308.85 121.77 308.21 122.85 307.86 123.93 308.94 123.58 310.03 122.94 310.67 121.13 308.85"/><rect class="cls-16" x="119.19" y="309.65" width="3.33" height="2.57" transform="translate(-184.47 176.53) rotate(-45)"/><circle class="cls-13" cx="122.7" cy="309.09" r="0.16" transform="translate(-182.62 177.29) rotate(-45)"/><rect class="cls-15" x="57.92" y="290.19" width="28.07" height="20.25"/><rect class="cls-16" x="57.92" y="290.19" width="28.07" height="3.94"/><line class="cls-13" x1="65" y1="306.07" x2="67.41" y2="306.07"/><line class="cls-13" x1="65" y1="308.25" x2="73.45" y2="308.25"/><line class="cls-13" x1="60.61" y1="297.25" x2="76.84" y2="297.25"/><line class="cls-13" x1="60.61" y1="299.43" x2="71.28" y2="299.43"/><rect class="cls-5" x="59.92" y="305.82" width="2.75" height="2.67" rx="0.25" ry="0.25"/><path class="cls-17" d="M62.42,306.07v2.17H60.17v-2.17h2.25m0-.5H60.17a.5.5,0,0,0-.5.5v2.17a.5.5,0,0,0,.5.5h2.25a.5.5,0,0,0,.5-.5v-2.17a.5.5,0,0,0-.5-.5Z"/><rect class="cls-13" x="82.96" y="292.1" width="6.07" height="6.06"/><path class="cls-16" d="M83.8,297.8c.37-.22,1.85-.56,1.88-.71v-.74a1.52,1.52,0,0,1-.22-.57.43.43,0,0,1,0-.49v-.47c0-.48.2-.81.63-.81s.63.33.63.81v.47a.43.43,0,0,1,0,.49,1.53,1.53,0,0,1-.22.57v.74c0,.16,1.47.48,1.84.69Z"/><polygon class="cls-13" points="83.24 308.68 83.88 308.04 84.96 307.69 86.04 308.77 85.69 309.85 85.05 310.49 83.24 308.68"/><rect class="cls-16" x="81.3" y="309.48" width="3.33" height="2.57" transform="translate(-195.44 149.69) rotate(-45)"/><circle class="cls-13" cx="84.81" cy="308.92" r="0.16" transform="translate(-193.6 150.45) rotate(-45)"/><rect class="cls-4" x="-33.1" y="176.63" width="171.72" height="303.35" transform="translate(381.06 275.54) rotate(90)"/><rect class="cls-3" x="-130.02" y="433.96" width="365.55" height="3.82"/><rect class="cls-4" x="-130.02" y="430.36" width="365.55" height="7.42"/><path class="cls-18" d="M214,445.21H-108.51A24.3,24.3,0,0,1-118.64,443L-130,437.79H235.53L224.15,443A24.3,24.3,0,0,1,214,445.21Z"/><path class="cls-18" d="M80.21,430.36l-2,1.74a3.88,3.88,0,0,1-2.54.86H29.81a3.88,3.88,0,0,1-2.54-.86l-2-1.74Z"/><line class="cls-4" x1="235.77" y1="413.79" x2="580.41" y2="413.79"/><g class="cls-19"><line class="cls-4" x1="335.57" y1="445.17" x2="460.67" y2="445.17"/><line class="cls-20" x1="464" y1="445.17" x2="466.33" y2="445.17"/><rect class="cls-21" x="338.81" y="337.03" width="118.62" height="108.14"/><rect class="cls-5" x="343.67" y="338.65" width="108.9" height="104.9"/><polygon class="cls-3" points="343.67 443.55 452.57 443.55 452.57 433.98 398.12 439.9 343.67 428.98 343.67 443.55"/><rect class="cls-14" x="343.67" y="338.65" width="108.9" height="104.9"/><line class="cls-13" x1="454.02" y1="443.55" x2="454.02" y2="338.65"/><line class="cls-13" x1="455" y1="443.55" x2="455" y2="338.65"/><line class="cls-13" x1="455.98" y1="443.55" x2="455.98" y2="338.65"/><line class="cls-13" x1="342.22" y1="338.65" x2="342.22" y2="443.55"/><line class="cls-13" x1="341.24" y1="338.65" x2="341.24" y2="443.55"/><line class="cls-13" x1="340.26" y1="338.65" x2="340.26" y2="443.55"/><line class="cls-8" x1="398.12" y1="337.3" x2="398.12" y2="444.9"/><path class="cls-13" d="M424.28,419H442m-17.68-16.06H442l-17.68,5.94m0-23.08H442l-17.68,6.75H442m-17.68-28.41H442l-17.68,5.73L442,372l-17.68,4.72H442"/><polygon class="cls-15" points="389.96 402.32 392.42 400.7 394.88 402.32 394.88 337.12 389.96 337.12 389.96 402.32"/><line class="cls-4" x1="330.55" y1="445.17" x2="327.49" y2="445.17"/></g><path class="cls-5" d="M520.23,231.1h306a10,10,0,0,1,10,10V422.36a8,8,0,0,1-8,8h-310a8,8,0,0,1-8-8V241.1A10,10,0,0,1,520.23,231.1Z"/><path class="cls-3" d="M821.85,234.7h-290a18,18,0,0,0-18,18V419.56a9.31,9.31,0,0,0,10.8,10.8H821.85a14.4,14.4,0,0,0,14.4-14.4V249.1a17.9,17.9,0,0,0-3.61-10.79A17.9,17.9,0,0,0,821.85,234.7Z"/><path class="cls-4" d="M520.23,231.1h306a10,10,0,0,1,10,10V422.36a8,8,0,0,1-8,8h-310a8,8,0,0,1-8-8V241.1A10,10,0,0,1,520.23,231.1Z"/><rect class="cls-7" x="521.57" y="242.44" width="303.35" height="171.72"/><path class="cls-17" d="M532.35,251.93a2.2,2.2,0,1,1-2.2-2.2,2.2,2.2,0,0,1,2.2,2.2"/><path class="cls-17" d="M539.16,251.93a2.2,2.2,0,1,1-2.2-2.2,2.2,2.2,0,0,1,2.2,2.2"/><path class="cls-17" d="M546,251.93a2.2,2.2,0,1,1-2.2-2.2,2.2,2.2,0,0,1,2.2,2.2"/><rect class="cls-8" x="528.04" y="272.05" width="290.4" height="139.26"/><rect class="cls-9" x="528.04" y="262.46" width="290.4" height="9.59"/><rect class="cls-10" x="745.25" y="265.77" width="2.98" height="2.98"/><circle class="cls-10" cx="768.58" cy="267.26" r="1.49"/><circle class="cls-11" cx="813.25" cy="267.26" r="2.48"/><circle class="cls-10" cx="798.69" cy="267.26" r="1.49"/><circle class="cls-10" cx="790.42" cy="267.26" r="1.49"/><circle class="cls-10" cx="782.14" cy="267.26" r="1.49"/><line class="cls-12" x1="805.47" y1="265.27" x2="805.47" y2="269.24"/><rect class="cls-10" x="758.82" y="265.77" width="2.98" height="2.98"/><line class="cls-12" x1="775.36" y1="265.27" x2="775.36" y2="269.24"/><rect class="cls-10" x="736.98" y="265.77" width="2.98" height="2.98"/><line class="cls-12" x1="753.52" y1="265.27" x2="753.52" y2="269.24"/><polygon class="cls-22" points="533.54 269.54 533.54 269.11 533.54 269.11 533.54 267.24 533.54 265.41 533.54 264.98 532.23 265.74 532.22 268.78 533.54 269.55 533.55 269.54 533.54 269.54"/><polygon class="cls-5" points="537.49 268.78 537.49 267.26 537.12 267.48 535.52 268.4 533.91 269.33 533.55 269.54 533.54 269.55 534.86 270.3 537.49 268.78"/><polygon class="cls-23" points="533.92 265.19 535.52 266.12 537.12 267.05 537.49 267.26 537.49 265.74 534.86 264.22 533.54 264.98 533.92 265.19"/><line class="cls-11" x1="540.16" y1="267.27" x2="556.77" y2="267.27"/><rect class="cls-8" x="530.09" y="275.5" width="5.95" height="133.02"/><line class="cls-8" x1="532.25" y1="278.41" x2="533.89" y2="278.41"/><line class="cls-8" x1="533.07" y1="279.23" x2="533.07" y2="277.59"/><rect class="cls-8" x="609.19" y="275.5" width="100.31" height="133.02"/><rect class="cls-8" x="609.19" y="343.46" width="100.31" height="5.95"/><line class="cls-13" x1="648.14" y1="346.26" x2="670.55" y2="346.26"/><rect class="cls-8" x="609.19" y="281.38" width="100.31" height="6.05"/><rect class="cls-8" x="609.19" y="349.29" width="100.31" height="6.05"/><line class="cls-13" x1="635.37" y1="284.41" x2="649.98" y2="284.41"/><rect class="cls-14" x="609.19" y="275.5" width="100.31" height="133.02"/><rect class="cls-8" x="712.38" y="275.5" width="67.39" height="133.02"/><rect class="cls-8" x="712.38" y="281.38" width="67.39" height="6.05"/><line class="cls-13" x1="721.74" y1="284.41" x2="736.35" y2="284.41"/><line class="cls-13" x1="635.37" y1="352.31" x2="649.98" y2="352.31"/><line class="cls-13" x1="764.71" y1="284.41" x2="755.8" y2="284.41"/><line class="cls-13" x1="697.25" y1="352.31" x2="688.34" y2="352.31"/><rect class="cls-13" x="774.39" y="282.49" width="3.83" height="3.83"/><line class="cls-13" x1="775.91" y1="284.41" x2="776.71" y2="284.41"/><rect class="cls-14" x="712.38" y="275.5" width="67.39" height="133.02"/><rect class="cls-8" x="538.92" y="275.5" width="67.39" height="133.02"/><rect class="cls-8" x="538.92" y="281.38" width="67.39" height="6.05"/><line class="cls-8" x1="572.62" y1="275.5" x2="572.62" y2="408.51"/><line class="cls-8" x1="746.08" y1="275.5" x2="746.08" y2="408.51"/><line class="cls-13" x1="547.75" y1="284.41" x2="562.36" y2="284.41"/><line class="cls-13" x1="591.77" y1="284.41" x2="582.87" y2="284.41"/><rect class="cls-13" x="600.93" y="282.49" width="3.83" height="3.83"/><line class="cls-13" x1="602.44" y1="284.41" x2="603.25" y2="284.41"/><rect class="cls-13" x="670.43" y="282.49" width="3.83" height="3.83"/><line class="cls-13" x1="671.94" y1="284.41" x2="672.74" y2="284.41"/><rect class="cls-14" x="538.92" y="275.5" width="67.39" height="133.02"/><line class="cls-8" x1="675.81" y1="349.29" x2="675.81" y2="408.51"/><line class="cls-8" x1="675.81" y1="281.59" x2="675.81" y2="343.46"/><rect class="cls-8" x="782.65" y="281.38" width="33.74" height="6.05"/><line class="cls-8" x1="795.47" y1="284.41" x2="803.51" y2="284.41"/><rect class="cls-8" x="782.65" y="275.43" width="33.74" height="133.08"/><rect class="cls-8" x="782.65" y="281.38" width="33.74" height="6.05"/><rect class="cls-8" x="782.65" y="275.38" width="33.74" height="6.05"/><line class="cls-13" x1="795.47" y1="284.41" x2="803.51" y2="284.41"/><line class="cls-13" x1="793.46" y1="278.41" x2="805.52" y2="278.41"/><rect class="cls-14" x="782.65" y="275.43" width="33.74" height="133.08"/><rect class="cls-8" x="538.92" y="275.43" width="67.39" height="5.95"/><rect class="cls-8" x="609.19" y="275.43" width="100.31" height="5.95"/><line class="cls-13" x1="648.14" y1="278.23" x2="670.55" y2="278.23"/><rect class="cls-8" x="712.38" y="275.43" width="67.39" height="5.95"/><rect class="cls-15" x="541.52" y="290.19" width="28.07" height="20.25"/><rect class="cls-16" x="541.52" y="290.19" width="28.07" height="3.94"/><line class="cls-13" x1="548.6" y1="306.07" x2="551.01" y2="306.07"/><line class="cls-13" x1="548.6" y1="308.25" x2="557.05" y2="308.25"/><line class="cls-13" x1="544.2" y1="297.25" x2="560.43" y2="297.25"/><line class="cls-13" x1="544.2" y1="299.43" x2="554.87" y2="299.43"/><rect class="cls-5" x="543.51" y="305.82" width="2.75" height="2.67" rx="0.25" ry="0.25"/><path class="cls-17" d="M546,306.07v2.17h-2.25v-2.17H546m0-.5h-2.25a.5.5,0,0,0-.5.5v2.17a.5.5,0,0,0,.5.5H546a.5.5,0,0,0,.5-.5v-2.17a.5.5,0,0,0-.5-.5Z"/><rect class="cls-13" x="566.55" y="292.1" width="6.07" height="6.06"/><path class="cls-16" d="M567.39,297.8c.37-.22,1.85-.56,1.88-.71v-.74a1.52,1.52,0,0,1-.22-.57.43.43,0,0,1,0-.49v-.47c0-.48.2-.81.63-.81s.63.33.63.81v.47a.43.43,0,0,1,0,.49,1.53,1.53,0,0,1-.22.57v.74c0,.16,1.47.48,1.84.69Z"/><polygon class="cls-13" points="566.83 308.68 567.47 308.04 568.56 307.69 569.64 308.77 569.29 309.85 568.65 310.49 566.83 308.68"/><rect class="cls-16" x="564.9" y="309.48" width="3.33" height="2.57" transform="translate(-53.8 491.64) rotate(-45)"/><circle class="cls-13" cx="568.41" cy="308.92" r="0.16" transform="translate(-51.95 492.4) rotate(-45)"/><rect class="cls-15" x="748.66" y="290.19" width="28.07" height="20.25"/><rect class="cls-16" x="748.66" y="290.19" width="28.07" height="3.94"/><line class="cls-13" x1="755.74" y1="306.07" x2="758.15" y2="306.07"/><line class="cls-13" x1="755.74" y1="308.25" x2="764.19" y2="308.25"/><line class="cls-13" x1="751.35" y1="297.25" x2="767.57" y2="297.25"/><line class="cls-13" x1="751.35" y1="299.43" x2="762.02" y2="299.43"/><rect class="cls-5" x="750.65" y="305.82" width="2.75" height="2.67" rx="0.25" ry="0.25"/><path class="cls-17" d="M753.15,306.07v2.17H750.9v-2.17h2.25m0-.5H750.9a.5.5,0,0,0-.5.5v2.17a.5.5,0,0,0,.5.5h2.25a.5.5,0,0,0,.5-.5v-2.17a.5.5,0,0,0-.5-.5Z"/><rect class="cls-13" x="773.69" y="292.1" width="6.07" height="6.06"/><path class="cls-16" d="M774.53,297.8c.37-.22,1.85-.56,1.88-.71v-.74a1.52,1.52,0,0,1-.22-.57.43.43,0,0,1,0-.49v-.47c0-.48.2-.81.63-.81s.63.33.63.81v.47a.43.43,0,0,1,0,.49,1.53,1.53,0,0,1-.22.57v.74c0,.16,1.47.48,1.84.69Z"/><polygon class="cls-13" points="773.97 308.68 774.61 308.04 775.7 307.69 776.78 308.77 776.43 309.85 775.79 310.49 773.97 308.68"/><rect class="cls-16" x="772.04" y="309.48" width="3.33" height="2.57" transform="translate(6.87 638.11) rotate(-45)"/><circle class="cls-13" cx="775.55" cy="308.92" r="0.16" transform="translate(8.72 638.88) rotate(-45)"/><rect class="cls-15" x="715.19" y="338.84" width="28.07" height="20.25"/><rect class="cls-16" x="715.19" y="338.84" width="28.07" height="3.94"/><line class="cls-13" x1="722.27" y1="354.72" x2="724.68" y2="354.72"/><line class="cls-13" x1="722.27" y1="356.89" x2="730.72" y2="356.89"/><line class="cls-13" x1="717.88" y1="345.9" x2="734.11" y2="345.9"/><line class="cls-13" x1="717.88" y1="348.07" x2="728.55" y2="348.07"/><rect class="cls-5" x="717.19" y="354.47" width="2.75" height="2.67" rx="0.25" ry="0.25"/><path class="cls-17" d="M719.69,354.72v2.17h-2.25v-2.17h2.25m0-.5h-2.25a.5.5,0,0,0-.5.5v2.17a.5.5,0,0,0,.5.5h2.25a.5.5,0,0,0,.5-.5v-2.17a.5.5,0,0,0-.5-.5Z"/><rect class="cls-13" x="740.23" y="340.74" width="6.07" height="6.06"/><path class="cls-16" d="M741.07,346.44c.37-.22,1.85-.56,1.88-.71V345a1.52,1.52,0,0,1-.22-.57.43.43,0,0,1,0-.49v-.47c0-.48.2-.81.63-.81s.63.33.63.81v.47a.43.43,0,0,1,0,.49,1.53,1.53,0,0,1-.22.57v.74c0,.16,1.47.48,1.84.69Z"/><polygon class="cls-13" points="740.51 357.32 741.15 356.68 742.23 356.33 743.31 357.41 742.96 358.5 742.32 359.14 740.51 357.32"/><rect class="cls-16" x="738.57" y="358.12" width="3.33" height="2.57" transform="translate(-37.33 628.69) rotate(-45)"/><circle class="cls-13" cx="742.08" cy="357.56" r="0.16" transform="translate(-35.48 629.46) rotate(-45)"/><rect class="cls-15" x="644.71" y="290.19" width="28.07" height="20.25"/><rect class="cls-16" x="644.71" y="290.19" width="28.07" height="3.94"/><line class="cls-13" x1="651.79" y1="306.07" x2="654.2" y2="306.07"/><line class="cls-13" x1="651.79" y1="308.25" x2="660.24" y2="308.25"/><line class="cls-13" x1="647.39" y1="297.25" x2="663.62" y2="297.25"/><line class="cls-13" x1="647.39" y1="299.43" x2="658.07" y2="299.43"/><rect class="cls-5" x="646.7" y="305.82" width="2.75" height="2.67" rx="0.25" ry="0.25"/><path class="cls-17" d="M649.2,306.07v2.17H647v-2.17h2.25m0-.5H647a.5.5,0,0,0-.5.5v2.17a.5.5,0,0,0,.5.5h2.25a.5.5,0,0,0,.5-.5v-2.17a.5.5,0,0,0-.5-.5Z"/><rect class="cls-13" x="669.74" y="292.1" width="6.07" height="6.06"/><path class="cls-16" d="M670.58,297.8c.37-.22,1.85-.56,1.88-.71v-.74a1.52,1.52,0,0,1-.22-.57.43.43,0,0,1,0-.49v-.47c0-.48.2-.81.63-.81s.63.33.63.81v.47a.43.43,0,0,1,0,.49,1.53,1.53,0,0,1-.22.57v.74c0,.16,1.47.48,1.84.69Z"/><rect class="cls-13" x="662.83" y="309.33" width="4.6" height="3.42"/><line class="cls-13" x1="664.5" y1="311.41" x2="665.76" y2="311.41"/><rect class="cls-16" x="662.83" y="308.21" width="4.6" height="1.12"/><line class="cls-12" x1="664.16" y1="307.79" x2="664.16" y2="308.64"/><line class="cls-12" x1="666.1" y1="307.79" x2="666.1" y2="308.64"/><polygon class="cls-13" points="671.11 308.85 671.75 308.21 672.83 307.86 673.91 308.94 673.56 310.03 672.92 310.67 671.11 308.85"/><rect class="cls-16" x="669.17" y="309.65" width="3.33" height="2.57" transform="translate(-23.38 565.43) rotate(-45)"/><circle class="cls-13" cx="672.68" cy="309.09" r="0.16" transform="translate(-21.54 566.19) rotate(-45)"/><rect class="cls-15" x="575.21" y="290.19" width="28.07" height="20.25"/><rect class="cls-16" x="575.21" y="290.19" width="28.07" height="3.94"/><line class="cls-13" x1="582.29" y1="306.07" x2="584.71" y2="306.07"/><line class="cls-13" x1="582.29" y1="308.25" x2="590.75" y2="308.25"/><line class="cls-13" x1="577.9" y1="297.25" x2="594.13" y2="297.25"/><line class="cls-13" x1="577.9" y1="299.43" x2="588.57" y2="299.43"/><rect class="cls-5" x="577.21" y="305.82" width="2.75" height="2.67" rx="0.25" ry="0.25"/><path class="cls-17" d="M579.71,306.07v2.17h-2.25v-2.17h2.25m0-.5h-2.25a.5.5,0,0,0-.5.5v2.17a.5.5,0,0,0,.5.5h2.25a.5.5,0,0,0,.5-.5v-2.17a.5.5,0,0,0-.5-.5Z"/><rect class="cls-13" x="600.25" y="292.1" width="6.07" height="6.06"/><path class="cls-16" d="M601.09,297.8c.37-.22,1.85-.56,1.88-.71v-.74a1.52,1.52,0,0,1-.22-.57.43.43,0,0,1,0-.49v-.47c0-.48.2-.81.63-.81s.63.33.63.81v.47a.43.43,0,0,1,0,.49,1.53,1.53,0,0,1-.22.57v.74c0,.16,1.47.48,1.84.69Z"/><rect class="cls-13" x="597.95" y="309.13" width="4.6" height="3.42"/><line class="cls-13" x1="599.62" y1="311.21" x2="600.88" y2="311.21"/><rect class="cls-16" x="597.95" y="308.01" width="4.6" height="1.12"/><line class="cls-12" x1="599.28" y1="307.59" x2="599.28" y2="308.44"/><line class="cls-12" x1="601.22" y1="307.59" x2="601.22" y2="308.44"/><rect class="cls-15" x="785.29" y="290.19" width="28.07" height="20.25"/><rect class="cls-16" x="785.29" y="290.19" width="28.07" height="3.94"/><line class="cls-13" x1="792.37" y1="306.07" x2="794.79" y2="306.07"/><line class="cls-13" x1="792.37" y1="308.25" x2="800.83" y2="308.25"/><line class="cls-13" x1="787.98" y1="297.25" x2="804.21" y2="297.25"/><line class="cls-13" x1="787.98" y1="299.43" x2="798.65" y2="299.43"/><rect class="cls-5" x="787.29" y="305.82" width="2.75" height="2.67" rx="0.25" ry="0.25"/><path class="cls-17" d="M789.79,306.07v2.17h-2.25v-2.17h2.25m0-.5h-2.25a.5.5,0,0,0-.5.5v2.17a.5.5,0,0,0,.5.5h2.25a.5.5,0,0,0,.5-.5v-2.17a.5.5,0,0,0-.5-.5Z"/><rect class="cls-13" x="810.33" y="292.1" width="6.07" height="6.06"/><path class="cls-16" d="M811.17,297.8c.37-.22,1.85-.56,1.88-.71v-.74a1.52,1.52,0,0,1-.22-.57.43.43,0,0,1,0-.49v-.47c0-.48.2-.81.63-.81s.63.33.63.81v.47a.43.43,0,0,1,0,.49,1.53,1.53,0,0,1-.22.57v.74c0,.16,1.47.48,1.84.69Z"/><rect class="cls-13" x="808.03" y="309.13" width="4.6" height="3.42"/><line class="cls-13" x1="809.69" y1="311.21" x2="810.96" y2="311.21"/><rect class="cls-16" x="808.03" y="308.01" width="4.6" height="1.12"/><line class="cls-12" x1="809.35" y1="307.59" x2="809.35" y2="308.44"/><line class="cls-12" x1="811.3" y1="307.59" x2="811.3" y2="308.44"/><rect class="cls-15" x="575.21" y="315.59" width="28.07" height="20.25"/><rect class="cls-16" x="575.21" y="315.59" width="28.07" height="3.94"/><line class="cls-13" x1="582.29" y1="331.47" x2="584.71" y2="331.47"/><line class="cls-13" x1="582.29" y1="333.65" x2="590.75" y2="333.65"/><line class="cls-13" x1="577.9" y1="322.65" x2="594.13" y2="322.65"/><line class="cls-13" x1="577.9" y1="324.83" x2="588.57" y2="324.83"/><rect class="cls-5" x="577.21" y="331.22" width="2.75" height="2.67" rx="0.25" ry="0.25"/><path class="cls-17" d="M579.71,331.47v2.17h-2.25v-2.17h2.25m0-.5h-2.25a.5.5,0,0,0-.5.5v2.17a.5.5,0,0,0,.5.5h2.25a.5.5,0,0,0,.5-.5v-2.17a.5.5,0,0,0-.5-.5Z"/><rect class="cls-13" x="600.25" y="317.5" width="6.07" height="6.06"/><path class="cls-16" d="M601.09,323.19c.37-.22,1.85-.56,1.88-.71v-.74a1.52,1.52,0,0,1-.22-.57.43.43,0,0,1,0-.49v-.47c0-.48.2-.81.63-.81s.63.33.63.81v.47a.43.43,0,0,1,0,.49,1.53,1.53,0,0,1-.22.57v.74c0,.16,1.47.48,1.84.69Z"/><rect class="cls-15" x="611.56" y="290.19" width="28.07" height="20.25"/><rect class="cls-16" x="611.56" y="290.19" width="28.07" height="3.94"/><line class="cls-13" x1="618.64" y1="306.07" x2="621.05" y2="306.07"/><line class="cls-13" x1="618.64" y1="308.25" x2="627.09" y2="308.25"/><line class="cls-13" x1="614.25" y1="297.25" x2="630.48" y2="297.25"/><line class="cls-13" x1="614.25" y1="299.43" x2="624.92" y2="299.43"/><rect class="cls-5" x="613.56" y="305.82" width="2.75" height="2.67" rx="0.25" ry="0.25"/><path class="cls-17" d="M616.06,306.07v2.17h-2.25v-2.17h2.25m0-.5h-2.25a.5.5,0,0,0-.5.5v2.17a.5.5,0,0,0,.5.5h2.25a.5.5,0,0,0,.5-.5v-2.17a.5.5,0,0,0-.5-.5Z"/><rect class="cls-13" x="636.59" y="292.1" width="6.07" height="6.06"/><path class="cls-16" d="M637.44,297.8c.37-.22,1.85-.56,1.88-.71v-.74a1.52,1.52,0,0,1-.22-.57.43.43,0,0,1,0-.49v-.47c0-.48.2-.81.63-.81s.63.33.63.81v.47a.43.43,0,0,1,0,.49,1.53,1.53,0,0,1-.22.57v.74c0,.16,1.47.48,1.84.69Z"/><rect class="cls-15" x="715.21" y="315.59" width="28.07" height="20.25"/><rect class="cls-16" x="715.21" y="315.59" width="28.07" height="3.94"/><line class="cls-13" x1="722.29" y1="331.47" x2="724.7" y2="331.47"/><line class="cls-13" x1="722.29" y1="333.65" x2="730.74" y2="333.65"/><line class="cls-13" x1="717.9" y1="322.65" x2="734.12" y2="322.65"/><line class="cls-13" x1="717.9" y1="324.83" x2="728.57" y2="324.83"/><rect class="cls-5" x="717.2" y="331.22" width="2.75" height="2.67" rx="0.25" ry="0.25"/><path class="cls-17" d="M719.71,331.47v2.17h-2.25v-2.17h2.25m0-.5h-2.25a.5.5,0,0,0-.5.5v2.17a.5.5,0,0,0,.5.5h2.25a.5.5,0,0,0,.5-.5v-2.17a.5.5,0,0,0-.5-.5Z"/><rect class="cls-13" x="740.24" y="317.5" width="6.07" height="6.06"/><path class="cls-16" d="M741.08,323.19c.37-.22,1.85-.56,1.88-.71v-.74a1.52,1.52,0,0,1-.22-.57.43.43,0,0,1,0-.49v-.47c0-.48.2-.81.63-.81s.63.33.63.81v.47a.43.43,0,0,1,0,.49,1.53,1.53,0,0,1-.22.57v.74c0,.16,1.47.48,1.84.69Z"/><line class="cls-8" x1="540.63" y1="278.41" x2="542" y2="278.41"/><line class="cls-8" x1="610.9" y1="278.41" x2="612.27" y2="278.41"/><line class="cls-8" x1="714.09" y1="278.41" x2="715.46" y2="278.41"/><line class="cls-8" x1="784.36" y1="278.41" x2="785.73" y2="278.41"/><line class="cls-13" x1="734.87" y1="278.23" x2="757.28" y2="278.23"/><line class="cls-13" x1="561.41" y1="278.23" x2="583.82" y2="278.23"/><rect class="cls-15" x="678.4" y="357.49" width="28.07" height="20.25"/><rect class="cls-16" x="678.4" y="357.49" width="28.07" height="3.94"/><line class="cls-13" x1="685.48" y1="373.37" x2="687.9" y2="373.37"/><line class="cls-13" x1="685.48" y1="375.55" x2="693.94" y2="375.55"/><line class="cls-13" x1="681.09" y1="364.55" x2="697.32" y2="364.55"/><line class="cls-13" x1="681.09" y1="366.73" x2="691.76" y2="366.73"/><rect class="cls-5" x="680.4" y="373.12" width="2.75" height="2.67" rx="0.25" ry="0.25"/><path class="cls-17" d="M682.9,373.37v2.17h-2.25v-2.17h2.25m0-.5h-2.25a.5.5,0,0,0-.5.5v2.17a.5.5,0,0,0,.5.5h2.25a.5.5,0,0,0,.5-.5v-2.17a.5.5,0,0,0-.5-.5Z"/><polygon class="cls-16" points="704.36 375.69 702.19 375.69 700.65 377.22 700.65 379.4 702.19 380.93 704.36 380.93 705.9 379.4 705.9 377.22 704.36 375.69"/><rect class="cls-13" x="703.44" y="359.4" width="6.07" height="6.06"/><path class="cls-16" d="M704.28,365.1c.37-.22,1.85-.56,1.88-.71v-.74a1.52,1.52,0,0,1-.22-.57.43.43,0,0,1,0-.49v-.47c0-.48.2-.81.63-.81s.63.33.63.81v.47a.43.43,0,0,1,0,.49,1.53,1.53,0,0,1-.22.57v.74c0,.16,1.47.48,1.84.69Z"/><line class="cls-12" x1="702.32" y1="377.35" x2="704.23" y2="379.27"/><line class="cls-12" x1="702.32" y1="379.27" x2="704.23" y2="377.35"/><rect class="cls-15" x="611.58" y="315.59" width="28.07" height="20.25"/><rect class="cls-16" x="611.58" y="315.59" width="28.07" height="3.94"/><line class="cls-13" x1="618.66" y1="331.47" x2="621.07" y2="331.47"/><line class="cls-13" x1="618.66" y1="333.65" x2="627.11" y2="333.65"/><line class="cls-13" x1="614.27" y1="322.65" x2="630.49" y2="322.65"/><line class="cls-13" x1="614.27" y1="324.83" x2="624.94" y2="324.83"/><rect class="cls-5" x="613.57" y="331.22" width="2.75" height="2.67" rx="0.25" ry="0.25"/><path class="cls-17" d="M616.08,331.47v2.17h-2.25v-2.17h2.25m0-.5h-2.25a.5.5,0,0,0-.5.5v2.17a.5.5,0,0,0,.5.5h2.25a.5.5,0,0,0,.5-.5v-2.17a.5.5,0,0,0-.5-.5Z"/><rect class="cls-13" x="636.61" y="317.5" width="6.07" height="6.06"/><path class="cls-16" d="M637.45,323.19c.37-.22,1.85-.56,1.88-.71v-.74a1.52,1.52,0,0,1-.22-.57.43.43,0,0,1,0-.49v-.47c0-.48.2-.81.63-.81s.63.33.63.81v.47a.43.43,0,0,1,0,.49,1.53,1.53,0,0,1-.22.57v.74c0,.16,1.47.48,1.84.69Z"/><rect class="cls-13" x="629.7" y="334.73" width="4.6" height="3.42"/><line class="cls-13" x1="631.37" y1="336.8" x2="632.63" y2="336.8"/><rect class="cls-16" x="629.7" y="333.61" width="4.6" height="1.12"/><line class="cls-12" x1="631.03" y1="333.18" x2="631.03" y2="334.03"/><line class="cls-12" x1="632.97" y1="333.18" x2="632.97" y2="334.03"/><polygon class="cls-13" points="637.98 334.25 638.62 333.61 639.7 333.26 640.79 334.34 640.43 335.42 639.79 336.06 637.98 334.25"/><rect class="cls-16" x="636.05" y="335.05" width="3.33" height="2.57" transform="translate(-51.04 549.44) rotate(-45)"/><circle class="cls-13" cx="639.55" cy="334.49" r="0.16" transform="translate(-49.2 550.2) rotate(-45)"/><rect class="cls-15" x="715.21" y="290.19" width="28.07" height="20.25"/><rect class="cls-16" x="715.21" y="290.19" width="28.07" height="3.94"/><line class="cls-13" x1="722.29" y1="306.07" x2="724.7" y2="306.07"/><line class="cls-13" x1="722.29" y1="308.25" x2="730.74" y2="308.25"/><line class="cls-13" x1="717.9" y1="297.25" x2="734.12" y2="297.25"/><line class="cls-13" x1="717.9" y1="299.43" x2="728.57" y2="299.43"/><rect class="cls-5" x="717.2" y="305.82" width="2.75" height="2.67" rx="0.25" ry="0.25"/><path class="cls-17" d="M719.71,306.07v2.17h-2.25v-2.17h2.25m0-.5h-2.25a.5.5,0,0,0-.5.5v2.17a.5.5,0,0,0,.5.5h2.25a.5.5,0,0,0,.5-.5v-2.17a.5.5,0,0,0-.5-.5Z"/><rect class="cls-13" x="740.24" y="292.1" width="6.07" height="6.06"/><path class="cls-16" d="M741.08,297.8c.37-.22,1.85-.56,1.88-.71v-.74a1.52,1.52,0,0,1-.22-.57.43.43,0,0,1,0-.49v-.47c0-.48.2-.81.63-.81s.63.33.63.81v.47a.43.43,0,0,1,0,.49,1.53,1.53,0,0,1-.22.57v.74c0,.16,1.47.48,1.84.69Z"/><rect class="cls-15" x="733.33" y="309.33" width="4.6" height="3.42"/><line class="cls-13" x1="735" y1="311.41" x2="736.26" y2="311.41"/><rect class="cls-16" x="733.33" y="308.21" width="4.6" height="1.12"/><line class="cls-12" x1="734.66" y1="307.79" x2="734.66" y2="308.64"/><line class="cls-12" x1="736.6" y1="307.79" x2="736.6" y2="308.64"/><polygon class="cls-13" points="741.61 308.85 742.25 308.21 743.33 307.86 744.42 308.94 744.06 310.03 743.42 310.67 741.61 308.85"/><rect class="cls-16" x="739.68" y="309.65" width="3.33" height="2.57" transform="translate(-2.73 615.28) rotate(-45)"/><circle class="cls-13" cx="743.19" cy="309.09" r="0.16" transform="translate(-0.89 616.04) rotate(-45)"/><rect class="cls-15" x="678.4" y="290.19" width="28.07" height="20.25"/><rect class="cls-16" x="678.4" y="290.19" width="28.07" height="3.94"/><line class="cls-13" x1="685.48" y1="306.07" x2="687.9" y2="306.07"/><line class="cls-13" x1="685.48" y1="308.25" x2="693.94" y2="308.25"/><line class="cls-13" x1="681.09" y1="297.25" x2="697.32" y2="297.25"/><line class="cls-13" x1="681.09" y1="299.43" x2="691.76" y2="299.43"/><rect class="cls-5" x="680.4" y="305.82" width="2.75" height="2.67" rx="0.25" ry="0.25"/><path class="cls-17" d="M682.9,306.07v2.17h-2.25v-2.17h2.25m0-.5h-2.25a.5.5,0,0,0-.5.5v2.17a.5.5,0,0,0,.5.5h2.25a.5.5,0,0,0,.5-.5v-2.17a.5.5,0,0,0-.5-.5Z"/><rect class="cls-13" x="703.44" y="292.1" width="6.07" height="6.06"/><path class="cls-16" d="M704.28,297.8c.37-.22,1.85-.56,1.88-.71v-.74a1.52,1.52,0,0,1-.22-.57.43.43,0,0,1,0-.49v-.47c0-.48.2-.81.63-.81s.63.33.63.81v.47a.43.43,0,0,1,0,.49,1.53,1.53,0,0,1-.22.57v.74c0,.16,1.47.48,1.84.69Z"/><polygon class="cls-13" points="703.72 308.68 704.36 308.04 705.44 307.69 706.53 308.77 706.17 309.85 705.53 310.49 703.72 308.68"/><rect class="cls-16" x="701.79" y="309.48" width="3.33" height="2.57" transform="translate(-13.71 588.43) rotate(-45)"/><circle class="cls-13" cx="705.29" cy="308.92" r="0.16" transform="translate(-11.86 589.2) rotate(-45)"/><rect class="cls-4" x="587.38" y="176.63" width="171.72" height="303.35" transform="translate(1001.54 -344.94) rotate(90)"/><rect class="cls-5" x="490.47" y="430.36" width="365.55" height="7.42"/><rect class="cls-3" x="490.47" y="433.96" width="365.55" height="3.82"/><rect class="cls-4" x="490.47" y="430.36" width="365.55" height="7.42"/><path class="cls-18" d="M834.51,445.21H512A24.3,24.3,0,0,1,501.85,443l-11.38-5.22H856L844.64,443A24.3,24.3,0,0,1,834.51,445.21Z"/><path class="cls-18" d="M700.7,430.36l-2,1.74a3.88,3.88,0,0,1-2.54.86h-45.9a3.88,3.88,0,0,1-2.54-.86l-2-1.74Z"/><line class="cls-4" x1="491.97" y1="445.21" x2="470.47" y2="445.21"/><g class="cls-24"><line class="cls-4" x1="429.49" y1="463.32" x2="477.19" y2="463.32"/><line class="cls-4" x1="425.99" y1="463.32" x2="423.81" y2="463.32"/><rect class="cls-25" x="431.29" y="370.62" width="44.1" height="92.7" rx="5.4" ry="5.4"/><path class="cls-5" d="M434.29,460.92V379a5.42,5.42,0,0,1,5.4-5.4H473a5.34,5.34,0,0,1,2,.39,5.42,5.42,0,0,0-5-3.39h-33.3a5.42,5.42,0,0,0-5.4,5.4v81.9a5.42,5.42,0,0,0,3.39,5A5.34,5.34,0,0,1,434.29,460.92Z"/><rect class="cls-4" x="431.29" y="370.62" width="44.1" height="92.7" rx="5.4" ry="5.4"/><rect class="cls-13" x="434.1" y="383.9" width="38.48" height="64.8"/><polygon class="cls-7" points="455.94 397.97 440.31 397.97 437.7 399.77 437.7 387.5 455.94 387.5 455.94 397.97"/><polygon class="cls-7" points="455.94 430.37 440.31 430.37 437.7 432.17 437.7 419.89 455.94 419.89 455.94 430.37"/><polygon class="cls-7" points="450.74 413.85 466.36 413.85 468.98 415.65 468.98 403.37 450.74 403.37 450.74 413.85"/><path class="cls-13" d="M454.17,407.71h11.37m-11.37,2.47h11.37m-24.41-18.35H452.5m-11.37,2.47H452.5"/><path class="cls-17" d="M443.28,424.12a.9.9,0,0,0,0,1.8.9.9,0,0,0,0-1.8"/><path class="cls-17" d="M446.82,424.16a.9.9,0,0,0,0,1.8.9.9,0,0,0,0-1.8"/><path class="cls-17" d="M450.36,424.16a.9.9,0,0,0,0,1.8.9.9,0,0,0,0-1.8"/><path class="cls-13" d="M449.63,378.72h7.43m0,78.3a3.71,3.71,0,1,1-3.71-3.71A3.71,3.71,0,0,1,457.05,457Z"/><line class="cls-13" x1="447.2" y1="378.72" x2="446.32" y2="378.72"/></g><line class="cls-26" x1="440" y1="18.28" x2="440" y2="501.72"/><line class="cls-4" x1="440" y1="18.28" x2="440" y2="501.72"/><polyline class="cls-27" points="413.68 313.02 108.76 300.13 258.45 225.44"/><polyline class="cls-27" points="421.32 313.02 729.24 300.13 576.56 225.44"/><rect class="cls-28" x="172.08" y="98.99" width="498.42" height="260.52"/><path class="cls-29" d="M666.39,104.69H282.67a1.59,1.59,0,0,0-1.59,1.59v70.66H179.37a1.59,1.59,0,0,0-1.59,1.59v13.74a1.59,1.59,0,0,0,1.59,1.59H281.08V355.4a1.59,1.59,0,0,0,1.59,1.59H666.39A1.59,1.59,0,0,0,668,355.4V106.28A1.59,1.59,0,0,0,666.39,104.69Z"/><rect class="cls-10" x="346.79" y="35.8" width="252.29" height="386.9" rx="1" ry="1" transform="translate(702.2 -243.69) rotate(90)"/><path class="cls-30" d="M658.16,124.36v48.33a1.37,1.37,0,0,1-1.37,1.37H290a1.37,1.37,0,0,1-1.37-1.37V124.36Z"/><path class="cls-31" d="M288.63,125.15V113.5a1.37,1.37,0,0,1,1.37-1.37H656.79a1.37,1.37,0,0,1,1.37,1.37v11.66Z"/><path class="cls-16" d="M288.63,124.36V112.7a1.37,1.37,0,0,1,1.37-1.37H656.79a1.37,1.37,0,0,1,1.37,1.37v11.66Z"/><rect class="cls-29" x="290.22" y="179.88" width="53.65" height="16.45" rx="1" ry="1"/><rect class="cls-32" x="288.63" y="178.29" width="53.65" height="16.45" rx="1" ry="1"/><rect class="cls-29" x="289.72" y="200.69" width="17.4" height="17.4" rx="1" ry="1"/><rect class="cls-29" x="289.72" y="237.07" width="17.4" height="17.4" rx="1" ry="1"/><rect class="cls-29" x="289.72" y="266.72" width="17.4" height="17.4" rx="1" ry="1"/><rect class="cls-29" x="289.72" y="305.28" width="17.4" height="17.4" rx="1" ry="1"/><line class="cls-33" x1="313.66" y1="203.72" x2="346.05" y2="203.72"/><line class="cls-33" x1="313.66" y1="240.09" x2="373.48" y2="240.09"/><line class="cls-33" x1="313.66" y1="269.75" x2="373.48" y2="269.75"/><line class="cls-33" x1="313.66" y1="308.31" x2="352.91" y2="308.31"/><line class="cls-34" x1="288.63" y1="230.62" x2="658.16" y2="230.62"/><line class="cls-34" x1="288.63" y1="260.56" x2="658.16" y2="260.56"/><line class="cls-34" x1="288.63" y1="299.41" x2="658.16" y2="299.41"/><line class="cls-35" x1="380.33" y1="240.09" x2="432.15" y2="240.09"/><line class="cls-35" x1="352.91" y1="203.72" x2="407.24" y2="203.72"/><line class="cls-35" x1="380.33" y1="269.75" x2="432.15" y2="269.75"/><line class="cls-35" x1="359.76" y1="308.31" x2="411.01" y2="308.31"/><line class="cls-36" x1="313.66" y1="212.69" x2="604" y2="212.69"/><line class="cls-36" x1="313.66" y1="249.06" x2="512.65" y2="249.06"/><line class="cls-36" x1="313.66" y1="317.28" x2="576.58" y2="317.28"/><line class="cls-36" x1="313.66" y1="221.65" x2="432.15" y2="221.65"/><line class="cls-36" x1="313.66" y1="278.72" x2="501.51" y2="278.72"/><line class="cls-36" x1="313.66" y1="287.69" x2="612.92" y2="287.69"/><line class="cls-37" x1="320.86" y1="113.8" x2="320.86" y2="121.9"/><line class="cls-37" x1="364.43" y1="113.8" x2="364.43" y2="121.9"/><line class="cls-37" x1="387.7" y1="113.8" x2="387.7" y2="121.9"/><line class="cls-37" x1="410.97" y1="113.8" x2="410.97" y2="121.9"/><line class="cls-37" x1="446.58" y1="113.8" x2="446.58" y2="121.9"/><line class="cls-37" x1="458.92" y1="113.8" x2="458.92" y2="121.9"/><line class="cls-36" x1="296.25" y1="117.85" x2="293.27" y2="117.85"/><line class="cls-36" x1="306.27" y1="117.85" x2="303.3" y2="117.85"/><line class="cls-36" x1="316.56" y1="117.85" x2="313.58" y2="117.85"/><polyline class="cls-36" points="358.46 117.85 356.98 118.91 355.49 117.85"/><polyline class="cls-36" points="426.86 117.85 425.38 118.91 423.89 117.85"/><line class="cls-36" x1="454.23" y1="117.85" x2="451.26" y2="117.85"/><line class="cls-36" x1="335.64" y1="117.85" x2="325.21" y2="117.85"/><rect class="cls-36" x="368.64" y="115.34" width="5.01" height="5.01"/><rect class="cls-36" x="378.71" y="115.34" width="5.01" height="5.01"/><rect class="cls-36" x="391.51" y="115.34" width="5.01" height="5.01"/><rect class="cls-36" x="401.77" y="115.34" width="5.01" height="5.01"/><rect class="cls-36" x="415.49" y="115.34" width="5.01" height="5.01"/><polyline class="cls-36" points="442.95 117.85 441.46 118.91 439.97 117.85"/><rect class="cls-36" x="431.57" y="115.34" width="5.01" height="5.01"/><rect class="cls-36" x="463.5" y="115.34" width="5.01" height="5.01"/><rect class="cls-31" x="193.48" y="293.79" width="64.9" height="46.81"/><line class="cls-38" x1="193.48" y1="302.72" x2="258.38" y2="302.72"/><rect class="cls-39" x="191.89" y="292.21" width="64.9" height="46.81"/><rect class="cls-40" x="191.89" y="292.21" width="64.76" height="9.11"/><line class="cls-41" x1="208.26" y1="328.92" x2="213.84" y2="328.92"/><line class="cls-41" x1="208.26" y1="333.95" x2="227.81" y2="333.95"/><line class="cls-41" x1="198.1" y1="308.53" x2="235.63" y2="308.53"/><line class="cls-41" x1="198.1" y1="313.56" x2="222.78" y2="313.56"/><rect class="cls-3" x="196.83" y="328.67" width="5.71" height="5.53" rx="0.25" ry="0.25"/><path class="cls-3" d="M202.29,328.92v5h-5.21v-5h5.21m0-.5h-5.21a.5.5,0,0,0-.5.5v5a.5.5,0,0,0,.5.5h5.21a.5.5,0,0,0,.5-.5v-5a.5.5,0,0,0-.5-.5Z"/><g class="cls-42"><rect class="cls-16" x="250.57" y="297.41" width="14.03" height="14.02"/></g><g class="cls-42"><polygon class="cls-16" points="234.58 334.66 234.58 337.26 234.58 345.17 245.22 345.17 245.22 337.26 245.22 334.66 234.58 334.66"/></g><polygon class="cls-31" points="257.72 333.85 255.21 334.66 253.73 336.14 248.29 341.58 252.49 345.78 257.93 340.34 259.41 338.86 260.22 336.35 257.72 333.85"/><rect class="cls-30" x="249.78" y="296.61" width="14.03" height="14.02"/><path class="cls-43" d="M251.72,309.79c.86-.5,4.27-1.29,4.35-1.65v-1.72a3.53,3.53,0,0,1-.51-1.31,1,1,0,0,1-.11-1.13v-1.08c0-1.11.47-1.88,1.45-1.88s1.45.76,1.45,1.88V304a1,1,0,0,1-.11,1.13,3.54,3.54,0,0,1-.51,1.31v1.72c.08.36,3.41,1.11,4.25,1.61Z"/><rect class="cls-44" x="233.79" y="336.47" width="10.64" height="7.91"/><line class="cls-6" x1="237.65" y1="341.26" x2="240.57" y2="341.26"/><rect class="cls-45" x="233.79" y="333.87" width="10.64" height="2.6"/><line class="cls-6" x1="236.86" y1="332.88" x2="236.86" y2="334.85"/><line class="cls-6" x1="241.36" y1="332.88" x2="241.36" y2="334.85"/><polygon class="cls-30" points="252.94 335.35 254.42 333.87 256.93 333.05 259.43 335.56 258.61 338.06 257.13 339.55 252.94 335.35"/><rect class="cls-46" x="248.47" y="337.2" width="7.69" height="5.93" transform="translate(-166.63 278.05) rotate(-45)"/><circle class="cls-47" cx="256.58" cy="335.9" r="0.36" transform="translate(-162.37 279.81) rotate(-45)"/><line class="cls-35" x1="296.52" y1="134.12" x2="586.86" y2="134.12"/><line class="cls-35" x1="296.52" y1="152.06" x2="483.46" y2="152.06"/><line class="cls-35" x1="296.52" y1="143.09" x2="534.99" y2="143.09"/><line class="cls-48" x1="487" y1="146.16" x2="487" y2="152.06"/><path class="cls-10" d="M177.2,175.35H279.49a0,0,0,0,1,0,0v16.91a0,0,0,0,1,0,0H177.2a1,1,0,0,1-1-1V176.35A1,1,0,0,1,177.2,175.35Z"/><line class="cls-35" x1="195.17" y1="115.9" x2="215.05" y2="115.9"/><line class="cls-35" x1="195.17" y1="132.88" x2="215.05" y2="132.88"/><line class="cls-35" x1="195.17" y1="149.86" x2="215.05" y2="149.86"/><line class="cls-35" x1="195.17" y1="166.83" x2="215.05" y2="166.83"/><line class="cls-35" x1="195.17" y1="183.81" x2="215.05" y2="183.81"/><line class="cls-35" x1="195.17" y1="200.79" x2="215.05" y2="200.79"/><line class="cls-35" x1="195.17" y1="217.76" x2="215.05" y2="217.76"/><circle class="cls-49" cx="270.7" cy="132.88" r="3.58"/><circle class="cls-49" cx="270.7" cy="149.86" r="3.58"/><circle class="cls-49" cx="270.7" cy="183.81" r="3.58"/><circle class="cls-49" cx="270.7" cy="200.79" r="3.58"/><rect class="cls-35" x="181.89" y="112.32" width="7.16" height="7.16"/><rect class="cls-35" x="181.89" y="129.3" width="7.16" height="7.16"/><rect class="cls-35" x="181.89" y="146.27" width="7.16" height="7.16"/><rect class="cls-35" x="181.89" y="163.25" width="7.16" height="7.16"/><rect class="cls-35" x="181.89" y="180.23" width="7.16" height="7.16"/><rect class="cls-35" x="181.89" y="197.2" width="7.16" height="7.16"/><rect class="cls-35" x="181.89" y="214.18" width="7.16" height="7.16"/><circle class="cls-50" cx="670.5" cy="98.99" r="5.71"/><line class="cls-12" x1="668.88" y1="97.36" x2="672.13" y2="100.62"/><line class="cls-12" x1="668.88" y1="100.62" x2="672.13" y2="97.36"/><rect class="cls-51" x="288.63" y="235.98" width="17.4" height="17.4" rx="1" ry="1"/><path class="cls-10" d="M291,252.32c1.06-.62,5.3-1.6,5.4-2.05v-2.13a4.37,4.37,0,0,1-.63-1.63,1.24,1.24,0,0,1-.13-1.4v-1.34c0-1.38.58-2.33,1.79-2.33s1.79.95,1.79,2.33v1.34a1.24,1.24,0,0,1-.13,1.4,4.39,4.39,0,0,1-.63,1.63v2.13c.1.45,4.23,1.38,5.27,2Z"/><rect class="cls-52" x="288.63" y="199.6" width="17.4" height="17.4" rx="1" ry="1"/><path class="cls-10" d="M291,215.94c1.06-.62,5.3-1.6,5.4-2.05v-2.13a4.37,4.37,0,0,1-.63-1.63,1.24,1.24,0,0,1-.13-1.4v-1.34c0-1.38.58-2.33,1.79-2.33s1.79.95,1.79,2.33v1.34a1.24,1.24,0,0,1-.13,1.4,4.39,4.39,0,0,1-.63,1.63v2.13c.1.45,4.23,1.38,5.27,2Z"/><rect class="cls-51" x="288.63" y="304.2" width="17.4" height="17.4" rx="1" ry="1"/><path class="cls-10" d="M291,320.54c1.06-.62,5.3-1.6,5.4-2.05v-2.13a4.37,4.37,0,0,1-.63-1.63,1.24,1.24,0,0,1-.13-1.4V312c0-1.38.58-2.33,1.79-2.33s1.79.95,1.79,2.33v1.34a1.24,1.24,0,0,1-.13,1.4,4.39,4.39,0,0,1-.63,1.63v2.13c.1.45,4.23,1.38,5.27,2Z"/><rect class="cls-52" x="288.63" y="265.63" width="17.4" height="17.4" rx="1" ry="1"/><path class="cls-10" d="M291,282c1.06-.62,5.3-1.6,5.4-2.05v-2.13a4.37,4.37,0,0,1-.63-1.63,1.24,1.24,0,0,1-.13-1.4v-1.34c0-1.38.58-2.33,1.79-2.33s1.79.95,1.79,2.33v1.34a1.24,1.24,0,0,1-.13,1.4,4.39,4.39,0,0,1-.63,1.63v2.13c.1.45,4.23,1.38,5.27,2Z"/><path class="cls-5" d="M295.86,189.13a2.69,2.69,0,0,1,0-5.38,2.71,2.71,0,0,1,2,.81l-.59.68a2.07,2.07,0,0,0-1.46-.65,1.86,1.86,0,0,0,0,3.7,2,2,0,0,0,1.49-.68l.59.59A2.68,2.68,0,0,1,295.86,189.13Z"/><path class="cls-5" d="M302,189.13a2.69,2.69,0,1,1,2.73-2.7A2.64,2.64,0,0,1,302,189.13Zm0-4.54a1.76,1.76,0,0,0-1.75,1.84,1.78,1.78,0,0,0,1.77,1.86,1.76,1.76,0,0,0,1.75-1.84A1.78,1.78,0,0,0,302,184.59Z"/><path class="cls-5" d="M309.12,187.76h0l-1.63-2.44V189h-.9v-5.2h1l1.58,2.46,1.58-2.46h1V189h-.91v-3.73Z"/><path class="cls-5" d="M316.31,187.76h0l-1.63-2.44V189h-.9v-5.2h1l1.58,2.46,1.58-2.46h1V189h-.91v-3.73Z"/><path class="cls-5" d="M324.79,184.66h-2.94V186h2.61v.82h-2.61v1.4h3V189h-3.89v-5.2h3.86Z"/><path class="cls-5" d="M330.29,183.84h.9V189h-.77l-2.87-3.7V189h-.9v-5.2h.85l2.79,3.6Z"/><path class="cls-5" d="M335.46,189h-.92v-4.35h-1.65v-.85h4.22v.85h-1.65Z"/><line class="cls-4" x1="243.94" y1="471.72" x2="202.25" y2="471.72"/><line class="cls-4" x1="247.13" y1="471.72" x2="247.87" y2="471.72"/><line class="cls-4" x1="198.56" y1="471.72" x2="197.82" y2="471.72"/><ellipse class="cls-20" cx="223.35" cy="425.7" rx="22.78" ry="1.14"/><path class="cls-5" d="M199.82,406l5.44,65.75c0,.63,8.1,1.14,18.09,1.14s18.09-.51,18.09-1.14L246.88,406Z"/><path class="cls-53" d="M200.09,409.31l-.28-3.34h47.06l-5.44,65.75c0,.63-8.1,1.14-18.09,1.14s-18.09-.51-18.09-1.14v-3c0,.08.47.15,1.3.22a32.17,32.17,0,0,0,34.55-29.5l2.49-30.13Z"/><path class="cls-4" d="M199.82,406l5.44,65.75c0,.63,8.1,1.14,18.09,1.14s18.09-.51,18.09-1.14L246.88,406Z"/><line class="cls-13" x1="204.36" y1="412.55" x2="208.71" y2="465.15"/><path class="cls-21" d="M246.13,425.7c0,.63-10.2,1.14-22.78,1.14s-22.78-.51-22.78-1.14l2.17,26.3c0,.63,9.23,1.14,20.61,1.14S244,452.63,244,452Z"/><line class="cls-13" x1="204.38" y1="430.96" x2="205.69" y2="446.74"/><polygon class="cls-20" points="245.63 401.72 201.06 401.72 202.56 396.22 244.13 396.22 245.63 401.72"/><path class="cls-20" d="M199.28,401.72h48.13a.5.5,0,0,1,.5.5v1.62a0,0,0,0,1,0,0H198.78a0,0,0,0,1,0,0v-1.62A.5.5,0,0,1,199.28,401.72Z"/><path class="cls-20" d="M198.47,403.85h49.75a1,1,0,0,1,1,1V406a0,0,0,0,1,0,0H197.47a0,0,0,0,1,0,0v-1.12A1,1,0,0,1,198.47,403.85Z"/><line class="cls-20" x1="196.88" y1="405.97" x2="249.81" y2="405.97"/><path class="cls-54" d="M204.49,377.85c0-7.55,6.45-6.8,6.45-14"/><path class="cls-54" d="M207.72,386.86c0-7.55,6.45-6.8,6.45-14"/><circle class="cls-3" cx="79" cy="117.69" r="53.81"/><circle class="cls-21" cx="70" cy="108.69" r="53.81"/><path class="cls-5" d="M70,158a49.31,49.31,0,1,1,49.31-49.31A49.37,49.37,0,0,1,70,158Z"/><path class="cls-3" d="M26.69,114.69a49.28,49.28,0,0,1,81-37.72,49.28,49.28,0,1,0-69.44,69.44A49.08,49.08,0,0,1,26.69,114.69Z"/><path class="cls-4" d="M70,158a49.31,49.31,0,1,1,49.31-49.31A49.37,49.37,0,0,1,70,158Z"/><line class="cls-4" x1="70" y1="108.69" x2="90.98" y2="72.35"/><line class="cls-4" x1="70" y1="108.69" x2="82.59" y2="130.49"/><path class="cls-17" d="M70,66a.75.75,0,0,0,0,1.5A.75.75,0,0,0,70,66Z"/><path class="cls-17" d="M48.63,71.72a.75.75,0,0,0,.75,1.3A.75.75,0,0,0,48.63,71.72Z"/><path class="cls-17" d="M33,87.36a.75.75,0,0,0,1.3.75A.75.75,0,0,0,33,87.36Z"/><path class="cls-17" d="M27.29,108.71a.75.75,0,0,0,1.5,0A.75.75,0,0,0,27.29,108.71Z"/><path class="cls-17" d="M33,130.06a.75.75,0,0,0,1.3-.75A.75.75,0,0,0,33,130.06Z"/><path class="cls-17" d="M48.67,145.69a.75.75,0,0,0,.75-1.3A.75.75,0,0,0,48.67,145.69Z"/><path class="cls-17" d="M70,151.4a.75.75,0,0,0,0-1.5A.75.75,0,0,0,70,151.4Z"/><path class="cls-17" d="M91.37,145.66a.75.75,0,0,0-.75-1.3A.75.75,0,0,0,91.37,145.66Z"/><path class="cls-17" d="M107,130a.75.75,0,0,0-1.3-.75A.75.75,0,0,0,107,130Z"/><path class="cls-17" d="M112.71,108.67a.75.75,0,0,0-1.5,0A.75.75,0,0,0,112.71,108.67Z"/><path class="cls-17" d="M107,87.32a.75.75,0,0,0-1.3.75A.75.75,0,0,0,107,87.32Z"/><path class="cls-17" d="M91.33,71.69a.75.75,0,0,0-.75,1.3A.75.75,0,0,0,91.33,71.69Z"/><line class="cls-4" x1="467.94" y1="501.72" x2="419.54" y2="501.72"/><line class="cls-4" x1="407.91" y1="501.72" x2="400.33" y2="501.72"/><line class="cls-4" x1="475.92" y1="501.72" x2="479.67" y2="501.72"/><line class="cls-4" x1="467.94" y1="18.28" x2="419.54" y2="18.28"/><line class="cls-4" x1="407.91" y1="18.28" x2="400.33" y2="18.28"/><line class="cls-4" x1="475.92" y1="18.28" x2="479.67" y2="18.28"/><line class="cls-4" x1="288.26" y1="463.12" x2="379.48" y2="463.12"/><line class="cls-4" x1="383.08" y1="463.12" x2="385.57" y2="463.12"/><polygon class="cls-5" points="374.51 463.12 383.08 460.67 374.51 458.21 301.93 458.21 301.93 463.12 374.51 463.12"/><rect class="cls-5" x="295.09" y="458.21" width="6.83" height="4.91"/><polygon class="cls-3" points="295.09 460.37 382.05 460.37 374.51 463.12 295.09 463.12 295.09 460.37"/><rect class="cls-4" x="295.09" y="458.21" width="6.83" height="4.91"/><path class="cls-3" d="M290.06,460.67h0a2.46,2.46,0,0,1,2.46-2.46h2.58v4.91h-2.58A2.46,2.46,0,0,1,290.06,460.67Z"/><path class="cls-5" d="M292.52,458.21a2.45,2.45,0,0,0-2.24,3.46,2.45,2.45,0,0,1,2.24-1.46h2.58v-2Z"/><polygon class="cls-4" points="374.51 463.12 383.08 460.67 374.51 458.21 301.93 458.21 301.93 463.12 374.51 463.12"/><path class="cls-4" d="M290.06,460.67h0a2.46,2.46,0,0,1,2.46-2.46h2.58v4.91h-2.58A2.46,2.46,0,0,1,290.06,460.67Z"/><line class="cls-4" x1="374.51" y1="463.12" x2="374.51" y2="460.67"/><line class="cls-4" x1="814.51" y1="445.21" x2="836.02" y2="445.21"/></g></g></svg>