<svg id="Artwork" xmlns="http://www.w3.org/2000/svg" xmlns:xlink="http://www.w3.org/1999/xlink" viewBox="0 0 1440 734"><defs><style>.cls-1,.cls-11,.cls-4,.cls-6{fill:none;}.cls-2{opacity:0.4;}.cls-3{clip-path:url(#clip-path);}.cls-10,.cls-11,.cls-4,.cls-5,.cls-6,.cls-8{stroke:#fff;stroke-linecap:round;stroke-linejoin:round;}.cls-10,.cls-5,.cls-7,.cls-8{fill:#fff;}.cls-6,.cls-8{stroke-width:0.5px;}.cls-9{clip-path:url(#clip-path-2);}.cls-10,.cls-11{stroke-width:0.92px;}.cls-12{clip-path:url(#clip-path-3);}.cls-13{clip-path:url(#clip-path-4);}</style><clipPath id="clip-path"><path class="cls-1" d="M251.79,603.75a132.27,132.27,0,1,1-.38-203.81"/></clipPath><clipPath id="clip-path-2"><rect class="cls-1" x="167.27" y="383" width="261.11" height="241"/></clipPath><clipPath id="clip-path-3"><path class="cls-1" d="M1188.21,603.75a132.27,132.27,0,1,0,.38-203.81"/></clipPath><clipPath id="clip-path-4"><rect class="cls-1" x="1011.62" y="383" width="261.11" height="241" transform="translate(2284.34 1007) rotate(-180)"/></clipPath></defs><title>LKArtboard 6.1</title><g class="cls-2"><g class="cls-3"><rect class="cls-4" x="12.45" y="413.37" width="397" height="190.38"/><rect class="cls-4" x="12.45" y="400.26" width="397" height="13.11"/><rect class="cls-5" x="309.39" y="404.77" width="4.07" height="4.07"/><circle class="cls-5" cx="341.29" cy="406.81" r="2.04"/><circle class="cls-4" cx="402.35" cy="406.81" r="3.4"/><circle class="cls-5" cx="382.45" cy="406.81" r="2.04"/><circle class="cls-5" cx="371.14" cy="406.81" r="2.04"/><circle class="cls-5" cx="359.83" cy="406.81" r="2.04"/><line class="cls-6" x1="391.72" y1="404.1" x2="391.72" y2="409.53"/><rect class="cls-5" x="327.94" y="404.77" width="4.07" height="4.07"/><line class="cls-6" x1="350.56" y1="404.1" x2="350.56" y2="409.53"/><rect class="cls-5" x="298.08" y="404.77" width="4.07" height="4.07"/><line class="cls-6" x1="320.7" y1="404.1" x2="320.7" y2="409.53"/><polygon class="cls-7" points="19.98 409.94 19.97 409.35 19.97 409.35 19.98 406.79 19.98 404.29 19.98 403.7 18.17 404.74 18.17 408.9 19.98 409.94 19.98 409.93 19.98 409.94"/><polygon class="cls-7" points="25.37 408.9 25.37 406.82 24.87 407.11 22.68 408.38 20.48 409.64 19.98 409.93 19.98 409.94 21.77 410.98 25.37 408.9"/><polygon class="cls-7" points="20.48 403.99 22.68 405.26 24.87 406.53 25.37 406.81 25.37 404.74 21.77 402.67 19.98 403.7 20.48 403.99"/><line class="cls-4" x1="29.03" y1="406.82" x2="51.72" y2="406.82"/><rect class="cls-4" x="15.25" y="418.08" width="8.14" height="181.84"/><line class="cls-4" x1="18.2" y1="422.06" x2="20.44" y2="422.06"/><line class="cls-4" x1="19.32" y1="423.18" x2="19.32" y2="420.93"/><rect class="cls-4" x="123.39" y="418.08" width="137.14" height="181.84"/><rect class="cls-4" x="123.39" y="510.98" width="137.14" height="8.14"/><line class="cls-6" x1="176.64" y1="514.81" x2="207.27" y2="514.81"/><rect class="cls-4" x="123.39" y="426.12" width="137.14" height="8.27"/><rect class="cls-4" x="123.39" y="518.95" width="137.14" height="8.27"/><line class="cls-6" x1="181.97" y1="430.26" x2="201.94" y2="430.26"/><rect class="cls-6" x="253.17" y="427.64" width="5.23" height="5.23"/><line class="cls-6" x1="255.23" y1="430.26" x2="256.33" y2="430.26"/><rect class="cls-4" x="123.39" y="418.08" width="137.14" height="181.84"/><rect class="cls-4" x="264.46" y="418.08" width="92.13" height="181.84"/><rect class="cls-4" x="264.46" y="426.12" width="92.13" height="8.27"/><line class="cls-6" x1="277.26" y1="430.26" x2="297.23" y2="430.26"/><line class="cls-6" x1="159.18" y1="523.09" x2="179.15" y2="523.09"/><line class="cls-6" x1="335.99" y1="430.26" x2="323.82" y2="430.26"/><line class="cls-6" x1="243.77" y1="523.09" x2="231.6" y2="523.09"/><rect class="cls-6" x="349.23" y="427.64" width="5.23" height="5.23"/><line class="cls-6" x1="351.3" y1="430.26" x2="352.4" y2="430.26"/><rect class="cls-4" x="264.46" y="418.08" width="92.13" height="181.84"/><rect class="cls-4" x="27.32" y="418.08" width="92.13" height="181.84"/><rect class="cls-4" x="27.32" y="426.12" width="92.13" height="8.27"/><line class="cls-4" x1="73.39" y1="426.12" x2="73.39" y2="599.92"/><line class="cls-4" x1="310.52" y1="426.19" x2="310.52" y2="599.92"/><line class="cls-6" x1="39.4" y1="430.26" x2="59.37" y2="430.26"/><line class="cls-6" x1="99.58" y1="430.26" x2="87.41" y2="430.26"/><rect class="cls-6" x="112.1" y="427.64" width="5.23" height="5.23"/><line class="cls-6" x1="114.17" y1="430.26" x2="115.26" y2="430.26"/><rect class="cls-4" x="27.32" y="418.08" width="92.13" height="181.84"/><line class="cls-4" x1="214.46" y1="511.59" x2="214.46" y2="599.92"/><rect class="cls-4" x="360.52" y="426.12" width="46.13" height="8.27"/><line class="cls-4" x1="378.05" y1="430.26" x2="389.04" y2="430.26"/><rect class="cls-4" x="360.52" y="417.99" width="46.13" height="181.93"/><rect class="cls-4" x="360.52" y="426.12" width="46.13" height="8.27"/><rect class="cls-4" x="360.52" y="417.92" width="46.13" height="8.27"/><line class="cls-6" x1="378.05" y1="430.26" x2="389.04" y2="430.26"/><line class="cls-6" x1="375.3" y1="422.06" x2="391.78" y2="422.06"/><rect class="cls-4" x="360.52" y="417.99" width="46.13" height="181.93"/><rect class="cls-4" x="27.32" y="417.99" width="92.13" height="8.14"/><rect class="cls-4" x="123.39" y="417.99" width="137.14" height="8.14"/><line class="cls-6" x1="176.64" y1="421.81" x2="207.27" y2="421.81"/><rect class="cls-4" x="264.46" y="417.99" width="92.13" height="8.14"/><polyline class="cls-6" points="165.02 449.07 165.02 465.84 163.74 465.84"/><polyline class="cls-6" points="158.85 465.84 126.65 465.84 126.65 438.17 165.02 438.17 165.02 440.77"/><polygon class="cls-8" points="160.88 440.77 160.88 443.55 126.65 443.55 126.65 438.17 165.02 438.17 165.02 440.77 160.88 440.77"/><line class="cls-6" x1="136.33" y1="459.88" x2="139.63" y2="459.88"/><line class="cls-6" x1="136.33" y1="462.85" x2="147.89" y2="462.85"/><line class="cls-6" x1="130.33" y1="447.82" x2="152.51" y2="447.82"/><line class="cls-6" x1="130.33" y1="450.79" x2="144.92" y2="450.79"/><rect class="cls-7" x="129.47" y="459.63" width="3.58" height="3.47" rx="0.25" ry="0.25"/><path class="cls-7" d="M132.8,459.88v3h-3.08v-3h3.08m0-.5h-3.08a.5.5,0,0,0-.5.5v3a.5.5,0,0,0,.5.5h3.08a.5.5,0,0,0,.5-.5v-3a.5.5,0,0,0-.5-.5Z"/><rect class="cls-6" x="160.88" y="440.77" width="8.29" height="8.29"/><path class="cls-8" d="M162,448.56c.51-.3,2.53-.76,2.57-1v-1a2.08,2.08,0,0,1-.3-.78.59.59,0,0,1-.06-.67v-.64c0-.66.28-1.11.86-1.11s.86.45.86,1.11v.64a.59.59,0,0,1-.06.67,2.09,2.09,0,0,1-.3.78v1c0,.21,2,.66,2.51.95Z"/><polygon class="cls-6" points="161.26 463.44 162.14 462.56 163.62 462.08 165.1 463.56 164.62 465.04 163.74 465.92 161.26 463.44"/><rect class="cls-8" x="158.62" y="464.53" width="4.55" height="3.51" transform="translate(-282.59 250.34) rotate(-45)"/><circle class="cls-6" cx="163.42" cy="463.76" r="0.21" transform="translate(-280.07 251.39) rotate(-45)"/><line class="cls-6" x1="206.18" y1="465.84" x2="203.32" y2="465.84"/><line class="cls-6" x1="210.63" y1="449.07" x2="210.63" y2="462.31"/><polyline class="cls-6" points="197.03 465.84 172.26 465.84 172.26 438.17 210.63 438.17 210.63 440.76"/><polygon class="cls-8" points="206.48 440.77 206.48 443.55 172.26 443.55 172.26 438.17 210.63 438.17 210.63 440.77 206.48 440.77"/><line class="cls-6" x1="181.94" y1="459.88" x2="185.24" y2="459.88"/><line class="cls-6" x1="181.94" y1="462.85" x2="193.49" y2="462.85"/><line class="cls-6" x1="175.93" y1="447.82" x2="198.12" y2="447.82"/><line class="cls-6" x1="175.93" y1="450.79" x2="190.52" y2="450.79"/><rect class="cls-7" x="175.08" y="459.63" width="3.58" height="3.47" rx="0.25" ry="0.25"/><path class="cls-7" d="M178.41,459.88v3h-3.08v-3h3.08m0-.5h-3.08a.5.5,0,0,0-.5.5v3a.5.5,0,0,0,.5.5h3.08a.5.5,0,0,0,.5-.5v-3a.5.5,0,0,0-.5-.5Z"/><rect class="cls-6" x="206.48" y="440.77" width="8.29" height="8.29"/><path class="cls-8" d="M207.63,448.56c.51-.3,2.53-.76,2.57-1v-1a2.08,2.08,0,0,1-.3-.78.59.59,0,0,1-.06-.67v-.64c0-.66.28-1.11.86-1.11s.86.45.86,1.11v.64a.59.59,0,0,1-.06.67,2.09,2.09,0,0,1-.3.78v1c0,.21,2,.66,2.51.95Z"/><rect class="cls-6" x="197.03" y="464.33" width="6.29" height="4.68"/><line class="cls-6" x1="199.31" y1="467.17" x2="201.04" y2="467.17"/><rect class="cls-8" x="197.03" y="462.8" width="6.29" height="1.54"/><line class="cls-6" x1="198.85" y1="462.22" x2="198.85" y2="463.38"/><line class="cls-6" x1="201.5" y1="462.22" x2="201.5" y2="463.38"/><polygon class="cls-6" points="208.35 463.68 209.22 462.8 210.71 462.32 212.19 463.8 211.71 465.28 210.83 466.16 208.35 463.68"/><rect class="cls-8" x="205.71" y="464.77" width="4.55" height="3.51" transform="translate(-268.96 283.71) rotate(-45)"/><circle class="cls-6" cx="210.5" cy="464" r="0.21" transform="translate(-266.44 284.75) rotate(-45)"/><polyline class="cls-6" points="108.02 465.84 76.94 465.84 76.94 438.17 115.31 438.17 115.31 440.76"/><polyline class="cls-6" points="115.31 449.07 115.31 465.84 114.31 465.84"/><polygon class="cls-8" points="111.16 440.77 111.16 443.55 76.94 443.55 76.94 438.17 115.31 438.17 115.31 440.77 111.16 440.77"/><line class="cls-6" x1="86.62" y1="459.88" x2="89.92" y2="459.88"/><line class="cls-6" x1="86.62" y1="462.85" x2="98.18" y2="462.85"/><line class="cls-6" x1="80.62" y1="447.82" x2="102.8" y2="447.82"/><line class="cls-6" x1="80.62" y1="450.79" x2="95.2" y2="450.79"/><path class="cls-7" d="M83.09,459.88v3H80v-3h3.08m0-.5H80a.5.5,0,0,0-.5.5v3a.5.5,0,0,0,.5.5h3.08a.5.5,0,0,0,.5-.5v-3a.5.5,0,0,0-.5-.5Z"/><rect class="cls-6" x="111.16" y="440.77" width="8.29" height="8.29"/><path class="cls-8" d="M112.31,448.56c.51-.3,2.53-.76,2.57-1v-1a2.08,2.08,0,0,1-.3-.78.59.59,0,0,1-.06-.67v-.64c0-.66.28-1.11.86-1.11s.86.45.86,1.11v.64a.59.59,0,0,1-.06.67,2.09,2.09,0,0,1-.3.78v1c0,.21,2,.66,2.51.95Z"/><rect class="cls-6" x="108.02" y="464.06" width="6.29" height="4.68"/><line class="cls-6" x1="110.3" y1="466.89" x2="112.03" y2="466.89"/><rect class="cls-8" x="108.02" y="462.53" width="6.29" height="1.54"/><line class="cls-6" x1="109.84" y1="461.94" x2="109.84" y2="463.11"/><line class="cls-6" x1="112.49" y1="461.94" x2="112.49" y2="463.11"/><polyline class="cls-6" points="115.31 483.79 115.31 500.56 76.94 500.56 76.94 472.89 115.31 472.89 115.31 475.5"/><polygon class="cls-8" points="111.16 475.49 111.16 478.27 76.94 478.27 76.94 472.89 115.31 472.89 115.31 475.49 111.16 475.49"/><line class="cls-6" x1="86.62" y1="494.6" x2="89.92" y2="494.6"/><line class="cls-6" x1="86.62" y1="497.57" x2="98.18" y2="497.57"/><line class="cls-6" x1="80.62" y1="482.54" x2="102.8" y2="482.54"/><line class="cls-6" x1="80.62" y1="485.51" x2="95.2" y2="485.51"/><rect class="cls-7" x="79.76" y="494.35" width="3.58" height="3.47" rx="0.25" ry="0.25"/><path class="cls-7" d="M83.09,494.6v3H80v-3h3.08m0-.5H80a.5.5,0,0,0-.5.5v3a.5.5,0,0,0,.5.5h3.08a.5.5,0,0,0,.5-.5v-3a.5.5,0,0,0-.5-.5Z"/><rect class="cls-6" x="111.16" y="475.49" width="8.29" height="8.29"/><path class="cls-8" d="M112.31,483.28c.51-.3,2.53-.76,2.57-1v-1a2.08,2.08,0,0,1-.3-.78.59.59,0,0,1-.06-.67v-.64c0-.66.28-1.11.86-1.11s.86.45.86,1.11v.64a.59.59,0,0,1-.06.67,2.09,2.09,0,0,1-.3.78v1c0,.21,2,.66,2.51.95Z"/><line class="cls-4" x1="29.66" y1="422.06" x2="31.53" y2="422.06"/><line class="cls-4" x1="125.73" y1="422.06" x2="127.6" y2="422.06"/><line class="cls-4" x1="266.8" y1="422.06" x2="268.66" y2="422.06"/><line class="cls-4" x1="362.86" y1="422.06" x2="364.73" y2="422.06"/><line class="cls-6" x1="295.2" y1="421.81" x2="325.84" y2="421.81"/><line class="cls-6" x1="58.07" y1="421.81" x2="88.71" y2="421.81"/><polyline class="cls-6" points="248.42 557.85 218.01 557.85 218.01 530.17 256.38 530.17 256.38 532.79"/><polyline class="cls-6" points="256.38 541.06 256.38 557.85 255.6 557.85"/><polygon class="cls-8" points="252.23 532.78 252.23 535.56 218.01 535.56 218.01 530.17 256.38 530.17 256.38 532.79 252.23 532.78"/><line class="cls-6" x1="227.69" y1="551.88" x2="230.99" y2="551.88"/><line class="cls-6" x1="227.69" y1="554.85" x2="239.24" y2="554.85"/><line class="cls-6" x1="221.68" y1="539.82" x2="243.87" y2="539.82"/><line class="cls-6" x1="221.68" y1="542.8" x2="236.27" y2="542.8"/><rect class="cls-7" x="220.83" y="551.63" width="3.58" height="3.47" rx="0.25" ry="0.25"/><path class="cls-7" d="M224.16,551.88v3h-3.08v-3h3.08m0-.5h-3.08a.5.5,0,0,0-.5.5v3a.5.5,0,0,0,.5.5h3.08a.5.5,0,0,0,.5-.5v-3a.5.5,0,0,0-.5-.5Z"/><polyline class="cls-6" points="255.6 557.85 255.6 557.14 253.5 555.04 250.52 555.04 248.42 557.14 248.42 560.12 250.52 562.22 253.5 562.22 255.6 560.12 255.6 557.85"/><rect class="cls-6" x="252.23" y="532.78" width="8.29" height="8.29"/><path class="cls-8" d="M253.38,540.57c.51-.3,2.53-.76,2.57-1v-1a2.08,2.08,0,0,1-.3-.78.59.59,0,0,1-.06-.67v-.64c0-.66.28-1.11.86-1.11s.86.45.86,1.11v.64a.59.59,0,0,1-.06.67,2.09,2.09,0,0,1-.3.78v1c0,.21,2,.66,2.51.95Z"/><line class="cls-6" x1="250.7" y1="557.32" x2="253.32" y2="559.93"/><line class="cls-6" x1="250.7" y1="559.93" x2="253.32" y2="557.32"/><polyline class="cls-6" points="306.67 483.79 306.67 500.56 268.3 500.56 268.3 472.89 306.67 472.89 306.67 475.5"/><polygon class="cls-8" points="302.52 475.49 302.52 478.27 268.3 478.27 268.3 472.89 306.67 472.89 306.67 475.49 302.52 475.49"/><line class="cls-6" x1="277.98" y1="494.6" x2="281.28" y2="494.6"/><line class="cls-6" x1="277.98" y1="497.57" x2="289.53" y2="497.57"/><line class="cls-6" x1="271.97" y1="482.54" x2="294.16" y2="482.54"/><line class="cls-6" x1="271.97" y1="485.51" x2="286.56" y2="485.51"/><rect class="cls-7" x="271.12" y="494.35" width="3.58" height="3.47" rx="0.25" ry="0.25"/><path class="cls-7" d="M274.45,494.6v3h-3.08v-3h3.08m0-.5h-3.08a.5.5,0,0,0-.5.5v3a.5.5,0,0,0,.5.5h3.08a.5.5,0,0,0,.5-.5v-3a.5.5,0,0,0-.5-.5Z"/><rect class="cls-6" x="302.52" y="475.49" width="8.29" height="8.29"/><path class="cls-8" d="M303.67,483.28c.51-.3,2.53-.76,2.57-1v-1a2.08,2.08,0,0,1-.3-.78.59.59,0,0,1-.06-.67v-.64c0-.66.28-1.11.86-1.11s.86.45.86,1.11v.64a.59.59,0,0,1-.06.67,2.09,2.09,0,0,1-.3.78v1c0,.21,2,.66,2.51.95Z"/><polyline class="cls-6" points="345.13 465.84 314.05 465.84 314.05 438.17 352.42 438.17 352.42 440.76"/><polyline class="cls-6" points="352.42 449.07 352.42 465.84 351.42 465.84"/><polygon class="cls-8" points="348.27 440.77 348.27 443.55 314.05 443.55 314.05 438.17 352.42 438.17 352.42 440.77 348.27 440.77"/><line class="cls-6" x1="323.73" y1="459.88" x2="327.03" y2="459.88"/><line class="cls-6" x1="323.73" y1="462.85" x2="335.28" y2="462.85"/><line class="cls-6" x1="317.73" y1="447.82" x2="339.91" y2="447.82"/><line class="cls-6" x1="317.73" y1="450.79" x2="332.31" y2="450.79"/><path class="cls-7" d="M320.2,459.88v3h-3.08v-3h3.08m0-.5h-3.08a.5.5,0,0,0-.5.5v3a.5.5,0,0,0,.5.5h3.08a.5.5,0,0,0,.5-.5v-3a.5.5,0,0,0-.5-.5Z"/><rect class="cls-6" x="348.27" y="440.77" width="8.29" height="8.29"/><path class="cls-8" d="M349.42,448.56c.51-.3,2.53-.76,2.57-1v-1a2.08,2.08,0,0,1-.3-.78.59.59,0,0,1-.06-.67v-.64c0-.66.28-1.11.86-1.11s.86.45.86,1.11v.64a.59.59,0,0,1-.06.67,2.09,2.09,0,0,1-.3.78v1c0,.21,2,.66,2.51.95Z"/><rect class="cls-6" x="345.13" y="464.06" width="6.29" height="4.68"/><line class="cls-6" x1="347.41" y1="466.89" x2="349.14" y2="466.89"/><rect class="cls-8" x="345.13" y="462.53" width="6.29" height="1.54"/><line class="cls-6" x1="346.94" y1="461.94" x2="346.94" y2="463.11"/><line class="cls-6" x1="349.6" y1="461.94" x2="349.6" y2="463.11"/><polyline class="cls-6" points="256.35 449.07 256.35 465.84 255.07 465.84"/><polyline class="cls-6" points="250.19 465.84 217.99 465.84 217.99 438.17 256.35 438.17 256.35 440.77"/><polygon class="cls-8" points="252.21 440.77 252.21 443.55 217.99 443.55 217.99 438.17 256.36 438.17 256.36 440.77 252.21 440.77"/><line class="cls-6" x1="227.67" y1="459.88" x2="230.96" y2="459.88"/><line class="cls-6" x1="227.67" y1="462.85" x2="239.22" y2="462.85"/><line class="cls-6" x1="221.66" y1="447.82" x2="243.84" y2="447.82"/><line class="cls-6" x1="221.66" y1="450.79" x2="236.25" y2="450.79"/><rect class="cls-7" x="220.8" y="459.63" width="3.58" height="3.47" rx="0.25" ry="0.25"/><path class="cls-7" d="M224.13,459.88v3h-3.08v-3h3.08m0-.5h-3.08a.5.5,0,0,0-.5.5v3a.5.5,0,0,0,.5.5h3.08a.5.5,0,0,0,.5-.5v-3a.5.5,0,0,0-.5-.5Z"/><rect class="cls-6" x="252.21" y="440.77" width="8.29" height="8.29"/><path class="cls-8" d="M253.36,448.56c.51-.3,2.53-.76,2.57-1v-1a2.08,2.08,0,0,1-.3-.78.59.59,0,0,1-.06-.67v-.64c0-.66.28-1.11.86-1.11s.86.45.86,1.11v.64a.59.59,0,0,1-.06.67,2.09,2.09,0,0,1-.3.78v1c0,.21,2,.66,2.51.95Z"/><polygon class="cls-6" points="252.59 463.44 253.47 462.56 254.95 462.08 256.43 463.56 255.95 465.04 255.07 465.92 252.59 463.44"/><rect class="cls-8" x="249.95" y="464.53" width="4.55" height="3.51" transform="translate(-255.84 314.92) rotate(-45)"/><circle class="cls-6" cx="254.75" cy="463.76" r="0.21" transform="translate(-253.32 315.97) rotate(-45)"/><polyline class="cls-6" points="402.48 449.07 402.48 465.84 401.2 465.84"/><polyline class="cls-6" points="396.31 465.84 364.11 465.84 364.11 438.17 402.48 438.17 402.48 440.77"/><polygon class="cls-8" points="398.33 440.77 398.33 443.55 364.11 443.55 364.11 438.17 402.48 438.17 402.48 440.77 398.33 440.77"/><line class="cls-6" x1="373.79" y1="459.88" x2="377.09" y2="459.88"/><line class="cls-6" x1="373.79" y1="462.85" x2="385.34" y2="462.85"/><line class="cls-6" x1="367.78" y1="447.82" x2="389.97" y2="447.82"/><line class="cls-6" x1="367.78" y1="450.79" x2="382.37" y2="450.79"/><rect class="cls-7" x="366.93" y="459.63" width="3.58" height="3.47" rx="0.25" ry="0.25"/><path class="cls-7" d="M370.26,459.88v3h-3.08v-3h3.08m0-.5h-3.08a.5.5,0,0,0-.5.5v3a.5.5,0,0,0,.5.5h3.08a.5.5,0,0,0,.5-.5v-3a.5.5,0,0,0-.5-.5Z"/><rect class="cls-6" x="398.33" y="440.77" width="8.29" height="8.29"/><path class="cls-8" d="M399.48,448.56c.51-.3,2.53-.76,2.57-1v-1a2.08,2.08,0,0,1-.3-.78.59.59,0,0,1-.06-.67v-.64c0-.66.28-1.11.86-1.11s.86.45.86,1.11v.64a.59.59,0,0,1-.06.67,2.09,2.09,0,0,1-.3.78v1c0,.21,2,.66,2.51.95Z"/><polygon class="cls-6" points="398.72 463.44 399.59 462.56 401.08 462.08 402.56 463.56 402.07 465.04 401.2 465.92 398.72 463.44"/><rect class="cls-8" x="396.08" y="464.53" width="4.55" height="3.51" transform="translate(-213.04 418.25) rotate(-45)"/><circle class="cls-6" cx="400.87" cy="463.76" r="0.21" transform="translate(-210.52 419.29) rotate(-45)"/><line class="cls-6" x1="160.55" y1="500.56" x2="157.69" y2="500.56"/><line class="cls-6" x1="165" y1="483.79" x2="165" y2="497.03"/><polyline class="cls-6" points="151.4 500.56 126.63 500.56 126.63 472.89 165 472.89 165 475.49"/><polygon class="cls-8" points="160.85 475.49 160.85 478.27 126.63 478.27 126.63 472.89 165 472.89 165 475.49 160.85 475.49"/><line class="cls-6" x1="136.31" y1="494.6" x2="139.61" y2="494.6"/><line class="cls-6" x1="136.31" y1="497.57" x2="147.86" y2="497.57"/><line class="cls-6" x1="130.3" y1="482.54" x2="152.49" y2="482.54"/><line class="cls-6" x1="130.3" y1="485.51" x2="144.89" y2="485.51"/><rect class="cls-7" x="129.45" y="494.35" width="3.58" height="3.47" rx="0.25" ry="0.25"/><path class="cls-7" d="M132.78,494.6v3H129.7v-3h3.08m0-.5H129.7a.5.5,0,0,0-.5.5v3a.5.5,0,0,0,.5.5h3.08a.5.5,0,0,0,.5-.5v-3a.5.5,0,0,0-.5-.5Z"/><rect class="cls-6" x="160.85" y="475.49" width="8.29" height="8.29"/><path class="cls-8" d="M162,483.28c.51-.3,2.53-.76,2.57-1v-1a2.08,2.08,0,0,1-.3-.78.59.59,0,0,1-.06-.67v-.64c0-.66.28-1.11.86-1.11s.86.45.86,1.11v.64a.59.59,0,0,1-.06.67,2.09,2.09,0,0,1-.3.78v1c0,.21,2,.66,2.51.95Z"/><rect class="cls-6" x="151.4" y="499.06" width="6.29" height="4.68"/><line class="cls-6" x1="153.68" y1="501.89" x2="155.41" y2="501.89"/><rect class="cls-8" x="151.4" y="497.52" width="6.29" height="1.54"/><line class="cls-6" x1="153.22" y1="496.94" x2="153.22" y2="498.1"/><line class="cls-6" x1="155.88" y1="496.94" x2="155.88" y2="498.1"/><polygon class="cls-6" points="162.72 498.39 163.6 497.52 165.08 497.04 166.56 498.52 166.08 500 165.2 500.88 162.72 498.39"/><rect class="cls-8" x="160.08" y="499.49" width="4.55" height="3.51" transform="translate(-306.88 261.61) rotate(-45)"/><circle class="cls-6" cx="164.88" cy="498.72" r="0.21" transform="translate(-304.36 262.66) rotate(-45)"/><line class="cls-6" x1="302.22" y1="465.84" x2="299.36" y2="465.84"/><line class="cls-6" x1="306.67" y1="449.07" x2="306.67" y2="462.31"/><polyline class="cls-6" points="293.07 465.84 268.3 465.84 268.3 438.17 306.67 438.17 306.67 440.76"/><polygon class="cls-8" points="302.52 440.77 302.52 443.55 268.3 443.55 268.3 438.17 306.67 438.17 306.67 440.77 302.52 440.77"/><line class="cls-6" x1="277.98" y1="459.88" x2="281.28" y2="459.88"/><line class="cls-6" x1="277.98" y1="462.85" x2="289.53" y2="462.85"/><line class="cls-6" x1="271.97" y1="447.82" x2="294.16" y2="447.82"/><line class="cls-6" x1="271.97" y1="450.79" x2="286.56" y2="450.79"/><rect class="cls-7" x="271.12" y="459.63" width="3.58" height="3.47" rx="0.25" ry="0.25"/><path class="cls-7" d="M274.45,459.88v3h-3.08v-3h3.08m0-.5h-3.08a.5.5,0,0,0-.5.5v3a.5.5,0,0,0,.5.5h3.08a.5.5,0,0,0,.5-.5v-3a.5.5,0,0,0-.5-.5Z"/><rect class="cls-6" x="302.52" y="440.77" width="8.29" height="8.29"/><path class="cls-8" d="M303.67,448.56c.51-.3,2.53-.76,2.57-1v-1a2.08,2.08,0,0,1-.3-.78.59.59,0,0,1-.06-.67v-.64c0-.66.28-1.11.86-1.11s.86.45.86,1.11v.64a.59.59,0,0,1-.06.67,2.09,2.09,0,0,1-.3.78v1c0,.21,2,.66,2.51.95Z"/><rect class="cls-6" x="293.07" y="464.33" width="6.29" height="4.68"/><line class="cls-6" x1="295.35" y1="467.17" x2="297.08" y2="467.17"/><rect class="cls-8" x="293.07" y="462.8" width="6.29" height="1.54"/><line class="cls-6" x1="294.89" y1="462.22" x2="294.89" y2="463.38"/><line class="cls-6" x1="297.55" y1="462.22" x2="297.55" y2="463.38"/><polygon class="cls-6" points="304.39 463.68 305.27 462.8 306.75 462.32 308.23 463.8 307.75 465.28 306.87 466.16 304.39 463.68"/><rect class="cls-8" x="301.75" y="464.77" width="4.55" height="3.51" transform="translate(-240.84 351.62) rotate(-45)"/><circle class="cls-6" cx="306.55" cy="464" r="0.21" transform="translate(-238.31 352.66) rotate(-45)"/></g><g class="cls-9"><rect class="cls-4" x="12.45" y="413.37" width="397" height="190.38"/><rect class="cls-4" x="12.45" y="400.26" width="397" height="13.11"/><rect class="cls-5" x="309.39" y="404.77" width="4.07" height="4.07"/><circle class="cls-5" cx="341.29" cy="406.81" r="2.04"/><circle class="cls-4" cx="402.35" cy="406.81" r="3.4"/><circle class="cls-5" cx="382.45" cy="406.81" r="2.04"/><circle class="cls-5" cx="371.14" cy="406.81" r="2.04"/><circle class="cls-5" cx="359.83" cy="406.81" r="2.04"/><line class="cls-6" x1="391.72" y1="404.1" x2="391.72" y2="409.53"/><rect class="cls-5" x="327.94" y="404.77" width="4.07" height="4.07"/><line class="cls-6" x1="350.56" y1="404.1" x2="350.56" y2="409.53"/><rect class="cls-5" x="298.08" y="404.77" width="4.07" height="4.07"/><line class="cls-6" x1="320.7" y1="404.1" x2="320.7" y2="409.53"/><polygon class="cls-7" points="19.98 409.94 19.97 409.35 19.97 409.35 19.98 406.79 19.98 404.29 19.98 403.7 18.17 404.74 18.17 408.9 19.98 409.94 19.98 409.93 19.98 409.94"/><polygon class="cls-7" points="25.37 408.9 25.37 406.82 24.87 407.11 22.68 408.38 20.48 409.64 19.98 409.93 19.98 409.94 21.77 410.98 25.37 408.9"/><polygon class="cls-7" points="20.48 403.99 22.68 405.26 24.87 406.53 25.37 406.81 25.37 404.74 21.77 402.67 19.98 403.7 20.48 403.99"/><line class="cls-4" x1="29.03" y1="406.82" x2="51.72" y2="406.82"/><rect class="cls-4" x="15.25" y="418.08" width="8.14" height="181.84"/><line class="cls-4" x1="18.2" y1="422.06" x2="20.44" y2="422.06"/><line class="cls-4" x1="19.32" y1="423.18" x2="19.32" y2="420.93"/><rect class="cls-4" x="123.39" y="418.08" width="137.14" height="181.84"/><rect class="cls-4" x="123.39" y="510.98" width="137.14" height="8.14"/><line class="cls-6" x1="176.64" y1="514.81" x2="207.27" y2="514.81"/><rect class="cls-4" x="123.39" y="426.12" width="137.14" height="8.27"/><rect class="cls-4" x="123.39" y="518.95" width="137.14" height="8.27"/><line class="cls-6" x1="181.97" y1="430.26" x2="201.94" y2="430.26"/><rect class="cls-6" x="253.17" y="427.64" width="5.23" height="5.23"/><line class="cls-6" x1="255.23" y1="430.26" x2="256.33" y2="430.26"/><rect class="cls-4" x="123.39" y="418.08" width="137.14" height="181.84"/><rect class="cls-4" x="264.46" y="418.08" width="92.13" height="181.84"/><rect class="cls-4" x="264.46" y="426.12" width="92.13" height="8.27"/><line class="cls-6" x1="277.26" y1="430.26" x2="297.23" y2="430.26"/><line class="cls-6" x1="159.18" y1="523.09" x2="179.15" y2="523.09"/><line class="cls-6" x1="335.99" y1="430.26" x2="323.82" y2="430.26"/><line class="cls-6" x1="243.77" y1="523.09" x2="231.6" y2="523.09"/><rect class="cls-6" x="349.23" y="427.64" width="5.23" height="5.23"/><line class="cls-6" x1="351.3" y1="430.26" x2="352.4" y2="430.26"/><rect class="cls-4" x="264.46" y="418.08" width="92.13" height="181.84"/><rect class="cls-4" x="27.32" y="418.08" width="92.13" height="181.84"/><rect class="cls-4" x="27.32" y="426.12" width="92.13" height="8.27"/><line class="cls-4" x1="73.39" y1="426.12" x2="73.39" y2="599.92"/><line class="cls-4" x1="310.52" y1="426.19" x2="310.52" y2="599.92"/><line class="cls-6" x1="39.4" y1="430.26" x2="59.37" y2="430.26"/><line class="cls-6" x1="99.58" y1="430.26" x2="87.41" y2="430.26"/><rect class="cls-6" x="112.1" y="427.64" width="5.23" height="5.23"/><line class="cls-6" x1="114.17" y1="430.26" x2="115.26" y2="430.26"/><rect class="cls-4" x="27.32" y="418.08" width="92.13" height="181.84"/><line class="cls-4" x1="214.46" y1="511.59" x2="214.46" y2="599.92"/><rect class="cls-4" x="360.52" y="426.12" width="46.13" height="8.27"/><line class="cls-4" x1="378.05" y1="430.26" x2="389.04" y2="430.26"/><rect class="cls-4" x="360.52" y="417.99" width="46.13" height="181.93"/><rect class="cls-4" x="360.52" y="426.12" width="46.13" height="8.27"/><rect class="cls-4" x="360.52" y="417.92" width="46.13" height="8.27"/><line class="cls-6" x1="378.05" y1="430.26" x2="389.04" y2="430.26"/><line class="cls-6" x1="375.3" y1="422.06" x2="391.78" y2="422.06"/><rect class="cls-4" x="360.52" y="417.99" width="46.13" height="181.93"/><rect class="cls-4" x="27.32" y="417.99" width="92.13" height="8.14"/><rect class="cls-4" x="123.39" y="417.99" width="137.14" height="8.14"/><line class="cls-6" x1="176.64" y1="421.81" x2="207.27" y2="421.81"/><rect class="cls-4" x="264.46" y="417.99" width="92.13" height="8.14"/><polyline class="cls-6" points="165.02 449.07 165.02 465.84 163.74 465.84"/><polyline class="cls-6" points="158.85 465.84 126.65 465.84 126.65 438.17 165.02 438.17 165.02 440.77"/><polygon class="cls-8" points="160.88 440.77 160.88 443.55 126.65 443.55 126.65 438.17 165.02 438.17 165.02 440.77 160.88 440.77"/><line class="cls-6" x1="136.33" y1="459.88" x2="139.63" y2="459.88"/><line class="cls-6" x1="136.33" y1="462.85" x2="147.89" y2="462.85"/><line class="cls-6" x1="130.33" y1="447.82" x2="152.51" y2="447.82"/><line class="cls-6" x1="130.33" y1="450.79" x2="144.92" y2="450.79"/><rect class="cls-7" x="129.47" y="459.63" width="3.58" height="3.47" rx="0.25" ry="0.25"/><path class="cls-7" d="M132.8,459.88v3h-3.08v-3h3.08m0-.5h-3.08a.5.5,0,0,0-.5.5v3a.5.5,0,0,0,.5.5h3.08a.5.5,0,0,0,.5-.5v-3a.5.5,0,0,0-.5-.5Z"/><rect class="cls-6" x="160.88" y="440.77" width="8.29" height="8.29"/><path class="cls-8" d="M162,448.56c.51-.3,2.53-.76,2.57-1v-1a2.08,2.08,0,0,1-.3-.78.59.59,0,0,1-.06-.67v-.64c0-.66.28-1.11.86-1.11s.86.45.86,1.11v.64a.59.59,0,0,1-.06.67,2.09,2.09,0,0,1-.3.78v1c0,.21,2,.66,2.51.95Z"/><polygon class="cls-6" points="161.26 463.44 162.14 462.56 163.62 462.08 165.1 463.56 164.62 465.04 163.74 465.92 161.26 463.44"/><rect class="cls-8" x="158.62" y="464.53" width="4.55" height="3.51" transform="translate(-282.59 250.34) rotate(-45)"/><circle class="cls-6" cx="163.42" cy="463.76" r="0.21" transform="translate(-280.07 251.39) rotate(-45)"/><line class="cls-6" x1="206.18" y1="465.84" x2="203.32" y2="465.84"/><line class="cls-6" x1="210.63" y1="449.07" x2="210.63" y2="462.31"/><polyline class="cls-6" points="197.03 465.84 172.26 465.84 172.26 438.17 210.63 438.17 210.63 440.76"/><polygon class="cls-8" points="206.48 440.77 206.48 443.55 172.26 443.55 172.26 438.17 210.63 438.17 210.63 440.77 206.48 440.77"/><line class="cls-6" x1="181.94" y1="459.88" x2="185.24" y2="459.88"/><line class="cls-6" x1="181.94" y1="462.85" x2="193.49" y2="462.85"/><line class="cls-6" x1="175.93" y1="447.82" x2="198.12" y2="447.82"/><line class="cls-6" x1="175.93" y1="450.79" x2="190.52" y2="450.79"/><rect class="cls-7" x="175.08" y="459.63" width="3.58" height="3.47" rx="0.25" ry="0.25"/><path class="cls-7" d="M178.41,459.88v3h-3.08v-3h3.08m0-.5h-3.08a.5.5,0,0,0-.5.5v3a.5.5,0,0,0,.5.5h3.08a.5.5,0,0,0,.5-.5v-3a.5.5,0,0,0-.5-.5Z"/><rect class="cls-6" x="206.48" y="440.77" width="8.29" height="8.29"/><path class="cls-8" d="M207.63,448.56c.51-.3,2.53-.76,2.57-1v-1a2.08,2.08,0,0,1-.3-.78.59.59,0,0,1-.06-.67v-.64c0-.66.28-1.11.86-1.11s.86.45.86,1.11v.64a.59.59,0,0,1-.06.67,2.09,2.09,0,0,1-.3.78v1c0,.21,2,.66,2.51.95Z"/><rect class="cls-6" x="197.03" y="464.33" width="6.29" height="4.68"/><line class="cls-6" x1="199.31" y1="467.17" x2="201.04" y2="467.17"/><rect class="cls-8" x="197.03" y="462.8" width="6.29" height="1.54"/><line class="cls-6" x1="198.85" y1="462.22" x2="198.85" y2="463.38"/><line class="cls-6" x1="201.5" y1="462.22" x2="201.5" y2="463.38"/><polygon class="cls-6" points="208.35 463.68 209.22 462.8 210.71 462.32 212.19 463.8 211.71 465.28 210.83 466.16 208.35 463.68"/><rect class="cls-8" x="205.71" y="464.77" width="4.55" height="3.51" transform="translate(-268.96 283.71) rotate(-45)"/><circle class="cls-6" cx="210.5" cy="464" r="0.21" transform="translate(-266.44 284.75) rotate(-45)"/><polyline class="cls-6" points="108.02 465.84 76.94 465.84 76.94 438.17 115.31 438.17 115.31 440.76"/><polyline class="cls-6" points="115.31 449.07 115.31 465.84 114.31 465.84"/><polygon class="cls-8" points="111.16 440.77 111.16 443.55 76.94 443.55 76.94 438.17 115.31 438.17 115.31 440.77 111.16 440.77"/><line class="cls-6" x1="86.62" y1="459.88" x2="89.92" y2="459.88"/><line class="cls-6" x1="86.62" y1="462.85" x2="98.18" y2="462.85"/><line class="cls-6" x1="80.62" y1="447.82" x2="102.8" y2="447.82"/><line class="cls-6" x1="80.62" y1="450.79" x2="95.2" y2="450.79"/><path class="cls-7" d="M83.09,459.88v3H80v-3h3.08m0-.5H80a.5.5,0,0,0-.5.5v3a.5.5,0,0,0,.5.5h3.08a.5.5,0,0,0,.5-.5v-3a.5.5,0,0,0-.5-.5Z"/><rect class="cls-6" x="111.16" y="440.77" width="8.29" height="8.29"/><path class="cls-8" d="M112.31,448.56c.51-.3,2.53-.76,2.57-1v-1a2.08,2.08,0,0,1-.3-.78.59.59,0,0,1-.06-.67v-.64c0-.66.28-1.11.86-1.11s.86.45.86,1.11v.64a.59.59,0,0,1-.06.67,2.09,2.09,0,0,1-.3.78v1c0,.21,2,.66,2.51.95Z"/><rect class="cls-6" x="108.02" y="464.06" width="6.29" height="4.68"/><line class="cls-6" x1="110.3" y1="466.89" x2="112.03" y2="466.89"/><rect class="cls-8" x="108.02" y="462.53" width="6.29" height="1.54"/><line class="cls-6" x1="109.84" y1="461.94" x2="109.84" y2="463.11"/><line class="cls-6" x1="112.49" y1="461.94" x2="112.49" y2="463.11"/><polyline class="cls-6" points="115.31 483.79 115.31 500.56 76.94 500.56 76.94 472.89 115.31 472.89 115.31 475.5"/><polygon class="cls-8" points="111.16 475.49 111.16 478.27 76.94 478.27 76.94 472.89 115.31 472.89 115.31 475.49 111.16 475.49"/><line class="cls-6" x1="86.62" y1="494.6" x2="89.92" y2="494.6"/><line class="cls-6" x1="86.62" y1="497.57" x2="98.18" y2="497.57"/><line class="cls-6" x1="80.62" y1="482.54" x2="102.8" y2="482.54"/><line class="cls-6" x1="80.62" y1="485.51" x2="95.2" y2="485.51"/><rect class="cls-7" x="79.76" y="494.35" width="3.58" height="3.47" rx="0.25" ry="0.25"/><path class="cls-7" d="M83.09,494.6v3H80v-3h3.08m0-.5H80a.5.5,0,0,0-.5.5v3a.5.5,0,0,0,.5.5h3.08a.5.5,0,0,0,.5-.5v-3a.5.5,0,0,0-.5-.5Z"/><rect class="cls-6" x="111.16" y="475.49" width="8.29" height="8.29"/><path class="cls-8" d="M112.31,483.28c.51-.3,2.53-.76,2.57-1v-1a2.08,2.08,0,0,1-.3-.78.59.59,0,0,1-.06-.67v-.64c0-.66.28-1.11.86-1.11s.86.45.86,1.11v.64a.59.59,0,0,1-.06.67,2.09,2.09,0,0,1-.3.78v1c0,.21,2,.66,2.51.95Z"/><line class="cls-4" x1="29.66" y1="422.06" x2="31.53" y2="422.06"/><line class="cls-4" x1="125.73" y1="422.06" x2="127.6" y2="422.06"/><line class="cls-4" x1="266.8" y1="422.06" x2="268.66" y2="422.06"/><line class="cls-4" x1="362.86" y1="422.06" x2="364.73" y2="422.06"/><line class="cls-6" x1="295.2" y1="421.81" x2="325.84" y2="421.81"/><line class="cls-6" x1="58.07" y1="421.81" x2="88.71" y2="421.81"/><polyline class="cls-6" points="248.42 557.85 218.01 557.85 218.01 530.17 256.38 530.17 256.38 532.79"/><polyline class="cls-6" points="256.38 541.06 256.38 557.85 255.6 557.85"/><polygon class="cls-8" points="252.23 532.78 252.23 535.56 218.01 535.56 218.01 530.17 256.38 530.17 256.38 532.79 252.23 532.78"/><line class="cls-6" x1="227.69" y1="551.88" x2="230.99" y2="551.88"/><line class="cls-6" x1="227.69" y1="554.85" x2="239.24" y2="554.85"/><line class="cls-6" x1="221.68" y1="539.82" x2="243.87" y2="539.82"/><line class="cls-6" x1="221.68" y1="542.8" x2="236.27" y2="542.8"/><rect class="cls-7" x="220.83" y="551.63" width="3.58" height="3.47" rx="0.25" ry="0.25"/><path class="cls-7" d="M224.16,551.88v3h-3.08v-3h3.08m0-.5h-3.08a.5.5,0,0,0-.5.5v3a.5.5,0,0,0,.5.5h3.08a.5.5,0,0,0,.5-.5v-3a.5.5,0,0,0-.5-.5Z"/><polyline class="cls-6" points="255.6 557.85 255.6 557.14 253.5 555.04 250.52 555.04 248.42 557.14 248.42 560.12 250.52 562.22 253.5 562.22 255.6 560.12 255.6 557.85"/><rect class="cls-6" x="252.23" y="532.78" width="8.29" height="8.29"/><path class="cls-8" d="M253.38,540.57c.51-.3,2.53-.76,2.57-1v-1a2.08,2.08,0,0,1-.3-.78.59.59,0,0,1-.06-.67v-.64c0-.66.28-1.11.86-1.11s.86.45.86,1.11v.64a.59.59,0,0,1-.06.67,2.09,2.09,0,0,1-.3.78v1c0,.21,2,.66,2.51.95Z"/><line class="cls-6" x1="250.7" y1="557.32" x2="253.32" y2="559.93"/><line class="cls-6" x1="250.7" y1="559.93" x2="253.32" y2="557.32"/><polyline class="cls-6" points="306.67 483.79 306.67 500.56 268.3 500.56 268.3 472.89 306.67 472.89 306.67 475.5"/><polygon class="cls-8" points="302.52 475.49 302.52 478.27 268.3 478.27 268.3 472.89 306.67 472.89 306.67 475.49 302.52 475.49"/><line class="cls-6" x1="277.98" y1="494.6" x2="281.28" y2="494.6"/><line class="cls-6" x1="277.98" y1="497.57" x2="289.53" y2="497.57"/><line class="cls-6" x1="271.97" y1="482.54" x2="294.16" y2="482.54"/><line class="cls-6" x1="271.97" y1="485.51" x2="286.56" y2="485.51"/><rect class="cls-7" x="271.12" y="494.35" width="3.58" height="3.47" rx="0.25" ry="0.25"/><path class="cls-7" d="M274.45,494.6v3h-3.08v-3h3.08m0-.5h-3.08a.5.5,0,0,0-.5.5v3a.5.5,0,0,0,.5.5h3.08a.5.5,0,0,0,.5-.5v-3a.5.5,0,0,0-.5-.5Z"/><rect class="cls-6" x="302.52" y="475.49" width="8.29" height="8.29"/><path class="cls-8" d="M303.67,483.28c.51-.3,2.53-.76,2.57-1v-1a2.08,2.08,0,0,1-.3-.78.59.59,0,0,1-.06-.67v-.64c0-.66.28-1.11.86-1.11s.86.45.86,1.11v.64a.59.59,0,0,1-.06.67,2.09,2.09,0,0,1-.3.78v1c0,.21,2,.66,2.51.95Z"/><polyline class="cls-6" points="345.13 465.84 314.05 465.84 314.05 438.17 352.42 438.17 352.42 440.76"/><polyline class="cls-6" points="352.42 449.07 352.42 465.84 351.42 465.84"/><polygon class="cls-8" points="348.27 440.77 348.27 443.55 314.05 443.55 314.05 438.17 352.42 438.17 352.42 440.77 348.27 440.77"/><line class="cls-6" x1="323.73" y1="459.88" x2="327.03" y2="459.88"/><line class="cls-6" x1="323.73" y1="462.85" x2="335.28" y2="462.85"/><line class="cls-6" x1="317.73" y1="447.82" x2="339.91" y2="447.82"/><line class="cls-6" x1="317.73" y1="450.79" x2="332.31" y2="450.79"/><path class="cls-7" d="M320.2,459.88v3h-3.08v-3h3.08m0-.5h-3.08a.5.5,0,0,0-.5.5v3a.5.5,0,0,0,.5.5h3.08a.5.5,0,0,0,.5-.5v-3a.5.5,0,0,0-.5-.5Z"/><rect class="cls-6" x="348.27" y="440.77" width="8.29" height="8.29"/><path class="cls-8" d="M349.42,448.56c.51-.3,2.53-.76,2.57-1v-1a2.08,2.08,0,0,1-.3-.78.59.59,0,0,1-.06-.67v-.64c0-.66.28-1.11.86-1.11s.86.45.86,1.11v.64a.59.59,0,0,1-.06.67,2.09,2.09,0,0,1-.3.78v1c0,.21,2,.66,2.51.95Z"/><rect class="cls-6" x="345.13" y="464.06" width="6.29" height="4.68"/><line class="cls-6" x1="347.41" y1="466.89" x2="349.14" y2="466.89"/><rect class="cls-8" x="345.13" y="462.53" width="6.29" height="1.54"/><line class="cls-6" x1="346.94" y1="461.94" x2="346.94" y2="463.11"/><line class="cls-6" x1="349.6" y1="461.94" x2="349.6" y2="463.11"/><polyline class="cls-6" points="256.35 449.07 256.35 465.84 255.07 465.84"/><polyline class="cls-6" points="250.19 465.84 217.99 465.84 217.99 438.17 256.35 438.17 256.35 440.77"/><polygon class="cls-8" points="252.21 440.77 252.21 443.55 217.99 443.55 217.99 438.17 256.36 438.17 256.36 440.77 252.21 440.77"/><line class="cls-6" x1="227.67" y1="459.88" x2="230.96" y2="459.88"/><line class="cls-6" x1="227.67" y1="462.85" x2="239.22" y2="462.85"/><line class="cls-6" x1="221.66" y1="447.82" x2="243.84" y2="447.82"/><line class="cls-6" x1="221.66" y1="450.79" x2="236.25" y2="450.79"/><rect class="cls-7" x="220.8" y="459.63" width="3.58" height="3.47" rx="0.25" ry="0.25"/><path class="cls-7" d="M224.13,459.88v3h-3.08v-3h3.08m0-.5h-3.08a.5.5,0,0,0-.5.5v3a.5.5,0,0,0,.5.5h3.08a.5.5,0,0,0,.5-.5v-3a.5.5,0,0,0-.5-.5Z"/><rect class="cls-6" x="252.21" y="440.77" width="8.29" height="8.29"/><path class="cls-8" d="M253.36,448.56c.51-.3,2.53-.76,2.57-1v-1a2.08,2.08,0,0,1-.3-.78.59.59,0,0,1-.06-.67v-.64c0-.66.28-1.11.86-1.11s.86.45.86,1.11v.64a.59.59,0,0,1-.06.67,2.09,2.09,0,0,1-.3.78v1c0,.21,2,.66,2.51.95Z"/><polygon class="cls-6" points="252.59 463.44 253.47 462.56 254.95 462.08 256.43 463.56 255.95 465.04 255.07 465.92 252.59 463.44"/><rect class="cls-8" x="249.95" y="464.53" width="4.55" height="3.51" transform="translate(-255.84 314.92) rotate(-45)"/><circle class="cls-6" cx="254.75" cy="463.76" r="0.21" transform="translate(-253.32 315.97) rotate(-45)"/><polyline class="cls-6" points="402.48 449.07 402.48 465.84 401.2 465.84"/><polyline class="cls-6" points="396.31 465.84 364.11 465.84 364.11 438.17 402.48 438.17 402.48 440.77"/><polygon class="cls-8" points="398.33 440.77 398.33 443.55 364.11 443.55 364.11 438.17 402.48 438.17 402.48 440.77 398.33 440.77"/><line class="cls-6" x1="373.79" y1="459.88" x2="377.09" y2="459.88"/><line class="cls-6" x1="373.79" y1="462.85" x2="385.34" y2="462.85"/><line class="cls-6" x1="367.78" y1="447.82" x2="389.97" y2="447.82"/><line class="cls-6" x1="367.78" y1="450.79" x2="382.37" y2="450.79"/><rect class="cls-7" x="366.93" y="459.63" width="3.58" height="3.47" rx="0.25" ry="0.25"/><path class="cls-7" d="M370.26,459.88v3h-3.08v-3h3.08m0-.5h-3.08a.5.5,0,0,0-.5.5v3a.5.5,0,0,0,.5.5h3.08a.5.5,0,0,0,.5-.5v-3a.5.5,0,0,0-.5-.5Z"/><rect class="cls-6" x="398.33" y="440.77" width="8.29" height="8.29"/><path class="cls-8" d="M399.48,448.56c.51-.3,2.53-.76,2.57-1v-1a2.08,2.08,0,0,1-.3-.78.59.59,0,0,1-.06-.67v-.64c0-.66.28-1.11.86-1.11s.86.45.86,1.11v.64a.59.59,0,0,1-.06.67,2.09,2.09,0,0,1-.3.78v1c0,.21,2,.66,2.51.95Z"/><polygon class="cls-6" points="398.72 463.44 399.59 462.56 401.08 462.08 402.56 463.56 402.07 465.04 401.2 465.92 398.72 463.44"/><rect class="cls-8" x="396.08" y="464.53" width="4.55" height="3.51" transform="translate(-213.04 418.25) rotate(-45)"/><circle class="cls-6" cx="400.87" cy="463.76" r="0.21" transform="translate(-210.52 419.29) rotate(-45)"/><line class="cls-6" x1="160.55" y1="500.56" x2="157.69" y2="500.56"/><line class="cls-6" x1="165" y1="483.79" x2="165" y2="497.03"/><polyline class="cls-6" points="151.4 500.56 126.63 500.56 126.63 472.89 165 472.89 165 475.49"/><polygon class="cls-8" points="160.85 475.49 160.85 478.27 126.63 478.27 126.63 472.89 165 472.89 165 475.49 160.85 475.49"/><line class="cls-6" x1="136.31" y1="494.6" x2="139.61" y2="494.6"/><line class="cls-6" x1="136.31" y1="497.57" x2="147.86" y2="497.57"/><line class="cls-6" x1="130.3" y1="482.54" x2="152.49" y2="482.54"/><line class="cls-6" x1="130.3" y1="485.51" x2="144.89" y2="485.51"/><rect class="cls-7" x="129.45" y="494.35" width="3.58" height="3.47" rx="0.25" ry="0.25"/><path class="cls-7" d="M132.78,494.6v3H129.7v-3h3.08m0-.5H129.7a.5.5,0,0,0-.5.5v3a.5.5,0,0,0,.5.5h3.08a.5.5,0,0,0,.5-.5v-3a.5.5,0,0,0-.5-.5Z"/><rect class="cls-6" x="160.85" y="475.49" width="8.29" height="8.29"/><path class="cls-8" d="M162,483.28c.51-.3,2.53-.76,2.57-1v-1a2.08,2.08,0,0,1-.3-.78.59.59,0,0,1-.06-.67v-.64c0-.66.28-1.11.86-1.11s.86.45.86,1.11v.64a.59.59,0,0,1-.06.67,2.09,2.09,0,0,1-.3.78v1c0,.21,2,.66,2.51.95Z"/><rect class="cls-6" x="151.4" y="499.06" width="6.29" height="4.68"/><line class="cls-6" x1="153.68" y1="501.89" x2="155.41" y2="501.89"/><rect class="cls-8" x="151.4" y="497.52" width="6.29" height="1.54"/><line class="cls-6" x1="153.22" y1="496.94" x2="153.22" y2="498.1"/><line class="cls-6" x1="155.88" y1="496.94" x2="155.88" y2="498.1"/><polygon class="cls-6" points="162.72 498.39 163.6 497.52 165.08 497.04 166.56 498.52 166.08 500 165.2 500.88 162.72 498.39"/><rect class="cls-8" x="160.08" y="499.49" width="4.55" height="3.51" transform="translate(-306.88 261.61) rotate(-45)"/><circle class="cls-6" cx="164.88" cy="498.72" r="0.21" transform="translate(-304.36 262.66) rotate(-45)"/><line class="cls-6" x1="302.22" y1="465.84" x2="299.36" y2="465.84"/><line class="cls-6" x1="306.67" y1="449.07" x2="306.67" y2="462.31"/><polyline class="cls-6" points="293.07 465.84 268.3 465.84 268.3 438.17 306.67 438.17 306.67 440.76"/><polygon class="cls-8" points="302.52 440.77 302.52 443.55 268.3 443.55 268.3 438.17 306.67 438.17 306.67 440.77 302.52 440.77"/><line class="cls-6" x1="277.98" y1="459.88" x2="281.28" y2="459.88"/><line class="cls-6" x1="277.98" y1="462.85" x2="289.53" y2="462.85"/><line class="cls-6" x1="271.97" y1="447.82" x2="294.16" y2="447.82"/><line class="cls-6" x1="271.97" y1="450.79" x2="286.56" y2="450.79"/><rect class="cls-7" x="271.12" y="459.63" width="3.58" height="3.47" rx="0.25" ry="0.25"/><path class="cls-7" d="M274.45,459.88v3h-3.08v-3h3.08m0-.5h-3.08a.5.5,0,0,0-.5.5v3a.5.5,0,0,0,.5.5h3.08a.5.5,0,0,0,.5-.5v-3a.5.5,0,0,0-.5-.5Z"/><rect class="cls-6" x="302.52" y="440.77" width="8.29" height="8.29"/><path class="cls-8" d="M303.67,448.56c.51-.3,2.53-.76,2.57-1v-1a2.08,2.08,0,0,1-.3-.78.59.59,0,0,1-.06-.67v-.64c0-.66.28-1.11.86-1.11s.86.45.86,1.11v.64a.59.59,0,0,1-.06.67,2.09,2.09,0,0,1-.3.78v1c0,.21,2,.66,2.51.95Z"/><rect class="cls-6" x="293.07" y="464.33" width="6.29" height="4.68"/><line class="cls-6" x1="295.35" y1="467.17" x2="297.08" y2="467.17"/><rect class="cls-8" x="293.07" y="462.8" width="6.29" height="1.54"/><line class="cls-6" x1="294.89" y1="462.22" x2="294.89" y2="463.38"/><line class="cls-6" x1="297.55" y1="462.22" x2="297.55" y2="463.38"/><polygon class="cls-6" points="304.39 463.68 305.27 462.8 306.75 462.32 308.23 463.8 307.75 465.28 306.87 466.16 304.39 463.68"/><rect class="cls-8" x="301.75" y="464.77" width="4.55" height="3.51" transform="translate(-240.84 351.62) rotate(-45)"/><circle class="cls-6" cx="306.55" cy="464" r="0.21" transform="translate(-238.31 352.66) rotate(-45)"/></g><path class="cls-10" d="M259.32,400.25a136.73,136.73,0,0,0-92-35.52C91.59,364.73,30,426.31,30,502S91.59,639.27,167.27,639.27a136.73,136.73,0,0,0,92-35.52h-7.53a132.27,132.27,0,1,1-.38-203.81Z"/><path class="cls-11" d="M1272.73,659.27V668a30,30,0,0,1-30,30H197.27a30,30,0,0,1-30-30V639.27"/><path class="cls-11" d="M1272.73,364.73V66a30,30,0,0,0-30-30H197.27a30,30,0,0,0-30,30V344.73"/><path class="cls-10" d="M1180.68,400.25a136.73,136.73,0,0,1,92-35.52c75.69,0,137.27,61.58,137.27,137.27s-61.58,137.27-137.27,137.27a136.73,136.73,0,0,1-92-35.52h7.53a132.27,132.27,0,1,0,.38-203.81Z"/><line class="cls-11" x1="445.22" y1="497.87" x2="991.87" y2="497.87"/><polyline class="cls-11" points="454.32 506.97 445.22 497.87 454.32 488.77"/><polyline class="cls-11" points="176.37 335.63 167.27 344.73 158.18 335.63"/><polyline class="cls-11" points="1281.83 668.37 1272.73 659.27 1263.63 668.37"/><line class="cls-11" x1="445.22" y1="527.87" x2="991.87" y2="527.87"/><polyline class="cls-11" points="982.77 518.77 991.87 527.87 982.77 536.97"/><g class="cls-12"><rect class="cls-10" x="1030.55" y="400.29" width="397" height="10.31"/><rect class="cls-11" x="1030.55" y="410.6" width="397" height="11.02"/><line class="cls-11" x1="1427.55" y1="410.6" x2="1030.55" y2="410.6"/><line class="cls-11" x1="1427.55" y1="412.44" x2="1030.55" y2="412.44"/><line class="cls-11" x1="1427.55" y1="414.27" x2="1030.55" y2="414.27"/><line class="cls-11" x1="1427.55" y1="416.11" x2="1030.55" y2="416.11"/><line class="cls-11" x1="1427.55" y1="417.95" x2="1030.55" y2="417.95"/><line class="cls-11" x1="1427.55" y1="419.78" x2="1030.55" y2="419.78"/><line class="cls-11" x1="1427.55" y1="421.62" x2="1030.55" y2="421.62"/><rect class="cls-11" x="1030.55" y="421.68" width="397" height="11.02"/><line class="cls-11" x1="1030.71" y1="449.37" x2="1427.55" y2="449.37"/><line class="cls-11" x1="1030.71" y1="466.57" x2="1427.55" y2="466.57"/><line class="cls-11" x1="1030.71" y1="483.77" x2="1427.55" y2="483.77"/><line class="cls-11" x1="1030.71" y1="500.97" x2="1427.55" y2="500.97"/><line class="cls-11" x1="1030.71" y1="518.16" x2="1427.55" y2="518.16"/><line class="cls-11" x1="1030.71" y1="535.36" x2="1427.55" y2="535.36"/><line class="cls-11" x1="1030.71" y1="552.56" x2="1427.55" y2="552.56"/><line class="cls-11" x1="1030.71" y1="569.76" x2="1427.55" y2="569.76"/><line class="cls-11" x1="1030.71" y1="586.95" x2="1427.55" y2="586.95"/><rect class="cls-11" x="1030.71" y="400.43" width="396.84" height="203.27"/><rect class="cls-11" x="1038.54" y="437.57" width="6.67" height="6.67"/><rect class="cls-11" x="1038.54" y="454.73" width="6.67" height="6.67"/><rect class="cls-11" x="1038.54" y="471.9" width="6.67" height="6.67"/><rect class="cls-11" x="1038.54" y="489.06" width="6.67" height="6.67"/><rect class="cls-11" x="1038.54" y="506.23" width="6.67" height="6.67"/><rect class="cls-11" x="1038.54" y="523.39" width="6.67" height="6.67"/><rect class="cls-11" x="1038.54" y="540.56" width="6.67" height="6.67"/><rect class="cls-11" x="1038.54" y="557.72" width="6.67" height="6.67"/><rect class="cls-11" x="1038.54" y="574.89" width="6.67" height="6.67"/><rect class="cls-11" x="1038.54" y="592.05" width="6.67" height="6.67"/><polygon class="cls-11" points="1067.57 445.04 1058.69 445.04 1058.69 436.54 1070.77 436.54 1070.77 441.42 1067.57 445.04"/><rect class="cls-10" x="1058.69" y="436.54" width="12.08" height="2.71"/><polygon class="cls-11" points="1067.57 462.19 1058.69 462.19 1058.69 453.69 1070.77 453.69 1070.77 458.58 1067.57 462.19"/><rect class="cls-10" x="1058.69" y="453.69" width="12.08" height="2.71"/><polygon class="cls-11" points="1067.57 513.66 1058.69 513.66 1058.69 505.16 1070.77 505.16 1070.77 510.04 1067.57 513.66"/><rect class="cls-10" x="1058.69" y="505.16" width="12.08" height="2.71"/><polygon class="cls-11" points="1067.57 547.97 1058.69 547.97 1058.69 539.47 1070.77 539.47 1070.77 544.35 1067.57 547.97"/><rect class="cls-10" x="1058.69" y="539.47" width="12.08" height="2.71"/><polygon class="cls-11" points="1067.57 565.12 1058.69 565.12 1058.69 556.62 1070.77 556.62 1070.77 561.5 1067.57 565.12"/><rect class="cls-10" x="1058.69" y="556.62" width="12.08" height="2.71"/><polygon class="cls-11" points="1067.57 599.43 1058.69 599.43 1058.69 590.93 1070.77 590.93 1070.77 595.81 1067.57 599.43"/><rect class="cls-10" x="1058.69" y="590.93" width="12.08" height="2.71"/><polygon class="cls-11" points="1067.57 479.35 1058.69 479.35 1058.69 470.85 1070.77 470.85 1070.77 475.73 1067.57 479.35"/><rect class="cls-10" x="1058.69" y="470.85" width="12.08" height="2.71"/><polygon class="cls-11" points="1067.57 496.5 1058.69 496.5 1058.69 488 1070.77 488 1070.77 492.89 1067.57 496.5"/><rect class="cls-10" x="1058.69" y="488" width="12.08" height="2.71"/><polygon class="cls-11" points="1067.57 530.81 1058.69 530.81 1058.69 522.31 1070.77 522.31 1070.77 527.2 1067.57 530.81"/><rect class="cls-10" x="1058.69" y="522.31" width="12.08" height="2.71"/><polygon class="cls-11" points="1067.57 582.28 1058.69 582.28 1058.69 573.77 1070.77 573.77 1070.77 578.66 1067.57 582.28"/><rect class="cls-10" x="1058.69" y="573.77" width="12.08" height="2.71"/><rect class="cls-11" x="1228.11" y="437.57" width="30.9" height="6.67"/><rect class="cls-11" x="1328.57" y="437.57" width="40.28" height="6.67"/><line class="cls-11" x1="1085.97" y1="440.79" x2="1165.13" y2="440.79"/><line class="cls-11" x1="1197.93" y1="440.79" x2="1220.21" y2="440.79"/><line class="cls-11" x1="1271.12" y1="440.79" x2="1315.67" y2="440.79"/><polyline class="cls-11" points="1395.74 439.38 1399.09 442.73 1402.49 439.33"/><rect class="cls-11" x="1228.11" y="454.73" width="30.9" height="6.67"/><rect class="cls-11" x="1328.57" y="454.73" width="40.28" height="6.67"/><line class="cls-11" x1="1085.97" y1="457.95" x2="1165.13" y2="457.95"/><line class="cls-11" x1="1197.93" y1="457.95" x2="1220.21" y2="457.95"/><line class="cls-11" x1="1271.12" y1="457.95" x2="1315.67" y2="457.95"/><polyline class="cls-11" points="1395.74 456.55 1399.09 459.9 1402.49 456.5"/><rect class="cls-11" x="1228.11" y="471.88" width="30.9" height="6.67"/><rect class="cls-11" x="1328.57" y="471.88" width="40.28" height="6.67"/><line class="cls-11" x1="1085.97" y1="475.11" x2="1165.13" y2="475.11"/><line class="cls-11" x1="1197.93" y1="475.11" x2="1220.21" y2="475.11"/><line class="cls-11" x1="1271.12" y1="475.11" x2="1315.67" y2="475.11"/><polyline class="cls-11" points="1395.74 473.7 1399.09 477.05 1402.49 473.65"/><rect class="cls-11" x="1228.11" y="489.04" width="30.9" height="6.67"/><rect class="cls-11" x="1328.57" y="489.04" width="40.28" height="6.67"/><line class="cls-11" x1="1085.97" y1="492.26" x2="1165.13" y2="492.26"/><line class="cls-11" x1="1197.93" y1="492.26" x2="1220.21" y2="492.26"/><line class="cls-11" x1="1271.12" y1="492.26" x2="1315.67" y2="492.26"/><polyline class="cls-11" points="1395.74 490.86 1399.09 494.21 1402.49 490.81"/><rect class="cls-11" x="1228.11" y="506.19" width="30.9" height="6.67"/><rect class="cls-11" x="1328.57" y="506.19" width="40.28" height="6.67"/><line class="cls-11" x1="1085.97" y1="509.41" x2="1165.13" y2="509.41"/><line class="cls-11" x1="1197.93" y1="509.41" x2="1220.21" y2="509.41"/><line class="cls-11" x1="1271.12" y1="509.41" x2="1315.67" y2="509.41"/><polyline class="cls-11" points="1395.74 508.01 1399.09 511.36 1402.49 507.96"/><rect class="cls-11" x="1228.11" y="523.34" width="30.9" height="6.67"/><rect class="cls-11" x="1328.57" y="523.34" width="40.28" height="6.67"/><line class="cls-11" x1="1085.97" y1="526.57" x2="1165.13" y2="526.57"/><line class="cls-11" x1="1197.93" y1="526.57" x2="1220.21" y2="526.57"/><line class="cls-11" x1="1271.12" y1="526.57" x2="1315.67" y2="526.57"/><polyline class="cls-11" points="1395.74 525.16 1399.09 528.51 1402.49 525.11"/><rect class="cls-11" x="1228.11" y="540.5" width="30.9" height="6.67"/><rect class="cls-11" x="1328.57" y="540.5" width="40.28" height="6.67"/><line class="cls-11" x1="1085.97" y1="543.72" x2="1165.13" y2="543.72"/><line class="cls-11" x1="1197.93" y1="543.72" x2="1220.21" y2="543.72"/><line class="cls-11" x1="1271.12" y1="543.72" x2="1315.67" y2="543.72"/><polyline class="cls-11" points="1395.74 542.32 1399.09 545.67 1402.49 542.27"/><rect class="cls-11" x="1228.11" y="557.65" width="30.9" height="6.67"/><rect class="cls-11" x="1328.57" y="557.65" width="40.28" height="6.67"/><line class="cls-11" x1="1085.97" y1="560.87" x2="1165.13" y2="560.87"/><line class="cls-11" x1="1197.93" y1="560.87" x2="1220.21" y2="560.87"/><line class="cls-11" x1="1271.12" y1="560.87" x2="1315.67" y2="560.87"/><polyline class="cls-11" points="1395.74 559.47 1399.09 562.82 1402.49 559.42"/><rect class="cls-11" x="1228.11" y="574.8" width="30.9" height="6.67"/><rect class="cls-11" x="1328.57" y="574.8" width="40.28" height="6.67"/><line class="cls-11" x1="1085.97" y1="578.03" x2="1165.13" y2="578.03"/><line class="cls-11" x1="1197.93" y1="578.03" x2="1220.21" y2="578.03"/><line class="cls-11" x1="1271.12" y1="578.03" x2="1315.67" y2="578.03"/><polyline class="cls-11" points="1395.74 576.62 1399.09 579.97 1402.49 576.57"/><rect class="cls-11" x="1228.11" y="591.96" width="30.9" height="6.67"/><rect class="cls-11" x="1328.57" y="591.96" width="40.28" height="6.67"/><line class="cls-11" x1="1085.97" y1="595.18" x2="1165.13" y2="595.18"/><line class="cls-11" x1="1197.93" y1="595.18" x2="1220.21" y2="595.18"/><line class="cls-11" x1="1271.12" y1="595.18" x2="1315.67" y2="595.18"/><polyline class="cls-11" points="1395.74 593.78 1399.09 597.13 1402.49 593.73"/></g><g class="cls-13"><rect class="cls-10" x="1030.55" y="400.29" width="397" height="10.31"/><rect class="cls-11" x="1030.55" y="410.6" width="397" height="11.02"/><line class="cls-11" x1="1427.55" y1="410.6" x2="1030.55" y2="410.6"/><line class="cls-11" x1="1427.55" y1="412.44" x2="1030.55" y2="412.44"/><line class="cls-11" x1="1427.55" y1="414.27" x2="1030.55" y2="414.27"/><line class="cls-11" x1="1427.55" y1="416.11" x2="1030.55" y2="416.11"/><line class="cls-11" x1="1427.55" y1="417.95" x2="1030.55" y2="417.95"/><line class="cls-11" x1="1427.55" y1="419.78" x2="1030.55" y2="419.78"/><line class="cls-11" x1="1427.55" y1="421.62" x2="1030.55" y2="421.62"/><rect class="cls-11" x="1030.55" y="421.68" width="397" height="11.02"/><line class="cls-11" x1="1030.71" y1="449.37" x2="1427.55" y2="449.37"/><line class="cls-11" x1="1030.71" y1="466.57" x2="1427.55" y2="466.57"/><line class="cls-11" x1="1030.71" y1="483.77" x2="1427.55" y2="483.77"/><line class="cls-11" x1="1030.71" y1="500.97" x2="1427.55" y2="500.97"/><line class="cls-11" x1="1030.71" y1="518.16" x2="1427.55" y2="518.16"/><line class="cls-11" x1="1030.71" y1="535.36" x2="1427.55" y2="535.36"/><line class="cls-11" x1="1030.71" y1="552.56" x2="1427.55" y2="552.56"/><line class="cls-11" x1="1030.71" y1="569.76" x2="1427.55" y2="569.76"/><line class="cls-11" x1="1030.71" y1="586.95" x2="1427.55" y2="586.95"/><rect class="cls-11" x="1030.71" y="400.43" width="396.84" height="203.27"/><rect class="cls-11" x="1038.54" y="437.57" width="6.67" height="6.67"/><rect class="cls-11" x="1038.54" y="454.73" width="6.67" height="6.67"/><rect class="cls-11" x="1038.54" y="471.9" width="6.67" height="6.67"/><rect class="cls-11" x="1038.54" y="489.06" width="6.67" height="6.67"/><rect class="cls-11" x="1038.54" y="506.23" width="6.67" height="6.67"/><rect class="cls-11" x="1038.54" y="523.39" width="6.67" height="6.67"/><rect class="cls-11" x="1038.54" y="540.56" width="6.67" height="6.67"/><rect class="cls-11" x="1038.54" y="557.72" width="6.67" height="6.67"/><rect class="cls-11" x="1038.54" y="574.89" width="6.67" height="6.67"/><rect class="cls-11" x="1038.54" y="592.05" width="6.67" height="6.67"/><polygon class="cls-11" points="1067.57 445.04 1058.69 445.04 1058.69 436.54 1070.77 436.54 1070.77 441.42 1067.57 445.04"/><rect class="cls-10" x="1058.69" y="436.54" width="12.08" height="2.71"/><polygon class="cls-11" points="1067.57 462.19 1058.69 462.19 1058.69 453.69 1070.77 453.69 1070.77 458.58 1067.57 462.19"/><rect class="cls-10" x="1058.69" y="453.69" width="12.08" height="2.71"/><polygon class="cls-11" points="1067.57 513.66 1058.69 513.66 1058.69 505.16 1070.77 505.16 1070.77 510.04 1067.57 513.66"/><rect class="cls-10" x="1058.69" y="505.16" width="12.08" height="2.71"/><polygon class="cls-11" points="1067.57 547.97 1058.69 547.97 1058.69 539.47 1070.77 539.47 1070.77 544.35 1067.57 547.97"/><rect class="cls-10" x="1058.69" y="539.47" width="12.08" height="2.71"/><polygon class="cls-11" points="1067.57 565.12 1058.69 565.12 1058.69 556.62 1070.77 556.62 1070.77 561.5 1067.57 565.12"/><rect class="cls-10" x="1058.69" y="556.62" width="12.08" height="2.71"/><polygon class="cls-11" points="1067.57 599.43 1058.69 599.43 1058.69 590.93 1070.77 590.93 1070.77 595.81 1067.57 599.43"/><rect class="cls-10" x="1058.69" y="590.93" width="12.08" height="2.71"/><polygon class="cls-11" points="1067.57 479.35 1058.69 479.35 1058.69 470.85 1070.77 470.85 1070.77 475.73 1067.57 479.35"/><rect class="cls-10" x="1058.69" y="470.85" width="12.08" height="2.71"/><polygon class="cls-11" points="1067.57 496.5 1058.69 496.5 1058.69 488 1070.77 488 1070.77 492.89 1067.57 496.5"/><rect class="cls-10" x="1058.69" y="488" width="12.08" height="2.71"/><polygon class="cls-11" points="1067.57 530.81 1058.69 530.81 1058.69 522.31 1070.77 522.31 1070.77 527.2 1067.57 530.81"/><rect class="cls-10" x="1058.69" y="522.31" width="12.08" height="2.71"/><polygon class="cls-11" points="1067.57 582.28 1058.69 582.28 1058.69 573.77 1070.77 573.77 1070.77 578.66 1067.57 582.28"/><rect class="cls-10" x="1058.69" y="573.77" width="12.08" height="2.71"/><rect class="cls-11" x="1228.11" y="437.57" width="30.9" height="6.67"/><rect class="cls-11" x="1328.57" y="437.57" width="40.28" height="6.67"/><line class="cls-11" x1="1085.97" y1="440.79" x2="1165.13" y2="440.79"/><line class="cls-11" x1="1197.93" y1="440.79" x2="1220.21" y2="440.79"/><line class="cls-11" x1="1271.12" y1="440.79" x2="1315.67" y2="440.79"/><polyline class="cls-11" points="1395.74 439.38 1399.09 442.73 1402.49 439.33"/><rect class="cls-11" x="1228.11" y="454.73" width="30.9" height="6.67"/><rect class="cls-11" x="1328.57" y="454.73" width="40.28" height="6.67"/><line class="cls-11" x1="1085.97" y1="457.95" x2="1165.13" y2="457.95"/><line class="cls-11" x1="1197.93" y1="457.95" x2="1220.21" y2="457.95"/><line class="cls-11" x1="1271.12" y1="457.95" x2="1315.67" y2="457.95"/><polyline class="cls-11" points="1395.74 456.55 1399.09 459.9 1402.49 456.5"/><rect class="cls-11" x="1228.11" y="471.88" width="30.9" height="6.67"/><rect class="cls-11" x="1328.57" y="471.88" width="40.28" height="6.67"/><line class="cls-11" x1="1085.97" y1="475.11" x2="1165.13" y2="475.11"/><line class="cls-11" x1="1197.93" y1="475.11" x2="1220.21" y2="475.11"/><line class="cls-11" x1="1271.12" y1="475.11" x2="1315.67" y2="475.11"/><polyline class="cls-11" points="1395.74 473.7 1399.09 477.05 1402.49 473.65"/><rect class="cls-11" x="1228.11" y="489.04" width="30.9" height="6.67"/><rect class="cls-11" x="1328.57" y="489.04" width="40.28" height="6.67"/><line class="cls-11" x1="1085.97" y1="492.26" x2="1165.13" y2="492.26"/><line class="cls-11" x1="1197.93" y1="492.26" x2="1220.21" y2="492.26"/><line class="cls-11" x1="1271.12" y1="492.26" x2="1315.67" y2="492.26"/><polyline class="cls-11" points="1395.74 490.86 1399.09 494.21 1402.49 490.81"/><rect class="cls-11" x="1228.11" y="506.19" width="30.9" height="6.67"/><rect class="cls-11" x="1328.57" y="506.19" width="40.28" height="6.67"/><line class="cls-11" x1="1085.97" y1="509.41" x2="1165.13" y2="509.41"/><line class="cls-11" x1="1197.93" y1="509.41" x2="1220.21" y2="509.41"/><line class="cls-11" x1="1271.12" y1="509.41" x2="1315.67" y2="509.41"/><polyline class="cls-11" points="1395.74 508.01 1399.09 511.36 1402.49 507.96"/><rect class="cls-11" x="1228.11" y="523.34" width="30.9" height="6.67"/><rect class="cls-11" x="1328.57" y="523.34" width="40.28" height="6.67"/><line class="cls-11" x1="1085.97" y1="526.57" x2="1165.13" y2="526.57"/><line class="cls-11" x1="1197.93" y1="526.57" x2="1220.21" y2="526.57"/><line class="cls-11" x1="1271.12" y1="526.57" x2="1315.67" y2="526.57"/><polyline class="cls-11" points="1395.74 525.16 1399.09 528.51 1402.49 525.11"/><rect class="cls-11" x="1228.11" y="540.5" width="30.9" height="6.67"/><rect class="cls-11" x="1328.57" y="540.5" width="40.28" height="6.67"/><line class="cls-11" x1="1085.97" y1="543.72" x2="1165.13" y2="543.72"/><line class="cls-11" x1="1197.93" y1="543.72" x2="1220.21" y2="543.72"/><line class="cls-11" x1="1271.12" y1="543.72" x2="1315.67" y2="543.72"/><polyline class="cls-11" points="1395.74 542.32 1399.09 545.67 1402.49 542.27"/><rect class="cls-11" x="1228.11" y="557.65" width="30.9" height="6.67"/><rect class="cls-11" x="1328.57" y="557.65" width="40.28" height="6.67"/><line class="cls-11" x1="1085.97" y1="560.87" x2="1165.13" y2="560.87"/><line class="cls-11" x1="1197.93" y1="560.87" x2="1220.21" y2="560.87"/><line class="cls-11" x1="1271.12" y1="560.87" x2="1315.67" y2="560.87"/><polyline class="cls-11" points="1395.74 559.47 1399.09 562.82 1402.49 559.42"/><rect class="cls-11" x="1228.11" y="574.8" width="30.9" height="6.67"/><rect class="cls-11" x="1328.57" y="574.8" width="40.28" height="6.67"/><line class="cls-11" x1="1085.97" y1="578.03" x2="1165.13" y2="578.03"/><line class="cls-11" x1="1197.93" y1="578.03" x2="1220.21" y2="578.03"/><line class="cls-11" x1="1271.12" y1="578.03" x2="1315.67" y2="578.03"/><polyline class="cls-11" points="1395.74 576.62 1399.09 579.97 1402.49 576.57"/><rect class="cls-11" x="1228.11" y="591.96" width="30.9" height="6.67"/><rect class="cls-11" x="1328.57" y="591.96" width="40.28" height="6.67"/><line class="cls-11" x1="1085.97" y1="595.18" x2="1165.13" y2="595.18"/><line class="cls-11" x1="1197.93" y1="595.18" x2="1220.21" y2="595.18"/><line class="cls-11" x1="1271.12" y1="595.18" x2="1315.67" y2="595.18"/><polyline class="cls-11" points="1395.74 593.78 1399.09 597.13 1402.49 593.73"/></g></g></svg>