<svg preserveAspectRatio="xMidYMid slice" width="350px" height="240px" xmlns="http://www.w3.org/2000/svg" viewBox="0 0 880 520"><defs><style>.cls-1{isolation:isolate;}.cls-10,.cls-2,.cls-21,.cls-22,.cls-26,.cls-27,.cls-29,.cls-30,.cls-38,.cls-40,.cls-41,.cls-7{fill:none;}.cls-12,.cls-17,.cls-2,.cls-36,.cls-7,.cls-8,.cls-9{stroke:#d3d7d0;}.cls-10,.cls-11,.cls-12,.cls-17,.cls-18,.cls-19,.cls-2,.cls-20,.cls-21,.cls-22,.cls-26,.cls-27,.cls-28,.cls-29,.cls-30,.cls-31,.cls-32,.cls-33,.cls-34,.cls-35,.cls-36,.cls-37,.cls-38,.cls-40,.cls-41,.cls-5,.cls-7,.cls-8,.cls-9{stroke-linecap:round;stroke-linejoin:round;}.cls-12,.cls-2,.cls-35,.cls-36,.cls-37,.cls-38,.cls-40,.cls-41{stroke-width:1.5px;}.cls-11,.cls-3,.cls-8{fill:#fff;}.cls-20,.cls-28,.cls-4{fill:#ecf1e9;}.cls-5{fill:#ebefe8;}.cls-38,.cls-5{stroke:#ebefe8;}.cls-10,.cls-11,.cls-17,.cls-18,.cls-19,.cls-22,.cls-28,.cls-29,.cls-30,.cls-31,.cls-32,.cls-33,.cls-34,.cls-5,.cls-7,.cls-8,.cls-9{stroke-width:0.5px;}.cls-12,.cls-16,.cls-17,.cls-36,.cls-6,.cls-9{fill:#d3d7d0;}.cls-10,.cls-11,.cls-26,.cls-41{stroke:#fff;}.cls-13{fill:#eb6361;}.cls-14{fill:#e0ca21;}.cls-15{fill:#8fc23d;}.cls-16,.cls-17,.cls-36{mix-blend-mode:multiply;}.cls-18{fill:#bdc0b9;}.cls-18,.cls-29{stroke:#bdc0b9;}.cls-19{fill:#272b24;}.cls-19,.cls-27,.cls-30,.cls-40{stroke:#272b24;}.cls-20,.cls-21,.cls-22,.cls-28{stroke:#ecf1e9;}.cls-23{fill:#617e39;}.cls-24{fill:#f0f4ed;}.cls-25{fill:#91c53d;}.cls-31{fill:#8dc03e;stroke:#8dc03e;}.cls-32{fill:#f19a31;stroke:#f19a31;}.cls-33{fill:#ddc621;stroke:#ddc621;}.cls-34{fill:#5dc0d8;stroke:#5dc0d8;}.cls-35{fill:#a7aaa3;stroke:#a7aaa3;}.cls-37{fill:#80807f;stroke:#80807f;}.cls-39{fill:#3e423b;}</style></defs><title>LKArtboard 1.1</title><g class="cls-1"><g id="Artwork"><polyline class="cls-2" points="795.38 35.84 779.58 41.57 732.18 41.57 716.38 50.99 700.58 55.08 684.78 76.37 668.98 81.69 621.58 81.69 605.78 92.34 589.98 108.31 574.18 114.86 526.78 114.86 510.98 120.18 495.18 126.73 479.38 134.92 463.58 149.25 447.78 158.26 368.78 158.26 352.98 168.08 337.18 174.63 321.38 174.63 305.58 174.63 289.78 183.64 273.98 189.38 258.18 202.89 242.38 218.44 226.58 221.72 210.78 221.72 194.98 228.27 179.18 234.41 163.38 238.92 147.58 243.42 131.78 252.84 115.98 260.62 100.18 260.62 84.38 264.3"/><polyline class="cls-2" points="795.38 116.2 779.58 119.88 747.98 119.88 732.18 126.94 716.38 143.22 700.58 145.98 684.78 153.66 668.98 159.8 621.58 159.8 605.78 168.71 589.98 176.38 574.18 182.52 558.38 187.44 526.78 187.44 510.98 193.89 495.18 200.03 479.38 206.78 463.58 220.91 447.78 230.12 368.78 230.12 352.98 236.57 337.18 243.32 305.58 243.32 289.78 255.91 273.98 265.13 258.18 271.88 242.38 283.25 226.58 288.16 210.78 288.16 194.98 290.92 179.18 302.9 163.38 310.27 147.58 319.48 131.78 325.62 115.98 330.84 100.18 330.84 84.38 332.38"/><polyline class="cls-2" points="84.38 356.39 100.18 356.39 115.98 353.91 131.78 350.6 147.58 343.97 163.38 336.51 179.18 328.65 194.98 315.39 210.78 309.18 226.58 309.18 242.38 306.28 258.18 296.76 273.98 288.47 289.78 281.85 305.58 268.6 337.18 268.6 352.98 263.21 368.78 256.93 447.78 256.93 463.58 252.03 479.38 236.71 495.18 225.11 510.98 214.76 526.78 207.3 558.38 207.3 574.18 202.89 589.98 198.19 605.78 192.39 621.58 183.7 637.38 174.59 668.98 174.59 684.78 170.86 700.58 164.65 716.38 159.26 732.18 148.08 747.98 138.14 763.78 134.83 795.38 134.83"/><polyline class="cls-2" points="84.38 394.5 100.18 391.63 131.78 391.63 147.58 387.95 163.38 383.86 179.18 370.75 194.98 366.66 226.58 366.66 242.38 362.56 258.18 356.42 273.98 344.96 289.78 323.26 305.58 312.61 447.78 312.61 463.58 299.1 479.38 289.69 495.18 283.95 510.98 269.21 526.78 264.71 574.18 264.71 589.98 260.62 605.78 260.62 621.58 249.56 668.98 249.56 684.78 235.64 700.58 228.68 716.38 225.81 732.18 212.71 747.98 206.98 795.38 206.98"/><path class="cls-3" d="M568.74,308.05H766.09a10,10,0,0,1,10,10V432.89a8,8,0,0,1-8,8H566.74a8,8,0,0,1-8-8V318.05A10,10,0,0,1,568.74,308.05Z"/><path class="cls-4" d="M766.49,310.45H573.14a12,12,0,0,0-12,12V433.69a6.21,6.21,0,0,0,7.2,7.2H766.49a9.6,9.6,0,0,0,9.6-9.6V320.05a8.51,8.51,0,0,0-9.6-9.6Z"/><path class="cls-2" d="M568.74,308.05H766.09a10,10,0,0,1,10,10V432.89a8,8,0,0,1-8,8H566.74a8,8,0,0,1-8-8V318.05A10,10,0,0,1,568.74,308.05Z"/><rect class="cls-5" x="566.3" y="315.61" width="202.23" height="114.48"/><path class="cls-6" d="M573.49,321.94a1.47,1.47,0,1,1-1.47-1.47,1.47,1.47,0,0,1,1.47,1.47"/><path class="cls-6" d="M578,321.94a1.47,1.47,0,1,1-1.47-1.47,1.47,1.47,0,0,1,1.47,1.47"/><path class="cls-6" d="M582.56,321.94a1.47,1.47,0,1,1-1.47-1.47,1.47,1.47,0,0,1,1.47,1.47"/><rect class="cls-7" x="728.6" y="351.16" width="5.08" height="2.4"/><rect class="cls-8" x="570.61" y="328.07" width="193.6" height="99.23"/><rect class="cls-9" x="570.61" y="328.07" width="193.6" height="6.39"/><circle class="cls-10" cx="760.75" cy="331.26" r="1.66"/><circle class="cls-11" cx="751.21" cy="331.26" r="0.99"/><circle class="cls-11" cx="745.78" cy="331.26" r="0.99"/><circle class="cls-11" cx="740.34" cy="331.26" r="0.99"/><line class="cls-10" x1="578.48" y1="331.26" x2="586.55" y2="331.26"/><polygon class="cls-10" points="573.87 329.6 576.75 331.26 573.87 332.92 573.87 329.6"/><rect class="cls-11" x="710.73" y="330.27" width="1.99" height="1.99"/><rect class="cls-11" x="716.16" y="330.27" width="1.99" height="1.99"/><line class="cls-10" x1="735.9" y1="329.94" x2="735.9" y2="332.59"/><line class="cls-10" x1="721.59" y1="329.94" x2="721.59" y2="332.59"/><line class="cls-10" x1="755.65" y1="329.94" x2="755.65" y2="332.59"/><circle class="cls-11" cx="731.46" cy="331.26" r="0.99"/><rect class="cls-11" x="725.04" y="330.27" width="1.99" height="1.99"/><line class="cls-7" x1="576.75" y1="337.76" x2="595.62" y2="337.76"/><line class="cls-7" x1="731.21" y1="337.76" x2="758.41" y2="337.76"/><rect class="cls-7" x="576.75" y="340.49" width="181.66" height="80.22"/><line class="cls-7" x1="721.63" y1="340.49" x2="721.63" y2="417.14"/><rect class="cls-7" x="723.51" y="378.34" width="33.18" height="3.64"/><rect class="cls-7" x="723.51" y="352.06" width="15.25" height="3.64"/><rect class="cls-7" x="723.51" y="407.71" width="33.18" height="3.64"/><rect class="cls-7" x="723.51" y="381.98" width="33.18" height="25.73"/><line class="cls-7" x1="723.51" y1="350.46" x2="724.86" y2="350.46"/><rect class="cls-7" x="723.51" y="366.62" width="33.18" height="3.64"/><line class="cls-7" x1="723.51" y1="365.02" x2="724.86" y2="365.02"/><line class="cls-7" x1="725.66" y1="380.16" x2="730.26" y2="380.16"/><line class="cls-7" x1="725.66" y1="385.18" x2="727.57" y2="385.18"/><line class="cls-7" x1="725.66" y1="388.55" x2="734.75" y2="388.55"/><line class="cls-7" x1="725.66" y1="391.93" x2="732.06" y2="391.93"/><line class="cls-7" x1="725.66" y1="395.31" x2="735.64" y2="395.31"/><line class="cls-7" x1="725.66" y1="398.68" x2="732.06" y2="398.68"/><line class="cls-7" x1="725.66" y1="402.06" x2="727.57" y2="402.06"/><line class="cls-7" x1="724.41" y1="409.53" x2="730.81" y2="409.53"/><line class="cls-7" x1="578.48" y1="342.35" x2="602.8" y2="342.35"/><line class="cls-7" x1="723.51" y1="358.07" x2="731.14" y2="358.07"/><rect class="cls-7" x="723.51" y="359.67" width="2.4" height="2.4"/><line class="cls-7" x1="724.44" y1="360.86" x2="724.98" y2="360.86"/><rect class="cls-7" x="723.51" y="345.43" width="13.29" height="2.84"/><rect class="cls-7" x="743.41" y="345.43" width="13.29" height="2.84"/><line class="cls-7" x1="723.51" y1="343.83" x2="726.65" y2="343.83"/><line class="cls-7" x1="739.72" y1="346.85" x2="740.49" y2="346.85"/><rect class="cls-7" x="578.92" y="345.64" width="114.44" height="18.72"/><rect class="cls-7" x="694.49" y="365.75" width="25.33" height="49.77"/><rect class="cls-7" x="578.92" y="365.75" width="114.44" height="49.77"/><rect class="cls-9" x="580.21" y="361.24" width="6.27" height="3.12"/><rect class="cls-9" x="588.34" y="357.04" width="6.27" height="7.32"/><rect class="cls-9" x="596.46" y="358.12" width="6.27" height="6.24"/><rect class="cls-9" x="604.58" y="358.8" width="6.27" height="5.56"/><rect class="cls-9" x="612.7" y="358.8" width="6.27" height="5.56"/><rect class="cls-9" x="620.82" y="353.24" width="6.27" height="11.12"/><rect class="cls-9" x="628.94" y="354.54" width="6.27" height="9.82"/><rect class="cls-9" x="637.06" y="361.24" width="6.27" height="3.12"/><rect class="cls-9" x="645.19" y="352.13" width="6.27" height="12.23"/><rect class="cls-9" x="653.31" y="356.58" width="6.27" height="7.78"/><rect class="cls-9" x="661.43" y="353.24" width="6.27" height="11.12"/><rect class="cls-9" x="669.55" y="358.8" width="6.27" height="5.56"/><rect class="cls-9" x="677.67" y="363.53" width="6.27" height="0.83"/><rect class="cls-9" x="685.79" y="358.8" width="6.27" height="5.56"/><line class="cls-7" x1="685.18" y1="365.75" x2="685.18" y2="415.51"/><line class="cls-7" x1="677.01" y1="365.75" x2="677.01" y2="415.51"/><line class="cls-7" x1="668.83" y1="365.75" x2="668.83" y2="415.51"/><line class="cls-7" x1="660.66" y1="365.75" x2="660.66" y2="415.51"/><line class="cls-7" x1="652.49" y1="365.75" x2="652.49" y2="415.51"/><line class="cls-7" x1="644.31" y1="365.75" x2="644.31" y2="415.51"/><line class="cls-7" x1="636.14" y1="365.75" x2="636.14" y2="415.51"/><line class="cls-7" x1="627.96" y1="365.75" x2="627.96" y2="415.51"/><line class="cls-7" x1="619.79" y1="365.75" x2="619.79" y2="415.51"/><line class="cls-7" x1="611.61" y1="365.75" x2="611.61" y2="415.51"/><line class="cls-7" x1="603.44" y1="365.75" x2="603.44" y2="415.51"/><line class="cls-7" x1="595.26" y1="365.75" x2="595.26" y2="415.51"/><line class="cls-7" x1="587.09" y1="365.75" x2="587.09" y2="415.51"/><rect class="cls-9" x="694.49" y="411.52" width="23.97" height="2.51"/><rect class="cls-9" x="694.49" y="407.09" width="4.14" height="2.51"/><rect class="cls-9" x="694.49" y="402.66" width="2.44" height="2.51"/><rect class="cls-9" x="694.49" y="398.23" width="2.07" height="2.51"/><rect class="cls-9" x="694.49" y="393.81" width="2.07" height="2.51"/><rect class="cls-9" x="694.49" y="389.38" width="1.03" height="2.51"/><rect class="cls-9" x="694.49" y="384.95" width="0.84" height="2.51"/><rect class="cls-9" x="694.49" y="380.52" width="0.42" height="2.51"/><rect class="cls-9" x="694.49" y="376.09" width="0.52" height="2.51"/><rect class="cls-9" x="694.49" y="367.23" width="0.42" height="2.51"/><line class="cls-7" x1="580.96" y1="411.74" x2="585.05" y2="411.74"/><line class="cls-7" x1="589.13" y1="411.74" x2="593.22" y2="411.74"/><line class="cls-7" x1="597.31" y1="410.45" x2="601.4" y2="410.45"/><line class="cls-7" x1="605.48" y1="411.44" x2="609.57" y2="411.44"/><line class="cls-7" x1="613.66" y1="409.89" x2="617.74" y2="409.89"/><line class="cls-7" x1="621.83" y1="407.05" x2="625.92" y2="407.05"/><line class="cls-7" x1="630.01" y1="411.13" x2="634.09" y2="411.13"/><line class="cls-7" x1="638.18" y1="405.83" x2="642.27" y2="405.83"/><line class="cls-7" x1="646.35" y1="409.6" x2="650.44" y2="409.6"/><line class="cls-7" x1="654.53" y1="410.2" x2="658.62" y2="410.2"/><line class="cls-7" x1="662.7" y1="409.34" x2="666.79" y2="409.34"/><line class="cls-7" x1="670.88" y1="410.82" x2="674.97" y2="410.82"/><line class="cls-7" x1="679.05" y1="410.2" x2="683.14" y2="410.2"/><line class="cls-7" x1="687.23" y1="411.74" x2="691.31" y2="411.74"/><line class="cls-7" x1="585.85" y1="346.94" x2="580.84" y2="346.94"/><line class="cls-7" x1="593.98" y1="346.94" x2="588.96" y2="346.94"/><line class="cls-7" x1="602.1" y1="346.94" x2="597.08" y2="346.94"/><line class="cls-7" x1="610.22" y1="346.94" x2="605.2" y2="346.94"/><line class="cls-7" x1="618.34" y1="346.94" x2="613.33" y2="346.94"/><line class="cls-7" x1="626.46" y1="346.94" x2="621.45" y2="346.94"/><line class="cls-7" x1="634.58" y1="346.94" x2="629.57" y2="346.94"/><line class="cls-7" x1="642.7" y1="346.94" x2="637.69" y2="346.94"/><line class="cls-7" x1="650.83" y1="346.94" x2="645.81" y2="346.94"/><line class="cls-7" x1="658.95" y1="346.94" x2="653.93" y2="346.94"/><line class="cls-7" x1="667.07" y1="346.94" x2="662.05" y2="346.94"/><line class="cls-7" x1="675.19" y1="346.94" x2="670.18" y2="346.94"/><line class="cls-7" x1="683.31" y1="346.94" x2="678.3" y2="346.94"/><line class="cls-7" x1="691.43" y1="346.94" x2="686.42" y2="346.94"/><ellipse class="cls-6" cx="580.31" cy="407.7" rx="0.97" ry="1.11"/><ellipse class="cls-6" cx="579.89" cy="407.7" rx="0.97" ry="1.11"/><ellipse class="cls-6" cx="581.29" cy="411.99" rx="0.97" ry="1.11"/><ellipse class="cls-6" cx="581.93" cy="411.74" rx="0.97" ry="1.11"/><ellipse class="cls-6" cx="580.51" cy="410.88" rx="0.97" ry="1.11"/><ellipse class="cls-6" cx="588.06" cy="406.01" rx="0.97" ry="1.11"/><ellipse class="cls-6" cx="588.44" cy="411.99" rx="0.97" ry="1.11"/><ellipse class="cls-6" cx="589.13" cy="409" rx="0.97" ry="1.11"/><ellipse class="cls-6" cx="590.11" cy="409.92" rx="0.97" ry="1.11"/><ellipse class="cls-6" cx="589.04" cy="411.99" rx="0.97" ry="1.11"/><ellipse class="cls-6" cx="589.63" cy="412.15" rx="0.97" ry="1.11"/><ellipse class="cls-6" cx="591.58" cy="411.74" rx="0.97" ry="1.11"/><ellipse class="cls-6" cx="592.15" cy="411.99" rx="0.97" ry="1.11"/><ellipse class="cls-6" cx="592.7" cy="411.99" rx="0.97" ry="1.11"/><ellipse class="cls-6" cx="596.24" cy="403.04" rx="0.97" ry="1.11"/><ellipse class="cls-6" cx="596.58" cy="403.54" rx="0.97" ry="1.11"/><ellipse class="cls-6" cx="596.33" cy="406.59" rx="0.97" ry="1.11"/><ellipse class="cls-6" cx="604.41" cy="401.8" rx="0.97" ry="1.11"/><ellipse class="cls-6" cx="612.59" cy="405.83" rx="0.97" ry="1.11"/><ellipse class="cls-6" cx="612.59" cy="401.56" rx="0.97" ry="1.11"/><ellipse class="cls-6" cx="612.59" cy="397.44" rx="0.97" ry="1.11"/><ellipse class="cls-6" cx="613.02" cy="398.55" rx="0.97" ry="1.11"/><ellipse class="cls-6" cx="613.02" cy="409.07" rx="0.97" ry="1.11"/><ellipse class="cls-6" cx="612.59" cy="411.74" rx="0.97" ry="1.11"/><ellipse class="cls-6" cx="613.66" cy="411.99" rx="0.97" ry="1.11"/><ellipse class="cls-6" cx="614.13" cy="412.15" rx="0.97" ry="1.11"/><ellipse class="cls-6" cx="614.54" cy="408.81" rx="0.97" ry="1.11"/><ellipse class="cls-6" cx="615.51" cy="411.79" rx="0.97" ry="1.11"/><ellipse class="cls-6" cx="616.07" cy="411.03" rx="0.97" ry="1.11"/><ellipse class="cls-6" cx="621.47" cy="399.34" rx="0.97" ry="1.11"/><ellipse class="cls-6" cx="622.01" cy="399.34" rx="0.97" ry="1.11"/><ellipse class="cls-6" cx="620.76" cy="398.23" rx="0.97" ry="1.11"/><ellipse class="cls-6" cx="621.23" cy="396.67" rx="0.97" ry="1.11"/><ellipse class="cls-6" cx="620.76" cy="386.82" rx="0.97" ry="1.11"/><ellipse class="cls-6" cx="620.76" cy="384.3" rx="0.97" ry="1.11"/><ellipse class="cls-6" cx="620.76" cy="382.56" rx="0.97" ry="1.11"/><ellipse class="cls-6" cx="628.94" cy="374.14" rx="0.97" ry="1.11"/><ellipse class="cls-6" cx="629.5" cy="375.96" rx="0.97" ry="1.11"/><ellipse class="cls-6" cx="670.18" cy="368.62" rx="0.97" ry="1.11"/><ellipse class="cls-6" cx="670.18" cy="392.45" rx="0.97" ry="1.11"/><ellipse class="cls-6" cx="670.18" cy="405.98" rx="0.97" ry="1.11"/><ellipse class="cls-6" cx="670.18" cy="408.57" rx="0.97" ry="1.11"/><ellipse class="cls-6" cx="670.67" cy="407.09" rx="0.97" ry="1.11"/><ellipse class="cls-6" cx="678.48" cy="410.2" rx="0.97" ry="1.11"/><ellipse class="cls-6" cx="686.16" cy="399.49" rx="0.97" ry="1.11"/><ellipse class="cls-6" cx="686.16" cy="389.93" rx="0.97" ry="1.11"/><ellipse class="cls-6" cx="686.16" cy="408.57" rx="0.97" ry="1.11"/><ellipse class="cls-6" cx="687.13" cy="411.82" rx="0.97" ry="1.11"/><ellipse class="cls-6" cx="687.41" cy="410.82" rx="0.97" ry="1.11"/><ellipse class="cls-6" cx="687.9" cy="411.82" rx="0.97" ry="1.11"/><ellipse class="cls-6" cx="688.53" cy="411.82" rx="0.97" ry="1.11"/><ellipse class="cls-6" cx="689.15" cy="411.82" rx="0.97" ry="1.11"/><ellipse class="cls-6" cx="689.78" cy="411.82" rx="0.97" ry="1.11"/><ellipse class="cls-6" cx="670.67" cy="410.71" rx="0.97" ry="1.11"/><ellipse class="cls-6" cx="670.88" cy="411.93" rx="0.97" ry="1.11"/><ellipse class="cls-6" cx="672.12" cy="411.31" rx="0.97" ry="1.11"/><ellipse class="cls-6" cx="672.62" cy="411.57" rx="0.97" ry="1.11"/><ellipse class="cls-6" cx="671.65" cy="411.93" rx="0.97" ry="1.11"/><ellipse class="cls-6" cx="672.12" cy="410.46" rx="0.97" ry="1.11"/><ellipse class="cls-6" cx="666.94" cy="411.58" rx="0.97" ry="1.11"/><ellipse class="cls-6" cx="667.33" cy="410.82" rx="0.97" ry="1.11"/><ellipse class="cls-6" cx="666.19" cy="409.34" rx="0.97" ry="1.11"/><ellipse class="cls-6" cx="664.75" cy="411.31" rx="0.97" ry="1.11"/><ellipse class="cls-6" cx="662.94" cy="411.31" rx="0.97" ry="1.11"/><ellipse class="cls-6" cx="662.39" cy="410.82" rx="0.97" ry="1.11"/><ellipse class="cls-6" cx="661.97" cy="408.21" rx="0.97" ry="1.11"/><ellipse class="cls-6" cx="663.48" cy="409.32" rx="0.97" ry="1.11"/><ellipse class="cls-6" cx="664.67" cy="409.98" rx="0.97" ry="1.11"/><ellipse class="cls-6" cx="665.72" cy="410.71" rx="0.97" ry="1.11"/><ellipse class="cls-6" cx="628.94" cy="384.06" rx="0.97" ry="1.11"/><ellipse class="cls-6" cx="645.29" cy="383.19" rx="0.97" ry="1.11"/><ellipse class="cls-6" cx="645.29" cy="389.52" rx="0.97" ry="1.11"/><ellipse class="cls-6" cx="645.29" cy="393.97" rx="0.97" ry="1.11"/><ellipse class="cls-6" cx="645.29" cy="396.63" rx="0.97" ry="1.11"/><ellipse class="cls-6" cx="646.26" cy="398.27" rx="0.97" ry="1.11"/><ellipse class="cls-6" cx="645.8" cy="399.93" rx="0.97" ry="1.11"/><ellipse class="cls-6" cx="646.26" cy="401.88" rx="0.97" ry="1.11"/><ellipse class="cls-6" cx="646.77" cy="400.76" rx="0.97" ry="1.11"/><ellipse class="cls-6" cx="646.02" cy="404.72" rx="0.97" ry="1.11"/><ellipse class="cls-6" cx="645.8" cy="406.94" rx="0.97" ry="1.11"/><ellipse class="cls-6" cx="653.46" cy="403.61" rx="0.97" ry="1.11"/><ellipse class="cls-6" cx="654.02" cy="403.27" rx="0.97" ry="1.11"/><ellipse class="cls-6" cx="655" cy="405.83" rx="0.97" ry="1.11"/><ellipse class="cls-6" cx="654.43" cy="406.94" rx="0.97" ry="1.11"/><ellipse class="cls-6" cx="653.46" cy="408.57" rx="0.97" ry="1.11"/><ellipse class="cls-6" cx="654.43" cy="409.98" rx="0.97" ry="1.11"/><ellipse class="cls-6" cx="655.97" cy="409.98" rx="0.97" ry="1.11"/><ellipse class="cls-6" cx="657.64" cy="411.09" rx="0.97" ry="1.11"/><ellipse class="cls-6" cx="655.69" cy="412.2" rx="0.97" ry="1.11"/><ellipse class="cls-6" cx="655.22" cy="412.2" rx="0.97" ry="1.11"/><ellipse class="cls-6" cx="654.43" cy="411.09" rx="0.97" ry="1.11"/><ellipse class="cls-6" cx="656.67" cy="411.57" rx="0.97" ry="1.11"/><ellipse class="cls-6" cx="651.17" cy="411.93" rx="0.97" ry="1.11"/><ellipse class="cls-6" cx="650.32" cy="409.84" rx="0.97" ry="1.11"/><ellipse class="cls-6" cx="649.81" cy="412.07" rx="0.97" ry="1.11"/><ellipse class="cls-6" cx="649.02" cy="412.07" rx="0.97" ry="1.11"/><ellipse class="cls-6" cx="648.53" cy="412.07" rx="0.97" ry="1.11"/><ellipse class="cls-6" cx="647" cy="412.07" rx="0.97" ry="1.11"/><ellipse class="cls-6" cx="645.94" cy="412.07" rx="0.97" ry="1.11"/><ellipse class="cls-6" cx="645.45" cy="411.58" rx="0.97" ry="1.11"/><ellipse class="cls-6" cx="646.59" cy="409.35" rx="0.97" ry="1.11"/><ellipse class="cls-6" cx="647.88" cy="409.35" rx="0.97" ry="1.11"/><ellipse class="cls-6" cx="648.95" cy="410.56" rx="0.97" ry="1.11"/><ellipse class="cls-6" cx="647.39" cy="410.82" rx="0.97" ry="1.11"/><ellipse class="cls-6" cx="661.63" cy="401.88" rx="0.97" ry="1.11"/><ellipse class="cls-6" cx="661.63" cy="405.17" rx="0.97" ry="1.11"/><ellipse class="cls-6" cx="662.61" cy="405.17" rx="0.97" ry="1.11"/><ellipse class="cls-6" cx="663.24" cy="406.28" rx="0.97" ry="1.11"/><ellipse class="cls-6" cx="662.26" cy="407.09" rx="0.97" ry="1.11"/><ellipse class="cls-6" cx="670.67" cy="394.4" rx="0.97" ry="1.11"/><ellipse class="cls-6" cx="645.29" cy="401.04" rx="0.97" ry="1.11"/><ellipse class="cls-6" cx="653.46" cy="398.27" rx="0.97" ry="1.11"/><ellipse class="cls-6" cx="653.46" cy="394.4" rx="0.97" ry="1.11"/><ellipse class="cls-6" cx="654.28" cy="392.45" rx="0.97" ry="1.11"/><ellipse class="cls-6" cx="661.63" cy="394.4" rx="0.97" ry="1.11"/><ellipse class="cls-6" cx="662.26" cy="394.74" rx="0.97" ry="1.11"/><ellipse class="cls-6" cx="661.63" cy="387.45" rx="0.97" ry="1.11"/><ellipse class="cls-6" cx="662.26" cy="388.57" rx="0.97" ry="1.11"/><ellipse class="cls-6" cx="662.61" cy="391.88" rx="0.97" ry="1.11"/><ellipse class="cls-6" cx="663.24" cy="391.88" rx="0.97" ry="1.11"/><ellipse class="cls-6" cx="645.29" cy="405.86" rx="0.97" ry="1.11"/><ellipse class="cls-6" cx="628.94" cy="395.86" rx="0.97" ry="1.11"/><ellipse class="cls-6" cx="628.94" cy="400.76" rx="0.97" ry="1.11"/><ellipse class="cls-6" cx="628.94" cy="404.24" rx="0.97" ry="1.11"/><ellipse class="cls-6" cx="629.54" cy="403.88" rx="0.97" ry="1.11"/><ellipse class="cls-6" cx="629.76" cy="406.71" rx="0.97" ry="1.11"/><ellipse class="cls-6" cx="629.03" cy="408.63" rx="0.97" ry="1.11"/><ellipse class="cls-6" cx="630.88" cy="409" rx="0.97" ry="1.11"/><ellipse class="cls-6" cx="632.65" cy="409.89" rx="0.97" ry="1.11"/><ellipse class="cls-6" cx="633.43" cy="410.88" rx="0.97" ry="1.11"/><ellipse class="cls-6" cx="634.6" cy="411.79" rx="0.97" ry="1.11"/><ellipse class="cls-6" cx="634.09" cy="411.79" rx="0.97" ry="1.11"/><ellipse class="cls-6" cx="637.6" cy="411.79" rx="0.97" ry="1.11"/><ellipse class="cls-6" cx="638.18" cy="411.79" rx="0.97" ry="1.11"/><ellipse class="cls-6" cx="637.21" cy="408.45" rx="0.97" ry="1.11"/><ellipse class="cls-6" cx="637.21" cy="405.83" rx="0.97" ry="1.11"/><ellipse class="cls-6" cx="637.6" cy="400.76" rx="0.97" ry="1.11"/><ellipse class="cls-6" cx="637.21" cy="399.65" rx="0.97" ry="1.11"/><ellipse class="cls-6" cx="637.21" cy="395.86" rx="0.97" ry="1.11"/><ellipse class="cls-6" cx="632.05" cy="411.79" rx="0.97" ry="1.11"/><ellipse class="cls-6" cx="630.51" cy="411.79" rx="0.97" ry="1.11"/><ellipse class="cls-6" cx="630.01" cy="411.79" rx="0.97" ry="1.11"/><ellipse class="cls-6" cx="629.54" cy="411.79" rx="0.97" ry="1.11"/><ellipse class="cls-6" cx="625.39" cy="411.79" rx="0.97" ry="1.11"/><ellipse class="cls-6" cx="624.85" cy="411.79" rx="0.97" ry="1.11"/><ellipse class="cls-6" cx="623.88" cy="411.99" rx="0.97" ry="1.11"/><ellipse class="cls-6" cx="624.65" cy="410.68" rx="0.97" ry="1.11"/><ellipse class="cls-6" cx="623.41" cy="410.68" rx="0.97" ry="1.11"/><ellipse class="cls-6" cx="622.44" cy="411.79" rx="0.97" ry="1.11"/><ellipse class="cls-6" cx="621.74" cy="409.21" rx="0.97" ry="1.11"/><ellipse class="cls-6" cx="621.23" cy="409.21" rx="0.97" ry="1.11"/><ellipse class="cls-6" cx="621.23" cy="406.71" rx="0.97" ry="1.11"/><ellipse class="cls-6" cx="621.83" cy="407.05" rx="0.97" ry="1.11"/><ellipse class="cls-6" cx="620.86" cy="407.05" rx="0.97" ry="1.11"/><ellipse class="cls-6" cx="621.58" cy="405.83" rx="0.97" ry="1.11"/><ellipse class="cls-6" cx="620.86" cy="411.13" rx="0.97" ry="1.11"/><ellipse class="cls-6" cx="631.48" cy="411.79" rx="0.97" ry="1.11"/><ellipse class="cls-6" cx="621.47" cy="393.3" rx="0.97" ry="1.11"/><ellipse class="cls-6" cx="621.23" cy="391.74" rx="0.97" ry="1.11"/><ellipse class="cls-6" cx="620.76" cy="391.08" rx="0.97" ry="1.11"/><ellipse class="cls-6" cx="615.1" cy="410.11" rx="0.97" ry="1.11"/><ellipse class="cls-6" cx="614.13" cy="411.44" rx="0.97" ry="1.11"/><ellipse class="cls-6" cx="605.48" cy="409.07" rx="0.97" ry="1.11"/><ellipse class="cls-6" cx="604.65" cy="409.07" rx="0.97" ry="1.11"/><ellipse class="cls-6" cx="604.75" cy="411.99" rx="0.97" ry="1.11"/><ellipse class="cls-6" cx="604.95" cy="410.45" rx="0.97" ry="1.11"/><ellipse class="cls-6" cx="606.11" cy="411.44" rx="0.97" ry="1.11"/><ellipse class="cls-6" cx="606.9" cy="412.15" rx="0.97" ry="1.11"/><ellipse class="cls-6" cx="607.53" cy="411.99" rx="0.97" ry="1.11"/><ellipse class="cls-6" cx="608.06" cy="411.03" rx="0.97" ry="1.11"/><ellipse class="cls-6" cx="608.5" cy="411.44" rx="0.97" ry="1.11"/><ellipse class="cls-6" cx="606.8" cy="410.63" rx="0.97" ry="1.11"/><ellipse class="cls-6" cx="596.33" cy="409.07" rx="0.97" ry="1.11"/><ellipse class="cls-6" cx="596.93" cy="410.11" rx="0.97" ry="1.11"/><ellipse class="cls-6" cx="597.31" cy="411.23" rx="0.97" ry="1.11"/><ellipse class="cls-6" cx="598.19" cy="411.99" rx="0.97" ry="1.11"/><ellipse class="cls-6" cx="598.88" cy="411.99" rx="0.97" ry="1.11"/><ellipse class="cls-6" cx="599.53" cy="411.99" rx="0.97" ry="1.11"/><ellipse class="cls-6" cx="600.13" cy="411.03" rx="0.97" ry="1.11"/><ellipse class="cls-6" cx="599.53" cy="410.45" rx="0.97" ry="1.11"/><ellipse class="cls-6" cx="598.56" cy="410.18" rx="0.97" ry="1.11"/><ellipse class="cls-6" cx="588.16" cy="404.37" rx="0.97" ry="1.11"/><ellipse class="cls-6" cx="588.06" cy="402.91" rx="0.97" ry="1.11"/><line class="cls-7" x1="578.89" y1="368.62" x2="578.06" y2="368.62"/><line class="cls-7" x1="578.89" y1="377.42" x2="578.06" y2="377.42"/><line class="cls-7" x1="578.89" y1="386.23" x2="578.06" y2="386.23"/><line class="cls-7" x1="578.89" y1="395.03" x2="578.06" y2="395.03"/><line class="cls-7" x1="578.89" y1="403.83" x2="578.06" y2="403.83"/><line class="cls-7" x1="578.89" y1="412.64" x2="578.06" y2="412.64"/><rect class="cls-2" x="610.17" y="271.74" width="114.48" height="202.23" transform="translate(1040.27 -294.56) rotate(90)"/><rect class="cls-4" x="545.56" y="443.29" width="243.7" height="2.55"/><rect class="cls-2" x="545.56" y="440.89" width="243.7" height="4.95"/><path class="cls-12" d="M774.93,450.79h-215a16.2,16.2,0,0,1-6.75-1.47l-7.59-3.48h243.7l-7.59,3.48A16.2,16.2,0,0,1,774.93,450.79Z"/><path class="cls-12" d="M685.72,440.89l-1.31,1.16a2.59,2.59,0,0,1-1.69.57h-30.6a2.59,2.59,0,0,1-1.69-.57l-1.31-1.16Z"/><path class="cls-3" d="M113.91,308.05H311.26a10,10,0,0,1,10,10V432.89a8,8,0,0,1-8,8H111.91a8,8,0,0,1-8-8V318.05A10,10,0,0,1,113.91,308.05Z"/><path class="cls-4" d="M311.66,310.45H118.31a12,12,0,0,0-12,12V433.69a9.55,9.55,0,0,0,1.72,5.48,9.55,9.55,0,0,0,5.48,1.72H311.66a9.6,9.6,0,0,0,9.6-9.6V320.05a8.51,8.51,0,0,0-9.6-9.6Z"/><path class="cls-2" d="M113.91,308.05H311.26a10,10,0,0,1,10,10V432.89a8,8,0,0,1-8,8H111.91a8,8,0,0,1-8-8V318.05A10,10,0,0,1,113.91,308.05Z"/><rect class="cls-5" x="111.47" y="315.61" width="202.23" height="114.48"/><path class="cls-6" d="M118.66,321.94a1.47,1.47,0,1,1-1.47-1.47,1.47,1.47,0,0,1,1.47,1.47"/><path class="cls-6" d="M123.2,321.94a1.47,1.47,0,1,1-1.47-1.47,1.47,1.47,0,0,1,1.47,1.47"/><path class="cls-6" d="M127.73,321.94a1.47,1.47,0,1,1-1.47-1.47,1.47,1.47,0,0,1,1.47,1.47"/><rect class="cls-8" x="115.79" y="329.07" width="193.6" height="98.23"/><rect class="cls-9" x="115.79" y="329.07" width="193.6" height="6.39"/><circle class="cls-10" cx="305.93" cy="332.26" r="1.66"/><circle class="cls-11" cx="296.38" cy="332.26" r="0.99"/><circle class="cls-11" cx="290.95" cy="332.26" r="0.99"/><circle class="cls-11" cx="285.52" cy="332.26" r="0.99"/><line class="cls-10" x1="123.65" y1="332.26" x2="131.73" y2="332.26"/><polygon class="cls-10" points="119.05 330.6 121.92 332.26 119.05 333.92 119.05 330.6"/><rect class="cls-11" x="255.9" y="331.27" width="1.99" height="1.99"/><rect class="cls-11" x="261.33" y="331.27" width="1.99" height="1.99"/><line class="cls-10" x1="281.08" y1="330.94" x2="281.08" y2="333.59"/><line class="cls-10" x1="266.77" y1="330.94" x2="266.77" y2="333.59"/><line class="cls-10" x1="300.82" y1="330.94" x2="300.82" y2="333.59"/><circle class="cls-11" cx="276.64" cy="332.26" r="0.99"/><rect class="cls-11" x="270.21" y="331.27" width="1.99" height="1.99"/><rect class="cls-9" x="133.06" y="348.04" width="3.88" height="11.18"/><polygon class="cls-9" points="136.94 362.01 133.06 362.01 133.06 373.19 136.94 373.19 140.82 373.19 140.82 362.01 136.94 362.01"/><rect class="cls-9" x="133.06" y="389.96" width="124.18" height="11.18"/><rect class="cls-9" x="133.06" y="375.99" width="1.78" height="11.18"/><rect class="cls-9" x="133.06" y="403.94" width="1.94" height="11.18"/><line class="cls-7" x1="121.92" y1="338.76" x2="140.8" y2="338.76"/><line class="cls-7" x1="289.84" y1="338.76" x2="303.58" y2="338.76"/><rect class="cls-7" x="121.92" y="341.49" width="181.66" height="80.22"/><line class="cls-7" x1="267.16" y1="341.49" x2="267.16" y2="418.14"/><rect class="cls-7" x="268.69" y="361.75" width="33.18" height="2.4"/><rect class="cls-7" x="268.69" y="353.96" width="33.18" height="2.4"/><rect class="cls-7" x="268.69" y="389.88" width="33.18" height="2.4"/><rect class="cls-7" x="268.69" y="364.15" width="33.18" height="25.73"/><line class="cls-7" x1="268.69" y1="352.36" x2="270.03" y2="352.36"/><line class="cls-7" x1="268.69" y1="344.83" x2="276.31" y2="344.83"/><line class="cls-7" x1="269.59" y1="362.95" x2="274.19" y2="362.95"/><line class="cls-7" x1="269.59" y1="366.1" x2="271.5" y2="366.1"/><line class="cls-7" x1="269.59" y1="368.23" x2="278.68" y2="368.23"/><line class="cls-7" x1="269.59" y1="370.36" x2="275.99" y2="370.36"/><line class="cls-7" x1="269.59" y1="372.49" x2="279.57" y2="372.49"/><line class="cls-7" x1="269.59" y1="374.62" x2="275.99" y2="374.62"/><line class="cls-7" x1="269.59" y1="376.75" x2="271.5" y2="376.75"/><line class="cls-7" x1="269.59" y1="391.07" x2="275.99" y2="391.07"/><line class="cls-7" x1="123.65" y1="343.35" x2="147.97" y2="343.35"/><line class="cls-7" x1="264.99" y1="416.51" x2="123.65" y2="416.51"/><line class="cls-7" x1="264.99" y1="402.54" x2="123.65" y2="402.54"/><line class="cls-7" x1="264.99" y1="374.59" x2="123.65" y2="374.59"/><line class="cls-7" x1="264.99" y1="360.62" x2="123.65" y2="360.62"/><line class="cls-7" x1="264.99" y1="346.64" x2="123.65" y2="346.64"/><rect class="cls-7" x="268.69" y="346.43" width="2.4" height="2.4"/><line class="cls-7" x1="133.06" y1="346.64" x2="133.06" y2="416.51"/><line class="cls-7" x1="264.99" y1="416.51" x2="264.99" y2="417.12"/><line class="cls-7" x1="261.11" y1="416.51" x2="261.11" y2="417.12"/><line class="cls-7" x1="257.23" y1="416.51" x2="257.23" y2="417.12"/><line class="cls-7" x1="253.35" y1="416.51" x2="253.35" y2="417.12"/><line class="cls-7" x1="249.47" y1="416.51" x2="249.47" y2="417.12"/><line class="cls-7" x1="245.59" y1="416.51" x2="245.59" y2="417.12"/><line class="cls-7" x1="241.71" y1="416.51" x2="241.71" y2="417.12"/><line class="cls-7" x1="237.83" y1="416.51" x2="237.83" y2="417.12"/><line class="cls-7" x1="233.95" y1="416.51" x2="233.95" y2="417.12"/><line class="cls-7" x1="230.07" y1="416.51" x2="230.07" y2="417.12"/><line class="cls-7" x1="226.19" y1="416.51" x2="226.19" y2="417.12"/><line class="cls-7" x1="222.31" y1="416.51" x2="222.31" y2="417.12"/><line class="cls-7" x1="218.43" y1="416.51" x2="218.43" y2="417.12"/><line class="cls-7" x1="214.55" y1="416.51" x2="214.55" y2="417.12"/><line class="cls-7" x1="210.67" y1="416.51" x2="210.67" y2="417.12"/><line class="cls-7" x1="206.79" y1="416.51" x2="206.79" y2="417.12"/><line class="cls-7" x1="202.91" y1="416.51" x2="202.91" y2="417.12"/><line class="cls-7" x1="199.03" y1="416.51" x2="199.03" y2="417.12"/><line class="cls-7" x1="195.15" y1="416.51" x2="195.15" y2="417.12"/><line class="cls-7" x1="191.27" y1="416.51" x2="191.27" y2="417.12"/><line class="cls-7" x1="187.39" y1="416.51" x2="187.39" y2="417.12"/><line class="cls-7" x1="183.5" y1="416.51" x2="183.5" y2="417.12"/><line class="cls-7" x1="179.62" y1="416.51" x2="179.62" y2="417.12"/><line class="cls-7" x1="175.74" y1="416.51" x2="175.74" y2="417.12"/><line class="cls-7" x1="171.86" y1="416.51" x2="171.86" y2="417.12"/><line class="cls-7" x1="167.98" y1="416.51" x2="167.98" y2="417.12"/><line class="cls-7" x1="164.1" y1="416.51" x2="164.1" y2="417.12"/><line class="cls-7" x1="160.22" y1="416.51" x2="160.22" y2="417.12"/><line class="cls-7" x1="156.34" y1="416.51" x2="156.34" y2="417.12"/><line class="cls-7" x1="152.46" y1="416.51" x2="152.46" y2="417.12"/><line class="cls-7" x1="148.58" y1="416.51" x2="148.58" y2="417.12"/><line class="cls-7" x1="144.7" y1="416.51" x2="144.7" y2="417.12"/><line class="cls-7" x1="140.82" y1="416.51" x2="140.82" y2="417.12"/><line class="cls-7" x1="136.94" y1="416.51" x2="136.94" y2="417.12"/><line class="cls-7" x1="133.06" y1="416.51" x2="133.06" y2="417.12"/><line class="cls-7" x1="269.62" y1="347.63" x2="270.16" y2="347.63"/><line class="cls-7" x1="123.65" y1="345" x2="126.9" y2="345"/><line class="cls-7" x1="128.35" y1="345" x2="131.6" y2="345"/><line class="cls-7" x1="124.21" y1="353.63" x2="126.56" y2="353.63"/><line class="cls-7" x1="128.91" y1="353.63" x2="131.27" y2="353.63"/><line class="cls-7" x1="124.21" y1="367.6" x2="126.56" y2="367.6"/><line class="cls-7" x1="128.91" y1="367.6" x2="131.27" y2="367.6"/><line class="cls-7" x1="124.21" y1="381.58" x2="126.56" y2="381.58"/><line class="cls-7" x1="128.91" y1="381.58" x2="131.27" y2="381.58"/><line class="cls-7" x1="128.91" y1="395.55" x2="131.27" y2="395.55"/><line class="cls-7" x1="124.21" y1="409.53" x2="126.56" y2="409.53"/><line class="cls-7" x1="128.91" y1="409.53" x2="131.27" y2="409.53"/><rect class="cls-2" x="155.35" y="271.74" width="114.48" height="202.23" transform="translate(585.44 160.27) rotate(90)"/><rect class="cls-4" x="90.74" y="443.29" width="243.7" height="2.55"/><rect class="cls-2" x="90.74" y="440.89" width="243.7" height="4.95"/><path class="cls-12" d="M320.1,450.79h-215a16.2,16.2,0,0,1-6.75-1.47l-7.59-3.48h243.7l-7.59,3.48A16.2,16.2,0,0,1,320.1,450.79Z"/><path class="cls-12" d="M230.89,440.89l-1.31,1.16a2.59,2.59,0,0,1-1.69.57h-30.6a2.59,2.59,0,0,1-1.69-.57l-1.31-1.16Z"/><line class="cls-2" x1="346.35" y1="450.79" x2="83.11" y2="450.79"/><line class="cls-2" x1="353.56" y1="450.79" x2="358.59" y2="450.79"/><line class="cls-2" x1="534.65" y1="450.79" x2="796.89" y2="450.79"/><line class="cls-2" x1="524.03" y1="450.79" x2="516.15" y2="450.79"/><line class="cls-2" x1="323.72" y1="470.95" x2="556.8" y2="470.95"/><line class="cls-2" x1="568.83" y1="470.95" x2="573.73" y2="470.95"/><line class="cls-2" x1="472.13" y1="491.08" x2="416.47" y2="491.08"/><line class="cls-2" x1="403.1" y1="491.08" x2="394.38" y2="491.08"/><line class="cls-2" x1="481.31" y1="491.08" x2="485.62" y2="491.08"/><rect class="cls-9" x="203.57" y="54.11" width="472.87" height="274.53"/><path class="cls-13" d="M214.76,69.27a3.52,3.52,0,1,1-3.51-3.51,3.52,3.52,0,0,1,3.51,3.51"/><path class="cls-14" d="M225.64,69.27a3.52,3.52,0,1,1-3.52-3.51,3.52,3.52,0,0,1,3.52,3.51"/><path class="cls-15" d="M236.52,69.27A3.52,3.52,0,1,1,233,65.75a3.52,3.52,0,0,1,3.51,3.51"/><path class="cls-16" d="M231.17,72.26A3.5,3.5,0,0,1,236,67.43a3.51,3.51,0,1,0-4.82,4.82Z"/><path class="cls-16" d="M220.29,72.26a3.5,3.5,0,0,1,4.82-4.82,3.51,3.51,0,1,0-4.82,4.82Z"/><path class="cls-16" d="M209.41,72.26a3.5,3.5,0,0,1,4.82-4.82,3.51,3.51,0,1,0-4.82,4.82Z"/><rect class="cls-17" x="209.02" y="87.52" width="464.26" height="237.96"/><rect class="cls-18" x="207.87" y="86.37" width="464.26" height="237.96"/><rect class="cls-17" x="207.87" y="87.52" width="464.26" height="15.33"/><rect class="cls-19" x="207.87" y="86.37" width="464.26" height="15.33"/><rect class="cls-20" x="555.12" y="91.65" width="4.77" height="4.77"/><circle class="cls-20" cx="592.42" cy="94.04" r="2.38"/><circle class="cls-21" cx="663.83" cy="94.04" r="3.97"/><circle class="cls-20" cx="640.55" cy="94.04" r="2.38"/><circle class="cls-20" cx="627.33" cy="94.04" r="2.38"/><circle class="cls-20" cx="614.1" cy="94.04" r="2.38"/><line class="cls-22" x1="651.4" y1="90.86" x2="651.4" y2="97.21"/><rect class="cls-20" x="576.81" y="91.65" width="4.77" height="4.77"/><line class="cls-22" x1="603.26" y1="90.86" x2="603.26" y2="97.21"/><rect class="cls-20" x="541.9" y="91.65" width="4.77" height="4.77"/><line class="cls-22" x1="568.35" y1="90.86" x2="568.35" y2="97.21"/><polygon class="cls-23" points="216.67 97.69 216.67 97 216.67 97 216.67 94 216.67 91.08 216.67 90.4 214.56 91.61 214.56 96.47 216.67 97.69 216.68 97.68 216.67 97.69"/><polygon class="cls-24" points="222.97 96.48 222.98 94.05 222.39 94.39 219.82 95.87 217.26 97.35 216.68 97.68 216.67 97.69 218.77 98.91 222.97 96.48"/><polygon class="cls-25" points="217.26 90.74 219.83 92.22 222.39 93.7 222.98 94.04 222.98 91.62 218.77 89.19 216.67 90.4 217.26 90.74"/><line class="cls-26" x1="227.25" y1="94.05" x2="253.8" y2="94.05"/><line class="cls-27" x1="222.58" y1="109.63" x2="267.85" y2="109.63"/><polygon class="cls-17" points="223.73 115.21 223.73 119.84 223.73 129.94 659.36 129.94 659.36 119.84 659.36 115.21 223.73 115.21"/><rect class="cls-28" x="222.58" y="118.69" width="435.63" height="10.1"/><line class="cls-29" x1="230.64" y1="123.74" x2="239.84" y2="123.74"/><line class="cls-30" x1="610.19" y1="109.63" x2="658.21" y2="109.63"/><rect class="cls-31" x="222.58" y="114.06" width="435.63" height="4.63"/><rect class="cls-17" x="223.73" y="133.94" width="435.63" height="175.74"/><rect class="cls-28" x="222.58" y="132.79" width="435.63" height="175.74"/><line class="cls-29" x1="570.87" y1="131.61" x2="570.87" y2="302.52"/><rect class="cls-29" x="574.53" y="140.97" width="31.86" height="6.44"/><rect class="cls-29" x="574.53" y="159.21" width="79.58" height="6.44"/><rect class="cls-29" x="574.53" y="183.96" width="79.58" height="8.35"/><rect class="cls-29" x="574.53" y="235.8" width="79.58" height="8.35"/><rect class="cls-29" x="574.53" y="244.16" width="79.58" height="8.35"/><rect class="cls-29" x="574.53" y="252.51" width="79.58" height="8.35"/><rect class="cls-29" x="574.53" y="260.86" width="79.58" height="8.35"/><rect class="cls-29" x="574.53" y="192.31" width="79.58" height="43.49"/><rect class="cls-29" x="622.25" y="140.97" width="31.86" height="6.44"/><line class="cls-29" x1="574.53" y1="137.99" x2="582.06" y2="137.99"/><line class="cls-29" x1="574.53" y1="150.39" x2="594.97" y2="150.39"/><line class="cls-29" x1="574.53" y1="156.22" x2="577.76" y2="156.22"/><line class="cls-29" x1="574.53" y1="171.62" x2="599.26" y2="171.62"/><line class="cls-29" x1="613.4" y1="143.96" x2="615.24" y2="143.96"/><line class="cls-27" x1="577.99" y1="188.14" x2="586.88" y2="188.14"/><line class="cls-29" x1="577.99" y1="196.99" x2="582.58" y2="196.99"/><line class="cls-29" x1="577.99" y1="203.4" x2="593.33" y2="203.4"/><line class="cls-29" x1="577.99" y1="209.81" x2="589.03" y2="209.81"/><line class="cls-29" x1="577.99" y1="216.23" x2="595.49" y2="216.23"/><line class="cls-29" x1="577.99" y1="222.64" x2="589.03" y2="222.64"/><line class="cls-29" x1="577.99" y1="229.05" x2="582.58" y2="229.05"/><line class="cls-29" x1="577.99" y1="239.98" x2="586.88" y2="239.98"/><line class="cls-29" x1="577.99" y1="248.33" x2="597.64" y2="248.33"/><line class="cls-29" x1="577.99" y1="256.69" x2="601.94" y2="256.69"/><line class="cls-29" x1="577.99" y1="265.04" x2="600.63" y2="265.04"/><rect class="cls-31" x="224.98" y="122.62" width="2.24" height="2.24"/><line class="cls-22" x1="295.19" y1="115.15" x2="295.19" y2="117.6"/><line class="cls-22" x1="367.79" y1="115.15" x2="367.79" y2="117.6"/><line class="cls-22" x1="440.4" y1="115.15" x2="440.4" y2="117.6"/><line class="cls-22" x1="513" y1="115.15" x2="513" y2="117.6"/><line class="cls-22" x1="585.61" y1="115.15" x2="585.61" y2="117.6"/><line class="cls-27" x1="227.78" y1="136.45" x2="267.85" y2="136.45"/><rect class="cls-29" x="227.78" y="140.85" width="337.89" height="155.22"/><line class="cls-29" x1="241.03" y1="298.22" x2="241.03" y2="143"/><line class="cls-29" x1="254.28" y1="298.22" x2="254.28" y2="143"/><line class="cls-29" x1="267.53" y1="298.22" x2="267.53" y2="143"/><line class="cls-29" x1="280.78" y1="298.22" x2="280.78" y2="143"/><line class="cls-29" x1="294.03" y1="298.22" x2="294.03" y2="143"/><line class="cls-29" x1="307.29" y1="298.22" x2="307.29" y2="143"/><line class="cls-29" x1="320.54" y1="298.22" x2="320.54" y2="143"/><line class="cls-29" x1="333.79" y1="298.22" x2="333.79" y2="143"/><line class="cls-29" x1="347.04" y1="298.22" x2="347.04" y2="143"/><line class="cls-29" x1="360.29" y1="298.22" x2="360.29" y2="143"/><line class="cls-29" x1="373.54" y1="298.22" x2="373.54" y2="143"/><line class="cls-29" x1="386.79" y1="298.22" x2="386.79" y2="143"/><line class="cls-29" x1="400.04" y1="298.22" x2="400.04" y2="143"/><line class="cls-29" x1="413.29" y1="298.22" x2="413.29" y2="143"/><line class="cls-29" x1="426.54" y1="298.22" x2="426.54" y2="143"/><line class="cls-29" x1="439.79" y1="298.22" x2="439.79" y2="143"/><line class="cls-29" x1="453.04" y1="298.22" x2="453.04" y2="143"/><line class="cls-29" x1="466.29" y1="298.22" x2="466.29" y2="143"/><line class="cls-29" x1="479.54" y1="298.22" x2="479.54" y2="143"/><line class="cls-29" x1="492.8" y1="298.22" x2="492.8" y2="143"/><line class="cls-29" x1="506.05" y1="298.22" x2="506.05" y2="143"/><line class="cls-29" x1="519.3" y1="298.22" x2="519.3" y2="143"/><line class="cls-29" x1="532.55" y1="298.22" x2="532.55" y2="143"/><line class="cls-29" x1="545.8" y1="298.22" x2="545.8" y2="143"/><line class="cls-29" x1="559.05" y1="298.22" x2="559.05" y2="143"/><polygon class="cls-31" points="565.67 148.33 559.05 151.13 552.42 151.13 545.8 154.87 539.17 157.06 519.3 157.06 512.67 160.64 506.05 162.2 499.42 170.3 492.8 172.33 472.92 172.33 466.29 176.38 459.67 182.46 453.04 184.95 433.17 184.95 426.54 186.98 419.92 189.47 413.29 192.59 406.67 198.04 400.04 201.47 366.91 201.47 360.29 205.21 353.66 207.71 347.04 207.71 340.41 207.71 333.79 211.13 327.16 213.32 320.54 218.46 313.91 224.38 307.29 225.63 300.66 225.63 294.04 228.12 287.41 230.46 280.78 232.17 274.16 233.89 267.53 237.47 260.91 240.43 254.28 240.43 247.66 241.84 241.03 243.71 234.41 246.51 227.78 249.32 227.78 296.07 565.67 296.07 565.67 148.33"/><polygon class="cls-32" points="565.67 178.08 559.05 179.25 552.42 180.42 545.8 184.98 539.17 186.38 525.92 186.38 519.3 189.07 512.67 195.26 506.05 196.31 499.42 199.24 492.8 201.57 472.92 201.57 466.29 204.96 459.67 207.89 453.04 210.22 446.42 212.09 433.17 212.09 426.54 214.55 419.92 216.89 413.29 219.46 406.67 224.83 400.04 228.34 366.91 228.34 360.29 230.79 353.66 233.37 340.41 233.37 333.79 238.16 327.16 241.66 320.54 244.24 313.91 248.56 307.29 250.43 300.66 250.43 294.04 251.48 287.41 256.04 280.78 258.85 274.16 262.35 267.53 264.69 260.91 266.68 254.28 266.68 247.66 267.26 241.03 271 234.41 272.05 227.78 273.34 227.78 296.07 565.67 296.07 565.67 178.08"/><polygon class="cls-33" points="227.78 285.09 234.41 283.19 241.03 281.3 247.66 276.89 254.28 276.89 260.91 275.94 267.53 274.68 274.16 272.16 280.78 269.32 287.41 266.33 294.04 261.28 300.66 258.92 307.29 258.92 313.91 257.81 320.54 254.19 327.16 251.04 333.79 248.51 340.41 243.47 353.66 243.47 360.29 241.42 366.91 239.03 400.04 239.03 406.67 237.16 413.29 231.33 419.92 226.92 426.54 222.98 433.17 220.14 446.42 220.14 453.04 218.46 459.67 216.67 466.29 214.47 472.92 211.15 479.55 207.69 492.8 207.69 499.42 206.27 506.05 203.9 512.67 201.85 519.3 197.6 525.92 193.81 532.55 192.55 545.8 192.55 552.42 189.4 559.05 186.88 565.67 184.99 565.67 296.07 227.78 296.07 227.78 285.09"/><polygon class="cls-34" points="241.03 296.07 247.66 291.39 254.28 290.3 267.53 290.3 274.16 288.9 280.78 287.34 287.41 282.36 294.04 280.8 307.29 280.8 313.91 279.24 320.54 276.9 327.16 272.54 333.79 264.28 340.41 260.23 400.04 260.23 406.67 255.08 413.29 251.5 419.92 249.32 426.54 243.71 433.17 241.99 453.04 241.99 459.67 240.43 466.29 240.43 472.92 236.22 492.8 236.22 499.42 230.93 506.05 228.28 512.67 227.19 519.3 222.2 525.92 220.02 545.8 220.02 552.42 216.12 559.05 216.12 565.67 209.26 565.67 296.07 241.03 296.07"/><path class="cls-35" d="M517.92,466.38l-19.53-19.55a15.11,15.11,0,0,1-3.8-11L502,373.28a5.61,5.61,0,0,0-5.69-6.41H384.16a5.61,5.61,0,0,0-5.69,6.41l7.44,62.57h0a15.11,15.11,0,0,1-3.8,11l-19.53,19.55c-2.51,2.52-1.66,4.57,1.89,4.57H516C519.57,470.95,520.43,468.89,517.92,466.38Z"/><polygon class="cls-36" points="383.31 413.18 496.71 418.91 499.44 395.93 381.26 395.93 383.31 413.18"/><line class="cls-37" x1="382.11" y1="446.83" x2="476.13" y2="446.83"/><path class="cls-35" d="M679.11,395.93H200.89a20.7,20.7,0,0,1-20.7-20.7V349.68H699.81v25.54A20.7,20.7,0,0,1,679.11,395.93Z"/><path class="cls-36" d="M699.81,375.23V353.13H185.94v25.54a20.64,20.64,0,0,0,7.32,15.78,20.61,20.61,0,0,0,7.63,1.47H679.11A20.7,20.7,0,0,0,699.81,375.23Z"/><line class="cls-38" x1="419.18" y1="372.81" x2="460.82" y2="372.81"/><polygon class="cls-17" points="205.26 328.99 205.26 56.06 677.04 56.06 677.04 53.76 202.96 53.76 202.96 328.99 205.26 328.99"/><path class="cls-39" d="M679.11,28.92H200.89a20.7,20.7,0,0,0-20.7,20.7V349.68H699.81V49.62A20.7,20.7,0,0,0,679.11,28.92ZM677,329H203V53.76H677Z"/><path class="cls-36" d="M684.86,34.67H206.64a20.7,20.7,0,0,0-20.7,20.7V349.68H699.81V49.62a20.6,20.6,0,0,0-3.48-11.47A20.6,20.6,0,0,0,684.86,34.67Zm-3.22,298.92H207.56L203,329V53.76H677l4.6,4.6Z"/><path class="cls-40" d="M679.11,28.92H200.89a20.7,20.7,0,0,0-20.7,20.7V349.68H699.81V49.62A20.7,20.7,0,0,0,679.11,28.92ZM677,329H203V53.76H677Z"/><line class="cls-41" x1="237.55" y1="183.33" x2="352.45" y2="87.6"/><line class="cls-41" x1="238.4" y1="137.63" x2="307.34" y2="80.19"/></g></g></svg>