<svg id="Layer_1" data-name="Layer 1" xmlns="http://www.w3.org/2000/svg" viewBox="0 0 160 36.46"><defs><style>.cls-1{fill:#3c3c93;}.cls-2{fill:#819a4a;}.cls-3{fill:#9bb877;}</style></defs><title>1-800-flowers_com</title><path class="cls-1" d="M143.9,95.44a7.66,7.66,0,0,1-4.68,4.22,2.76,2.76,0,0,1-1.71-.19c-.7-3.29.88-6.81,3.15-9.22a13.19,13.19,0,0,1,6.53-3.75c-2.5,2.36-1.62,6.12-3.29,8.94Z" transform="translate(-20 -81.77)"/><path class="cls-1" d="M142.75,87.1c-3.66,2.36-7.18,6.86-6.39,11.54-1.95-.69-3.06-2.83-3.34-4.91a6.28,6.28,0,0,1,2.22-5.61c1.95-1.62,4.17-3.57,4.22-6.35C141.4,82.69,142.38,85,142.75,87.1Zm-76.6,16.63h1.71v-2.78c0-2.22.93-3.15,3.2-3.15a6.61,6.61,0,0,1,2.08.37v2.55a6.16,6.16,0,0,0-.88,0,1.05,1.05,0,0,0-1.2,1.11v1.95h2v2.69h-2v11.3h-3.2v-11.3H66.15Zm8.2-5.84h3.2v19.83h-3.2Zm9.5,8.11c1,0,1.25,1.48,1.25,4.68s-.23,4.72-1.25,4.72-1.3-1.57-1.3-4.72S82.88,106,83.85,106Zm-4.73,4.73c0,4.82,1.67,7.32,4.73,7.32s4.68-2.5,4.68-7.32-1.62-7.41-4.68-7.41S79.13,105.81,79.13,110.73Zm13.21-7,.69,6q.14.76.28,3.06c.09-1.25.23-2.32.37-3.15l.74-5.88H97.1l.69,6c0,.51.19,1.53.28,3.06.09-1.25.23-2.32.37-3.15l.74-5.88h2.41l-1.95,14H96.59l-.83-5.65c-.14-1-.28-1.9-.32-2.83-.09,1.11-.19,2-.32,2.83l-1,5.65H91.22l-1.85-14h3ZM106,109.06a4.72,4.72,0,0,1,0-.79c0-1.48.32-2.22,1-2.22s1,.69,1,2.18a5.26,5.26,0,0,1,0,.83H106Zm5.28,4.82-2.41-.56c-.09,1.16-.7,1.85-1.48,1.85-1,0-1.34-1-1.34-3v-.46h5.1a8.84,8.84,0,0,0,0-1.11c0-4.87-1.53-7.28-4.22-7.28s-4.54,2.59-4.54,7.55c0,4.59,1.9,7.18,4.68,7.18,2.13,0,3.57-1.44,4.17-4.22ZM113,103.73h3.2v1.95a4.54,4.54,0,0,1,3.57-2.22v3.71a9.23,9.23,0,0,0-1.34-.18c-1.39,0-2.22.65-2.22,1.62v9.13H113v-14h0Zm9.92,9.45c.09,1.53.46,2.22,1.39,2.22a1.19,1.19,0,0,0,1.25-1.11c0-.83-.46-1.11-1.25-1.71-2.23-1.67-3.85-2.69-3.85-5.05a3.91,3.91,0,0,1,4.22-4.17c2.27,0,3.61,1.39,3.8,4l-2.69.42v-.09c0-1.16-.51-1.81-1.2-1.81a1.07,1.07,0,0,0-1,1.07c0,1,.79,1.39,1.95,2.18,2.08,1.44,3.24,2.55,3.24,4.68a4,4,0,0,1-4.4,4.22c-2.6,0-4.08-1.53-4.08-4.12v-.33l2.64-.42Z" transform="translate(-20 -81.77)"/><path class="cls-2" d="M20,115.31h1.81V104.38l-1.76.28v-2a7.94,7.94,0,0,0,3.2-1.85h1.67v14.5h1.81v2.45H20Zm6.9-5H31.4v2.5H26.9v-2.5Zm9.64.46c1.25,1.16,1.9,2,1.9,3.11a1.62,1.62,0,0,1-1.53,1.81c-.93,0-1.39-.7-1.39-2a5.07,5.07,0,0,1,1-2.92Zm.79-3.71A4,4,0,0,1,36,104.42c0-1,.56-1.62,1.11-1.62.74,0,1.25.65,1.25,1.71a4.27,4.27,0,0,1-1,2.55Zm-2.08,2.32a5.34,5.34,0,0,0-2.46,4.4A4,4,0,0,0,36.91,118c2.59,0,4.26-1.67,4.26-4.54a6.91,6.91,0,0,0-2.36-5.05,5.41,5.41,0,0,0,2-4.17,3.56,3.56,0,0,0-3.8-3.75c-2.13,0-3.75,1.71-3.75,4.26A6.43,6.43,0,0,0,35.25,109.38Zm10.38-.18v-1.76c0-3.2,0-4.63,1-4.63s1,1.44,1,4.63V111c0,3.15,0,4.63-1,4.63s-1-1.48-1-4.63V109.2Zm-3.2,0c0,5.88,1.34,8.8,4.22,8.8s4.17-3,4.17-8.8-1.39-8.71-4.26-8.71c-2.69,0-4.12,2.92-4.12,8.71Zm12.74,0v-1.76c0-3.2.09-4.63,1-4.63s1,1.44,1,4.63V111c0,3.15-.09,4.63-1,4.63s-1-1.48-1-4.63V109.2Zm-3.2,0c0,5.88,1.39,8.8,4.26,8.8,2.69,0,4.17-3,4.17-8.8s-1.44-8.71-4.26-8.71S52,103.45,52,109.24Zm9.68,1.07h4.49v2.5H61.66Z" transform="translate(-20 -81.77)"/><path class="cls-3" d="M136.68,99.37a.21.21,0,0,0-.28.14h0a35.1,35.1,0,0,0-2.35,6.2,33.78,33.78,0,0,0-2.52-6.16c-2.09-3.85-4.26-7.65-7.55-10a.24.24,0,0,0-.35,0l0,0a.37.37,0,0,0,.09.42h0c2.92,2.73,4.45,6.9,6.39,10.61,1.53,4.22,3,8.67,2.5,13.35a1.4,1.4,0,0,0,1.48,1.34,1.24,1.24,0,0,0,.76-.39.67.67,0,0,0,.4-.77c0-.06,0-.12,0-.18a1.91,1.91,0,0,0,0-.32,27.32,27.32,0,0,0-.38-4.41,20.27,20.27,0,0,1,.61-4.08,38.18,38.18,0,0,0,1.34-5.51A.19.19,0,0,0,136.68,99.37Zm-1.44,14.78v-.06s0-.07,0-.1Z" transform="translate(-20 -81.77)"/><path class="cls-2" d="M176.25,115.31a1,1,0,0,0-.74-.33c-.28,0-.46.14-.46.37,0,.6,1.34.6,1.34,1.57a.84.84,0,0,1-.88.83,1.52,1.52,0,0,1-.88-.28v-.56a1.1,1.1,0,0,0,.83.46A.47.47,0,0,0,176,117c0-.65-1.34-.69-1.34-1.58a.83.83,0,0,1,.93-.83,1.37,1.37,0,0,1,.69.23v.51Zm3.75,2.41h-.46v-2.41l-1,1.2h-.09l-.93-1.2h0v2.41h-.42v-3.1h.42l1,1.3,1.06-1.3H180v3.1Zm-48.7-2.08a2.48,2.48,0,0,1,.74-1.85,2.56,2.56,0,0,1,1.81-.74,2.59,2.59,0,0,1,1.85.74,2.48,2.48,0,0,1,.74,1.85,2.38,2.38,0,0,1-.74,1.81,2.52,2.52,0,0,1-1.85.79,2.49,2.49,0,0,1-1.81-.79A2.38,2.38,0,0,1,131.3,115.64ZM142.88,118c-2.92,0-4.45-2.36-4.45-7,0-5,1.76-7.65,4.49-7.65,2.5,0,3.89,1.72,3.89,5v.46H144v-.6c0-1.58-.32-2.36-.93-2.36-.83,0-.93,1.3-.93,3.89,0,3.75.19,5.47,1.07,5.47s1.2-.93,1.2-2.78v-.19l2.69.09c0,3.66-1.57,5.66-4.17,5.66ZM153,106c1.06,0,1.3,1.48,1.3,4.73s-.28,4.68-1.3,4.68-1.25-1.53-1.25-4.68S152.06,106,153,106Zm-4.68,4.73c0,4.82,1.67,7.32,4.68,7.32s4.72-2.5,4.72-7.32-1.62-7.37-4.72-7.37S148.31,105.86,148.31,110.73Zm11.17-7h3.2V105a3.71,3.71,0,0,1,2.73-1.58,2.28,2.28,0,0,1,2.22,1.58,3.87,3.87,0,0,1,2.78-1.58c1.53,0,2.18.88,2.18,2.73v11.58h-3.2V107.07c0-.56-.23-.88-.74-.88a1.24,1.24,0,0,0-1,.7v10.84h-3.2V107.07c0-.56-.28-.88-.74-.88a1.18,1.18,0,0,0-1,.7v10.84h-3.2v-14Z" transform="translate(-20 -81.77)"/></svg>