<svg id="Layer_1" data-name="Layer 1" xmlns="http://www.w3.org/2000/svg" viewBox="0 0 160 36"><defs><style>.cls-1{fill:#33348e;}.cls-2{fill:#cc2229;}</style></defs><title>24hour_fitness</title><path class="cls-1" d="M67.59,96.93,68,96c.68-1.91,1.78-2.32,4.51-2.32h7l1.23-3.14H75.24c-8.33,0-10.24,1-11.75,5.33l-4,10.65H64l2.46-6.42h9.56l1.23-3.14Z" transform="translate(-20 -82)"/><polygon class="cls-1" points="56.74 24.49 61.39 24.49 67.26 8.51 62.75 8.51 56.74 24.49"/><path class="cls-1" d="M58.44,88.6C56.53,85,53,82.72,48.33,82.18,38.5,80.81,26.62,87.5,22,97.34c-2.46,4.92-2.6,10.11-.55,13.93,1.91,3.55,5.46,5.87,10.11,6.56,10,1.37,21.85-5.46,26.5-15.3C60.35,97.61,60.49,92.56,58.44,88.6ZM30.17,100.89a2.78,2.78,0,0,1,.14-1.78l.41-1A4.54,4.54,0,0,1,32.49,96a4.37,4.37,0,0,1,2.6-1h4.23c1,0,1.78-.14,2-1,.14-.55.82-1.37-1-1.37H34l1-2.18h7.1c2,0,2.73,1.37,2,2.87l-.27,1a7.55,7.55,0,0,1-1.91,2.32,4.06,4.06,0,0,1-2.46.55H34.81c-1.37,0-2.46,2.32-1.09,2.32h9l-.55,1.37-.41,1H32.22c-1,0-1.78-.27-2-1m12,0h0m-10.38,5.6H31l.41-1.37H29.49l-.55,1.37H28l1.37-3.41h.82l-.41,1.37h1.91l.55-1.37h1Zm5.46-2.59-.68,1.91a1.28,1.28,0,0,1-1.23.68H34c-.27,0-.55,0-.68-.27a.83.83,0,0,1-.14-.55l.82-1.91a1.57,1.57,0,0,1,1.23-.68h1.37a1,1,0,0,1,.68.27A.42.42,0,0,1,37.27,103.9Zm2.46,2.59H38.5c-.41,0-.55,0-.68-.27a.83.83,0,0,1-.14-.55l1-2.59h.82l-1,2.59v.14l.14.14h1.23a.44.44,0,0,0,.41-.41l1-2.46h.82l-1,2.73A1.63,1.63,0,0,1,39.73,106.49Zm6.15-1.09c.27.14.55.82.55.82l.27.27H45.6l-.55-.82a1.16,1.16,0,0,0-.82-.27h-1a9.39,9.39,0,0,1-.41,1.09h-1l1.23-2.87c0-.41.68-.55,1.23-.55H46a1.59,1.59,0,0,1,1,.27.42.42,0,0,1,.14.27l-.55,1.23c0,.13-.41.41-.82.41Zm10.52-4.64H52.84v.14l-2.18,5.6H47.93l2.18-5.6v-.14H47a2.92,2.92,0,0,1-2.6-1.09A1.45,1.45,0,0,1,44.1,98l3.14-7.51h2.87l-3,7s-.27,1,1.23,1h2.73l1.37-3.55h2.73L53.8,98.43h3.28Z" transform="translate(-20 -82)"/><polygon class="cls-1" points="85.02 8.51 69.04 8.51 67.94 11.65 73.54 11.65 68.76 24.49 73.41 24.49 78.19 11.65 83.79 11.65 85.02 8.51"/><path class="cls-1" d="M45.74,103.62H44.37a.71.71,0,0,0-.55.27l-.27.68s0,.14.27.14h1.5a.6.6,0,0,0,.41-.14l.41-.82S46.15,103.62,45.74,103.62Z" transform="translate(-20 -82)"/><path class="cls-1" d="M34.68,104l-.41,1.23-.14.41c-.14.14-.14.14,0,.27h1.23a.44.44,0,0,0,.41-.41l.68-1.64v-.14H35.22C34.81,103.76,34.81,104,34.68,104Z" transform="translate(-20 -82)"/><path class="cls-1" d="M178.36,90.51a1.58,1.58,0,1,0,0,3.14A1.58,1.58,0,0,0,180,92,1.55,1.55,0,0,0,178.36,90.51Zm0,2.87A1.29,1.29,0,0,1,177,92a1.22,1.22,0,0,1,1.23-1.23h.13A1.35,1.35,0,0,1,179.73,92,1.37,1.37,0,0,1,178.36,93.38Z" transform="translate(-20 -82)"/><path class="cls-1" d="M179,91.6c0-.27-.13-.41-.68-.41h-.68V93H178v-.82h.41l.41.82h.41l-.55-.82C178.91,92.15,179,92,179,91.6Zm-1.09.27v-.55h.41c.27,0,.41.14.41.27s-.14.27-.27.27Z" transform="translate(-20 -82)"/><path class="cls-1" d="M164.29,90.51c-2.87,0-4.64,2-5.6,4.1L158.15,96a3.18,3.18,0,0,0,.27,3.14,2.83,2.83,0,0,0,2.59,1h6.69c1,0,1.37.14,1.23.82s-.82,2.32-2.46,2.46H155.42l-1.23,3.14h12.43a5.72,5.72,0,0,0,5.74-3.82l.55-1.37a3.19,3.19,0,0,0-.27-3.14,3.53,3.53,0,0,0-2.87-1.23h-5.46c-1.37,0-2.59.27-1.64-1.78a2.58,2.58,0,0,1,2.46-1.5h9.43l1.23-3.14H164.29Z" transform="translate(-20 -82)"/><path class="cls-1" d="M114.71,90.37h-.14c-4.92,0-8.2,1.09-9.83,4.37-.41.82-4.37,11.75-4.37,11.75h4.51l2.46-6.69s1.37-3.55,1.78-4.23c.82-1.5,2-1.91,4.37-1.91s4-.14,3.28,1.91c-.27.68-1.5,4.23-1.5,4.23l-2.46,6.69h4.51s3.69-10,4.1-10.93C122.64,91.88,119.63,90.37,114.71,90.37Z" transform="translate(-20 -82)"/><path class="cls-1" d="M154.87,101.3a3.58,3.58,0,0,0-.13-3.14,4,4,0,0,0-3-1.23h-5.46c-1.37,0-2.59.27-1.64-1.78a2.58,2.58,0,0,1,2.46-1.5h9.42l1.23-3.14H146.26c-2.87,0-4.64,2-5.6,4.1L140.12,96a3.57,3.57,0,0,0,.27,3.14,2.83,2.83,0,0,0,2.6,1h6.69c1,0,1.37.14,1.23.82s-.82,2.32-2.46,2.46H137.39l-1.23,3.14h12.43a5.72,5.72,0,0,0,5.74-3.82Z" transform="translate(-20 -82)"/><path class="cls-1" d="M125.91,102.66a1.23,1.23,0,0,1-.14-.68,2.66,2.66,0,0,1,.14-1s.27-.68.41-1h10.24l1.23-3.14H127.55l.41-1c.68-1.91,2.6-2.32,6.42-2.32H139l1.09-3.14h-5.33c-8.2,0-10.24,2-11.34,5.19l-2,5.46c-.55,1.37-.55,2.46.14,3.28,1,1.23,3.41,2,7,2h5.74l1.09-3.14h-6.56C127.28,103.35,126.19,103.07,125.91,102.66Z" transform="translate(-20 -82)"/><path class="cls-2" d="M34.68,104l-.41,1.23-.14.41c-.14.14-.14.14,0,.27h1.23a.44.44,0,0,0,.41-.41l.68-1.64v-.14H35.22C34.81,103.76,34.81,104,34.68,104Z" transform="translate(-20 -82)"/><path class="cls-2" d="M57.21,88.46c-2-2.87-5.33-4.37-9.42-4.37-8.6,0-18.16,7.1-21.17,15.71-1.5,4.37-1.23,8.47,1,11.47s5.33,4.37,9.42,4.37c8.6,0,18.17-7.1,21.17-15.71C59.67,95.56,59.4,91.47,57.21,88.46Zm-27,12.43a2.78,2.78,0,0,1,.14-1.78l.41-1A4.54,4.54,0,0,1,32.49,96a4.37,4.37,0,0,1,2.6-1h4.23c1,0,1.78-.14,2-1,.14-.55.82-1.37-1-1.37H34l1-2.18h7.1c2,0,2.73,1.37,2,2.87l-.27,1a7.55,7.55,0,0,1-1.91,2.32,4.06,4.06,0,0,1-2.46.55H34.81c-1.37,0-2.46,2.32-1.09,2.32h9l-.55,1.37-.41,1H32.22c-1,0-1.78-.27-2-1m12,0h0m-10.38,5.6H31l.41-1.37H29.49l-.55,1.37H28l1.37-3.41h.82l-.41,1.37h1.91l.55-1.37h1Zm5.46-2.59-.68,1.91a1.28,1.28,0,0,1-1.23.68H34c-.27,0-.55,0-.68-.27a.83.83,0,0,1-.14-.55l.82-1.91a1.57,1.57,0,0,1,1.23-.68h1.37a1,1,0,0,1,.68.27A.42.42,0,0,1,37.27,103.9Zm2.46,2.59H38.5c-.41,0-.55,0-.68-.27a.83.83,0,0,1-.14-.55l1-2.59h.82l-1,2.59v.14l.14.14h1.23a.44.44,0,0,0,.41-.41l1-2.46h.82l-1,2.73A1.63,1.63,0,0,1,39.73,106.49Zm6.15-1.09c.27.14.55.82.55.82l.27.27H45.6l-.55-.82a1.16,1.16,0,0,0-.82-.27h-1a9.39,9.39,0,0,1-.41,1.09h-1l1.23-2.87c0-.41.68-.55,1.23-.55H46a1.59,1.59,0,0,1,1,.27.42.42,0,0,1,.14.27l-.55,1.23c0,.13-.41.41-.82.41Zm10.52-4.64H52.84v.14l-2.18,5.6H47.93l2.18-5.6v-.14H47a2.92,2.92,0,0,1-2.6-1.09A1.45,1.45,0,0,1,44.1,98l3.14-7.51h2.87l-3,7s-.27,1,1.23,1h2.73l1.37-3.55h2.73L53.8,98.43h3.28Z" transform="translate(-20 -82)"/><path class="cls-2" d="M45.74,103.62H44.37a.71.71,0,0,0-.55.27l-.27.68s0,.14.27.14h1.5a.6.6,0,0,0,.41-.14l.41-.82S46.15,103.62,45.74,103.62Z" transform="translate(-20 -82)"/></svg>