<svg id="Layer_1" data-name="Layer 1" xmlns="http://www.w3.org/2000/svg" viewBox="0 0 160 12"><defs><style>.cls-1{fill:#0c0e0f;}.cls-2{fill:#4b69af;}</style></defs><title>absolute_software</title><path class="cls-1" d="M28.57,101.32H25.94l1.3-3.85,1.34,3.85ZM20,105.71h4.47l.59-1.88h4.39l.59,1.88h4.48l-5-11.42H24.89L20,105.71Zm20.62-6.23a1.79,1.79,0,0,1,2,1.88,1.86,1.86,0,0,1-2,2,1.89,1.89,0,0,1-2-2A1.83,1.83,0,0,1,40.62,99.48Zm-5.73,6.23h3.85V105a5.59,5.59,0,0,0,3,.88c2.13,0,4.81-1.09,4.81-4.47A4.22,4.22,0,0,0,42,96.88a5.08,5.08,0,0,0-3.3,1v-3.6H34.89v11.42Zm15.64-2.8a1.36,1.36,0,0,0,.25.5,2.7,2.7,0,0,0,1.71.5c.75,0,1.51-.21,1.51-.75a.35.35,0,0,0-.13-.25c-.21-.25-.79-.33-2-.5-.67-.13-1.34-.21-2-.38-1.67-.38-2.8-.79-2.8-2.43,0-2.72,4.18-2.76,5.35-2.76,2.47,0,4.85.59,5.39,2.84l-3.76.17c-.17-.88-1.55-.92-1.88-.92-.75,0-1.38.21-1.38.67,0,.29.25.42.75.54s2.84.42,3.43.5c1.3.21,2.89.46,2.89,2.22a2.28,2.28,0,0,1-.84,1.76c-.71.67-1.92,1.34-4.6,1.34a10.23,10.23,0,0,1-4.43-.79,2.28,2.28,0,0,1-1.34-2.09Zm14-3.76A2.19,2.19,0,0,1,67,101.36a2.16,2.16,0,0,1-2.3,2.26,2.22,2.22,0,0,1-2.51-2.26A2.12,2.12,0,0,1,64.5,99.14Zm-.13-2.22c-3.05,0-6.06,1.3-6.06,4.52s3.35,4.48,6.36,4.48c3.51,0,6.31-1.51,6.31-4.52C71,99.23,69.39,96.84,64.37,96.93Zm11.12,8.78H71.65V94.29h3.85Zm.75-8.57h3.85v4.27a1.9,1.9,0,0,0,.46,1.5,2.19,2.19,0,0,0,1.42.5,2.11,2.11,0,0,0,1.55-.59,2.51,2.51,0,0,0,.46-1.63V97.13h3.81v8.57H84.07v-1.17a4.93,4.93,0,0,1-3.76,1.34,5.48,5.48,0,0,1-1.63-.21,3.26,3.26,0,0,1-2.43-3.34V97.13Zm17.1,0h1.38v2.55H93.35v2.84c0,.75.42.75,1.38.75v2.43H92.31c-1.26,0-1.88-.13-2.38-.63a1.85,1.85,0,0,1-.38-1.34v-.59l0-3.47H88.42V97.14h1.21l0-2.55h3.68v2.55h0Zm5.81,3.35a2,2,0,0,1,2.17-1.42,2.5,2.5,0,0,1,1.55.5,1.74,1.74,0,0,1,.63.92H99.16Zm8.36,1.46a4.65,4.65,0,0,0-1.3-3.47c-1.3-1.34-3.26-1.59-5-1.59-1.25,0-3.85,0-5.27,1.92a4.07,4.07,0,0,0-.88,2.59,4.16,4.16,0,0,0,2.84,4,8.87,8.87,0,0,0,3.3.59,10.05,10.05,0,0,0,4.27-.92,4.38,4.38,0,0,0,1.8-1.84l-4-.21a1.67,1.67,0,0,1-.79.54,2.66,2.66,0,0,1-1.13.25A2.35,2.35,0,0,1,99,101.95h8.53Z" transform="translate(-20 -94)"/><path class="cls-2" d="M109.58,102.78a2.82,2.82,0,0,0,.79.67,7.2,7.2,0,0,0,4.27,1.13c2.51,0,3.85-.92,3.85-2.3,0-1.59-1.76-1.76-4.06-1.92-2.84-.25-3.81-.33-4.68-1.13a2.43,2.43,0,0,1-.84-1.88c0-3.26,4.31-3.35,5.35-3.35a8.13,8.13,0,0,1,4.56,1.13,4.2,4.2,0,0,1,1.13,1.17l-1.46.59a4.57,4.57,0,0,0-.67-.59,5.73,5.73,0,0,0-3.51-1,7.22,7.22,0,0,0-2.76.46,1.6,1.6,0,0,0-1,1.46,1.35,1.35,0,0,0,.33.88c.38.42,1,.54,2,.63s2.06.22,3.09.29a8.21,8.21,0,0,1,1.46.25,3,3,0,0,1,2.63,2.93,3.24,3.24,0,0,1-.59,1.92c-.88,1.25-2.68,1.8-5,1.8a13.15,13.15,0,0,1-2.93-.33,5.41,5.41,0,0,1-3.51-2.26Zm15.81-3.89c2.09,0,3.72,1.09,3.72,2.89s-1.67,2.89-3.51,2.89c-2.22,0-3.72-1.17-3.72-2.84s1.21-2.93,3.51-2.93Zm.08-1.25c-3,0-5.14,1.67-5.14,4.27,0,2.3,1.88,4.06,5.19,4.06,2.8,0,5.14-1.51,5.14-4.18S128.23,97.6,125.47,97.64Z" transform="translate(-20 -94)"/><path class="cls-2" d="M131.16,98.81h-1.3v-1h1.3v-.84a2.8,2.8,0,0,1,.5-2,2.46,2.46,0,0,1,2-.75c.38,0,.79,0,1.25.08v1.38a3.8,3.8,0,0,0-1-.13,1.41,1.41,0,0,0-.75.13c-.29.17-.5.38-.5,1.13v1h2.17v1.09h-2.17v6.86h-1.5v-6.9Zm5.23-3.72h1.51V97.8h2.22v1h-2.22l0,4.27c0,.75,0,1.34,1.09,1.34a5.48,5.48,0,0,0,1.13-.12v1.38c-.5,0-1,.08-1.51.08-2.17,0-2.17-1-2.17-2.26V98.85H135v-1h1.38Zm16.73,2.72h1.67l-3.22,7.9h-1.72l-2.43-6.4-2.3,6.4h-1.76l-3-7.9H142l2,5.52a7.28,7.28,0,0,1,.25.92c.08-.38.13-.46.25-.88l2-5.56h1.92l2.09,5.73a7.63,7.63,0,0,1,.25.75c.08-.38.13-.5.25-1l2.14-5.52Zm8.57,4.14a2.36,2.36,0,0,1-1.13,2.17,4.81,4.81,0,0,1-2.59.67c-1.63,0-2.26-.79-2.26-1.55a1.17,1.17,0,0,1,.84-1,6.73,6.73,0,0,1,2.26-.25h2.89Zm-5.44-2.22a1.35,1.35,0,0,1,.88-.75,4.9,4.9,0,0,1,1.92-.29,4,4,0,0,1,1.76.29c.88.34.88,1,.84,1.8h-2.22A17.11,17.11,0,0,0,156,101a2.23,2.23,0,0,0-1.8,2.26c0,.88.5,2.72,3.72,2.72a6.17,6.17,0,0,0,2.68-.59,2.81,2.81,0,0,0,1.09-1c0,.54.13,1.34,1.5,1.34a8.45,8.45,0,0,0,1.38-.13v-1a2.89,2.89,0,0,1-.59,0c-.88,0-.88-.42-.88-1.46v-2.89a2.14,2.14,0,0,0-1.76-2.47,9.8,9.8,0,0,0-2.38-.29c-3.51,0-3.93,1.09-4.27,2l1.55.17Zm8.87-1.92h1.55v.88a4.65,4.65,0,0,1,3.05-1.09,6.26,6.26,0,0,1,.92.08v1.55a3.68,3.68,0,0,0-1.21-.21,5.07,5.07,0,0,0-1.42.21,2,2,0,0,0-1.34,2.18v4.31h-1.55V97.8Zm6.86,3a3.2,3.2,0,0,1,3.26-2.09,3,3,0,0,1,3.05,2.09Zm6.4,2.21a2.63,2.63,0,0,1-1,1.13,3.42,3.42,0,0,1-2,.59,3.64,3.64,0,0,1-2.89-1.21,2.56,2.56,0,0,1-.59-1.55H180c0-2.51-1.92-4.39-4.85-4.39s-4.81,1.71-4.81,4.14c0,2.89,2.34,4.27,4.85,4.27a6.33,6.33,0,0,0,3.35-.92,4.53,4.53,0,0,0,1.34-1.63l-1.51-.42Z" transform="translate(-20 -94)"/></svg>