<svg id="Layer_1" data-name="Layer 1" xmlns="http://www.w3.org/2000/svg" viewBox="0 0 160 45.77"><defs><style>.cls-1{fill:#005981;}</style></defs><title>accenture</title><path class="cls-1" d="M31.68,113.21c0,2.67-1.07,6.21-4.34,6.27a2.37,2.37,0,0,1-2.6-2.54C24.74,113.81,29.34,113.21,31.68,113.21Zm4.6,9.21V107.54c.07-4.8-3.14-6.47-7.54-6.47s-7.94,1.87-7.94,6.61h4.74a2.89,2.89,0,0,1,3.2-3.2c2.4,0,2.94,1.73,2.94,3.8v2.07c-4.74.13-11.61.8-11.68,7.07.07,3.54,2.87,5.47,6.14,5.47,2.34,0,4.4-.8,5.41-2.87h.13v2.4h4.6Zm14.41-13.74c0-2.13-.6-4.2-3.14-4.2-3.07,0-3.94,3.2-4,5.74.07,5.2,3.07,9.21,8.61,9.28a15,15,0,0,0,3.47-.54v2.94a20.71,20.71,0,0,1-6.07,1c-7.41,0-11.14-4.6-11.14-11.81,0-6.07,3.27-10,9.54-10,5.07,0,7.94,2.47,7.94,7.61h-5.2Zm18.68,0c0-2.13-.6-4.2-3.14-4.2-3.07,0-4,3.2-4,5.74,0,5.2,3.07,9.21,8.54,9.28a15.61,15.61,0,0,0,3.54-.54v2.94a20.7,20.7,0,0,1-6.07,1c-7.41,0-11.14-4.6-11.14-11.81,0-6.07,3.27-10,9.54-10,5.07,0,7.87,2.47,7.87,7.61H69.37Zm19-.87H80.78a3.92,3.92,0,0,1,3.94-3.6A3.35,3.35,0,0,1,88.39,107.81Zm4.6,2.94v-1.2c0-5.14-2.6-8.47-7.94-8.47-6.21,0-8.88,3.87-8.94,9.81.07,6.87,3.14,12,10.54,12a18.87,18.87,0,0,0,5.81-.87v-3.34a15.81,15.81,0,0,1-4,.8c-4.67-.07-7.81-4.34-7.81-8.74H93Zm14.41,11.68V110.47c0-1,.07-3.67-.73-4.47a2,2,0,0,0-1.4-.4c-3.54,0-4.94,4.94-4.94,7.81v9H95.46V101.53h4.87v3.94h.07a6.6,6.6,0,0,1,6.2-4.4c4,0,5.67,3.27,5.67,6.87v14.48h-4.87Zm14.95-17.48v9.88c0,2.4.27,4.6,3.27,4.67a12.47,12.47,0,0,0,2.27-.4v3.47a27,27,0,0,1-4,.33c-4.21,0-6.34-1.4-6.41-5.74V104.94h-4.07v-3.4h4.07V96.6l4.87-1.94v6.87h6.2v3.4h-6.2Zm20.22,17.48v-3.94h-.06a6.56,6.56,0,0,1-6.2,4.4c-3.94,0-5.61-3.34-5.61-6.87V101.53h4.87v11.94c0,1-.07,3.67.73,4.47a2.48,2.48,0,0,0,1.4.4c3.47-.07,4.87-5,4.87-7.74v-9.08h4.87v20.88Zm12.81-9.14v9.14h-4.87V101.53h4.87v3.87h.07c1.67-2.87,3.27-4.34,6.74-4.34v5.07c-4.94,0-6.81,2.2-6.81,7.14Zm20-5.47h-7.61a3.92,3.92,0,0,1,3.94-3.6C174,104.2,175.46,105.54,175.4,107.81Zm4.6,2.94v-1.2c0-5.14-2.6-8.47-7.87-8.47-6.21,0-8.94,3.87-8.94,9.81,0,6.87,3.14,12,10.47,12a18.86,18.86,0,0,0,5.81-.87v-3.34a15.3,15.3,0,0,1-3.94.8c-4.74-.07-7.81-4.34-7.87-8.74H180ZM113.41,77.11v3.4s9.74,3.74,11.14,4.34l-11.14,4.27v3.4l15.14-6.14V83.25l-15.14-6.14Z" transform="translate(-20 -77.11)"/></svg>