<svg id="Layer_1" data-name="Layer 1" xmlns="http://www.w3.org/2000/svg" viewBox="0 0 147.53 160"><defs><style>.cls-1{fill:#cc2229;}</style></defs><title>adobe</title><path class="cls-1" d="M85.39,58.91c.12.13,27.9,63.48,27.87,63.43H95.06c0-.2-8.62-20.66-8.53-20.76H66.91c.18.05,18.76-42.88,18.49-42.66ZM26.23,20H68.9C69,20,26.52,122.33,26.38,122.19S26.28,19.93,26.23,20Zm75.14,0h44.12l0,102.25c0,.33-44.09-102.25-44.09-102.25Z" transform="translate(-26.23 -20)"/><path d="M43.56,138.34,53,178.9H46.13l-1.62-7.59H35.93l-1.58,7.59H27.44l9.48-40.56Zm-.36,26.07-3-15.18-3,15.18h6ZM68.57,178.9l-.18-3.53h-.23c-.95,2.78-3,4.64-5.55,4.64-6.09,0-8.67-7.13-8.67-15.93,0-7.53,1.9-15.7,8.76-15.7,2.39,0,3.52.87,5.24,3.13V138.34H74V178.9H68.57Zm-4.33-24.57c-1.67,0-4,1.62-4,9.85,0,3.82.5,10,4,10s4-5.5,4-10C68.21,156,65.86,154.33,64.23,154.33Zm14.09,9.79c0-9.1,3.16-15.76,10.34-15.76S99,155,99,164.12,95.74,180,88.66,180,78.32,173.34,78.32,164.12Zm14.35,0c0-8-1.67-9.85-4-9.85-1.85,0-4,1.39-4,9.85,0,8.63,2.17,10,4,10C91.27,174.09,92.67,171.66,92.67,164.12Zm16,14.77h-5.46V138.34h6.14v13.5a5.45,5.45,0,0,1,5.19-3.48c6.45,0,8.8,6.78,8.8,15.7S121,180,114.56,180c-2.66,0-4.24-1.33-5.55-4.64h-.18l-.18,3.53Zm4.38-4.81c3.34,0,4-5.5,4-10,0-8.23-2.35-9.85-4-9.85s-4,1.62-4,9.85C109.05,167.95,109.55,174.09,113,174.09Zm33.41-3.71c-1.54,8.92-6.5,9.62-9.84,9.62-3.75,0-10.15-1.39-10.15-15.88,0-10.08,4.15-15.76,10.61-15.76,4.06,0,9.8,2.26,9.8,16.34v1.62H132.75c0,7,2.39,7.76,4.11,7.76,1.4,0,2.84-.4,3.43-3.71h6.14Zm-5.91-9c-.18-6-1.62-7.13-3.65-7.13-3.48,0-4.06,4.93-4.11,7.13h7.76Zm8.08-139V20H159v2.38h-3.85V32.5h-2.7V22.38H148.6Zm13.76.47V32.5h-2.7V20h3.56l3.53,9.84L170.24,20h3.53V32.5h-2.7V22.85l-3.42,9.65h-1.91Z" transform="translate(-26.23 -20)"/></svg>