<svg id="Layer_1" data-name="Layer 1" xmlns="http://www.w3.org/2000/svg" viewBox="0 0 160 38.24"><defs><style>.cls-1{fill:#cc2131;}</style></defs><title>adobe_2</title><path d="M82.3,108.52l-2.18,10.16h-5l8.3-36.81h6l7.81,36.81H92.08l-2.13-10.16H82.3Zm7-4.1-1.69-8.8c-.49-2.51-1-5.79-1.36-8.41h-.22c-.38,2.68-.93,6.06-1.42,8.41l-1.75,8.8h6.44Zm27-23.54v31c0,2,.11,5,.22,6.83h-4.42l-.33-3.22h-.16a6.29,6.29,0,0,1-5.57,3.66c-4.92,0-7.92-5.35-7.92-13.6,0-9.4,4-13.82,8.19-13.82a4.92,4.92,0,0,1,4.75,3h.11V80.88Zm-5.14,21.36c0-.49,0-1.09-.05-1.64-.27-2.4-1.64-4.48-3.5-4.48-3.22,0-4.32,4.48-4.32,9.4,0,5.46,1.42,9.29,4.15,9.29,1.15,0,2.68-.6,3.55-3.77a7.74,7.74,0,0,0,.16-1.69v-7.1Zm17.37,16.88c-5.3,0-9.12-4.53-9.12-13.65,0-9.67,4.53-13.77,9.39-13.77,5.24,0,9,4.7,9,13.66,0,10.54-5.19,13.76-9.23,13.76h-.05Zm.16-4c3.17,0,3.88-5.63,3.88-9.67s-.71-9.67-4-9.67-4,5.68-4,9.67c0,4.42.76,9.67,4.1,9.67Zm12.22-34.19h5.13V95.14h.11a6.05,6.05,0,0,1,5.57-3.44c4.53,0,7.37,5.13,7.37,13.27,0,9.5-3.88,14.15-8.25,14.15-2.62,0-4.1-1.42-5.24-3.77h-.22l-.27,3.33h-4.42c.11-1.8.22-4.81.22-6.83v-31Zm5.13,28.4a5,5,0,0,0,.22,1.64c.82,3.22,2.4,3.88,3.44,3.88,3.06,0,4.21-4,4.21-9.5,0-5.08-1.2-9.18-4.26-9.18-1.69,0-3.06,2-3.44,3.93a10.07,10.07,0,0,0-.16,1.8v7.43h0Zm20.63-2.84c.05,6.83,3,8.52,6.12,8.52a10.77,10.77,0,0,0,4.59-1l.76,3.71a14.71,14.71,0,0,1-6.34,1.26c-6.66,0-10.16-5-10.16-13.22,0-8.69,4-14,9.5-14s8.08,5.3,8.08,12c0,1.31-.06,2.13-.11,2.84l-12.45-.05Zm7.7-3.66c.05-4.7-1.58-7.21-3.6-7.21-2.68,0-3.88,3.88-4,7.21Z" transform="translate(-20 -80.88)"/><path class="cls-1" d="M46.15,82H61.49v36.72Zm-10.8,0H20v36.72Zm5.4,13.53,9.77,23.19h-6.4l-2.92-7.38H34l6.71-15.8Z" transform="translate(-20 -80.88)"/><path d="M178.84,91.63A1.17,1.17,0,0,1,180,92.8h0a1.17,1.17,0,1,1-1.17-1.18h0Zm0,.18a1,1,0,0,0,0,2,1,1,0,0,0,0-2h0Zm-.22,1.69h-.21V92.18a2.39,2.39,0,0,1,.37,0,.69.69,0,0,1,.41.1.31.31,0,0,1,.12.27.33.33,0,0,1-.26.32h0c.12,0,.19.13.22.32a1.07,1.07,0,0,0,.08.33h-.22a1,1,0,0,1-.09-.34.25.25,0,0,0-.28-.23h-.15v.57Zm0-.73h.15c.17,0,.32-.06.32-.23s-.08-.23-.32-.23h-.15ZM63.51,82a1.17,1.17,0,0,1,1.16,1.17h0A1.17,1.17,0,1,1,63.5,82h0Zm0,.18a1,1,0,0,0,0,2,1,1,0,0,0,0-2Zm-.22,1.69h-.21V82.51a2.29,2.29,0,0,1,.37,0,.69.69,0,0,1,.41.1.31.31,0,0,1,.12.27.33.33,0,0,1-.26.32h0c.12,0,.19.13.22.32a1.08,1.08,0,0,0,.08.33h-.22a1,1,0,0,1-.09-.34.25.25,0,0,0-.28-.23h-.15v.57Zm0-.73h.15c.17,0,.32-.06.32-.23s-.08-.23-.32-.23h-.15Z" transform="translate(-20 -80.88)"/></svg>