<svg id="Layer_1" data-name="Layer 1" xmlns="http://www.w3.org/2000/svg" viewBox="0 0 160 60.45"><defs><style>.cls-1{fill:#c23c40;}</style></defs><title>amc_theatres</title><path class="cls-1" d="M27.43,117.66v12.1h-3v-12.1H20v-2.5H31.7v2.5Zm22.25,12.1v-6.61H43.89v6.61h-3V115.16h3v5.49h5.79v-5.49h3v14.61Zm13.46,0V115.16H73.72v2.5H66.15V121h7v2.5h-7v3.77h7.91v2.5Zm30.37,0-1-2.93H87.11l-1,2.93H83l5.09-14.61h3.47l5,14.61Zm-3.67-11.1L88,124.34h3.75l-1.94-5.67Zm22.4-1v12.1h-3v-12.1h-4.43v-2.5h11.7v2.5Zm22.43,12.1a3.33,3.33,0,0,1-.4-1.36c0-.72,0-1.88,0-2.95s-.76-1.46-1.8-1.46h-3.53v5.77h-3V115.16h8.12a3.31,3.31,0,0,1,3.36,2.32,5.08,5.08,0,0,1,.14,2.95,3.55,3.55,0,0,1-2,2.3,2.65,2.65,0,0,1,1.62,2c.08.6.14,2.52.14,3.27s.24,1,.56,1.2v.54h-3.22ZM133,117.66h-4.07v3.83h4.11a1.93,1.93,0,0,0,1.78-2.18C134.84,118.26,134.36,117.66,133,117.66ZM148,129.76V115.16h10.58v2.5H151V121h7v2.5h-7v3.77h7.91v2.5Zm28.73-10.16c0-1.18-.94-2.26-3-2.3-1.46,0-2.54.48-2.64,1.68-.08,1,.26,1.2.92,1.46.34.36,3.1.8,3.66.9a6.8,6.8,0,0,1,3.45,1.44c1.69,1.76.9,5.23-.92,6.41a8.78,8.78,0,0,1-4.57,1,6.9,6.9,0,0,1-3.59-1,5.06,5.06,0,0,1-2-3.77h2.93a2.26,2.26,0,0,0,.62,1.52,3.64,3.64,0,0,0,2.75.84,3.91,3.91,0,0,0,2.32-.68,1.74,1.74,0,0,0,.06-2.47c-1-1-3.85-1-5.73-1.64a3.55,3.55,0,0,1-2.64-4c.24-2.32,1.92-4,5.49-4,.78,0,3.51.06,4.93,1.86a4.12,4.12,0,0,1,.84,2.83h-2.83Zm-2.89-14.17a2.87,2.87,0,0,1,2.88-2.86h0a2.86,2.86,0,0,1,2.86,2.86h0a2.87,2.87,0,0,1-2.85,2.88h0a2.87,2.87,0,0,1-2.88-2.87Zm5.39,0a2.52,2.52,0,0,0-5,0h0a2.52,2.52,0,0,0,5,0ZM178.1,107h-.46l-.92-1.48H176V107h-.39v-3.21H177a1.49,1.49,0,0,1,.78.16.79.79,0,0,1,.36.69c0,.63-.44.86-1,.88Zm-1.5-1.79c.45,0,1.15.07,1.15-.58,0-.5-.44-.56-.83-.56H176v1.14h.6Zm-72-29.6c7.26-6.15,14.89-6,21.37-2.83,6,3.18,8.19,7.75,8.28,14.42V103.6s-.06,4.62-4.79,4.62c-4.5,0-4.71-4.59-4.71-4.59l-.06-16.17s-.27-7.51-7.79-7.51-8.15,7.47-8.15,7.47v15.92s0,4.82-4.78,4.82-4.77-4.82-4.77-4.82V87.47s-.14-7.52-8.12-7.52-7.74,7.63-7.74,7.63V103.9s-.56,4.3-4.74,4.3c-4.34,0-4.78-4.34-4.78-4.34l0-16.48c0-6.07,1.17-12.1,9.81-15.51a21.91,21.91,0,0,1,12.66-.58,23.06,23.06,0,0,1,7.45,4.35l.44.38.47-.38ZM58.5,103.51c0-4.73-4.7-4.75-4.7-4.75H36.88c-1,0-1.12-.77-.88-1.66C38.07,92,42.65,86.21,47.55,83.7c4.05-2.07,8.7-4.23,13.52-3.91,1,.08,1,.55,1,2.13v21.36s.24,4.85,4.94,4.85,4.45-4.69,4.45-4.69l0-26.81a6.66,6.66,0,0,0-1.21-4.45,5.51,5.51,0,0,0-2.79-1.5,45.57,45.57,0,0,0-16.59,1.6c-9.83,2.86-19.22,10.85-24,20.35A27.75,27.75,0,0,0,23.6,104c.06,1.88.85,4.07,3,4.07l27.28.14a4.42,4.42,0,0,0,4.62-4.72ZM171.33,91.88a4.37,4.37,0,0,1,4.18,5c-2.58,8.11-10.17,13.07-19.14,13.07a20.08,20.08,0,0,1,0-40.15c9,0,16.62,4.39,19.17,12.56,0,0,1.21,4.91-4.07,5.53A4.26,4.26,0,0,1,167,84.66c-1.51-4.38-5.67-6-10.56-6a11.18,11.18,0,0,0,0,22.35c4.83,0,8.95-2.15,10.51-6.44A4.42,4.42,0,0,1,171.33,91.88Z" transform="translate(-20 -69.77)"/></svg>