<?xml version="1.0" encoding="UTF-8"?>
<svg xmlns="http://www.w3.org/2000/svg" xmlns:xlink="http://www.w3.org/1999/xlink" width="761px" height="152px" viewBox="0 0 761 152">
  <!-- Generator: Sketch 46.1 (44463) - http://www.bohemiancoding.com/sketch -->
  <title>bamboo_slate</title>
  <desc>Created with Sketch.</desc>
  <defs></defs>
  <g id="Page-1" stroke="none" stroke-width="1" fill="none" fill-rule="evenodd">
    <g id="bamboo_slate" transform="translate(0.000000, -1.000000)" fill-rule="nonzero" fill="#172B4D">
      <path d="M240.233,73.807 C247.93,69.567 251.272,63.622 251.272,54.488 L251.272,41.931 C251.272,23.63 240.292,14.734 217.706,14.734 L171.819,14.734 C170.081,14.734 168.67,16.144 168.67,17.884 L168.67,135.499 C168.67,137.239 170.08,138.649 171.819,138.649 L220.981,138.649 C242.891,138.649 255.458,128.006 255.458,109.452 L255.458,96.53 C255.458,85.468 249.837,77.204 240.233,73.807 Z M194.304,36.364 L214.976,36.364 C224.347,36.364 225.64,40.438 225.64,44.843 L225.64,55.581 C225.64,62.544 222.396,65.516 214.794,65.516 L210.31,65.516 C208.57,65.516 207.16,66.925 207.16,68.665 L207.16,83.446 C207.16,85.186 208.57,86.596 210.31,86.596 L218.435,86.596 C226.525,86.596 229.826,89.738 229.826,97.44 L229.826,106.54 C229.826,114.376 226.445,117.02 216.433,117.02 L194.304,117.02 L194.304,36.364 L194.304,36.364 Z" id="Shape"></path>
      <g id="Group">
        <path d="M0.491,71.896 C3.106,73.489 8.653,75.192 16.372,75.192 L16.378,75.192 C20.126,75.192 23.732,74.782 26.802,74.004 C27.15,73.917 27.402,73.618 27.429,73.262 C27.892,67.481 29.536,61.677 32.189,56.478 C32.291,56.277 32.308,56.042 32.234,55.828 C32.16,55.613 32.002,55.438 31.796,55.344 C28.761,53.938 25.626,52.081 22.726,49.975 C18.273,46.74 14.5,43.078 11.814,39.386 C11.619,39.118 11.283,38.991 10.959,39.063 C10.635,39.134 10.385,39.391 10.32,39.717 C9.334,44.781 7.951,50.063 6.211,55.416 C4.438,60.873 2.404,66.059 0.17,70.831 C-0.011,71.216 0.128,71.675 0.491,71.896 Z" id="Shape"></path>
        <path d="M33.8,101.123 C34.029,100.849 34.056,100.458 33.87,100.153 C31.423,96.152 29.626,91.81 28.53,87.25 C28.259,86.112 28.026,84.944 27.841,83.779 C27.806,83.557 27.681,83.358 27.495,83.228 C27.309,83.098 27.077,83.05 26.856,83.094 C23.588,83.74 19.963,84.082 16.372,84.082 C10.866,84.082 5.659,83.336 1.317,81.922 C1.001,81.82 0.655,81.914 0.434,82.162 C0.213,82.411 0.163,82.766 0.303,83.068 C2.483,87.75 4.469,92.838 6.207,98.191 C7.981,103.646 9.385,109.037 10.381,114.212 C10.457,114.607 10.803,114.889 11.199,114.889 C11.223,114.889 11.246,114.888 11.269,114.886 C14.33,114.633 19.82,112.748 26.054,108.219 C29.091,106.014 31.769,103.56 33.8,101.123 Z" id="Shape"></path>
        <path d="M79.222,10.388 C78.966,9.809 78.447,9.389 77.826,9.26 L38.027,0.998 C37.234,0.834 36.416,1.175 35.976,1.858 C35.537,2.542 35.564,3.426 36.044,4.081 L42.024,12.228 C38.741,15.155 35.133,18.061 31.354,20.805 C26.713,24.176 22.02,27.178 17.409,29.725 C17.036,29.93 16.878,30.383 17.042,30.776 C18.222,33.604 21.708,38.243 27.952,42.78 C30.989,44.987 34.151,46.774 37.098,47.952 C37.198,47.993 37.303,48.013 37.407,48.013 C37.645,48.013 37.88,47.909 38.042,47.72 C42.116,42.947 47.157,39.116 52.796,36.433 L54.812,46.568 C54.97,47.367 55.605,47.984 56.408,48.121 C56.517,48.139 56.629,48.148 56.738,48.148 C57.424,48.148 58.07,47.789 58.428,47.184 L79.117,12.181 C79.439,11.636 79.478,10.968 79.222,10.388 Z" id="Shape"></path>
        <path d="M55.097,118.202 C49.634,115.956 44.55,112.576 40.392,108.429 C40.232,108.269 40.017,108.181 39.787,108.185 C39.562,108.19 39.346,108.287 39.193,108.453 C36.923,110.895 34.189,113.303 31.283,115.414 C26.83,118.65 22.177,121.105 17.834,122.515 C17.518,122.618 17.293,122.897 17.262,123.228 C17.229,123.559 17.397,123.877 17.688,124.038 C22.2,126.544 26.799,129.493 31.356,132.804 C36.071,136.23 40.43,139.815 44.309,143.46 C44.469,143.61 44.674,143.685 44.881,143.685 C45.076,143.685 45.272,143.617 45.43,143.479 C47.795,141.406 51.164,136.598 53.53,129.321 C54.682,125.77 55.403,122.212 55.612,119.03 C55.634,118.671 55.427,118.338 55.097,118.202 Z" id="Shape"></path>
        <path d="M144.015,81.487 C141.398,79.893 135.849,78.191 128.126,78.191 C124.374,78.191 120.771,78.602 117.702,79.379 C117.354,79.467 117.102,79.765 117.075,80.121 C116.614,85.9 114.968,91.704 112.317,96.902 C112.213,97.104 112.198,97.34 112.27,97.554 C112.344,97.768 112.502,97.943 112.709,98.038 C115.74,99.441 118.877,101.298 121.777,103.405 C126.23,106.641 130.004,110.302 132.689,113.995 C132.849,114.214 133.101,114.339 133.365,114.339 C133.424,114.339 133.484,114.331 133.545,114.319 C133.869,114.248 134.119,113.99 134.184,113.664 C135.17,108.604 136.553,103.322 138.293,97.966 C140.068,92.506 142.1,87.321 144.334,82.553 C144.517,82.168 144.378,81.708 144.015,81.487 Z" id="Shape"></path>
        <path d="M110.704,52.259 C110.475,52.534 110.448,52.923 110.634,53.229 C113.081,57.229 114.878,61.57 115.974,66.132 C116.247,67.269 116.478,68.436 116.663,69.601 C116.698,69.826 116.823,70.025 117.009,70.156 C117.197,70.286 117.427,70.335 117.65,70.29 C120.914,69.643 124.539,69.301 128.134,69.301 C133.638,69.301 138.845,70.048 143.187,71.461 C143.273,71.488 143.359,71.502 143.445,71.502 C143.449,71.502 143.453,71.502 143.457,71.502 C143.918,71.526 144.301,71.131 144.301,70.668 C144.301,70.48 144.239,70.307 144.133,70.166 C141.981,65.527 140.018,60.49 138.297,55.189 C136.526,49.735 135.121,44.345 134.123,39.169 C134.043,38.751 133.654,38.463 133.236,38.495 C130.177,38.747 124.687,40.631 118.449,45.162 C115.413,47.368 112.735,49.822 110.704,52.259 Z" id="Shape"></path>
        <path d="M89.409,35.426 C94.872,37.673 99.956,41.052 104.112,45.199 C104.268,45.355 104.481,45.442 104.702,45.442 C104.706,45.442 104.712,45.442 104.718,45.442 C104.945,45.438 105.159,45.342 105.314,45.176 C107.582,42.733 110.316,40.325 113.222,38.215 C117.677,34.978 122.327,32.522 126.671,31.113 C126.987,31.01 127.212,30.73 127.243,30.4 C127.276,30.07 127.108,29.752 126.819,29.589 C122.305,27.085 117.708,24.136 113.149,20.825 C108.438,17.401 104.079,13.815 100.196,10.168 C99.882,9.872 99.397,9.865 99.075,10.148 C96.71,12.221 93.341,17.03 90.977,24.305 C89.825,27.855 89.104,31.413 88.893,34.596 C88.87,34.957 89.077,35.29 89.409,35.426 Z" id="Shape"></path>
        <path d="M116.552,110.601 C113.515,108.394 110.353,106.607 107.408,105.429 C107.076,105.297 106.695,105.39 106.463,105.662 C102.388,110.434 97.348,114.264 91.709,116.949 L89.693,106.814 C89.535,106.016 88.9,105.399 88.097,105.262 C87.294,105.127 86.493,105.496 86.077,106.198 L65.388,141.201 C65.066,141.747 65.027,142.414 65.283,142.993 C65.539,143.573 66.058,143.993 66.679,144.122 L106.478,152.384 C106.613,152.411 106.746,152.425 106.878,152.425 C107.956,152.446 108.86,151.552 108.86,150.462 C108.86,149.937 108.653,149.46 108.317,149.108 L102.48,141.153 C105.763,138.226 109.37,135.32 113.149,132.575 C117.794,129.202 122.485,126.202 127.096,123.657 C127.467,123.45 127.625,122.997 127.461,122.604 C126.282,119.777 122.796,115.139 116.552,110.601 Z" id="Shape"></path>
      </g>
      <path d="M300.056,45.496 C290.634,45.496 279.171,46.982 270.853,49.281 C269.306,49.71 268.328,51.234 268.583,52.819 L270.761,66.325 C270.896,67.168 271.368,67.918 272.068,68.406 C272.767,68.895 273.634,69.08 274.472,68.916 C282.21,67.409 290.197,66.579 296.962,66.579 C310.392,66.579 312.54,69.413 312.54,78.515 L312.54,86.443 L292.595,86.443 C273.533,86.443 265.4,94.304 265.4,112.728 C265.4,130.358 274.318,140.469 289.865,140.469 C298.859,140.469 307.865,137.972 315.433,133.407 L316.23,136.327 C316.603,137.698 317.849,138.648 319.269,138.648 L334.294,138.648 C336.034,138.648 337.444,137.238 337.444,135.498 L337.444,78.878 C337.444,54.544 327.312,45.496 300.056,45.496 Z M312.54,105.161 L312.54,116.117 C309.456,117.762 303.87,120.115 297.144,120.115 C291.345,120.115 289.578,118.346 289.578,112.547 C289.578,106.914 290.672,105.161 297.51,105.161 L312.54,105.161 L312.54,105.161 Z" id="Shape"></path>
      <path d="M462.222,45.496 C452.185,45.496 438.249,49.095 427.128,54.514 C423.724,48.529 417.903,45.496 409.804,45.496 C399.941,45.496 386.509,48.896 375.161,54.223 L373.802,49.581 C373.409,48.238 372.179,47.316 370.779,47.316 L357,47.316 C355.262,47.316 353.851,48.726 353.851,50.466 L353.851,135.5 C353.851,137.239 355.261,138.65 357,138.65 L375.607,138.65 C377.347,138.65 378.757,137.24 378.757,135.5 L378.757,76.607 C385.462,73.198 394.886,69.672 400.521,69.672 C404.712,69.672 406.269,71.23 406.269,75.421 L406.269,135.5 C406.269,137.239 407.679,138.65 409.419,138.65 L428.024,138.65 C429.764,138.65 431.174,137.24 431.174,135.5 L431.174,76.572 C437.885,72.855 447.858,69.673 452.938,69.673 C457.129,69.673 458.686,71.231 458.686,75.422 L458.686,135.5 C458.686,137.239 460.096,138.65 461.836,138.65 L480.442,138.65 C482.182,138.65 483.592,137.24 483.592,135.5 L483.592,73.056 C483.593,54.768 476.401,45.496 462.222,45.496 Z" id="Shape"></path>
      <path d="M550.669,45.496 C541.446,45.496 532.126,47.777 525.81,50.141 L525.81,15.647 C525.81,13.907 524.4,12.497 522.66,12.497 L504.055,12.497 C502.317,12.497 500.907,13.907 500.907,15.647 L500.907,134.536 C500.907,136.057 501.995,137.361 503.491,137.635 C514.969,139.728 528.53,140.471 536.655,140.471 C571.612,140.471 578.776,125.598 578.776,103.267 L578.776,77.243 C578.774,56.176 569.317,45.496 550.669,45.496 Z M537.745,118.842 C533.032,118.842 529.112,118.654 525.809,118.272 L525.809,71.738 C530.928,69.445 538.145,67.126 543.934,67.126 C550.991,67.126 553.868,69.898 553.868,76.695 L553.868,103.992 C553.868,113.841 551.374,118.842 537.745,118.842 Z" id="Shape"></path>
      <path d="M630.11,45.496 C603.984,45.496 590.174,58.047 590.174,81.793 L590.174,104.176 C590.174,127.92 603.984,140.47 630.11,140.47 C656.237,140.47 670.045,127.92 670.045,104.176 L670.045,81.793 C670.046,58.046 656.237,45.496 630.11,45.496 Z M615.08,81.064 C615.08,71.294 619.575,67.126 630.11,67.126 C640.645,67.126 645.14,71.295 645.14,81.064 L645.14,104.902 C645.14,114.672 640.645,118.841 630.11,118.841 C619.575,118.841 615.08,114.672 615.08,104.902 L615.08,81.064 Z" id="Shape"></path>
      <path d="M720.487,45.496 C694.36,45.496 680.55,58.047 680.55,81.793 L680.55,104.176 C680.55,127.92 694.36,140.47 720.487,140.47 C746.612,140.47 760.422,127.92 760.422,104.176 L760.422,81.793 C760.422,58.046 746.612,45.496 720.487,45.496 Z M705.456,81.064 C705.456,71.294 709.951,67.126 720.487,67.126 C731.02,67.126 735.515,71.295 735.515,81.064 L735.515,104.902 C735.515,114.672 731.02,118.841 720.487,118.841 C709.951,118.841 705.456,114.672 705.456,104.902 L705.456,81.064 Z" id="Shape"></path>
    </g>
  </g>
</svg>
