<svg id="Layer_1" data-name="Layer 1" xmlns="http://www.w3.org/2000/svg" viewBox="0 0 160 49.67"><defs><style>.cls-1{fill:#33348e;}</style></defs><title>bbva</title><path class="cls-1" d="M164.93,80.24c-1.37-4.09-2.11-5.06-6-5.06h-9.49l-15.2,49.66H142l3.26-10.72H163.3l3.27,10.72H180Zm-17.52,26.6,6.78-22.65,6.87,22.65Z" transform="translate(-20 -75.16)"/><path class="cls-1" d="M89.74,94.64,92.16,91c5.13-7.62,1.6-15.88-8.53-15.88H62v49.67H82.87C101.21,124.84,106.74,103.47,89.74,94.64ZM77.22,118.17H73.69V81.65h6.37a5.76,5.76,0,0,1,5.74,5.58,5.87,5.87,0,0,1-1.27,3.61L80.39,97h0c4.32,1,7.21,4.33,7.21,10.49C87.6,115,83.12,118.17,77.22,118.17Z" transform="translate(-20 -75.16)"/><path class="cls-1" d="M47.73,94.64,50.15,91c5.13-7.62,1.6-15.88-8.53-15.88H20v49.67H40.86C59.2,124.84,64.73,103.47,47.73,94.64ZM35.21,118.17H31.68V81.65h6.37a5.76,5.76,0,0,1,5.74,5.58,5.87,5.87,0,0,1-1.27,3.61L38.38,97c4.32,1,7.21,4.33,7.22,10.49C45.6,115,41.12,118.17,35.21,118.17Z" transform="translate(-20 -75.16)"/><path class="cls-1" d="M132.21,75.16H140l-15.14,49.66H113L96.76,75.17h8.77c3.39,0,4.28.87,6,6.5l9.4,31.22,11.23-37.72Z" transform="translate(-20 -75.16)"/></svg>