<?xml version="1.0" encoding="UTF-8"?>
<svg xmlns="http://www.w3.org/2000/svg" xmlns:xlink="http://www.w3.org/1999/xlink" width="822px" height="143px" viewBox="0 0 822 143">
  <!-- Generator: Sketch 46.1 (44463) - http://www.bohemiancoding.com/sketch -->
  <title>bitbucket_rgb_slate</title>
  <desc>Created with Sketch.</desc>
  <defs></defs>
  <g id="Page-1" stroke="none" stroke-width="1" fill="none" fill-rule="evenodd">
    <g id="bitbucket_rgb_slate" fill-rule="nonzero" fill="#172B4D">
      <g id="Group" transform="translate(155.000000, 9.000000)">
        <path d="M249.851,33.489 C240.628,33.489 231.306,35.764 224.992,38.13 L224.992,3.572 C224.992,1.834 223.578,0.426 221.842,0.426 L203.214,0.426 C201.478,0.426 200.084,1.834 200.084,3.572 L200.084,122.582 C200.084,124.092 201.17,125.408 202.661,125.674 C214.153,127.77 227.709,128.504 235.848,128.504 C270.832,128.504 277.987,113.634 277.987,91.293 L277.987,65.244 C277.984,44.162 268.519,33.489 249.851,33.489 Z M236.926,106.871 C232.209,106.871 228.302,106.689 224.991,106.3 L224.991,59.741 C230.121,57.442 237.337,55.125 243.123,55.125 C250.181,55.125 253.061,57.891 253.061,64.693 L253.061,92.006 C253.061,101.862 250.568,106.871 236.926,106.871 Z" id="Shape"></path>
        <path d="M363.674,35.31 L345.07,35.31 C343.334,35.31 341.924,36.723 341.924,38.437 L341.924,97.387 C335.214,100.788 325.769,104.316 320.147,104.316 C315.954,104.316 314.405,102.767 314.405,98.57 L314.405,38.437 C314.405,36.723 312.973,35.31 311.215,35.31 L292.632,35.31 C290.87,35.31 289.478,36.723 289.478,38.437 L289.478,100.946 C289.478,119.229 296.673,128.505 310.847,128.505 C320.719,128.505 334.155,125.113 345.499,119.779 L346.871,124.424 C347.28,125.768 348.488,126.689 349.899,126.689 L363.674,126.685 C365.415,126.685 366.827,125.273 366.827,123.538 L366.827,38.438 C366.827,36.723 365.415,35.31 363.674,35.31 Z" id="Shape"></path>
        <path d="M438.62,107.423 C438.499,106.546 437.987,105.776 437.29,105.276 C436.558,104.787 435.654,104.623 434.797,104.816 C429.46,106.032 423.858,106.69 418.602,106.69 C406.804,106.69 403.389,103.685 403.389,93.296 L403.389,68.696 C403.389,58.299 406.804,55.294 418.602,55.294 C421.408,55.294 428.396,55.697 434.797,57.163 C435.654,57.359 436.558,57.197 437.29,56.692 C438.009,56.208 438.517,55.431 438.62,54.55 L440.832,39.823 C441.052,38.271 440.138,36.793 438.62,36.349 C431.445,34.237 423.037,33.488 418.071,33.488 C389.939,33.488 378.467,43.734 378.467,68.88 L378.467,93.111 C378.467,118.248 389.939,128.503 418.071,128.503 C424.897,128.503 432.771,127.407 438.62,125.648 C440.138,125.199 441.052,123.71 440.832,122.165 L438.62,107.423 Z" id="Shape"></path>
        <path d="M566.865,33.489 C541.898,33.489 528.716,45.923 528.716,69.43 L528.716,92.929 C528.716,117.194 541.08,128.503 567.605,128.503 C578.397,128.503 589.909,126.611 599.171,123.332 C600.643,122.802 601.524,121.257 601.216,119.711 L598.455,106.395 C598.271,105.54 597.739,104.785 597.003,104.345 C596.248,103.886 595.348,103.765 594.512,104.008 C585.945,106.422 577.825,107.605 569.605,107.605 C556.049,107.605 553.635,103.212 553.635,94.018 L553.635,90.801 L599.848,90.801 C601.603,90.801 602.996,89.408 602.996,87.645 L602.996,70.515 C602.995,45.248 591.524,33.489 566.865,33.489 Z M553.635,70.262 L553.635,67.243 C553.635,58.473 557.914,54.386 567.054,54.386 C577.154,54.386 579.171,59.314 579.171,67.243 L579.171,70.262 L553.635,70.262 Z" id="Shape"></path>
        <path d="M119.116,35.269 L100.51,35.269 C98.771,35.269 97.356,36.687 97.356,38.417 L97.356,123.502 C97.356,125.247 98.771,126.654 100.51,126.654 L119.115,126.654 C120.894,126.654 122.283,125.247 122.283,123.502 L122.283,38.417 C122.284,36.687 120.895,35.269 119.116,35.269 Z" id="Shape"></path>
        <path d="M119.116,0.416 L100.51,0.416 C98.771,0.416 97.356,1.844 97.356,3.573 L97.356,19.602 C97.356,21.365 98.771,22.761 100.51,22.761 L119.115,22.761 C120.894,22.761 122.283,21.365 122.283,19.602 L122.283,3.573 C122.284,1.844 120.895,0.416 119.116,0.416 Z" id="Shape"></path>
        <path d="M72.251,61.776 C79.962,57.534 83.31,51.588 83.31,42.445 L83.31,29.932 C83.31,11.609 72.315,2.715 49.738,2.715 L3.799,2.715 C2.078,2.715 0.666,4.123 0.666,5.86 L0.666,123.502 C0.666,125.247 2.078,126.654 3.799,126.654 L53.012,126.654 C74.929,126.654 87.505,116.011 87.505,97.443 L87.505,84.521 C87.504,73.444 81.881,65.172 72.251,61.776 Z M26.308,24.347 L46.999,24.347 C56.365,24.347 57.675,28.434 57.675,32.81 L57.675,43.531 C57.675,50.503 54.42,53.481 46.815,53.481 L42.341,53.481 C40.579,53.481 39.167,54.898 39.167,56.638 L39.167,71.419 C39.167,73.17 40.579,74.58 42.341,74.58 L50.434,74.58 C58.553,74.58 61.847,77.72 61.847,85.429 L61.847,94.526 C61.847,102.369 58.473,105.014 48.432,105.014 L26.31,105.014 L26.31,24.347 L26.308,24.347 Z" id="Shape"></path>
        <path d="M189.022,108.568 C188.899,107.682 188.41,106.902 187.675,106.402 C186.934,105.913 186.016,105.75 185.157,105.969 C181.866,106.789 178.716,107.237 176.285,107.237 C171.683,107.237 169.639,105.234 169.639,100.761 L169.639,55.676 L187.713,55.676 C189.453,55.676 190.861,54.268 190.861,52.525 L190.861,38.456 C190.861,36.722 189.453,35.308 187.713,35.308 L169.639,35.308 L169.639,13.632 C169.639,12.715 169.229,11.853 168.556,11.26 C167.862,10.654 166.939,10.38 166.036,10.511 L147.431,13.101 C145.877,13.326 144.718,14.657 144.718,16.23 L144.718,35.308 L134.573,35.308 C132.836,35.308 131.421,36.721 131.421,38.456 L131.421,52.525 C131.421,54.268 132.836,55.676 134.573,55.676 L144.718,55.676 L144.718,103.683 C144.718,120.155 153.364,128.518 170.456,128.518 C175.324,128.518 183.584,127.391 188.982,125.519 C190.433,125.02 191.293,123.581 191.067,122.065 L189.022,108.568 Z" id="Shape"></path>
        <path d="M664.374,108.564 C664.252,107.678 663.742,106.898 663.001,106.396 C662.268,105.909 661.344,105.744 660.508,105.969 C657.194,106.785 654.067,107.237 651.615,107.237 C647.033,107.237 644.95,105.228 644.95,100.756 L644.95,55.671 L663.046,55.671 C664.803,55.671 666.19,54.254 666.19,52.525 L666.19,38.456 C666.19,36.722 664.803,35.307 663.046,35.307 L644.95,35.307 L644.95,13.627 C644.95,12.708 644.582,11.847 643.884,11.256 C643.189,10.653 642.271,10.379 641.37,10.511 L622.763,13.101 C621.21,13.321 620.041,14.652 620.041,16.214 L620.041,35.307 L609.903,35.307 C608.181,35.307 606.756,36.721 606.756,38.456 L606.756,52.525 C606.756,54.254 608.182,55.671 609.903,55.671 L620.041,55.671 L620.041,103.684 C620.041,120.15 628.712,128.513 645.787,128.513 C650.674,128.513 658.912,127.387 664.311,125.516 C665.744,125.015 666.637,123.582 666.415,122.062 L664.374,108.564 Z" id="Shape"></path>
      </g>
      <path d="M680.825,130.391 L655.945,89.317 L679.946,48.868 C680.524,47.893 680.535,46.684 679.974,45.702 C679.413,44.718 678.369,44.11 677.237,44.11 L656.684,44.11 C655.558,44.11 654.518,44.712 653.955,45.686 L631.123,85.27 L631.123,12.592 C631.123,10.851 629.712,9.442 627.973,9.442 L609.367,9.442 C607.628,9.442 606.217,10.851 606.217,12.592 L606.217,132.503 C606.217,134.243 607.628,135.653 609.367,135.653 L627.973,135.653 C629.712,135.653 631.123,134.243 631.123,132.503 L631.123,93.259 L655.418,133.913 C655.986,134.864 657.014,135.448 658.122,135.448 L678.295,135.448 C678.301,135.448 678.309,135.448 678.315,135.448 C680.055,135.448 681.465,134.036 681.465,132.298 C681.466,131.58 681.228,130.92 680.825,130.391 Z" id="Shape"></path>
      <path d="M61.219,0.963 L61.219,0.965 L61.219,0.963 C27.544,0.963 0.047,10.016 0.047,21.257 C0.047,24.218 7.39,66.672 10.303,83.508 C11.609,91.059 31.121,102.129 61.203,102.129 L61.234,102.039 L61.234,102.129 C91.315,102.129 110.827,91.059 112.133,83.508 C115.046,66.672 122.389,24.218 122.389,21.257 C122.39,10.017 94.894,0.963 61.219,0.963 Z M61.219,88.49 C50.48,88.49 41.774,79.783 41.774,69.045 C41.774,58.305 50.48,49.6 61.219,49.6 C71.958,49.6 80.664,58.305 80.664,69.045 C80.664,79.783 71.958,88.49 61.219,88.49 Z M61.208,27.53 C39.572,27.495 22.039,23.736 22.046,19.132 C22.053,14.528 39.6,10.825 61.236,10.86 C82.872,10.894 100.405,14.653 100.398,19.258 C100.39,23.863 82.844,27.564 61.208,27.53 Z" id="Shape"></path>
      <path d="M105.185,100.382 C104.255,100.382 103.51,101.04 103.51,101.04 C103.51,101.04 88.446,112.969 61.22,112.97 C33.993,112.969 18.93,101.04 18.93,101.04 C18.93,101.04 18.184,100.382 17.255,100.382 C16.144,100.382 15.091,101.128 15.091,102.775 C15.091,102.949 15.108,103.123 15.14,103.293 C17.478,115.807 19.186,124.686 19.486,126.037 C21.527,135.242 39.534,142.188 61.219,142.189 L61.219,142.189 L61.22,142.189 L61.221,142.189 L61.221,142.189 C82.907,142.188 100.913,135.242 102.954,126.037 C103.254,124.685 104.962,115.807 107.3,103.293 C107.332,103.123 107.349,102.949 107.349,102.775 C107.349,101.128 106.295,100.382 105.185,100.382 Z" id="Shape"></path>
      <circle id="Oval" cx="61.2" cy="69.039" r="9.745"></circle>
    </g>
  </g>
</svg>
