<svg id="Layer_1" data-name="Layer 1" xmlns="http://www.w3.org/2000/svg" viewBox="0 0 160 19.74"><defs><style>.cls-1{fill:#231f20;}.cls-2{fill:#e2231a;}</style></defs><title>bridgestone_logo</title><path class="cls-1" d="M90.54,101.18,89,106.77a12.43,12.43,0,0,1-1.35.08c-3,0-2.65-.9-1.39-5.77,1.31-5.06,2.07-6,3.94-6S92,96.3,91.56,97.83h4.55c.74-2.85.25-5.38-5.08-5.38-5.93,0-7.54,1.25-9.45,8.63-1.78,6.88-1.19,8.7,5.21,8.7a28.36,28.36,0,0,0,6.16-.56l2.14-8Z" transform="translate(-20 -90.13)"/><path class="cls-1" d="M101.39,106.7c-.59,0-.8-.18-.69-.66l1-4h6.09l.69-2.65h-6.09l.69-2.7a1.61,1.61,0,0,1,1.66-1.3h4.88l.69-2.66h-7.09c-2.94,0-3.82.53-5,4.95l-2.1,8.09c-.65,2.71.16,3.89,2.38,3.89h6.11A2.37,2.37,0,0,0,107,108l.5-1.29Z" transform="translate(-20 -90.13)"/><path class="cls-1" d="M171.05,106.7c-.59,0-.8-.18-.69-.66l1-4h6.09l.69-2.65h-6.09l.69-2.7a1.61,1.61,0,0,1,1.66-1.3h4.88l.69-2.66h-7.09c-2.94,0-3.82.53-5,4.95l-2.1,8.09c-.65,2.71.16,3.89,2.38,3.89h6.12a2.36,2.36,0,0,0,2.35-1.62l.5-1.29Z" transform="translate(-20 -90.13)"/><path class="cls-1" d="M159.94,92.65c-3.51,0-5.14.08-6.1,0l-4.25,16.42a.38.38,0,0,0,.37.51H154l3.69-14.27c.38,0,.95,0,1.53,0,2,0,2.24.7,1.72,2.72l-2.87,11.07a.38.38,0,0,0,.37.51h4.07l3-11.58c1-4-.73-5.38-5.59-5.38Z" transform="translate(-20 -90.13)"/><path class="cls-1" d="M124.66,92.68l-.7,2.75h4.53s0,.06,0,.09a3.82,3.82,0,0,0-1.37,2.13l-3,11.45a.38.38,0,0,0,.37.51h4.37l3.67-14.18h2.24a2.35,2.35,0,0,0,2.45-1.63l.43-1.13Z" transform="translate(-20 -90.13)"/><path class="cls-1" d="M61.24,109.61l4.25-16.42a.38.38,0,0,0-.37-.51H60.82L56.57,109.1a.38.38,0,0,0,.37.51Z" transform="translate(-20 -90.13)"/><path class="cls-2" d="M22.66,101.27,25.32,92a2.63,2.63,0,0,1,2.38-1.83h8.11a.14.14,0,0,1,.07.25,90.75,90.75,0,0,0-13,11,.13.13,0,0,1-.23-.12Z" transform="translate(-20 -90.13)"/><path class="cls-1" d="M29.07,106.86l2.62-9.18a.14.14,0,0,0-.22-.14A98,98,0,0,0,20,109.38a.14.14,0,0,0,.09.24H31.49c4.79,0,7.41-1.48,8.36-5a4,4,0,0,0-3.16-5.37s-.08-.09,0-.1c2-.35,4.11-1.17,4.84-4.15.8-3.23-1.67-5-4.51-4.81l-4.34,15.2a2.18,2.18,0,0,1-1.95,1.51Z" transform="translate(-20 -90.13)"/><path class="cls-1" d="M53.76,102.82a3.37,3.37,0,0,0-.56-1.17s0-.09,0-.11A5.19,5.19,0,0,0,57,97.63c.71-2.75-1-4.95-5.41-4.95H45L40.8,109.1a.38.38,0,0,0,.37.51h4.07l3.69-14.27,1.71,0c1.57,0,2.15,1,1.81,2.28a3.39,3.39,0,0,1-3.37,2.69h-.6l1.7,8.19a1.32,1.32,0,0,0,1.52,1.13h3.64l-1.58-6.79Z" transform="translate(-20 -90.13)"/><path class="cls-1" d="M109.19,103.88c-1.72,4.12.52,6,5.1,6,4.18,0,6.5-1,7.49-4.84a3.94,3.94,0,0,0-.69-3.61c-1.56-1.7-4.57-2-5.63-3a1.75,1.75,0,0,1-.38-1.81,2.11,2.11,0,0,1,2.24-1.71c1.89,0,1.94,1.16,1.47,2.54h4.05c1-2.88-.3-5.14-5.07-5.14-4,0-6.19,1.58-7,4.6a4.53,4.53,0,0,0,.36,3c1.1,1.89,4,2.13,5.64,3.25a1.55,1.55,0,0,1,.54,1.87,2.32,2.32,0,0,1-2.48,2.08c-1.36,0-2.17-.79-1.39-3.26Z" transform="translate(-20 -90.13)"/><path class="cls-1" d="M74.66,92.68h-6.1L64.32,109.1a.38.38,0,0,0,.37.51h5.43c6.82,0,8-1.3,9.84-8.54C81.58,94.79,80.58,92.68,74.66,92.68Zm.62,8.39c-1.27,4.93-2,5.65-4.53,5.65H69.5l2.94-11.38c.38,0,.52,0,1.46,0C76.55,95.32,76.54,96.2,75.28,101.07Z" transform="translate(-20 -90.13)"/><path class="cls-1" d="M144.67,92.45c-5.13,0-7.35.91-9.37,8.7-1.74,6.75-.34,8.7,4.87,8.7s7.4-1.09,9.37-8.7C151,95.64,150.67,92.45,144.67,92.45Zm.23,8.56c-1.25,4.83-2.48,6-4,6-2,0-2.24-.71-.88-6,1.14-4.39,2.22-5.92,4-5.92C145.94,95.09,146.16,96.14,144.9,101Z" transform="translate(-20 -90.13)"/></svg>