<?xml version="1.0" encoding="UTF-8"?>
<svg xmlns="http://www.w3.org/2000/svg" id="Layer_1" viewBox="0 0 149.72 160">
  <defs>
    <style>.cls-1{fill:#435363;}.cls-2{fill:#f38b00;}</style>
  </defs>
  <title>chef</title>
  <path class="cls-1" d="M25.14,161.95v-.1a17.84,17.84,0,0,1,18.3-18.15c6.62,0,10.58,2.21,13.84,5.41l-4.91,5.67c-2.71-2.46-5.47-4-9-4-5.92,0-10.18,4.91-10.18,10.93v.1c0,6,4.16,11,10.18,11,4,0,6.47-1.61,9.23-4.11l4.91,5A17.94,17.94,0,0,1,43.14,180a17.72,17.72,0,0,1-18-18.05m42.5-17.65h7.72v13.89H89.6V144.3h7.72v35.1H89.6V165.31H75.36V179.4H67.64Zm42.11,0h26.9v7h-19.1v7.23h16.81v7H117.54V173h19.36v7H109.74V144.31Zm38.4,0h26.72v7h-19v7.47H172.6v7H155.86V179.4h-7.72Z" transform="translate(-25.14 -20)"></path>
  <path class="cls-1" d="M101.07,94.81a23.23,23.23,0,1,1,22.31-29.68h9a32,32,0,1,0,0,12.9h-9a23.26,23.26,0,0,1-22.31,16.78" transform="translate(-25.14 -20)"></path>
  <path class="cls-1" d="M85.41,87.24a22.09,22.09,0,0,0,15.66,6.5V84.47A12.86,12.86,0,0,1,92,80.69Z" transform="translate(-25.14 -20)"></path>
  <path class="cls-2" d="M78.91,71.58a22,22,0,0,0,1.88,8.92l8.47-3.73a12.89,12.89,0,0,1,11.8-18.08V49.42A22.18,22.18,0,0,0,78.91,71.58" transform="translate(-25.14 -20)"></path>
  <path class="cls-1" d="M109.1,50.93l-3.36,8.63a12.93,12.93,0,0,1,6.49,5.56h10a22.25,22.25,0,0,0-13.16-14.2" transform="translate(-25.14 -20)"></path>
  <path class="cls-2" d="M105.75,83.59l3.36,8.63A22.26,22.26,0,0,0,122.27,78h-10a12.93,12.93,0,0,1-6.49,5.57" transform="translate(-25.14 -20)"></path>
  <path class="cls-1" d="M60.08,84q-.22-.73-.42-1.46l0-.09q-.18-.68-.34-1.37T59,79.57c0-.18-.06-.36-.09-.53s-.11-.63-.16-1-.08-.55-.11-.82a42.19,42.19,0,0,1-.39-5.69H49.49a51.54,51.54,0,0,0,.38,6.21s0,.09,0,.13c.07.56.14,1.11.23,1.66l.08.46c.08.45.15.9.24,1.35,0,.24.1.48.15.71s.15.72.23,1.07.15.62.23.94.14.56.21.83.21.73.31,1.1c0,.15.08.31.13.46h0a51.23,51.23,0,0,0,2.15,5.84l8-3.53A42.55,42.55,0,0,1,60.08,84Z" transform="translate(-25.14 -20)"></path>
  <path class="cls-2" d="M101.07,114.41A42.69,42.69,0,0,1,70.8,101.84L64.6,108a51.57,51.57,0,0,0,87.64-30h-8.83a42.9,42.9,0,0,1-42.35,36.38m0-85.66a42.59,42.59,0,0,1,25.6,8.52l5.24-7A51.58,51.58,0,0,0,53,52.87L61.16,56a42.89,42.89,0,0,1,39.91-27.3" transform="translate(-25.14 -20)"></path>
  <path class="cls-1" d="M143.41,65.13h8.83a51.24,51.24,0,0,0-7.42-20.86l-7.44,4.64a42.58,42.58,0,0,1,6,16.22" transform="translate(-25.14 -20)"></path>
  <path class="cls-2" d="M133.47,65.13h8.86a41.88,41.88,0,0,0-26.12-32.46L113,40.8a33.14,33.14,0,0,1,20.42,24.33" transform="translate(-25.14 -20)"></path>
  <path class="cls-1" d="M101.07,38.55V29.82h0A41.82,41.82,0,0,0,62.16,56.44l8.13,3.16a33.08,33.08,0,0,1,30.78-21.05" transform="translate(-25.14 -20)"></path>
  <path class="cls-2" d="M68,71.58H59.31a41.81,41.81,0,0,0,26.25,38.76l3.24-8.1A33.08,33.08,0,0,1,68,71.58" transform="translate(-25.14 -20)"></path>
  <path class="cls-1" d="M101.07,104.61v8.73A41.82,41.82,0,0,0,142.33,78h-8.86a33.08,33.08,0,0,1-32.4,26.58" transform="translate(-25.14 -20)"></path>
</svg>
