<svg id="Layer_1" data-name="Layer 1" xmlns="http://www.w3.org/2000/svg" viewBox="0 0 160 84.33"><defs><style>.cls-1{fill:#c42339;}.cls-2{fill:#1a576a;}</style></defs><title>Cisco_1</title><polygon class="cls-1" points="155.98 80.18 155.98 80.61 154.74 80.61 154.74 83.84 154.23 83.84 154.23 80.61 152.99 80.61 152.99 80.18 155.98 80.18"/><polygon class="cls-1" points="156.25 80.18 157.04 80.18 158.13 83.18 158.16 83.18 159.22 80.18 160 80.18 160 83.84 159.48 83.84 159.48 80.84 159.46 80.84 158.34 83.84 157.86 83.84 156.79 80.84 156.76 80.84 156.76 83.84 156.25 83.84 156.25 80.18"/><rect class="cls-1" x="45.25" y="56.04" width="7.02" height="27.8"/><path class="cls-1" d="M128.83,121.84a12.17,12.17,0,0,0-5.9-1.49,7.43,7.43,0,1,0,0,14.84,12.31,12.31,0,0,0,5.9-1.48v7.47a22.54,22.54,0,0,1-6.4,1c-7.89,0-14.8-5.44-14.8-14.4,0-8.31,6.26-14.39,14.8-14.39a21.26,21.26,0,0,1,6.4,1Z" transform="translate(-20 -57.83)"/><path class="cls-1" d="M55.61,121.84a12.15,12.15,0,0,0-5.9-1.49c-4.54,0-7.69,3.16-7.69,7.42a7.28,7.28,0,0,0,7.69,7.42,12.37,12.37,0,0,0,5.9-1.48v7.47a22.54,22.54,0,0,1-6.41,1c-7.88,0-14.8-5.44-14.8-14.4,0-8.31,6.27-14.39,14.8-14.39a21.48,21.48,0,0,1,6.41,1Z" transform="translate(-20 -57.83)"/><path class="cls-1" d="M165.6,127.77a14.69,14.69,0,1,1-14.68-14.39A14.27,14.27,0,0,1,165.6,127.77Zm-14.68-7.31a7.31,7.31,0,1,0,7.25,7.31A7.19,7.19,0,0,0,150.91,120.45Z" transform="translate(-20 -57.83)"/><path class="cls-1" d="M98.88,120.19a24.39,24.39,0,0,0-5.48-.84c-2.82,0-4.35.94-4.35,2.28,0,1.7,2.06,2.28,3.21,2.65l1.94.61c4.56,1.45,6.63,4.57,6.63,7.95,0,7-6.14,9.33-11.52,9.33a41.59,41.59,0,0,1-7.57-.76V135a26.65,26.65,0,0,0,6.63,1c3.48,0,5.09-1,5.09-2.6,0-1.41-1.39-2.22-3.14-2.77l-1.49-.49c-3.91-1.23-7.17-3.52-7.17-8.13,0-5.2,3.9-8.7,10.37-8.7a30.09,30.09,0,0,1,6.84.89Z" transform="translate(-20 -57.83)"/><path class="cls-2" d="M27,84a3.48,3.48,0,0,0-7,0v7.3a3.48,3.48,0,1,0,7,0Z" transform="translate(-20 -57.83)"/><path class="cls-2" d="M46.1,74.41a3.48,3.48,0,0,0-7,0V91.29a3.48,3.48,0,1,0,7,0Z" transform="translate(-20 -57.83)"/><path class="cls-2" d="M65.23,61.3a3.49,3.49,0,0,0-7,0V98.23a3.49,3.49,0,0,0,7,0Z" transform="translate(-20 -57.83)"/><path class="cls-2" d="M84.36,74.41a3.48,3.48,0,0,0-7,0V91.29a3.48,3.48,0,1,0,7,0Z" transform="translate(-20 -57.83)"/><path class="cls-2" d="M103.48,84a3.47,3.47,0,0,0-6.95,0v7.3a3.47,3.47,0,1,0,6.95,0Z" transform="translate(-20 -57.83)"/><path class="cls-2" d="M122.62,74.41a3.47,3.47,0,0,0-6.95,0V91.29a3.47,3.47,0,1,0,6.95,0Z" transform="translate(-20 -57.83)"/><path class="cls-2" d="M141.75,61.3a3.47,3.47,0,0,0-6.95,0V98.23a3.47,3.47,0,1,0,6.95,0Z" transform="translate(-20 -57.83)"/><path class="cls-2" d="M160.89,74.41a3.49,3.49,0,0,0-7,0V91.29a3.49,3.49,0,0,0,7,0Z" transform="translate(-20 -57.83)"/><path class="cls-2" d="M180,84a3.47,3.47,0,0,0-6.95,0v7.3a3.47,3.47,0,1,0,6.95,0Z" transform="translate(-20 -57.83)"/></svg>