<svg id="Layer_1" data-name="Layer 1" xmlns="http://www.w3.org/2000/svg" viewBox="0 0 160 60.44"><defs><style>.cls-1{fill:#231f20;fill-rule:evenodd;}</style></defs><title>dyson_logo</title><path class="cls-1" d="M50.44,69.78h-8v14.8H35.2a15.2,15.2,0,1,0,15.24,15.2c0-4.2,0-15.21,0-15.21V69.78Zm-8,30a7.23,7.23,0,1,1-7.23-7.23h7.22v7.24Z" transform="translate(-20 -69.78)"/><path class="cls-1" d="M116,99.77A15.2,15.2,0,1,1,131.23,115,15.19,15.19,0,0,1,116,99.77ZM131.2,107a7.26,7.26,0,1,0-7.26-7.26A7.26,7.26,0,0,0,131.2,107Z" transform="translate(-20 -69.78)"/><path class="cls-1" d="M172,99.79a7.18,7.18,0,0,0-14.36,0c0,1.95,0,14.56,0,14.56h-8s0-10.38,0-14.57a15.19,15.19,0,1,1,30.38,0c0,4.28,0,14.55,0,14.55h-8s0-12.56,0-14.55Z" transform="translate(-20 -69.78)"/><path class="cls-1" d="M97.33,94.49c-1.17-.76-.78-2.16,1.09-2.68,2.48-.68,6.58-.13,10.25,1.49l3.78-5.16c-1.65-1.37-5.17-3.12-10.41-3.46,0,0-8.74-1.09-12.28,5.55,0,0-3.13,6.2,3,10.06,3.76,2.35,10.28,3.18,12.26,4.29,1.69,1,1.13,2.74-1.37,3.3-4.14.94-9.71-1.42-11.58-2.82l-3.82,5.28a23.37,23.37,0,0,0,11.07,4.53s8.22,1.42,12.75-4.23c.84-1,4.56-8-2.92-12-3.71-2-9.91-2.87-11.89-4.15Z" transform="translate(-20 -69.78)"/><path class="cls-1" d="M60,120.28c.33.2,4.07,2.76,7.69,2.84,8.7.18,9.25-8.87,9.25-11A11.41,11.41,0,0,1,69.75,115a14.94,14.94,0,0,1-15.12-15c0-4.15,0-14.84,0-14.84h8s0,13,0,14.82A7.18,7.18,0,1,0,77,100c0-1.62,0-14.82,0-14.82h8V100c0,13.15.64,26.65-12.16,29.71a19.57,19.57,0,0,1-16.81-4l4-5.41Z" transform="translate(-20 -69.78)"/></svg>