<svg id="Layer_1" data-name="Layer 1" xmlns="http://www.w3.org/2000/svg" viewBox="0 0 160 55.11" preserveAspectRatio="xMinYMin"><defs><style>.cls-1{fill:#fff;}.cls-2{fill:#5bc3e8;}.cls-3,.cls-4{fill:#304957;}.cls-4{fill-rule:evenodd;}</style></defs><title>Emma</title><circle class="cls-1" cx="27.55" cy="27.56" r="26.53"/><path class="cls-2" d="M47.55,127.56A27.56,27.56,0,1,1,75.11,100,27.59,27.59,0,0,1,47.55,127.56Zm0-53.07A25.52,25.52,0,1,0,73.07,100,25.54,25.54,0,0,0,47.55,74.48Z" transform="translate(-20 -72.44)"/><path class="cls-3" d="M60.94,103.44c.21-1.95.67-2.61,1.45-2.77l.06-.89a33.89,33.89,0,0,0-6.73-.67c-3.76,0-6,1.33-7.58,1.33s-3.82-1.33-7.58-1.33c-1.13,0-1.82.05-2.72.12-.14.41-.28.86-.43,1.36a5.15,5.15,0,0,1,2.91-.6c6.55,0,5.53,2.54,5.29,3.51s-1,3.72-5.36,3.72c-2.55,0-3.43-1.59-3.72-3.37l0-.21c-.18.54-.36,1-.54,1.53.46,1.53,1.64,3,4.4,3,5,0,6-3.16,6.57-4.6s.35-1.62,1.21-1.64.72.24,1.23,1.61,1.53,4.62,6.55,4.62C60.17,108.13,60.75,105.16,60.94,103.44ZM56,107.21c-4.39,0-5.1-2.74-5.34-3.73s-1.53-3.51,5-3.51c5,0,4.56,2.29,4.36,3.72A3.87,3.87,0,0,1,56,107.21Z" transform="translate(-20 -72.44)"/><path class="cls-3" d="M35.25,107c-1.09,2.15-1.66,2.54-2.65,3.14A1.8,1.8,0,0,1,31,112.05a2.53,2.53,0,0,1-1.78-.78.28.28,0,0,0-.29,0,.25.25,0,0,0,0,.3,4,4,0,0,0,.58.84,6,6,0,0,0,1.08,1,3.75,3.75,0,0,0,2.36.72,3.67,3.67,0,0,0,2.82-1.5,3.58,3.58,0,0,0,.69-2.29A7.44,7.44,0,0,0,35.25,107Z" transform="translate(-20 -72.44)"/><path class="cls-3" d="M50.54,88.73a6.43,6.43,0,0,0-5.22-3,12.74,12.74,0,0,0-3.13.26,11.49,11.49,0,0,0-5.26,2.63,13.73,13.73,0,0,0-4.42,9.26c-.22,2.73.13,5.9-1.44,8.27-.57.86-1.24,1.6-3.48,1.51-.2,0-.33,0-.4.06s0,.21.09.37c1.49,2,6.06,4.68,8.84-6,.91-3.49,1.12-3.84,2.09-4.94s3.88-1.84,5-2a23.61,23.61,0,0,0,5.41-1.13,4.1,4.1,0,0,0,2.25-2.24A4,4,0,0,0,50.54,88.73Z" transform="translate(-20 -72.44)"/><path class="cls-3" d="M66.74,110.4a.27.27,0,0,0-.22.12,2.41,2.41,0,0,1-2.23.87,2.36,2.36,0,0,1-1.84-1.83c-.28-2.38.79-4.34,1.75-6.73a19.89,19.89,0,0,0,.92-3.32c1-4.89-1.69-10.06-3.47-12.42-4.9-6.49-13.61-6.89-16.13-7h-.15c-.62.09.52.52,1.14,1.05a2.94,2.94,0,0,1,.82.89c.23.44.29.91-.13.68a7.2,7.2,0,0,0-2.69-.87,11.06,11.06,0,0,0-3.69.09,10,10,0,0,0-3.59,1.26,12.42,12.42,0,0,0-4.35,3.61A14,14,0,0,0,30,96.33a37.55,37.55,0,0,0,1.55,7.46,32.78,32.78,0,0,0,.18-4.1c0-.8,0-1.56.09-2.26a14.15,14.15,0,0,1,3.79-9,11.85,11.85,0,0,1,8.5-3.66,10.69,10.69,0,0,1,2.73.24c1.92.57,5.44,2.24,5,6.34a1.33,1.33,0,0,0,.61,1.45c1.93,1.36,6.44,1.16,7.75,5.4h0l.06.18.07.25a23.74,23.74,0,0,1,2.52.48l.45.1,0,.56-.06.89,0,.43-.4.09c-.28.06-.82.35-1,2.28a7.3,7.3,0,0,1-1,3.34A3.15,3.15,0,0,1,59.53,108c-.82,4.41,2.3,5.85,4.32,5.56a3.35,3.35,0,0,0,3-2.95A.15.15,0,0,0,66.74,110.4Z" transform="translate(-20 -72.44)"/><path class="cls-3" d="M44,103.49c.26.36.74-.13.47-.49-1.78-2.34-4.88-1.53-6.81-.19-.53.37-.25,1,.33.77l.14-.07c.54-.31,1.13-.68,1.75-1a1.41,1.41,0,0,0-.17.67,1.49,1.49,0,0,0,3,0,1.42,1.42,0,0,0-.46-1A3.15,3.15,0,0,1,44,103.49Zm-2.86.05a.35.35,0,1,1,.36-.35A.35.35,0,0,1,41.16,103.55Z" transform="translate(-20 -72.44)"/><path class="cls-3" d="M58.6,102.83c-1.94-1.35-5-2.13-6.83.21-.27.36.26.81.52.44a3,3,0,0,1,1.78-1.32,1.42,1.42,0,0,0-.52,1.09,1.49,1.49,0,0,0,3,0,1.4,1.4,0,0,0-.18-.69c.62.3,1.22.68,1.76,1l.14.07C58.83,103.86,59.13,103.2,58.6,102.83Zm-3.48.74a.36.36,0,1,1,.35-.36A.36.36,0,0,1,55.12,103.57Z" transform="translate(-20 -72.44)"/><path class="cls-3" d="M50.79,112.56c.33-.34-.08-.72-.42-.45-1.62,1.27-2.45,1.23-4.25.18-.41-.24-.73.23-.35.49C47.51,114.21,49.17,114.22,50.79,112.56Z" transform="translate(-20 -72.44)"/><path class="cls-3" d="M51.39,117.5a9,9,0,0,1-3.15.94,9,9,0,0,1-3.15-.94c-.32-.13-.38.19-.22.31.69.48,2.23,1.72,3.36,1.72s2.7-1.24,3.38-1.72C51.81,117.65,51.71,117.36,51.39,117.5Z" transform="translate(-20 -72.44)"/><path class="cls-3" d="M52.8,116a2.26,2.26,0,0,1-1,.17,7.73,7.73,0,0,1-2.39-.37c-.33-.08-.87.4-1.19.4s-.86-.48-1.19-.4a7.73,7.73,0,0,1-2.39.37,2.26,2.26,0,0,1-1-.17c-.25-.09-.39.13-.23.26a4,4,0,0,0,1.3.63,13.84,13.84,0,0,0,3.46.51,14.43,14.43,0,0,0,3.5-.51,4,4,0,0,0,1.3-.63C53.18,116.16,53,115.94,52.8,116Z" transform="translate(-20 -72.44)"/><path class="cls-4" d="M83.82,101.54a8,8,0,0,0,1.76,5.87,6.57,6.57,0,0,0,4.48,2.18h.52a8.65,8.65,0,0,0,5.82-2.13,6.43,6.43,0,0,0,2-2.76.58.58,0,0,0,0-.47.08.08,0,0,0-.07,0s-.13,0-.28.16-1,.81-1.42,1.12A8.35,8.35,0,0,1,93,106.84,3.61,3.61,0,0,1,88.81,104c-.08-.28-.23-.88-.24-.9a.17.17,0,0,1,0-.14.18.18,0,0,1,.11-.08s4.31-.87,6-1.45l.12,0c.9-.32,3.65-1.27,3.82-3.89a4.65,4.65,0,0,0-2.34-3.9,6.77,6.77,0,0,0-3.55-1,7.52,7.52,0,0,0-1.92.26A9.35,9.35,0,0,0,83.82,101.54Zm4.71-1.62c.29-2.53,1.48-4.13,3.16-4.49.19,0,1.79-.33,2.5.69a2.43,2.43,0,0,1,0,2.32c-.61,1.22-2,1.67-3.27,2-.37.1-1.2.3-1.6.36l-.68.09h.1a.6.6,0,0,1-.23,0,.17.17,0,0,1-.06-.13S88.48,100.26,88.52,99.92Z" transform="translate(-20 -72.44)"/><path class="cls-4" d="M124.61,108c.05-.16.23-1,.26-1.14.16-.88.5-2.56.67-3.34.08-.35.6-3.2.73-3.94v-.05a12.79,12.79,0,0,0,.3-4.47,3,3,0,0,0-.74-1.23,4,4,0,0,0-2.09-.82,5.29,5.29,0,0,0-.61,0,10.54,10.54,0,0,0-5.3,1.72,1.34,1.34,0,0,1-.69.32c-.24,0-.37-.18-.54-.41a4.49,4.49,0,0,0-1.22-1.17,3.79,3.79,0,0,0-2-.44,8.36,8.36,0,0,0-3.13.61c-.45.19-.91.42-1.32.63a5,5,0,0,1-1.56.63.33.33,0,0,1-.32-.18c-.79-1.64-2.67-1.88-3.72-1.88H103a3.72,3.72,0,0,0-2.46,1c-.28.24-.39.52-.33.61s.06.09.25.09l.23,0a1.64,1.64,0,0,1,1.44.47c1,1.26.17,5.23-.15,6.72l-.39,1.87c-.31,1.51-.67,3.27-.87,4.28a.89.89,0,0,0,.12.66c.31.39.73.37,1.64.37h1c.85,0,1.33-.3,1.43-.73.17-.78.3-1.41.41-2s.37-1.71.37-1.71c.56-2.35.89-3.76,1.3-5.13a4.85,4.85,0,0,1,2.58-3.19,4.14,4.14,0,0,1,1.59-.3,2.71,2.71,0,0,1,1,.17c.83.35.61,1.63.46,2.48v.06c-.29,1.69-.65,3.37-.85,4.27l-.06.27c-.16.76-.68,3.38-.91,4.8-.06.39,0,.61.06.73s.47.26,1.22.26h1.35c.63,0,.84-.19,1-1s1-4.49,1.38-6.28l.14-.63s.66-2.87,1.4-3.7A4.66,4.66,0,0,1,120,96a3.47,3.47,0,0,1,.57,0,2.49,2.49,0,0,1,.9.15c.84.34.76,1.68.65,2.25-.24,1.34-.52,2.81-.79,4.22-.3,1.58-.73,3.73-1,5.24-.19,1.15.88,1.18,2.08,1.17C123.15,109,124.29,109.05,124.61,108Z" transform="translate(-20 -72.44)"/><path class="cls-4" d="M152.77,108c.05-.16.23-1,.26-1.14.16-.88.5-2.56.67-3.34.08-.35.6-3.2.73-3.94v-.05a12.83,12.83,0,0,0,.3-4.47,3,3,0,0,0-.74-1.23,3.94,3.94,0,0,0-2.09-.82,5.34,5.34,0,0,0-.61,0A10.54,10.54,0,0,0,146,94.7a1.33,1.33,0,0,1-.69.32c-.24,0-.38-.18-.54-.41a4.55,4.55,0,0,0-1.22-1.17,3.77,3.77,0,0,0-2-.44,8.37,8.37,0,0,0-3.13.61c-.45.19-.91.42-1.32.63a5,5,0,0,1-1.56.63.33.33,0,0,1-.32-.18c-.79-1.64-2.67-1.88-3.72-1.88h-.34a3.71,3.71,0,0,0-2.46,1c-.28.24-.4.52-.33.61s.06.09.25.09l.23,0a1.64,1.64,0,0,1,1.44.47c1,1.26.17,5.23-.15,6.72l-.39,1.87c-.31,1.51-.67,3.27-.87,4.28a.89.89,0,0,0,.12.66c.31.39.74.37,1.64.37h1c.85,0,1.33-.3,1.43-.73.17-.78.3-1.41.42-2s.37-1.71.37-1.71c.56-2.35.89-3.76,1.29-5.13a4.85,4.85,0,0,1,2.58-3.19,4.14,4.14,0,0,1,1.59-.3,2.71,2.71,0,0,1,1,.17c.84.35.61,1.63.46,2.48v.06c-.29,1.69-.65,3.37-.85,4.27l-.06.27c-.16.76-.69,3.38-.91,4.8-.06.39,0,.61.06.73s.47.26,1.22.26h1.36c.63,0,.84-.19,1-1s1-4.49,1.38-6.28l.14-.63s.66-2.87,1.4-3.7a4.65,4.65,0,0,1,2.68-1.4,3.45,3.45,0,0,1,.57,0,2.49,2.49,0,0,1,.9.15c.84.34.76,1.68.65,2.25-.24,1.34-.52,2.81-.79,4.22-.3,1.58-.73,3.73-1,5.24-.19,1.15.88,1.18,2.08,1.17C151.31,109,152.45,109.05,152.77,108Z" transform="translate(-20 -72.44)"/><path class="cls-4" d="M171.28,109a5,5,0,0,0,1.54-.24c1.54-.51,2.88-2.17,2.81-2.59,0,0,0-.05-.12-.05h-.13a2.85,2.85,0,0,0-.46.17,3.75,3.75,0,0,1-1.36.39h0a1.88,1.88,0,0,1-1.65-1.1,4.42,4.42,0,0,1,.06-3l0-.18c.16-.67,2.16-8.66,2.17-8.7a.66.66,0,0,0-.07-.62c-.18-.15-.56,0-.94.11l-1,.35-.91.33a2.41,2.41,0,0,1-.84.17,1.85,1.85,0,0,1-1.23-.57,4,4,0,0,0-1.3-.67,8.35,8.35,0,0,0-2.22-.31,7.88,7.88,0,0,0-5.08,1.89,14.06,14.06,0,0,0-4.33,11.47c.33,2.37,2,3.59,5,3.71a7.55,7.55,0,0,0,3.76-1l.14-.06a9.65,9.65,0,0,0,1.1-.66,3.28,3.28,0,0,1,1.33-.67.37.37,0,0,1,.33.18A3.74,3.74,0,0,0,171.28,109Zm-3.13-10.54c-.11.68-.3,1.64-.47,2.41s-.33,1.43-.51,2.14c-.12.46-.23.93-.35,1.43-.3,1.3-2.11,2.17-3.61,2.17h0a2.26,2.26,0,0,1-1.64-.55c-1.22-1.25-1.11-3.59.33-6.78a11.22,11.22,0,0,1,2.3-3.2,3.15,3.15,0,0,1,2-.76,1.85,1.85,0,0,1,2,1.3A4.92,4.92,0,0,1,168.15,98.51Z" transform="translate(-20 -72.44)"/><path class="cls-3" d="M178.68,95.5A1.32,1.32,0,1,1,180,94.18a1.32,1.32,0,0,1-1.32,1.32Zm0-2.42a1.1,1.1,0,1,0,1.11,1.1,1.1,1.1,0,0,0-1.11-1.1Z" transform="translate(-20 -72.44)"/><path class="cls-3" d="M178.9,94.31a.44.44,0,0,0,.34-.45.46.46,0,0,0-.49-.47h-.58v1.52h.24v-.58h.22l.39.58h.29Zm-.49-.69h.33a.23.23,0,0,1,.25.24.23.23,0,0,1-.25.24h-.33Z" transform="translate(-20 -72.44)"/></svg>
