<svg id="Layer_1" data-name="Layer 1" xmlns="http://www.w3.org/2000/svg" viewBox="0 0 160 140.33"><defs><style>.cls-1{fill:#00275e;}</style></defs><title>ericsson_logo</title><path class="cls-1" d="M77.24,67.13a9.4,9.4,0,0,1-6.47-17.66l52-19.06a9.4,9.4,0,0,1,6.47,17.66Z" transform="translate(-20 -29.84)"/><path class="cls-1" d="M77.24,95.27a9.4,9.4,0,0,1-6.47-17.66l52-19.06a9.4,9.4,0,1,1,6.47,17.66Z" transform="translate(-20 -29.84)"/><path class="cls-1" d="M77.24,123.41a9.4,9.4,0,0,1-6.47-17.66l52-19.06a9.4,9.4,0,0,1,6.47,17.66Z" transform="translate(-20 -29.84)"/><polygon class="cls-1" points="0 116.95 17.44 116.95 17.44 121.69 6.16 121.69 6.16 125.81 16.98 125.81 16.98 130.73 6.16 130.73 6.16 134.98 17.62 134.98 17.62 139.76 0 139.76 0 116.95"/><rect class="cls-1" x="44.54" y="116.95" width="6.21" height="22.82"/><path class="cls-1" d="M93.38,147.52,93,152.41c-5-2.9-12.69-2-12.83,5.63s7.91,8.71,13,6.13l.32,5c-9,2.81-19.78,0-19.74-11.11,0-10.84,10.9-13.84,19.65-10.51" transform="translate(-20 -29.84)"/><path class="cls-1" d="M111.64,147.17l-.42,4.75c-3.12-1.72-9.06-1.77-9.06.94,0,4,10.58,1.11,10.58,9.69s-10.07,8.53-16.61,6.57l.47-5c4.09,1.91,9.89,2.33,9.89-1,0-3.64-10.63-1.59-10.63-9.74,0-6.68,8.28-8.48,15.78-6.2" transform="translate(-20 -29.84)"/><path class="cls-1" d="M130.36,147.17l-.41,4.75c-3.13-1.72-9.06-1.77-9.06.94,0,4,10.58,1.11,10.58,9.69s-10.08,8.53-16.61,6.57l.47-5c4.09,1.91,9.89,2.33,9.89-1,0-3.64-10.62-1.59-10.62-9.74,0-6.68,8.28-8.48,15.77-6.2" transform="translate(-20 -29.84)"/><polygon class="cls-1" points="138.93 116.95 146.79 116.95 154.3 131.67 154.3 116.95 160 116.95 160 139.77 152.59 139.77 144.69 124.78 144.69 139.77 138.93 139.77 138.93 116.95"/><path class="cls-1" d="M144.63,146.24c6.45,0,11.36,3.78,11.36,12,0,7.87-4.94,11.91-11.36,11.91s-11.32-4-11.32-11.91c0-8.23,4.89-12,11.32-12m-5,12c0,3.48,1.49,7.41,5,7.41s4.94-3.93,5-7.41c0-3.14-1.49-7.4-5-7.41s-5,3.93-5,7.41" transform="translate(-20 -29.84)"/><path class="cls-1" d="M47.88,156.4h3.4a2.57,2.57,0,1,0,.09-5.1H47.88Zm-5.94-9.61H53.13c3,0,7.26,1.33,7.26,6.07,0,3-1.37,4.73-4,5.52a3.51,3.51,0,0,1,2.06,2.3c0,.06,3.2,8.9,3.23,8.92H55.1l-2.34-6.86A2.34,2.34,0,0,0,50.5,161c-1,0-2.48-.06-2.48,0v8.61H41.94Z" transform="translate(-20 -29.84)"/></svg>