<?xml version="1.0" encoding="UTF-8"?>
<!-- Generator: Adobe Illustrator 22.0.0, SVG Export Plug-In . SVG Version: 6.00 Build 0)  -->
<svg xmlns="http://www.w3.org/2000/svg" xmlns:xlink="http://www.w3.org/1999/xlink" id="Layer_1" x="0px" y="0px" viewBox="0 0 205.9 44.3" preserveAspectRatio="xMinYMin" style="enable-background:new 0 0 205.9 44.3;" xml:space="preserve">
<style type="text/css">
	.st0{fill:#231F20;}
</style>
<path class="st0" d="M62.4,7.9h-7.6v4.5h6.8v1.3h-6.8v5.5h-1.4V6.6h9.1L62.4,7.9L62.4,7.9z M64.6,7.9V6.4h1.6v1.5H64.6z M64.6,19.2  V9.9H66v9.3H64.6z M70.3,19.2h-1.4V9.9h1.4v1.6c0.6-1,1.6-1.8,3.2-1.8c2.2,0,3.6,1.5,3.6,3.7v5.8h-1.4v-5.4c0-1.7-0.9-2.8-2.6-2.8  c-1.6,0-2.8,1.2-2.8,2.9C70.3,13.9,70.3,19.2,70.3,19.2z M80.2,11.7l-0.4-1.1c1-0.5,2-0.8,3.4-0.8c2.5,0,4,1.3,4,3.7v5.7h-1.3v-1.4  c-0.6,0.8-1.7,1.6-3.4,1.6c-1.7,0-3.5-1-3.5-2.9c0-2,1.6-3,4-3c1.2,0,2,0.2,2.9,0.4v-0.3c0-1.7-1-2.5-2.8-2.5  C81.9,11,81,11.3,80.2,11.7z M80.3,16.5c0,1.2,1.1,1.9,2.3,1.9c1.7,0,3.1-1,3.1-2.5V15c-0.7-0.2-1.6-0.4-2.7-0.4  C81.3,14.5,80.3,15.3,80.3,16.5z M91.1,19.2h-1.4V9.9h1.4v1.6c0.6-1,1.6-1.8,3.2-1.8c2.3,0,3.6,1.5,3.6,3.7v5.8h-1.4v-5.4  c0-1.7-0.9-2.8-2.6-2.8c-1.6,0-2.8,1.2-2.8,2.9C91.1,13.9,91.1,19.2,91.1,19.2z M104.6,19.4c-2.7,0-4.8-2.2-4.8-4.8s2.1-4.9,4.8-4.9  c1.8,0,2.9,0.7,3.7,1.7l-0.9,1c-0.7-0.8-1.6-1.4-2.8-1.4c-1.9,0-3.3,1.6-3.3,3.6s1.5,3.6,3.4,3.6c1.2,0,2.1-0.6,2.8-1.4l0.9,0.8  C107.5,18.7,106.4,19.4,104.6,19.4z M110.4,7.9V6.4h1.6v1.5H110.4z M110.5,19.2V9.9h1.4v9.3H110.5z M115.2,11.7l-0.4-1.1  c1-0.5,2-0.8,3.4-0.8c2.5,0,4,1.3,4,3.7v5.7h-1.3v-1.4c-0.6,0.8-1.7,1.6-3.4,1.6c-1.7,0-3.5-1-3.5-2.9c0-2,1.6-3,4-3  c1.2,0,2,0.2,2.9,0.4v-0.3c0-1.7-1-2.5-2.8-2.5C117,11,116.1,11.3,115.2,11.7z M115.4,16.5c0,1.2,1.1,1.9,2.3,1.9  c1.7,0,3.1-1,3.1-2.5V15c-0.7-0.2-1.6-0.4-2.7-0.4C116.4,14.5,115.4,15.3,115.4,16.5z M124.9,19.2V6.1h1.4v13.1H124.9z M138.9,12.2  c2.8,0.6,4.1,1.6,4.1,3.6c0,2.2-1.8,3.6-4.3,3.6c-2,0-3.6-0.7-5.1-2l0.9-1c1.3,1.2,2.6,1.8,4.3,1.8s2.8-0.9,2.8-2.2  c0-1.2-0.6-1.9-3.3-2.4c-2.9-0.6-4.2-1.6-4.2-3.7c0-2,1.7-3.5,4.1-3.5c1.8,0,3.2,0.5,4.4,1.5L141.8,9c-1.2-1-2.3-1.4-3.6-1.4  c-1.6,0-2.7,0.9-2.7,2.1C135.5,11,136.2,11.6,138.9,12.2z M149.4,18.2c1.3,0,2.2-0.5,2.9-1.3l0.9,0.8c-0.9,1-2.1,1.7-3.8,1.7  c-2.6,0-4.6-2-4.6-4.9c0-2.7,1.9-4.9,4.5-4.9c2.8,0,4.3,2.2,4.3,4.9c0,0.1,0,0.3,0,0.4h-7.4C146.4,17.1,147.8,18.2,149.4,18.2z   M152.2,14.1c-0.1-1.7-1.1-3.2-3-3.2c-1.6,0-2.8,1.4-3,3.2H152.2z M157,19.2h-1.4V9.9h1.4v2.4c0.7-1.5,2-2.7,3.8-2.6v1.5h-0.1  c-2,0-3.7,1.5-3.7,4.3V19.2z M169.5,9.9h1.5l-4.1,9.4h-1.2l-4-9.4h1.5l3.1,7.7L169.5,9.9z M172.8,7.9V6.4h1.6v1.5H172.8z   M172.9,19.2V9.9h1.4v9.3H172.9z M181.3,19.4c-2.7,0-4.8-2.2-4.8-4.8s2.1-4.9,4.8-4.9c1.8,0,2.9,0.7,3.7,1.7l-0.9,1  c-0.7-0.8-1.6-1.4-2.8-1.4c-1.9,0-3.3,1.6-3.3,3.6s1.5,3.6,3.4,3.6c1.2,0,2.1-0.6,2.8-1.4l0.9,0.8C184.2,18.7,183.1,19.4,181.3,19.4  z M190.9,18.2c1.3,0,2.2-0.5,2.9-1.3l0.9,0.8c-0.9,1-2.1,1.7-3.8,1.7c-2.6,0-4.6-2-4.6-4.9c0-2.7,1.9-4.9,4.5-4.9  c2.8,0,4.3,2.2,4.3,4.9c0,0.1,0,0.3,0,0.4h-7.4C187.8,17.1,189.3,18.2,190.9,18.2z M193.6,14.1c-0.1-1.7-1.1-3.2-3-3.2  c-1.6,0-2.8,1.4-3,3.2H193.6z M200.2,19.4c-1.3,0-2.8-0.5-3.9-1.4l0.7-1c1,0.8,2.1,1.2,3.2,1.2c1.1,0,1.9-0.6,1.9-1.5l0,0  c0-0.9-1.1-1.3-2.3-1.6c-1.5-0.4-3.1-0.9-3.1-2.6l0,0c0-1.6,1.3-2.7,3.2-2.7c1.1,0,2.4,0.4,3.3,1l-0.6,1c-0.9-0.6-1.9-0.9-2.8-0.9  c-1.1,0-1.8,0.6-1.8,1.4l0,0c0,0.9,1.2,1.2,2.4,1.6c1.4,0.4,3,1,3,2.7l0,0C203.5,18.4,202,19.4,200.2,19.4z M54.9,25.4V38h-1.4V25.4  H54.9z M59.3,38H58v-9.3h1.4v1.6c0.6-1,1.6-1.8,3.2-1.8c2.3,0,3.6,1.5,3.6,3.7V38h-1.4v-5.4c0-1.7-0.9-2.8-2.6-2.8  c-1.6,0-2.8,1.2-2.8,2.9V38H59.3z M76.2,38v-1.9c-0.8,1.1-1.9,2.1-3.6,2.1c-2.2,0-4.4-1.8-4.4-4.8c0-3.1,2.2-4.9,4.4-4.9  c1.7,0,2.8,0.9,3.6,2v-5.6h1.4V38H76.2z M72.8,29.8c-1.8,0-3.3,1.3-3.3,3.6c0,2.2,1.5,3.6,3.3,3.6c1.7,0,3.4-1.4,3.4-3.6  C76.2,31.2,74.6,29.8,72.8,29.8z M86.9,28.7h1.4V38h-1.4v-1.6c-0.6,1-1.6,1.8-3.2,1.8c-2.3,0-3.6-1.5-3.6-3.7v-5.8h1.4v5.4  c0,1.7,0.9,2.8,2.6,2.8c1.6,0,2.8-1.2,2.8-2.9C86.9,34,86.9,28.7,86.9,28.7z M94.1,38.2c-1.3,0-2.8-0.5-3.9-1.4l0.7-1  c1,0.8,2.1,1.2,3.2,1.2s1.9-0.6,1.9-1.5l0,0c0-0.9-1.1-1.3-2.3-1.6c-1.5-0.4-3.1-0.9-3.1-2.6l0,0c0-1.6,1.3-2.7,3.2-2.7  c1.1,0,2.4,0.4,3.3,1l-0.6,1c-0.9-0.6-1.9-0.9-2.8-0.9c-1.1,0-1.8,0.6-1.8,1.4l0,0c0,0.9,1.2,1.2,2.4,1.6c1.4,0.4,3,1,3,2.7l0,0  C97.4,37.2,95.9,38.2,94.1,38.2z M101.3,35.4c0,1.1,0.6,1.5,1.6,1.5c0.5,0,0.9-0.1,1.4-0.3v1.2c-0.5,0.3-1,0.4-1.7,0.4  c-1.5,0-2.6-0.7-2.6-2.6V30h-1.3v-1.2h1.3V26h1.4v2.8h3V30h-3v5.4H101.3z M107.7,38h-1.4v-9.3h1.4v2.4c0.7-1.5,2-2.7,3.8-2.6V30  h-0.1c-2,0-3.7,1.5-3.7,4.3C107.7,34.3,107.7,38,107.7,38z M117.8,38.3c-0.8,1.9-1.7,2.6-3.1,2.6c-0.8,0-1.4-0.2-2-0.5l0.5-1.1  c0.5,0.2,0.9,0.3,1.5,0.3c0.8,0,1.4-0.4,1.9-1.7l-4.2-9.3h1.5l3.4,7.8l3-7.8h1.5L117.8,38.3z M22.2,0.1c-12.1,0-22,9.9-22,22  c0,12.1,9.9,22,22,22c12.1,0,21.9-9.8,22-22C44.2,10,34.3,0.1,22.2,0.1z M22.2,43.2c-11.6,0-21-9.4-21-21c0-11.6,9.4-21,21-21  c11.5,0,20.9,9.4,21,21C43.2,33.8,33.8,43.2,22.2,43.2z M22.5,21.8V12c1.8,0.1,3.5,1,4.3,2.6c0.2,0.2,0.5,0.3,0.7,0.1  c0.2-0.2,0.3-0.5,0.1-0.7c-1.1-1.7-2.9-2.7-5.1-2.9V8.5C22.5,8.2,22.3,8,22,8s-0.5,0.3-0.5,0.5v2.6c-3.4,0.2-6.2,2.7-6.2,5.8  c0,3.2,2.9,4.6,6.2,5.7v9.8c-1.9-0.2-4.5-1.3-6.1-2.8c-0.2-0.2-0.5-0.2-0.7,0s-0.2,0.5,0,0.7c1.8,1.6,4.6,2.8,6.8,3v2.5  c0,0.3,0.2,0.5,0.5,0.5c0.2,0,0.5-0.3,0.5-0.6v-2.4c3.4-0.2,6.1-2.7,6.2-5.8C28.7,24.1,25.3,22.6,22.5,21.8z M16.4,16.8  c0-2.5,2.2-4.6,5.1-4.8v9.4C18.8,20.5,16.4,19.3,16.4,16.8z M22.5,32.4v-9.5c3.5,1.2,5.1,2.6,5.1,4.7C27.6,30.1,25.4,32.2,22.5,32.4  z"></path>
</svg>
