<svg id="Layer_1" data-name="Layer 1" xmlns="http://www.w3.org/2000/svg" viewBox="0 0 160 77.89"><defs><style>.cls-1{fill:#cf4037;}</style></defs><title>fujitsu</title><path class="cls-1" d="M30.5,124.49H20a3.62,3.62,0,0,0,2-2.87V90.37a2.79,2.79,0,0,0-2-2.69H42v6.2s-.54-2.07-2.24-2.07H28.53V102h11.4v5.66a2,2,0,0,0-2-1.35H28.53v15.26a3.48,3.48,0,0,0,2,3Zm134.77.7c-7.73,0-13.11-4.75-13.11-9.59V90.37c0-1.8-2.15-2.69-2.15-2.69h10.6s-2.15.9-2.15,2.6V115.6c0,2.42,3.38,5.52,6.64,5.5s6.46-3.05,6.46-5.5V90.33c0-1.89-2.15-2.6-2.15-2.6H180s-2.15.72-2.15,2.6V115.6c0,4.71-5.36,9.61-12.57,9.59Zm-106.67,0c-7.73,0-13.11-4.75-13.11-9.59V90.37c0-1.8-2.15-2.69-2.15-2.69h10.6s-2.15.9-2.15,2.6V115.6c0,2.42,3.38,5.52,6.64,5.5s6.46-3.05,6.46-5.5V90.28c0-1.89-2.15-2.6-2.15-2.6H73.33s-2.15.72-2.15,2.6V115.6c0,4.71-5.36,9.61-12.57,9.59Zm28-37.52s-2.15.9-2.15,2.78v38.79S84.36,136,73,138.95c-.23.06,5.12-5.66,5.12-9.7,0-2.69.06-37.35,0-38.79a3.46,3.46,0,0,0-2.15-2.78H86.62ZM97.4,121.62a3.46,3.46,0,0,0,2.15,2.78H88.87s2.15-.9,2.15-2.78h0c0-11.13,0-30.12,0-31.16a3.46,3.46,0,0,0-2.15-2.78H99.55s-2.15.9-2.15,2.78v31.16Zm19.39-29.81v29.81a3.47,3.47,0,0,0,2.15,2.78H108.26s2.15-.9,2.15-2.78h0c0-9.56,0-25,0-29.81h-7.11c-2.25,0-3.5,2.51-3.5,2.51L102,87.68H127l-1.53,6.11a2.1,2.1,0,0,0-2.24-2h-6.46ZM85.65,76.68c1.29,2.81,5,4.95,8.87,4.95a10.28,10.28,0,1,0-7.76-17L86.83,70c.33-3.74,4.38-5.85,7.69-5.76a7.07,7.07,0,0,1,0,14.15,7,7,0,0,1-5.93-3.33l-.33-.63a8.76,8.76,0,0,0-7.57-4.63,8.51,8.51,0,0,0-8.51,8.51h0a8.51,8.51,0,0,0,8.51,8.51h0a8.49,8.49,0,0,0,6.65-3.2V79.82l-3.07,2.55a6.64,6.64,0,0,1-3.58,1.17,5.21,5.21,0,0,1,0-10.41,5.48,5.48,0,0,1,4.89,3.43l.06.11Zm60.54,16.75V88.89c0-.63-4.11-1.57-6.71-1.59-1.88,0-12.82.43-12.82,10,0,7.86,8.26,11,9.34,11.49s7.14,3.23,7.14,6.47c0,4.22-3.59,6.33-7.9,6.33s-7.82-2.79-8.8-3.64c-.08-.06,1.48,6.46,1.48,6.46a34.77,34.77,0,0,0,7.18,1c1.53,0,14.46,0,14.46-10.24,0-7.77-7.95-10.55-9.52-11.31S133,101,133,96.93c0-3.23,3.86-5.93,6.74-5.93,4,0,5.48,1.3,6.46,2.42Z" transform="translate(-20 -61.05)"/></svg>