<?xml version="1.0" encoding="UTF-8"?>
<svg xmlns="http://www.w3.org/2000/svg" xmlns:xlink="http://www.w3.org/1999/xlink" width="219px" height="92px" viewBox="0 0 219 92">
  <!-- Generator: Sketch 46.1 (44463) - http://www.bohemiancoding.com/sketch -->
  <title>Git-Logo-2Color</title>
  <desc>Created with Sketch.</desc>
  <defs></defs>
  <g id="Page-1" stroke="none" stroke-width="1" fill="none" fill-rule="evenodd">
    <g id="Git-Logo-2Color">
      <path d="M89.421,42.371 L49.628,2.581 C47.338,0.289 43.621,0.289 41.328,2.581 L33.065,10.844 L43.547,21.326 C45.983,20.503 48.776,21.055 50.718,22.997 C52.669,24.951 53.217,27.768 52.374,30.212 L62.476,40.314 C64.92,39.472 67.74,40.017 69.692,41.972 C72.42,44.699 72.42,49.119 69.692,51.848 C66.963,54.577 62.543,54.577 59.813,51.848 C57.761,49.794 57.254,46.78 58.293,44.252 L48.872,34.831 L48.871,59.623 C49.536,59.953 50.164,60.392 50.718,60.944 C53.446,63.671 53.446,68.091 50.718,70.822 C47.989,73.55 43.567,73.55 40.842,70.822 C38.114,68.091 38.114,63.671 40.842,60.944 C41.516,60.271 42.296,59.762 43.128,59.42 L43.128,34.397 C42.296,34.057 41.517,33.551 40.842,32.873 C38.775,30.809 38.278,27.776 39.337,25.238 L29.005,14.904 L1.72,42.187 C-0.573,44.481 -0.573,48.198 1.72,50.49 L41.513,90.281 C43.804,92.573 47.52,92.573 49.814,90.281 L89.421,50.675 C91.713,48.382 91.713,44.663 89.421,42.371" id="Fill-5" fill="#DE4C36"></path>
      <path d="M218.373,65.21 C214.629,67.036 209.147,68.69 204.184,68.69 C193.828,68.69 189.913,64.517 189.913,54.678 L189.913,31.877 C189.913,31.356 189.913,31.007 189.214,31.007 L183.123,31.007 L183.123,23.261 C190.784,22.389 193.828,18.559 194.785,9.073 L203.054,9.073 L203.054,21.435 C203.054,22.042 203.054,22.305 203.751,22.305 L216.021,22.305 L216.021,31.007 L203.054,31.007 L203.054,51.806 C203.054,56.941 204.274,58.941 208.971,58.941 C211.411,58.941 213.932,58.333 216.021,57.55 L218.373,65.21" id="Fill-3" fill="#2F2707"></path>
      <path d="M130.873,31.835 C126.085,31.835 122.519,34.186 122.519,39.844 C122.519,44.107 124.869,47.067 130.615,47.067 C135.485,47.067 138.793,44.197 138.793,39.668 C138.793,34.535 135.833,31.835 130.873,31.835 Z M121.3,71.787 C120.167,73.177 119.038,74.655 119.038,76.398 C119.038,79.877 123.474,80.924 129.568,80.924 C134.616,80.924 141.492,80.57 141.492,75.877 C141.492,73.087 138.184,72.915 134.004,72.653 L121.3,71.787 Z M147.061,32.098 C148.625,34.1 150.281,36.886 150.281,40.889 C150.281,50.549 142.709,56.205 131.746,56.205 C128.958,56.205 126.434,55.858 124.869,55.423 L121.996,60.035 L130.524,60.556 C145.582,61.516 154.456,61.952 154.456,73.522 C154.456,83.533 145.668,89.187 130.524,89.187 C114.772,89.187 108.767,85.184 108.767,78.309 C108.767,74.392 110.508,72.308 113.554,69.431 C110.681,68.217 109.725,66.042 109.725,63.691 C109.725,61.775 110.681,60.035 112.25,58.38 C113.816,56.729 115.556,55.073 117.645,53.159 C113.381,51.07 110.16,46.544 110.16,40.103 C110.16,30.096 116.775,23.223 130.088,23.223 C133.831,23.223 136.095,23.567 138.097,24.093 L155.069,24.093 L155.069,31.488 L147.061,32.098 L147.061,32.098 Z" id="Fill-1" fill="#2F2707"></path>
      <path d="M170.38,16.283 C165.418,16.283 162.547,13.409 162.547,8.446 C162.547,3.49 165.418,0.79 170.38,0.79 C175.428,0.79 178.3,3.49 178.3,8.446 C178.3,13.409 175.428,16.283 170.38,16.283 Z M159.151,68.584 L159.151,61.712 L163.591,61.105 C164.81,60.929 164.983,60.669 164.983,59.361 L164.983,33.774 C164.983,32.819 164.723,32.207 163.85,31.948 L159.151,30.293 L160.108,23.246 L178.125,23.246 L178.125,59.361 C178.125,60.756 178.209,60.929 179.518,61.105 L183.957,61.712 L183.957,68.584 L159.151,68.584 L159.151,68.584 Z" id="Fill-2" fill="#2F2707"></path>
    </g>
  </g>
</svg>
