<?xml version="1.0" encoding="UTF-8"?>
<!-- Generator: Adobe Illustrator 17.1.0, SVG Export Plug-In . SVG Version: 6.00 Build 0)  -->
<svg xmlns="http://www.w3.org/2000/svg" xmlns:xlink="http://www.w3.org/1999/xlink" id="Layer_1" viewBox="0 0 169.1 41.3" preserveAspectRatio="xMinYMin" xml:space="preserve">
<g>
	<g>
		<path fill="#010101" d="M58.5,31.3c-4.5,0-7.3-3.3-7.3-7.4c0-4,2.9-7.4,7.2-7.4c2.4,0,3.9,0.7,5.4,1.9l-1,1.2    c-1.1-1-2.3-1.6-4.4-1.6c-3.2,0-5.5,2.7-5.5,5.9c0,3.4,2.2,6,5.7,6c1.6,0,3.2-0.6,4.1-1.4v-3.6h-4.4v-1.5h5.9v5.7    C63,30.3,60.9,31.3,58.5,31.3z"></path>
		<path fill="#010101" d="M67.8,31.1v-15h1.6v15H67.8z"></path>
		<path fill="#010101" d="M77.9,31.3c-3.2,0-5.5-2.5-5.5-5.5s2.3-5.6,5.5-5.6c3.2,0,5.5,2.5,5.5,5.5S81.1,31.3,77.9,31.3z     M77.9,21.7c-2.3,0-3.9,1.8-3.9,4.1s1.7,4.1,3.9,4.1c2.3,0,3.9-1.8,3.9-4.1C81.8,23.5,80.1,21.7,77.9,21.7z"></path>
		<path fill="#010101" d="M92,31.3c-2,0-3.2-1.1-4.1-2.3v2h-1.6v-15h1.6v6.5c0.9-1.3,2.1-2.4,4.1-2.4c2.5,0,5.1,2,5.1,5.5    C97,29.3,94.5,31.3,92,31.3z M91.7,21.7c-2,0-3.8,1.6-3.8,4.1c0,2.5,1.9,4.1,3.8,4.1c2.1,0,3.7-1.5,3.7-4.1    C95.4,23.3,93.7,21.7,91.7,21.7z"></path>
		<path fill="#010101" d="M100.6,22.5l-0.5-1.3c1.2-0.5,2.3-0.9,3.9-0.9c2.9,0,4.5,1.5,4.5,4.3v6.5h-1.5v-1.6c-0.7,1-2,1.8-3.8,1.8    c-2,0-4-1.1-4-3.3c0-2.3,1.8-3.4,4.5-3.4c1.4,0,2.3,0.2,3.3,0.5v-0.4c0-1.9-1.2-2.9-3.2-2.9C102.5,21.7,101.5,22.1,100.6,22.5z     M100.7,27.9c0,1.4,1.2,2.1,2.7,2.1c1.9,0,3.5-1.2,3.5-2.9v-1c-0.8-0.2-1.8-0.5-3.1-0.5C101.8,25.7,100.7,26.6,100.7,27.9z"></path>
		<path fill="#010101" d="M112,31.1v-15h1.6v15H112z"></path>
		<path fill="#010101" d="M128.7,26h-3.5v5.1h-1.6V16.7h5.4c3.2,0,5.4,1.7,5.4,4.6C134.4,24.4,131.8,26,128.7,26z M128.9,18.2h-3.6    v6.3h3.5c2.4,0,3.9-1.3,3.9-3.2C132.7,19.3,131.2,18.2,128.9,18.2z"></path>
		<path fill="#010101" d="M144.2,27.1L144.2,27.1l-5.3-7.7v11.6h-1.6V16.7h1.6l5.2,7.8l5.2-7.8h1.6v14.4h-1.6V19.5L144.2,27.1z"></path>
		<path fill="#010101" d="M161.8,31.3c-4.4,0-7.3-3.4-7.3-7.4s3-7.4,7.3-7.4s7.3,3.4,7.3,7.4S166.2,31.3,161.8,31.3z M161.8,18    c-3.3,0-5.6,2.6-5.6,5.9s2.4,5.9,5.7,5.9s5.6-2.6,5.6-5.9S165.1,18,161.8,18z"></path>
	</g>
	<g>
		<g>
			<path fill="#272B24" d="M20.8,22.3c-5.4,0-9.7-4.4-9.7-9.7s4.4-9.7,9.7-9.7c0.4,0,0.7,0.3,0.7,0.7s-0.3,0.7-0.7,0.7     c-4.6,0-8.4,3.8-8.4,8.4s3.8,8.4,8.4,8.4s8.4-3.8,8.4-8.4c0-2.5-1.1-4.8-3-6.4C26,5.9,26,5.5,26.2,5.2c0.2-0.3,0.6-0.3,0.9-0.1     c2.2,1.9,3.4,4.6,3.4,7.4C30.6,17.9,26.2,22.3,20.8,22.3z"></path>
		</g>
		<g>
			<path fill="#272B24" d="M20.4,15.7L17.8,13c-0.3-0.3-0.3-0.7,0-0.9c0.3-0.3,0.7-0.3,0.9,0l1.7,1.7l3.9-3.9c0.3-0.3,0.7-0.3,0.9,0     c0.3,0.3,0.3,0.7,0,0.9L20.4,15.7z"></path>
		</g>
		<g>
			<path fill="#272B24" d="M19.4,7c-0.2,0-0.3-0.1-0.5-0.2c-0.3-0.3-0.3-0.7,0-0.9l2.4-2.4L19,1.1c-0.3-0.3-0.3-0.7,0-0.9     c0.3-0.3,0.7-0.3,0.9,0l3.3,3.3l-3.3,3.3C19.8,6.9,19.6,7,19.4,7z"></path>
		</g>
	</g>
	<g>
		<path fill="#272B24" d="M9.7,41.3c-5.4,0-9.7-4.4-9.7-9.7c0-5.4,4.4-9.7,9.7-9.7s9.7,4.4,9.7,9.7C19.4,36.9,15.1,41.3,9.7,41.3z     M9.7,23.1c-4.6,0-8.4,3.8-8.4,8.4c0,4.6,3.8,8.4,8.4,8.4s8.4-3.8,8.4-8.4C18.1,26.9,14.4,23.1,9.7,23.1z"></path>
	</g>
	<g>
		<path fill="#272B24" d="M32.3,41.2c-5.4,0-9.7-4.4-9.7-9.7c0-5.4,4.4-9.7,9.7-9.7s9.7,4.4,9.7,9.7C42,36.8,37.7,41.2,32.3,41.2z     M32.3,23c-4.6,0-8.4,3.8-8.4,8.4c0,4.6,3.8,8.4,8.4,8.4s8.4-3.8,8.4-8.4C40.7,26.8,36.9,23,32.3,23z"></path>
	</g>
	<g>
		<path fill="#272B24" d="M15.6,32.2H9.1v-5c0-0.4,0.3-0.7,0.7-0.7s0.7,0.3,0.7,0.7v3.7h5.2c0.4,0,0.7,0.3,0.7,0.7    S15.9,32.2,15.6,32.2z"></path>
	</g>
	<g>
		<g>
			<path fill="#272B24" d="M33,36.4h-3.5c-0.4,0-0.7-0.3-0.7-0.7s0.3-0.7,0.7-0.7H33c0.8,0,1.4-0.6,1.4-1.4c0-0.8-0.6-1.5-1.4-1.5     h-1.4c-1.5,0-2.7-1.2-2.7-2.7c0-1.5,1.2-2.8,2.7-2.8h3.5c0.4,0,0.7,0.3,0.7,0.7s-0.3,0.7-0.7,0.7h-3.5c-0.8,0-1.4,0.6-1.4,1.4     c0,0.8,0.6,1.5,1.4,1.5H33c1.5,0,2.7,1.2,2.7,2.7C35.7,35.2,34.5,36.4,33,36.4z"></path>
		</g>
		<g>
			<path fill="#272B24" d="M32.3,38.6c-0.4,0-0.7-0.3-0.7-0.7V25c0-0.4,0.3-0.7,0.7-0.7S33,24.6,33,25v13     C33,38.3,32.7,38.6,32.3,38.6z"></path>
		</g>
	</g>
</g>
</svg>
