<svg id="Layer_1" data-name="Layer 1" xmlns="http://www.w3.org/2000/svg" viewBox="0 0 160 41.11"><defs><style>.cls-1{fill:#2b56a3;}</style></defs><title>globo</title><path class="cls-1" d="M108.81,93.18a19.85,19.85,0,0,0-4.24-6.3A19.62,19.62,0,0,0,83,82.67a20,20,0,0,0-6.26,4.2,19.79,19.79,0,0,0,0,27.9A20,20,0,0,0,83,119a19.76,19.76,0,0,0,21.6-4.2,19.75,19.75,0,0,0,4.24-21.6Zm-9.23,16a11.86,11.86,0,0,1-16.8,0,11.87,11.87,0,0,1,8.4-20.25,11.88,11.88,0,0,1,8.4,20.25Z" transform="translate(-20 -79.45)"/><path class="cls-1" d="M178.46,93.18a19.85,19.85,0,0,0-4.24-6.3,19.62,19.62,0,0,0-21.6-4.2,20,20,0,0,0-6.26,4.2,19.79,19.79,0,0,0,0,27.9,20,20,0,0,0,6.26,4.2,19.76,19.76,0,0,0,21.6-4.2,19.75,19.75,0,0,0,4.24-21.6Zm-9.23,16a11.86,11.86,0,0,1-16.8,0,11.87,11.87,0,0,1,8.4-20.25,11.88,11.88,0,0,1,8.4,20.25Z" transform="translate(-20 -79.45)"/><path class="cls-1" d="M136.83,102.63a7.59,7.59,0,0,0-4.27-3.6,7.35,7.35,0,0,0,2.89-2.66A13.48,13.48,0,0,0,134.88,83a7,7,0,0,0-6-2.89H113.35v40.39h14.33a23,23,0,0,0,3.71-.56,6.45,6.45,0,0,0,3.15-1.31,9.31,9.31,0,0,0,2.66-4,14.77,14.77,0,0,0,1-5.63A13.55,13.55,0,0,0,136.83,102.63ZM121.72,88.3h3.68a3.14,3.14,0,0,1,2.66,1,4.48,4.48,0,0,1,.75,2.74,5,5,0,0,1-.75,2.93,3.34,3.34,0,0,1-2.7,1h-3.64ZM129,110.69a3.53,3.53,0,0,1-3,1.16h-4.24v-8.21h4.2a3.66,3.66,0,0,1,3.08,1.12,4.18,4.18,0,0,1,.86,2.85A5,5,0,0,1,129,110.69Z" transform="translate(-20 -79.45)"/><path class="cls-1" d="M74.76,81.14H65L54.32,98.91H40.52V107h9.75l-.49.6a12,12,0,0,1-9.3,4.42A11.64,11.64,0,0,1,32,108.51,11.8,11.8,0,0,1,28.4,100,11.67,11.67,0,0,1,32,91.41a11.49,11.49,0,0,1,8.51-3.53,12,12,0,0,1,10.2,5.63l.67,1.09,4.91-7.84-.86-.94a19.15,19.15,0,0,0-6.64-4.65,19.81,19.81,0,0,0-8.21-1.73,20.52,20.52,0,0,0-14.52,6,20.52,20.52,0,0,0-4.61,22.05,21.21,21.21,0,0,0,3.94,6.3,20.55,20.55,0,0,0,13.09,6.6l.37,0v.08H70.41v-7.58H56.49Z" transform="translate(-20 -79.45)"/></svg>