<svg id="Layer_1" data-name="Layer 1" xmlns="http://www.w3.org/2000/svg" viewBox="0 0 160 11.47"><defs><style>.cls-1{fill:#cf4037;}</style></defs><title>halliburton</title><path class="cls-1" d="M20,105.63h3.45v-4.25h7.25v4.25h3.42V94.4H30.71v4H23.45v-4H20v11.23Zm15.35,0h3.87l1-2h7l1,2h3.83L45.91,94.4H41.45ZM43.68,97l2.23,4.18H41.48Zm9.62,8.62H64.5v-2.89H56.76V94.4H53.31v11.23Zm12.62,0h11.2v-2.89H69.38V94.4H65.93v11.23Zm12.84,0h3.45V94.4H78.76v11.23Zm6,0H95.67c2,0,3.42-.52,3.42-3,0-1.67-.56-2.48-2.06-2.68v0c.94-.28,1.64-.66,1.64-2.58,0-2.2-1.33-2.93-4-2.93h-9.9v11.23Zm3.42-4.46h6.17c.73,0,1.26.17,1.26.94s-.52.8-1.26.8H88.14Zm0-4.08h6.1c.63,0,1,.24,1,.91s-.38.84-1,.84h-6.1Zm13,4.54c0,2.79,1.43,4.11,4.6,4.11h4.92c3.18,0,4.6-1.33,4.6-4.11V94.4h-3.45v6.49c0,1.43-.49,2-1.92,2h-3.42c-1.39,0-1.92-.56-1.92-2V94.4h-3.42v7.22h0Zm19.88-4.43h5.37c1.08,0,1.6.17,1.6,1.19v.35c0,.8-.35,1.19-1.29,1.19h-5.68Zm-3.45,8.44h3.45V102.7h5.4c1.08,0,1.43.38,1.43,1.57v1.36h3.42v-1.92c0-1.85-.83-2.3-1.85-2.48v0c1.57-.38,1.92-1.26,1.92-2.75v-.74c0-2-.73-3.31-3.38-3.31H117.61v11.23h0Zm15.27-8.44h4.81v8.44h3.45V97.19H146V94.4H132.88v2.79Zm14.37,4.5c0,3.28,1.85,4,4.92,4h5.55c3.1,0,4.92-.76,4.92-4V98.34c0-3.28-1.81-4.08-4.92-4.08h-5.55c-3.07,0-4.92.8-4.92,4.08Zm3.52-2.3c0-1.39.35-2.23,2.16-2.23h4c1.81,0,2.16.83,2.16,2.23v1.22c0,1.64-.35,2.27-2,2.27h-4.43c-1.6,0-2-.63-2-2.27V99.39h0Zm14,6.24h3.45V97.47h0l6.45,8.16H180V94.4h-3.46v8.16h0l-6.45-8.16h-5.33v11.23Z" transform="translate(-20 -94.26)"/></svg>