<?xml version="1.0" encoding="UTF-8"?>
<svg xmlns="http://www.w3.org/2000/svg" id="Layer_1" viewBox="0 0 160 26.96">
  <defs>
    <style>.cls-1{fill:#0274cf;}</style>
  </defs>
  <title>HealthCareIndustry</title>
  <path d="M43.44,95.37a.22.22,0,0,1,.22-.22H44a.21.21,0,0,1,.22.22v5.19h7.59V95.37a.22.22,0,0,1,.22-.22h.36a.21.21,0,0,1,.22.22v11.39a.21.21,0,0,1-.22.22H52a.22.22,0,0,1-.22-.22v-5.49H44.23v5.49A.21.21,0,0,1,44,107h-.36a.22.22,0,0,1-.22-.22Z" transform="translate(-20 -86.52)"></path>
  <path d="M58.25,100.05a3,3,0,0,1,3.06,3.09c0,.27,0,.66-.25.66H55.66a2.67,2.67,0,0,0,2.64,2.67,3.61,3.61,0,0,0,2-.62c.15-.1.22-.12.3,0l.17.24c.05.07,0,.17-.07.27a4.09,4.09,0,0,1-2.45.79,3.56,3.56,0,0,1,0-7.1Zm2.32,3.14a2.27,2.27,0,0,0-2.32-2.47,2.51,2.51,0,0,0-2.57,2.47Z" transform="translate(-20 -86.52)"></path>
  <path d="M65.6,102.62a5.57,5.57,0,0,1,1.71.3c0-1.49-.15-2.23-1.49-2.23a5,5,0,0,0-2,.46.18.18,0,0,1-.25-.14l-.08-.2c-.05-.15,0-.22.1-.25a4.9,4.9,0,0,1,2.32-.51c2.06,0,2.15,1.23,2.15,3v3.75a.22.22,0,0,1-.22.22h-.2c-.12,0-.17-.07-.2-.19l-.07-.61a3.53,3.53,0,0,1-2.35,1,2.13,2.13,0,0,1-2.21-2.25C62.76,103.6,63.82,102.62,65.6,102.62Zm-.54,3.87a3.08,3.08,0,0,0,2.25-1v-1.86a4.41,4.41,0,0,0-1.71-.35c-1.28,0-2.15.66-2.15,1.66A1.53,1.53,0,0,0,65.06,106.49Z" transform="translate(-20 -86.52)"></path>
  <path d="M70.52,95.37a.22.22,0,0,1,.22-.22H71a.22.22,0,0,1,.22.22v11.39A.2.2,0,0,1,71,107H70.7a.2.2,0,0,1-.19-.22Z" transform="translate(-20 -86.52)"></path>
  <path d="M74.11,100.88h-.79c-.17,0-.2-.08-.2-.22v-.27c0-.12.08-.17.2-.17h.79V98.38a.21.21,0,0,1,.22-.22l.29,0a.22.22,0,0,1,.22.22v1.86h2.35a.21.21,0,0,1,.22.22v.22a.2.2,0,0,1-.22.22H74.84v4.31c0,.79.08,1.23.88,1.23a3.61,3.61,0,0,0,1.54-.46c.15-.08.22,0,.27.07l.12.2a.2.2,0,0,1-.05.29,3.37,3.37,0,0,1-2,.62c-1.4,0-1.52-.83-1.52-1.91Z" transform="translate(-20 -86.52)"></path>
  <path d="M79.39,95.37a.23.23,0,0,1,.24-.22h.27a.22.22,0,0,1,.22.22v5.76a3.56,3.56,0,0,1,2.45-1.08c1.76,0,2.72,1.08,2.72,3.09v3.62a.22.22,0,0,1-.22.22h-.3a.22.22,0,0,1-.22-.22v-3.62c0-1.55-.73-2.37-2-2.37A3.41,3.41,0,0,0,80.11,102v4.8a.2.2,0,0,1-.22.22h-.32a.2.2,0,0,1-.19-.22Z" transform="translate(-20 -86.52)"></path>
  <path d="M97.2,95a5.79,5.79,0,0,1,4.11,1.57.22.22,0,0,1,0,.3l-.27.29c-.1.1-.19.08-.29,0a5.3,5.3,0,1,0-3.57,9.26,5.36,5.36,0,0,0,3.57-1.42.21.21,0,0,1,.27,0l.29.29a.2.2,0,0,1,0,.29,5.84,5.84,0,0,1-4.12,1.64A6.08,6.08,0,1,1,97.2,95Z" transform="translate(-20 -86.52)"></path>
  <path d="M105.77,102.62a5.57,5.57,0,0,1,1.71.3c0-1.49-.15-2.23-1.49-2.23a5,5,0,0,0-2,.46.18.18,0,0,1-.25-.14l-.08-.2c-.05-.15,0-.22.1-.25a4.9,4.9,0,0,1,2.32-.51c2.06,0,2.15,1.23,2.15,3v3.75a.22.22,0,0,1-.22.22h-.2c-.12,0-.17-.07-.2-.19l-.07-.61a3.53,3.53,0,0,1-2.35,1,2.13,2.13,0,0,1-2.21-2.25C102.93,103.6,104,102.62,105.77,102.62Zm-.54,3.87a3.08,3.08,0,0,0,2.25-1v-1.86a4.41,4.41,0,0,0-1.71-.35c-1.28,0-2.15.66-2.15,1.66A1.53,1.53,0,0,0,105.23,106.49Z" transform="translate(-20 -86.52)"></path>
  <path d="M110.69,100.44a.22.22,0,0,1,.22-.22h.2a.2.2,0,0,1,.2.19l.07.69a2.59,2.59,0,0,1,2.11-1,2.79,2.79,0,0,1,1,.2c.15.05.24.17.19.3l-.14.34c-.05.12-.15.14-.27.08a2.13,2.13,0,0,0-.88-.2,2.37,2.37,0,0,0-2,1.17v4.82a.2.2,0,0,1-.22.22h-.34a.2.2,0,0,1-.19-.22Z" transform="translate(-20 -86.52)"></path>
  <path d="M119,100.05a3,3,0,0,1,3.06,3.09c0,.27,0,.66-.25.66h-5.39a2.67,2.67,0,0,0,2.64,2.67,3.61,3.61,0,0,0,2-.62c.15-.1.22-.12.3,0l.17.24c.05.07,0,.17-.07.27a4.08,4.08,0,0,1-2.45.79,3.56,3.56,0,0,1,0-7.1Zm2.31,3.14a2.27,2.27,0,0,0-2.31-2.47,2.51,2.51,0,0,0-2.57,2.47Z" transform="translate(-20 -86.52)"></path>
  <path d="M128.18,95.37a.22.22,0,0,1,.22-.22h.37a.22.22,0,0,1,.22.22v11.39a.23.23,0,0,1-.24.22h-.36a.22.22,0,0,1-.22-.22Z" transform="translate(-20 -86.52)"></path>
  <path d="M131.83,100.44a.23.23,0,0,1,.24-.22h.17a.19.19,0,0,1,.2.17l.07.73a3.61,3.61,0,0,1,2.5-1.06c1.89,0,2.72,1.2,2.72,3.09v3.62a.22.22,0,0,1-.22.22h-.3a.22.22,0,0,1-.22-.22v-3.62c0-1.55-.73-2.37-2-2.37a3.47,3.47,0,0,0-2.42,1.17v4.82a.2.2,0,0,1-.22.22H132a.2.2,0,0,1-.19-.22Z" transform="translate(-20 -86.52)"></path>
  <path d="M143,100.05a3.41,3.41,0,0,1,2.08.68V95.37a.21.21,0,0,1,.22-.22h.3a.22.22,0,0,1,.2.22v11.39a.22.22,0,0,1-.22.22h-.17a.22.22,0,0,1-.24-.22l-.05-.59a3.27,3.27,0,0,1-2.33,1,3.33,3.33,0,0,1-3.13-3.55A3.37,3.37,0,0,1,143,100.05Zm-.15,6.42a2.68,2.68,0,0,0,2.23-1.2v-3.79a3.18,3.18,0,0,0-2-.71,2.87,2.87,0,0,0-.22,5.69Z" transform="translate(-20 -86.52)"></path>
  <path d="M148.31,100.44a.22.22,0,0,1,.22-.22h.3a.22.22,0,0,1,.22.22v3.63c0,1.57.73,2.37,2,2.37a2.81,2.81,0,0,0,2.23-1.18v-4.82a.2.2,0,0,1,.22-.22h.3a.22.22,0,0,1,.22.22v6.32a.22.22,0,0,1-.22.22h-.2c-.14,0-.19-.1-.2-.2l-.07-.66a3.08,3.08,0,0,1-2.33,1c-1.89,0-2.7-1.17-2.7-3.08Z" transform="translate(-20 -86.52)"></path>
  <path d="M156.22,106.15l.17-.27a.2.2,0,0,1,.3,0,3,3,0,0,0,1.81.66c1,0,1.62-.54,1.62-1.2s-.76-1.1-1.89-1.52-2.08-.95-2.08-2a2,2,0,0,1,2.21-1.76,3.57,3.57,0,0,1,1.91.54.24.24,0,0,1,.07.32l-.1.19a.23.23,0,0,1-.32.08,3.19,3.19,0,0,0-1.55-.47c-1.06,0-1.45.62-1.45,1.08,0,.68.61,1,1.61,1.35,1.27.47,2.38.9,2.38,2.13a2.19,2.19,0,0,1-2.4,1.88,3.44,3.44,0,0,1-2.21-.76A.19.19,0,0,1,156.22,106.15Z" transform="translate(-20 -86.52)"></path>
  <path d="M163.15,100.88h-.79c-.17,0-.2-.08-.2-.22v-.27c0-.12.08-.17.2-.17h.79V98.38a.21.21,0,0,1,.22-.22l.29,0a.22.22,0,0,1,.22.22v1.86h2.35a.21.21,0,0,1,.22.22v.22a.2.2,0,0,1-.22.22h-2.35v4.31c0,.79.08,1.23.88,1.23a3.61,3.61,0,0,0,1.54-.46c.15-.08.22,0,.27.07l.12.2a.19.19,0,0,1-.05.29,3.36,3.36,0,0,1-2,.62c-1.4,0-1.52-.83-1.52-1.91Z" transform="translate(-20 -86.52)"></path>
  <path d="M168.42,100.44a.22.22,0,0,1,.22-.22h.2a.2.2,0,0,1,.2.19l.07.69a2.6,2.6,0,0,1,2.11-1,2.79,2.79,0,0,1,1,.2c.15.05.24.17.19.3l-.14.34c-.05.12-.15.14-.27.08a2.14,2.14,0,0,0-.88-.2,2.37,2.37,0,0,0-2,1.17v4.82a.2.2,0,0,1-.22.22h-.34a.2.2,0,0,1-.19-.22Z" transform="translate(-20 -86.52)"></path>
  <path d="M173,100.49c-.07-.14-.05-.27.1-.27h.37a.25.25,0,0,1,.22.15l2.89,5.71h0l2.64-5.71a.25.25,0,0,1,.22-.15h.37c.15,0,.17.14.1.27l-5.31,11.42a.24.24,0,0,1-.22.14H174c-.14,0-.19-.08-.12-.24l2.28-4.9Z" transform="translate(-20 -86.52)"></path>
  <path class="cls-1" d="M31,88.4l.15,8.36a.08.08,0,0,0,.08.08H32l.06,0a.08.08,0,0,0,0-.06l.15-8.37a1,1,0,0,0,.44-.83,1,1,0,1,0-2.09,0A1,1,0,0,0,31,88.4Z" transform="translate(-20 -86.52)"></path>
  <path class="cls-1" d="M26.81,92.73a.91.91,0,0,0,.53.32,1.44,1.44,0,0,0,1.11-.31,1.69,1.69,0,0,0,1.16.45,2.34,2.34,0,0,0,1.14-.33.08.08,0,0,0,0-.07V90.71a.08.08,0,0,0-.08-.08c-.83,0-1.1-.56-1.38-1.16s-.59-1.25-1.52-1.25A6.12,6.12,0,0,0,25.4,89c-1.54.75-3.28,1.6-5.29.79a.08.08,0,0,0-.08,0,.08.08,0,0,0,0,.07,1.77,1.77,0,0,0,1.79,1.52.68.68,0,0,0,.29.33,1.92,1.92,0,0,0,1.48,0,.85.85,0,0,0,.37.46,1.53,1.53,0,0,0,1.24,0,.86.86,0,0,0,.37.45A1.55,1.55,0,0,0,26.81,92.73Z" transform="translate(-20 -86.52)"></path>
  <path class="cls-1" d="M43.15,89.84a.08.08,0,0,0-.08,0c-2,.8-3.75,0-5.29-.79a6.12,6.12,0,0,0-2.41-.82c-.94,0-1.23.64-1.52,1.25s-.54,1.16-1.38,1.16a.08.08,0,0,0-.08.08V92.8a.08.08,0,0,0,0,.07,2.34,2.34,0,0,0,1.14.33,1.69,1.69,0,0,0,1.16-.45,1.45,1.45,0,0,0,1.11.31.91.91,0,0,0,.53-.32,1.54,1.54,0,0,0,1.27,0,.86.86,0,0,0,.37-.45,1.53,1.53,0,0,0,1.24,0,.85.85,0,0,0,.37-.46,1.92,1.92,0,0,0,1.48,0,.68.68,0,0,0,.29-.33,1.77,1.77,0,0,0,1.79-1.52A.08.08,0,0,0,43.15,89.84Z" transform="translate(-20 -86.52)"></path>
  <path class="cls-1" d="M34.4,98a2.43,2.43,0,0,0-1-.75A4.06,4.06,0,0,0,32.26,97l-.52,0h-.48l-.92,0a11.48,11.48,0,0,1-1.81-.29,7.53,7.53,0,0,1-.86-.26,3.49,3.49,0,0,1-.75-.37.84.84,0,0,1-.37-.43.29.29,0,0,1,0-.13.26.26,0,0,1,.12-.1,1.75,1.75,0,0,1,.7-.15,4.63,4.63,0,0,1,.82,0,1.91,1.91,0,0,1,.55.19,2,2,0,0,0,.8.17.84.84,0,0,0,.43-.1.35.35,0,0,0,.17-.31,1,1,0,0,0-1-.89c-.49,0-.74,0-.74,0h0a6.32,6.32,0,0,0-1,0,2.6,2.6,0,0,0-1.1.28,1.18,1.18,0,0,0-.51.54,1.11,1.11,0,0,0-.09.37,1.2,1.2,0,0,0,0,.37,1.42,1.42,0,0,0,.32.6,2.3,2.3,0,0,0,.44.39,4.44,4.44,0,0,0,.95.47,8.53,8.53,0,0,0,1,.29,14,14,0,0,0,1.94.32l1,.07h0a5.14,5.14,0,0,1,.84.07,1.93,1.93,0,0,1,1.28.69.9.9,0,0,1,.15.57.85.85,0,0,1-.23.54,2.58,2.58,0,0,1-.62.49c-.23.14-.48.26-.72.38l0-2.44a.08.08,0,0,0-.07-.08,6.29,6.29,0,0,0-.67,0h0l-.06,0a.08.08,0,0,0,0,.06l0,2.25a.08.08,0,0,0,0,.07l.11.05.3.14.2.1h.05s0,0,0,0a8.79,8.79,0,0,1,1.11.61h.08l.19-.11a3.78,3.78,0,0,0,.92-.72,2.29,2.29,0,0,0,.38-.58,2,2,0,0,0,.18-.71,2.13,2.13,0,0,0-.08-.71A2,2,0,0,0,34.4,98Z" transform="translate(-20 -86.52)"></path>
  <path class="cls-1" d="M31.72,112.65l-.18-.13a.08.08,0,0,0-.09,0,.08.08,0,0,0,0,.07v.74a.16.16,0,0,0,.16.16h0a.16.16,0,0,0,.16-.16,3.67,3.67,0,0,0,0-.64Z" transform="translate(-20 -86.52)"></path>
  <path class="cls-1" d="M33.85,102.5a2.66,2.66,0,0,0-.8-.84,9.47,9.47,0,0,0-1.4-.76l-.35-.17c-.27-.13-.55-.27-.8-.42a2.59,2.59,0,0,1-.62-.49.85.85,0,0,1-.24-.54.91.91,0,0,1,.15-.57,1.48,1.48,0,0,1,.63-.49.08.08,0,0,0,0-.15h-.16c-.46,0-.88-.1-1.28-.18a.08.08,0,0,0-.07,0l-.1.12a2,2,0,0,0-.32.63,2.11,2.11,0,0,0-.08.71,2,2,0,0,0,.18.71,2.3,2.3,0,0,0,.38.58,3.78,3.78,0,0,0,.92.72c.32.18.62.33.91.46l.37.17a8.72,8.72,0,0,1,1.24.62,1.65,1.65,0,0,1,.49.45.69.69,0,0,1,.1.23.79.79,0,0,1,0,.13.37.37,0,0,1,0,.09,1.14,1.14,0,0,1-.33.52,5.77,5.77,0,0,1-.66.56l-.09.07,0-2.08a.08.08,0,0,0,0-.07l-.55-.26a.08.08,0,0,0-.07,0,.08.08,0,0,0,0-.05l-.16-.07-.37-.17-.56-.27a.08.08,0,0,0-.09,0,2.59,2.59,0,0,0-.73.78,1.79,1.79,0,0,0-.21.61,1.85,1.85,0,0,0,0,.32,1.44,1.44,0,0,0,.05.35,2.18,2.18,0,0,0,.66,1,6.83,6.83,0,0,0,.81.62l.79.52a4.88,4.88,0,0,1,.69.54,1.31,1.31,0,0,1,.22.28.45.45,0,0,1,.07.25.77.77,0,0,1-.28.56,3.32,3.32,0,0,1-.26.22l0-1.27a.08.08,0,0,0,0-.06c-.11-.1-.24-.19-.41-.31,0,0,0,0-.06,0s0,0,0,0h0l-.64-.42h0a.08.08,0,0,0-.1,0l-.17.17a2.17,2.17,0,0,0-.35.5,1.43,1.43,0,0,0-.12.33,1.17,1.17,0,0,0,0,.36,1.46,1.46,0,0,0,.2.64,1.85,1.85,0,0,0,.4.46,5.55,5.55,0,0,0,.56.41l.25.17a2.22,2.22,0,0,1,.6.56,1.41,1.41,0,0,1,.23.74,2.56,2.56,0,0,1-.1.85,2.74,2.74,0,0,1-.29.65l0-2.12a.14.14,0,0,0,0,0,1.66,1.66,0,0,0-.31-.33.08.08,0,0,0-.07,0h0a.08.08,0,0,0,0-.06l-.14-.1L31,108.7l-.08-.05a.08.08,0,0,0-.11,0,2.27,2.27,0,0,0-.19.27,2,2,0,0,0-.26,1.08,3,3,0,0,0,.73,1.9,3.21,3.21,0,0,0,.76.66l.08,0a.16.16,0,0,0,.13-.06.16.16,0,0,0,0-.23,2.88,2.88,0,0,1-1-1.44A2.57,2.57,0,0,1,31,110a1.41,1.41,0,0,1,.23-.74l.12-.15,0,2a.09.09,0,0,0,0,0,2.74,2.74,0,0,0,.24.41.08.08,0,0,0,.07,0h0a.08.08,0,0,0,0,.09l.18.21a.08.08,0,0,0,.06,0,.1.1,0,0,0,.07,0,3,3,0,0,0,.73-1.9,2.05,2.05,0,0,0-.26-1.08,3.53,3.53,0,0,0-1-1,4.84,4.84,0,0,1-.45-.37.77.77,0,0,1-.28-.57.44.44,0,0,1,.06-.25,1.3,1.3,0,0,1,.22-.28l.23-.2,0,1.27a.08.08,0,0,0,0,.06l.27.21.1.07,0,0h0a.08.08,0,0,0,0,.05,4.63,4.63,0,0,1,.44.39h0a.08.08,0,0,0,.06,0h0l.28-.22a1.87,1.87,0,0,0,.4-.46,1.45,1.45,0,0,0,.2-.63,1.17,1.17,0,0,0,0-.37,1.41,1.41,0,0,0-.12-.33,2.14,2.14,0,0,0-.35-.5,5.7,5.7,0,0,0-.79-.68l-.77-.56a5.73,5.73,0,0,1-.66-.56,1.14,1.14,0,0,1-.33-.52.37.37,0,0,1,0-.09.84.84,0,0,1,0-.13.69.69,0,0,1,.1-.23,1.64,1.64,0,0,1,.49-.45,4.72,4.72,0,0,1,.44-.25l0,2.07a.11.11,0,0,0,0,.06l.48.35h0v0L32,105l.44.35.05,0h0a6.54,6.54,0,0,0,.78-.6,2.18,2.18,0,0,0,.66-1,1.44,1.44,0,0,0,.05-.35,1.89,1.89,0,0,0,0-.32A1.8,1.8,0,0,0,33.85,102.5Z" transform="translate(-20 -86.52)"></path>
  <path class="cls-1" d="M37,94.54a2.6,2.6,0,0,0-1.11-.28,6.52,6.52,0,0,0-1,0h0s-.26,0-.74,0a1,1,0,0,0-1,.89.35.35,0,0,0,.17.31.84.84,0,0,0,.43.1,2,2,0,0,0,.8-.17,1.92,1.92,0,0,1,.55-.19,4.79,4.79,0,0,1,.82,0,1.74,1.74,0,0,1,.7.15.25.25,0,0,1,.11.09.28.28,0,0,1,0,.15.84.84,0,0,1-.37.43,3.48,3.48,0,0,1-.74.37,7.58,7.58,0,0,1-.86.26,12.14,12.14,0,0,1-1.36.24.08.08,0,0,0,0,.16l.14.05a2.68,2.68,0,0,1,.87.55l.06,0h0l.51-.11a8.48,8.48,0,0,0,1-.29,4.41,4.41,0,0,0,.95-.47,2.28,2.28,0,0,0,.44-.39,1.42,1.42,0,0,0,.32-.6,1.2,1.2,0,0,0,0-.36,1.12,1.12,0,0,0-.09-.38A1.18,1.18,0,0,0,37,94.54Z" transform="translate(-20 -86.52)"></path>
</svg>
