<svg id="Layer_1" data-name="Layer 1" xmlns="http://www.w3.org/2000/svg" viewBox="0 0 160 19.42"><defs><style>.cls-1{fill:#c83138;}</style></defs><title>honda_logo_2</title><path class="cls-1" d="M145.71,109.06v-2.44l2.52-.24a2.25,2.25,0,0,0,1.3-1.06l6.09-10a1,1,0,0,0-.65-1.54l-3.17-.33V90.94h13.9A2,2,0,0,1,167.32,92l8.12,12.43c.65,1,1.14,1.79,2,1.87l2.6.24v2.52H164.32v-2.44l2-.24c1-.08,1.79-.57,1-1.71l-.73-1.14H155.38l-.89,1.38c-.49.81,0,1.38.81,1.46l2,.24v2.44H145.71Zm11.62-8.78h7.07l-3.57-5.53Zm-22-9.35H117.43v2.52l2.19.16a1.37,1.37,0,0,1,1.22,1.54v9.75c0,.73-.33,1.38-1.06,1.46l-2.36.33v2.36h17.88c8.29,0,11.86-4,11.86-9.35C147.17,95,143.6,90.94,135.31,90.94Zm-2.76,14.63h-4.63V94.43h4.63c4.47,0,6.26,1,6.26,5.61s-1.79,5.53-6.26,5.53ZM20,109.06H34.54v-2.44L32,106.38c-.57-.08-1.14-.41-1.14-1.63v-2.93H42.1v2.76c0,.81-.16,1.63-1.14,1.71l-2.52.24v2.52H53v-2.52l-2.6-.24a1.32,1.32,0,0,1-1.06-1.46V95.41c0-1,.33-1.63,1.14-1.71L53,93.46V90.94H38.45v2.44L41,93.7c.89.08,1.14.81,1.14,1.71v2.76H30.89V95.33c0-1.06.49-1.54,1.22-1.63l2.44-.24V90.94H20.08v2.52l2.44.24c.89.08,1.22.81,1.14,1.71v9.18c0,1.06-.24,1.71-1.22,1.79l-2.44.24v2.44ZM53.64,100c0-5.69,4.63-9.67,14.87-9.67s14.79,4,14.79,9.67-4.63,9.75-14.79,9.75S53.64,105.73,53.64,100ZM68.51,93.7c-4.14,0-6.5,1.54-6.5,6.26s2.36,6.34,6.5,6.34,6.42-1.54,6.42-6.34S72.58,93.7,68.51,93.7Zm15.6,15.36H95.65v-2.44l-2.44-.24c-.73-.08-1.14-.65-1.14-1.54V95.65l9.59,12.68a1.89,1.89,0,0,0,1.54.73h9.1V95.33c0-.65.16-1.54,1.06-1.63l2.52-.24V90.94H104.35v2.44l2.52.33c.89.08,1.06.89,1.06,1.71v8.94l-9.51-12.6a2,2,0,0,0-1.54-.81H84.11v2.52l2.36.24c.89.16,1.22.57,1.22,1.71v9.18c0,1.14-.33,1.63-1.22,1.79l-2.36.24Z" transform="translate(-20 -90.29)"/></svg>