<svg id="Layer_1" data-name="Layer 1" xmlns="http://www.w3.org/2000/svg" viewBox="0 0 160 30.06"><defs><style>.cls-1{fill:#ec2028;}</style></defs><title>honeywell_logo</title><polygon class="cls-1" points="12.8 9.73 7.49 9.73 7.49 0.06 0 0.06 0 23.56 7.43 23.56 7.43 12.97 12.8 12.97 12.8 23.68 20.23 23.68 20.23 0 12.8 0 12.8 9.73"/><path class="cls-1" d="M55.7,91.36a11.51,11.51,0,0,0-4.25-.61v.14h0l0-.14h-.09a10.47,10.47,0,0,0-1.78.17,9,9,0,0,0-5.95,3.5c-2.36,3.13-1.57,7.11-1.28,8.25a8.61,8.61,0,0,0,3.28,4.74,10.31,10.31,0,0,0,6.06,1.75,11.53,11.53,0,0,0,5.14-1,8.32,8.32,0,0,0,4.07-4.67,10.46,10.46,0,0,0-.55-8.23A8.16,8.16,0,0,0,55.7,91.36ZM49.35,101c0-.67,0-1.29,0-1.86a11.94,11.94,0,0,1,.43-4.35c.48-1.06,1-1.64,1.57-1.75a1.82,1.82,0,0,1,.36,0c1,0,1.66,1,2,1.84a8.49,8.49,0,0,1,.41,2.77c0,2.29,0,5,0,5.57a5.38,5.38,0,0,1-1.35,3.34,1.53,1.53,0,0,1-1.2.38,2,2,0,0,1-1.34-1C49.57,105,49.3,104.06,49.35,101Z" transform="translate(-20 -84.97)"/><path class="cls-1" d="M78.39,91.39a7.68,7.68,0,0,0-6.22.24,6.1,6.1,0,0,0-2,1.69v-2h-7v17.24h7V96.15h0a4.92,4.92,0,0,1,1.64-1.44,2,2,0,0,1,2.2.21,2.46,2.46,0,0,1,.5,1.69v11.94h6.88V95.49A4.72,4.72,0,0,0,78.39,91.39Z" transform="translate(-20 -84.97)"/><path class="cls-1" d="M101.83,103.54v-.15h-3c-.13,0-.15.12-.17.24-.32,2-2.05,2.69-3.45,2.91s-3.43.21-4.49-1.2a3,3,0,0,1-.36-1v-3.31l11.9,0h.08l0-.07a11.63,11.63,0,0,0-1.06-5.68c-1.57-3-4.09-4.41-8.17-4.62a9.38,9.38,0,0,0-9,4.68,10.68,10.68,0,0,0-.59,7.57,8.94,8.94,0,0,0,2.79,4.11,9.68,9.68,0,0,0,6.41,2.09,20.33,20.33,0,0,0,2.09-.12,10.2,10.2,0,0,0,5.74-2.58A4.55,4.55,0,0,0,101.83,103.54Zm-6.53-5h-5a22,22,0,0,1,.15-3.1,3.65,3.65,0,0,1,1.24-2.22,2,2,0,0,1,2.42.17,3.27,3.27,0,0,1,.89,1.5L95,95a8.88,8.88,0,0,1,.26,2.21C95.3,98,95.29,98.38,95.3,98.56Z" transform="translate(-20 -84.97)"/><path class="cls-1" d="M153.93,90.74a9.39,9.39,0,0,0-9,4.68,10.67,10.67,0,0,0-.59,7.57,8.93,8.93,0,0,0,2.79,4.11,9.68,9.68,0,0,0,6.42,2.09,20.29,20.29,0,0,0,2.09-.12,10.2,10.2,0,0,0,5.74-2.58,4.55,4.55,0,0,0,1.27-2.95v-.15h-3c-.13,0-.15.12-.17.24-.32,2-2.05,2.71-3.45,2.93-2.1.33-3.66-.08-4.49-1.2a2.92,2.92,0,0,1-.36-1v-3.31l11.88,0h.08l0-.07a11.26,11.26,0,0,0-1-5.68C160.53,92.37,158,90.95,153.93,90.74Zm2.15,7.82h-5a21.93,21.93,0,0,1,.15-3.1,3.65,3.65,0,0,1,1.24-2.22,2,2,0,0,1,2.41.17,3.28,3.28,0,0,1,.89,1.5l0,.05a8.9,8.9,0,0,1,.26,2.21C156.08,98,156.08,98.38,156.09,98.56Z" transform="translate(-20 -84.97)"/><path class="cls-1" d="M144.57,91.31h-3.31l-2.47,9-2.76-9H130l-2.49,9.15-2.83-9.12-9.27,0h-.1l-3.22,7.81-3-7.72,0-.09h-7.59l6.83,17.51a3.71,3.71,0,0,1-.14.6,6.77,6.77,0,0,1-1.4,2.53,1.81,1.81,0,0,1-1.31.62,2.56,2.56,0,0,0,.39-.63,3,3,0,0,0-.24-2.26c-.36-.75-1.4-1.49-3.17-1.16a2.87,2.87,0,0,0-2.26,3.32c.2,1.68,1.36,2.72,3.44,3.09a6.48,6.48,0,0,0,1.12.1,5.59,5.59,0,0,0,3.87-1.67,12.08,12.08,0,0,0,2.3-4l6.89-16.9,4.9,16,0,.1h5.85L131.17,99l2.95,9.53h5.71l4.69-17.07Z" transform="translate(-20 -84.97)"/><rect class="cls-1" x="144.88" y="0.01" width="6.7" height="23.59"/><rect class="cls-1" x="153.3" y="0.04" width="6.7" height="23.59"/></svg>