<svg id="Layer_1" data-name="Layer 1" xmlns="http://www.w3.org/2000/svg" viewBox="0 0 160 31.08"><defs><style>.cls-1{fill:#87c546;}</style></defs><title>humana</title><path class="cls-1" d="M180,112.7a2.76,2.76,0,1,1-2.74-2.82A2.76,2.76,0,0,1,180,112.7v0m-4.95,0a2.2,2.2,0,1,0,2.21-2.35,2.24,2.24,0,0,0-2.21,2.27s0,.05,0,.08m2.13-1.54c.74,0,1.23.22,1.23.88a.93.93,0,0,1-.62,1l.18.32a8.71,8.71,0,0,0,.55.82c0,.05-.06.08-.21.08h-.17c-.18,0-.23,0-.27-.07a5.62,5.62,0,0,1-.41-.62l-.27-.48h-.4v1.09s-.06.07-.18.07h-.24c-.12,0-.18,0-.18-.07v-3Zm-.39,1.41h.44c.43,0,.59-.2.59-.48s-.35-.43-.66-.43h-.38ZM62.18,91.85a.87.87,0,0,0-.86.87v17.7a18.07,18.07,0,0,1-4.07.46c-3.05,0-4.16-1.14-4.16-4.47V92.71a.84.84,0,0,0-.8-.87H47.6v14.61c0,6.86,3.62,9.09,9.49,9.09a38.83,38.83,0,0,0,9.72-1.45V91.84Zm71.28,23.44a.87.87,0,0,0,.86-.87V96.53a18.2,18.2,0,0,1,4.07-.45c3.06,0,4.16,1.14,4.16,4.47v13.86a.83.83,0,0,0,.79.87H148V100.5c0-6.86-3.62-9.09-9.49-9.09a38.93,38.93,0,0,0-9.72,1.45v22.4Zm-18.6-23.87c-6,0-9.85,3.27-9.85,10.28v3.52c0,7.76,4.12,10.28,8.59,10.28a7.52,7.52,0,0,0,5.2-2.52v1.45a.85.85,0,0,0,.82.82h4.66V92.78a38.12,38.12,0,0,0-9.43-1.36m3.94,18.14a5.28,5.28,0,0,1-3.94,1.45c-3.06,0-4.38-1.87-4.38-5.86v-3.22c0-4.59,1.69-5.86,4.38-5.86a20.65,20.65,0,0,1,3.94.28Zm42.95-18.14c-6,0-9.86,3.27-9.86,10.28v3.52c0,7.76,4.12,10.28,8.59,10.28a7.52,7.52,0,0,0,5.2-2.52v1.45a.85.85,0,0,0,.82.82h4.66V92.78a38.15,38.15,0,0,0-9.42-1.36m3.94,18.14a5.28,5.28,0,0,1-3.94,1.45c-3.06,0-4.38-1.87-4.38-5.86v-3.22c0-4.59,1.69-5.86,4.38-5.86a20.64,20.64,0,0,1,3.94.28ZM20,115.27h4.9a.88.88,0,0,0,.83-.83v-13H34.8A2.59,2.59,0,0,1,37.41,104v10.49a.85.85,0,0,0,.82.83h4.94V84.46H38.25a.83.83,0,0,0-.84.78V96.81H28a2.25,2.25,0,0,1-2.26-2.2V85.24a.85.85,0,0,0-.83-.77H20ZM92.79,91.43a11.81,11.81,0,0,0-6.18,1.79c-1.68-1.27-4-1.79-6.82-1.79A24.81,24.81,0,0,0,71.39,93v22.31H76a.84.84,0,0,0,.83-.86v-18a10,10,0,0,1,2.69-.41c3.22,0,4,1.29,4,4.47V114.4a.87.87,0,0,0,.83.88h3.83a.82.82,0,0,0,.83-.81s0,0,0-.06V97.17a5,5,0,0,1,3.21-1.1c2.48,0,3.49,1.12,3.49,4.16v14.18a.86.86,0,0,0,.83.88h4.64V99.47c0-6-3.74-8.05-8.41-8.05" transform="translate(-20 -84.46)"/></svg>