<svg id="Layer_1" data-name="Layer 1" xmlns="http://www.w3.org/2000/svg" viewBox="0 0 160 105.31"><defs><style>.cls-1{fill:#0c0e0f;}.cls-2{fill:#cc4d4f;}</style></defs><title>jackson_hewitt_2</title><path class="cls-1" d="M172.08,104a3.6,3.6,0,0,1,3.6-3.84A3.56,3.56,0,0,1,179,104a3.34,3.34,0,0,1-3.36,3.6A3.4,3.4,0,0,1,172.08,104Zm3.6,4.32A4.16,4.16,0,0,0,180,104a4.36,4.36,0,0,0-4.32-4.56,4.56,4.56,0,0,0-4.56,4.56,4.35,4.35,0,0,0,4.56,4.32Zm-1-4.08h.72l1.44,2.4h1l-1.44-2.4c.72,0,1.2-.48,1.2-1.44s-.48-1.44-1.68-1.44H174v5.28h.72v-2.4Zm0-.72V102h1c.48,0,1.2,0,1.2.72s-.72.72-1.2.72ZM121,89.33,119.07,116l-2.4-26.63h-7.92L106.36,116l-1.92-26.63H97l3.36,35h10.32l1.92-19,2.16,19h10.31l3.36-35H121Zm8.4,35h7.92v-35h-7.92Zm-56.13-35V102H70.14V89.33H62.46v35h7.68V109.48h3.12v14.87h7.68v-35Zm17.27,27.83v-7.68H95.8v-6.72H90.52V96H96V89.33H82.85v35H96.52v-7.2h-6Zm64.53-27.83H138V96h4.56v28.31h7.91V96h4.56Z" transform="translate(-20 -47.35)"/><path class="cls-1" d="M172.56,89.33h-17V96h4.56v28.31H168V96h4.56Z" transform="translate(-20 -47.35)"/><path class="cls-2" d="M57.66,101.8l1.92,17V89.08H56.46l1.2,12.71ZM20,104v10.31l32.38,14.63-6.48-4.56.48-.72-12.23-8.88.24-.48Zm31.42,26.39-7-2.88v-.72l-13.43-6,.24-.72L20,115v8.64l9.36,2.16ZM43,134.18v-.48l-14.63-.24V133l-8.4-.24v3.36H42.07l9.12-1.92Zm8.16-1.92-7.92-1.44v-1L28.88,127l.24-.72L20,124.35v7.92H51.18ZM39.67,109,54.3,125.55l-3.6-6.24.72-.48L44,106.12l.48-.48-9.6-16.55H21.44Zm-4.56,5,17.51,12.47-4.56-4.8.48-.72-9.83-11,.48-.48L20.48,89.08H20V103ZM55.74,89.08H46.87l4.32,13.67,6.72,21.35-.72-7.44h1L56.46,102l.72-.24L55.74,89.08ZM45.19,105.4l-.24-.24,11.27,19.67-2.4-7,.72-.48L50,103.24l.72-.24L46.15,89.08H35.59l9.59,16.31Z" transform="translate(-20 -47.35)"/><path class="cls-1" d="M104.68,85,98.92,64.62l5-16.07h-8.4L91.48,63.42V48.54H82.85V85h8.64V68l4.08,17h9.12ZM138.5,47.35c-6.48,0-10.31,4.56-10.31,10.31V76.37c0,5.52,4.08,9.36,10.31,9.36,7,0,10.56-3.84,10.56-9.36V57.66C149.06,51.9,145.7,47.35,138.5,47.35Zm1.68,30.7a1.34,1.34,0,0,1-1.44,1.2c-1,0-1.68-.48-1.68-1.2V55.26a1.6,1.6,0,0,1,1.68-1.44,1.55,1.55,0,0,1,1.44,1.44ZM49,85h8.64L53.1,48.55H40.39L36.31,85h8.64l.24-6.72h3.36L49,85Zm-3.6-12.71v-.24l1.44-17v0l1.44,17v.24H45.43ZM25.28,48.54V75.41c0,.72.24,3.12-2.16,3.12-.24,0-1.2,0-1.44-.24L21.92,85H23.6c10.31,0,10.31-3.12,10.31-8.64V48.54ZM71.33,68.94v9.12a1.13,1.13,0,0,1-1.2,1.2,1.34,1.34,0,0,1-1.44-1.2V55.26a1.55,1.55,0,0,1,1.44-1.44,1.34,1.34,0,0,1,1.2,1.44v7.68h8.88V57.66c0-5.76-3.6-10.31-10.07-10.31S59.82,51.9,59.82,57.66V76.37c0,5.52,4.56,9.36,10.31,9.36,5.52,0,10.07-3.84,10.07-9.36V68.94H71.33Zm44.14-8.64c-2.16-1.92-1.44-3.6-1.44-3.6,0-2.4.48-3.12,1.44-3.12a1.8,1.8,0,0,1,1.68,1.68V59.1h7.68V56.94c0-5.52-1.44-9.12-9.11-9.36-8.64,0-9.83,4.32-9.83,10.07,0,0-.24,4.08,1,6a20.16,20.16,0,0,0,2.88,3.12s3.84,2.88,5,4.08c2.4,1.92,2.4,3.84,2.4,3.84,0,4.56-.72,5.28-1.68,5.28A1.75,1.75,0,0,1,114,78.29V71.57h-8.16v5.52c0,5.52,2.16,8.64,9.83,8.64,4.08,0,9.83-1.44,9.83-8.64,0,0,.48-7.44-1.68-9.83a28.44,28.44,0,0,0-4.32-3.84,36.91,36.91,0,0,1-4.08-3.12Zm48.94-11.76V66.78l-5-18.23h-7.44V85h7.68V64.14L164.41,85h7.44V48.54ZM22.4,152.41h2.88v-7H27v-1.92H20.72v1.92H22.4Zm14.87-3.12.48-4.08.48,4.08Zm-2.88,3.12H37l.24-1.44h1l.24,1.44h2.64l-1.44-8.88H35.83l-1.44,8.88Zm15.11,0h2.88l.48-3.6,1,3.6h2.64l-1.44-5,1-3.84h-2.4l-.72,2.88-.48-2.88H49.51l1.2,4.08Zm27.35-2.16c0,1.44.24,2.4,2.88,2.4,1.92,0,3.12-.48,3.12-2.4v-.48c0-2.64-3.6-2.64-3.6-4.08v-.24c0-.48.24-.72.48-.72s.48.24.48.72v.72h2.64v-.72c0-1-.48-1.92-3.12-1.92-1.92,0-3.12.48-3.12,2.16v.48c0,2.4,3.6,2.16,3.6,3.84v.48c0,.24,0,.72-.48.72a.52.52,0,0,1-.48-.48V149.3h-2.4v1Zm14.87,2.16h4.8v-1.68H94.6v-1.92h1.68V146.9H94.6v-1.44h1.68v-1.92H91.72v8.88Zm13.43,0H108v-4.08h.24a.64.64,0,0,1,.72.72v3.36h2.64v-3.12c0-1-.48-1.44-1.92-1.44,1.2-.24,1.68-.72,1.68-1.68v-.72c0-1.68-1.44-1.92-3.12-1.92h-3.12v8.88ZM108,145c.48,0,1,.24,1,.72v.72c0,.48-.48.48-1,.48Zm12-1.44,1.44,8.88h3.84l1.44-8.88h-2.64l-.72,7.2-.48-7.2H120Zm15.35,8.88h2.88v-8.88h-2.88Zm11.76-2.4c0,1.2.48,2.64,3.12,2.64,1.92,0,3.12-1,3.12-2.64v-1.44h-2.64v1.92c0,.24,0,.72-.48.72-.24,0-.48-.24-.48-.72v-5a.52.52,0,0,1,.48-.48c.48,0,.48.24.48.48v1.68h2.64v-1.2c0-1.68-1-2.4-2.88-2.4-2.88,0-3.36,1.2-3.36,2.64V150Zm15.11,2.4H167v-1.68h-2.16v-1.92h1.92V146.9h-1.92v-1.44h1.92v-1.92h-4.56v8.88Z" transform="translate(-20 -47.35)"/><rect class="cls-2" x="41.28" y="81.87" width="114.27" height="6.88"/></svg>