<svg id="Layer_1" data-name="Layer 1" xmlns="http://www.w3.org/2000/svg" viewBox="0 0 160 62.89"><defs><style>.cls-1{fill:#003876;}</style></defs><title>jetblue_airways</title><path class="cls-1" d="M77.15,125.91l2.74-5.84,2.74,5.84H77.15ZM72,131.12H74.7l1.39-3h7.55l1.37,3h2.7L81.35,118H78.43L72,131.12ZM91.19,118h2.56v13.1H91.19V118Zm10,5.82v-3.7h4.94c2.09,0,3.16.3,3.16,1.84s-1.06,1.86-3.16,1.86h-4.94Zm-2.56,7.28h2.56V126h4.05l3.8,5.15h3.15l-4-5.33a3.71,3.71,0,0,0,3.66-3.86c0-3.21-2.23-3.91-5.33-3.91H98.63v13.1h0ZM115.07,118h2.56l2.52,9h0l2.51-9h2.45l2.54,9h0l2.51-9h2.5l-3.82,13.1h-2.45l-2.49-9.3h0l-2.51,9.3h-2.5L115.07,118Zm24.28,7.89,2.74-5.84,2.74,5.84h-5.48Zm-5.17,5.21h2.72l1.39-3h7.55l1.37,3h2.71L143.54,118h-2.92l-6.45,13.1Zm21.9-5.25-6.4-7.85h3.13l4.54,5.55,4.52-5.55H165l-6.4,7.85v5.25h-2.56v-5.25Zm21.3-3.87c-.41-1.17-1.48-2.18-4.59-2.18-1.73,0-3.48.43-3.48,1.64,0,.56.32,1.15,2.94,1.48l3.1.47c2.94.45,4.67,1.59,4.67,3.78,0,3.1-3,4.25-6.45,4.25-5.62,0-7-2.78-7.3-3.77l2.47-.77c.47,1,1.44,2.34,4.9,2.34,2.09,0,3.82-.69,3.82-1.82,0-.85-1-1.41-2.85-1.64l-3.14-.43c-3-.42-4.72-1.73-4.72-3.73,0-3.93,5.1-3.93,6.11-3.93,5.64,0,6.61,2.61,6.94,3.51l-2.41.79ZM24.5,79.29h5.34v28.6c0,4.45-3.25,7.43-7.75,7.43H20v-5h1.52c1.83,0,3-.84,3-2.83Zm0-10.73h5.34v5.34H24.5ZM38.62,90.17c.1-4,2.46-6.17,5.6-6.17s5.44,2.15,5.6,6.17Zm16.54,4.39V90.17A10.77,10.77,0,0,0,44.22,79c-5.13,0-10.94,3.35-10.94,13.66,0,10.89,6.33,13.5,11.78,13.5a12.22,12.22,0,0,0,9.57-4.29l-3.87-3.3A8.35,8.35,0,0,1,45,101.11c-3.66,0-6.33-2.2-6.33-6.54H55.16Zm4.23-23.34h5.34v8.06H68.6v4.08H64.73V98.81c0,1.47.57,2,1.88,2h2v5H65.83c-3.72,0-6.44-2.36-6.44-6.54V83.37H56.72V79.29h2.67Zm27,18.06c4.19,0,6.07,2.67,6.07,5.6s-1.88,5.6-6.07,5.6H77.65V89.28ZM72,105.82H87.7A10.18,10.18,0,0,0,98.06,95.25c0-3.77-2-7.64-6.07-8.59v-.1c4.34-1.94,5.5-4.92,5.5-8,0-5.86-3.77-10-11-10H72v37.26ZM85.82,73.58c4.08,0,6,2.46,6,5.34s-1.94,5.34-6,5.34H77.65V73.58Zm15.31-5h5.34V99c0,1.2.68,1.83,2,1.83h1.83v5h-2.35c-3.88,0-6.81-1.67-6.81-6.44Zm11.41,10.73h5.34v15.8c0,3.61,2.25,5.71,5.29,5.71s5.23-2.09,5.23-5.71V79.29h5.34v26.53H128.4V103h-.1a8.48,8.48,0,0,1-6.86,3.14,8.92,8.92,0,0,1-8.9-9.21V79.29h0Zm29.4,10.89c.11-4,2.46-6.17,5.6-6.17s5.44,2.15,5.6,6.17h-11.2Zm16.54,4.39V90.17A10.77,10.77,0,0,0,147.55,79c-5.13,0-10.94,3.35-10.94,13.66,0,10.89,6.34,13.5,11.78,13.5a12.22,12.22,0,0,0,9.58-4.29l-3.87-3.29a8.34,8.34,0,0,1-5.81,2.56c-3.66,0-6.33-2.2-6.33-6.54h16.54Z" transform="translate(-20 -68.56)"/></svg>