<?xml version="1.0" encoding="UTF-8"?>
<!-- Generator: Adobe Illustrator 19.1.0, SVG Export Plug-In . SVG Version: 6.00 Build 0)  -->
<svg xmlns="http://www.w3.org/2000/svg" xmlns:xlink="http://www.w3.org/1999/xlink" id="Conf_-_Blue" x="0px" y="0px" width="1401px" height="267.72px" viewBox="0 0 1401 267.72" style="enable-background:new 0 0 1401 267.72;" xml:space="preserve">
<style type="text/css">
	.st0{fill:#172B4D;}
</style>
<g>
	<path class="st0" d="M521.397,223.431c9.793,3.744,23.428,6.07,35.581,6.07c33.916,0,40.552-12.525,40.552-34.161   c0-11.646-0.242-19.066-5.006-24.65c-4.325-5.07-12.094-8.42-29.688-12.799c-11.306-2.83-17.849-4.576-20.824-7.523   c-2.643-2.617-2.92-6.75-2.92-15.553c0-13.376,3.176-17.541,23.029-17.541c9.559,0,20.432,1.153,29.83,3.164   c0.139,0.029,0.279,0.045,0.419,0.045c0.421,0,0.836-0.134,1.182-0.387c0.46-0.337,0.755-0.854,0.81-1.422l1.039-10.818   c0.096-0.985-0.545-1.892-1.504-2.132c-9.322-2.335-21.637-3.786-32.137-3.786c-33.051,0-39.823,12.922-39.823,32.324   c0,11.493,0.39,20.099,5.426,26.182c5.002,6.041,14.12,9.045,28.181,12.193c12.425,2.816,18.866,4.676,21.853,7.627   c2.709,2.678,2.979,6.562,2.979,15.447c0,14.491-4.951,18.459-23.033,18.459c-10.612,0-21.884-1.688-32.596-4.881   c-0.188-0.057-0.38-0.084-0.571-0.084c-0.36,0-0.718,0.098-1.032,0.287c-0.481,0.29-0.819,0.77-0.93,1.322l-2.064,10.357   C519.959,222.128,520.486,223.082,521.397,223.431z"></path>
	<path class="st0" d="M866.294,168.111v28.152c0,19.95,6.178,33.237,36.328,33.237c7.988,0,16.27-1.275,20.582-2.46   c0.951-0.262,1.569-1.176,1.458-2.154l-1.175-10.338c-0.064-0.555-0.356-1.059-0.806-1.388c-0.345-0.253-0.76-0.387-1.182-0.387   c-0.128,0-0.257,0.013-0.384,0.037c-5.931,1.16-11.862,1.724-18.135,1.724c-15.063,0-19.898-4.307-19.898-17.724v-29.251   c0-13.416,4.835-17.723,19.898-17.723c6.245,0,12.171,0.564,18.116,1.723c0.127,0.025,0.255,0.037,0.383,0.037   c0.427,0,0.846-0.137,1.193-0.395c0.452-0.336,0.741-0.847,0.797-1.406l1.029-10.334c0.097-0.969-0.518-1.866-1.456-2.126   c-4.432-1.228-12.465-2.464-20.422-2.464C883.754,134.873,866.294,138.898,866.294,168.111z"></path>
	<path class="st0" d="M934.719,169.033v26.862c0,22.927,11.485,33.605,36.144,33.605c10.613,0,22.12-1.799,30.78-4.812   c0.918-0.319,1.474-1.253,1.316-2.212l-1.607-9.805c-0.091-0.554-0.409-1.043-0.879-1.351c-0.328-0.215-0.71-0.326-1.095-0.326   c-0.166,0-0.332,0.021-0.494,0.062c-10.006,2.554-18.999,3.849-26.732,3.849c-16.013,0-20.643-4.306-20.643-19.194v-6.867h51.287   c1.104,0,2-0.895,2-2v-17.441c0-23.235-11.221-34.53-34.303-34.53c-11.686,0-20.658,2.903-26.672,8.629   C937.781,149.254,934.719,157.844,934.719,169.033z M988.562,174.617h-37.054v-6.687c0-13.02,5.856-18.825,18.984-18.825   c13.003,0,18.069,5.277,18.069,18.825V174.617z"></path>
	<path class="st0" d="M1188.798,229.501c10.613,0,22.12-1.799,30.78-4.812c0.918-0.319,1.474-1.253,1.316-2.212l-1.607-9.805   c-0.091-0.554-0.409-1.043-0.879-1.351c-0.328-0.215-0.71-0.326-1.095-0.326c-0.165,0-0.332,0.021-0.494,0.062   c-10.004,2.554-18.998,3.849-26.732,3.849c-16.013,0-20.643-4.306-20.643-19.194v-6.867h51.287c1.105,0,2-0.895,2-2v-17.441   c0-23.235-11.221-34.53-34.303-34.53c-11.685,0-20.658,2.903-26.672,8.629c-6.039,5.752-9.102,14.342-9.102,25.531v26.862   C1152.655,218.822,1164.14,229.501,1188.798,229.501z M1206.499,174.617h-37.055v-6.687c0-13.02,5.855-18.825,18.984-18.825   c13.004,0,18.07,5.277,18.07,18.825V174.617z"></path>
	<path class="st0" d="M849.536,100.177h-12.787c-1.104,0-2,0.896-2,2v16.518c0,1.104,0.896,2,2,2h12.787c1.104,0,2-0.896,2-2   v-16.518C851.536,101.073,850.641,100.177,849.536,100.177z"></path>
	<path class="st0" d="M834.749,225.665c0,1.105,0.896,2,2,2h12.787c1.104,0,2-0.895,2-2v-87.214c0-1.104-0.896-2-2-2h-12.787   c-1.104,0-2,0.896-2,2V225.665z"></path>
	<path class="st0" d="M1308.317,227.665h12.793c1.104,0,2-0.895,2-2V102.177c0-1.104-0.896-2-2-2h-12.793c-1.104,0-2,0.896-2,2   v123.488C1306.317,226.77,1307.213,227.665,1308.317,227.665z"></path>
	<path class="st0" d="M1358.056,226.836c0.376,0.521,0.979,0.829,1.621,0.829h14.9c0.755,0,1.445-0.425,1.785-1.099   c0.341-0.675,0.271-1.482-0.177-2.09l-31.593-42.756l30.171-41.839c0.44-0.609,0.501-1.413,0.158-2.081   c-0.342-0.668-1.029-1.089-1.78-1.089h-14.561c-0.646,0-1.253,0.312-1.629,0.839l-30.662,43.01   c-0.498,0.699-0.494,1.637,0.008,2.332L1358.056,226.836z"></path>
	<path class="st0" d="M737.399,148.66l-1.639-11.497c-0.089-0.619-0.462-1.162-1.009-1.466c-0.301-0.167-0.636-0.252-0.972-0.252   c-0.273,0-0.548,0.057-0.805,0.169c-7.661,3.37-15.67,8.066-22.168,12.985l-0.738-10.034c-0.076-1.045-0.946-1.854-1.994-1.854   H697.21c-1.105,0-2,0.895-2,2v86.953c0,1.105,0.895,2,2,2h12.793c1.104,0,2-0.895,2-2v-60.148   c5.25-3.667,15.129-10.273,24.299-14.781C737.079,150.355,737.522,149.517,737.399,148.66z"></path>
	<path class="st0" d="M1235.448,225.064c7.279,2.571,18.914,4.438,27.664,4.438c8.713,0,17.586-0.586,23.459-4.839   c5.524-3.998,8.096-10.918,8.096-21.777c0-8.463-0.312-14.328-4.478-18.561c-3.922-3.985-11.083-6.326-23.773-9.501   c-14.743-3.599-14.743-5.092-14.743-14.806c0-4.355,0.631-6.604,2.249-8.022c1.966-1.721,5.823-2.523,12.14-2.523   c6.591,0,15.5,0.879,23.25,2.293c0.119,0.021,0.24,0.033,0.359,0.033c0.436,0,0.862-0.143,1.213-0.41   c0.448-0.342,0.73-0.857,0.779-1.418l0.877-10.126c0.085-0.975-0.548-1.867-1.495-2.11c-7.09-1.818-15.995-2.86-24.433-2.86   c-26.188,0-31.555,9.904-31.555,24.776c0,18.811,2.283,23.774,24.758,29.355c18.238,4.476,18.238,5.609,18.238,14.433   c0,5.059-0.797,7.724-2.749,9.196c-2.11,1.593-6.03,2.272-13.108,2.272c-7.186,0-16.368-1.253-23.965-3.271   c-0.17-0.045-0.342-0.066-0.514-0.066c-0.381,0-0.758,0.109-1.084,0.319c-0.474,0.306-0.796,0.796-0.889,1.352l-1.604,9.609   C1233.981,223.807,1234.532,224.74,1235.448,225.064z"></path>
	<path class="st0" d="M774.179,227.665h18.665c0.862,0,1.628-0.554,1.899-1.373l28.717-86.953c0.201-0.609,0.098-1.278-0.278-1.799   c-0.376-0.52-0.98-0.828-1.621-0.828H809.1c-0.87,0-1.64,0.561-1.905,1.39l-23.683,73.973l-23.679-73.972   c-0.265-0.829-1.035-1.391-1.904-1.391h-12.461c-0.642,0-1.245,0.308-1.621,0.828c-0.376,0.52-0.479,1.189-0.278,1.799   l28.711,86.953C772.55,227.111,773.315,227.665,774.179,227.665z"></path>
	<path class="st0" d="M1057.905,227.666h13.16c1.104,0,2-0.896,2-2V119.299h25.785c16.614,0,23.391,6.2,23.391,21.399v50.043   c0,14.528-7.988,21.329-25.139,21.4l-2.932,0.002l-7.594,0.002c-1.104,0-2,0.896-2,2v11.521c0,1.104,0.896,2,2,2h13.252   c12.923-0.067,22.836-3.131,29.474-9.104c6.702-6.032,10.101-15.02,10.101-26.716v-52.252c0-11.761-3.438-20.784-10.216-26.817   c-6.711-5.973-16.733-9.001-29.786-9.001h-41.496c-1.104,0-2,0.895-2,2v119.889   C1055.905,226.771,1056.801,227.666,1057.905,227.666z"></path>
	<path class="st0" d="M679.099,188.85c1.104,0,2-0.896,2-2v-17.441c0-23.236-11.221-34.53-34.303-34.53   c-11.685,0-20.658,2.902-26.672,8.629c-6.039,5.752-9.102,14.342-9.102,25.531V195.9c0,22.928,11.484,33.605,36.143,33.605   c10.613,0,22.12-1.799,30.78-4.812c0.918-0.319,1.474-1.253,1.316-2.213l-1.607-9.805c-0.091-0.553-0.409-1.043-0.879-1.35   c-0.329-0.215-0.71-0.326-1.095-0.326c-0.166,0-0.332,0.021-0.495,0.062c-10,2.553-18.993,3.848-26.732,3.848   c-16.013,0-20.643-4.305-20.643-19.193v-6.867H679.099z M646.796,149.11c13.004,0,18.07,5.278,18.07,18.825v6.688h-37.055v-6.688   C627.812,154.916,633.667,149.11,646.796,149.11z"></path>
</g>
<g>
	<path class="st0" d="M256.327,103.742h-19.332c-1.74,0-3.15,1.41-3.15,3.149v117.625c0,1.74,1.41,3.15,3.15,3.15h19.332   c1.74,0,3.15-1.41,3.15-3.15V106.891C259.478,105.152,258.067,103.742,256.327,103.742z"></path>
	<path class="st0" d="M211.052,103.742h-19.568c-1.656,0-3.008,1.344-3.008,3v92.041c0,11.567-8.814,15.369-14.779,15.673   c-0.805,0.039-1.74,0.546-2.254,1.297c-0.516,0.754-0.66,1.7-0.393,2.572l4.758,15.477c0.389,1.267,1.754,2.08,3.975,2.08   c18.723,0,34.27-14.699,34.27-34.403v-94.734c0-0.797-0.316-1.561-0.879-2.124C212.61,104.056,211.847,103.742,211.052,103.742z"></path>
	<g>
		<g>
			<g>
				<g>
					<path class="st0" d="M59.521,71.652c-6.012,0-10.881,4.863-10.881,10.891c0,6.011,4.869,10.891,10.881,10.891       c6.017,0,10.879-4.88,10.879-10.891C70.399,76.515,65.538,71.652,59.521,71.652L59.521,71.652L59.521,71.652z"></path>
				</g>
			</g>
			<g>
				<g>
					<path class="st0" d="M131.001,71.652c-6.016,0-10.877,4.863-10.877,10.891c0,6.011,4.861,10.891,10.877,10.891       c5.998,0,10.877-4.88,10.877-10.891C141.878,76.515,136.999,71.661,131.001,71.652L131.001,71.652L131.001,71.652z"></path>
				</g>
			</g>
		</g>
		<g>
			<g>
				<path class="st0" d="M95.261,61.716c-6.012,0-10.881,4.861-10.881,10.891c0,6.012,4.869,10.893,10.881,10.893      c6.016,0,10.877-4.881,10.877-10.893C106.138,66.578,101.276,61.716,95.261,61.716L95.261,61.716L95.261,61.716z"></path>
			</g>
		</g>
	</g>
	<g>
		<path class="st0" d="M156.722,101.996c-0.605-0.459-1.334-0.699-2.072-0.699c-0.408,0-0.822,0.076-1.215,0.227    c-7.367,2.816-14.848,4.956-21.676,6.547c-1.393,0.324-2.518,1.358-2.984,2.602c-4.975,13.627-17.678,26.6-31.006,40.192    c-0.535,0.508-1.285,1.178-2.504,1.178c-1.217,0-1.959-0.649-2.504-1.178c-13.326-13.592-26.029-26.52-31.006-40.149    c-0.467-1.24-1.592-2.275-2.982-2.6c-6.832-1.592-14.332-3.797-21.689-6.613c-0.395-0.15-0.809-0.226-1.219-0.226    c-0.738,0-1.453,0.231-2.057,0.692c-0.943,0.721-1.434,1.889-1.322,3.011c1.129,11.332,5.605,22.409,13.688,34.017    c7.596,10.915,17.504,21.018,27.082,30.786c17.65,18.003,34.324,35.006,35.787,54.723c0.131,1.778,1.613,3.157,3.4,3.157h20.736    c0.934,0,1.826-0.384,2.471-1.061c0.643-0.677,0.982-1.584,0.936-2.518c-0.652-13.182-5.613-26.383-15.166-40.353    c-2.002-2.93-4.147-5.779-6.389-8.568c-0.91-1.136-0.529-2.547,0.168-3.259c0.688-0.705,1.381-1.408,2.076-2.121    c9.58-9.771,19.486-19.871,27.084-30.786c8.08-11.608,12.557-22.621,13.686-33.952    C158.157,103.906,157.64,102.698,156.722,101.996z"></path>
		<g>
			<path class="st0" d="M73.013,185.119c-0.49-0.513-1.211-1.037-2.422-1.037c-1.547,0-2.465,1.07-2.812,1.601     c-8.723,13.272-13.227,25.8-13.85,38.389c-0.045,0.928,0.297,1.85,0.939,2.528c0.645,0.674,1.549,1.062,2.48,1.062H78.05     c1.781,0,3.281-1.394,3.412-3.17c0.451-6.067,2.34-12.149,5.779-18.54c1.191-2.211,0.266-4.288-0.422-5.176     C83.407,196.339,79.229,191.607,73.013,185.119z"></path>
		</g>
		<path class="st0" d="M95.284,112.156c6.498,0,10.268-0.391,11.592-0.391c1.603,0,3.137,1.313,3.137,3.154    c0,0.537-0.127,0.92-0.254,1.259c-0.861,2.305-4.789,10.595-12.102,17.705c-0.82,0.799-1.75,0.948-2.391,0.948h-0.008    c-0.639,0-1.568-0.149-2.389-0.948c-7.312-7.11-11.242-15.4-12.102-17.705c-0.127-0.339-0.254-0.722-0.254-1.259    c0-1.841,1.535-3.154,3.139-3.154c1.324,0,5.092,0.391,11.588,0.391H95.284z"></path>
	</g>
</g>
<path class="st0" d="M443.681,105.945c-0.414-1.312-1.629-2.203-3.004-2.203h-29.395c-1.375,0-2.592,0.891-3.004,2.203  l-34.018,107.891l-20.936-30.197c11.59-4.809,17.465-14.885,17.465-29.953v-15.834c0-23.59-12.318-34.11-39.938-34.11h-47.887  c-1.74,0-3.15,1.41-3.15,3.149v117.625c0,1.74,1.41,3.15,3.15,3.15h19.332c1.74,0,3.15-1.41,3.15-3.15v-36.891h19.785l26.908,38.689  c0.588,0.846,1.555,1.352,2.586,1.352h39.705c1.396,0,2.625-0.918,3.021-2.258l25.539-86.51c0,0,0.668-2.16,2.98-2.16  c2.352,0,2.924,2.246,2.924,2.248l11.85,41.023h-16.279c-1.412,0-2.65,0.939-3.033,2.297l-4.566,16.239  c-0.268,0.95-0.074,1.97,0.521,2.755c0.596,0.786,1.523,1.248,2.51,1.248h27.473l7.137,22.903c0.41,1.317,1.629,2.214,3.008,2.214  h20.246c1.004,0,1.947-0.477,2.539-1.287c0.594-0.81,0.766-1.854,0.465-2.811L443.681,105.945z M345.155,151.684  c0,10.014-3.838,13.391-15.211,13.391h-24.496v-38.43h24.496c12.668,0,15.211,4.984,15.211,13.028V151.684z"></path>
</svg>
