<svg id="Layer_1" data-name="Layer 1" xmlns="http://www.w3.org/2000/svg" viewBox="0 0 160 18.87" preserveAspectRatio="xMinYMin"><defs><style>.cls-1{fill:#6095c1;}</style></defs><title>LateRooms_com</title><path class="cls-1" d="M132.28,104v5H137l-.55-4.75Zm9.62-5.22a1.26,1.26,0,0,1,.42-.69,1.66,1.66,0,0,1,.81-.19,1,1,0,0,1,1,.58,3.06,3.06,0,0,1,.23.84,9.27,9.27,0,0,1,.08,1.35h4.06a10.54,10.54,0,0,0-.24-2.33,4.43,4.43,0,0,0-.83-1.79,4,4,0,0,0-1.59-1.16,6.53,6.53,0,0,0-2.49-.41,10.91,10.91,0,0,0-2.39.25,4,4,0,0,0-1.92,1,5.33,5.33,0,0,0-1.3,2.25,13,13,0,0,0-.48,3.89,12.11,12.11,0,0,0,.43,3.57,4.82,4.82,0,0,0,1.2,2.09,3.63,3.63,0,0,0,1.84,1,11.74,11.74,0,0,0,2.39.22,5.54,5.54,0,0,0,4.17-1.36,4.39,4.39,0,0,0,.93-1.86,7.72,7.72,0,0,0,.27-2.24l-4.06-.51v.88a3.27,3.27,0,0,1-.34,1.77,1.13,1.13,0,0,1-1,.48,1.71,1.71,0,0,1-.81-.19,1.28,1.28,0,0,1-.42-.67,8.5,8.5,0,0,1-.11-1.31c0-.54-.06-1.24-.06-2.09s0-1.54.06-2.09A8.67,8.67,0,0,1,141.9,98.77Zm18.88.61a5.94,5.94,0,0,0-.75-2.29,4,4,0,0,0-1.74-1.55,7.27,7.27,0,0,0-3.16-.57,6.43,6.43,0,0,0-3.06.62,4.44,4.44,0,0,0-1.76,1.63,6.16,6.16,0,0,0-.8,2.29,18.06,18.06,0,0,0-.18,2.63,21.28,21.28,0,0,0,.17,2.79,5.7,5.7,0,0,0,.74,2.27,3.88,3.88,0,0,0,1.73,1.52,7.66,7.66,0,0,0,3.15.54,6.78,6.78,0,0,0,3.07-.59,4.32,4.32,0,0,0,1.75-1.59,6,6,0,0,0,.8-2.28,18.34,18.34,0,0,0,.19-2.63A22.53,22.53,0,0,0,160.78,99.38Zm-5.17,7-.46,0a1,1,0,0,1-1.06-1L153.76,99a1,1,0,0,1,1-1.06l.46,0a1,1,0,0,1,1.06,1l.34,6.47A1,1,0,0,1,155.61,106.4Z" transform="translate(-20 -90.56)"/><path class="cls-1" d="M179.72,96.86a2.89,2.89,0,0,0-.75-1.14,2.59,2.59,0,0,0-1.11-.59,5.64,5.64,0,0,0-1.39-.16,4.32,4.32,0,0,0-2,.46,3.23,3.23,0,0,0-1.44,1.63,3.45,3.45,0,0,0-1.17-1.58,3.75,3.75,0,0,0-2.14-.51,3.24,3.24,0,0,0-3.27,2h-.42l.34-1.69H162v13.34l5,.51-.51-9.18a2.36,2.36,0,0,1,.25-1.24,1,1,0,0,1,.86-.38.94.94,0,0,1,.85.38,2.31,2.31,0,0,1,.25,1.24v8.85h4.51V100a3.91,3.91,0,0,1,0-.45v-.29a.9.9,0,0,1,.89-.9h.41a.9.9,0,0,1,.9.9l0,.44c0,.1,0,.19,0,.3l-.14,2.41-.31,6.43,5,.34V98.67A5,5,0,0,0,179.72,96.86Z" transform="translate(-20 -90.56)"/><polygon class="cls-1" points="4.67 14.73 5.19 0 0 0.51 0 18.57 11.05 18.57 10.54 14.28 4.67 14.73"/><path class="cls-1" d="M44,106.11h-.26a1.21,1.21,0,0,1-.82-.24,1.08,1.08,0,0,1-.26-.82l0-5.54h0a5.19,5.19,0,0,0-.39-2.16A3.19,3.19,0,0,0,41.17,96a4.4,4.4,0,0,0-1.71-.69,11.91,11.91,0,0,0-2.18-.19,9.7,9.7,0,0,0-1.69.17,4.72,4.72,0,0,0-1.69.66,4.1,4.1,0,0,0-1.31,1.4,2.91,2.91,0,0,0-.53,1.88l3.93.52a2.6,2.6,0,0,1,.33-1.48,1.17,1.17,0,0,1,1-.37c.78,0,1.17.42,1.17,1.26a1.44,1.44,0,0,1-.3,1,2,2,0,0,1-1,.52l-1.79.44a7.75,7.75,0,0,0-1.82.62,3.51,3.51,0,0,0-1.17.88,3.21,3.21,0,0,0-.61,1.22,6.54,6.54,0,0,0-.19,1.67,5.77,5.77,0,0,0,.21,1.62,3.22,3.22,0,0,0,.65,1.27,2.74,2.74,0,0,0,1.18.8,5.07,5.07,0,0,0,1.76.26A3.78,3.78,0,0,0,37.2,109a2.67,2.67,0,0,0,1.2-1.38h.22v0a2,2,0,0,0,.68,1.05,2.36,2.36,0,0,0,1.18.44,10.88,10.88,0,0,0,1.53.09c.38,0,.82,0,1.24,0s.53,0,1,0ZM38.58,104a3.71,3.71,0,0,1-.36,1.85,1.31,1.31,0,0,1-1.21.61,1.07,1.07,0,0,1-.89-.44,1.93,1.93,0,0,1-.34-1.19,2.71,2.71,0,0,1,.23-1.2,1.62,1.62,0,0,1,.81-.73,4,4,0,0,1,1-.32c.31,0,.73-.09.73.22V104Z" transform="translate(-20 -90.56)"/><path class="cls-1" d="M50.47,106.09a1.21,1.21,0,0,1-.82-.24,1.08,1.08,0,0,1-.26-.82V98.5H51l.85-3.39-2.93.45.47-4.62-4.51.51V96l-1.51.15v.67h0V98.5h1.51v7.29a6.53,6.53,0,0,0,.21,1.83,2,2,0,0,0,.68,1.05,2.36,2.36,0,0,0,1.18.44,15.28,15.28,0,0,0,1.76.09c.38,0,.82,0,1.24,0s1.29,0,1.73-.09l-.51-3Z" transform="translate(-20 -90.56)"/><path class="cls-1" d="M55.43,104.23v-1.16h7.23v-1.39a12.09,12.09,0,0,0-.34-3.12,4.91,4.91,0,0,0-1-2,3.83,3.83,0,0,0-1.71-1.1,7.79,7.79,0,0,0-2.38-.33,7.94,7.94,0,0,0-2.63.39,4,4,0,0,0-1.79,1.25,5.42,5.42,0,0,0-1,2.23,14.42,14.42,0,0,0-.33,3.34,16.09,16.09,0,0,0,.29,3.3,5.29,5.29,0,0,0,1,2.22,3.74,3.74,0,0,0,1.79,1.21,8.83,8.83,0,0,0,2.74.36,5.41,5.41,0,0,0,4-1.28,4.18,4.18,0,0,0,1.28-3.3l-4.06-.51a3.51,3.51,0,0,1-.34,1.88l0,0a1,1,0,0,1-.25.25l0,0a1.28,1.28,0,0,1-.71.21h-.53a1.09,1.09,0,0,1-1.16-1v-1.48Zm.23-5.32a1.18,1.18,0,0,1,1.24-1.13l.54,0a1.18,1.18,0,0,1,1.12,1.25l-.08,1.63H55.56Z" transform="translate(-20 -90.56)"/><path class="cls-1" d="M77.92,105.86h-.37a1.23,1.23,0,0,1-.82-.24,1.09,1.09,0,0,1-.26-.82v-.64a5.56,5.56,0,0,0-.62-2.85,2.79,2.79,0,0,0-2.3-1.19v0a3.18,3.18,0,0,0,2.32-1.37,5.37,5.37,0,0,0,.72-2.94,6.73,6.73,0,0,0-.27-1.93,3.73,3.73,0,0,0-2.39-2.53,6.29,6.29,0,0,0-2.27-.36h-5.6v0h0l-2.66-.05.35,6,.16,6-.06,6.24L69,109l-.52-7.23h1.75a1.91,1.91,0,0,1,.73.12,1,1,0,0,1,.48.41,1.94,1.94,0,0,1,.26.79,8.83,8.83,0,0,1,.08,1.26v1.21a13.14,13.14,0,0,0,.22,1.83,2.07,2.07,0,0,0,.68,1.05,2.36,2.36,0,0,0,1.19.44,14.29,14.29,0,0,0,1.76.09c.38,0,.83,0,1.24,0a12.91,12.91,0,0,0,1.38-.11Zm-6.49-7.7a2,2,0,0,1-1.65.67H68.57l-.08-4.59,1.26-.14a2.27,2.27,0,0,1,1.69.54,2.54,2.54,0,0,1,.51,1.8A2.68,2.68,0,0,1,71.43,98.16Z" transform="translate(-20 -90.56)"/><path class="cls-1" d="M119.13,96.82a2.84,2.84,0,0,0-.75-1.14,2.6,2.6,0,0,0-1.11-.6,5.63,5.63,0,0,0-1.4-.16,4.25,4.25,0,0,0-2,.47A3.23,3.23,0,0,0,112.46,97a3.38,3.38,0,0,0-1.17-1.58,3.71,3.71,0,0,0-2.14-.52,3.25,3.25,0,0,0-3.27,2h-.25l.17-1.69h-4.36v13.68h5l-.51-9a2.37,2.37,0,0,1,.25-1.24,1,1,0,0,1,.86-.38,1,1,0,0,1,.85.38,2.33,2.33,0,0,1,.26,1.24v9l4.51-.51v-8.5a4.55,4.55,0,0,1,0-.45v-.29a.9.9,0,0,1,.89-.9H114a.9.9,0,0,1,.9.9l0,.44c0,.09,0,.19,0,.3l-.14,2.41-.31,6.6,5,0V98.63A4.92,4.92,0,0,0,119.13,96.82Z" transform="translate(-20 -90.56)"/><path class="cls-1" d="M100.21,99.37a5.92,5.92,0,0,0-.74-2.29,4,4,0,0,0-1.74-1.55A7.26,7.26,0,0,0,94.58,95a6.49,6.49,0,0,0-3.06.62,4.45,4.45,0,0,0-1.76,1.63,5.88,5.88,0,0,0-.42.86,5.31,5.31,0,0,0-.45-1,4,4,0,0,0-1.75-1.55A7.21,7.21,0,0,0,84,95a6.48,6.48,0,0,0-3.06.62,4.43,4.43,0,0,0-1.76,1.63,6.18,6.18,0,0,0-.8,2.3,18.6,18.6,0,0,0-.19,2.63,22.09,22.09,0,0,0,.17,2.79,5.73,5.73,0,0,0,.74,2.27,3.87,3.87,0,0,0,1.74,1.51,7.54,7.54,0,0,0,3.15.55,6.67,6.67,0,0,0,3.07-.6,4.28,4.28,0,0,0,1.76-1.59,5.78,5.78,0,0,0,.42-.86,4.93,4.93,0,0,0,.45,1,3.85,3.85,0,0,0,1.74,1.51,7.49,7.49,0,0,0,3.15.55,6.67,6.67,0,0,0,3.06-.6,4.28,4.28,0,0,0,1.76-1.59,5.89,5.89,0,0,0,.79-2.29,17.22,17.22,0,0,0,.2-2.63A22.09,22.09,0,0,0,100.21,99.37Zm-15.79,7-.46,0a1,1,0,0,1-1.06-1L82.56,99a1,1,0,0,1,1-1.06l.46,0a1,1,0,0,1,1.06,1l.34,6.47A1,1,0,0,1,84.42,106.39Zm11.22-.93a1,1,0,0,1-1.06,1l-.46,0a1,1,0,0,1-1-1.06l.34-6.47a1,1,0,0,1,1.06-1l.46,0A1,1,0,0,1,96,99Z" transform="translate(-20 -90.56)"/><path class="cls-1" d="M130.45,102.65a3.87,3.87,0,0,0-1.23-1.26,6.1,6.1,0,0,0-1.58-.73l-1.58-.48a5.36,5.36,0,0,1-1.22-.52,1,1,0,0,1-.16-1.65,1.26,1.26,0,0,1,.85-.28,1.22,1.22,0,0,1,.91.32,1.69,1.69,0,0,1,.33,1.21l3.89-.18c0-2.85-1.7-4.11-5.11-4.11a7.91,7.91,0,0,0-2.41.33,4.8,4.8,0,0,0-1.69.91,3.66,3.66,0,0,0-1,1.35,4.22,4.22,0,0,0-.34,1.68,3.94,3.94,0,0,0,.5,2.09,4,4,0,0,0,1.22,1.28,6.92,6.92,0,0,0,1.59.76l1.58.53a5.41,5.41,0,0,1,1.23.58,1.05,1.05,0,0,1,.49.93,1,1,0,0,1-.39.86,1.48,1.48,0,0,1-.92.3,1.1,1.1,0,0,1-1-.48,1.38,1.38,0,0,1-.25-.58,3.13,3.13,0,0,1-.09-.76h0v-.11l-4-.47v.77h0a4,4,0,0,0,1.25,3.2,6,6,0,0,0,4.1,1.14,8,8,0,0,0,2.31-.3,4.58,4.58,0,0,0,1.72-.91,4.17,4.17,0,0,0,1.07-1.44,4.43,4.43,0,0,0,.38-1.85A4,4,0,0,0,130.45,102.65Z" transform="translate(-20 -90.56)"/></svg>
