<?xml version="1.0" encoding="UTF-8"?>
<svg xmlns="http://www.w3.org/2000/svg" id="Layer_1" viewBox="0 0 657.44 156.2">
  <defs>
    <style>.cls-1{fill:none;stroke:#231f20;stroke-miterlimit:10;stroke-width:0.49px;}.cls-2{fill:#231f20;}.cls-3{fill:#00a3df;}</style>
  </defs>
  <title>Artboard 1</title>
  <line class="cls-1" x1="190.92" y1="0.34" x2="190.92" y2="156.2"></line>
  <path class="cls-2" d="M140.42,100.27a4.39,4.39,0,1,1,4.27-4.38,4.12,4.12,0,0,1-4.27,4.38m0-8.26a3.87,3.87,0,1,0,3.69,3.88A3.57,3.57,0,0,0,140.42,92m1.27,6.21-1.47-2.08h-.47v2h-.83V93.31h1.47c1,0,1.72.5,1.72,1.42a1.31,1.31,0,0,1-1,1.33l1.39,2Zm-1.3-4.16h-.64V95.5h.61c.55,0,.88-.25.88-.72s-.31-.72-.86-.72"></path>
  <path class="cls-2" d="M2,120.36v-4.78H5.4v4.78H8.2v2.77H5.4v8.15c0,.77.38,1,1.23,1A7.74,7.74,0,0,0,8.2,132v2.83a22.13,22.13,0,0,1-2.7.22C3,135.05,2,133.78,2,131.72v-8.6H0v-2.77Z"></path>
  <path class="cls-2" d="M13.28,128.13c.06,3,1.39,4.15,3,4.15a3.76,3.76,0,0,0,3.18-1.73l2.48,1.56c-1.33,2.06-3.24,2.94-6,2.94-3.72,0-6-2.92-6-7.49s2.33-7.49,6.2-7.49,5.85,3.17,5.85,6.63v1.42Zm5.51-2.34c-.05-2-1.1-3.16-2.75-3.16s-2.7,1.16-2.76,3.16Z"></path>
  <path class="cls-2" d="M33,125c-.55-1.23-1.15-2.19-2.82-2.19-1.9,0-2.81,1.51-2.81,4.72s.91,4.71,2.93,4.71c1.49,0,2.34-1,3-2.29l2.59,1.47c-1.38,2.57-3.11,3.63-5.74,3.6-3.87,0-6.2-2.92-6.2-7.49s2.33-7.49,6.2-7.49a5.66,5.66,0,0,1,5.65,3.86Z"></path>
  <path class="cls-2" d="M38.47,134.78v-20h3.41v7.15A6.61,6.61,0,0,1,46,120.07c2.87,0,4.25,1.89,4.25,4.83v9.88H46.83v-9.37c0-1.95-.61-2.57-1.76-2.57a4.39,4.39,0,0,0-3.2,1.52v10.41Z"></path>
  <path class="cls-2" d="M53.76,134.78V120.36H56.9v1.54a8,8,0,0,1,4.41-1.82c2.86,0,4.23,1.89,4.23,4.83v9.88H62.13v-9.37c0-1.95-.61-2.57-1.77-2.57a4.32,4.32,0,0,0-3.18,1.52v10.41Z"></path>
  <path class="cls-2" d="M74.17,120.07c3.89,0,6.22,2.91,6.22,7.49s-2.34,7.49-6.22,7.49S68,132.14,68,127.57s2.33-7.49,6.21-7.49m0,2.77c-1.9,0-2.8,1.51-2.8,4.72s.9,4.71,2.8,4.71,2.81-1.5,2.81-4.71-.9-4.72-2.81-4.72"></path>
  <polygon class="cls-2" points="83.18 134.78 83.18 114.75 86.59 114.75 86.59 129.75 86.59 134.78 83.18 134.78"></polygon>
  <path class="cls-2" d="M95.58,120.07c3.88,0,6.22,2.91,6.22,7.49s-2.34,7.49-6.22,7.49-6.21-2.92-6.21-7.49,2.33-7.49,6.21-7.49m0,2.77c-1.9,0-2.8,1.51-2.8,4.72s.91,4.71,2.8,4.71,2.81-1.5,2.81-4.71-.91-4.72-2.81-4.72"></path>
  <path class="cls-2" d="M115.89,122.4a4.52,4.52,0,0,0-2.2.34,4.19,4.19,0,0,1,.78,2.56c0,2.71-1.83,4.65-5.4,4.65-1.48,0-2.66.05-2.66.88,0,2.33,9.41-.83,9.41,4.94,0,2-2.07,4.27-6.63,4.27-3.85,0-6.38-1.16-6.38-3.44a2.53,2.53,0,0,1,2.57-2.66v-.06c-.65-.41-2.11-.77-2.11-2.33,0-1.38,1.59-2.44,2.22-2.63a4.76,4.76,0,0,1-2.11-3.82c0-2.53,1.91-5,5.64-5a5.71,5.71,0,0,1,3.51,1.28,3.71,3.71,0,0,1,3.36-1.28Zm-10,13.76c0,1.1.94,1.6,3.8,1.6,2.2,0,3-1.1,3-1.6,0-.67-1-1.67-4.33-1.67-1.86,0-2.42,1.05-2.42,1.67M109,122.63a2.39,2.39,0,1,0,2.33,2.38,2.35,2.35,0,0,0-2.33-2.38"></path>
  <path class="cls-2" d="M118.34,117.69v-3.22h3.4v3.22Zm3.4,12.85v4.24h-3.4V120.36h3.4Z"></path>
  <path class="cls-2" d="M127.94,128.13c.05,3,1.38,4.15,3,4.15a3.82,3.82,0,0,0,3.2-1.73l2.47,1.56c-1.33,2.06-3.25,2.94-6,2.94-3.71,0-6.05-2.92-6.05-7.49s2.34-7.49,6.22-7.49,5.84,3.17,5.84,6.63v1.42Zm5.51-2.34c-.07-2-1.11-3.16-2.76-3.16s-2.7,1.16-2.75,3.16Z"></path>
  <path class="cls-2" d="M146.34,124.15a3.91,3.91,0,0,0-2.67-1.52c-1.33,0-1.92.55-1.92,1.41,0,2.47,7.15,1.4,7.15,6.69,0,3-2.26,4.33-5.26,4.33a6.3,6.3,0,0,1-5.41-2.92l2.29-1.72a4.21,4.21,0,0,0,3.33,2.08c1.21,0,2-.66,2-1.64,0-2.46-7.15-1.57-7.15-6.6,0-2.68,2.26-4.18,4.73-4.18a6.54,6.54,0,0,1,5,2.19Z"></path>
  <path class="cls-2" d="M103.39,79.53a14.33,14.33,0,0,1-12,6.79c-6.63,0-12.15-3-12.15-10.23,0-10.6,15.5-14.36,27.35-15v3.14c0,6.88-.12,10.59-3.23,15.34m-22-38.11c1.76-4.81,6.59-6.85,13.12-6.85,9.3,0,12,6.49,12.08,11.94l.06,2.6c-25.71,1.26-49.93,6-49.46,29.56.33,16.48,15.24,23.21,25.49,23.2,11.91,0,18.57-3.19,25.11-11.31a54.27,54.27,0,0,0,1.13,9.69h23A39.7,39.7,0,0,1,130.32,88V45.22c0-10.39-2-16.16-7.52-21.23-5.28-4.82-13.89-7.49-25.56-7.49-10.7,0-19.84,2.42-26.61,7.06h0A29.76,29.76,0,0,1,81.36,41.42Z"></path>
  <path class="cls-2" d="M55.83,77.76c0,.5,0,.95,0,1.47,0,.22,0,.44,0,.67A22.12,22.12,0,0,0,64.1,96.64a42.42,42.42,0,0,1-20.78,5.21C18.42,101.86,3.71,84.23,3.71,60,3.71,34.76,18.9,16.5,44.77,16.5,63.55,16.5,79,26.47,80.63,46H58.06c0-7.44-5.24-11.35-12.48-11.35C33.92,34.6,30.31,42.84,30.31,58c0,15.43,3.35,24.43,15.32,24.43,4.37,0,8.09-1.57,10.19-4.72Z"></path>
  <path class="cls-3" d="M523.57,43.62a32.15,32.15,0,1,0,32.23,32.3A32.23,32.23,0,0,0,523.57,43.62Zm0,51.91c-13.2,0-19.14-11.56-19.14-19.76S510.37,56,523.57,56c13.93,0,19.14,12.27,19.14,20C542.71,84.12,536.77,95.53,523.57,95.53Zm39.58,11.32V57.11h-9.78V44.71h22.87v62.14Z"></path>
  <path class="cls-2" d="M289.71,106.85h35.66V94.44H302.8V81.71h22.57V69.31H302.8V57.11h22.57V44.71H289.71ZM257.46,83.6,242.39,44.71H228.27l25,62.14h8.23l24.93-62.14H272.52S260.76,75,257.46,83.6ZM398,44.71l-22.41,59.6L361.74,84.83c6.13-1.53,14.53-6.48,14.53-19.38,0-6-2.25-11.68-6-15.28-4-3.78-9.2-5.46-16.91-5.46H333.22v62.14h13.09V85l15.51,21.83h26.48s2.9-7.73,4.84-12.86h20.43l4.84,12.86h14L408.79,44.71ZM349.71,74.34h-3.39V57.11h6.49c7.65,0,10.37,4.31,10.37,8.35C363.17,67.65,363.17,74.34,349.71,74.34ZM397.5,82c2.15-6.06,4.92-13.87,5.92-16.84L409.28,82Z"></path>
  <path class="cls-2" d="M657.44,57.11V44.71H621.77v62.14h35.67V94.44H634.86V81.71h22.58V69.31H634.86V57.11Z"></path>
  <path class="cls-2" d="M459.75,56c8,0,12.52,5.16,14.23,7.1l.85,1h15.23l-2.12-3.68a31,31,0,0,0-9.43-10.76,33.12,33.12,0,0,0-18.91-6,32,32,0,0,0-31.92,31.92c0,17.86,14.28,32.38,31.84,32.38a32,32,0,0,0,28.12-16.49l2-3.52H474.18l-.71.84a18.4,18.4,0,0,1-13.88,6.77c-10.2,0-18.83-9.11-18.83-19.91S449.28,56,459.75,56Z"></path>
  <path class="cls-2" d="M584.87,44.71h-3.39v12.4h3.32c14.73,0,18.67,11.84,18.67,18.81,0,16.72-13.16,18.52-18.83,18.52h-3.16v12.4h3.09c10.22,0,17.89-2.86,24.08-9,4.74-4.65,7.92-13.46,7.92-21.94a35.09,35.09,0,0,0-6.33-19.67C604.66,48.59,596.12,44.71,584.87,44.71Z"></path>
</svg>
