<?xml version="1.0" encoding="UTF-8"?>
<svg preserveAspectRatio="xMinYMin" viewBox="0 0 3717 725" version="1.1" xmlns="http://www.w3.org/2000/svg" xmlns:xlink="http://www.w3.org/1999/xlink">
    <!-- Generator: Sketch 44 (41411) - http://www.bohemiancoding.com/sketch -->
    <title>M&amp;N (1)</title>
    <desc>Created with Sketch.</desc>
    <defs></defs>
    <g id="Page-1" stroke="none" stroke-width="1" fill="none" fill-rule="evenodd">
        <g id="M&amp;N-(1)">
            <path d="M4,393 L3713,393 C3715,393 3717,395 3717,397 L3717,406 C3717,408 3715,411 3713,411 L4,411 C2,411 0,408 0,406 L0,397 C0,395 2,393 4,393 Z" id="Shape" fill="#A9C1D9"></path>
            <path d="M13,663 L3713,663 C3715,663 3717,665 3717,668 L3717,676 C3717,679 3715,681 3713,681 L13,681 C10,681 8,679 8,676 L8,668 C8,665 10,663 13,663 Z" id="Shape" fill="#A9C1D9"></path>
            <path d="M13,707 L3713,707 C3715,707 3717,709 3717,712 L3717,720 C3717,723 3715,725 3713,725 L13,725 C10,725 8,723 8,720 L8,712 C8,709 10,707 13,707 Z" id="Shape" fill="#A9C1D9"></path>
            <path d="M1995,162 L1995,152 L1995,152 L1995,152 L1995,93 C1995,86 2000,81 2006,80 C2009,79 2013,79 2018,78 C2022,78 2026,78 2031,78 C2036,78 2040,78 2044,78 C2048,79 2052,79 2056,80 C2062,81 2067,87 2067,93 L2067,93 L2067,152 C2067,152 2067,153 2067,153 L2066,162 L2076,161 L2076,161 L2076,161 L2131,161 C2137,161 2143,166 2144,173 C2145,176 2145,180 2145,184 C2146,188 2146,192 2146,197 C2146,201 2146,205 2145,209 C2145,214 2144,217 2144,220 C2142,227 2137,231 2131,231 L2131,231 L2076,231 C2076,231 2075,231 2075,231 L2066,231 L2067,240 L2067,240 L2067,240 L2067,299 C2067,306 2061,312 2055,313 C2051,313 2048,314 2044,314 L2044,314 C2040,314 2035,315 2031,315 C2026,315 2022,314 2018,314 C2013,314 2009,313 2006,312 C1999,311 1995,305 1995,299 L1995,299 L1995,240 C1995,239 1995,239 1995,238 L1995,231 L1985,231 L1985,231 L1985,231 L1931,231 C1924,231 1918,226 1917,220 C1917,217 1916,213 1916,209 C1916,205 1915,201 1915,197 C1915,192 1915,188 1916,184 C1916,180 1917,176 1918,172 C1919,166 1924,161 1931,161 L1931,161 L1985,161 C1986,161 1986,161 1987,161 L1995,162 Z" id="Shape" fill="#A9C1D9"></path>
            <path d="M1,346 C8,348 18,349 26,349 C34,349 42,348 49,347 L61,176 C62,150 63,108 64,80 L67,80 L132,300 C140,301 150,302 158,302 C165,302 176,301 184,300 L249,80 L252,80 C252,108 254,150 256,176 L266,347 C274,348 281,349 289,349 C297,349 308,348 315,346 L290,25 C277,23 264,23 256,23 C247,23 236,23 223,25 L178,174 C174,189 161,236 160,249 L157,249 C154,236 142,189 138,174 L92,25 C82,23 69,23 61,23 C53,23 38,23 26,25 L1,346 Z M511,206 C518,207 524,208 532,208 C549,208 557,197 557,180 C557,148 528,109 470,109 C421,109 371,146 371,234 C371,299 400,356 468,356 C502,356 533,342 554,321 C552,310 542,297 533,292 C517,304 498,315 476,315 C441,315 422,291 422,234 C422,176 440,147 470,147 C504,147 512,175 511,206 Z M850,336 C839,328 835,318 828,302 L803,233 C790,201 777,181 745,175 C752,169 759,160 764,151 L836,29 L833,25 C823,24 812,24 804,24 C787,24 781,30 773,44 L712,147 C707,157 704,160 694,160 L668,161 L668,25 C660,24 650,23 642,23 C635,23 625,24 617,25 L617,350 C625,351 635,352 642,352 C650,352 660,351 668,350 L668,205 C683,204 693,204 700,204 C728,204 743,217 757,252 L782,322 C790,342 796,353 816,353 C828,353 843,347 850,336 Z M1061,248 C1063,235 1064,226 1064,210 C1064,154 1031,109 970,109 C904,109 870,162 870,233 C870,297 893,356 968,356 C1002,356 1035,345 1058,329 C1056,319 1050,305 1042,298 C1022,308 1000,316 976,316 C935,316 923,287 921,248 L1061,248 Z M969,145 C1003,145 1017,173 1017,206 L1017,212 L921,212 C923,170 939,145 969,145 Z M1111,138 C1119,145 1129,161 1129,187 L1129,350 C1135,351 1144,352 1153,352 C1162,352 1171,351 1177,350 L1177,195 C1187,175 1203,159 1228,159 C1235,159 1242,159 1248,161 C1256,147 1260,128 1260,114 C1251,112 1243,112 1235,112 C1203,112 1183,130 1172,154 C1166,131 1151,116 1129,112 C1121,117 1113,129 1111,138 Z M1365,313 C1352,313 1347,306 1347,292 L1347,32 C1347,10 1341,0 1320,0 L1302,0 L1298,3 L1298,303 C1298,335 1314,352 1345,352 C1358,352 1375,350 1386,348 C1387,345 1387,341 1387,338 C1387,329 1385,320 1383,313 L1365,313 Z M1608,248 C1611,235 1612,226 1612,210 C1612,154 1579,109 1517,109 C1451,109 1418,162 1418,233 C1418,297 1441,356 1516,356 C1549,356 1583,345 1605,329 C1603,319 1598,305 1590,298 C1570,308 1547,316 1524,316 C1483,316 1470,287 1468,248 L1608,248 Z M1517,145 C1551,145 1565,173 1565,206 L1565,212 L1468,212 C1471,170 1487,145 1517,145 Z M1846,119 L1844,116 C1836,114 1827,113 1818,113 C1812,113 1804,113 1797,115 L1745,316 C1743,316 1742,315 1741,313 C1737,295 1730,265 1723,243 L1691,133 C1686,116 1678,112 1666,112 C1658,112 1648,114 1636,119 L1699,326 C1705,346 1716,352 1736,352 L1734,358 C1723,394 1709,417 1677,417 C1664,417 1650,413 1642,411 C1635,418 1630,434 1631,446 C1641,450 1662,453 1677,453 C1740,453 1762,414 1783,342 L1846,119 Z M2442,23 L2426,23 C2405,23 2398,32 2398,54 L2398,173 C2398,206 2400,255 2402,293 L2400,293 C2391,274 2381,249 2369,224 L2269,25 C2259,24 2245,23 2238,23 C2232,23 2216,24 2208,25 L2208,350 C2216,351 2225,352 2232,352 C2239,352 2247,351 2255,350 L2255,201 C2255,166 2253,118 2251,85 L2253,84 C2262,104 2272,127 2283,150 L2384,350 C2394,351 2408,352 2415,352 C2421,352 2437,351 2445,349 L2445,25 L2442,23 Z M2715,232 C2715,193 2706,160 2681,135 C2663,117 2640,109 2612,109 C2584,109 2561,117 2543,135 C2518,160 2509,193 2509,232 C2509,272 2518,305 2543,330 C2561,347 2584,356 2612,356 C2640,356 2663,347 2681,330 C2706,305 2715,272 2715,232 Z M2560,232 C2560,189 2571,146 2612,146 C2653,146 2664,189 2664,232 C2664,276 2653,318 2612,318 C2571,318 2560,276 2560,232 Z M2962,232 C2962,193 2953,160 2928,135 C2911,117 2887,109 2859,109 C2831,109 2808,117 2790,135 C2765,160 2757,193 2757,232 C2757,272 2765,305 2790,330 C2808,347 2831,356 2859,356 C2887,356 2911,347 2928,330 C2953,305 2962,272 2962,232 Z M2807,232 C2807,189 2818,146 2859,146 C2900,146 2912,189 2912,232 C2912,276 2900,318 2859,318 C2818,318 2807,276 2807,232 Z M3207,189 C3207,145 3189,111 3144,111 C3115,111 3089,124 3068,142 C3067,124 3060,113 3041,113 L3023,113 L3020,116 L3020,350 C3027,351 3036,352 3045,352 C3053,352 3062,351 3069,350 L3069,185 C3086,166 3110,155 3129,155 C3152,155 3158,169 3158,201 L3158,322 C3158,342 3165,353 3184,353 C3196,353 3208,348 3215,343 C3209,331 3207,316 3207,299 L3207,189 Z M3462,328 C3451,318 3448,305 3448,287 L3448,189 C3448,135 3417,110 3370,110 C3338,110 3299,120 3272,132 C3272,144 3278,160 3286,168 C3311,158 3337,150 3361,150 C3386,150 3400,162 3400,192 L3400,210 C3384,208 3367,207 3354,207 C3302,207 3263,232 3263,286 C3263,320 3286,356 3333,356 C3364,356 3388,340 3405,324 C3411,338 3424,349 3443,353 C3451,348 3459,337 3462,328 Z M3344,317 C3323,317 3312,302 3312,282 C3312,257 3328,241 3357,241 C3370,241 3386,242 3400,243 L3400,288 C3383,307 3362,317 3344,317 Z M3708,189 C3708,145 3689,111 3645,111 C3616,111 3590,124 3569,142 C3568,124 3561,113 3542,113 L3523,113 L3521,116 L3521,350 C3528,351 3536,352 3545,352 C3554,352 3563,351 3570,350 L3570,185 C3586,166 3610,155 3629,155 C3652,155 3659,169 3659,201 L3659,322 C3659,342 3666,353 3685,353 C3697,353 3709,348 3716,343 C3710,331 3708,316 3708,299 L3708,189 Z" id="Shape" fill="#000066" fill-rule="nonzero"></path>
            <path d="M89,514 C92,514 93,515 96,515 C103,515 105,510 105,505 C105,486 86,466 56,466 C27,466 1,489 1,540 C1,578 16,613 54,613 C74,613 92,605 103,593 C102,590 98,585 94,583 C81,594 68,599 56,599 C32,599 18,578 18,540 C18,500 32,479 56,479 C81,479 89,499 89,514 Z M244,597 L187,597 C182,597 178,597 174,597 C174,595 174,592 174,589 L174,545 C179,546 183,546 187,546 L230,546 C230,543 231,541 231,539 C231,537 230,534 230,532 L187,532 C183,532 179,532 174,532 L174,495 C174,490 174,488 174,482 C179,482 183,482 187,482 L240,482 C241,480 241,477 241,475 C241,473 241,471 241,468 L160,468 L159,470 L159,601 C159,607 162,611 168,611 L233,611 C239,611 243,609 244,604 C244,601 244,598 244,597 Z M389,509 C389,483 372,468 343,468 C330,468 316,468 301,468 L300,470 L300,611 C302,611 305,612 308,612 C311,612 313,611 316,611 L316,551 L337,551 C351,551 356,559 360,570 L373,602 C375,608 378,612 384,612 C388,612 393,611 395,607 C390,603 388,597 386,592 L375,564 C372,556 368,549 361,547 C378,542 389,528 389,509 Z M316,481 C323,481 336,481 343,481 C366,481 372,496 372,509 C372,522 366,537 343,537 C335,537 325,537 316,538 L316,481 Z M466,611 C468,611 471,612 474,612 C477,612 480,611 482,611 L482,482 C485,482 491,482 493,482 L511,482 C518,482 521,480 521,475 C521,473 521,470 520,468 L428,468 C427,471 427,473 427,475 C427,477 427,480 428,482 L455,482 C457,482 463,482 466,482 L466,611 Z M569,611 C571,611 574,612 577,612 C580,612 583,611 585,611 L585,468 C583,468 580,468 577,468 C574,468 571,468 569,468 L569,611 Z M667,611 L667,545 C671,546 675,546 678,546 L721,546 C722,543 722,541 722,539 C722,537 722,534 721,532 L678,532 C675,532 671,532 667,532 L667,511 C667,501 667,492 667,482 C673,482 681,482 690,482 L723,482 C729,482 733,480 733,475 C733,473 732,470 731,468 L652,468 L651,470 L651,611 C653,611 656,612 659,612 C662,612 665,611 667,611 Z M783,611 C785,611 788,612 791,612 C794,612 796,611 799,611 L799,468 C796,468 794,468 791,468 C788,468 785,468 783,468 L783,611 Z M950,597 L893,597 C887,597 883,597 880,597 C880,595 880,592 880,589 L880,545 C885,546 889,546 892,546 L936,546 C936,543 936,541 936,539 C936,537 936,534 936,532 L892,532 C889,532 885,532 880,532 L880,495 C880,490 880,488 880,482 C884,482 889,482 892,482 L946,482 C947,480 947,477 947,475 C947,473 947,471 946,468 L866,468 L865,470 L865,601 C865,607 868,611 873,611 L939,611 C945,611 948,609 949,604 C950,601 950,598 950,597 Z M1106,540 C1106,516 1102,494 1084,478 C1076,471 1060,468 1049,468 C1033,468 1025,468 1007,468 L1006,470 L1006,610 L1007,611 C1025,611 1033,612 1049,612 C1060,612 1076,609 1084,601 C1103,586 1106,564 1106,540 Z M1089,540 C1089,567 1084,598 1049,598 C1039,598 1032,598 1022,598 L1022,481 C1032,481 1039,481 1049,481 C1084,481 1089,513 1089,540 Z M1341,512 C1341,483 1322,468 1295,468 C1282,468 1270,468 1256,468 L1254,470 L1254,611 C1256,611 1259,612 1262,612 C1265,612 1268,611 1270,611 L1270,557 L1295,557 C1323,557 1341,542 1341,512 Z M1270,481 C1278,481 1289,481 1296,481 C1319,481 1324,498 1324,512 C1324,526 1319,544 1296,544 C1290,544 1279,544 1270,544 L1270,481 Z M1493,468 C1491,468 1488,468 1485,468 C1482,468 1480,468 1477,468 L1477,562 C1477,587 1465,600 1443,600 C1421,600 1408,587 1408,562 L1408,478 C1408,471 1407,468 1400,468 L1394,468 L1392,469 L1392,562 C1392,596 1413,613 1443,613 C1472,613 1493,596 1493,562 L1493,468 Z M1558,468 L1557,470 L1557,610 L1558,611 C1572,611 1583,612 1601,612 C1637,612 1649,592 1649,572 C1649,553 1636,539 1622,535 C1635,530 1642,519 1642,505 C1642,483 1630,468 1599,468 C1585,468 1572,468 1558,468 Z M1600,543 C1626,543 1632,559 1632,570 C1632,582 1628,598 1602,598 C1592,598 1582,598 1572,598 L1572,543 L1600,543 Z M1572,481 C1580,481 1592,481 1599,481 C1622,481 1626,494 1626,505 C1626,516 1621,529 1598,529 L1572,529 L1572,481 Z M1739,597 C1734,597 1728,597 1721,597 L1721,478 C1721,471 1720,468 1713,468 L1707,468 L1705,469 L1705,600 C1705,607 1710,611 1715,611 L1773,611 C1779,611 1782,609 1783,604 C1784,601 1784,598 1784,597 L1739,597 Z M1836,611 C1837,611 1841,612 1843,612 C1846,612 1849,611 1851,611 L1851,468 C1849,468 1846,468 1843,468 C1841,468 1837,468 1836,468 L1836,611 Z M1996,514 C1999,514 2000,515 2003,515 C2010,515 2012,510 2012,505 C2012,486 1994,466 1963,466 C1934,466 1908,489 1908,540 C1908,578 1923,613 1961,613 C1981,613 1999,605 2010,593 C2009,590 2005,585 2001,583 C1988,594 1975,599 1963,599 C1940,599 1925,578 1925,540 C1925,500 1939,479 1963,479 C1988,479 1996,499 1996,514 Z M2185,574 L2213,574 C2214,574 2224,574 2227,574 L2237,603 C2239,610 2242,611 2247,611 C2251,611 2254,611 2256,609 L2208,468 C2206,468 2202,468 2200,468 C2197,468 2193,468 2190,468 L2143,609 L2143,610 C2146,610 2148,611 2151,611 C2153,611 2156,611 2158,610 L2170,574 C2173,574 2183,574 2185,574 Z M2191,511 C2193,505 2196,494 2198,486 L2199,486 C2201,495 2206,508 2210,521 L2223,560 C2219,560 2212,560 2211,560 L2187,560 C2185,560 2178,560 2175,560 L2191,511 Z M2382,514 C2385,514 2386,515 2389,515 C2396,515 2398,510 2398,505 C2398,486 2379,466 2349,466 C2320,466 2294,489 2294,540 C2294,578 2309,613 2347,613 C2367,613 2385,605 2396,593 C2395,590 2391,585 2387,583 C2374,594 2361,599 2349,599 C2325,599 2311,578 2311,540 C2311,500 2325,479 2349,479 C2374,479 2382,499 2382,514 Z M2529,514 C2532,514 2533,515 2536,515 C2543,515 2545,510 2545,505 C2545,486 2527,466 2496,466 C2467,466 2441,489 2441,540 C2441,578 2456,613 2494,613 C2514,613 2532,605 2543,593 C2542,590 2538,585 2534,583 C2521,594 2508,599 2496,599 C2473,599 2458,578 2458,540 C2458,500 2472,479 2496,479 C2521,479 2529,499 2529,514 Z M2605,540 C2605,512 2613,479 2645,479 C2677,479 2684,512 2684,540 C2684,567 2677,600 2645,600 C2613,600 2605,567 2605,540 Z M2589,540 C2589,563 2595,587 2611,601 C2619,609 2629,613 2645,613 C2660,613 2671,609 2679,601 C2695,587 2701,563 2701,540 C2701,517 2695,492 2679,478 C2671,471 2660,466 2645,466 C2629,466 2619,471 2611,478 C2595,492 2589,517 2589,540 Z M2857,468 C2854,468 2852,468 2848,468 C2846,468 2843,468 2841,468 L2841,562 C2841,587 2828,600 2806,600 C2784,600 2771,587 2771,562 L2771,478 C2771,471 2770,468 2763,468 L2757,468 L2756,469 L2756,562 C2756,596 2776,613 2806,613 C2836,613 2857,596 2857,562 L2857,468 Z M3018,468 L3012,468 C3005,468 3004,471 3004,478 L3004,545 C3004,559 3004,577 3005,592 L3005,592 C3000,583 2995,573 2990,563 L2939,468 C2937,468 2932,468 2929,468 C2928,468 2922,468 2920,468 L2920,611 C2922,611 2925,612 2927,612 C2929,612 2932,611 2935,611 L2935,533 C2935,518 2934,501 2933,488 L2934,488 C2938,497 2943,506 2948,516 L2999,611 C3002,611 3007,612 3009,612 C3011,612 3016,611 3019,611 L3019,469 L3018,468 Z M3105,611 C3108,611 3111,612 3113,612 C3116,612 3119,611 3121,611 L3121,482 C3124,482 3130,482 3133,482 L3151,482 C3157,482 3160,480 3160,475 C3160,473 3160,470 3159,468 L3067,468 C3067,471 3067,473 3067,475 C3067,477 3067,480 3067,482 L3094,482 C3097,482 3103,482 3105,482 L3105,611 Z M3222,574 L3250,574 C3251,574 3261,574 3264,574 L3274,603 C3276,610 3279,611 3284,611 C3287,611 3291,611 3293,609 L3245,468 C3243,468 3239,468 3237,468 C3234,468 3230,468 3227,468 L3180,609 L3180,610 C3183,610 3185,611 3188,611 C3190,611 3193,611 3195,610 L3207,574 C3210,574 3220,574 3222,574 Z M3228,511 C3230,505 3233,494 3235,486 L3236,486 C3238,495 3243,508 3247,521 L3260,560 C3256,560 3249,560 3248,560 L3224,560 C3222,560 3215,560 3212,560 L3228,511 Z M3441,468 L3435,468 C3428,468 3427,471 3427,478 L3427,545 C3427,559 3427,577 3428,592 L3428,592 C3423,583 3418,573 3413,563 L3362,468 C3360,468 3355,468 3352,468 C3351,468 3345,468 3343,468 L3343,611 C3345,611 3348,612 3350,612 C3352,612 3355,611 3358,611 L3358,533 C3358,518 3357,501 3356,488 L3357,488 C3361,497 3366,506 3371,516 L3422,611 C3425,611 3430,612 3432,612 C3434,612 3439,611 3442,611 L3442,469 L3441,468 Z M3528,611 C3531,611 3534,612 3536,612 C3539,612 3542,611 3544,611 L3544,482 C3547,482 3553,482 3556,482 L3574,482 C3580,482 3583,480 3583,475 C3583,473 3583,470 3582,468 L3490,468 C3490,471 3490,473 3490,475 C3490,477 3490,480 3490,482 L3517,482 C3520,482 3526,482 3528,482 L3528,611 Z M3618,598 C3631,607 3649,613 3667,613 C3700,613 3716,597 3716,573 C3716,554 3701,542 3685,535 L3661,525 C3650,520 3641,514 3641,503 C3641,489 3653,479 3671,479 C3681,479 3694,484 3705,489 C3709,486 3712,481 3712,476 C3701,471 3686,466 3670,466 C3642,466 3625,484 3625,505 C3625,521 3635,532 3653,540 L3677,550 C3690,556 3700,564 3699,577 C3699,591 3687,599 3667,599 C3654,599 3638,593 3626,585 C3622,588 3619,593 3618,598 Z" id="Shape" fill="#000066" fill-rule="nonzero"></path>
        </g>
    </g>
</svg>
