<svg id="Layer_1" data-name="Layer 1" xmlns="http://www.w3.org/2000/svg" viewBox="0 0 160 105.59"><defs><style>.cls-1{fill:#87898b;}.cls-2{fill:#1467a3;}</style></defs><title>medtronic</title><path class="cls-1" d="M130.24,73.76a21.71,21.71,0,0,1-.26,2.39c0,.39.13.78.13,1.49A2.14,2.14,0,0,1,128,80c-.71,0-1.29-.45-2.33-.45a1.25,1.25,0,0,0-.45.06,25.93,25.93,0,0,1-7.75,14.35,1.11,1.11,0,0,0,.77.39,9.83,9.83,0,0,0,1.94.32c.19,0,.45-.06.9-.06.71-.06,1.81-.32,2.33,1.1s-.77,2-1.29,2.2A19.18,19.18,0,0,1,119.52,99a12.87,12.87,0,0,1-2.26.52c-.39.13-.91.52-1.55.71a1.78,1.78,0,0,1-2.58-1.1,16.43,16.43,0,0,1-.32-1.74,25.26,25.26,0,0,1-12.8,3.43h-.26A2.88,2.88,0,0,0,101.1,102c.58.26,1.55,1,1.94,1.1s1.36.32,1.49.39a.37.37,0,0,1-.06.71c-.84,0-2.84.19-3.3.19-1.1,0-1.62-.32-2.46-.32-.52,0-.65.13-1.29.13s-.9-.45-.9-.78A12,12,0,0,0,97,101l-.06-.32a25.61,25.61,0,0,1-22-20.36c-2.52-.26-4.2-1.62-4.2-4.65a4.39,4.39,0,0,1,4.07-4.72,26,26,0,0,1,3.81-9.82c-2.2-2.26-1.23-4.65.19-6.07a5.07,5.07,0,0,1,3.49-1.75,5.41,5.41,0,0,1,2.78,1l.06.06A24.88,24.88,0,0,1,96,49.85c.19-1.62,1.16-2.65,3.23-2.65,2.84,0,3.36,1.74,3.36,2.07a1.69,1.69,0,0,0,.13.45,25.51,25.51,0,0,1,22.81,23.2,2.69,2.69,0,0,0,.45-.71,2.4,2.4,0,0,0,.58-1.36c.19-.58.45-1.94,1.81-1.94s1.75,1.42,1.75,2,.13,1.62.13,2.84Zm-27.85,5.75-.26-.52a8.26,8.26,0,0,0-1.68-2.46c-.06,0-.19-.32-.19-1.55.06-.65.06-1.36.13-1.94s.06-1.29.06-1.81a10.22,10.22,0,0,0-.13-2,11.32,11.32,0,0,1-.13-2.2,13.78,13.78,0,0,0-.19-2.46V64.2a9,9,0,0,1,.13-1.42,9.75,9.75,0,0,0,.13-1.49,2.71,2.71,0,0,0-1.55-2.84l-.06-.06s-.45-.06-.58.13a.42.42,0,0,0,.13.58c1,.65,1.23.84,1.23,2.2a8,8,0,0,1-.13,1.36,9.91,9.91,0,0,0-.13,1.55c0,.13.06.32.06.52A14.44,14.44,0,0,1,99.35,67a7.28,7.28,0,0,0,.19,2.33,9,9,0,0,1,.13,1.87c0,.45-.06,1.1-.06,1.74a19.45,19.45,0,0,0-.13,2c-.06,1.23.06,1.81.39,2.13A6.38,6.38,0,0,1,101,78.67a.38.38,0,0,0-.52,0c-.39.26-.26.78.07,1.81a5.35,5.35,0,0,1,.39,1.81,1.93,1.93,0,0,1-1-.32,6.3,6.3,0,0,1-1-2,5,5,0,0,1-.13-1.55.37.37,0,0,0-.39-.39.32.32,0,0,0-.39.32,5.21,5.21,0,0,0,.13,1.87,7.43,7.43,0,0,0,1.23,2.33,2.65,2.65,0,0,0,1.68.58.89.89,0,0,0,.52-.32c.26-.45.06-1.23-.32-2.52l-.13-.58.58.32a.39.39,0,0,0,.52,0,.48.48,0,0,0,.07-.52Zm-6.2-28a23.65,23.65,0,0,0-9.63,3.75c1.1.78,1,1.42,1,1.62a3.09,3.09,0,0,1,.77,1.74,2.23,2.23,0,0,1-.45,1.36l.26.39c4.91.65,4.78,1.23,7.11,2.91a13.8,13.8,0,0,1-.26-3c0-2.78,2.07-4.39,2.07-6.07A5.83,5.83,0,0,0,96.19,51.47ZM79.9,56.12c-1.23,1.29-1.42,3,0,4.07s2.26.52,3.23,1.74c2,2.52-.39,4,5,7.43l2.26,1.42c1.42.84,2,.84,2.52,1.23,1.16.77,1.16,1.36,2.58,2.39v.06c.06-1.49.65-1.74,1-2.78l-.13-.06a8.42,8.42,0,0,1-1.87-1.55L94,69.56a7.69,7.69,0,0,0-.78-.52,9,9,0,0,1-1.42-1l-.65-.65c-.65-.77-1.74-2.07-2.52-2.07a1.88,1.88,0,0,0-.9.19.75.75,0,0,1-1-.32.71.71,0,0,1,.32-1,2.91,2.91,0,0,1,1.62-.39c1.49,0,2.78,1.49,3.75,2.58.19.19.39.45.52.58a12.13,12.13,0,0,0,1.16.78A5.43,5.43,0,0,1,95.61,69c.39.32.71.71,1.23,1.1a3.44,3.44,0,0,0,.06-.84,20.6,20.6,0,0,0-1.1-3.81,7.27,7.27,0,0,1-2.39-1.55C91.47,62,90,62.39,87.79,61.94c-1.1-.26-1-.78-1.55-1.49a8.91,8.91,0,0,1-1.29.52.54.54,0,0,1-.71-.26.58.58,0,0,1,.32-.71,9.63,9.63,0,0,0,2.13-1.1c.45-.45-.26-1-.58-1.29s0-.65-.19-.84-.71,0-1.36-.65c-1.36-1.23-2.91-1.88-4.65,0Zm-.06,5.94a24.77,24.77,0,0,0-3.49,8.53,1.54,1.54,0,0,1,.77-.19,1.73,1.73,0,0,1,1.29.52c1.23.26,2.13.39,2.33,2l.45.13c2.65-1.75,3.68-2.58,5.82-2.58-5-3.68-3.81-5.95-5-7.37-.45-.58-1.42-.64-2.2-1Zm-7.5,13.57c0,1.94.9,3,2.52,3,2.13,0,1.81-1,3.75-1s2.46,2.2,6.27,2.2c4.33,0,7.24-1.68,8.59-1.68a33.9,33.9,0,0,0,3.55.39c-.32-.52-1-.78-1.36-2.13-2.71-1.62-2.52-2.26-3.88-3.3-.58-.39-1.1-.45-2.52-1.23l-2.07.19c-3.55.26-4.39,2.71-6.07,2.71-.58,0-.13-.19-1.1-.19-.52,0-1.16-.06-1.16-.52,0-.26.26-.45.26-1s-.84-.52-1.29-.58c-.65,0-.45-.45-.71-.45-.45,0-.58.45-1.49.45-1.81,0-3.3.65-3.3,3.17ZM95.8,93.28c0-2.65,1.42-3.42,1.42-7.5A24.75,24.75,0,0,1,97,82.55c0-.78.06-1.68.13-2.33a33.55,33.55,0,0,1-3.62-.39c-1.36,0-4.26,1.62-8.59,1.62-3.62,0-5-2.2-6.27-2.2a7.47,7.47,0,0,0-2.2.78A24,24,0,0,0,96.71,99a42.43,42.43,0,0,1-.91-5.75Zm4.2,6a24.24,24.24,0,0,0,12.34-3.42c-.77-2.13-2.91-3.75-3.75-6-1.62-4.39-.19-5-1.75-5.69A16.54,16.54,0,0,1,103,82.1c-.58,2.07-1.62,4.46-1.62,5.56,0,.52-1.42,2.78-1.42,5.56,0,1.68-.52,3.49-.58,6l.58.06Zm18.16-3.42a4,4,0,0,1-2.84-2.46A47.86,47.86,0,0,1,113.51,88a9.27,9.27,0,0,1-.58-3.55,4.88,4.88,0,0,0-2.13-4.14c-3.1-3.3-1.36-2.71-7.5-6.27v.13c-.06,1,.13,3.94.13,5.62a2.63,2.63,0,0,1-.06.71,20.69,20.69,0,0,0,4.27,2.33c2.39,1.1,1,2.58,2.46,6.46.84,2.26,2.91,3.94,3.68,6,1,2.58.32,3.62,1,3.62s1-.52,1.87-.78c1.36-.39.45.39,5.1-1.74.32-.13.32-.32-.13-.32a8.11,8.11,0,0,1-3.49-.19Zm-1.55-3.3a23.65,23.65,0,0,0,7-12.73,56,56,0,0,1-5.75.84c-2.52,0-4-1.36-5.75-1.36A6.83,6.83,0,0,1,114.41,84a8.4,8.4,0,0,0,.65,3.55C115.51,89.21,116.16,91.41,116.61,92.57Zm7.24-18.42c.06,0,.13.06.19,0a24,24,0,0,0-21.13-22.81,3.29,3.29,0,0,1,.45,1c.06.32-.26.19-.39.39s0,.32-.06.45a1.33,1.33,0,0,1-.19.71c-.06.32.13.78-.64.78a5,5,0,0,1-2.2-.9c-.26-.13-.45-.13-.58.06s-.06.39.13.52a5.8,5.8,0,0,0,1.55.78c-.19,1.62-.32,1-.32,1.49,0,1.16,1.62,1.55,2.58,4.85a21.31,21.31,0,0,1,.32,2.58,27.79,27.79,0,0,1,.39,3.81c0,1,0,1.74-.06,2.39a20.57,20.57,0,0,1,7.88,1.81,10.23,10.23,0,0,1,1.48.26,12,12,0,0,0,2.07.78c3,.84,1.1.06,4.85.65a24.34,24.34,0,0,0,3.68.39Zm-20.1-1.62a23.9,23.9,0,0,1,7,5c3,0,5.23,1.55,6.91,1.55S124.1,78,125.78,78a23.08,23.08,0,0,1,2.39.39c.39,0,.26-.9.26-1.81s.39-1.94.39-2.84-.26-2.58-.26-2.84-.26-.13-.39.26-1.23,4.52-4.07,4.52a30,30,0,0,1-5.56-.52c-.78-.13-2.33.19-4-.52a15.13,15.13,0,0,0-1.68-.78,6.47,6.47,0,0,1-1.55-.26,22.47,22.47,0,0,0-7.56-1.81v.78h0Z" transform="translate(-20 -47.2)"/><path class="cls-2" d="M48.18,149c-.13,0-.13.06-.19.19-.65.84-1.29.84-2.33.84s-1.36,0-1-.71l1.74-4.2c.32-.84.52-.77,1.23-.84a.14.14,0,0,0,.13-.13.06.06,0,0,0-.06-.06H45a.06.06,0,0,0-.06.06c-.06.06-.06.13.06.13l.39.06c.39.06.26.45.13.71s-1.62,3.81-1.87,4.39-.45.58-1,.65c-.06,0-.52.06-.52.13s.45.13.52.13h4.91a4.91,4.91,0,0,0,.78-1.23A.13.13,0,0,0,48.18,149Zm106.75-2.65c-1.1,0-2.33,1.29-2.91,1.94-.06,0,0-.13,0-.13s.06-.06,2.2-4.65l-.06-.06c-.32.06-1,.13-1.23.19s-.13.07-.13.13.32.13.32.32a.64.64,0,0,1-.13.39c-.13.32-2.26,5-2.52,5.56-.06.13-.06.26.13.32s.32,0,.39-.13c1.87-2.91,3.23-3.42,3.55-3.42a.21.21,0,0,1,.19.19c0,.45-1,3-1.36,3s-.32-.2-.52-.2a.35.35,0,0,0-.32.32c0,.13.19.26.39.26,1.23,0,2.58-2.52,2.58-3.36,0-.39-.13-.65-.58-.65ZM35.64,147a.63.63,0,0,0-.58-.58,3.77,3.77,0,0,0-3.23,3c0,.32.13,1,.78,1a2.56,2.56,0,0,0,1.87-.84c.06-.06.06-.13,0-.13a.12.12,0,0,0-.19,0c-.26.13-.65.52-1.1.52a.51.51,0,0,1-.52-.5s0,0,0,0a2.84,2.84,0,0,1,.19-.9C33.83,148.34,35.64,147.88,35.64,147Zm-.84-.26c.06,0,.19.06.19.13,0,.65-1.29,1.29-2,1.42.32-.58,1.1-1.55,1.81-1.55ZM57,146.4a3.7,3.7,0,0,0-3.17,3c0,.26.13,1,.78,1a2.52,2.52,0,0,0,1.81-.84.24.24,0,0,0,.06-.19.5.5,0,0,0-.26.06,1.94,1.94,0,0,1-1.1.45.44.44,0,0,1-.45-.43s0,0,0,0a2.84,2.84,0,0,1,.19-.9c1-.26,2.78-.65,2.78-1.62a.59.59,0,0,0-.65-.52Zm-2,1.87c.32-.58,1.1-1.55,1.75-1.55.13,0,.26.06.26.13C57,147.5,55.67,148.14,55,148.27Zm15.19,1.16a.12.12,0,0,0-.19,0,2.43,2.43,0,0,1-1.16.45.44.44,0,0,1-.45-.43s0,0,0,0a2.84,2.84,0,0,1,.19-.9c1-.26,2.78-.65,2.78-1.55a.64.64,0,0,0-.65-.58,3.7,3.7,0,0,0-3.17,3c0,.32.13,1,.78,1a2.52,2.52,0,0,0,1.81-.84.21.21,0,0,0,.06-.13Zm.26-2.71c.13,0,.26.06.26.13,0,.65-1.36,1.29-2,1.42C69,147.69,69.82,146.72,70.47,146.72Zm9.11.26a.64.64,0,0,0-.65-.58,3.7,3.7,0,0,0-3.17,3c0,.32.13,1,.78,1a2.52,2.52,0,0,0,1.81-.84.2.2,0,0,0,.06-.13.12.12,0,0,0-.19,0,2.43,2.43,0,0,1-1.16.45.44.44,0,0,1-.45-.43s0,0,0,0a2.84,2.84,0,0,1,.19-.9c1-.26,2.78-.65,2.78-1.55Zm-.9-.26c.13,0,.26.06.26.13,0,.65-1.36,1.29-2,1.42C77.25,147.69,78,146.72,78.68,146.72Zm38.45,2.71a2,2,0,0,1-1.1.52.5.5,0,0,1-.45-.52,2.84,2.84,0,0,1,.19-.9c1-.19,2.78-.65,2.78-1.55a.64.64,0,0,0-.65-.58c-1.68,0-3.17,2.07-3.17,3,0,.32.13,1,.77,1a2.3,2.3,0,0,0,1.81-.84.2.2,0,0,0,.06-.13c-.06-.06-.13-.06-.26,0Zm.52-2.71c.13,0,.26.06.26.13,0,.65-1.36,1.29-2,1.42C116.22,147.69,117,146.72,117.64,146.72Zm29.79.26a.63.63,0,0,0-.58-.58c-1.68,0-3.17,2.07-3.17,3,0,.32.06,1,.71,1a2.34,2.34,0,0,0,1.87-.84c.07-.06.07-.13,0-.13a.12.12,0,0,0-.19,0c-.26.13-.65.52-1.1.52a.51.51,0,0,1-.52-.5s0,0,0,0a2.84,2.84,0,0,1,.19-.9c1-.19,2.78-.65,2.78-1.55Zm-.84-.26c.13,0,.19.06.19.13,0,.65-1.29,1.29-1.94,1.42C145.17,147.69,145.95,146.72,146.59,146.72ZM40,147.75a2.77,2.77,0,0,0,.26-.9.46.46,0,0,0-.52-.45c-1,0-2.13,1.23-2.84,2.07h-.06l.71-1.42a1,1,0,0,0,.19-.39c0-.19-.13-.26-.32-.26a2.47,2.47,0,0,0-1.62.84c-.06.06-.06.13,0,.13s.06.06.13.06a1.66,1.66,0,0,1,1-.45c.13,0,.06.06,0,.26s-1.29,2.65-1.42,2.84,0,.26.13.32.32,0,.39-.13c1.81-2.91,3.17-3.49,3.42-3.49s.06.52-.13.84-1.1,2.07-1.29,2.46c-.06.13.06.32.26.32a2.77,2.77,0,0,0,1.87-1c.06-.06.06-.06,0-.13s-.13,0-.19,0a3.92,3.92,0,0,1-.84.58c-.26.06-.26,0-.13-.26s.78-1.36,1-1.81Zm43.94,0a2.58,2.58,0,0,0,.26-.84.48.48,0,0,0-.52-.52c-1,0-2.13,1.23-2.84,2.07h-.06l.71-1.42c.13-.19.19-.26.19-.39a.3.3,0,0,0-.32-.26,2.57,2.57,0,0,0-1.68.91,4.56,4.56,0,0,1,.13.13,2,2,0,0,1,1-.45c.13,0,.06.06,0,.26s-1.29,2.65-1.42,2.84,0,.26.13.32a.47.47,0,0,0,.39-.13c1.81-2.91,3.17-3.49,3.36-3.49s.13.52-.06.84-1.1,2.13-1.29,2.46c-.06.13.06.32.26.32a2.94,2.94,0,0,0,1.87-1c.06-.13.06-.13,0-.19s-.19,0-.19.06a7.47,7.47,0,0,1-.84.52c-.26.06-.26,0-.13-.19s.77-1.42,1-1.87Zm76.25,0a2.76,2.76,0,0,0,.26-.9.46.46,0,0,0-.52-.45c-1,0-2.13,1.23-2.84,2.07h-.06l.71-1.42c.13-.19.19-.26.19-.39s-.13-.26-.32-.26a2.56,2.56,0,0,0-1.68.91v.06a.2.2,0,0,0,.13.06,2,2,0,0,1,1-.45c.06,0,.06.06-.06.26s-1.23,2.65-1.36,2.84,0,.26.13.32.26,0,.32-.13c1.87-2.91,3.23-3.49,3.43-3.49s.13.52-.06.84-1.1,2.07-1.29,2.46c-.06.13.06.32.26.32a2.91,2.91,0,0,0,1.87-1c.06-.06.06-.06,0-.13s-.19,0-.19.06a7.4,7.4,0,0,1-.84.52c-.26.06-.26,0-.13-.26s.77-1.36,1-1.81Zm-57.51,0a2.78,2.78,0,0,0,.26-.9.46.46,0,0,0-.52-.45c-1,0-2.13,1.23-2.84,2.07h-.06l.71-1.42c.13-.19.19-.26.19-.39s-.13-.26-.32-.26a2.56,2.56,0,0,0-1.68.91.06.06,0,0,0,.06.06.06.06,0,0,0,.06.06,2,2,0,0,1,1-.45c.13,0,.06.06,0,.26s-1.29,2.65-1.42,2.84,0,.26.13.32a.47.47,0,0,0,.39-.13c1.81-2.91,3.17-3.49,3.36-3.49s.13.52-.06.84l-1.29,2.46c-.06.13.06.32.26.32a2.78,2.78,0,0,0,1.87-1c.06-.06.06-.06,0-.13s-.19,0-.19.06a7.4,7.4,0,0,1-.84.52c-.26.06-.26,0-.13-.26s.78-1.36,1-1.81Zm-51.89,1.42a.24.24,0,0,0-.19-.06,2.52,2.52,0,0,1-1.1.71c-.06,0-.13-.06,0-.26l1.29-2.39a1.47,1.47,0,0,0,.26-.58.21.21,0,0,0-.19-.19,3.29,3.29,0,0,0-1.87,1v.13h.13a2.66,2.66,0,0,1,1-.45c.06,0,0,.06-.06.26s-1.42,2.58-1.49,2.78,0,.32.19.32a3.61,3.61,0,0,0,2.07-1.1.09.09,0,0,0,0-.13ZM51,145.1a.78.78,0,0,0,.65-.45c.06-.39-.13-.52-.39-.52a.6.6,0,0,0-.58.45c-.06.32.06.52.32.52Zm74.44,2.07a1.48,1.48,0,0,0,.26-.58.21.21,0,0,0-.19-.19,3.5,3.5,0,0,0-1.87,1,.2.2,0,0,0,.06.13h.06a3.24,3.24,0,0,1,1-.45c.06,0,.06.06-.06.26s-1.42,2.58-1.49,2.78.06.32.19.32a3.42,3.42,0,0,0,2.07-1.1c.06-.06.06-.13,0-.13a.2.2,0,0,0-.13-.06,2.33,2.33,0,0,1-1.16.71c-.06,0-.13-.06,0-.26l1.29-2.39Zm.52-3a.67.67,0,0,0-.65.45c-.06.32.13.52.32.52a.68.68,0,0,0,.65-.52C126.37,144.33,126.17,144.2,126,144.2Z" transform="translate(-20 -47.2)"/><path class="cls-2" d="M55,146.66c0-.06,0-.13-.06-.13H53.6c.19-.52,1-2.71,2-2.71a.61.61,0,0,1,.65.64c0,.26.06.26.13.26a.64.64,0,0,0,.52-.65c0-.26-.26-.58-.9-.58-1.81,0-2.71,1.81-3.17,3h-.9a.21.21,0,0,0-.19.19c0,.13,0,.2.06.2h.84c-.58,1.62-1.1,3.3-1.81,4.91-.13.32-.39.58-.65.58-.52,0-.65-.45-.78-.45a.41.41,0,0,0-.39.39c0,.26.26.45.71.45s1.49-.19,2.07-1.74c0,0,.78-1.87,1.68-4.14h1.29a.29.29,0,0,0,.19-.26Zm9-2.52a20,20,0,0,0-2.07.06c-.13,0-.13.06-.13.13a.2.2,0,0,0,.06.13h.52c.26.06.26.2.13.65-.13.26-1.62,3.81-1.87,4.39s-.52.58-1,.65c-.13,0-.13.06-.13.13s0,.13.13.13h2.65c2.65,0,5.23-1.16,5.43-3.69.13-1.55-1-2.58-3.68-2.58Zm-1.49,5.95c-1.29,0-1.1-.39-1-.77s1.55-3.68,1.75-4.2.26-.71.71-.71c1.49,0,2.78.45,2.78,2,0,2.07-1.75,3.68-4.27,3.68Zm11.63-3.56H73.7L74,146c.06-.13-.19-.13-.26-.19s-.32-.06-.39.06-.06.13-.32.71a7.33,7.33,0,0,0-1.42.52v.13a.2.2,0,0,0,.13.06,7.21,7.21,0,0,1,1.1-.39c-2.13,4.59-2.33,5-2.33,5-.26.52-.32.65-1.1.71-.06,0-.06.06-.06.13a.06.06,0,0,0,.06.06h.9l1.49-.06a.06.06,0,0,0,.06-.06c0-.06,0-.13-.06-.13l-.45-.06c-.32,0-.26-.19-.13-.45s.58-1.29.65-1.49.13-.19.19-.19.19.07.32.07a3.39,3.39,0,0,0,2.33-1.16,2.34,2.34,0,0,0,.9-1.74c0-.64-.78-1-1.42-1ZM74,149.3a1.88,1.88,0,0,1-1.29.77c-.19,0-.52-.19-.39-.45,0,0,.58-1.29,1.29-2.78h.32c.19,0,.84.06.84.65A3.06,3.06,0,0,1,74,149.3Zm15.44-.19c.06-.07,0-.07,0-.13h-.13a3.69,3.69,0,0,1-1.29.84c-.06,0-.06-.06-.06-.13s.13-.39.65-1.49c0,0,.9-2.07,2.13-4.65l-.06-.06a4,4,0,0,0-1.16.19c-.13,0-.13,0-.13.06s.32.19.32.32a.8.8,0,0,1-.13.45l-1,2.2a.53.53,0,0,0-.52-.32c-1.62,0-3.62,2.13-3.62,3.3,0,.32.06.71.58.71,1.1,0,2.13-1,2.78-1.81h.06a4.65,4.65,0,0,0-.65,1.55.3.3,0,0,0,.32.26A3.35,3.35,0,0,0,89.4,149.11Zm-4.2.9a.17.17,0,0,1-.19-.2c0-.64,2-3.1,2.91-3.1a.3.3,0,0,1,.32.32C88.24,148.08,86,150,85.2,150Zm50.47-1.75,2.07-4.72v-.06a9.94,9.94,0,0,0-1.36.26c-.13.06-.13.06-.13.13s.39.06.39.32a2,2,0,0,1-.19.58c-.19.45-.45,1.1-.84,2s-1.16,2.52-1.29,2.78a3.36,3.36,0,0,0-.13.58c0,.19.13.26.39.26a2.58,2.58,0,0,0,1.94-1.23c.06-.06.06-.06,0-.13a.12.12,0,0,0-.19,0c-.26.26-1,.91-1.29.91-.06,0-.13-.06-.06-.13a11.18,11.18,0,0,1,.71-1.55Zm31.47.78c-.32.26-1,.91-1.36.91-.06,0-.06-.06-.06-.13s.19-.45.71-1.55c0,0,.9-2.07,2.13-4.72l-.06-.06a9.06,9.06,0,0,0-1.29.26c-.13.06-.19.06-.19.13s.39.06.39.32a1.88,1.88,0,0,1-.13.58c-.19.45-.45,1.1-.9,2a28.89,28.89,0,0,0-1.23,2.78,1.47,1.47,0,0,0-.19.58c0,.19.19.26.39.26a2.57,2.57,0,0,0,1.94-1.23c.06-.06.06-.13,0-.13s-.13-.07-.13,0Zm-44.2-.06a3.68,3.68,0,0,1-1.29.84c-.06,0-.06-.06-.06-.13s.13-.39.65-1.49c0,0,.9-2.07,2.13-4.65v-.06a4.07,4.07,0,0,0-1.23.19c-.13,0-.13,0-.13.06s.32.19.32.32a.79.79,0,0,1-.13.45l-1,2.2a.54.54,0,0,0-.52-.32c-1.62,0-3.62,2.13-3.62,3.3,0,.32.06.71.65.71,1,0,2.07-1,2.71-1.81h.06a4.63,4.63,0,0,0-.65,1.55.3.3,0,0,0,.32.26,3.35,3.35,0,0,0,1.94-1.29c.06-.07,0-.07,0-.13h-.13Zm-4.07,1a.17.17,0,0,1-.19-.2c0-.64,2-3.1,2.91-3.1a.3.3,0,0,1,.32.32C121.91,148.08,119.71,150,118.87,150Z" transform="translate(-20 -47.2)"/><path class="cls-2" d="M91.66,146.4c-.58,0-1.55.71-1.55,1.29s.65,1.23.65,1.74a.57.57,0,0,1-.58.52c-.45,0-.65-.39-.84-.39a.42.42,0,0,0-.32.32.59.59,0,0,0,.65.52A1.61,1.61,0,0,0,91.41,149c0-.65-.71-1-.71-1.75,0-.19.19-.39.52-.39.52,0,.58.39.78.39a.28.28,0,0,0,.26-.26.58.58,0,0,0-.58-.58h0Zm42.07,2.84a2.82,2.82,0,0,1-1.16.58c-.06,0-.06-.06,0-.26s1.55-3,1.62-3.23c.06,0,0-.06-.19-.13a.5.5,0,0,0-.32,0s-.13.26-.32.58a.53.53,0,0,0-.45-.26c-1.74,0-3.62,2.65-3.62,3.36a.46.46,0,0,0,.45.52,4.82,4.82,0,0,0,2.52-1.49c-.19.39-.39.84-.39.84a1.31,1.31,0,0,0-.13.39c0,.19.19.26.32.26a3,3,0,0,0,1.87-1c0-.06,0-.06-.06-.13h-.13Zm-3.36.65c-.13,0-.19-.06-.19-.13,0-.91,1.49-2.84,2.33-2.84a.47.47,0,0,1,.52.32,4.82,4.82,0,0,1-2.65,2.65Zm-.45-3c0-.26-.26-.52-.71-.52-1.68,0-3,2-3,3,0,.65.26,1,.71,1a2.67,2.67,0,0,0,1.87-.91c.07,0,.07-.06,0-.13s-.13-.06-.13,0a2.4,2.4,0,0,1-1.23.52c-.26,0-.39-.13-.39-.45,0-1,1-2.71,1.81-2.71.32,0,.32.32.32.52a.21.21,0,0,0,.19.19.57.57,0,0,0,.58-.52Zm21,0c0-.26-.26-.52-.71-.52-1.68,0-3,2-3,3,0,.65.26,1,.71,1a3,3,0,0,0,1.94-.91v-.13a.12.12,0,0,0-.19,0,2.23,2.23,0,0,1-1.16.52.41.41,0,0,1-.45-.45c0-1,1-2.71,1.81-2.71.39,0,.32.32.32.52s.13.19.26.19a.51.51,0,0,0,.52-.51S150.92,146.92,150.92,146.91Zm-54.09-.52c-1.74,0-2.91,2.13-2.91,2.91a1,1,0,0,0,1,1.1,3.35,3.35,0,0,0,2.91-3A1,1,0,0,0,96.83,146.4Zm-1.74,3.75a.49.49,0,0,1-.45-.52c0-.58,1-2.91,2.07-2.91a.41.41,0,0,1,.45.45c0,.65-1,3-2.07,3Zm68.63-3.75c-1.75,0-2.91,2.07-2.91,2.91a1,1,0,0,0,1,1.1,3.35,3.35,0,0,0,2.91-3A1,1,0,0,0,163.72,146.4Zm-1.81,3.68c-.32,0-.39-.26-.39-.52,0-.52,1-2.84,2.07-2.84.32,0,.39.2.39.45C164,147.82,163,150.08,161.91,150.08Zm9.56-2.65a.93.93,0,0,0-1-1c-1.81,0-3,2.07-3,2.91a1,1,0,0,0,1,1.1A3.35,3.35,0,0,0,171.47,147.43Zm-2.78,2.65a.46.46,0,0,1-.45-.52c0-.52,1.1-2.84,2.07-2.84a.41.41,0,0,1,.45.45C170.76,147.82,169.73,150.08,168.69,150.08Zm-54.67.06h-.52c-.26-.06-.26-.26-.19-.45.45-1.23,1-2.84,1.94-4.91.13-.32.52-.32,1-.45.06,0,.06-.06.06-.13s0-.06-.06-.06h-1.75a9.13,9.13,0,0,1-1.16,1.42c-.77.84-2.91,3.1-3.23,3.36-.32-3.94-.32-4.14-.32-4.14a1.56,1.56,0,0,1,.13-.65h-1.87c-.06,0-.19,0-.19.13s.06.06.13.13h.26c.52.06.58.06.39.58s-1.81,3.55-2.33,4.52c-.26.52-.39.58-1.16.65l-.13.13c0,.06,0,.13.13.13h2.39c.06,0,.06-.13.06-.13s0-.13-.06-.13l-.52-.06c-.32-.06-.26-.26-.13-.45,0,0,.65-1.48,2.2-4.52l.2,3.49c.06.91.06,1,.06,1.55,0,0,0,.06.13.06s.06,0,.19-.13.77-1,4.59-5h.06c-1.62,3.88-1.94,4.59-1.94,4.59-.13.32-.26.39-1.1.45a.2.2,0,0,0-.06.13c0,.06,0,.13.06.13H114c.06,0,.06-.13.06-.13s0-.13-.06-.13Zm29.6-5.3c.19-.39.13-.39.58-.39h.71c1,0,1,.13.9.84,0,.06.06.06.13.06s.06,0,.13-.06a6,6,0,0,1,.65-1.29c.06-.06,0-.06-.06-.06s-.06-.06-.13,0c-.26.19-.13.19-1.16.19h-3.88c-.71,0-.71-.06-.71-.19a.06.06,0,0,0-.06-.06c-.06,0-.13,0-.13.06a10.38,10.38,0,0,1-.84,1.23c-.06.06,0,.06.06.13a.24.24,0,0,0,.19-.06,2,2,0,0,1,1.87-.78h.84c.26,0,.2.13.13.32s-1.81,4.2-2.13,4.91c-.19.45-.32.39-1.16.45a.2.2,0,0,0-.07.13c0,.06,0,.13.07.13h2.78c.06,0,.13-.13.13-.13s-.06-.13-.13-.13h-.52c-.26-.06-.26-.26-.19-.45.39-1.23,1.1-2.78,2-4.85Zm31.21,6.46c0-.52-.45-.77-1-1s-1-.52-1-.65.19-.19.32-.19a2.7,2.7,0,0,0,2.2-2.2v-.32c0-.06,0-.06.06-.06.32,0,.52.13.77.13s.26-.13.26-.32-.06-.19-.26-.19-.52.13-1,.13c-.13,0-.45-.19-.65-.19a2.68,2.68,0,0,0-2.65,2.2.8.8,0,0,0,.77.84c-.39.13-.65.19-.65.39s.26.32.32.39c-.78.19-1.94.71-1.94,1.36s1,.84,1.68.84c2,0,2.72-.64,2.72-1.1Zm-2.26-2.46c0-.52,1.1-2.2,1.87-2.2a.35.35,0,0,1,.32.32c0,.45-1,2.2-1.87,2.2a.35.35,0,0,1-.32-.32Zm.06,3.3c-.71,0-1.42-.26-1.42-.77s1.16-1,1.42-1a2.23,2.23,0,0,1,.71.32c.39.19.77.45.77.71S173.34,152.15,172.63,152.15Z" transform="translate(-20 -47.2)"/><path class="cls-2" d="M179.81,146.4c-.19,0-.39-.06-.45.32a6.46,6.46,0,0,1-1.55,3.36,10.46,10.46,0,0,0,.26-2.13c0-.39.06-1.55-.52-1.55a1.7,1.7,0,0,0-1.36,1.16.24.24,0,0,0,.06.19c.06,0,.13,0,.13-.06.26-.32.45-.65.71-.65.45,0,.32,2.07.13,3.17a2.91,2.91,0,0,1-1.74,2.07c-.39,0-.26-.32-.65-.32-.13,0-.45.13-.45.39a.52.52,0,0,0,.57.45h0c.71,0,1.81-.84,2.91-2.2a10.56,10.56,0,0,0,2.13-3.75v-.35a.53.53,0,0,0-.19-.11Zm-150-1.94-.06-.19H28c-.06,0-.06.06-.06.13a.06.06,0,0,0,.06.06l.32.06c.19.06.13.13,0,.32-1.16,1.48-3.23,4-3.3,4.14a.89.89,0,0,1-.26.26,1.76,1.76,0,0,1-.06-.52l-.19-1.42c0-.19-.06-.19.19-.45.52-.58.9-1,1.55-1.68a1.76,1.76,0,0,1,1.16-.71.06.06,0,0,0,.06-.06c0-.06,0-.13-.06-.13H25.69c-.13,0-.13.06-.13.13a.06.06,0,0,0,.06.06l.39.13c.13,0,.13.06,0,.26l-1.55,1.87q-.08-.91-.19-1.81c0-.26,0-.39.65-.45a.06.06,0,0,0,.06-.06c0-.07.06-.13-.06-.13h-2c-.06,0-.06.06-.13.13a.06.06,0,0,0,.06.06c.45.06.65.06.71.58s.19,1.68.19,1.94a.6.6,0,0,1-.13.65A11.1,11.1,0,0,0,22.39,149a2.36,2.36,0,0,1-.32.26,3.7,3.7,0,0,0-.06-.45c-.06-.26-.39-3.62-.39-3.88s0-.39.71-.45a.06.06,0,0,0,.06-.06c0-.06,0-.13-.06-.13H20.26c-.13,0-.13.06-.13.13a.06.06,0,0,0,.06.06c.39.13.58.06.65.45,0,.06.52,4.72.52,5.43,0,.06,0,.06.13.06h.19q1-1.33,2.13-2.59a23.38,23.38,0,0,1,.26,2.52c0,.07,0,.07.13.07h.19c1.16-1.55,4-4.91,4.26-5.23a3.76,3.76,0,0,1,1.1-.71Z" transform="translate(-20 -47.2)"/><path class="cls-2" d="M31.44,146.59a1.88,1.88,0,0,0-1,.39,7.31,7.31,0,0,0-1.55,1.49c.19-.52,1.68-4.07,1.87-4.59v-.06a4.74,4.74,0,0,0-1.16.19v.13l.19.13c.13.06.06.19-.19.84l-2,5.11c-.13.19.13.26.26.26a.14.14,0,0,0,.13-.13,9.82,9.82,0,0,1,1.29-1.87,7.15,7.15,0,0,1,1.23-1.23,1.29,1.29,0,0,1,.52-.26c.13,0,.19.13.19.26a9.35,9.35,0,0,1-.77,2.39c-.19.32-.26.45-.45.45s-.13-.06-.19-.13a.2.2,0,0,0-.13-.06c-.13,0-.26.13-.32.32s.06.26.39.26a1.08,1.08,0,0,0,.71-.39,2.32,2.32,0,0,0,.65-.71,7.32,7.32,0,0,0,.84-2.13c0-.32-.13-.65-.52-.65Zm124.39-13.25h-1.75a1.16,1.16,0,0,1-1.1-1.23v-5.69a5.28,5.28,0,0,0-5.3-5.17c-2,0-3.75,1-5,3.68v-3.23h-6.79v16.41h6.79v-9.31c0-1.16.2-2.39,1.49-2.39s1.62,1.23,1.62,2.39v4.33a5.33,5.33,0,0,0,5.36,5h11.76V121.71h-7.11v11.63ZM98,115.31H90.76v6.33H87.92V126h2.84v5.49a2.32,2.32,0,0,1-2.39,2.33,2.18,2.18,0,0,1-2.2-2.33V115.31H79v8.59c-1.62-2.71-5.17-2.71-5.17-2.71-1.29,0-6,.77-6.72,7-.84-4.46-3.62-7-8.66-7-6.46,0-9.37,4.52-9.31,8v.58l-2-12.92H37.9L35.19,127.2l-2.65-10.34H23.3L20,138.06h7.43l1.68-12,3.17,12h5.88l3.1-12,1.68,12h7.43l-.78-5.36c1,3.43,3.88,5.82,9.18,5.82,0,0,5.36,0,7.69-1.62V133c-2,1.42-5.88,1.42-5.88,1.42-3.94,0-4.52-1.42-4.52-2.91H67.11c.58,5,3.81,7,6.72,7a5.5,5.5,0,0,0,5.3-4.39c0,1.36,2.33,4.46,6.2,4.46a15.6,15.6,0,0,0,7-1.81c1.16,1.68,4.46,1.68,4.46,1.68a15.71,15.71,0,0,0,4.78-.84v-4.14a7.59,7.59,0,0,1-1.29.13A2.14,2.14,0,0,1,98,131.34V126h3.62v-4.33H98v-6.4ZM56.06,128.69c.26-2.52,1.49-3.23,2.52-3.23s2.26.71,2.52,3.23h-5ZM76,133.47c-1,0-2.33-.39-2.33-3.81s1.29-3.81,2.33-3.81,2.33.39,2.33,3.81S77,133.47,76,133.47Zm49-12.28c-3.55,0-6.85,1.23-8.6,3.88v-3.3a4.74,4.74,0,0,0-1.16-.13c-2.65,0-4.46,2.46-5.3,4.2v-4.14H103.1v16.41h6.79V131.6c0-.65,1.42-4,4.72-4a2.87,2.87,0,0,1,.71.06,8.22,8.22,0,0,0-.19,1.81v.65c0,5.88,4.65,8.4,9.82,8.4s9.76-2.52,9.76-8.4v-.65c0-5.62-4.59-8.27-9.76-8.27Zm-.13,12.28c-1,0-2.33-.39-2.33-3.81s1.29-3.81,2.33-3.81,2.33.39,2.33,3.81S125.85,133.47,124.81,133.47Zm51.57-7.63a10.92,10.92,0,0,1,3.62.84V122c-1.75-.77-5.56-.77-5.56-.77-9,0-10.47,5-10.47,8.46s1.49,8.72,10.53,8.72c0,0,3.88,0,5.49-.84V132.7a7,7,0,0,1-3.36.91c-2.07,0-4.14-.91-4.14-3.88a3.72,3.72,0,0,1,3.88-3.88ZM155.83,120h7.11v-4.65h-7.11Z" transform="translate(-20 -47.2)"/></svg>