<svg id="Layer_1" data-name="Layer 1" xmlns="http://www.w3.org/2000/svg" viewBox="0 0 160 61.66"><defs><style>.cls-1{fill:#04593c;}.cls-2{fill:#b97327;}</style></defs><title>monsanto</title><path class="cls-1" d="M49,124.21h-.23c-.08-.62-.31-.7-.93-.7H46.78l-.62,2.88c-.08.39.23.54.7.54l-.08.23H44.37l.08-.23c.54,0,.7-.23.86-1l1.09-5.22c.16-.47.08-.78-.47-.78h-.16l.08-.23h4.36l-.31,1.17h-.23c.08-.7,0-.78-.7-.78H47.48l-.62,3h1.32a.89.89,0,0,0,1-.62h.23L49,124.21Zm2.49,3.11a1.44,1.44,0,0,1-1.4-1.56,3.15,3.15,0,0,1,2.73-3.19,1.48,1.48,0,0,1,1.4,1.56C54.26,125.3,53.17,127.33,51.53,127.33Zm1-4.36c-.86,0-1.64,1.25-1.64,2.73,0,.7.31,1.24.93,1.24.86,0,1.64-1.32,1.64-2.8a1.06,1.06,0,0,0-.93-1.17Zm3.74,4.36a1.48,1.48,0,0,1-1.4-1.56,3.21,3.21,0,0,1,2.8-3.19,1.54,1.54,0,0,1,1.4,1.56C59.09,125.3,58,127.33,56.28,127.33ZM57.37,123c-.86,0-1.64,1.25-1.64,2.73,0,.7.31,1.24.86,1.24.93,0,1.64-1.32,1.64-2.8,0-.62-.39-1.17-.86-1.17Zm6.15,2.88c-.16.54-.08.86.39.86a1.15,1.15,0,0,0,.47-.08l-.08.31-1.79.31.16-.62a2.42,2.42,0,0,1-1.48.7,1.56,1.56,0,0,1-1.32-1.63,3.18,3.18,0,0,1,3.58-3l.47-2.1c.16-.54.08-.78-.39-.78h-.47l.08-.31,1.56-.31h.23l-1.4,6.7Zm-.7-2.88a2.21,2.21,0,0,0-2.18,2.49c0,.78.47,1.32,1,1.32a1.37,1.37,0,0,0,1-.47l.78-3.35h-.62Zm6.31.08a1,1,0,0,1,.93.93.88.88,0,0,1-.93.86.86.86,0,0,1-.86-.86A.93.93,0,0,1,69.13,123Zm12.22-3.11c-.7.08-.78.31-.93.94l-1.09,5.29c-.16.55-.08.7.54.78l-.08.23H77.46l.08-.23c.7-.08.78-.39.93-1.09l.54-2.49H75.2l-.54,2.8c-.16.55,0,.7.54.78v.23H72.71l.08-.23c.62,0,.78-.23.93-.93l1.17-5.37c.08-.39,0-.7-.62-.7l.08-.23h2.34l-.08.23c-.7.08-.7.39-.86.94l-.47,2.1H79.1l.47-2.33c.08-.47,0-.7-.54-.7l.08-.23h2.26v.23h0Zm1.87,6.77c.47,0,.93-.31,1.48-1l.16.23c-.7,1-1.25,1.4-2,1.4a1.35,1.35,0,0,1-1.48-1.48,3.24,3.24,0,0,1,2.8-3.27.8.8,0,0,1,.86.78c0,.78-1.17,1.56-2.88,1.79-.16,1.09.39,1.56,1.09,1.56Zm1-3.11a.67.67,0,0,0-.62-.54c-.78,0-1.32,1.17-1.4,1.87,1.17-.16,2-.62,2-1.32Zm5.37,2.33c-.08.55,0,.86.62.78l-.08.23-1.56.31.16-.86a2,2,0,0,1-1.56.93,1.25,1.25,0,0,1-1.32-1.4c0-1.56,1.4-3.35,4.13-3.35h.39l-.78,3.35Zm-3-.23c0,.7.31,1.09.86,1.09s.86-.23,1.32-.78l.62-3a2.5,2.5,0,0,0-2.8,2.65Zm5.92.47c-.16.62-.08.78.47.78h.23v.23H90.85v-.23H91c.62,0,.62-.23.86-1.24L93,120.32c.08-.39,0-.54-.39-.54a1.14,1.14,0,0,0-.47.08v-.23l1.64-.47H94l-1.48,7Zm4.9-3H96.3l-.7,3c-.08.39.08.62.31.62a2.64,2.64,0,0,0,1.4-.7l.16.16a3.44,3.44,0,0,1-2.1,1.09.57.57,0,0,1-.62-.62,6.89,6.89,0,0,1,.16-.86l.62-2.73h-.86l.08-.23a2.13,2.13,0,0,0,1.64-1.32h.23l-.23,1.17h1.17l-.08.39Zm2.41.23H100a2.16,2.16,0,0,1,1.56-.78c.78,0,1.4.7,1.17,1.79l-.39,1.95c-.16.47-.08.55.39.62v.23h-1.95l.08-.23c.54-.08.62-.31.7-.93l.39-1.71c.16-.7-.08-1.17-.78-1.17-.47,0-.78.23-1.32.78l-.47,2.49c-.08.39,0,.54.47.54l-.08.23H97.94l.08-.23c.31,0,.39-.23.55-.93l1.17-5.61c.16-.54.16-.7-.62-.7l.08-.23,1.32-.31h.31l-.93,4.2Zm7.4-.31a.94.94,0,0,1,.86.93.86.86,0,1,1-1.71,0A.93.93,0,0,1,107.28,123Zm12.07-3.11c-.7.08-.78.31-.86.94l-1.17,5.29c-.08.55,0,.7.54.78l-.08.23h-2.34l.08-.23c.78-.08.78-.39.93-1.09l.54-2.49h-3.74l-.62,2.8c-.16.55,0,.7.54.78v.23h-2.41v-.23c.62,0,.86-.23,1-.93l1.09-5.37c.08-.39,0-.7-.62-.7l.08-.23h2.33v.23c-.78.08-.78.39-.86.94l-.47,2.1h3.74l.47-2.33c.16-.47,0-.7-.55-.7l.08-.23h2.26v.23h0Zm1.32,7.4a1.43,1.43,0,0,1-1.4-1.56,3.15,3.15,0,0,1,2.73-3.19,1.49,1.49,0,0,1,1.4,1.56C123.4,125.3,122.31,127.33,120.67,127.33Zm1-4.36c-.86,0-1.64,1.25-1.64,2.73,0,.7.31,1.24.94,1.24.86,0,1.63-1.32,1.63-2.8a1.06,1.06,0,0,0-.93-1.17Zm4.36.16.08.08a2.09,2.09,0,0,1,1.4-.62,1.5,1.5,0,0,1,1.32,1.64,3.37,3.37,0,0,1-3.66,3l-.39,2.1c-.16.62-.16.94.23.94.16,0,.23-.08.47-.08l-.08.31-1.48.31h-.31l1.48-6.85c.16-.54.08-.86-.39-.86a1,1,0,0,0-.39.08l.08-.23,1.56-.39h.23l-.16.54Zm-.7,3.66a1,1,0,0,0,.47.08,2.28,2.28,0,0,0,2.26-2.49c0-.78-.39-1.32-1-1.32-.39,0-.62.16-1.09.54l-.62,3.19Zm6.15-.08c.55,0,1-.31,1.56-1l.08.23c-.62,1-1.17,1.4-2,1.4a1.3,1.3,0,0,1-1.4-1.48c0-1.71,1.32-3.27,2.73-3.27a.76.76,0,0,1,.86.78c0,.78-1.09,1.56-2.8,1.79-.16,1.09.39,1.56,1,1.56Zm1-3.11A.58.58,0,0,0,132,123c-.78,0-1.4,1.17-1.48,1.87,1.25-.16,2-.62,2-1.32Zm3-1.64h.93v-.16h-.08c-.08,0-.08,0-.16-.08a.8.8,0,0,1-.08-.31V120h.23c.31,0,.31,0,.39.31h.16v-.54H135v.54h.16c0-.23.08-.31.31-.31h.31l-.08-.08v1.48c0,.31,0,.39-.16.39h-.08V122h0Zm1.48-2.1v.08H137c.23,0,.23.08.23.31v1.32c0,.23,0,.23-.23.23h-.08V122h.86v-.16h-.08a.28.28,0,0,1-.23-.08v-1.56h-.08l.86,1.79h.08l.78-1.79v1.25c0,.39-.08.39-.31.39V122h.93v-.16c-.31,0-.31,0-.31-.39v-1.25a.21.21,0,0,1,.23-.23h.08v-.16h-.62v.08l-.78,1.56h.08l-.78-1.56v-.08h-.7v.08h0ZM30.51,102.1h-.16l-3.19,8.41h-.62l-3.27-8.41h-.16l-.54,6c-.16,1.17.16,1.87,1.32,1.87v.54H20V110c1.09,0,1.56-.39,1.71-1.95l.7-6.62a1.86,1.86,0,0,0-1.48-.47v-.47h3.82l2.65,7,2.73-7H34v.47c-.78,0-1.48.23-1.48,1.17,0,.08.08.86.08.93l.47,4.91c.16,1.87.86,1.95,1.71,2v.54H29.66V110c.93,0,1.4-.23,1.4-1.4v-.78l-.55-5.68Zm26.47,1c0-1.09-.08-2-1.95-2.18v-.47h3.5l6.38,7.4v-5.22c0-1.48-.62-1.63-1.71-1.71v-.47h4.13v.47c-1,.08-1.64.23-1.64,1.71v8.1h-1l-6.93-8.17v5.76c0,.93.39,1.64,1.4,1.64h.39v.54h-4.2V110c1,0,1.64-.31,1.64-1.71v-5.14h0Zm42.9,0c0-1.09,0-2-1.87-2.18v-.47h3.43l6.38,7.4v-5.22c0-1.48-.62-1.63-1.64-1.71v-.47h4.13v.47c-1.09.08-1.71.23-1.71,1.71v8.1h-.93l-6.93-8.17v5.76c0,.93.31,1.64,1.4,1.64h.39v.54H98.25V110c1,0,1.64-.31,1.64-1.71v-5.14Zm-55.12,7.63c-3.82,0-5.84-2.65-5.84-5.29,0-2.8,2.18-5.22,5.76-5.22s6.07,2.18,6.07,5.22c0,2.73-2.26,5.29-6,5.29Zm.08-9.81c-2.49,0-3.82,2-3.82,4.59S42.5,110,44.84,110c1.64,0,3.74-1.09,3.74-4.52,0-3.66-2.18-4.51-3.74-4.51Zm88.84,9.73c-3.82,0-5.84-2.57-5.84-5.22,0-2.8,2.18-5.22,5.76-5.22s6.07,2.18,6.07,5.22C139.67,108.17,137.41,110.67,133.67,110.67Zm.08-9.73c-2.49,0-3.74,2-3.74,4.59s1.4,4.44,3.74,4.44c1.64,0,3.74-1.09,3.74-4.52,0-3.66-2.18-4.51-3.74-4.51Zm-13.63,7.32c0,1.56.54,1.64,1.64,1.71v.54h-5.37V110c1.09-.08,1.63-.16,1.63-1.71v-7.08H116.7a1.76,1.76,0,0,0-1.95,1.95h-.62l.16-3.19h.47c.16.39.62.54,1.56.54h5.53c.94,0,1.32-.16,1.56-.54h.47l.16,3.19h-.62c-.08-.78-.23-1.95-1.95-1.95h-1.32v7.08Zm-34.26.08a5.07,5.07,0,0,0-.16.86c0,.78.78.78,1.25.78v.54H83.14V110c1.17,0,1.4-.54,2-2.1L88,100.23h1.87l2.8,7.71c.55,1.64.86,2,2.1,2v.54h-5V110c.54,0,1.17-.08,1.17-.62a2.89,2.89,0,0,0-.16-.7l-.7-1.95H86.49l-.62,1.64Zm4-2.33-1.48-4.36h-.08L86.73,106Zm-11.13-2.88h-.54a2.52,2.52,0,0,0-2.41-2.26c-1.25,0-1.79.7-1.79,1.32,0,1.09,1.17,1.56,2.57,2.18,1.87.86,2.73,1.95,2.73,3.5,0,1.4-1,2.8-3.58,2.8a14,14,0,0,1-2.57-.47c-.23,0-.39.23-.47.47h-.47V107.4h.54A2.72,2.72,0,0,0,75.44,110c1.32,0,2.1-.7,2.1-1.64,0-.78-.54-1.56-2.72-2.57-1.09-.47-2.49-1.17-2.49-3a2.88,2.88,0,0,1,3.19-2.65,12.92,12.92,0,0,1,2.41.47.4.4,0,0,0,.39-.39h.47v2.88h0ZM175.72,116h.93v-.16h-.08c-.08,0-.16,0-.16-.08s-.08-.16-.08-.31V114h.23c.23,0,.31,0,.39.31H177v-.54h-1.79v.54h.16c0-.23.08-.31.31-.31H176l-.08-.08v1.48c0,.31,0,.39-.16.39h-.16V116Zm1.48-2.1v.08c.31,0,.31.08.31.23v1.4c0,.23,0,.23-.23.23h-.08V116H178v-.16a.28.28,0,0,1-.23-.08v-1.56h-.08l.86,1.79h.08l.78-1.79h-.08v1.25c0,.39,0,.39-.23.39V116H180v-.16h-.08c-.23,0-.23,0-.23-.39v-1.25c0-.16,0-.23.23-.23H180v-.16h-.62v.08l-.78,1.56h.08l-.78-1.56v-.08h-.7v.08h0Z" transform="translate(-20 -69.17)"/><path class="cls-2" d="M172.52,117.36l-1.25.62-1.64-.16-1.09-.23h-.23l-.78.16-.78.08-2.8.08-2.73.16-2.49.16-1.79.23-1.24.08-.86.31-.93-.23-.7.7-.7.39-1-.23.23-2.1.23-2.1a14.22,14.22,0,0,0-.23-2.34c-.08-.54-.08-2.65-.08-2.65l.08-2.65-.7-5.68L150.49,96l-.39-4.83-.31-4.67.39-11.21.86-3.58,2-.86h2.41l2.88.23,1.48.23,2.34-.62,1.87-.39,1.79-.31,1.25.23-.16-1.09h1.25l1.48.86h2.65l.54,1.95-1.4.39.23,3.58.16,5.76v5.45l.55,2.57v2.49l-.16,4.9.16,4.83.23,2.1.31,2.65.23,2.41-.39,2.8-.23,2.49-.7,1.71.7,1.25ZM170.73,114v-3.19l-.23-1.71v-.86l-.47-1.63.08-1.71.16-1.87-.16-6.15.39-1.71-.31-2.34-.7-4.2-.23-5.45-.31-6.77-.54-4.2h-3.12l-1.32.39-2.34.39-1.25.23-1.32.39-1.64.31-2.18-.47-1.64-.23-.54,2.34-.39,5.29-.54,5.29L152,89.88l1.09,3.66s0,.93.08,1.95c.08.78.08,1.64.08,2.26v3.58l.31,2.33.23,2.49-.39,3.19.39,3,.39,4,.94.62,2.33-.47,2.41-.86,1.71-.08,1.87-.08,1.32-.23,2.88.39,2.88.23.23-1.87Z" transform="translate(-20 -69.17)"/><path class="cls-1" d="M161.55,100.23v.08h.08c2,.16,3.58-.16,4.59-1.09s1.71-2.49,1.79-4.75a4.24,4.24,0,0,0-2.57.47C164.19,95.56,162.48,97,161.55,100.23Z" transform="translate(-20 -69.17)"/><path class="cls-1" d="M169.18,106.54a10.36,10.36,0,0,0-4.5,1.85c-.21-.23-.4-.46-.58-.68a2.65,2.65,0,0,0,1.43-.55c1.4-1.09,2.1-3.66,2-7.32l-.08-.08h-.08c-3.83,1.29-4.93,3.52-5.09,5.44l0-.07a7.84,7.84,0,0,1-.78-7.79l.16-.23a35.42,35.42,0,0,0,1.15-3.8,3.17,3.17,0,0,0,2.66-.88c1.09-1,1.56-2.65,1.4-4.75v-.08h-.08a5.06,5.06,0,0,0-3.35,1.56,4.27,4.27,0,0,0-.28.42,12.93,12.93,0,0,0,.09-3.61,2,2,0,0,0,1.13-.08c2-.86,3-4.52,3.11-4.67v-.08h-.08l-.23-.08a4.43,4.43,0,0,0-2.73.47,4.05,4.05,0,0,0-1.6,2.48,8.72,8.72,0,0,0-2-3.63,3.14,3.14,0,0,0,1.23-1c1.48-2,.86-5.45.86-5.53v-.08l-.08.08a7.06,7.06,0,0,0-3.35,3,5,5,0,0,0-.49,3.07,7,7,0,0,0-3.48-.19h-.08l.08.08a7.09,7.09,0,0,0,3.11,3.82,3.5,3.5,0,0,0,1.79.23,4,4,0,0,1,1.11-.15,15.41,15.41,0,0,1,.71,3.51c-.86-.91-2.57-1.23-5.09-1H157v.08h0A6.36,6.36,0,0,0,159.21,90a3.42,3.42,0,0,0,2.79.69,39.82,39.82,0,0,1-1.31,5.21,3.32,3.32,0,0,0-.24-.92c-.7-1.48-2.26-2.49-4.83-3.11h-.08A6,6,0,0,0,157,97a3.35,3.35,0,0,0,2.92,1.22,10.81,10.81,0,0,0-.51,1.89c0,.27-.07.53-.09.78a4.72,4.72,0,0,0-.77-.23c-.78-.31-3-1.17-3-1.79h-.15a6.59,6.59,0,0,0,2,5.29,3.12,3.12,0,0,0,3.12.59c.21.33.41.65.62,1,.56.85,1.07,1.64,1.66,2.63-1.5-1.69-3-2.52-4.31-2.4-1.87.16-3,2.26-3.5,3.19l.08.08c2.77,1.9,6.35,1.5,8,1.16a7.16,7.16,0,0,0-.34,4.91l.08.08v-.08c2.1-.23,5.68-2.73,6.46-8.64v-.08Z" transform="translate(-20 -69.17)"/></svg>