<svg id="Layer_1" data-name="Layer 1" xmlns="http://www.w3.org/2000/svg" viewBox="0 0 160 26.97"><defs><style>.cls-1{fill:#1c4598;}</style></defs><title>nokia</title><path class="cls-1" d="M27.7,113.15H20V87H33.32l15.29,19.56V87h7.7v26.2H43.26L27.7,93.26v19.89m65.47-8.1c0,3.64-.64,4.9-1.71,6.1-1.63,1.79-4,2.33-8.59,2.33H69.72c-4.58,0-7-.54-8.6-2.33-1.06-1.2-1.71-2.46-1.71-6.1V95c0-3.64.65-4.9,1.71-6.1,1.63-1.79,4-2.33,8.6-2.33H82.87c4.58,0,7,.54,8.59,2.33,1.07,1.21,1.71,2.46,1.71,6.1v10.1m-10.63,1.79c1.76,0,2.38-.1,2.8-.49s.57-.82.57-2.36V96c0-1.54-.17-2-.57-2.36s-1-.49-2.8-.49H70c-1.76,0-2.38.1-2.8.49s-.57.82-.57,2.36v8c0,1.54.17,2,.57,2.36s1,.49,2.8.49H82.55ZM104.37,87v26.2h-8V87h8M118,87H128.6L114.25,99.21l16.18,13.94H119.06L104.37,99.49,118,87Zm13.95,0H140v26.2h-8.05Zm38.75,26.2-2.38-4.56H152.7l-2.35,4.56h-8.89L155.72,87h10L180,113.15h-9.34M155.5,102.9h10l-5-9.48Z" transform="translate(-20 -86.52)"/></svg>