<svg id="Layer_1" data-name="Layer 1" xmlns="http://www.w3.org/2000/svg" viewBox="0 0 160 35.08"><title>oppenheimerfunds</title><path d="M31.85,87.15a.35.35,0,0,1,.28-.33.43.43,0,0,1,.33-.14.36.36,0,0,1,.24,0l4.79,4s.19.09.28.09.28-.19.43-.28,0-.09-.09-.24l-4.69-4.6a.68.68,0,0,1-.09-.33c0-.14.19-.24.24-.28a.88.88,0,0,1,.33-.09.56.56,0,0,1,.33.09l5.36,4.36s.09.09.24.09a.8.8,0,0,0,.24-.09c.09,0,.19-.09.19-.19s0-.14,0-.19L35.5,84.79a.51.51,0,0,1-.09-.28.34.34,0,0,1,.19-.28c.19-.09.24-.19.43-.19a.39.39,0,0,1,.33.14l5.21,4.08a.25.25,0,0,0,.19.09A.41.41,0,0,0,42,88.2c.14,0,.19-.09.19-.14a.25.25,0,0,0-.09-.19l-3.7-3.32c-.57-.52-.62-.47-.62-.66s.09-.24.38-.38a.4.4,0,0,1,.28-.14c.09,0,.14,0,.28.14l4.36,3.32a2.79,2.79,0,0,1,.81.85l4.31,6.73-2.84,3.32-2.18,2L40.9,99a12.87,12.87,0,0,1-1.42-.62L37.3,97.21l.52-1.9h.62a.36.36,0,0,0,.33-.19s.09-.24.09-.28-.09-.14-.14-.24l-6.54-6.92a1.13,1.13,0,0,1-.33-.53Zm-7.21,18.54c-.24,0-.28-.24-.38-.38a.36.36,0,0,1,0-.24.7.7,0,0,1,0-.28l3.89-4.65c.09-.14.19-.19.19-.33a1.17,1.17,0,0,0-.19-.43s-.14-.09-.19-.09-.09,0-.14.09l-4.6,4.74a.77.77,0,0,1-.24.09c-.14,0-.19,0-.24-.09a1,1,0,0,1-.19-.47.7.7,0,0,1,0-.33L27,98a.36.36,0,0,0,.09-.24.71.71,0,0,0-.14-.38l-.14-.14c-.09,0-.14,0-.19.14L22.28,102a.3.3,0,0,1-.24.1c-.24,0-.24-.14-.38-.28s-.14-.19-.14-.28.14-.33.14-.38l4-5.12a.37.37,0,0,0,.14-.28.51.51,0,0,0-.14-.33s-.09-.09-.14-.09-.24.09-.33.24l-3.56,4a.35.35,0,0,1-.28.09c-.14,0-.24,0-.38-.28a.67.67,0,0,1-.09-.28.89.89,0,0,1,.09-.33l3.46-4.5a2.17,2.17,0,0,1,.57-.57l6.87-4.41,3.37,2.84,2,2.18-.76,2.32a14.88,14.88,0,0,1-.57,1.42l-1.28,2.18-1.8-.52V99.1c0-.24-.19-.24-.28-.33s-.19-.09-.28-.09-.14,0-.24.19l-6.83,6.45c-.19.14-.38.38-.57.38ZM43,113.13a.84.84,0,0,1-.47.24.69.69,0,0,1-.28-.09l-4.69-3.93a.34.34,0,0,0-.28-.14.28.28,0,0,0-.19,0c-.19.09-.28.19-.28.33a.21.21,0,0,0,.14.19l4.6,4.46a.39.39,0,0,1,.14.33c0,.09,0,.19-.09.24s-.28.24-.47.24a.91.91,0,0,1-.38-.14l-5.26-4.31a.4.4,0,0,0-.24-.14c-.14,0-.19.09-.33.14s-.14.14-.14.24,0,0,.14.19l4.6,4.27a.4.4,0,0,1,.09.28.19.19,0,0,1-.09.19A1.2,1.2,0,0,1,39,116a.81.81,0,0,1-.52-.24l-4.84-3.84c-.14-.1-.24-.24-.38-.24s-.19.1-.38.19a.25.25,0,0,0-.09.19.16.16,0,0,1,0,.09l4.12,3.7c.09.09.24.14.24.33s-.09.24-.33.38a.66.66,0,0,1-.28.1.43.43,0,0,1-.33-.14l-4.5-3.41a2.6,2.6,0,0,1-.71-.81l-4.27-6.68,2.89-3.27,2.13-2,2.09.66a8,8,0,0,1,2.09.9l1.75,1-.47,1.85h-.66c-.24,0-.28.09-.33.24a.29.29,0,0,0,0,.19c0,.14.09.28.52.71L43,112.56a.51.51,0,0,1,.14.33c0,.14,0,.24-.14.24Zm7.59-18.68a.9.9,0,0,1,.24.47.37.37,0,0,1-.14.33L47,99.81c-.14.14-.28.24-.28.38a.66.66,0,0,0,.09.28c0,.09.14.28.28.28s.43-.38.85-.81l3.51-3.65c.24-.19.38-.47.66-.47a.26.26,0,0,1,.24.09.93.93,0,0,1,.14.47c0,.14,0,.28-.09.33l-4.17,5.12c-.14.24-.24.28-.24.43a.68.68,0,0,0,.09.28s.14.19.24.19.09,0,.24-.14l4.22-4.55a.41.41,0,0,1,.28-.14c.09,0,.14,0,.24.14s.24.28.24.47a.63.63,0,0,1-.14.33l-4,5.07a1.44,1.44,0,0,0-.24.33c0,.09.14.24.19.33s.09.14.19.14.14,0,.28-.24l3.6-4c.09-.14.14-.14.28-.14a.26.26,0,0,1,.24.14c0,.14.19.24.19.43a.76.76,0,0,1-.14.38l-3.41,4.46a2.29,2.29,0,0,1-.57.62l-6.87,4.36-3.32-2.8-2-2.18.76-2.47a5.62,5.62,0,0,1,.57-1.28l1.23-2.18,1.85.47v.62c0,.19.09.24.19.33a.47.47,0,0,0,.28.09c.09,0,.19,0,.33-.19l6.78-6.4c.14-.14.38-.38.57-.38a.28.28,0,0,1,.24.1Zm-1.9-1-3.79-6.69a1.29,1.29,0,0,0-.43-.47l-5.22-3.51a1.56,1.56,0,0,0-.9-.28,1.54,1.54,0,0,0-.66.19c-.57.33-.71.66-.71,1a2,2,0,0,0-1-.43,1.81,1.81,0,0,0-.62.19c-.62.33-.81.57-.81,1.09a1.26,1.26,0,0,0-.76-.28,2.19,2.19,0,0,0-.85.28,1.5,1.5,0,0,0-.85,1.37l-.52.33a1.69,1.69,0,0,0-.71,1.52v1.09l-6.68,3.75a1.28,1.28,0,0,0-.47.52l-3.46,5.17a1.71,1.71,0,0,0-.28.95,1.19,1.19,0,0,0,.19.62,1.11,1.11,0,0,0,.95.71,1.88,1.88,0,0,0-.43,1,1.4,1.4,0,0,0,.24.62c.38.71.62.76,1.09.81a1,1,0,0,0-.28.71,1.78,1.78,0,0,0,.19.76l.24.33a1.27,1.27,0,0,0,1.19.57,3.31,3.31,0,0,0,.62.9,1.91,1.91,0,0,0,1.23.38h1.14l3.75,6.64a1,1,0,0,0,.47.52l4.93,3.27a1.7,1.7,0,0,0,1.23.47,1.84,1.84,0,0,0,.9-.38.93.93,0,0,0,.43-.81,1.29,1.29,0,0,0,1,.43,1.83,1.83,0,0,0,1-.43,1,1,0,0,0,.38-.81,1.31,1.31,0,0,0,.76.24,1.86,1.86,0,0,0,1.14-.47,1.45,1.45,0,0,0,.52-1.14c.57-.38,1.23-.66,1.23-1.85v-1.14l6.68-3.7a1,1,0,0,0,.47-.52l3.51-5.17a2.16,2.16,0,0,0,.24-.95,1.62,1.62,0,0,0-.33-.9,1.14,1.14,0,0,0-.81-.43,2,2,0,0,0,.43-1,1.57,1.57,0,0,0-.43-1,1,1,0,0,0-.85-.43,1.43,1.43,0,0,0,.24-.76,1.78,1.78,0,0,0-.43-1.09,1.29,1.29,0,0,0-1.19-.52,1.72,1.72,0,0,0-1.85-1.28H48.73ZM38.11,98.63a8,8,0,0,0,1.52.9l-.71,1a8.53,8.53,0,0,0-.9,1.52l-1.23-.81a7.32,7.32,0,0,0-1.37-.81l.81-1.09A6.84,6.84,0,0,0,37,97.91l1.09.71Zm25.36-6.35c-2.84,0-4.55,2.32-4.55,5.36,0,2.51,1.33,5.26,4.55,5.26,2.89,0,4.55-2.46,4.55-5.41,0-2.56-1.42-5.21-4.55-5.21Zm-.09,1.42c1.37,0,2.7,1.37,2.7,3.93s-1.09,3.84-2.51,3.84-2.66-1.37-2.66-4S62.14,93.7,63.38,93.7Zm5.88,3.46v6.31c0,1.61-.09,2.37-.09,2.65a7.43,7.43,0,0,0,1.47-.09c.28,0,.28-.14.28-.43v-3a2.93,2.93,0,0,0,1.37.33c1.61,0,3.37-1.37,3.37-4.08,0-2.13-1.23-3.51-2.7-3.51a3.07,3.07,0,0,0-2.13,1c0-.62-.28-1-.95-1a2,2,0,0,0-.52.09,3.06,3.06,0,0,0-.52.76v.28c.24.1.43.24.43.71Zm1.66,4.08V97.49a2.72,2.72,0,0,1,1.52-.76c.81,0,1.42.9,1.42,2.28,0,1.75-.95,2.66-1.71,2.66A2.17,2.17,0,0,1,70.92,101.23Zm5.69-4.08v6.31c0,1.61,0,2.37,0,2.65A7,7,0,0,0,78,106c.28,0,.33-.14.33-.43v-3a2.74,2.74,0,0,0,1.33.33c1.61,0,3.37-1.37,3.37-4.08,0-2.13-1.19-3.51-2.7-3.51a2.89,2.89,0,0,0-2.09,1c-.09-.62-.33-1-.95-1a2.38,2.38,0,0,0-.57.09,5.18,5.18,0,0,0-.52.76v.28c.24.1.43.24.43.71Zm1.71,4.08V97.49a2.45,2.45,0,0,1,1.47-.76c.85,0,1.42.9,1.42,2.28,0,1.75-.95,2.66-1.71,2.66a1.87,1.87,0,0,1-1.18-.43Zm11.47.09-.14-.14a4.91,4.91,0,0,1-1.61.28,2.07,2.07,0,0,1-2.23-2.09c.28,0,.62,0,1,0,.81,0,1.66,0,1.94,0S89.93,99,90,98.72a1.86,1.86,0,0,0,.09-.62,2.6,2.6,0,0,0-2.8-2.8c-2.13,0-3.41,1.9-3.41,3.89a3.35,3.35,0,0,0,3.6,3.7,4.42,4.42,0,0,0,1.33-.24A1.66,1.66,0,0,0,89.78,101.33Zm-2.65-4.79c.81,0,1.19.66,1.19,1.42,0,.09-.09.28-.19.28-.38,0-.76,0-1.14,0a9.16,9.16,0,0,1-1.14,0c0-.62.43-1.71,1.28-1.71Zm8.68,1.61v4.31c0,.19.09.28.33.28a11.21,11.21,0,0,0,1.61-.14c0-.24,0-.95,0-1.23V98.06c0-1.28-.43-2.75-2.42-2.75a2.88,2.88,0,0,0-2.13,1.14c-.14-.62-.38-1.14-1.09-1.14a1.78,1.78,0,0,0-.52,0,2.78,2.78,0,0,0-.62.81v.28c.19,0,.43.24.43.71v4c0,.47,0,1.33,0,1.56.52,0,1,0,1.52,0s.43-.14.43-.47v-4.6a2.23,2.23,0,0,1,1.52-.85c.61,0,1,.43,1,1.38ZM61.1,108.82v5.31c0,.14,0,.14.14.14a3.81,3.81,0,0,0,.66,0c0-.19,0-.52,0-.71v-4.69h1.8a.7.7,0,0,0,.28-.52H60.2a2.33,2.33,0,0,1-.81-.09c0,.09-.28.24-.28.43s0,.19.19.19h1.8Zm4,1.8v-2.51c0-.28,0-.38-.14-.38a1.74,1.74,0,0,0-.62.1c0,.19,0,.52,0,.71v4.64c0,.24,0,.9,0,1.09H65c.09,0,.14,0,.14-.24v-2.8a1.51,1.51,0,0,1,1.23-.66c.38,0,.76.28.76,1.19v2.32c0,.14,0,.19.09.19a2.87,2.87,0,0,0,.66,0c0-.14,0-.52,0-.71v-1.85c0-.85-.28-1.71-1.33-1.71a1.81,1.81,0,0,0-1.37.67Zm6.68,2.94a2.54,2.54,0,0,1-1,.19,1.41,1.41,0,0,1-1.42-1.56h1.33A2.91,2.91,0,0,0,72,111.9s0-.24,0-.38A1.45,1.45,0,0,0,70.54,110a2,2,0,0,0-1.94,2.28,1.86,1.86,0,0,0,2,2.09,3.19,3.19,0,0,0,.85-.09.76.76,0,0,0,.33-.66Zm-1.42-3.08a.86.86,0,0,1,.9.95c0,.24-.09.24-1.23.24H69.4c0-.33.33-1.18,1-1.18Zm4.41-1.37v4a10.38,10.38,0,0,1,0,1.14h.62c.14,0,.19,0,.19-.24v-2.32h.62c.19,0,.24,0,.38.28,1.37,2.28,1.52,2.32,1.94,2.32a1.26,1.26,0,0,0,.52-.09,18,18,0,0,1-1.85-2.7,1.85,1.85,0,0,0,1-1.56c0-1.28-.85-1.75-2.09-1.75a9.49,9.49,0,0,0-1.33.14c0,.1,0,.33,0,.76Zm.76,2v-2.32a1.92,1.92,0,0,1,.57,0A1.1,1.1,0,0,1,77.36,110c0,.71-.47,1.23-.9,1.23A5,5,0,0,1,75.56,111.14ZM80,107.92a.48.48,0,0,0-.47.47.45.45,0,0,0,.47.47.44.44,0,0,0,.43-.47A.47.47,0,0,0,80,107.92Zm-.38,3.27v1.61c0,.57,0,1.09,0,1.47a1.61,1.61,0,0,0,.57,0c.14,0,.24,0,.24-.24v-3.41c0-.52,0-.62-.14-.62a3.21,3.21,0,0,0-.66.1c0,.24,0,.52,0,1.14ZM82.86,110a1.52,1.52,0,0,0-1.56,1.56,1.31,1.31,0,0,0,.62,1.19c-.19.24-.76.47-.76.62a.88.88,0,0,0,.71.76c-.33.24-.85.62-.85,1,0,.71.66,1.18,1.8,1.18s2.23-.57,2.23-1.66a1.07,1.07,0,0,0-1.09-1l-1.33,0c-.47,0-.66-.14-.66-.28a2.37,2.37,0,0,1,.38-.43,1.66,1.66,0,0,0,.47.09,1.47,1.47,0,0,0,1.56-1.47,1.14,1.14,0,0,0-.19-.71,2.18,2.18,0,0,0,.62,0c.14,0,.19-.24.19-.47a.29.29,0,0,0,0-.19,5.29,5.29,0,0,1-1.09.1,1.35,1.35,0,0,0-1-.29Zm0,.48c.47,0,.76.47.76,1s-.19.95-.76.95a.88.88,0,0,1-.85-.95A.94.94,0,0,1,82.86,110.43Zm-1,4.6a.82.82,0,0,1,.57-.71,1.57,1.57,0,0,1,.57-.09c1.14,0,1.33.24,1.33.62s-.57.95-1.33.95-1.14-.28-1.14-.76Zm4.6-4.41v-2.51c0-.28,0-.38-.14-.38a2,2,0,0,0-.66.1c0,.19,0,.52,0,.71v4.64c0,.24,0,.9,0,1.09h.62c.09,0,.19,0,.19-.24v-2.8a1.35,1.35,0,0,1,1.19-.66c.43,0,.76.28.76,1.19v2.32c0,.14,0,.19.09.19a2.67,2.67,0,0,0,.66,0v-2.56c0-.85-.28-1.71-1.37-1.71a1.63,1.63,0,0,0-1.33.67Zm6.07,2.89a1.57,1.57,0,0,1-.71.24.64.64,0,0,1-.66-.71,11.58,11.58,0,0,1,0-1.37c0-.47,0-.9,0-1h.57c.66,0,.85,0,.95-.57H91.11v-.71a.56.56,0,0,0-.47.28,2.48,2.48,0,0,0-.76.81c0,.14.14.19.43.19v2.51a1.09,1.09,0,0,0,1.19,1.18c.81,0,1-.33,1-.57a.37.37,0,0,0,0-.24ZM101,96.3V92.65c0-.95,0-1.09-.28-1.09a10.13,10.13,0,0,0-1.66.28c0,.19,0,.52,0,1.23v9.67a8.69,8.69,0,0,0,1.56-.09c.28,0,.33-.14.33-.43V97.49a2.35,2.35,0,0,1,1.52-.76c.62,0,1,.38,1,1.37v4.36a.25.25,0,0,0,.28.28,12,12,0,0,0,1.66-.14c0-.24-.09-.95-.09-1.09v-3.6c0-1.56-.71-2.61-2.28-2.61a2.69,2.69,0,0,0-2.13,1Zm11.24,5-.09-.14a5.51,5.51,0,0,1-1.61.28,2.09,2.09,0,0,1-2.28-2.09c.28,0,.62,0,1,0,.81,0,1.71,0,1.94,0,.43-.09,1.19-.43,1.28-.66a1.83,1.83,0,0,0,.1-.62,2.6,2.6,0,0,0-2.8-2.8c-2.13,0-3.41,1.9-3.41,3.89a3.36,3.36,0,0,0,3.65,3.7,5.18,5.18,0,0,0,1.33-.24,1.72,1.72,0,0,0,.9-1.33Zm-2.65-4.79c.81,0,1.18.66,1.18,1.42,0,.09-.09.28-.19.28-.38,0-.71,0-1.09,0a9.54,9.54,0,0,1-1.19,0c0-.62.43-1.71,1.28-1.71Zm5.26-4.69a1,1,0,0,0-1.09,1.09,1,1,0,0,0,1,1,1.06,1.06,0,0,0,1-1.09A1,1,0,0,0,114.81,91.85Zm-1,4.6v5.36c0,.19,0,.43,0,.95a11.84,11.84,0,0,0,1.47,0c.38,0,.47-.14.47-.43V96.45c0-.9,0-1.09-.28-1.09a11.06,11.06,0,0,0-1.71.19c0,.19.1.71.1.9Zm3.7.71v3.65c0,.85-.09,1.71-.09,1.94a8.44,8.44,0,0,0,1.56-.09c.33,0,.43-.1.43-.43v-4.6a1.88,1.88,0,0,1,1.42-.85,1.23,1.23,0,0,1,1.09,1.33v3.56c0,.28,0,.81,0,1.09a9,9,0,0,0,1.56-.09c.28,0,.33-.1.33-.43V97.58a1.91,1.91,0,0,1,1.47-.81c.52,0,1,.47,1,1.33v4.36c0,.19,0,.28.24.28a12.76,12.76,0,0,0,1.66-.14c0-.14,0-.71,0-.95V97.82a2.23,2.23,0,0,0-2.28-2.51,3.19,3.19,0,0,0-2.37,1.23,2,2,0,0,0-2-1.23,2.85,2.85,0,0,0-2.18,1.14,1.15,1.15,0,0,0-1.23-1.14,1.18,1.18,0,0,0-.43,0,2.7,2.7,0,0,0-.57.81v.28a.68.68,0,0,1,.43.71Zm17.54,4.17-.1-.14a5.17,5.17,0,0,1-1.61.28,2,2,0,0,1-2.23-2.09c.28,0,.57,0,.95,0,.81,0,1.71,0,2,0s1.14-.43,1.23-.66a1.66,1.66,0,0,0,.14-.62,2.64,2.64,0,0,0-2.84-2.8c-2.13,0-3.37,1.9-3.37,3.89a3.33,3.33,0,0,0,3.6,3.7,5.18,5.18,0,0,0,1.33-.24,1.72,1.72,0,0,0,.9-1.33Zm-2.61-4.79c.81,0,1.14.66,1.14,1.42,0,.09,0,.28-.19.28-.38,0-.71,0-1.09,0a9.91,9.91,0,0,1-1.18,0c0-.62.43-1.71,1.33-1.71Zm4.17.62v3.6c0,.14,0,1.66,0,2a9.2,9.2,0,0,0,1.61-.09c.33,0,.33-.14.33-.38V99c0-1.19.76-1.75,1.19-1.75a4.17,4.17,0,0,1,.71.09.58.58,0,0,0,.47-.24,2.68,2.68,0,0,0,.38-1.42,1.71,1.71,0,0,0-.9-.33,2.21,2.21,0,0,0-2,1.66c0-.95-.28-1.66-1.09-1.66a1.77,1.77,0,0,0-.57.09,1.6,1.6,0,0,0-.57.76v.28c.24,0,.47.33.47.71Zm-41.48,12.9,1.33,4.27c.57,0,.62-.24.71-.43l1.33-4.41,1.37,4.84c.66,0,.66-.24.71-.38l1.8-5.26a.42.42,0,0,0,0-.24s-.1-.19-.14-.19l-.52,0-1.56,4.93-1.33-4.69c0-.14-.09-.24-.24-.24a.86.86,0,0,0-.52.14v.24l-1.33,4.5L95.57,109c-.14-.57-.24-.76-.38-.76a1.74,1.74,0,0,0-.66.19l.62,1.66Zm10.71,4v-.38a.61.61,0,0,1-.28,0,.25.25,0,0,1-.28-.28v-2c0-.9-.33-1.52-1.33-1.52a2.79,2.79,0,0,0-1.61.66c.1.33.19.43.38.43s.52-.47,1.09-.47a.73.73,0,0,1,.76.81v.38a1.2,1.2,0,0,0-.38,0c-.52.1-1.9.47-1.9,1.47a1,1,0,0,0,1,1,1.63,1.63,0,0,0,1.23-.62.64.64,0,0,0,.66.62.75.75,0,0,0,.61-.24Zm-2.8-.85c0-.57.76-.85,1.52-1v.62c0,.57-.76.85-1,.85A.46.46,0,0,1,103.06,113.23Zm3.46-3.32a1.46,1.46,0,0,0-.57.24c.43.95,1.23,3.08,1.37,3.46.09.19.09.33.14.38a6.29,6.29,0,0,1-1.56,2,.67.67,0,0,0,.57.28c.14,0,.76-.43,1.61-2a17.66,17.66,0,0,0,1.56-4.17c0-.14-.28-.24-.71-.24a22.9,22.9,0,0,1-1,3.27c-.28-.71-1-2.75-1.18-3.08a.32.32,0,0,0-.24-.19Zm7.92,3.6a1.57,1.57,0,0,1-.71.24.64.64,0,0,1-.66-.71,11.36,11.36,0,0,1,0-1.37c0-.47,0-.9,0-1h.57c.66,0,.85,0,.95-.57h-1.52v-.71a.56.56,0,0,0-.47.28,2.48,2.48,0,0,0-.76.81c0,.14.14.19.43.19v2.51a1.09,1.09,0,0,0,1.18,1.18c.81,0,1-.33,1-.57a.35.35,0,0,0,0-.24Zm2.51-3.56a2.12,2.12,0,0,0-2.13,2.23,2.13,2.13,0,1,0,2.13-2.23Zm0,.52c.71,0,1.33.62,1.33,1.66s-.52,1.66-1.28,1.66-1.37-.66-1.37-1.71S116.24,110.48,116.95,110.48Zm25.13-16v8c0,.24.09.28.33.28a6.65,6.65,0,0,0,1.52-.14c0-.24,0-1.85,0-4.17h2c.62,0,.9-.14,1.09-1.33h-3.13V93.84h2.42c.52,0,.85-.28,1-1.33h-3.56a11.53,11.53,0,0,0-1.71.19c0,.24,0,.62,0,1.76Zm5.83,2.94v2.84c0,1.61.71,2.65,2.37,2.65a3.58,3.58,0,0,0,2.23-1.14,1.38,1.38,0,0,0,1.56,1.14c.43,0,.76-.47.85-.81l0-.43a.83.83,0,0,1-.85-.9V97.63c0-.43,0-1.9,0-2.23-.47,0-.95,0-1.61.09-.19,0-.28.19-.28.66v4.5a2,2,0,0,1-1.33.71c-.52,0-1.14-.24-1.14-1.56V96.45c0-.9,0-1-.33-1a9.89,9.89,0,0,0-1.66.19,16.73,16.73,0,0,1,.09,1.8Zm12.7.76v4.31c0,.19.1.28.33.28a11.91,11.91,0,0,0,1.61-.14c0-.24,0-.95,0-1.23V98.06c0-1.28-.43-2.75-2.46-2.75a3.07,3.07,0,0,0-2.13,1.14c-.1-.62-.33-1.14-1.09-1.14a2,2,0,0,0-.52,0,3.94,3.94,0,0,0-.57.81v.28c.14,0,.43.24.43.71v4c0,.47,0,1.33,0,1.56.52,0,1,0,1.52,0,.33,0,.43-.14.43-.47v-4.6a2.22,2.22,0,0,1,1.47-.85c.67,0,1.09.43,1.09,1.38Zm8.06-4.6V95.5a2.37,2.37,0,0,0-1.09-.19,3.91,3.91,0,0,0-4,4,3.26,3.26,0,0,0,3.37,3.56,3.34,3.34,0,0,0,2-.85,1.47,1.47,0,0,0,1.56.85c.43,0,.66-.43.85-.81v-.47c-.43,0-.81-.19-.81-.85V92.65c0-1-.09-1.09-.28-1.09a9.85,9.85,0,0,0-1.71.28,11.94,11.94,0,0,1,.09,1.71Zm0,3.27v4.08a1.93,1.93,0,0,1-1.19.52,2.09,2.09,0,0,1-1.94-2.32,2.26,2.26,0,0,1,2.09-2.51,2.13,2.13,0,0,1,1,.24Zm6.16-1.52a2.3,2.3,0,0,0-2.51,2.23,1.76,1.76,0,0,0,.9,1.75l.9.57c.24.14,1,.43,1,.95a.8.8,0,0,1-.85.71c-.9,0-1.28-.47-1.66-.47s-.62.62-.62,1.09a3.22,3.22,0,0,0,2.13.76c1.47,0,2.8-.81,2.8-2.42,0-.71-.14-1.28-1.8-2.18-1-.57-1-.71-1-1a.68.68,0,0,1,.66-.66c.76,0,.85.28,1.09.28s.24-.09.38-.19a1.56,1.56,0,0,0,.28-.9A2.36,2.36,0,0,0,174.83,95.31Zm3.56-.71a1.4,1.4,0,0,1,0-2.8,1.4,1.4,0,0,1,0,2.8Zm0,.28A1.61,1.61,0,0,0,180,93.22a1.58,1.58,0,0,0-1.61-1.66,1.61,1.61,0,0,0-1.61,1.66A1.64,1.64,0,0,0,178.39,94.88Zm.28-1.61c.33,0,.57-.14.57-.47,0-.52-.47-.52-.66-.52h-.76v1.85h.28v-.85h.28l.52.85h.28l-.52-.85ZM178.1,93v-.52h.43c.24,0,.43,0,.43.28s-.33.24-.57.24h-.28Zm-56.27,21c0,.19.1.19.19.19a6.39,6.39,0,0,0,.66,0,3.76,3.76,0,0,1,0-.43v-5.26c0-.24,0-.33-.14-.33a3.3,3.3,0,0,0-.66.09v5.78Zm4.79-2.42,0,2.51s0,.1.19.1.43,0,.62,0c0-.24,0-.62,0-.81v-1.8c0-.95-.28-1.66-1.33-1.66a1.59,1.59,0,0,0-1.37.76c0-.57-.28-.81-.62-.81a2.16,2.16,0,0,0-.33.33v.14c.14,0,.28.19.28.52v2.42c0,.14,0,.66,0,.95h.47c.28,0,.28,0,.28-.24v-2.75a1.66,1.66,0,0,1,1.09-.71c.52,0,.86.33.86,1.09Zm1.8-1.75a1.21,1.21,0,0,0-.62.24c.09.24.24.57.57,1.42l1,2.75c.52,0,.66-.19.71-.38l1.33-3.27a1.36,1.36,0,0,0,.14-.47c0-.19-.28-.28-.62-.28l-1.23,3.41c-.33-1.18-.9-2.7-1.09-3.18,0-.14-.14-.24-.19-.24Zm6.54,3.65a2.54,2.54,0,0,1-1,.19,1.41,1.41,0,0,1-1.42-1.56h1.33a2.91,2.91,0,0,0,1.33-.28s0-.24,0-.38a1.45,1.45,0,0,0-1.52-1.56,2,2,0,0,0-1.94,2.28,1.86,1.86,0,0,0,2,2.09,3.21,3.21,0,0,0,.85-.09.76.76,0,0,0,.33-.66Zm-1.42-3.08a.86.86,0,0,1,.9.95c0,.24-.09.24-1.23.24h-.66C132.55,111.33,132.88,110.48,133.54,110.48Zm3.6-.52a1.25,1.25,0,0,0-1.33,1.23,1.05,1.05,0,0,0,.57.95l.76.43a.64.64,0,0,1,.43.57.66.66,0,0,1-.71.66c-.62,0-.81-.33-1-.33s-.28.28-.28.47a2.36,2.36,0,0,0,1.23.38c.76,0,1.52-.38,1.52-1.28a1,1,0,0,0-.47-.9l-1-.62c-.19-.14-.28-.24-.28-.43a.55.55,0,0,1,.57-.57,1.6,1.6,0,0,1,.71.19c.24,0,.28-.38.28-.47a1.45,1.45,0,0,0-.95-.29Zm4.17,3.56a1.77,1.77,0,0,1-.76.24.66.66,0,0,1-.66-.71,11.81,11.81,0,0,1,0-1.37c0-.47,0-.9,0-1h.57c.66,0,.9,0,1-.57h-1.56c0-.14,0-.43,0-.71a.56.56,0,0,0-.47.28,3.22,3.22,0,0,0-.81.81c0,.14.14.19.47.19v2.51a1.06,1.06,0,0,0,1.14,1.18c.81,0,1.09-.33,1.09-.57a.36.36,0,0,0,0-.24Z" transform="translate(-20 -82.46)"/></svg>