<svg id="Layer_1" data-name="Layer 1" xmlns="http://www.w3.org/2000/svg" viewBox="0 0 160 60.4"><defs><style>.cls-1{fill-rule:evenodd;}</style></defs><title>ParkerHannifin_logo</title><path class="cls-1" d="M20,69.8V99H67v7.21H20V130.2H180V69.8Zm46.62,45.56v5.51H53.91V107.95H68.74V97.35H53.91V88.87H68.53S81.67,87,81.67,102.65C81.67,116.85,66.62,115.36,66.62,115.36Zm35,5.51h-15c-2.12,0-6.78-.85-6.78-7,0-5.93,5.09-5.93,7.63-5.93H91v6.57h1.48v-8.26H82.73V98.62h12.5a6,6,0,0,1,6.36,5.93Zm16.32-14.41h-5.3v14.41H103.5v-17c0-3,3.39-5.51,7.21-5.51h7.21Zm14.41,14.41-4-7.42v7.42h-9.11V89.09h8.69v17.38l4.24-7.84h10l-6.57,11,6.78,11.23Zm28.61-8.9H151.6V105.4h-1.48v8.05h10.81v7.42h-12.5c-4.87,0-8.26-3-8.26-7.42,0-4.24-.21-7.63.42-10.17.64-2.33,3-5.09,9.75-5.09s10.6,2.33,10.6,6.36ZM177,106.46h-5.09v14.41h-9.11v-17c0-3,3.39-5.51,7.21-5.51h7Z" transform="translate(-20 -69.8)"/></svg>