<svg id="Layer_1" data-name="Layer 1" xmlns="http://www.w3.org/2000/svg" viewBox="0 0 160 43.46"><defs><style>.cls-1{fill:#313c93;}</style></defs><title>pearson</title><path class="cls-1" d="M20,121.52a274,274,0,0,1,80.45-11.91A277.39,277.39,0,0,1,180,121.31v.21c-21.35-4.79-47.85-10-79.55-10-32,0-59,5.27-80.45,10.19v-.21ZM177.3,78.9c-.49,3.39-.7,19.09-.07,22.49a13.8,13.8,0,0,0-2.91.07c-1.8-2.84-10.46-14.51-12.54-17.08-.14,4.51-.21,13.06.07,17.08a13.5,13.5,0,0,0-2.91,0c.49-3.05.56-19.51,0-22.56a21.83,21.83,0,0,0,3,.07c2.56,3.46,9.77,13.12,12.47,16.66,0-4.17.14-13.06-.14-16.66a9.06,9.06,0,0,0,3.05-.07Zm-24.95,11c0,6.39-4.64,11.87-11,11.87-6.73,0-11.19-5.34-11.19-11.87a11.11,11.11,0,1,1,22.21,0ZM98,90.83c2.08,2.57,6.13,7.92,8.14,10.62a19.13,19.13,0,0,0-4.31,0A111.56,111.56,0,0,0,95,91.81l-.28-1.94c3,.07,5.2-1.46,5.2-4.72,0-2.78-2.43-4.24-4.92-4.24-.83,0-1.39-.07-2.22,0-.21,4.24,0,15.77.21,20.48a22.77,22.77,0,0,0-3.74.07,190.52,190.52,0,0,0,0-22.7c1.8.14,2.57.14,3.19.14a24.53,24.53,0,0,1,3-.14c3.26,0,7.86,1.11,7.86,5.89A6,6,0,0,1,98,90.83ZM82.9,101.46a24,24,0,0,0-3.88,0c-.42-1.53-1.25-4.09-2.15-6.59a61.69,61.69,0,0,0-8.81,0c-.56,1.81-1.6,5.28-1.94,6.59a22.89,22.89,0,0,0-3.12,0c1.46-3.19,7.35-19.37,8.18-22.56a11.23,11.23,0,0,0,3.4,0c.9,3.46,6.93,19.44,8.32,22.56ZM57.8,99c-.07.83-.07,1.66-.07,2.5a82.57,82.57,0,0,0-11.72,0,226.87,226.87,0,0,0,0-22.77,107.68,107.68,0,0,0,11.58.07,15,15,0,0,0,0,2.49,79.52,79.52,0,0,0-8-.28c0,1.46-.07,5.56,0,7.5a40.21,40.21,0,0,0,7.63-.28,15.71,15.71,0,0,0,0,2.57,47.79,47.79,0,0,0-7.63-.21c-.14,2.43-.14,5.9-.07,8.61,2.29.07,6-.07,8.32-.21ZM39,84.86c0,5-5.06,7.64-9.5,7.5a7,7,0,0,0-.21-1.74c3.88-.21,6.45-2,6.45-5.56,0-2.71-2.15-4.79-5.55-4.79-.07,0-1.73-.07-2.77,0-.07,1.39-.07,16.53.35,21.18a14.13,14.13,0,0,0-3.81-.07c.28-3.05.49-19.86,0-23.11a18.82,18.82,0,0,0,3.33.07c.76,0,1.6-.07,3.26-.07,3.68-.07,8.46,1.38,8.46,6.59Zm109.82,5.07c0-3.75-2.36-9-7.57-9-5.41,0-7.49,5.28-7.49,9,0,4.45,2.29,9.65,7.57,9.65,5.07,0,7.5-5.21,7.5-9.65ZM75.9,92.36c-1-3.06-2.64-7.71-3.68-10.35-1.25,3.89-2.36,7.15-3.4,10.35A24.11,24.11,0,0,0,75.9,92.36Zm48.49,2.78c0,5.14-4.15,6.52-6.85,6.52a15.9,15.9,0,0,1-6.32-1.87,18,18,0,0,0,0-3.33c1.32,1.18,4.11,2.78,6.11,2.78a3.43,3.43,0,0,0,3.74-3.47c.07-1.46-1.11-2.78-2.42-3.82s-3-2.08-4-2.78c-1.81-1.32-2.93-2.71-2.93-5,0-3,2.71-5.41,6.53-5.41a9.77,9.77,0,0,1,5.6,1.8,10.2,10.2,0,0,0-1.38,2.57,5.28,5.28,0,0,0-4.15-2.22A3,3,0,0,0,115,84a3.09,3.09,0,0,0,1.38,2.22,30.64,30.64,0,0,0,3.73,2.57c2.63,1.67,4.29,3.06,4.29,6.32Z" transform="translate(-20 -78.27)"/></svg>