<?xml version="1.0" encoding="UTF-8"?>
<!-- Generator: Adobe Illustrator 19.2.1, SVG Export Plug-In . SVG Version: 6.00 Build 0)  -->
<svg xmlns="http://www.w3.org/2000/svg" xmlns:xlink="http://www.w3.org/1999/xlink" id="Слой_1" x="0px" y="0px" width="365.8px" height="80px" viewBox="0 0 365.8 80" xml:space="preserve">
<g>
	<g>
		<g>
			<path fill="#107BBF" d="M99.8,36.6c0-10.3,5.8-17.6,15.4-17.6c10.1,0,15.2,7.5,15.2,17.3c0,7-2.7,12.3-7,15.1     c1.6,1,3.4,1.9,5.9,2.2c1,0.1,1.3,0.6,1.1,1.4l-0.7,3.4c-0.1,0.8-0.4,1.1-1.1,1.1c-0.7,0-1.9-0.2-2.8-0.4c-4.2-1-6-3.4-8-4.6     c-0.9-0.5-1.4-0.6-2.8-0.6C105.3,53.9,99.8,47,99.8,36.6z M115.1,25.6c-4.2,0-7,3.7-7,10.9c0,7.6,2.6,11.1,7.2,11.1     c4.2,0,7-3.5,7-11C122.2,28.7,119.7,25.6,115.1,25.6z"></path>
			<path fill="#107BBF" d="M163.3,53.3h-5.4c-1.2,0-1.6-0.5-1.9-1.4l-1.9-5.6h-11.9l-1.9,5.8c-0.2,0.6-0.6,1.2-1.4,1.2h-5.5     c-0.5,0-0.8-0.3-0.8-0.8c0-0.2,0-0.4,0.1-0.6L144.1,21c0.3-0.7,0.7-1.2,1.6-1.2h5c1,0,1.5,0.4,1.7,1.1l11.7,30.7     c0.1,0.3,0.1,0.5,0.1,0.7C164.3,52.9,164,53.3,163.3,53.3z M152,40.5l-3-9.5c-0.3-1.1-0.6-2-0.9-2.8H148     c-0.2,0.9-0.5,1.8-0.9,2.8l-3,9.5H152z"></path>
			<path fill="#107BBF" d="M190.9,22.6l-1.4,4.1c-0.2,0.5-0.4,0.7-0.7,0.7c-0.2,0-0.4-0.1-0.6-0.2c-2.6-1.2-4.5-1.6-6.8-1.6     c-5,0-8.3,3.9-8.3,10.9c0,7.6,3.7,10.9,8.4,10.9c2.3,0,4.2-0.4,6.5-1.4c0.3-0.1,0.5-0.2,0.7-0.2c0.4,0,0.7,0.2,0.9,0.8l1.2,3.6     c0.1,0.3,0.1,0.5,0.1,0.8c0,0.5-0.2,0.8-0.9,1.1c-3.3,1.3-6.1,1.9-9.8,1.9c-10.2,0-15.4-6.8-15.4-17.2c0-10.4,6.3-17.7,16-17.7     c3.5,0,6.4,0.7,9.2,1.9c0.7,0.3,0.9,0.6,0.9,1C191,22.1,191,22.4,190.9,22.6z"></path>
			<path fill="#107BBF" d="M204.4,53.9c-8.2,0-12-5.3-12-12.5c0-7.1,4.5-12.4,12.3-12.4c8.2,0,12,5.3,12,12.5     C216.7,48.6,212.3,53.9,204.4,53.9z M204.7,34.8c-3.6,0-4.7,3.1-4.7,6.6c0,3.6,1,6.8,4.6,6.8c3.6,0,4.7-3.2,4.7-6.7     C209.3,37.9,208.2,34.8,204.7,34.8z"></path>
			<path fill="#107BBF" d="M256.5,51.9c0,1-0.4,1.4-1.4,1.4h-4.3c-1,0-1.5-0.3-1.5-1.4V38.9c0-1.9-0.4-3.5-2.6-3.5     c-1.7,0-3.7,0.9-5,2v14.4c0,1-0.4,1.4-1.4,1.4h-4c-1,0-1.5-0.3-1.5-1.4V38.9c0-1.9-0.4-3.5-2.6-3.5c-1.6,0-3.2,0.8-4.6,2v14.4     c0,1-0.4,1.4-1.4,1.4h-4.3c-1,0-1.5-0.3-1.5-1.4V31c0-0.9,0.5-1.3,1.4-1.3h4c0.8,0,1.3,0.3,1.4,1l0.1,0.9     c1.9-1.6,4.4-2.6,6.9-2.6c3.2,0,5,1.6,6,3.2c2.2-2.2,5.4-3.2,8.4-3.2c3.8,0,6.1,2.1,7,4.1c0.9,1.9,1,4.1,1,7.5V51.9z"></path>
			<path fill="#107BBF" d="M281.7,50.6c-1.8,2.1-4.3,3.4-7.5,3.4c-2.1,0-4.1-0.7-5.4-1.9v10.2c0,1.1-0.5,1.5-1.5,1.5h-4.4     c-0.9,0-1.4-0.5-1.4-1.4V31.1c0-1,0.5-1.4,1.4-1.4h3.7c0.9,0,1.4,0.2,1.5,1l0.1,1c1.3-1.4,3.9-2.6,6.4-2.6c3.3,0,5.5,1.3,7,2.9     c2.1,2.2,3.1,5.7,3.1,9C284.8,44.9,283.7,48.3,281.7,50.6z M276.1,36.8c-0.8-1.3-2.1-1.7-3.4-1.7c-1.4,0-3.2,0.9-4,1.7v9.8     c0.9,0.8,2.4,1.5,3.8,1.5c1.4,0,2.6-0.7,3.2-1.6c1-1.3,1.4-2.8,1.4-5C277.2,39.4,276.8,37.8,276.1,36.8z"></path>
			<path fill="#107BBF" d="M295.8,51.9c0,0.9-0.5,1.4-1.3,1.4h-4.7c-0.7,0-1.3-0.4-1.3-1.3V20.6c0-1,0.4-1.3,1.2-1.4l5.1-0.6     c0.7,0,1,0.4,1,1.2V51.9z"></path>
			<path fill="#107BBF" d="M322.3,42c0,1.2-0.5,1.4-1.7,1.4H307c0.6,3,3.3,4.7,6.2,4.7c2.1,0,4.2-0.5,6.1-1.3     c0.2-0.1,0.4-0.1,0.6-0.1c0.4,0,0.7,0.3,0.8,0.7c0.2,0.8,0.9,3,0.9,3.8c0,0.6-0.4,0.8-0.9,1.1c-2.6,1.2-5.9,1.6-8.7,1.6     c-7.7,0-12.5-4.7-12.5-12.5c0-7.5,5.1-12.4,12.5-12.4c3.1,0,5.7,1.2,7.5,3.1c2.4,2.6,2.9,5.9,2.9,9.3V42z M315.2,38.8     c0-2.1-1.2-4.2-3.7-4.2c-2.4,0-4,1.9-4.3,4.2H315.2z"></path>
			<path fill="#107BBF" d="M341,52.6c-1.8,0.8-4,1.3-6.2,1.3c-2.7,0-4.9-0.6-6.2-2.2c-1.5-1.8-1.6-3.8-1.6-7.8v-9.3H325     c-1.2,0-1.4-0.3-1.4-1.6V31c0-0.7,0.4-1.3,1.1-1.3h2.2v-5.1c0-1,0.6-1.2,1.5-1.3l4.6-0.6c0.7,0,1.1,0.4,1.1,1.3v5.6h5.3     c0.7,0,1.2,0.3,1.2,1v2.8c0,0.7-0.5,1.1-1.2,1.1h-5.3v9.4c0,2.5,0.3,4.1,2.5,4.1c1.2,0,2.1-0.3,3.1-0.6c0.3-0.1,0.5-0.1,0.7-0.1     c0.4,0,0.6,0.2,0.7,0.7l0.6,3.1c0,0.1,0,0.3,0,0.4C341.7,52.2,341.5,52.4,341,52.6z"></path>
			<path fill="#107BBF" d="M365.8,42c0,1.2-0.5,1.4-1.7,1.4h-13.5c0.6,3,3.3,4.7,6.2,4.7c2.1,0,4.2-0.5,6.1-1.3     c0.2-0.1,0.4-0.1,0.6-0.1c0.4,0,0.7,0.3,0.8,0.7c0.2,0.8,0.9,3,0.9,3.8c0,0.6-0.4,0.8-0.9,1.1c-2.6,1.2-5.9,1.6-8.7,1.6     c-7.7,0-12.5-4.7-12.5-12.5c0-7.5,5.1-12.4,12.5-12.4c3.1,0,5.7,1.2,7.5,3.1c2.4,2.6,2.9,5.9,2.9,9.3V42z M358.7,38.8     c0-2.1-1.2-4.2-3.7-4.2c-2.4,0-4,1.9-4.3,4.2H358.7z"></path>
		</g>
	</g>
	<g>
		<polygon fill="#FFFFFF" points="6.5,31.1 22.4,15.2 47.9,5.6 72.8,30.5 77.1,45.3 66,56.4 47.3,73.1 28,70.4 5.2,47.6   "></polygon>
		<g>
			<g>
				<path fill-rule="evenodd" clip-rule="evenodd" fill="#107BBF" d="M76.1,46.2l2.2-2.2c2.2-2.2,2.2-5.8,0-8l-9.9-9.9L76.1,46.2z"></path>
			</g>
			<g>
				<path fill-rule="evenodd" clip-rule="evenodd" fill="#107BBF" d="M56.5,21.1c-0.3,1.2-0.7,2.5-1.2,3.9l-4.2,13H62L57.9,25      c-0.5-1.5-0.9-2.7-1.2-3.9H56.5z"></path>
			</g>
			<g>
				<g>
					<path fill-rule="evenodd" clip-rule="evenodd" fill="#107BBF" d="M28.7,24.5c-5.8,0-9.7,5.1-9.7,15c0,10.5,3.6,15.2,9.9,15.2       c5.8,0,9.6-4.9,9.6-15.2C38.5,28.8,35,24.5,28.7,24.5z"></path>
				</g>
				<g>
					<path fill-rule="evenodd" clip-rule="evenodd" fill="#107BBF" d="M29,15.5c8.1,0,13.8,3.5,17.2,9l5-13.4c0.2-0.6,0.5-1,1-1.3       L44,1.7c-2.2-2.2-5.8-2.2-8,0L20.6,17.1C23.1,16.1,25.9,15.5,29,15.5z"></path>
				</g>
				<g>
					<path fill-rule="evenodd" clip-rule="evenodd" fill="#107BBF" d="M7.7,39.7c0-4.5,0.8-8.6,2.4-12.1L1.7,36       c-2.2,2.2-2.2,5.8,0,8l8.8,8.8C8.7,49.2,7.7,44.7,7.7,39.7z"></path>
				</g>
				<g>
					<path fill-rule="evenodd" clip-rule="evenodd" fill="#107BBF" d="M67.6,53.7L64.9,46H49.2c-1.3,6.3-4.5,11.1-8.9,14.1       c2.3,1.4,4.7,2.7,8.2,3c1.4,0.1,1.7,0.9,1.5,1.9l-1,4.7c-0.2,1.1-0.6,1.5-1.5,1.5c-1,0-2.7-0.3-3.9-0.5       c-5.8-1.3-8.3-4.7-11-6.3c-1.3-0.7-1.9-0.9-3.9-0.9c-3.6,0-6.8-0.7-9.5-2L36,78.3c2.2,2.2,5.8,2.2,8,0l23.9-23.9       C67.8,54.2,67.7,54,67.6,53.7z"></path>
				</g>
			</g>
		</g>
	</g>
</g>
</svg>
