<?xml version="1.0" encoding="UTF-8"?>
<svg xmlns="http://www.w3.org/2000/svg" xmlns:xlink="http://www.w3.org/1999/xlink" width="281px" height="50px" viewBox="0 0 281 50">
  <!-- Generator: Sketch 46.1 (44463) - http://www.bohemiancoding.com/sketch -->
  <title>QASymphony</title>
  <desc>Created with Sketch.</desc>
  <defs></defs>
  <g id="Page-1" stroke="none" stroke-width="1" fill="none" fill-rule="evenodd">
    <g id="QASymphony">
      <g id="Group" fill="#488ECB">
        <path d="M2.6,13.3 L0,16.2 L6.4,22.6 C7.2,20.8 8.2,19.2 9.4,17.8 L2.6,13.3 Z" id="Shape"></path>
        <path d="M51.4,2.7 L50.1,0 C43.6,3.9 38,8.2 33.2,12.4 C35.3,13.3 37.2,14.6 38.9,16.1 C42.6,11.4 46.9,6.8 51.4,2.7 Z" id="Shape"></path>
        <path d="M33.2,12.4 C30.7,11.3 27.9,10.7 24.9,10.7 C18.7,10.7 13.1,13.5 9.4,17.8 L20.5,25 C23.2,21.9 27.5,17.3 33.2,12.4 Z" id="Shape"></path>
        <path d="M6.4,22.5 C5.4,24.9 4.8,27.5 4.8,30.3 C4.8,41.2 13.8,50 25,50 C36.1,50 45.2,41.2 45.2,30.3 C45.2,24.7 42.8,19.6 38.9,16.1 C31.7,25.1 26.2,34.3 23.9,39.9 L6.4,22.5 Z" id="Shape"></path>
      </g>
      <path d="M56.6,29.6 C56.6,21.4 60.7,17.3 69,17.3 C77.1,17.3 81.2,21.4 81.2,29.6 C81.2,36.3 78.6,40.3 73.5,41.5 L77.5,46.1 L73.9,48.8 L68.3,41.8 C60.8,41.8 56.9,37.7 56.6,29.6 Z M69,37.9 C74,37.9 76.5,35.1 76.5,29.5 C76.5,24 74,21.2 69,21.2 C63.9,21.2 61.3,24 61.3,29.5 C61.3,35.1 63.9,37.9 69,37.9 Z" id="Shape" fill="#488ECB" fill-rule="nonzero"></path>
      <polygon id="Shape" fill="#488ECB" fill-rule="nonzero" points="82.7 41.6 93.2 17.5 98.1 17.5 108.8 41.6 103.9 41.6 100.8 35 92.9 35 94.5 31.1 99.6 31.1 95.6 22 87.5 41.5 82.7 41.5"></polygon>
      <g id="Group" transform="translate(110.000000, 17.000000)" fill-rule="nonzero" fill="#58595B">
        <g id="Shape">
          <path d="M1.6,23.6 L1.6,19.6 C4.1,20.5 6.9,20.9 10,20.9 C13.8,20.9 15.7,19.7 15.7,17.2 C15.7,15.4 14.5,14.5 12.2,14.5 L8,14.5 C2.9,14.5 0.4,12.2 0.4,7.8 C0.4,2.9 4,0.4 11.2,0.4 C14,0.4 16.6,0.8 19.1,1.6 L19.1,5.6 C16.6,4.7 14,4.3 11.2,4.3 C7.1,4.3 5,5.5 5,7.8 C5,9.6 6,10.5 8,10.5 L12.2,10.5 C17.6,10.5 20.3,12.7 20.3,17.2 C20.3,22.3 16.9,24.8 10,24.8 C6.9,24.8 4.1,24.4 1.6,23.6 Z"></path>
        </g>
      </g>
      <g id="Group" transform="translate(130.000000, 23.000000)" fill-rule="nonzero" fill="#58595B">
        <g id="Shape">
          <path d="M0.7,0.9 L5.6,0.9 L10.2,13.7 L14.7,0.9 L19.5,0.9 L12,19.1 C10.7,22.3 8.5,24.6 5.6,26 L3.4,22.9 C5.4,22 6.9,20.6 7.8,18.7 L0.7,0.9 Z"></path>
        </g>
      </g>
      <g id="Group" transform="translate(151.000000, 23.000000)" fill-rule="nonzero" fill="#58595B">
        <g id="Shape">
          <path d="M0,18.6 L0,0.9 L3.5,0.9 L4,3.1 C6.1,1.6 8.2,0.9 10.2,0.9 C12.5,0.9 14.1,1.7 15.1,3.3 C17.4,1.7 19.6,0.9 21.6,0.9 C25.4,0.9 27.3,3.1 27.3,7.6 L27.3,18.6 L22.7,18.6 L22.7,7.5 C22.7,5.5 21.8,4.5 20.1,4.5 C18.7,4.5 17.3,5.3 15.8,6.8 L15.8,18.6 L11.2,18.6 L11.2,7.5 C11.2,5.5 10.4,4.5 8.7,4.5 C7.2,4.5 5.8,5.3 4.4,6.8 L4.4,18.6 L0,18.6 Z"></path>
        </g>
      </g>
      <g id="Group" transform="translate(182.000000, 23.000000)" fill-rule="nonzero" fill="#58595B">
        <g id="Shape">
          <path d="M0.1,1.6 C2.5,1.1 5.2,0.9 8.1,0.9 C14.5,0.9 17.7,3.7 17.7,9.3 C17.7,15.5 14.8,18.6 8.9,18.6 C7.4,18.6 6,18.3 4.7,17.8 L4.7,25 L0.1,25 L0.1,1.6 Z M4.6,14 C5.9,14.6 7.3,14.9 8.8,14.9 C11.6,14.9 13.1,13 13.1,9.3 C13.1,6.1 11.5,4.5 8.2,4.5 C6.7,4.5 5.5,4.6 4.6,4.7 L4.6,14 Z"></path>
        </g>
      </g>
      <g id="Group" transform="translate(202.000000, 17.000000)" fill-rule="nonzero" fill="#58595B">
        <g id="Shape">
          <path d="M0.2,24.6 L0.2,0.5 L4.8,0.5 L4.8,8.8 C6.7,7.5 8.8,6.9 11,6.9 C15.2,6.9 17.3,9.1 17.3,13.5 L17.3,24.6 L12.7,24.6 L12.7,13.4 C12.7,11.4 11.7,10.5 9.7,10.5 C8.1,10.5 6.5,11.2 4.8,12.7 L4.8,24.6 L0.2,24.6 Z"></path>
        </g>
      </g>
      <g id="Group" transform="translate(221.000000, 23.000000)" fill-rule="nonzero" fill="#58595B">
        <g id="Shape">
          <path d="M0.8,9.7 C0.8,3.7 3.9,0.7 10,0.7 C16.1,0.7 19.2,3.7 19.2,9.7 C19.2,15.7 16.1,18.7 10,18.7 C3.9,18.8 0.9,15.8 0.8,9.7 Z M10,15.2 C13.1,15.2 14.6,13.4 14.6,9.7 C14.6,6.1 13.1,4.3 10,4.3 C7,4.3 5.4,6.1 5.4,9.7 C5.4,13.4 6.9,15.2 10,15.2 Z"></path>
        </g>
      </g>
      <g id="Group" transform="translate(242.000000, 23.000000)" fill-rule="nonzero" fill="#58595B">
        <g id="Shape">
          <path d="M0.7,18.6 L0.7,0.9 L4.2,0.9 L4.8,3.2 C7,1.7 9.2,0.9 11.4,0.9 C15.6,0.9 17.7,3.1 17.7,7.5 L17.7,18.6 L13.1,18.6 L13.1,7.4 C13.1,5.4 12.1,4.5 10.1,4.5 C8.5,4.5 6.9,5.2 5.2,6.7 L5.2,18.6 L0.7,18.6 Z"></path>
        </g>
      </g>
      <g id="Group" transform="translate(261.000000, 23.000000)" fill-rule="nonzero" fill="#58595B">
        <g id="Shape">
          <path d="M0.3,0.9 L5.2,0.9 L9.8,13.7 L14.3,0.9 L19.1,0.9 L11.6,19.1 C10.3,22.3 8.1,24.6 5.2,26 L3,22.9 C5,22 6.5,20.6 7.4,18.7 L0.3,0.9 Z"></path>
        </g>
      </g>
    </g>
  </g>
</svg>
