<svg id="re_logo" data-name="re logo" xmlns="http://www.w3.org/2000/svg" viewBox="0 0 660.47 167.3" preserveAspectRatio="xMinYMin"><defs><style>.cls-1{fill:#e4002b;}.cls-2{fill:#fff;}.cls-3{fill:#333f48;}</style></defs><title>rea-logo</title><path class="cls-1" d="M0,83.19A83.65,83.65,0,1,0,84.1,0h-.47A83.64,83.64,0,0,0,0,83.19"/><path class="cls-2" d="M138.5,72.16h0L88.81,22.66a7,7,0,0,0-5.16-2.25h0a7,7,0,0,0-5.16,2.25l-49.7,49.5h0a10.73,10.73,0,0,0,7.59,18.28h6.84s0,37.58,0,37.67a7,7,0,0,0,7,7h66.92a7,7,0,0,0,7-7c0-.09,0-37.67,0-37.67h6.84a10.73,10.73,0,0,0,7.59-18.28m-27.55,5.36V122H56.34V77.52H42L83.65,36.05l41.67,41.47Z"/><path class="cls-3" d="M249.22,121.87H236.54c-1.14,0-1.55-1-2.07-2.08l-15-27.73h-1.45c-2.7,0-6.86-.31-9.25-.42v28.15a2,2,0,0,1-2,2.08H196.45a2.08,2.08,0,0,1-2.07-2.08V48.32c0-2.07,1.24-2.8,3.32-3.11a140.34,140.34,0,0,1,20.36-1.36c16,0,29.92,5.71,29.92,23.48v.93c0,11-5.51,17.86-14,21.19l16.31,30.33a1.39,1.39,0,0,1,.21.83A1.15,1.15,0,0,1,249.22,121.87ZM233.64,67.34c0-7.79-5.2-11.12-15.58-11.12-2.19,0-7.38.21-9.25.41V80c1.66.1,7.48.31,9.25.31,10.7,0,15.58-2.9,15.58-12Z"/><path class="cls-3" d="M300.22,121.25c-3.33.52-7.38,1.45-19.74,1.45-13.5,0-24-3.64-24-21.3V65.16c0-17.66,10.5-21.3,24-21.3,12.36,0,16.41.94,19.74,1.46,1.56.21,2.07.73,2.07,2.18v6.65a2.08,2.08,0,0,1-2.07,2.08H279c-6,0-8.2,2.08-8.2,8.93V76.38H299a2.08,2.08,0,0,1,2.07,2.08v7.48A2.08,2.08,0,0,1,299,88H270.82v13.4c0,6.86,2.18,8.93,8.2,8.93h21.2a2.08,2.08,0,0,1,2.07,2.08v6.65C302.3,120.52,301.78,121,300.22,121.25Z"/><path class="cls-3" d="M368.68,121.87h-11a2.19,2.19,0,0,1-2-1.77l-4.78-19.73H327l-4.78,19.73a2.19,2.19,0,0,1-2,1.77h-11a1.78,1.78,0,0,1-1.87-1.77,4.5,4.5,0,0,0,.1-.52l17-65.13c2.49-9.66,10-10.6,14.44-10.6s11.95.94,14.44,10.6l17,65.13a4.51,4.51,0,0,0,.1.52A1.78,1.78,0,0,1,368.68,121.87Zm-28-64.2C340.31,56.43,340,56,339,56s-1.35.42-1.66,1.66l-7.48,30.85h18.28Z"/><path class="cls-3" d="M484.87,74.19a29.38,29.38,0,0,0-14.33,3.74v41.76a2.18,2.18,0,0,1-2.08,2.18h-9.55a2.17,2.17,0,0,1-2.08-2.18V65.36a2.08,2.08,0,0,1,2.08-2.07h9A2.09,2.09,0,0,1,470,65.36v2.18a24.16,24.16,0,0,1,14.85-5A2.09,2.09,0,0,1,487,64.64v7.48A2.09,2.09,0,0,1,484.87,74.19Z"/><path class="cls-3" d="M514.33,122.7c-16.3,0-24.82-11-24.82-25.87V88.42c0-14.85,8.52-25.87,24.82-25.87s24.83,11,24.83,25.87v8.42C539.16,111.69,530.65,122.7,514.33,122.7Zm11.12-34.28c0-8.52-3.84-14-11.12-14s-11.11,5.5-11.11,14v8.42c0,8.52,3.85,14,11.11,14s11.12-5.5,11.12-14Z"/><path class="cls-3" d="M591.92,121.87h-9.56a2.08,2.08,0,0,1-2.07-2.08v-2.39c-5.41,3.53-9.67,5.19-16.31,5.19-5.19,0-9.76-1.35-12.78-4.36C547.35,114.39,546,108,546,99.33V65.47a2.17,2.17,0,0,1,2.07-2.18h9.56a2.17,2.17,0,0,1,2.08,2.18V99.33c0,5.19.41,8.21,2.39,10,1.46,1.25,3.22,1.87,6.44,1.87,3.85,0,8.83-2.59,11.74-4.16V65.47a2.17,2.17,0,0,1,2.07-2.18h9.56A2.17,2.17,0,0,1,594,65.47v54.33A2.09,2.09,0,0,1,591.92,121.87Z"/><path class="cls-3" d="M626,122.7a78.65,78.65,0,0,1-10-.73v18.39a2.08,2.08,0,0,1-2.08,2.07h-9.55a2.08,2.08,0,0,1-2.08-2.07V68.06c0-1.56.41-2.18,2.8-2.8A88.72,88.72,0,0,1,626,62.56c16.73,0,24.83,9.87,24.83,26.07v8C650.82,112.84,642.71,122.7,626,122.7Zm11.12-34.07c0-8.52-2.19-14.85-11.12-14.85a60.78,60.78,0,0,0-10,.73v36.25a86.81,86.81,0,0,0,10,.73c8.93,0,11.12-6.33,11.12-14.85Z"/><path class="cls-3" d="M444.72,121c-5.19,1-11.94,1.77-22.63,1.77-11.21,0-27.82-7.38-27.82-31.87v-15c0-24.6,15.78-32,28.14-32a136.6,136.6,0,0,1,22.32,1.87c1.35.31,2,.83,2,2.18v7c0,1.46-.41,2.18-2.07,2.18h-.31c-4.77-.42-11.94-.83-21.9-.83-7,0-13.6,4.88-13.6,19.62v15c0,14.74,7.16,19.52,13.29,19.52,3.84,0,7.06-.11,10.28-.31V83.58a2,2,0,0,1,2-2.08h10.28a2.08,2.08,0,0,1,2.07,2.08v34.88A2.3,2.3,0,0,1,444.72,121Z"/><path class="cls-3" d="M444.72,121c-5.19,1-11.94,1.77-22.63,1.77-11.21,0-27.82-7.38-27.82-31.87v-15c0-24.6,15.78-32,28.14-32a136.6,136.6,0,0,1,22.32,1.87c1.35.31,2,.83,2,2.18v7c0,1.46-.41,2.18-2.07,2.18h-.31c-4.77-.42-11.94-.83-21.9-.83-7,0-13.6,4.88-13.6,19.62v15c0,14.74,7.16,19.52,13.29,19.52,3.84,0,7.06-.11,10.28-.31V83.58a2,2,0,0,1,2-2.08h10.28a2.08,2.08,0,0,1,2.07,2.08v34.88A2.3,2.3,0,0,1,444.72,121Z"/><path class="cls-3" d="M654,60a6.6,6.6,0,1,1,6.48-6.6A6.43,6.43,0,0,1,654,60Zm0-12.05a5.15,5.15,0,0,0-5.29,5.46,5.29,5.29,0,1,0,10.56,0A5.13,5.13,0,0,0,654,47.9Zm1.45,8.79-1.14-2.54h-1.35v2.54h-1.2V49.81h2.53A2.21,2.21,0,0,1,656.72,52a2,2,0,0,1-1.25,2l1.29,2.73Zm-1.16-5.76h-1.35V53h1.35c.71,0,1.18-.33,1.18-1.08A1,1,0,0,0,654.27,50.93Z"/></svg>
