<svg id="Layer_1" data-name="Layer 1" xmlns="http://www.w3.org/2000/svg" viewBox="0 0 160 55.78"><defs><style>.cls-1{fill:#cf4044;}</style></defs><title>rmit_university</title><path d="M146.77,75.35h4.29V73.8H136.13v1.56h4.29v30.07h-4.29V107h14.93v-1.56h-4.29ZM174,107v-1.56h-4.58V75c7-.35,8.19,1.14,9.09,7.5H180l-.55-8.74H152.88l-.55,8.74h1.59c.89-6.36,2.08-7.84,9.09-7.5v30.38h-4.58V107H174ZM133.28,75.33V73.77H121l-7.2,22.69-7-22.69H94.7v1.56H99v30.06H94.36A3.93,3.93,0,0,1,90,101.05c.06-8.1-1.73-11-9.48-12.22v-.1c4.62-.5,10.53-1.8,10.53-7.42,0-6.91-6.46-7.55-11.87-7.55h-16v1.56h4.29v30.07H63.15V107H78.09v-1.56H73.8V89.55c2.75-.12,5.86.6,7.25,1.79s2,4.49,2,8.61c0,5.07,2.63,7,7.65,7h14.39v-1.56h-4.19V75.86h.1l9.88,31.09h1.69l9.93-31.09h.15v29.53h-4.28v1.56h14.93v-1.56H129V75.33ZM73.8,88V75.32h4.32c4.42,0,6.06,1.12,6.06,6.69,0,4.47-1.84,6-6.31,6ZM63.29,114.8h6.34v.57H68v9.28c0,1.76.44,2.65,2.61,2.66A3.2,3.2,0,0,0,73.39,126c.44-.48.44-2,.44-3.53v-6.44c0-.38-.31-.71-.86-.71H72.1v-.57h4v.57H75c-.44,0-.59.33-.59.71V124a3.81,3.81,0,0,1-.75,2.7c-.71.79-1.82,1.23-4,1.23-3.14,0-4.85-1.09-4.85-4.2v-8.32H63.28v-.57h0Zm24.83,13.09h-.44l-8.2-11.4v9.83c0,.48.27.67.75.71h1.09v.57H77.1V127H78c.65,0,.69-.44.69-1v-9.47c0-.94.17-1.19-1-1.19H77.1v-.57h5.06l5.39,7.59v-6.46c0-.38-.79-.56-1.26-.56h-.54v-.57h4v.57H89c-.56,0-.86.17-.86.56v12h0Zm2.76-.29V127H92.3V115.37H90.88v-.57h6.25v.57H95.52V127h1.61v.57H90.88Zm6.88-12.8h5.94v.57h-1.48l3.2,7.88L108,115.8c.06-.15,0-.42-1.09-.42h-.65v-.57h4v.57h-.79c-.46,0-.65.12-1.38,2.2l-3.58,10.31h-.59l-5.08-12.51H97.76v-.57h0Zm13.32,12.8V127h1.53V115.37h-1.36v-.57h10.48l.11,3.45h-.65c-.8-2.16-1.65-2.87-3.56-2.87h-1.8v5.35c1.88,0,2.28-.56,2.66-2.32h.63v5.44h-.63c-.27-1.84-.79-2.45-2.66-2.45V127h1.88c3,0,3.51-1.4,4-3.62h.59l-.12,4.2Zm12.59,0V127h1.49V115.37h-1.53v-.57h7.61c1.92,0,3.93.86,3.93,3.11s-2.66,2.72-4.27,2.89v0c2.66.5,3.77,1.55,3.77,3.39,0,1.59.08,2.28.35,2.57.13.14.52.29,1.48.08l.11.4a5.42,5.42,0,0,1-2.24.59c-2.34,0-3.12-1.05-3.18-4,0-2.28-.44-2.78-2-2.78h-.82V127H130v.57Zm4.71-7.15h.8c1.94,0,2.49-.33,2.49-1.67v-1.86c0-.92.31-1.55-1.92-1.55h-1.38v5.08ZM145,114.8h.59v3.39H145a3.68,3.68,0,0,0-3.32-3.11c-1.05,0-2.53.61-2.53,1.88s.8,1.44,1.74,1.65a22.59,22.59,0,0,1,3.47,1c1.15.5,2.09,1.51,2.09,3.74a4.29,4.29,0,0,1-4.48,4.56,4.18,4.18,0,0,1-2.65-.9l-1,.73h-.69V124h.69c.52,1.76,1.78,3.32,3.72,3.32,2.13,0,3-1.36,3-2.57,0-1.65-1.86-1.78-3.7-2.26s-3.72-1.25-3.72-4.14a3.91,3.91,0,0,1,4-3.83,5.07,5.07,0,0,1,2.59.84Zm2.87,12.8V127h1.42V115.37H147.9v-.57h6.25v.57h-1.61V127h1.61v.57Zm7.32-12.8h11.65l.19,4.16h-.52c-.63-2.32-1.26-3.78-3.89-3.58V127h1.57v.57h-6.36V127h1.57V115.37c-2.63-.19-3.26,1.26-3.89,3.58H155l.19-4.16Zm12.23,0h6.11v.57h-1.44l3.07,5.19,2.43-4.7c.15-.29-.13-.5-.54-.5H176v-.57h4v.57h-.71c-.54,0-.75.09-1.25,1.05l-2.53,4.93V127h1.69v.57h-6.52V127h1.61v-5.19l-3.68-6.46h-1.17v-.57h0Z" transform="translate(-20 -72.11)"/><path class="cls-1" d="M39,72.11H34.14V76H26.07v8.21H20V96.39h6.14v8h8v4.07h4.27c10,0,18.79-8.06,18.79-18.13A18.29,18.29,0,0,0,39,72.11Z" transform="translate(-20 -72.11)"/></svg>