<svg id="Layer_1" data-name="Layer 1" xmlns="http://www.w3.org/2000/svg" viewBox="0 0 160 37.69"><defs><style>.cls-1{fill:#696a6c;}.cls-1,.cls-2{fill-rule:evenodd;}.cls-2{fill:#bf3038;}</style></defs><title>RockwellAutomation_logo</title><path class="cls-1" d="M165.26,105.68h5.88v2.24h0a4.28,4.28,0,0,1,4.21-2.52c3.31,0,4.52,1.73,4.52,4.2v9h-6.22v-7.43c0-.74,0-1.76-1.09-1.76s-1.12,1-1.12,1.76v7.43h-6.22V105.68ZM20,118.56h6.59l1.06-3.73h5.58l1.14,3.73h6.94l-6.15-17.24H26.05L20,118.56ZM30.49,105h0l1.88,5.68H28.58l1.9-5.68Zm25.75,13.55H50.36v-2.21h0a4.21,4.21,0,0,1-4.21,2.49c-3.31,0-4.52-1.73-4.52-4.2v-9H47.8v7.43c0,.74,0,1.76,1.09,1.76s1.12-1,1.12-1.76v-7.43h6.22v12.88Zm13.16-6.68h0c0,4.45,2.77,7,8,7s8-2.51,8-7-2.82-6.49-8-6.49-8,2.17-8,6.49Zm6.63,0c0-1.54.15-2.8,1.35-2.8s1.37,1.26,1.37,2.8c0,1.88-.17,3.27-1.37,3.27S76,113.77,76,111.89Zm10.9-6.21h5.87v2.24h0c.74-1.81,2.46-2.52,4.41-2.52,1.73,0,3.53.67,4,2.2h0c.42-1.48,2.61-2.2,4.14-2.2,4.54,0,4.54,2.94,4.54,5.44v7.73h-6.22v-7.43c0-.74,0-1.76-1.12-1.76s-1.09,1-1.09,1.76v7.43H95.34v-7.43c0-.74,0-1.76-1.09-1.76s-1.12,1-1.12,1.76v7.43H86.91V105.68Zm33.43,11a4.67,4.67,0,0,1-4.19,2.15c-2.4,0-4.72-1.08-4.72-3.77,0-3.94,3.56-4.73,6.65-4.73.86,0,1.85.12,2.42.17,0-1.68-1.73-1.88-3.28-1.88a10,10,0,0,0-4.3,1.1v-3.62a16.75,16.75,0,0,1,5.39-.74c3.55,0,7.88.64,7.88,5.35v7.82h-5.78V116.7Zm.15-3.4a2.08,2.08,0,0,1-1.92,2.29c-1,0-1.46-.34-1.46-1.23,0-1.33,1.48-1.45,2.76-1.45h.62v.39Zm19.62,5.26V105.71h6.22v12.86Zm0-14.38v-2.85h6.22v2.85Zm7.56,7.71c0,4.45,2.77,7,8,7s8-2.51,8-7-2.82-6.49-8-6.49-8,2.17-8,6.49Zm6.63,0c0-1.54.15-2.8,1.35-2.8s1.37,1.26,1.37,2.8c0,1.88-.17,3.27-1.37,3.27s-1.35-1.39-1.35-3.27Zm-15.67-6.22H136v-4.34h-6.23v4.34h-2.65v3.62h2.65v9.28H136v-9.28h2.68v-3.62Zm-72.15-4.34H60.25v4.36H57.6v3.59h2.65v9.28h6.23v-9.28h2.68v-3.59H66.48v-4.36Z" transform="translate(-20 -81.15)"/><path class="cls-2" d="M174,98.13v-17h6v17ZM74.5,90.23v0c2.43-.58,4.06-1.9,4.06-4.5,0-3.26-2.51-4.52-6.57-4.52H61.47v17H68V92.34h1.45c.8,0,1.45.1,1.84.88.53,1,.61,3.68.9,4.9H79c-.68-1.65-.61-4.28-1.61-6.07a4.09,4.09,0,0,0-2.87-1.82Zm0,0v0Zm-6.8-5.28H69.5c1.31,0,2.54.22,2.54,1.75,0,1.71-1.31,1.85-2.64,1.85H67.7V84.95Zm11.45,6.61c0,4.38,2.72,6.85,7.85,6.85s7.87-2.47,7.87-6.85S92.1,85.16,87,85.16s-7.85,2.13-7.85,6.39Zm6.52,0c0-1.51.14-2.75,1.33-2.75s1.35,1.24,1.35,2.75c0,1.85-.17,3.22-1.35,3.22s-1.33-1.36-1.33-3.22Zm22.55,6.22a14.22,14.22,0,0,1-4.55.63c-5.13,0-7.86-2.47-7.86-6.85s2.73-6.39,7.86-6.39a15.83,15.83,0,0,1,4.45.53v3.74a6.52,6.52,0,0,0-2.75-.63c-1.82,0-3,.95-3,2.85a2.86,2.86,0,0,0,3,3.12,5.28,5.28,0,0,0,2.85-.76v3.76ZM115.9,91h0l3-5.6h6.68L122.1,91l4.2,7.09h-6.9L116,91h0v7.09h-6.12v-17h6.12V91Zm17,2.71h0l1.31-8.3h7.37l1.41,8.3h0l1.11-8.3h5.59L147,98.13h-7.64l-1.51-8.61h0l-1.57,8.61h-7.69l-2.84-12.68h6l1.22,8.3Zm30.74,3.93a19.54,19.54,0,0,1-5.73.73c-5.14,0-7.86-2.47-7.86-6.86,0-4.24,2.72-6.38,7.86-6.38,4.93,0,6.65,3.06,6.65,7.33v.75H156.1c.1,1.59,1.59,2,3.4,2a9.4,9.4,0,0,0,4.17-.81v3.28Zm-7.59-7.11c-.07-1,.24-2.49,1.66-2.49s1.54,1.52,1.54,2.49Zm10.1,7.55v-17h6v17Z" transform="translate(-20 -81.15)"/></svg>