<svg id="Layer_1" data-name="Layer 1" xmlns="http://www.w3.org/2000/svg" viewBox="0 0 160 119.29"><title>saks_fifth_avenue</title><path d="M173.28,128.4a4.74,4.74,0,0,0-4.65-.86c-5,1.46-9.44,4.74-12.6,11.31a11.29,11.29,0,0,0-.61,9.2c-1.83,1.72-3.34,3.32-6.3,3a2.19,2.19,0,0,1-1.72-3l9.14-19.44H151l-8.85,19a4.34,4.34,0,0,1-5.08,2.65,2.7,2.7,0,0,1-1.83-3.92l8.43-18H138.9l-9.57,20c-1.89,4-6,2.44-4.68-.47l7.69-16.76c.63-1.4.5-3.34-1.87-3.77-1.88-.34-4.56.5-7.19,2.22l.57-1.18h-5.28L110,145.29c-1,1.61-4.64,4.65-7.06,4.18-1.94-.35-2.83-3.06-2.55-5.93a12.78,12.78,0,0,1,1.5-4.7,12.57,12.57,0,0,0,5.43-.28,11.46,11.46,0,0,0,4.71-3.21c2.25-2.35,3-5.43.81-7.09-1.37-1.06-3.88-1.4-6.89.17-2.7,1.4-5.89,5.8-7,7.35a11.07,11.07,0,0,1-1.5-.73,12.85,12.85,0,0,0,.41-5c-.24-1.87-.92-2.72-2.36-2.85s-2.53.91-3.07,2.84a8.07,8.07,0,0,0-.11,3,13.17,13.17,0,0,0,2.36,5.36,19.15,19.15,0,0,1-4.23,8.77,11.92,11.92,0,0,1-4.3,3.21,3.48,3.48,0,0,1-3.08-.21c-1.09-.56-1.42-1.85-.74-3.47l7.72-18-4.42.26-2.92,6.18-7.41,0a48.56,48.56,0,0,1,6-13.34,32.19,32.19,0,0,1,7-7.91c3,4.83,10.55,6.21,15.89,5.58a18.69,18.69,0,0,0,9.28-3.75,25,25,0,0,0,5.37-6.47c.83-1.44,3.6-7.24,5.1-9.87h2.64l.63-1.38h-2.83c2.26-4.87,3.75-6.92,7.83-9.89a12.44,12.44,0,0,0,2.75.88,18.43,18.43,0,0,0,3.19.17,5,5,0,0,0,3.6-1.36,2.72,2.72,0,0,0,.37-2.95,5.33,5.33,0,0,0-4.17-2.65,9.23,9.23,0,0,0-3.4.26,32.8,32.8,0,0,0-4.82,2L127.37,83c1.68-2.2,1.74-6.25,2.11-9.29a22.88,22.88,0,0,1,1.7-6.21,13.92,13.92,0,0,1,4.91-5.15,16.28,16.28,0,0,0-5.65.35,17.71,17.71,0,0,0-9.62,6A43.75,43.75,0,0,0,115,77.85a12,12,0,0,0-6.89.71,5.24,5.24,0,0,0-.81-1.64,32.36,32.36,0,0,0,7.94-4.44,8.77,8.77,0,0,0,2.86-2.87,4.56,4.56,0,0,0,.35-4c-.76-1.6-2.42-2.3-4.65-1.94-2.42.32-3.64,1.21-5.8,2.76l7.41-15.3H110.1L93.91,83.32a8.46,8.46,0,0,1-4.1,2.8c-.5.15-1.13.21-1.35-.19a1.75,1.75,0,0,1,.17-1.42l8.72-19.67-4.8,0-1.29,2.52c-.39-2.63-3.1-3.69-7.43-1.53a24.78,24.78,0,0,0-4.56,3.25c-2.55,2.07-7.67,9-8.05,14.22-.22,3,.65,5,2.53,5.84a6.24,6.24,0,0,0,4.62-.3,14.76,14.76,0,0,0,5-4.09,3.2,3.2,0,0,0,1.11,3c2.38,1.62,5.71.47,7.83-1l-.85,1.74,5.56,0,5.73-11.76a3,3,0,0,1,1.15,1.08,6.15,6.15,0,0,1,.61,2.44,17.11,17.11,0,0,0-6.19,7.89c-1.55,4.44.3,8.83,3.08,10.45a9,9,0,0,0,6.15.88,11.44,11.44,0,0,0,4.06-1.64,33.81,33.81,0,0,0,5.12-4.79l-1.16-.71c-1.9,1.92-4.62,4.78-8.29,5.54a6.36,6.36,0,0,1-5.82-1.47,7.57,7.57,0,0,1-2.11-5.32,10.09,10.09,0,0,1,2.33-5.93,15.58,15.58,0,0,1,3-3c.5,2.71,1.15,5.78,3.23,6.61a3.56,3.56,0,0,0,3.62-.8,12.22,12.22,0,0,0,2.12-2.85,5,5,0,0,0,5,3.83A9.27,9.27,0,0,0,123,87.74a12.34,12.34,0,0,0,3.49-3.17l1.68.84a29.11,29.11,0,0,0-6.48,5.47A29.62,29.62,0,0,0,117.26,98h-4.1l-.81,1.38h4.45c-1.11,2.63-2.37,5.47-3.16,7.65-1.94,5.26-4.4,7.95-9.42,9.5-4.78,1.49-11.3,1.25-14.76-3.69q2.09-2.15,4.29-4.2a41,41,0,0,0-6,.17,9.46,9.46,0,0,1,1.57-5.19,19.92,19.92,0,0,1,6.95-6.38l-.83-1.06a23.61,23.61,0,0,0-7.39,6.53,10.51,10.51,0,0,0-1.81,6.47,29,29,0,0,0-8.55,3.12A47.84,47.84,0,0,0,70.89,117c-3,2.63-6.74,6.46-8.42,9.65a90.15,90.15,0,0,0-5.6,10.6c-2.4,4.83-5.73,10.88-9.16,14.07a17,17,0,0,1-9.31,4.74c-8.87,1-13.52-3.06-15.5-8.21a18.88,18.88,0,0,1-.59-9.67c.68-3.53,3.21-7.35,6.13-10.15a19,19,0,0,1,10.05-4.94c3.81-.43,8,.73,10.07,2.35a8.58,8.58,0,0,1,3.51,6.47A13.94,13.94,0,0,1,49.59,140a13.3,13.3,0,0,1-8.13,5.24,18.78,18.78,0,0,1-5-.21v1.4a13.37,13.37,0,0,0,4.84.47,14.47,14.47,0,0,0,9.13-5.09,15.58,15.58,0,0,0,3.32-7.24,11.92,11.92,0,0,0-1.48-7.91c-1.72-2.76-6.39-5.41-11.47-5.37-7.45,0-12.21,3.62-15.7,7.5a21.17,21.17,0,0,0-4.86,9.61,20.8,20.8,0,0,0,1,10.41A14.76,14.76,0,0,0,34.9,158a19.19,19.19,0,0,0,12.19-3.79c5.23-4.16,10-12.8,12.21-17.61h9.26c-1.11,3.6-.57,10.47,1.59,14.78a14.81,14.81,0,0,0,12.14,8.23,9.52,9.52,0,0,0,6.11-1.42c1.9-1.19,2.81-3.17,3.21-5.69l-1.4.13a5.42,5.42,0,0,1-3.4,4,7.11,7.11,0,0,1-5-.07,10.77,10.77,0,0,1-6.47-6.4A21.1,21.1,0,0,1,75,136.62h7l-3.32,8a5.86,5.86,0,0,0,1.92,7.09,6.57,6.57,0,0,0,5.76.62,12.7,12.7,0,0,0,5-3.6,18.47,18.47,0,0,0,4.49-7.95c.24-.8.74-2.35,1.09-3.6l.89.32c-.81,2.26-2.77,7.74-1.24,11.35,1.33,3.14,4.47,3.64,6.89,3.21a9.66,9.66,0,0,0,5-2.72L107.14,152H112l8.79-18.18a15.77,15.77,0,0,1,5.21-4.16c2.49-1,3.47-.06,2.49,2.11l-7.06,15.47c-1,2.15-.22,4.52,1.76,5.24a6.24,6.24,0,0,0,8.39-3.94,4.33,4.33,0,0,0,3.34,3.38,8.31,8.31,0,0,0,8-2.39,5.91,5.91,0,0,0,5.25,3,9,9,0,0,0,7.74-3.3c1.57,2.91,5.63,3.71,9.4,1.46a14.68,14.68,0,0,0,4.08-4.31l-1.05-.43a8.39,8.39,0,0,1-4,3.69c-1.18.56-3.14.77-4-.67a5.18,5.18,0,0,1-.66-3,15.52,15.52,0,0,1,1.74-5.92c4-.86,8-2.22,9.94-3.64,1.76-1.27,3-2.69,3.16-3.92a4.26,4.26,0,0,0-1.34-4.16Zm-66.89,3.74a10.49,10.49,0,0,1,3.8-2.74c1.42-.45,2.51.3,2.44,2a6,6,0,0,1-1.94,3.42c-2.14,2.2-5.23,3.34-7.87,2.46a25.77,25.77,0,0,1,3.57-5.09Zm30.23-46.9a6.94,6.94,0,0,1,2.62-.47c1,0,2.05.41,2.11,1.34,0,1.1-1.26,1.7-2.64,1.83a14.93,14.93,0,0,1-3.25-.09,5.5,5.5,0,0,1-2.05-.63,12.62,12.62,0,0,1,3.22-2Zm-49.95-7c-2.36,4-5.34,7.5-8.28,9-1.61.82-2.73-.52-2.62-1.9a24,24,0,0,1,1.88-6.25A28.89,28.89,0,0,1,80.4,74,36.62,36.62,0,0,1,85,68.3c1.31-1.34,2.92-1.92,4-1.62,1.26.34,1.42,2,1.15,3.49a26.5,26.5,0,0,1-3.42,8.08Zm17.12-2.76L106,71a14.69,14.69,0,0,1,4.56-3.64c1.9-.8,3,.73,2.53,2.09C112,72.37,106.06,75.09,103.78,75.48Zm7.05,10.61c-.61.67-1,.63-1,.22A19.17,19.17,0,0,0,108.73,80a9.34,9.34,0,0,1,5.84-.63,19,19,0,0,1-3.73,6.7Zm7,1.12a3,3,0,0,1-2.37-1.87,5.5,5.5,0,0,1-.15-3,9.94,9.94,0,0,1,.77-2.59,18,18,0,0,1,5.84,2.09C121.73,83.08,120.62,87.58,117.81,87.21ZM125.63,71a22.22,22.22,0,0,0-1.94,4.25c-.28.86-.76,2.93-1.22,4.85a6.09,6.09,0,0,1-1.55-.71,15.19,15.19,0,0,0-1.76-.65,4.43,4.43,0,0,0,1.55-1.9,2,2,0,0,0-.19-2.22,3.44,3.44,0,0,0-1-.54c.74-1,2.29-2.95,3.18-4a18.72,18.72,0,0,1,8.35-5.84A27.47,27.47,0,0,0,125.63,71ZM74.81,121.71a50.34,50.34,0,0,0-6.08,13.43l-8.92,0A52.46,52.46,0,0,1,70,120.1a43.21,43.21,0,0,1,12.4-7.95,54.28,54.28,0,0,0-7.56,9.55Zm98.64,9.72c-.26,2-2,3.36-4.4,4.35a31.76,31.76,0,0,1-6.17,2.07c1.62-3.69,4.21-7.95,6.52-8.9C172.35,127.76,173.62,130.22,173.45,131.43Z" transform="translate(-20 -40.35)"/><path d="M97.67,42c-1.44-1.08-3.31-.67-5.71-.07a30.44,30.44,0,0,0-13.5,8A51.77,51.77,0,0,0,69.05,64a29.09,29.09,0,0,1-10.6-.84,12.45,12.45,0,0,0-9.37-6.29A7.42,7.42,0,0,1,48,53.74a9.84,9.84,0,0,1,2.64-7.93c2.14-2.33,5-3.56,9-3.88a21,21,0,0,1,6.5.88,15.34,15.34,0,0,1,6,4.25,12.19,12.19,0,0,1,1.87,2.63l1-1a15.27,15.27,0,0,0-8.39-7.32,19.22,19.22,0,0,0-10.27-.58,13.22,13.22,0,0,0-8.48,5.63,10.52,10.52,0,0,0-1.77,4.85,11.46,11.46,0,0,0,.63,5.28,26.22,26.22,0,0,0-9.26,1,22,22,0,0,0-11.6,8.06,26.78,26.78,0,0,0-4.84,11.61c-1.35,8.7,2.37,18.55,11.33,22.34a25.13,25.13,0,0,0,18.09,1c6.26-2,10.09-5.19,14.32-10.62,3.94-5,7-11.7,9.83-18.53.76-1.9,1.5-4.2,2.66-7.26A88.27,88.27,0,0,0,92,54.9c2.73-2.3,5-4.52,6.24-7.26s.54-4.81-.55-5.65ZM51.6,59.35a9.71,9.71,0,0,1,3.14,2,5.5,5.5,0,0,1,.76.88,5.23,5.23,0,0,1-1-.48,18.78,18.78,0,0,1-3.29-2,4.41,4.41,0,0,1-.52-.63,5.3,5.3,0,0,1,.92.28ZM62.81,78a58.54,58.54,0,0,1-9.09,13.21c-2.92,3-6.61,7-13.21,7.48a14,14,0,0,1-6.76-.8,18.41,18.41,0,0,1-7.8-6,18.44,18.44,0,0,1-2.86-7A19.6,19.6,0,0,1,23,76.28a24.78,24.78,0,0,1,5.8-11.64A22.26,22.26,0,0,1,38.07,59a21.87,21.87,0,0,1,9.37-.8c2.05,3.23,5.17,5.13,10,6.77a21,21,0,0,1,.17,6.59,17.6,17.6,0,0,1-4.49,9.68,51.63,51.63,0,0,1-8.53,7.67l.7,1.12a46.73,46.73,0,0,0,9.57-8.19,19.9,19.9,0,0,0,4.38-9.52,25.31,25.31,0,0,0,0-6.87,32.39,32.39,0,0,0,8.94.41c-1.07,2.69-3.84,9.27-5.41,12.18Zm32.9-28.61a25.07,25.07,0,0,1-5.38,4.87,87.4,87.4,0,0,1-12.27,7.45,37,37,0,0,1,5.23-9.4,45,45,0,0,1,5.45-5.65,17.76,17.76,0,0,1,6-3.83,2,2,0,0,1,2.62,1.25C97.74,45.6,97.12,47.5,95.71,49.42Zm65.43,33.46c-1.94-1.68-5.63-1.74-8.5-.26a19.56,19.56,0,0,0-6.72,5.73,58.6,58.6,0,0,0-6,9.76h-3.44l-.74,1.4,3.49,0-7.76,16.42a4.5,4.5,0,0,1-5.06,2c-1.26-.45-1.37-2.16-.63-3.77l7.5-16h-4.1L121.64,114a4.51,4.51,0,0,0,.15,4.63c1.46,2.33,5.12,1.88,7.55.69a9.12,9.12,0,0,1-4.64,4.57,7.54,7.54,0,0,1-4.67.39c-2.88-.6-5.14-4.33-5.82-6.36l-1.42.22c.65,2.35,2.92,6.46,6.69,7.58a12.08,12.08,0,0,0,5.82.11c4.53-.93,8.05-3.71,9.51-6.83l9.26-19.54,8.11,0-7.3,15.77c-.83,1.83-.3,3.36,1.18,3.88,3.83,1.38,7.37-.56,9-1.34l-.94,1.81H160L168.58,101c2.44-1.49,4.67-2.15,6.24-1.72s1.85,2.33.48,4.22c-1.72,2.39-5.6,5.69-7.48,8.7a8.7,8.7,0,0,0-1.09,8.15c1.07,2.61,4.25,3.62,7.33,2.52s4.8-3.83,5.93-6l-1.41-.86c-1.07,2-2.51,4.57-5.41,5.37a2.93,2.93,0,0,1-3.62-1.27,4.38,4.38,0,0,1,.19-3.73c1.64-3.81,9.68-7.82,10-13.58a4.65,4.65,0,0,0-4.8-5A11.41,11.41,0,0,0,169.45,99l7.76-16.64h-5.3l-14.59,30.81c-.87,1.83-3.21,4-5.51,4-1.46,0-2.42-.65-1.9-1.77l7.3-15.77h4l.63-1.38h-3.92l3.19-7.3H156l-3.08,7.2h-8.28a54.7,54.7,0,0,1,4-7.15c3.38-4.76,6.87-7.71,9.79-7.31,1.61.24,2,2.09,1.33,4.22l4,0a7.16,7.16,0,0,0-2.57-5Z" transform="translate(-20 -40.35)"/><path d="M129.51,94.86a1.68,1.68,0,0,0,.63,1.88,3.69,3.69,0,0,0,3.84-.65c1.79-1.57.63-3.56-1.16-3.58A3.18,3.18,0,0,0,129.51,94.86Z" transform="translate(-20 -40.35)"/></svg>