<svg id="Layer_1" data-name="Layer 1" xmlns="http://www.w3.org/2000/svg" viewBox="0 0 160 111.99"><defs><style>.cls-1{fill:#00a1e0;}</style></defs><title>salesforce</title><path class="cls-1" d="M83.18,91.52a3,3,0,0,0-2.65,1.34,5.42,5.42,0,0,0-.75,2.19H86.4a4.61,4.61,0,0,0-.61-2.19A2.88,2.88,0,0,0,83.18,91.52Z" transform="translate(-20 -44)"/><path class="cls-1" d="M120.48,91.58a2.92,2.92,0,0,0-2.66,1.29,8.41,8.41,0,0,0,0,7.43,2.91,2.91,0,0,0,2.66,1.3,2.94,2.94,0,0,0,2.67-1.3,6.75,6.75,0,0,0,.88-3.72h0a6.7,6.7,0,0,0-.88-3.71A3,3,0,0,0,120.48,91.58Z" transform="translate(-20 -44)"/><path class="cls-1" d="M65,97.12a19,19,0,0,0-2.52-.21,4.16,4.16,0,0,0-2.69.67,2,2,0,0,0-.83,1.8,2.24,2.24,0,0,0,.28,1.21,1.88,1.88,0,0,0,.54.55,4.17,4.17,0,0,0,2.72.54,18.85,18.85,0,0,0,2.5-.33h0Z" transform="translate(-20 -44)"/><path class="cls-1" d="M145.51,59.17a34.11,34.11,0,0,0-14,3,28.33,28.33,0,0,0-24.68-14.63,28,28,0,0,0-20.29,8.71A31.07,31.07,0,0,0,33.35,87.38a27,27,0,0,0,13.35,50.36,26.39,26.39,0,0,0,5.49-.57,28.77,28.77,0,0,0,53.48,1.3,25.21,25.21,0,0,0,33-10.38,34.23,34.23,0,0,0,6.79.68,34.8,34.8,0,0,0,0-69.59ZM54.26,99.56c0,2.81-2,4.56-5.32,4.56A9.74,9.74,0,0,1,44.16,103a9.34,9.34,0,0,1-.91-.55s-.17-.1-.07-.36l.65-1.8a.26.26,0,0,1,.43-.15l.54.34A7.76,7.76,0,0,0,49,101.69c1.43,0,2.31-.76,2.31-1.77v-.05c0-1.11-1.36-1.53-2.94-2L48,97.74c-2.17-.62-4.48-1.51-4.48-4.25v-.05c0-2.6,2.1-4.41,5.1-4.41H49a9.31,9.31,0,0,1,4.7,1.26.31.31,0,0,1,.16.37l-.67,1.8c-.12.31-.43.1-.43.1a9.46,9.46,0,0,0-4.17-1.07c-1.27,0-2.09.67-2.09,1.59v.06c0,1.07,1.4,1.53,3,2.06l.28.09C52,96,54.26,96.9,54.26,99.5Zm13.44,3.65-.65.17c-.31.07-1.43.3-2.34.45a16.73,16.73,0,0,1-2.82.23,11.08,11.08,0,0,1-2.45-.25,5.07,5.07,0,0,1-1.89-.82,3.82,3.82,0,0,1-1.21-1.45,4.85,4.85,0,0,1-.42-2.12,4.33,4.33,0,0,1,1.84-3.67,6,6,0,0,1,1.94-.9A8.79,8.79,0,0,1,62,94.57c.58,0,1.07,0,1.45,0,0,0,.73.07,1.53.18V94.4c0-1.24-.26-1.82-.76-2.21a3.73,3.73,0,0,0-2.29-.6,9.41,9.41,0,0,0-4,.94l-.15.08a.23.23,0,0,1-.3-.15l-.66-1.76a.29.29,0,0,1,.08-.37,9,9,0,0,1,2.86-1A15.27,15.27,0,0,1,62.17,89a6.31,6.31,0,0,1,4.26,1.28,5.19,5.19,0,0,1,1.47,4.09v8.48A.29.29,0,0,1,67.7,103.21Zm6.23.27a.27.27,0,0,1-.27.28H71.2a.27.27,0,0,1-.26-.28V83.69a.27.27,0,0,1,.26-.28h2.46a.27.27,0,0,1,.27.28Zm15.36-6.37a.27.27,0,0,1-.27.24H79.74A3.79,3.79,0,0,0,84,101.52a9,9,0,0,0,3.81-.68.27.27,0,0,1,.35.16l.6,1.7c.12.29,0,.39-.08.44a9.69,9.69,0,0,1-4.67.93,9.33,9.33,0,0,1-3.37-.54A6,6,0,0,1,77,99.62a9.91,9.91,0,0,1-.42-3,10.49,10.49,0,0,1,.41-3,6.68,6.68,0,0,1,1.26-2.41,6.09,6.09,0,0,1,2.14-1.63,7.24,7.24,0,0,1,3.06-.59,6.78,6.78,0,0,1,2.66.54,5.45,5.45,0,0,1,1.76,1.34A5.76,5.76,0,0,1,89,93.11,9.93,9.93,0,0,1,89.28,97.11Zm7.71,7A9.74,9.74,0,0,1,92.2,103a9.35,9.35,0,0,1-.91-.55s-.17-.1-.07-.36l.65-1.8a.28.28,0,0,1,.43-.15c.17.11.31.2.54.34a7.76,7.76,0,0,0,4.23,1.22c1.43,0,2.31-.76,2.31-1.77v-.05c0-1.11-1.36-1.53-2.94-2l-.35-.11c-2.17-.62-4.48-1.51-4.48-4.25v-.05c0-2.6,2.1-4.41,5.1-4.41H97a9.31,9.31,0,0,1,4.7,1.26.31.31,0,0,1,.16.37l-.67,1.8c-.12.31-.43.1-.43.1a9.46,9.46,0,0,0-4.17-1.07c-1.27,0-2.09.67-2.09,1.59v.06c0,1.07,1.4,1.53,3,2.06l.28.09c2.16.68,4.46,1.63,4.46,4.22v.05C102.31,102.37,100.27,104.11,97,104.11Zm16.2-12.54a.31.31,0,0,1-.31.27h-3.05l-2.09,11.82a17.62,17.62,0,0,1-.82,3.11,6.12,6.12,0,0,1-1.2,2.08,4.3,4.3,0,0,1-1.71,1.19,6.8,6.8,0,0,1-2.28.35,5.62,5.62,0,0,1-1.36-.13,7.58,7.58,0,0,1-.85-.25.28.28,0,0,1-.14-.37l.69-1.88a.26.26,0,0,1,.34-.15,2.2,2.2,0,0,0,.5.16,4.11,4.11,0,0,0,.74.08,3.45,3.45,0,0,0,1.09-.16,1.72,1.72,0,0,0,.85-.65,4.67,4.67,0,0,0,.65-1.32,14.36,14.36,0,0,0,.56-2.29l2.08-11.61h-2c-.25,0-.33-.12-.3-.3l.34-1.93a.31.31,0,0,1,.31-.27h2.11l.11-.63a7.66,7.66,0,0,1,1.86-4.21,5.31,5.31,0,0,1,3.93-1.41,7.27,7.27,0,0,1,1.26.1,8,8,0,0,1,.92.22h0a.25.25,0,0,1,.17.32l-.71,1.95c-.06.15-.1.23-.4.14l-.47-.12a3.89,3.89,0,0,0-.76-.08,3.22,3.22,0,0,0-1,.14,2,2,0,0,0-.78.48,2.74,2.74,0,0,0-.65,1,12.87,12.87,0,0,0-.49,2.09h3c.25,0,.33.11.3.3Zm13.58,7.94a6.6,6.6,0,0,1-1.25,2.38,5.88,5.88,0,0,1-2.1,1.59,7.8,7.8,0,0,1-5.87,0,5.88,5.88,0,0,1-2.1-1.59,6.63,6.63,0,0,1-1.25-2.38,11,11,0,0,1,0-5.89,6.7,6.7,0,0,1,1.25-2.38,6.06,6.06,0,0,1,2.11-1.6,7.63,7.63,0,0,1,5.87,0,6,6,0,0,1,2.1,1.6,6.59,6.59,0,0,1,1.25,2.38,10.95,10.95,0,0,1,0,5.89Zm11.46-9.69h0c-.09.25-.54,1.52-.7,1.95-.06.16-.16.27-.34.25a5.21,5.21,0,0,0-1-.13,4.47,4.47,0,0,0-1.24.18,2.85,2.85,0,0,0-1.15.69,3.5,3.5,0,0,0-.81,1.37,8.09,8.09,0,0,0-.31,2.43v6.91a.28.28,0,0,1-.28.28h-2.44a.28.28,0,0,1-.28-.28V89.64a.27.27,0,0,1,.27-.28h2.38a.27.27,0,0,1,.27.28v1.13a4.21,4.21,0,0,1,1.57-1.16,4.62,4.62,0,0,1,2.39-.39,8,8,0,0,1,1.55.27A.25.25,0,0,1,138.23,89.83Zm11.6,13.53a11.15,11.15,0,0,1-3.88.69,6.93,6.93,0,0,1-5.41-2,7.89,7.89,0,0,1-1.82-5.45,9.47,9.47,0,0,1,.45-2.95,6.8,6.8,0,0,1,1.33-2.38,6.32,6.32,0,0,1,2.21-1.6,7.45,7.45,0,0,1,3.05-.59,13.72,13.72,0,0,1,2.06.14,10.69,10.69,0,0,1,1.83.46.25.25,0,0,1,.17.32c-.26.73-.43,1.21-.67,1.87-.1.28-.32.19-.32.19a9.1,9.1,0,0,0-2.89-.41,3.58,3.58,0,0,0-3,1.34,5.81,5.81,0,0,0-1.05,3.61,5.23,5.23,0,0,0,1.18,3.74,4.17,4.17,0,0,0,3.13,1.17,9.93,9.93,0,0,0,1.5-.11,6.28,6.28,0,0,0,1.27-.36.26.26,0,0,1,.35.17l.67,1.86A.25.25,0,0,1,149.82,103.36Zm13.73-6.25a.27.27,0,0,1-.27.24H154a3.79,3.79,0,0,0,4.25,4.18,9,9,0,0,0,3.81-.68.27.27,0,0,1,.35.16l.61,1.7c.12.29,0,.39-.08.44a9.69,9.69,0,0,1-4.67.93,9.34,9.34,0,0,1-3.37-.54,6,6,0,0,1-3.68-3.9,9.92,9.92,0,0,1-.42-3,10.41,10.41,0,0,1,.41-3,6.68,6.68,0,0,1,1.26-2.41,6.09,6.09,0,0,1,2.14-1.63,7.24,7.24,0,0,1,3.06-.59,6.78,6.78,0,0,1,2.66.54,5.45,5.45,0,0,1,1.76,1.34,5.76,5.76,0,0,1,1.19,2.17A9.94,9.94,0,0,1,163.55,97.11Z" transform="translate(-20 -44)"/><path class="cls-1" d="M157.45,91.52a3,3,0,0,0-2.65,1.34,5.39,5.39,0,0,0-.75,2.19h6.61a4.58,4.58,0,0,0-.62-2.19A2.88,2.88,0,0,0,157.45,91.52Z" transform="translate(-20 -44)"/></svg>