<svg id="Layer_1" data-name="Layer 1" xmlns="http://www.w3.org/2000/svg" viewBox="0 0 160 53.77"><defs><style>.cls-1{fill:#00acec;}</style></defs><title>sandvik</title><path class="cls-1" d="M27.88,91.45c0,1.6.78,4.13,5,4.13,2.2,0,4.43-.41,4.43-2.68,0-2.83-3.29-3.35-6.3-4.05-4.46-1-8.18-2.23-8.18-8,0-4.2,2.69-7.7,10.16-7.7,6.87,0,9.35,4.09,9.42,7.88H36.84c-.14-1.41-1.1-2.83-4.25-2.83-2.9,0-3.82,1.19-3.82,2.49,0,2.27,2.76,2.75,4.89,3.2,5.2,1,9.6,2.42,9.6,8.11,0,2.12-.57,8.66-10.48,8.66-9.14,0-10.77-5.73-10.8-9.18h5.91Zm25-.86,3.26-9.93,3.19,9.93H52.88Zm.28-16.73-9.28,26H50L51.61,95h9l1.59,4.87h6.2l-9.31-26H53.17Zm23,9.74V99.89H70.34v-26h5.91L86,90h.11V73.86H92v26H86L76.25,83.6Zm26.74-4.69H107c2.48,0,6.48.82,6.48,8,0,5.36-2.27,7.88-6.84,7.88h-3.72Zm-5.84-5.05v26h10.13c4,0,12.57-.74,12.57-13.05,0-12.68-9.67-13-12-13Zm40.16,0h6.48l-8.43,26h-6.2l-8.39-26h6.69l5,18.59,4.82-18.59Zm14.27,0v26h-5.84v-26Zm20.44,0h7.3l-10,10.78L180,99.89h-7.3l-7.44-11.23-2.8,3v8.26h-5.85v-26h5.85v10.6Z" transform="translate(-20 -73.12)"/><rect class="cls-1" y="29.78" width="160" height="23.99"/></svg>