<svg id="Layer_1" data-name="Layer 1" xmlns="http://www.w3.org/2000/svg" viewBox="0 0 160 26.91"><defs><style>.cls-1{fill:#007bb4;}</style></defs><title>sasktel</title><path d="M130,87.15l-4.49,25.5h4.84l4.58-25.5Z" transform="translate(-20 -86.54)"/><path class="cls-1" d="M145.26,90.35v-3.2H180v1.38H158.57v1.81H145.26Zm-.78,4.49v-3.2h34.74V93H159.35v1.81Zm-.86,4.49v-3.2h34.83v1.38H160.12v1.82Zm-.78,4.49v-3.2h34.74V102H160.9v1.82Zm-.78,4.49v-3.2H176.8v1.38h-15v1.81h-19.7Zm-.69,4.32v-3.2H176v1.38H162.37v1.82Z" transform="translate(-20 -86.54)"/><path d="M40.34,94.15c.35-.86-.52-3.63-1.12-4.32-2.59-3.11-6.65-3.28-8-3.28-5.18.09-8.55,2.33-9.07,6.65a6.93,6.93,0,0,0,3.2,6.48c2.59,1.82,6.57,2.68,8,4.41a2.93,2.93,0,0,1-.61,4.15c-1.9,1.3-5.19.95-6.39-.69a2.34,2.34,0,0,1-.61-2.16H20a7.2,7.2,0,0,0,2.85,6.14,10.59,10.59,0,0,0,6,1.73c2.85,0,4,.17,6.4-1.21,3.89-2.16,5.18-6.91,3.11-10.2A10.28,10.28,0,0,0,33.26,98c-1-.35-4.15-1.47-4.67-2.07a2.09,2.09,0,0,1-1.21-2.59c.26-2.16,2.42-2.33,3.72-2.42,2.94,0,3.54,1.73,3.8,3.28h5.44Zm18.93,12.27a6,6,0,0,0,3.46,6.14,9.72,9.72,0,0,0,3.63.86,11.78,11.78,0,0,0,4.41-.69,6,6,0,0,0,4.41-5.88c-.09-2.76-1.73-3.63-3.37-4.49l-4.93-1.9a1.55,1.55,0,0,1-.35-2.85,2.93,2.93,0,0,1,3-.17c1.12.43,1.21,1.21,1.38,2.33h5.27a6,6,0,0,0-2.51-4.84c-1.38-1.21-3.63-1.55-5.62-1.47A9.63,9.63,0,0,0,63,94.84a5.59,5.59,0,0,0-2.42,4.84,5.79,5.79,0,0,0,2.85,4.15,21.07,21.07,0,0,0,5,1.73c2.51.69,2.25,4.41-1.3,4.15-2.07-.35-2.94-1.12-2.85-3.28h-5ZM80.88,87.15l-4.58,25.5h4.93l1.73-9.42,7.86,9.33H96.6l-7.86-9.07,9.51-9.42h-6l-9.25,9.16,2.77-16.07Z" transform="translate(-20 -86.54)"/><path d="M93.32,87.15l-.78,4.41h8.56l-3.72,21.09h5.19l3.8-21.09h7.43l.78-4.41Z" transform="translate(-20 -86.54)"/><path d="M124.43,105a11.19,11.19,0,0,0-.78-7.35,7.22,7.22,0,0,0-6.83-4c-2.16,0-6.83.17-9.34,6.4a12.59,12.59,0,0,0-.86,5.19c.35,3.11,1.55,5.44,3.11,6.57a8.13,8.13,0,0,0,4.32,1.64c6,.43,9.51-3.28,9.94-6.14h-5.44a3.13,3.13,0,0,1-2.77,2.25,4.25,4.25,0,0,1-3.28-1.3,3.26,3.26,0,0,1-.69-3.28h12.62ZM112,101.67c.26-1.82,1.47-4.06,4.41-3.89s3.28,2.42,3.11,3.89ZM57.11,112.56s-.26-1.47-.43-2.51L58.75,99a5.07,5.07,0,0,0-3.37-4.75,11.12,11.12,0,0,0-4.15-.78c-2.59,0-8.38,1-8.3,6.14H47.6c.26-1.38,1.9-2.68,4.32-2.16.78.09,1,.35,1.47,1a1.57,1.57,0,0,1-1.21,2.16c-1.73.09-2.68.43-4.58.52-5.88.86-6.57,3.72-6.74,6.4a5.3,5.3,0,0,0,4.41,5.53c4.84.17,4.67-.78,6.74-2.33a2.86,2.86,0,0,0,.17,1.9l4.93-.09Zm-4.24-8.12c-.35,2.07-1.12,4.32-4.15,4.75-2.16.35-2.59-.6-2.68-1.73-.17-1.55.78-2.51,2.33-2.76A16,16,0,0,0,53,103.22Z" transform="translate(-20 -86.54)"/></svg>