<svg id="Layer_1" data-name="Layer 1" xmlns="http://www.w3.org/2000/svg" viewBox="0 0 160 47.99"><defs><style>.cls-1{fill:#2ebd59;}</style></defs><title>spotify</title><path class="cls-1" d="M44,76a24,24,0,1,0,24,24A24,24,0,0,0,44,76Zm11,34.61a1.49,1.49,0,0,1-2.06.5c-5.63-3.44-12.73-4.22-21.08-2.31a1.5,1.5,0,1,1-.67-2.92c9.14-2.09,17-1.19,23.3,2.67a1.5,1.5,0,0,1,.5,2.06Zm2.94-6.53a1.87,1.87,0,0,1-2.57.62c-6.45-4-16.28-5.11-23.91-2.8a1.87,1.87,0,1,1-1.09-3.58c8.71-2.64,19.55-1.36,27,3.19a1.87,1.87,0,0,1,.62,2.57h0Zm.25-6.8c-7.73-4.59-20.49-5-27.88-2.77A2.24,2.24,0,1,1,29,90.21c8.48-2.57,22.57-2.08,31.47,3.21a2.24,2.24,0,0,1-2.29,3.86Zm27.09.88c-4.14-1-4.88-1.68-4.88-3.14s1.3-2.3,3.22-2.3a9.42,9.42,0,0,1,5.66,2.15.27.27,0,0,0,.2,0,.27.27,0,0,0,.18-.11l2-2.85a.27.27,0,0,0-.05-.37,12.24,12.24,0,0,0-8-2.76c-4.47,0-7.6,2.68-7.6,6.53,0,4.12,2.7,5.58,7.35,6.7,4,.91,4.63,1.68,4.63,3s-1.35,2.46-3.53,2.46a9.52,9.52,0,0,1-6.6-2.73.28.28,0,0,0-.2-.06.27.27,0,0,0-.19.1l-2.27,2.7a.27.27,0,0,0,0,.38,13.52,13.52,0,0,0,9.13,3.5c4.82,0,7.93-2.63,7.93-6.71,0-3.44-2.05-5.35-7.1-6.57h0Zm18-4.09a6.5,6.5,0,0,0-5.22,2.51v-1.9a.27.27,0,0,0-.27-.27H94.09a.27.27,0,0,0-.27.27v21.09a.27.27,0,0,0,.27.27H97.8a.27.27,0,0,0,.27-.27v-6.66a6.66,6.66,0,0,0,5.22,2.36c3.88,0,7.81-3,7.81-8.7s-3.93-8.7-7.81-8.7h0Zm3.5,8.7c0,2.91-1.79,4.94-4.36,4.94S98,105.59,98,102.77s1.91-4.94,4.45-4.94,4.36,2.08,4.36,4.94h0Zm14.39-8.7a8.72,8.72,0,1,0,8.88,8.7,8.75,8.75,0,0,0-8.88-8.7h0Zm0,13.67a4.72,4.72,0,0,1-4.66-5,4.61,4.61,0,0,1,4.6-4.91,4.73,4.73,0,0,1,4.69,5,4.62,4.62,0,0,1-4.63,4.91h0Zm19.56-13.33h-4.08V90.24a.27.27,0,0,0-.27-.27h-3.71a.27.27,0,0,0-.27.27v4.17h-1.78a.27.27,0,0,0-.27.27v3.19a.27.27,0,0,0,.27.27h1.78v8.25c0,3.33,1.66,5,4.93,5a6.77,6.77,0,0,0,3.47-.86.27.27,0,0,0,.14-.24v-3a.27.27,0,0,0-.39-.24,4.67,4.67,0,0,1-2.18.53c-1.19,0-1.72-.54-1.72-1.75V98.14h4.08a.27.27,0,0,0,.27-.27V94.68a.26.26,0,0,0-.27-.27Zm14.22,0v-.51c0-1.51.58-2.18,1.87-2.18a6.26,6.26,0,0,1,2.09.39.27.27,0,0,0,.36-.26V88.73a.27.27,0,0,0-.19-.26A10.18,10.18,0,0,0,156,88c-3.43,0-5.24,1.93-5.24,5.58v.79H149a.27.27,0,0,0-.27.27v3.2a.27.27,0,0,0,.27.27h1.78v12.72a.27.27,0,0,0,.27.27h3.71a.27.27,0,0,0,.27-.27V98.14h3.46l5.31,12.72c-.6,1.34-1.19,1.6-2,1.6a4.28,4.28,0,0,1-2-.58.28.28,0,0,0-.22,0,.27.27,0,0,0-.16.15l-1.26,2.76a.27.27,0,0,0,.12.35,7.81,7.81,0,0,0,4,1c2.74,0,4.25-1.28,5.59-4.71l6.44-16.63a.27.27,0,0,0-.25-.37h-3.86a.27.27,0,0,0-.26.18l-4,11.3L161.55,94.6a.27.27,0,0,0-.25-.17H155Zm-8.25,0H143a.27.27,0,0,0-.27.27v16.18a.27.27,0,0,0,.27.27h3.71a.27.27,0,0,0,.27-.27V94.68a.27.27,0,0,0-.27-.27h0ZM144.88,87a2.66,2.66,0,1,0,2.66,2.66A2.66,2.66,0,0,0,144.88,87h0Zm32.5,12.57A2.62,2.62,0,1,1,180,97a2.6,2.6,0,0,1-2.62,2.63Zm0-5A2.36,2.36,0,1,0,179.73,97a2.33,2.33,0,0,0-2.34-2.35h0Zm.58,2.62.74,1h-.62l-.66-.95h-.57v.95h-.52V95.55h1.22c.64,0,1.06.33,1.06.87a.81.81,0,0,1-.63.83h0ZM177.53,96h-.68v.87h.68c.34,0,.54-.17.54-.43s-.2-.43-.54-.43h0Z" transform="translate(-20 -76.01)"/></svg>