<?xml version="1.0" encoding="UTF-8"?>
<svg xmlns="http://www.w3.org/2000/svg" viewBox="0 0 162.2 32.72">
  <defs>
    <style>.cls-1{fill:#649791;}.cls-2{fill:#f0c500;}.cls-3{fill:#a2163b;}.cls-4{fill:#91beaf;}.cls-5{fill:#4a625a;}.cls-6{fill:#b9bc63;}.cls-7{fill:#000;}</style>
  </defs>
  <title>Asset 1</title>
  <g id="Layer_2">
    <g id="Layer_1-2">
      <path class="cls-1" d="M160.9,8a1.3,1.3,0,0,1-.83-.3L153.64,2.3a1.3,1.3,0,0,1,1.67-2l6.42,5.39A1.3,1.3,0,0,1,160.9,8Z"></path>
      <path class="cls-2" d="M151.47,19.1a1.3,1.3,0,0,1-.44-2.52l8-2.87a1.3,1.3,0,0,1,.88,2.45l-8,2.87A1.3,1.3,0,0,1,151.47,19.1Z"></path>
      <path class="cls-3" d="M145.15,13.8l-.23,0a1.3,1.3,0,0,1-1.06-1.5l1.46-8.33a1.3,1.3,0,0,1,2.56.45l-1.46,8.33A1.3,1.3,0,0,1,145.15,13.8Z"></path>
      <path class="cls-4" d="M151.89,14.4a1.3,1.3,0,0,1-.83-.3l-2.14-1.79a1.3,1.3,0,0,1,1.67-2l2.14,1.79a1.3,1.3,0,0,1-.84,2.3Z"></path>
      <path class="cls-5" d="M156.23,12.63l-.23,0a1.3,1.3,0,0,1-1.05-1.51l.49-2.75A1.3,1.3,0,1,1,158,8.8l-.49,2.75A1.3,1.3,0,0,1,156.23,12.63Z"></path>
      <path class="cls-6" d="M150.38,8.06a1.3,1.3,0,0,1-.44-2.52l2.63-1A1.3,1.3,0,0,1,153.45,7l-2.62,1A1.29,1.29,0,0,1,150.38,8.06Z"></path>
      <path class="cls-7" d="M6.26,28.27a4.49,4.49,0,0,1-2.35.56,3.78,3.78,0,0,1-3-1.11C.09,26.73.25,25.35.49,24L2.1,14.86c.06-.35.43-.38.76-.38s.61,0,.55.38l-.53,3H7.53c.33,0,.4.25.34.6s-.22.6-.55.6H2.67L1.8,24c-.39,2.2-.19,3.64,2.32,3.64a4.53,4.53,0,0,0,1.53-.29.71.71,0,0,1,.28-.06.37.37,0,0,1,.39.33A.73.73,0,0,1,6.26,28.27Z"></path>
      <path class="cls-7" d="M3.91,29.13a4,4,0,0,1-3.2-1.21c-.93-1.08-.77-2.55-.52-4L1.81,14.8c.11-.63.8-.63,1.06-.63a.91.91,0,0,1,.74.23.59.59,0,0,1,.11.5l-.47,2.67H7.53a.63.63,0,0,1,.51.21.86.86,0,0,1,.13.73c-.13.73-.58.84-.84.84H2.93L2.1,24.05c-.25,1.42-.19,2.23.21,2.71a2.27,2.27,0,0,0,1.81.58,4.23,4.23,0,0,0,1.43-.27A1,1,0,0,1,5.93,27a.67.67,0,0,1,.68.55,1,1,0,0,1-.16,1h0A4.84,4.84,0,0,1,3.91,29.13ZM6,28.07Z"></path>
      <path class="cls-7" d="M13.11,29.13a4.35,4.35,0,0,1-3.46-1.26,3.2,3.2,0,0,1-.58-2.73c.44-2.47,2.37-3.88,5.31-3.88a14,14,0,0,1,2.61.29,2.32,2.32,0,0,0-.36-1.76,2.29,2.29,0,0,0-1.79-.56,11.71,11.71,0,0,0-2.86.42c-.5.13-.68,0-.78-.16a.89.89,0,0,1-.13-.75c.05-.31.12-.7.58-.83a10.38,10.38,0,0,1,3.41-.46,4,4,0,0,1,3.19,1.21h0c.92,1.08.75,2.55.5,4l-.25,1.44a6,6,0,0,1-1.85,3.9A5.46,5.46,0,0,1,13.11,29.13Zm1.07-6.06c-1.94,0-2.93.67-3.19,2.18a1.71,1.71,0,0,0,.25,1.44,2.65,2.65,0,0,0,2.08.65c2.26,0,2.9-1.19,3.28-3.39l.12-.65A14.54,14.54,0,0,0,14.18,23.06Z"></path>
      <path class="cls-7" d="M21.11,29a.92.92,0,0,1-.74-.22.6.6,0,0,1-.11-.51l.93-5.21A14.83,14.83,0,0,1,21.66,21a5,5,0,0,1,5.07-3.6,5.44,5.44,0,0,1,2.14.4.68.68,0,0,1,.38.91c-.15.4-.39.85-1,.85a.81.81,0,0,1-.4-.1,4.38,4.38,0,0,0-1.36-.27c-2.54,0-3,1.56-3.45,4.13l-.9,5.06C22.05,29,21.41,29,21.11,29Z"></path>
      <path class="cls-7" d="M33.53,32.72a7.5,7.5,0,0,1-3.7-1,1,1,0,0,1-.44-.6.63.63,0,0,1,.11-.49,1.19,1.19,0,0,1,1-.63,1.15,1.15,0,0,1,.39.08,6.2,6.2,0,0,0,2.82.82c2.11,0,2.81-1,3.2-3-2.58,1-4.63.61-5.74-.54a3.52,3.52,0,0,1-.9-2.67,13.7,13.7,0,0,1,.22-1.85,13.92,13.92,0,0,1,.42-1.8,5.16,5.16,0,0,1,5.17-3.66,4,4,0,0,1,3.19,1.21h0c.91,1.1.75,2.55.5,3.94l-.89,5.05a6,6,0,0,1-1.85,3.9A5.46,5.46,0,0,1,33.53,32.72Zm2.38-13.5c-2.35,0-3.05,1.39-3.47,3.78-.22,1.23-.34,2.46.21,3.11a2.29,2.29,0,0,0,1.84.61,7.09,7.09,0,0,0,2.8-.67l.64-3.62c.24-1.38.18-2.17-.21-2.63A2.27,2.27,0,0,0,35.91,19.22Z"></path>
      <path class="cls-7" d="M45.85,29.13A4.18,4.18,0,0,1,42.77,28a3.43,3.43,0,0,1-.89-2.6,15.8,15.8,0,0,1,.28-2.2,16.73,16.73,0,0,1,.49-2.2,5.13,5.13,0,0,1,5.16-3.6,4.15,4.15,0,0,1,3.09,1.11,3.4,3.4,0,0,1,.87,2.6,3.34,3.34,0,0,1,0,.47A2.79,2.79,0,0,1,48.92,24H44c-.19,1.25-.21,2.2.25,2.75a2.33,2.33,0,0,0,1.86.6,8.19,8.19,0,0,0,3.09-.82h0a1.25,1.25,0,0,1,.42-.08c.56,0,.71.43.83.82s-.4.82-.59.92A9.87,9.87,0,0,1,45.85,29.13ZM44.28,22.2h4.84c.25,0,.58-.07.69-.7a1.84,1.84,0,0,0-.32-1.57,2.41,2.41,0,0,0-1.9-.71C45.46,19.22,44.72,20.31,44.28,22.2Z"></path>
      <path class="cls-7" d="M63.3,32.65a.91.91,0,0,1-.74-.23.59.59,0,0,1-.11-.5L64,23a13.4,13.4,0,0,1,.46-2,5.13,5.13,0,0,1,5.16-3.59,4.14,4.14,0,0,1,3.06,1.09,3.43,3.43,0,0,1,.89,2.61,15.8,15.8,0,0,1-.28,2.2,16.73,16.73,0,0,1-.49,2.2h0a5.12,5.12,0,0,1-5.14,3.6,6,6,0,0,1-2.7-.61L64.36,32C64.25,32.65,63.56,32.65,63.3,32.65Zm2-6a5.76,5.76,0,0,0,2.59.64c2.59,0,3.08-1.63,3.51-4.11.26-1.47.43-2.73-.14-3.4a2.29,2.29,0,0,0-1.84-.6c-2.61,0-3.09,1.62-3.53,4.09Z"></path>
      <path class="cls-7" d="M88.62,29.13A4.18,4.18,0,0,1,85.53,28a3.44,3.44,0,0,1-.89-2.61,15.8,15.8,0,0,1,.28-2.2,16.71,16.71,0,0,1,.49-2.2,5.07,5.07,0,0,1,5.16-3.6,4.15,4.15,0,0,1,3.07,1.09,3.44,3.44,0,0,1,.89,2.61h0a15.8,15.8,0,0,1-.28,2.2,16.73,16.73,0,0,1-.49,2.2A5.11,5.11,0,0,1,88.62,29.13Zm1.75-9.9c-2.61,0-3.1,1.63-3.53,4.11-.26,1.46-.43,2.73.14,3.4a2.32,2.32,0,0,0,1.86.6c2.59,0,3.08-1.63,3.51-4.11.26-1.47.43-2.73-.14-3.4A2.29,2.29,0,0,0,90.37,19.22Z"></path>
      <path class="cls-7" d="M100.27,29.13A4.18,4.18,0,0,1,97.18,28a3.43,3.43,0,0,1-.89-2.61,15.65,15.65,0,0,1,.28-2.2,16.66,16.66,0,0,1,.49-2.2,5.13,5.13,0,0,1,5.16-3.6,7.32,7.32,0,0,1,3.57,1,.68.68,0,0,1,.26.88c-.15.41-.36.85-.93.85a1,1,0,0,1-.42-.09,6,6,0,0,0-2.69-.82c-2.61,0-3.1,1.63-3.53,4.11-.26,1.46-.42,2.72.14,3.4a2.31,2.31,0,0,0,1.85.6,8,8,0,0,0,3-.82h0a1.22,1.22,0,0,1,.42-.08c.53,0,.65.39.74.71l0,.13c.07.24,0,.58-.53.9A9.49,9.49,0,0,1,100.27,29.13Z"></path>
      <path class="cls-7" d="M122,29.13a10,10,0,0,1-3.31-.53.88.88,0,0,1-.56-.52.62.62,0,0,1,.1-.54c.27-.38.54-.72,1-.73a.84.84,0,0,1,.27.06l.12,0a10.06,10.06,0,0,0,2.61.45c1.44,0,2.27-.55,2.46-1.64s-.62-1.22-1.86-1.48l-.11,0c-.92-.2-3.7-.82-3.22-3.53.36-2,2.08-3.23,4.6-3.23a7.67,7.67,0,0,1,2.53.37.65.65,0,0,1,.4.33.76.76,0,0,1,0,.6c-.09.26-.29.87-.91.87h-.14l-.12,0a7.41,7.41,0,0,0-2-.34c-1.47,0-2.3.52-2.48,1.54s.67,1.26,1.88,1.55l.08,0c1.1.24,3.7.81,3.23,3.47C126.1,28.25,123.88,29.13,122,29.13Z"></path>
      <path class="cls-7" d="M75.88,29a.92.92,0,0,1-.74-.22.6.6,0,0,1-.11-.51L76,23.1A14.75,14.75,0,0,1,76.43,21a5,5,0,0,1,5.07-3.6,5.29,5.29,0,0,1,2.14.4.68.68,0,0,1,.38.91c-.15.4-.39.85-1,.85a.81.81,0,0,1-.4-.1,4.38,4.38,0,0,0-1.36-.27c-2.54,0-3,1.56-3.45,4.13l-.9,5.06C76.83,29,76.19,29,75.88,29Z"></path>
      <path class="cls-7" d="M57.7,29.13a4,4,0,0,1-3.2-1.21c-.93-1.08-.77-2.55-.52-4l1.61-9.14c.11-.63.8-.63,1.06-.63a.91.91,0,0,1,.74.23.59.59,0,0,1,.11.5L57,17.58h4.29a.63.63,0,0,1,.51.21.86.86,0,0,1,.13.73c-.13.73-.58.84-.84.84H56.71l-.83,4.68c-.25,1.42-.19,2.23.21,2.71a2.27,2.27,0,0,0,1.81.58,4.23,4.23,0,0,0,1.43-.27,1,1,0,0,1,.38-.08.67.67,0,0,1,.68.55,1,1,0,0,1-.16,1h0A4.84,4.84,0,0,1,57.7,29.13Zm2.13-1.06Z"></path>
      <path class="cls-7" d="M111.08,29.13A4.18,4.18,0,0,1,108,28a3.43,3.43,0,0,1-.89-2.6,15.65,15.65,0,0,1,.28-2.2,16.66,16.66,0,0,1,.49-2.2,5.13,5.13,0,0,1,5.16-3.6,4.15,4.15,0,0,1,3.09,1.11,3.4,3.4,0,0,1,.87,2.6,3.34,3.34,0,0,1,0,.47A2.79,2.79,0,0,1,114.15,24h-5c-.19,1.25-.21,2.2.25,2.75a2.33,2.33,0,0,0,1.86.6,8.21,8.21,0,0,0,3.09-.82h0a1.22,1.22,0,0,1,.42-.08c.57,0,.71.43.83.82s-.4.81-.58.92A9.87,9.87,0,0,1,111.08,29.13Zm-1.57-6.93h4.84c.27,0,.58-.08.69-.7a1.84,1.84,0,0,0-.32-1.57,2.41,2.41,0,0,0-1.9-.71C110.69,19.22,110,20.31,109.51,22.2Z"></path>
      <path class="cls-7" d="M132.08,29.13a10,10,0,0,1-3.31-.53.88.88,0,0,1-.56-.52.62.62,0,0,1,.1-.54c.26-.37.51-.73,1-.73h0a.84.84,0,0,1,.27.06l.12,0a10,10,0,0,0,2.61.44c1.44,0,2.27-.55,2.46-1.64s-.62-1.22-1.86-1.48l-.11,0c-.92-.2-3.7-.82-3.22-3.53.36-2,2.08-3.23,4.6-3.23a7.67,7.67,0,0,1,2.53.37.66.66,0,0,1,.4.33.76.76,0,0,1,0,.6c-.09.26-.29.87-.91.87H136l-.12,0a7.3,7.3,0,0,0-2-.34c-1.47,0-2.3.52-2.48,1.54s.67,1.26,1.88,1.55l.08,0c1.1.24,3.7.81,3.23,3.47C136.22,28.25,134,29.13,132.08,29.13Z"></path>
    </g>
  </g>
</svg>
