<svg id="Layer_1" data-name="Layer 1" xmlns="http://www.w3.org/2000/svg" viewBox="0 0 160 31.78"><defs><style>.cls-1{fill:#7db965;}.cls-2{fill:#2e453a;}</style></defs><title>td_waterhouse</title><path class="cls-1" d="M20,115.89H55.53V84.11H20ZM43.3,109H35V94.15h4.21v12.23h4c2.77,0,3.92-1.9,3.92-6.81s-1.33-6.4-4.15-6.4H33.84V109H29.75V93.17H23.69V90.51H44.28c5,0,7.33,2.6,7.33,9,0,8.48-3.52,9.52-8.3,9.52Z" transform="translate(-20 -84.11)"/><path class="cls-2" d="M73.06,98.13,75,90.51h4.44l1.85,7.61h.06l1.44-7.61h4.09L84,102.45h-4.9l-2-7.78H77l-1.9,7.78h-5L67.3,90.51h4.27l1.5,7.61Zm14.76-4.27a10.72,10.72,0,0,1,3.75-.52c2.48,0,5.48.4,5.48,3.69v5.42H93v-1.33a3.29,3.29,0,0,1-2.94,1.5c-1.67,0-3.23-.75-3.23-2.6,0-2.77,2.42-3.29,4.56-3.29a12,12,0,0,1,1.67.11c0-1.15-1.15-1.27-2.25-1.27a6.61,6.61,0,0,0-3,.75V93.86Zm5.25,4.67h-.4c-.86,0-1.9.06-1.9,1,0,.63.35.86,1,.86a1.4,1.4,0,0,0,1.33-1.56v-.29Zm6.12-5v-2l4.27-1.33v3.35h2v2.6h-2v2.48c0,.75.4,1.15,1,1.15a2.69,2.69,0,0,0,1-.12v2.54a9.84,9.84,0,0,1-2.94.46c-2.25,0-3.29-1.1-3.29-3.46V96.11H97.63v-2.6h1.56ZM110.09,99c.06,1.15,1.1,1.38,2.37,1.38a6.06,6.06,0,0,0,2.94-.58v2.31a12.49,12.49,0,0,1-4,.52c-3.58,0-5.48-1.73-5.48-4.79s1.9-4.5,5.48-4.5S116,95.47,116,98.47V99h-5.94Zm2.25-1.85c0-.69-.11-1.79-1.1-1.79s-1.21,1.1-1.15,1.79Zm8.88-3.63v2h.06A2.93,2.93,0,0,1,124,93.34a2.6,2.6,0,0,1,.69.06V97a4.16,4.16,0,0,0-1-.11,2.27,2.27,0,0,0-2.19,2.37v3.23h-4.33V93.51h4Zm4.44-3.92H130v5.08a3.2,3.2,0,0,1,2.71-1.33c2.25,0,3.12,1.15,3.12,2.88v6.23h-4.33V97.32c0-.52,0-1.21-.75-1.21s-.75.69-.75,1.21v5.13h-4.32V89.59h0Zm16.78,3.75c3.58,0,5.54,1.5,5.54,4.5s-2,4.79-5.54,4.79-5.54-1.73-5.54-4.79S138.82,93.34,142.45,93.34Zm0,6.75c.86,0,1-1,1-2.25,0-1.1-.12-2-1-2s-.92.87-.92,2C141.53,99.11,141.59,100.09,142.45,100.09Zm16.78,2.36h-4v-1.56h-.06a2.88,2.88,0,0,1-2.88,1.73c-2.31,0-3.17-1.15-3.17-2.88V93.51h4.33v5.13c0,.52,0,1.21.75,1.21s.75-.69.75-1.21V93.51h4.32v8.94Zm1.33-2.88a6.33,6.33,0,0,0,3.17.81c.75,0,1.56-.11,1.56-.58,0-1.1-5-.06-5-3.46,0-2.6,2.88-3,5-3a14.85,14.85,0,0,1,3.17.35v2.42a7.38,7.38,0,0,0-2.77-.52c-.75,0-1.5.06-1.5.63,0,.86,5-.17,5,3.17,0,2.54-2.94,3.23-5,3.23a13.71,13.71,0,0,1-3.75-.52V99.57h0Zm13.5-.58c.06,1.15,1.1,1.38,2.37,1.38a6.05,6.05,0,0,0,2.94-.58v2.31a12.48,12.48,0,0,1-4,.52c-3.58,0-5.48-1.73-5.48-4.79s1.9-4.5,5.48-4.5S180,95.47,180,98.47V99h-5.94Zm2.25-1.85c0-.69-.12-1.79-1.1-1.79s-1.21,1.1-1.15,1.79h2.25Z" transform="translate(-20 -84.11)"/></svg>