<svg id="Layer_1" data-name="Layer 1" xmlns="http://www.w3.org/2000/svg" viewBox="0 0 160 37.61"><defs><style>.cls-1{fill:#376298;}</style></defs><title>trimble</title><path class="cls-1" d="M57.76,85H78.61V90.7H72v23.92H64.4V90.7H57.76Z" transform="translate(-20 -81.19)"/><path class="cls-1" d="M75.54,93.77h6.64v3.17h.1c.82-2.66,3.78-3.68,6.44-3.68V100A8.26,8.26,0,0,0,86,99.49c-2.25,0-3,.51-3.68,1.64v13.49H75.54V93.77h0Zm14.92,0h6.75v20.85H90.46V93.77Zm9.1,0h6.64v2.76h.1a7,7,0,0,1,5.93-3.27c2,0,4.09,1.23,4.19,3.27h.1a7,7,0,0,1,5.93-3.27c2.76,0,4.7,1.43,4.7,4.4v17h-6.75V99.8c0-1-.31-1.84-1.53-1.84a2,2,0,0,0-1.74.92l-.41.51v15.23H110V99.8c0-1-.41-1.84-1.64-1.84a2.13,2.13,0,0,0-1.74.92l-.41.51v15.23H99.56V93.77h0ZM129.41,85h6.74v9.91h.1a6.61,6.61,0,0,1,4.09-1.64c4.6,0,7.15,4.6,7.15,10.63,0,4.8-2,10.94-7.67,10.94a6.25,6.25,0,0,1-5.62-3.27L133,114.62h-3.58V85h0Zm6.74,22.89c-.1,1.74.92,2.76,2.25,2.76,1.84,0,2.15-1.94,2.15-5.72v-1.64c0-4.09,0-6.34-2.15-6.34a2.67,2.67,0,0,0-1.84.92l-.41.31v9.71h0ZM149.24,85H156v29.64h-6.75Zm15.23,20c0,1.84.31,5,3.07,5a3.67,3.67,0,0,0,3.37-2.86l4.5,1.64a8.67,8.67,0,0,1-8.38,5.72c-6.44,0-9.3-5.21-9.3-11s3.07-10.83,9.3-10.83c6.44,0,8.69,5.52,8.69,10.94V105Zm5-4c0-1.94-.2-4.19-2.56-4.19-1.84,0-2.45,2.25-2.45,4.19Zm-79-16.15h6.75v6H90.46v-6Zm-46.2,22.38a8.6,8.6,0,0,1-.41,1.23.77.77,0,0,0-.1.41c-.31.31-.51.51-.61.51a12.32,12.32,0,0,1-4.6,2.66,15.94,15.94,0,0,1-4.09.51l-2.86,1.53a13.59,13.59,0,0,0,7.46-.31,12.51,12.51,0,0,0,5.31-3,11.73,11.73,0,0,0,3.47-4.4c.2-.41.41-.92.61-1.43l-4.19,2.25ZM34.15,86.92H35l-.92.31,2.56,1.43A7.1,7.1,0,0,1,42,90.9c-.31,0-.61.1-1,.1l4.4,2.35v-.1a.8.8,0,0,1,.41.41l3,1.53a.38.38,0,0,1-.1-.31c0-.1-.1-.1-.1-.2s-.1-.2-.1-.31a13.63,13.63,0,0,0-4.5-6c0-.1-.1-.1-.2-.2A14,14,0,0,0,36,85.08h-.31a13.43,13.43,0,0,0-2.86,0c0,.1-.1.1-.2.1a3,3,0,0,0-1,.2c-.2,0-.51.1-.72.1L33.53,87a1.3,1.3,0,0,1,.61-.1ZM22.8,104.5a10,10,0,0,1-.72-2.76,9.54,9.54,0,0,1-.2-2.35c0-.41.1-.92.1-1.33a13.5,13.5,0,0,1,.92-3.27V90.9A10.75,10.75,0,0,0,21.68,93a13.53,13.53,0,0,0-1.53,4.7,4.41,4.41,0,0,0-.1,1.64,21.42,21.42,0,0,0,.1,2.56,13.3,13.3,0,0,0,1.12,3.68,11,11,0,0,0,1.33,2.45c0,.1.1.1.1.2s.1.2.2.31v-4.29A.36.36,0,0,1,22.8,104.5Z" transform="translate(-20 -81.19)"/><path class="cls-1" d="M44.68,97.65c-.1.31-.41.51-.61.82a17.59,17.59,0,0,1,1.64,3.88,1.3,1.3,0,0,0,.41-.61,7.3,7.3,0,0,0,.61-6.54c-.1-.1-.1-.1-.1-.2l-.31-.61c0-.1-.1-.2-.2-.31a.55.55,0,0,0-.31-.41l-.41-.31a5.74,5.74,0,0,1-.71,4.29ZM33.13,87H33a11.89,11.89,0,0,0-1.84.41,8.91,8.91,0,0,1,1.53.51A5.49,5.49,0,0,1,34,87.22l-.51-.2h-.41Zm15.33,18,9.2-5-8.89-4.8A14.33,14.33,0,0,1,48.46,105ZM36,88.66h-.1l-1,.31a21.36,21.36,0,0,1,3.78,2.66c.82-.31,1.64-.41,2.35-.61L36.6,88.66H36Zm4.29,18.81a15.38,15.38,0,0,1-13.59-5.62,10.69,10.69,0,0,0-2.35,4.09,2.91,2.91,0,0,0,0,1.33c.2.31.41.51.61.82a12.92,12.92,0,0,0,6.23,4,12.79,12.79,0,0,0,3.27.51l9.81-5.31c0-.41.1-.82.1-1.23a10.78,10.78,0,0,1-4.09,1.43ZM26.89,98.67a41.69,41.69,0,0,1,4-3.17l-.31-.61a6.17,6.17,0,0,1,.51-5.21c0-.1.1-.2.1-.31a5.63,5.63,0,0,0-2.86-.2A5.18,5.18,0,0,0,27,90.8a7.11,7.11,0,0,0-1.12,3.78,9.39,9.39,0,0,0,.51,2.86,10.83,10.83,0,0,1,.51,1.23Zm5.52-4.5a.38.38,0,0,0,.1.31,29.87,29.87,0,0,1,4-2.15A18.35,18.35,0,0,0,33,90.09l-.31.61A3.5,3.5,0,0,0,32.41,94.17Zm7.36,4.4a4.86,4.86,0,0,0,1.84-.51,22.85,22.85,0,0,0-3.47-4.29,5,5,0,0,1-.72.31,24.53,24.53,0,0,0-4,2,7.13,7.13,0,0,0,6.34,2.45ZM27.2,87.12a14,14,0,0,1,3.68-1.64l-8-4.29V90.9a12.91,12.91,0,0,1,4.29-3.78ZM43,96.63A4,4,0,0,0,43.35,93c0-.1-.1-.2-.1-.31a11.52,11.52,0,0,0-3.07.41A23.18,23.18,0,0,1,43,96.73v-.1h0Z" transform="translate(-20 -81.19)"/><path class="cls-1" d="M40,105.52A9.41,9.41,0,0,0,44.16,104a14.8,14.8,0,0,0-1.64-4.29,6.31,6.31,0,0,1-2.45.82,9.2,9.2,0,0,1-8.18-3.37A31.14,31.14,0,0,0,28,100.41,13.17,13.17,0,0,0,40,105.52Zm-14.41-5.31a9,9,0,0,1-.92-2,10.46,10.46,0,0,1-.41-5.83,10.15,10.15,0,0,0-.92,1.53c-.1.31-.31.61-.41.92v9.51a13.24,13.24,0,0,1,2.66-4.09Zm21.26,3.88-.61.61v.71c.2-.41.41-.82.61-1.33Zm-23.3,5.21c-.2-.2-.41-.51-.61-.72v10.22l8.69-4.7a4.42,4.42,0,0,1-1-.2,14.4,14.4,0,0,1-7.05-4.6Zm153,5.21v-2h-.72v-.31h1.64v.31h-.61v2Zm1.53,0h-.31v-2.35h.41l.72,1.84.71-1.84H180v2.35h-.31v-2l-.72,2h-.2l-.71-2Z" transform="translate(-20 -81.19)"/></svg>