<?xml version="1.0" encoding="UTF-8"?>
<svg xmlns="http://www.w3.org/2000/svg" xmlns:xlink="http://www.w3.org/1999/xlink" width="30px" height="27px" viewBox="0 0 30 27">
  <!-- Generator: Sketch 46.1 (44463) - http://www.bohemiancoding.com/sketch -->
  <title>uft_pdp_logo</title>
  <desc>Created with Sketch.</desc>
  <defs></defs>
  <g id="Page-1" stroke="none" stroke-width="1" fill="none" fill-rule="evenodd">
    <g id="uft_pdp_logo" fill-rule="nonzero" fill="#53565A">
      <g id="Clipped" transform="translate(8.000000, 0.000000)">
        <path d="M0.39,6.519 L2.781,2.372 C3.65,0.941 5.244,0 7.036,0 C8.774,0 10.296,0.869 11.201,2.209 L11.237,2.264 L17.756,13.618 C18.318,14.741 15.983,18.688 13.356,18.688 C13.356,18.688 12.542,18.634 12.342,18.543 L7.036,9.199 C5.424,6.537 2.328,6.103 0.39,6.519" id="Shape"></path>
      </g>
      <g id="Clipped" transform="translate(9.000000, 15.000000)">
        <path d="M18.043,0.863 L19.981,4.25 L20.088,4.431 C20.541,5.173 20.795,6.061 20.795,6.985 C20.795,9.682 18.658,11.892 15.979,12.001 L15.979,12.001 L3.266,12.001 C1.328,10.407 0.731,8.886 0.731,7.583 C0.731,6.278 1.546,5.138 1.546,5.138 L12.954,5.138 C15.199,5.137 17.844,2.493 18.043,0.863" id="Shape"></path>
      </g>
      <g id="Clipped" transform="translate(0.000000, 7.000000)">
        <path d="M9.984,20 L5.022,20 L5.022,20 C2.36,19.873 0.223,17.682 0.223,14.984 C0.223,14.15 0.422,13.372 0.785,12.702 L1.038,12.25 L7.195,1.583 C7.738,0.66 9.006,0.805 9.386,0.805 C9.784,0.805 12.881,1.203 14.04,3.902 L8.77,12.993 C8.353,13.862 8.209,14.913 8.209,15.927 C8.209,16.941 8.571,18.461 9.984,20" id="Shape"></path>
      </g>
    </g>
  </g>
</svg>
