<svg id="Layer_1" data-name="Layer 1" xmlns="http://www.w3.org/2000/svg" viewBox="0 0 160 118.38"><defs><style>.cls-1{fill:#0c0e0f;}.cls-2{fill:#2e5786;}.cls-3{fill:none;stroke:#2e5786;stroke-miterlimit:2.61;stroke-width:0.03px;}</style></defs><title>university_of_alaska</title><path class="cls-1" d="M34.29,109.26v.25c-1.66.17-1.75,1.16-1.83,3.57l-.17,4c0,2.33-1,4.73-5.07,4.73-5.57,0-5-4.07-5-5.57v-4.07c-.08-1.83-.08-2.41-2.24-2.66v-.25h6.23v.25c-2.41.33-2.41.75-2.41,2.66v3.74c0,.33-.58,5.07,4.4,5.07,3.9,0,3.49-3.74,3.49-6v-1.91c0-2.33-.17-3.32-2.66-3.57v-.25h5.23ZM52,118.73l-.17-6.64c0-1.75-.42-2.24-2.49-2.58v-.25h4.9v.25c-1.25.17-1.41.83-1.58,2a99.88,99.88,0,0,0-.08,10.3l-.25.08c-2.91-3.4-6.15-6.56-9.14-9.88v3.32c0,4.48-.17,5.4,2.49,6v.25h-5.4v-.25c2.41-.25,2.33-1.91,2.33-6.06V112.5c0-1.74-.25-2.49-2.58-3v-.25h3l9,9.47Zm12-.17c.08,1.91.08,2.41,2.24,2.74v.25H60.21v-.25c2.16-.33,2.24-.83,2.24-2.74v-6.4c0-1.83-.08-2.41-2.24-2.66v-.25h6.06v.25c-2.16.25-2.16.83-2.24,2.66v6.4Zm21.18-9.3v.25c-1.74.17-2.24,1.58-3.41,4.24L78.4,122h-.25l-4.07-9.8c-.58-1.33-1-2.49-2.58-2.66v-.25h5.73v.25c-2.58.25-1.75,1.66-1.25,2.83l2.82,7L81,114.25c1.58-3.74,1.83-4.32-.91-4.73v-.25h5.15Zm5.07,12c2.16-.33,2.16-.83,2.24-2.74v-6.4c-.08-1.83-.08-2.41-2.24-2.66v-.25H100L99.75,112H99.5c-.08-2.33-1.83-2.33-3.66-2.33H94.1v5.15H96c1.33,0,2.41-.08,2.58-1.66h.25v4.07h-.25c-.25-1.66-1.25-1.66-2.58-1.66H94.1v3c0,1.08-.25,2.57,2.74,2.57,2.24,0,3.41-.91,3.82-3.16h.25a11.93,11.93,0,0,1-.58,3.57H90.28v-.25Zm20.85-11.71c1.91,0,3.74.83,3.74,2.91s-2,2.83-3.74,2.83Zm-1.58,9c-.08,1.91-.08,2.41-2.24,2.74v.25h6.31v-.25c-2.49-.33-2.49-.75-2.49-2.74v-2.91c1.25.25,1.91-.17,2.66,1.33a15.72,15.72,0,0,0,2.49,3.57c1.08,1.08,2.49,1.08,4.4,1.16v-.33c-3-.58-4.73-3.66-6.07-6.15l-.08-.08a3.31,3.31,0,0,0,2.24-3c0-.91-.42-3.07-5-3l-4.4.17v.25c2,.17,2.16.58,2.16,3.4v5.57Zm22.76-6.15H132c-.25-1.5-.75-2.91-2.58-2.91a2,2,0,0,0-2.07,2c0,3.16,5.73,3.07,5.73,6.73,0,2.33-2.33,3.57-4.4,3.57a5.53,5.53,0,0,1-3.24-1l-.5-3.07h.33c.41,1.75,1.66,3.49,3.65,3.49a2.23,2.23,0,0,0,2.41-2.24c0-3.16-5.57-2.91-5.57-6.48,0-2.16,2.08-3.49,4.07-3.49a5.38,5.38,0,0,1,2.57.66l-.08,2.74Zm11,6.15c.08,1.91.08,2.41,2.24,2.74v.25h-6.07v-.25c2.16-.33,2.16-.83,2.24-2.74v-6.4c-.08-1.83-.08-2.41-2.24-2.66v-.25h6.07v.25c-2.16.25-2.16.83-2.24,2.66Zm19.52-9.89h.17l.25,3.41h-.25c-.66-2.24-1.66-2.33-3.74-2.33h-1.08v8.39c0,2.24.08,2.83,2.58,3.16v.25h-6.73v-.25c2.41-.33,2.58-.91,2.58-3.16v-8.39h-1.08c-2.08,0-3.07.08-3.74,2.33h-.25l.25-3.41H152l.17.17a1.08,1.08,0,0,0,1.08.42h8.31a1.22,1.22,0,0,0,1.16-.42l.17-.17Zm17.11.58v.25a3.74,3.74,0,0,0-3.07,2.33l-2.16,4.24v2c0,2.08.08,2.83,2.41,3.24v.25h-6.4v-.25c2.33-.41,2.33-1.16,2.41-3.24v-1.41l-1.91-4.15c-.66-1.5-1.16-2.74-3-3v-.25h5v.25c-1.5.17-1.25.83-.66,2.08l1.74,3.9,1.58-3c1.16-2.08,1-2.82-.58-3v-.25H180ZM42.43,134.6c.5,0,.58.75.58,1.08,0,1.5-1,4.07-1.91,4.07-.42,0-.5-.75-.5-1.08C40.6,137.34,41.6,134.6,42.43,134.6Zm.25-.25c-1.83,0-3,2.41-3,4.07,0,.91.25,1.58,1.25,1.58,1.83,0,3-2.41,3-4,0-.75-.25-1.66-1.25-1.66ZM52,135l-.17.5H50.24l-.83,3.57a8.6,8.6,0,0,1-.91,2.57,2.93,2.93,0,0,1-1.83,1.16c-.91,0-1.16-.91-.5-1.25a2.43,2.43,0,0,0,1.16.66c.58,0,.91-1.66,1-2.16l1-4.57H48.24l.08-.33,1.08-.25c.42-1.58,1.5-3.49,3.24-3.49.58,0,1.25.25,1.25.83a1,1,0,0,1-.75.91l-.08-.08v-.25c0-.5-.25-1.08-.83-1.08-1.08,0-1.66,2.16-1.91,3.24H52Zm19.36-1.16H67.68l1.74-4.73Zm.17.83a14.43,14.43,0,0,1,1.16,3.74c0,.75-.75,1-1.33,1.16v.25h5.32v-.25c-1.5-.33-1.75-.83-2.24-2.16l-4-10.63a3,3,0,0,1-1.33,1c.17.33-.08.75-.25,1.24l-1.08,3-2,5.32c-.58,1.41-.75,1.75-2.33,2.24v.25h4.9v-.25c-.75-.17-2.08-.17-2.08-1.25a15.55,15.55,0,0,1,1.16-3.66h4.07Zm10.3,4.9c2.16-.33,2.16-.83,2.24-2.74v-6.4c-.08-1.83-.08-2.41-2.24-2.66v-.25h6.06v.25c-2.16.25-2.24.83-2.24,2.66v6a7.77,7.77,0,0,0,.33,2.74l2.16.17c2.74.17,3.24-.66,4.65-3l.17.08-1,3.41H81.81Zm23.51-5.73h-3.57l1.74-4.73Zm.25.83a14.43,14.43,0,0,1,1.16,3.74c0,.75-.75,1-1.41,1.16v.25h5.4v-.25c-1.49-.33-1.83-.83-2.24-2.16l-4-10.63a3,3,0,0,1-1.33,1c.17.33-.08.75-.25,1.24l-1.08,3-2,5.32c-.58,1.41-.75,1.75-2.41,2.24v.25h5v-.25c-.83-.17-2.08-.17-2.08-1.25a15.63,15.63,0,0,1,1.16-3.66h4.07Zm17.53-4h-.25c-.33-1.5-.83-2.91-2.58-2.91a2.06,2.06,0,0,0-2.16,2c0,3.16,5.73,3.07,5.73,6.73,0,2.33-2.33,3.49-4.4,3.49a5.39,5.39,0,0,1-3.16-.91L115.7,136H116c.5,1.74,1.66,3.49,3.65,3.49a2.22,2.22,0,0,0,2.41-2.24c0-3.24-5.57-2.91-5.57-6.56,0-2.08,2.16-3.41,4.07-3.41a6,6,0,0,1,2.66.66l-.17,2.74Zm11.13,6.15c0,1.91.08,2.41,2.41,2.74v.25h-6.31v-.25c2.24-.33,2.24-.83,2.33-2.74v-6.4c-.08-1.83-.08-2.41-2.33-2.66v-.25h5.82v.25c-1.83.25-1.91.83-1.91,2.66v6.4h0Zm8.14-9.31v.25c-2.08.17-3.41,2-4.73,3.32l-1.74,1.83,3.65,4.07a8.47,8.47,0,0,0,4.07,2.74l-.08.25c-3.16-.25-3.66-.33-5.4-2.16l-3.66-4.07,2.91-3.16c1.91-2.08,1.5-2.74.33-2.82v-.25h4.65ZM155,133.85h-3.57l1.66-4.73,1.91,4.73Zm.25.83a18.65,18.65,0,0,1,1.16,3.74c0,.75-.83,1-1.41,1.16v.25h5.32v-.25c-1.5-.33-1.74-.83-2.24-2.16l-4-10.63a3,3,0,0,1-1.33,1c.17.33,0,.75-.17,1.24l-1.16,3-2,5.32c-.58,1.41-.75,1.75-2.33,2.24v.25H152v-.25c-.75-.17-2-.17-2-1.25a15.3,15.3,0,0,1,1.08-3.66h4.16Z" transform="translate(-20 -40.81)"/><path class="cls-2" d="M47.25,151.38l-3.57,5.23a.38.38,0,0,1-.25.25c-.08,0-.08-.08-.08-.17v-.25l-.42-5.15-1.41,3.82c-.5,1.25-.33,1.08.91,1.5v.17H39.6l.08-.17c.91-.33,1-.25,1.41-1.5l1.25-3.24c.5-1.41.5-1.58-.91-1.83V150h2.24l.42,5.32,2.49-3.41A11,11,0,0,0,47.66,150h2l-.08.08c-1.33.25-1.25.75-1.66,2.33l-.75,2.74c-.25,1.16-.17,1.16,1,1.5v.17H44.75v-.17a1.62,1.62,0,0,0,1.58-1.5l.92-3.74Zm2.58,4.74c.17-.83.91-3.49,1.33-3.49s.91.58,1.16.75a11.18,11.18,0,0,1-2.41,2.83l-.08-.08Zm3.57-3.41c.08-.17.17-.58-.17-.58s-.42.41-.5.66a2,2,0,0,0-1.08-.58,3.5,3.5,0,0,0-1.16.5,2.93,2.93,0,0,0-.66,1.08,11.48,11.48,0,0,0-.83,2.74c0,.25.42.33.5.33.58,0,1.66-1.5,2.82-3.07v.08l-.91,2.74c-.08.17.25.25.33.25.83,0,1.91-1.41,2.24-1.91l-.08-.08a5.79,5.79,0,0,1-1.66,1.25l1.16-3.4Zm4.82,1.16c.08-.25.5-1.25.08-1.25-.83,0-2.74,4.24-3.32,4.24s-.08-1,0-1.16l1.08-2.91c-.58.08-1,.66-1.33,1.16l-.17-.08c.25-.66.83-1.66,1.66-1.66a.56.56,0,0,1,.58.33l-1.08,3,.5-.75c.42-.66,1.5-2.58,2.41-2.58s.5,1.25.25,1.75l-.75,2.16a7,7,0,0,0,1.49-1.25l.08.17c-.42.58-1.5,1.83-2.16,1.83-.5,0-.17-.75-.08-1l.75-2Zm2.08.41c0-.5.33-2.08,1-2.08.91,0,1.08,2.91,1.08,3.9a9.46,9.46,0,0,0,.83-3c0-.25,0-.91.42-.91a.36.36,0,0,1,.33.33,12,12,0,0,1-1.66,4c-.33.58-1.66,2.66-2.49,2.66a.5.5,0,0,1,0-1c.17,0,.33.25.42.42a4.3,4.3,0,0,0,1.49-1.5c.08-1.83-.25-4.07-.58-4.07s-.66,1.16-.66,1.33l-.17-.08ZM73.91,150l-.5,1.66h-.08c0-1.25-.17-1.41-1-1.41H71.17L70,155.12c-.33,1.16-.25,1.16,1.08,1.5l-.08.17H67.52l.08-.17a1.6,1.6,0,0,0,1.5-1.5l1.25-4.9h-1c-1.16,0-1.5.58-2,1.41h-.17L67.6,150h6.31Zm-.08,5.9h.08l1.16-2.16c.25-.41.91-1.5,1.41-1.5a.47.47,0,0,1,.42.5,1,1,0,0,1-.83,1v-.08c0-.17.25-.66-.08-.66s-1.83,2.74-2.08,3.24c-.08.25-.25.66-.58.66-.5,0-.08-.83-.08-1l1-3.07c-.58.08-1,.66-1.33,1.08l-.08-.08c.25-.66.83-1.58,1.58-1.58.25,0,.5.17.5.33l-1.08,3.32Zm3.9.25c.17-.83.91-3.49,1.33-3.49s.91.58,1.16.75a11.18,11.18,0,0,1-2.41,2.83l-.08-.08Zm3.57-3.41c.08-.17.17-.58-.17-.58s-.42.41-.5.66a2,2,0,0,0-1.08-.58,3.49,3.49,0,0,0-1.16.5,2.93,2.93,0,0,0-.66,1.08,11.48,11.48,0,0,0-.83,2.74c0,.25.42.33.5.33.58,0,1.66-1.5,2.82-3.07v.08l-.91,2.74c-.08.17.25.25.33.25.83,0,1.91-1.41,2.24-1.91l-.08-.08a5.76,5.76,0,0,1-1.66,1.25l1.16-3.4Zm1.83,3.41c.58-1.83,1-3.4,1.41-3.4a3.79,3.79,0,0,1,1.16.58,11.85,11.85,0,0,1-2.41,2.91l-.17-.08Zm4.4-6.48-.17-.08-1.41.58-.08.17c.66.33.58.33.5.58L86,152.54a3,3,0,0,0-.91-.33,2.38,2.38,0,0,0-1.58.91,10.21,10.21,0,0,0-1.08,3.41c0,.17.25.33.42.33.33,0,1.16-.75,1.33-1L85.54,154h.08l-.75,2.08c0,.25-.17.75.25.75.75,0,1.74-1.16,2.16-1.83l-.08-.08a9.93,9.93,0,0,1-1.5,1.25l-.08-.08,1.91-6.48ZM90.45,155c-.42.66-1.25,1.91-2.08,1.91a.31.31,0,0,1-.33-.33A20.68,20.68,0,0,1,89.28,153v-.08A5.27,5.27,0,0,0,88,154l-.17-.08c.33-.66,1.25-1.66,1.91-1.66.17,0,.25.17.25.33a20.61,20.61,0,0,1-1.25,3.57l.08.08a10.73,10.73,0,0,0,1.5-1.33l.08.08Zm.17-4.73a.54.54,0,0,1-.5.5.46.46,0,0,1-.5-.41.56.56,0,0,1,.5-.58.48.48,0,0,1,.5.5Zm3.9,2.24-.17.42H92.94l-1,3.24.08.08a6.49,6.49,0,0,0,1.66-1.33l.08.17c-.33.58-1.5,1.83-2.24,1.83-.17,0-.42-.17-.42-.33s.08-.25.08-.33l1.08-3.32H91.19l.17-.33,1.08-.17c.08-.33.33-1.08.58-1.08s.33.08.25.42l-.17.66,1.41.08Zm2.24-2.74c-.33,0-.5.25-.5.58a.39.39,0,0,0,.42.41.48.48,0,0,0,.5-.5.46.46,0,0,0-.42-.5Zm.17,5.15a5.7,5.7,0,0,1-1.49,1.33l-.08-.08a22.81,22.81,0,0,0,1.33-3.57.3.3,0,0,0-.33-.33c-.66,0-1.58,1-1.83,1.66l.08.08a5.33,5.33,0,0,1,1.25-1.08l.08.08a22.2,22.2,0,0,0-1.33,3.57.38.38,0,0,0,.42.33c.83,0,1.66-1.25,2.08-1.91l-.17-.08Zm3.07-2.41c.42,0,.42.58.42.83,0,1.24-.83,3.4-1.5,3.4-.42,0-.42-.58-.42-.91,0-1.08.75-3.32,1.49-3.32Zm.17-.25c-1.5,0-2.41,2-2.41,3.32,0,.75.17,1.33,1,1.33,1.5,0,2.41-1.91,2.41-3.24,0-.66-.17-1.41-1-1.41Zm5.32,1.66c.08-.25.58-1.25.08-1.25-.75,0-2.74,4.24-3.32,4.24-.42,0,0-1,.08-1.16l1.08-2.91A2.2,2.2,0,0,0,102,154l-.08-.08c.17-.66.83-1.66,1.58-1.66.33,0,.58.08.66.33l-1.16,3h.08l.42-.75c.5-.66,1.58-2.58,2.41-2.58s.5,1.25.33,1.75l-.83,2.16h.08a6.52,6.52,0,0,0,1.41-1.25l.17.17c-.42.58-1.5,1.83-2.24,1.83-.5,0-.17-.75-.08-1l.75-2Zm3.74.41a3.18,3.18,0,0,1,.33,1.08,1.85,1.85,0,0,1-1.58,1.5c-.33,0-.83-.17-.83-.58a.54.54,0,0,1,.5-.5c.25.25.5.66.83.66s.42-.33.42-.66a2.56,2.56,0,0,0-.42-1.08,3.84,3.84,0,0,1-.33-1.08c0-.83,1-1.41,1.66-1.41.25,0,.66.25.66.5s-.41.41-.58.5c-.17-.17-.5-.58-.75-.58s-.33.25-.33.5a2.44,2.44,0,0,0,.42,1.16Zm8.39-4.24c1.25,0,1.74,1.24,1.74,2.33,0,1.58-1.24,4.24-3.07,4.24-1.25,0-1.74-1.16-1.74-2.24C114.54,152,116.12,150.05,117.61,150.05Zm-.08-.25a4.22,4.22,0,0,0-4.07,4.24,2.7,2.7,0,0,0,2.83,2.83,4.08,4.08,0,0,0,4.07-4.07,2.75,2.75,0,0,0-2.82-3Zm6.81,4.07c.08-.25.5-1.25.08-1.25-.83,0-2.74,4.24-3.32,4.24s-.08-1,0-1.16l1.08-2.91c-.66.08-1,.66-1.33,1.16l-.17-.08c.17-.66.83-1.66,1.66-1.66a.56.56,0,0,1,.58.33l-1.08,3,.5-.75c.42-.66,1.5-2.58,2.41-2.58s.42,1.25.25,1.75l-.75,2.16a9.83,9.83,0,0,0,1.5-1.25l.08.17c-.42.58-1.5,1.83-2.16,1.83-.5,0-.25-.75-.08-1l.75-2Zm3.16.5c.08-.33.42-1.74.91-1.74.25,0,.66.33.66.58s-.33.33-.5.42l-1.08.75Zm1.83-.91c.17-.08.5-.33.5-.5,0-.42-.58-.75-.83-.75a3.38,3.38,0,0,0-1.91,1.33,7.71,7.71,0,0,0-.58,2.74.63.63,0,0,0,.5.58,3.69,3.69,0,0,0,2.49-1.75l-.17-.08a3.5,3.5,0,0,1-1.91,1.25c-.5,0-.08-1.25,0-1.5Zm8.39,0h-2l1.91-2.74.08,2.74Zm0,1.66c0,1.08-.08,1.33-1.16,1.5l-.08.17h3.4v-.17c-1.25-.08-1.25-.5-1.33-1.66l-.17-3.49V149.8l-.17-.08a1.16,1.16,0,0,1-.75.25,1.58,1.58,0,0,1-.41.83l-2.49,3.66c-.66,1.08-1.16,1.91-2.49,2.16v.17h3.07v-.17c-.25-.08-.91-.17-.91-.5a8.32,8.32,0,0,1,1-1.91l.17-.25h2.33v1.16h0Zm3.49.91.08.08A8,8,0,0,0,142.7,155l.17.08c-.33.5-1.58,1.75-2.16,1.75a.3.3,0,0,1-.33-.33,2.52,2.52,0,0,1,.17-.66l1.58-5c0-.25.17-.25-.5-.58l.08-.17,1.33-.58.17.08-2,6.4Zm2.74.08c.17-.83.91-3.49,1.33-3.49s.91.58,1.16.75A11.18,11.18,0,0,1,144,156.2l-.08-.08Zm3.57-3.41c.08-.17.17-.58-.17-.58s-.41.41-.5.66a2,2,0,0,0-1.08-.58,3.48,3.48,0,0,0-1.16.5,2.92,2.92,0,0,0-.66,1.08,11.44,11.44,0,0,0-.83,2.74c0,.25.42.33.42.33.58,0,1.74-1.5,2.91-3.07v.08l-.91,2.74c-.08.17.25.25.33.25.83,0,1.91-1.41,2.24-1.91l-.08-.08a5.76,5.76,0,0,1-1.66,1.25l1.17-3.4Zm2.66,1.58a2.22,2.22,0,0,1,.41,1.08,1.85,1.85,0,0,1-1.66,1.5c-.33,0-.75-.17-.75-.58a.54.54,0,0,1,.5-.5c.17.25.41.66.75.66s.5-.33.5-.66a4.62,4.62,0,0,0-.41-1.08,2.56,2.56,0,0,1-.42-1.08c0-.83,1-1.41,1.74-1.41.25,0,.58.25.58.5s-.33.41-.5.5c-.17-.17-.58-.58-.83-.58s-.25.25-.25.5a3.52,3.52,0,0,0,.33,1.16Zm1.91,1.66c0-.08,1.33-3.16,2.16-3.16a.45.45,0,0,1,.41.42c0,.5-.41.83-.83,1.16A10.3,10.3,0,0,0,152.09,156Zm1.91-6.31-.17-.08-1.41.58v.17c.58.33.5.33.42.58L151.42,156c0,.17-.25.83.17.83.25,0,.58-.83,1.58-1.66,0,.5.08,1.66.83,1.66.41,0,1.08-.66,1.33-1l-.08-.08c-.17.17-.58.58-.83.58-.58,0-.58-1.25-.5-1.83.66-.33,1.5-.75,1.5-1.58a.73.73,0,0,0-.66-.75c-.91,0-1.91,1.66-2.24,2.33h-.08l1.58-4.9Zm2.74,6.48c.17-.83.91-3.49,1.33-3.49s.91.58,1.25.75a11.52,11.52,0,0,1-2.49,2.83l-.08-.08Zm3.57-3.41c.08-.17.17-.58-.17-.58s-.42.41-.5.66a2,2,0,0,0-1.08-.58,3.48,3.48,0,0,0-1.16.5,2.93,2.93,0,0,0-.66,1.08,11.52,11.52,0,0,0-.83,2.74c0,.25.42.33.5.33.58,0,1.66-1.5,2.82-3.07l.08.08-1,2.74c-.08.17.25.25.42.25.75,0,1.83-1.41,2.16-1.91l-.08-.08a4.85,4.85,0,0,1-1.66,1.25l1.16-3.4Z" transform="translate(-20 -40.81)"/><path class="cls-3" d="M20,146.23H179.92" transform="translate(-20 -40.81)"/><path class="cls-2" d="M103.16,75.95c-6.06,6.23-9,13.87-10.38,19.94h-.5c1.66-9.55,5.23-16.2,9.55-20.77a41.4,41.4,0,0,1-8.31-6.56c-9.05,4.57-15.7,11.55-20,17.11v-.33c6.23-8.81,12.79-14.37,19-17.69a43.57,43.57,0,0,1-5.15-6.4A67.44,67.44,0,0,0,93,67.31a39.34,39.34,0,0,1,31.24-2.49v-24H73.42V95.89h50.84V81A38.41,38.41,0,0,1,103.16,75.95Z" transform="translate(-20 -40.81)"/><path class="cls-2" d="M124.26,79.77V65.15h0c-9.06,1.58-15.53,5.32-20.27,10A42.77,42.77,0,0,0,124.26,79.77Z" transform="translate(-20 -40.81)"/><path class="cls-2" d="M94.1,68.31a48.78,48.78,0,0,0,8.47,6.06A33.44,33.44,0,0,1,123.68,65,43.27,43.27,0,0,0,94.1,68.31Z" transform="translate(-20 -40.81)"/></svg>