<svg id="Layer_1" data-name="Layer 1" xmlns="http://www.w3.org/2000/svg" viewBox="0 0 160 100.35"><defs><style>.cls-1{fill:#1d5a98;}.cls-2{fill:#ce8b2c;}</style></defs><title>university_of_virginia</title><path class="cls-1" d="M42.69,115.78c.11-1.4.18-7.66.18-8.16s0-5.59.07-5.94.21-1.43,1.54-1.43H46c.18,0,.21-.14.21-.36V99.1c0-.11,0-.25-.36-.25s-1.47.11-3.94.11-4-.11-4.4-.11-.25.07-.25.25V100c0,.18,0,.29.25.29H39a1.6,1.6,0,0,1,1.61,1.58c.11.89.18,3,.18,5.69v7.66c0,2.65-.47,4.8-1.86,6.3a7.63,7.63,0,0,1-5.37,2,6.67,6.67,0,0,1-5.69-2.58,8.59,8.59,0,0,1-1.15-4.55c0-1.15-.18-5.69-.18-7.59v-2.36c0-1.83,0-4.33.07-4.65a1.61,1.61,0,0,1,1.72-1.47h1.79c.25,0,.29-.07.29-.25v-.93c0-.14,0-.21-.32-.21S28,99,25.23,99s-4.55-.11-4.9-.11-.32.07-.32.29v.79c0,.25,0,.32.25.32h1.68c1.11,0,1.36.57,1.36,1.83v8.52c0,4.69.14,7.09.57,8.7a6.52,6.52,0,0,0,4.26,4.8,13.32,13.32,0,0,0,4.83.75h0c3.11,0,5.3-.82,6.73-2.15C41.69,121,42.48,118.72,42.69,115.78Z" transform="translate(-20 -49.83)"/><path class="cls-1" d="M107,122.18c.27,0,2.26-.12,3.23-.12,1.28,0,3.38.12,3.66.12s.31-.08.31-.27V121c0-.12-.08-.19-.23-.19h-1a1,1,0,0,1-1.09-1v-5.13a4,4,0,0,1,1-.08c1.63,0,2.22.85,3.62,3.27.35.58,2.06,3.73,2.8,4.28q1.24-.07,2.49-.08c.39,0,.85,0,1.21,0l.78.08c.16,0,.23-.12.23-.27v-.78c0-.23,0-.35-.19-.35a2.69,2.69,0,0,1-1.75-.43,12.28,12.28,0,0,1-2.18-2.49c-1.6-2.26-2.37-3.46-3.27-3.66v-.08c3.07-1.09,4.59-2.64,4.59-5.33a4.24,4.24,0,0,0-1.36-2.84,7.74,7.74,0,0,0-5.06-1.52c-.51,0-3.89.12-4.36.12-.7,0-3.11-.12-3.31-.12s-.23.08-.23.19v.93c0,.16,0,.27.15.27h.39c1.09,0,1.44.43,1.48,1.21v6.15c0,2.37,0,4.67,0,6.57,0,.85-.47,1-1.4,1H107c-.15,0-.23.08-.23.19v.89C106.77,122.06,106.85,122.18,107,122.18Zm4.86-15.64c0-.7.58-.85,1.17-.85a6.47,6.47,0,0,1,3.7,1,3.31,3.31,0,0,1,1.28,2.68c0,1-.66,4-5,4a8.21,8.21,0,0,1-1.17-.08Z" transform="translate(-20 -49.83)"/><path class="cls-1" d="M81.72,143.83h-.58a1.44,1.44,0,0,1-1.67-1.44c0-.58,0-5.06,0-5.29v-1.94c0-.27,0-4.9,0-5.29,0-.82.39-1,1.44-1h.66c.19,0,.23-.12.23-.27v-.93c0-.12-.08-.19-.23-.19-.31,0-2.29.12-3.42.12-1.83,0-4.24-.12-4.47-.12a.21.21,0,0,0-.23.23v.89c0,.15,0,.27.23.27h.7c1.63,0,2,.39,2,.82s.08,4.43.08,5.06v1.71c0,1.32,0,6.26-.08,6.61-.08.7-.7.74-1.67.74h-.85a.22.22,0,0,0-.23.23v.85c0,.2.08.31.23.31s2.49-.12,3.81-.12c1.75,0,3.77.12,4.08.12s.23-.12.23-.27V144C81.95,143.9,81.91,143.83,81.72,143.83Z" transform="translate(-20 -49.83)"/><path class="cls-1" d="M64.3,105.84H65c1.63,0,2,.39,2,.82s.08,4.43.08,5.06v1.71c0,1.32,0,6.26-.08,6.61-.08.7-.7.74-1.67.74h-.85a.23.23,0,0,0-.23.23v.85c0,.2.08.31.23.31s2.49-.12,3.81-.12c1.75,0,3.77.12,4.08.12s.23-.12.23-.27V121c0-.12,0-.19-.23-.19h-.58a1.44,1.44,0,0,1-1.67-1.44c0-.58,0-5.06,0-5.29v-1.95h0c0-.27,0-4.9,0-5.29,0-.82.39-1,1.44-1h.66c.19,0,.23-.12.23-.27v-.93c0-.12-.08-.19-.23-.19-.31,0-2.3.12-3.42.12-1.83,0-4.24-.12-4.47-.12a.21.21,0,0,0-.23.23v.89C64.07,105.73,64.1,105.84,64.3,105.84Z" transform="translate(-20 -49.83)"/><path class="cls-1" d="M45.35,126.92A2.6,2.6,0,0,0,42.72,124c-3.27,0-5.61,4.21-5.61,7.31,0,1.87,1.18,3.17,2.54,3.17C43.21,134.53,45.35,129.63,45.35,126.92Zm-7.21,5.17a8.28,8.28,0,0,1,1.43-4c1.23-2,2.54-2.93,3.57-2.93a1.22,1.22,0,0,1,1.23,1.38c0,1.62-2.54,6.79-5.09,6.79A1.16,1.16,0,0,1,38.14,132.09Z" transform="translate(-20 -49.83)"/><path class="cls-1" d="M136.37,105.84h.7c1.63,0,2,.39,2,.82s.08,4.43.08,5.06v1.71c0,1.32,0,6.26-.08,6.61-.08.7-.7.74-1.67.74h-.85a.23.23,0,0,0-.23.23v.85c0,.2.08.31.23.31s2.49-.12,3.81-.12c1.75,0,3.77.12,4.08.12s.23-.12.23-.27V121c0-.12,0-.19-.23-.19h-.58a1.44,1.44,0,0,1-1.67-1.44c0-.58,0-5.06,0-5.29v-1.95h0c0-.27,0-4.9,0-5.29,0-.82.39-1,1.44-1h.66c.19,0,.23-.12.23-.27v-.93c0-.12-.08-.19-.23-.19-.31,0-2.3.12-3.42.12-1.83,0-4.24-.12-4.47-.12a.21.21,0,0,0-.23.23v.89C136.13,105.73,136.17,105.84,136.37,105.84Z" transform="translate(-20 -49.83)"/><path class="cls-1" d="M100.22,143.83a2.68,2.68,0,0,1-1.75-.43,12.21,12.21,0,0,1-2.18-2.49c-1.59-2.26-2.37-3.46-3.27-3.66v-.08c3.07-1.09,4.59-2.64,4.59-5.33A4.23,4.23,0,0,0,96.26,129a7.73,7.73,0,0,0-5.06-1.52c-.51,0-3.89.12-4.36.12-.7,0-3.11-.12-3.31-.12s-.23.08-.23.19v.93c0,.15,0,.27.16.27h.39c1.09,0,1.44.43,1.48,1.21v6.15h0c0,2.37,0,4.67,0,6.57,0,.85-.47,1-1.4,1h-.47c-.15,0-.23.08-.23.19v.89c0,.2.08.31.23.31s2.26-.12,3.23-.12c1.28,0,3.38.12,3.66.12s.31-.08.31-.27V144c0-.12-.08-.19-.23-.19h-1a1,1,0,0,1-1.09-1v-5.13a3.93,3.93,0,0,1,1-.08c1.63,0,2.22.85,3.62,3.27.35.59,2.06,3.73,2.8,4.28q1.24-.07,2.49-.08c.39,0,.86,0,1.21,0l.78.08c.16,0,.23-.12.23-.27v-.78C100.42,143.94,100.38,143.83,100.22,143.83Zm-10.55-7.35a8.16,8.16,0,0,1-1.17-.08v-6.8c0-.7.58-.85,1.17-.85a6.47,6.47,0,0,1,3.69,1,3.32,3.32,0,0,1,1.28,2.68C94.65,133.44,94,136.47,89.67,136.47Z" transform="translate(-20 -49.83)"/><path class="cls-1" d="M130.13,122.53a5.12,5.12,0,0,0,5.41-5.41,4.82,4.82,0,0,0-1.24-3.73c-1-1-2.41-1.44-4.2-2.1a7,7,0,0,1-2.72-1.6,3.19,3.19,0,0,1-.62-1.91,2.56,2.56,0,0,1,2.76-2.37,3.28,3.28,0,0,1,2.57,1,9.84,9.84,0,0,1,1.36,2.76c0,.12.12.2.23.16l.7-.16a.21.21,0,0,0,.16-.23c0-.54-.39-3.07-.39-4.36,0-.19,0-.35-.35-.35s-.43,0-.51.12l-.15.27c-.08.2-.27.16-.66-.08a6,6,0,0,0-2.76-.51,5.65,5.65,0,0,0-3.66,1.17,4.56,4.56,0,0,0-1.67,3.27,5.18,5.18,0,0,0,1.36,4,12.19,12.19,0,0,0,3.81,2c2.06.78,3.58,1.75,3.58,4,0,1.67-1.87,2.64-3.11,2.64a3.67,3.67,0,0,1-3.31-1.95,4.9,4.9,0,0,1-.7-2.64c0-.15-.15-.23-.31-.27l-.7-.08c-.15,0-.23.12-.27.27,0,.62-.31,3.73-.43,4.82,0,.2.08.35.31.43s.51,0,.58-.19l.12-.31c.08-.31.31-.27.58-.08A6.68,6.68,0,0,0,130.13,122.53Z" transform="translate(-20 -49.83)"/><path class="cls-1" d="M116.5,138.77v-.93c0-.12-.08-.2-.23-.2s-1.91.08-3.34.08c-2.1,0-4-.08-4.24-.08s-.2.08-.2.2v.93c0,.12,0,.2.2.2h.93c1,0,1.9.27,1.9,1.17v1.44c0,.78-.08,1.28-.58,1.67a5.47,5.47,0,0,1-7-.89,9.44,9.44,0,0,1-2.37-6.81,8.2,8.2,0,0,1,2-5.09,5.57,5.57,0,0,1,4.16-2,5.09,5.09,0,0,1,3.93,1.87,9.8,9.8,0,0,1,1.87,2.76c.12.31.19.35.31.31l.74-.23c.12,0,.16-.12.16-.31-.08-.7-.58-4.32-.58-4.51s-.08-.43-.43-.43a.48.48,0,0,0-.51.27l-.2.35c-.08.12-.23.12-.54-.15a8.48,8.48,0,0,0-4.43-1.24,10.48,10.48,0,0,0-7,2.37,8.51,8.51,0,0,0-2.88,6.38,9.48,9.48,0,0,0,2.33,6.84,10,10,0,0,0,7,2.84,14.58,14.58,0,0,0,6.65-1.56c.27-.12.43-.23.43-.43s-.12-.43-.12-.78v-3h0c0-.66.74-.82,1.13-.82h.66A.22.22,0,0,0,116.5,138.77Z" transform="translate(-20 -49.83)"/><path class="cls-1" d="M73.31,105.85h.39a1.39,1.39,0,0,1,1.13.74c.27.39,1.44,3.93,2.1,5.72l.27.85c.31.85,2.37,6.49,3.23,8.79.12.31.31.58.62.58a.66.66,0,0,0,.62-.31c.31-.51,3.5-8.13,3.85-8.95.39-1,2.49-6.11,3.23-6.84a2.24,2.24,0,0,1,1.63-.59h.93c1.55,0,1.79.16,1.91,1,0,.39.08,2.92.08,5v8.28c0,.54-.12.7-1.94.7H91c-.19,0-.27.08-.27.23v.89c0,.15,0,.27.23.27.47,0,2.61-.12,3.31-.12,8.17,0,10.23.12,10.5.12s.35-.2.43-.39l1.4-4.12a.24.24,0,0,0-.12-.27l-.62-.35c-.12-.08-.31,0-.51.23a20.36,20.36,0,0,1-2.06,2.6c-1.32,1.05-2.41,1.09-4.12,1.09s-2.8-.12-2.8-1.94c0-.5-.08-2.76-.08-4.12v-1.32a13.83,13.83,0,0,1,2.92.27c1,.23,1.25.86,1.44,1.83,0,.15.12.15.23.15l.82-.08c.12,0,.2,0,.2-.2,0-.5-.16-1.71-.16-2.57,0-.35,0-2.41.08-2.76,0-.15-.08-.23-.23-.23l-.86,0c-.15,0-.19,0-.19.19,0,1.21-.39,1.75-1.4,2-.31.08-2.61.19-2.84.19v-6.61l4.12.08a2.33,2.33,0,0,1,1.48.59c.66.62,2.53,2.8,2.6,2.92s.27.19.35.16l.62-.27c.08,0,.08-.12,0-.27s-1.17-3.62-1.24-4-.16-.54-.23-.54-.66.08-1,.08l-8.71,0H88.33c-.89,0-2.92-.12-3.15-.12a.22.22,0,0,0-.23.23v.89c0,.2.08.27.23.27h.43c.66,0,.82.2.82.39,0,.39-.51,1.44-2,5.76-.19.58-2.1,5.41-2.33,6.22H82c-.23-.62-1.67-5.13-2-6.11-1-3.27-1.71-4.78-1.71-5.68,0-.51.58-.59,1.09-.59h.89c.16,0,.27-.08.27-.23v-.89c0-.19-.08-.27-.31-.27s-2.61.12-3.54.12-3.15-.12-3.34-.12-.23.08-.23.19v1C73.12,105.73,73.16,105.85,73.31,105.85Z" transform="translate(-20 -49.83)"/><path class="cls-1" d="M75.74,125.4h1c.21,0,.25-.11.25-.25v-.89c0-.18,0-.25-.25-.25s-1.22.11-3.83.11c-2.26,0-3.9-.11-4.22-.11s-.21.07-.21.25v.82c0,.21,0,.32.18.32h.93c.89,0,1.15.39,1.15.82a7.82,7.82,0,0,1-.5,2c-.54,1.58-1.9,5.69-2.26,6.66s-3.08,8.2-3.9,9.88c-.82-2.18-2.9-8.34-3.33-9.7-.64-2-2-6.26-2.18-7.55a6,6,0,0,1-.14-1.22c0-.61.5-.93,1.5-.93H61.6c.25,0,.29-.14.29-.32v-.82c0-.14,0-.25-.36-.25s-1.93.11-4.94.11c-2.79,0-6.21-.09-6.21-.09.81-2.76,1.31-6,3.6-6a.9.9,0,0,1,1,.71,1,1,0,0,0,1.08,1,1,1,0,0,0,1-1.13.91.91,0,0,0-.1-.36c1.58,1.89,2.88,3.46,3.15,3.73a1.73,1.73,0,0,0,.89.39c.47,0,.58-.39.58-.74v-9.1h0c0-1.59-.08-4,.12-5.83.08-.54.27-.82,1.24-.82h.39c.16,0,.23-.12.23-.27v-.82c0-.23-.08-.31-.27-.31s-1.63.12-2.45.12c-1.24,0-2.92-.12-3.19-.12s-.27.08-.27.19v.93c0,.2.08.27.27.27h.66a1.47,1.47,0,0,1,1.44.7,19.09,19.09,0,0,1,.31,3.66c.08,1.24.12,2.45.12,4.67v2.57H60c-.47-.51-4.08-5.06-4.78-5.87-.82-1-5.29-6.61-5.41-6.77s-.39-.31-.93-.31-1.28.08-1.91.08c-.43,0-1,0-1.56-.08s-.93,0-1,0a.22.22,0,0,0-.23.23v.93a.21.21,0,0,0,.23.23h.35a1.94,1.94,0,0,1,2.06,2.06V112c0,4.4-.08,7.16-.12,7.62a1.19,1.19,0,0,1-1.13,1.17H44.7c-.12,0-.16,0-.16.12v1c0,.19,0,.27.12.27.31,0,2.06-.12,2.61-.12s1.33,0,1.92.07c-.26.62-.51,1.26-.76,2H46.29c-.2,0-.37.4-.42.57l-.1.42c-.05.17,0,.29.13.29H48.1l-2.49,8.32c-1.33,4.55-2.66,6.62-3.84,6.62a.47.47,0,0,1-.42-.42,1.28,1.28,0,0,0-1.16-1.11,1,1,0,0,0-1.06,1.06,1.64,1.64,0,0,0,1.77,1.45c2.63,0,4.38-2.73,5.88-6.57,1.23-3.15,2.36-7.36,3-9.35l3.33,0c.75,0,1.11.36,1.47,1.18.47,1.07,2.15,6.26,3,8.81l.36,1.22q2.28,6.36,4.51,12.74c.18.47.32.82.61.82s.36-.18.5-.46,4.8-11.74,5.23-12.92c.61-1.5,3.47-8.84,4.4-10A3.09,3.09,0,0,1,75.74,125.4Zm-26.33-4.62c-.39,0-.82-.43-.93-1.32-.08-.35-.23-4.24-.23-6.57v-5.33h.08c.62.7,3.77,4.9,4.71,6l3.43,4.07a2.67,2.67,0,0,0-1.62-.49,5.05,5.05,0,0,0-3.64,1.67,10.13,10.13,0,0,0-1.35,2Z" transform="translate(-20 -49.83)"/><path class="cls-1" d="M144.76,127.49c-.27,0-1.63.12-2.45.12-1.24,0-2.92-.12-3.19-.12s-.27.08-.27.19v.93c0,.19.08.27.27.27h.66a1.47,1.47,0,0,1,1.44.7,19,19,0,0,1,.31,3.66c.08,1.24.12,2.45.12,4.67v2.57h-.16c-.47-.51-4.08-5.06-4.78-5.87-.82-1-5.29-6.61-5.41-6.77s-.39-.31-.93-.31-1.28.08-1.91.08c-.43,0-1,0-1.56-.08s-.93,0-1,0a.22.22,0,0,0-.23.23v.93a.21.21,0,0,0,.23.23h.35a1.94,1.94,0,0,1,2.06,2.06V135c0,4.39-.08,7.15-.12,7.62a1.19,1.19,0,0,1-1.13,1.17h-.89c-.12,0-.16,0-.16.12v1c0,.19,0,.27.12.27.31,0,2.06-.12,2.6-.12,1.13,0,2.68.12,3,.12s.19-.08.19-.23v-.93c0-.16,0-.23-.19-.23h-.82c-.39,0-.82-.43-.93-1.32-.08-.35-.23-4.24-.23-6.57V130.6h.08c.62.7,3.77,4.9,4.7,6,.43.51,2.1,2.49,3.89,4.63,1.59,1.91,2.92,3.5,3.19,3.77a1.73,1.73,0,0,0,.89.39c.47,0,.58-.39.58-.74v-9.1h0c0-1.6-.08-4,.12-5.83.08-.54.27-.82,1.24-.82h.39c.16,0,.23-.12.23-.27v-.82C145,127.57,145,127.49,144.76,127.49Z" transform="translate(-20 -49.83)"/><path class="cls-1" d="M179.73,104.45c-.23,0-1.6.12-2.29.12-1.17,0-3.11-.12-3.34-.12a.25.25,0,0,0-.27.27v.85a.25.25,0,0,0,.27.27h.62c.86,0,.82.51.51,1.13-.16.31-3.38,5-4,6-.62-.93-3.85-6.11-4.08-6.46s-.12-.66.58-.66h.59c.23,0,.27-.12.27-.27v-.85a.25.25,0,0,0-.27-.27c-.27,0-2.92.12-3.77.12s-5.5-.06-6.25,0c-1.48.06-2.85.11-4.12.11h-1.56a68.22,68.22,0,0,1-7.09-.27c-.12,0-.1,0-.15,0h0s-.05.07-.07.13c-.32,1.18-1,3.57-1.22,4.28,0,.15,0,.31.16.39l.7.27c.15.08.27,0,.35-.2a9,9,0,0,1,2.3-3,19,19,0,0,1,4.36-.35v8.36c0,2.33,0,4.39-.12,5.87,0,.31-.31.62-.89.62h-1.56c-.15,0-.23.08-.23.27v.78c0,.23.08.35.31.35s2.84-.12,3.93-.12c1.28,0,3.69.12,4,.12s.27-.12.27-.23v-.82c0-.23-.08-.35-.27-.35H155.9c-.62,0-.82-.39-.89-1,0-.31,0-3.23,0-7.31v-6.53a21,21,0,0,1,4.52.39,10.15,10.15,0,0,1,1.94,3c.08.2.19.23.43.16l.66-.2c.16-.08.23-.15.2-.31-.12-.67-.44-2.05-.67-3.1a2,2,0,0,1,1.23.46c.62.58,5.37,7.54,5.72,8.25V116c0,2.3,0,3.69,0,4,0,.54-.27.78-1.52.78h-.58a.23.23,0,0,0-.23.23v.85c0,.23.08.31.27.31s2.49-.12,3.34-.12c1.28,0,3.46.12,3.7.12s.31-.12.31-.27V121c0-.12-.08-.19-.27-.19h-.51c-.7,0-1.32,0-1.4-.85-.08-.47,0-1.52-.08-2.49v-3.27c.89-1.36,5.41-7.7,6-8a2.76,2.76,0,0,1,1.4-.31h.39c.15,0,.23-.08.23-.27v-.82C180,104.52,179.92,104.45,179.73,104.45Z" transform="translate(-20 -49.83)"/><path class="cls-1" d="M124.4,143.83h-.58a1.44,1.44,0,0,1-1.67-1.44c0-.58,0-5.06,0-5.29v-1.94h0c0-.27,0-4.9,0-5.29,0-.82.39-1,1.44-1h.66c.2,0,.23-.12.23-.27v-.93c0-.12-.08-.19-.23-.19-.31,0-2.29.12-3.42.12-1.83,0-4.24-.12-4.47-.12a.21.21,0,0,0-.23.23v.89c0,.15,0,.27.23.27h.7c1.63,0,2,.39,2,.82s.08,4.43.08,5.06v1.71c0,1.32,0,6.26-.08,6.61-.08.7-.7.74-1.67.74h-.85a.22.22,0,0,0-.23.23v.85c0,.2.08.31.23.31s2.49-.12,3.81-.12c1.75,0,3.77.12,4.08.12s.23-.12.23-.27V144C124.64,143.9,124.6,143.83,124.4,143.83Z" transform="translate(-20 -49.83)"/><path class="cls-1" d="M172.86,143.83h-.74a2.28,2.28,0,0,1-1.83-1.05,73.46,73.46,0,0,1-2.53-6.92c-.51-1.56-2.49-7.12-3-8.67-.08-.27-.15-.43-.39-.43a.5.5,0,0,0-.47.27,5.72,5.72,0,0,1-2.18,1.13c-.35.08-.43.2-.39.27s.08.31.16.39c.27.12,0,.55,0,.78-.23.66-2.53,5.95-2.8,6.49-.93,1.94-2.92,6.61-3.19,6.92a2.08,2.08,0,0,1-1.6.82h-.45a1.44,1.44,0,0,1-1.67-1.44c0-.58,0-5.06,0-5.29v-1.95c0-.27,0-4.9,0-5.29,0-.82.39-1,1.44-1h.66c.2,0,.23-.12.23-.27v-.93c0-.12-.08-.19-.23-.19-.31,0-2.29.12-3.42.12-1.83,0-4.24-.12-4.47-.12a.21.21,0,0,0-.23.23v.89c0,.15,0,.27.23.27h.7c1.63,0,2,.39,2,.82s.08,4.43.08,5.06v1.71c0,1.32,0,6.26-.08,6.61-.08.7-.7.74-1.67.74h-.85a.22.22,0,0,0-.23.23v.85c0,.2.08.31.23.31s2.49-.12,3.81-.12h6.44c.62,0,2.68.12,3,.12s.23-.12.23-.27v-.85c0-.15,0-.27-.27-.27h-1c-.82,0-.93-.51-.7-1.28.15-.47,1.4-3.69,1.55-4.16h6.26c.31.89,1.36,4,1.52,4.78a.6.6,0,0,1-.62.66h-.62c-.15,0-.19.12-.19.23v.82c0,.16,0,.35.31.35.51,0,2.8-.12,3.54-.12.89,0,3,.12,3.42.12.23,0,.27-.23.27-.35v-.82C173.06,143.94,173,143.83,172.86,143.83Zm-13.11-6.69c.19-.39,2.57-6.34,2.68-6.65s.19-.43.31-.43.15.16.23.39,1.91,6.15,2.06,6.69Z" transform="translate(-20 -49.83)"/><path class="cls-2" d="M109,90.66V71.61h4V90.66Zm-21.6,0V71.61h3.87V90.66Zm5.21,0V71.61h4.13V90.66Zm5.47,0V71.61h4.13V90.66Zm9.59-19.05V90.66h-4.13V71.61Zm3.62-1.35H89l11.42-7,10.83,7Zm-24.81,0H76.95v-7.1H98Zm16.34-7.1h20.53v7.1h-9.59l-10.94-7.1Zm17.59-1.35H79.88a23.11,23.11,0,0,1,40.52,0ZM83.56,89.54l-.23.71.61-.44.6.44-.23-.71.61-.44h-.75l-.23-.71-.23.71H83l.61.44Zm-3.3-4.4-.23.71.61-.44.61.44L81,85.14l.61-.44h-.75L80.63,84l-.23.71h-.75l.6.44ZM78,79.77l-.23.71.61-.44.61.44-.23-.71.61-.44h-.75l-.23-.71-.23.71h-.75l.6.44Zm8.09,10.9H76.95v-17l.3.22-.23.71.61-.44.61.44L78,73.87l.61-.44h-.75l-.23-.71-.23.71h-.45V71.61h9.13V90.66Zm0,1.35v5.06H76.95V92Zm28.27,0h9v5.06h-9Zm-8,3.6.61-.44h-.75l-.23-.71-.23.71H105l.6.44-.23.71.61-.44.6.44-.23-.71Zm5.35-2.16.61-.44h-.75l-.23-.71-.23.71h-.75l.6.44-.23.71.6-.44.61.44-.23-.71ZM94,95.61l-.23.71.61-.44.61.44-.23-.71.61-.44h-.75l-.23-.71-.23.71h-.75l.61.44ZM88.6,93.46l-.23.71.61-.44.61.44-.23-.71L90,93h-.75L89,92.31l-.23.71H88l.6.44ZM113,92v5.06H100.76l-.21-.65.6-.44h-.75l-.23-.71-.23.71H99.2l.61.44-.21.65H87.41V92H113ZM100.7,97.07h-1l.52-.38.52.38Zm16-7.53.61-.44h-.75l-.23-.71-.23.71h-.75l.6.44-.23.71.61-.44.6.44-.23-.71Zm3.3-4.4.61-.44h-.75l-.23-.71-.23.71h-.75l.6.44-.23.71.61-.44.6.44-.23-.71Zm2.27-5.37.61-.44h-.75l-.23-.71-.23.71H121l.6.44-.23.71.6-.44.61.44-.23-.71Zm1,10.9h-9V71.61h9v1.82h-.45l-.23-.71-.23.71h-.75l.6.44-.23.71.61-.44.6.44-.23-.71.31-.22v17Z" transform="translate(-20 -49.83)"/></svg>