<svg id="Layer_1" data-name="Layer 1" xmlns="http://www.w3.org/2000/svg" viewBox="0 0 160 33.19"><defs><style>.cls-1{fill:#1d5a98;}.cls-2{fill:#ce8b2c;}</style></defs><title>university_of_virginia_2</title><path class="cls-1" d="M106.38,113a1.53,1.53,0,0,1-1.35-1.7c0-1.65,1.25-3.9,3-3.9a1.39,1.39,0,0,1,1.41,1.54C109.43,110.36,108.29,113,106.38,113Zm-.2-.63c1.37,0,2.72-2.76,2.72-3.63a.65.65,0,0,0-.66-.74c-.55,0-1.25.5-1.91,1.56a4.42,4.42,0,0,0-.76,2.13A.62.62,0,0,0,106.19,112.35Z" transform="translate(-20 -83.41)"/><path class="cls-1" d="M110.9,108.09h-1.17c-.07,0-.1-.06-.07-.16l.05-.22c0-.09.12-.3.22-.3h1.14a7.89,7.89,0,0,1,1.47-2.83,2.7,2.7,0,0,1,1.94-.89c.76,0,1.18.46,1.18.78a.54.54,0,0,1-.52.6.52.52,0,0,1-.58-.52.48.48,0,0,0-.54-.38c-1.22,0-1.49,1.74-1.92,3.21l.76,0v.71H111.8c-.34,1.06-.95,3.31-1.6,5-.8,2.05-1.73,3.51-3.14,3.51a.88.88,0,0,1-.95-.78.55.55,0,0,1,.57-.57.68.68,0,0,1,.62.59.25.25,0,0,0,.22.22c.63,0,1.34-1.1,2.05-3.53l1.33-4.44Z" transform="translate(-20 -83.41)"/><path class="cls-1" d="M114.7,101.73l2.29,0c1.6,0,2.46-.06,2.64-.06s.19.06.19.13v.44c0,.09,0,.17-.15.17h-.92c-.54,0-.8.17-.8.5a3.21,3.21,0,0,0,.08.65c.11.69.82,3,1.16,4,.23.73,1.34,4,1.78,5.18.44-.9,1.93-4.84,2.08-5.27s.92-2.71,1.2-3.55a4.15,4.15,0,0,0,.27-1.09c0-.23-.13-.44-.61-.44h-.5c-.08,0-.1-.06-.1-.17v-.44c0-.1,0-.13.12-.13s1.05.06,2.26.06c1.39,0,1.87-.06,2-.06s.13,0,.13.13v.48c0,.08,0,.13-.13.13h-.52a1.65,1.65,0,0,0-1.36.75,48.09,48.09,0,0,0-2.35,5.33c-.23.63-2.69,6.71-2.79,6.9s-.17.25-.27.25-.23-.19-.32-.44c-.61-1.76-2.16-6.11-2.41-6.8l-.19-.65c-.46-1.36-1.36-4.13-1.6-4.7s-.38-.63-.78-.63h-.44v-.71h0ZM26.92,114.65a7.07,7.07,0,0,1-2.58-.4,3.48,3.48,0,0,1-2.27-2.56,20,20,0,0,1-.31-4.64V102.5c0-.67-.13-1-.73-1h-.9c-.11,0-.13,0-.13-.17v-.42c0-.11,0-.15.17-.15s1.13.06,2.62.06,2.41-.06,2.62-.06.17,0,.17.11v.5c0,.1,0,.13-.15.13h-1a.86.86,0,0,0-.92.78c0,.17,0,1.51,0,2.48v1.26c0,1,.08,3.44.09,4.05a4.58,4.58,0,0,0,.61,2.43,3.56,3.56,0,0,0,3,1.38,4.07,4.07,0,0,0,2.87-1.05,4.76,4.76,0,0,0,1-3.36v-4.09c0-1.45,0-2.56-.1-3a.85.85,0,0,0-.86-.84h-.84c-.11,0-.13-.06-.13-.15v-.46c0-.09,0-.13.13-.13s1.07.06,2.35.06,1.93-.06,2.1-.06.19.08.19.13v.42c0,.11,0,.19-.11.19h-.78c-.71,0-.76.54-.82.76s0,2.9,0,3.17,0,3.61-.1,4.36a5,5,0,0,1-1.61,3.69,5.11,5.11,0,0,1-3.59,1.15Z" transform="translate(-20 -83.41)"/><path class="cls-1" d="M42.23,108c0-.85,0-2.17.06-3.12,0-.29.15-.44.67-.44h.21c.08,0,.13-.06.13-.15v-.44c0-.12,0-.17-.15-.17s-.87.06-1.31.06c-.67,0-1.56-.06-1.71-.06s-.15,0-.15.1v.5c0,.1,0,.15.15.15h.35a.79.79,0,0,1,.77.38,10.24,10.24,0,0,1,.17,2c0,.67.06,1.31.06,2.5v1.37H41.4c-.25-.27-2.18-2.71-2.56-3.14S36,104,35.94,103.89s-.21-.17-.5-.17-.69,0-1,0-.56,0-.83,0l-.54,0a.12.12,0,0,0-.12.12v.5a.11.11,0,0,0,.12.12h.19a1,1,0,0,1,1.1,1.1v2.18c0,2.35,0,3.83-.06,4.08a.64.64,0,0,1-.6.62H33.2c-.06,0-.08,0-.08.06V113c0,.1,0,.15.06.15s1.1-.06,1.39-.06c.6,0,1.44.06,1.58.06s.1,0,.1-.12v-.5c0-.08,0-.13-.1-.13h-.44c-.21,0-.44-.23-.5-.71,0-.19-.12-2.27-.12-3.52v-2.85h0c.33.38,2,2.62,2.52,3.21L39.73,111c.85,1,1.56,1.87,1.71,2a.94.94,0,0,0,.48.21c.25,0,.31-.21.31-.4V108h0Zm4.53-.21c0-.15,0-2.62,0-2.83,0-.44.21-.52.77-.52h.35c.1,0,.13-.06.13-.15v-.5c0-.06,0-.1-.13-.1s-1.23.06-1.83.06c-1,0-2.27-.06-2.39-.06a.11.11,0,0,0-.12.12v.48c0,.08,0,.15.12.15h.37c.87,0,1.06.21,1.06.44s0,2.37,0,2.71v.92c0,.71,0,3.35,0,3.54,0,.38-.38.4-.89.4h-.46a.12.12,0,0,0-.12.13V113c0,.1,0,.17.12.17s1.33-.06,2-.06c.94,0,2,.06,2.19.06s.12-.06.12-.15v-.5c0-.06,0-.1-.12-.1h-.31c-.6,0-.85-.29-.89-.77,0-.31,0-2.71,0-2.83v-1h0Zm20.8.58c0,1.27,0,2.5,0,3.52,0,.46-.25.54-.75.54h-.25c-.08,0-.12,0-.12.1V113c0,.1,0,.17.12.17s1.21-.06,1.73-.06c.69,0,1.81.06,2,.06s.17,0,.17-.15v-.5c0-.06,0-.1-.12-.1h-.54a.52.52,0,0,1-.58-.52v-2.75a2.15,2.15,0,0,1,.54,0c.87,0,1.19.46,1.94,1.75a13.51,13.51,0,0,0,1.5,2.29c.35,0,.85,0,1.33,0l.64,0,.42,0c.08,0,.13-.06.13-.15v-.42c0-.13,0-.19-.1-.19a1.43,1.43,0,0,1-.94-.23,6.48,6.48,0,0,1-1.17-1.33c-.85-1.21-1.27-1.85-1.75-2v0c1.64-.58,2.46-1.42,2.46-2.85a2.27,2.27,0,0,0-.73-1.52,4.15,4.15,0,0,0-2.71-.81l-2.33.06c-.38,0-1.67-.06-1.77-.06s-.13,0-.13.1v.5c0,.08,0,.15.08.15h.21c.58,0,.77.23.79.65v3.29Zm1.58-3.56c0-.38.31-.46.62-.46a3.46,3.46,0,0,1,2,.54,1.77,1.77,0,0,1,.69,1.43c0,.54-.35,2.17-2.66,2.17a4.22,4.22,0,0,1-.62,0v-3.64h0Zm9.77,8.55a2.74,2.74,0,0,0,2.89-2.89,2.58,2.58,0,0,0-.67-2,5.81,5.81,0,0,0-2.25-1.12,3.74,3.74,0,0,1-1.46-.85,1.7,1.7,0,0,1-.33-1,1.37,1.37,0,0,1,1.48-1.27,1.75,1.75,0,0,1,1.37.56,5.22,5.22,0,0,1,.73,1.48c0,.06.06.1.13.08l.37-.08a.12.12,0,0,0,.08-.13c0-.29-.21-1.65-.21-2.33,0-.1,0-.19-.19-.19s-.23,0-.27.06l-.08.15c0,.1-.15.08-.35,0a3.24,3.24,0,0,0-1.48-.27,3,3,0,0,0-2,.62,2.45,2.45,0,0,0-.89,1.75,2.78,2.78,0,0,0,.73,2.14,6.57,6.57,0,0,0,2,1.08c1.1.42,1.92.94,1.92,2.12,0,.9-1,1.42-1.67,1.42a2,2,0,0,1-1.77-1,2.63,2.63,0,0,1-.37-1.42c0-.08-.08-.12-.17-.15l-.38,0c-.08,0-.12.06-.15.15q-.1,1.29-.23,2.58c0,.1,0,.19.17.23s.27,0,.31-.1l.06-.17c0-.17.17-.15.31,0a3.55,3.55,0,0,0,2.27.73Zm6.42-5.58c0-.15,0-2.62,0-2.83,0-.44.21-.52.77-.52h.35c.1,0,.12-.06.12-.15v-.5c0-.06,0-.1-.12-.1s-1.23.06-1.83.06c-1,0-2.27-.06-2.39-.06a.11.11,0,0,0-.12.12v.48c0,.08,0,.15.12.15h.38c.87,0,1.06.21,1.06.44s0,2.37,0,2.71v.92c0,.71,0,3.35,0,3.54,0,.38-.38.4-.89.4h-.46a.12.12,0,0,0-.12.13V113c0,.1,0,.17.12.17s1.33-.06,2-.06c.94,0,2,.06,2.19.06s.12-.06.12-.15v-.5c0-.06,0-.1-.12-.1h-.31c-.6,0-.85-.29-.89-.77,0-.31,0-2.71,0-2.83v-1h0Z" transform="translate(-20 -83.41)"/><path class="cls-1" d="M87.1,103.66s0,0,.06,0a36.32,36.32,0,0,0,3.8.15h.83c.68,0,1.41,0,2.21-.06.4,0,2.84,0,3.34,0s1.87-.06,2-.06a.13.13,0,0,1,.15.15v.46c0,.08,0,.15-.15.15h-.31c-.37,0-.4.23-.31.35s1.85,3,2.19,3.45c.31-.52,2-3,2.12-3.21.17-.33.19-.6-.27-.6h-.33a.13.13,0,0,1-.14-.15v-.46a.13.13,0,0,1,.14-.15c.13,0,1.17.06,1.79.06.38,0,1.1-.06,1.23-.06s.15,0,.15.17v.44c0,.1,0,.15-.12.15h-.21a1.46,1.46,0,0,0-.75.17,46.82,46.82,0,0,0-3.21,4.29v1.75c0,.52,0,1.08,0,1.33,0,.44.37.46.75.46h.27c.1,0,.15,0,.15.1v.5c0,.08,0,.15-.17.15s-1.29-.06-2-.06c-.46,0-1.67.06-1.79.06s-.15,0-.15-.17v-.46a.12.12,0,0,1,.12-.13h.31c.67,0,.79-.12.81-.42s0-.94,0-2.16v-.75c-.19-.37-2.73-4.1-3.06-4.41a1.08,1.08,0,0,0-.66-.25c.12.56.29,1.3.36,1.66,0,.08,0,.12-.1.17l-.35.1c-.12,0-.19,0-.23-.08a5.47,5.47,0,0,0-1-1.6,11.32,11.32,0,0,0-2.42-.21V108c0,2.18,0,3.75,0,3.91,0,.33.15.54.48.54h.79c.1,0,.15.06.15.19v.44c0,.06,0,.12-.15.12s-1.44-.06-2.12-.06-1.94.06-2.1.06-.17-.06-.17-.19v-.42c0-.1,0-.15.12-.15h.83c.31,0,.46-.17.48-.33.06-.79.06-1.89.06-3.14v-4.48a10.21,10.21,0,0,0-2.33.19,4.78,4.78,0,0,0-1.23,1.6c0,.08-.1.15-.19.1l-.37-.15c-.1,0-.1-.12-.08-.21.12-.38.49-1.68.66-2.31a.08.08,0,0,1,0-.06Zm-34.73.19v.48c0,.08-.06.12-.15.12h-.48c-.27,0-.58,0-.58.31a17.61,17.61,0,0,0,.92,3c.17.52.94,2.93,1.06,3.27h.06c.12-.44,1.14-3,1.25-3.33.79-2.31,1.06-2.87,1.06-3.08s-.08-.21-.44-.21h-.23c-.08,0-.12,0-.12-.15v-.48a.12.12,0,0,1,.12-.12c.12,0,1.21.06,1.69.06h3.18l4.66,0c.21,0,.48,0,.56,0s.08,0,.12.29.62,2,.67,2.12,0,.12,0,.15l-.33.14s-.12,0-.19-.08-1-1.23-1.39-1.56a1.24,1.24,0,0,0-.79-.31l-2.21,0v3.54c.12,0,1.35-.06,1.52-.1.54-.15.75-.44.75-1.08,0-.08,0-.1.1-.1l.46,0c.08,0,.15,0,.12.12s0,1.29,0,1.48c0,.46.06,1.1.08,1.37,0,.08,0,.1-.1.1l-.44,0c-.06,0-.1,0-.12-.08-.1-.52-.23-.85-.77-1a7.4,7.4,0,0,0-1.56-.15v.71c0,.73,0,1.93,0,2.21,0,1,.6,1,1.5,1a3,3,0,0,0,2.21-.58,10.92,10.92,0,0,0,1.1-1.39c.1-.15.21-.17.27-.12l.33.19a.13.13,0,0,1,.06.15L65.57,113c0,.1-.15.21-.23.21s-1.25-.06-5.62-.06c-.38,0-1.52.06-1.77.06s-.13-.06-.13-.15v-.48c0-.08,0-.13.15-.13h.19c1,0,1-.08,1-.37v-4.43c0-1.1,0-2.46,0-2.66-.06-.44-.19-.52-1-.52h-.5a1.2,1.2,0,0,0-.87.31A23.66,23.66,0,0,0,55,108.43c-.19.44-1.89,4.52-2.06,4.79a.35.35,0,0,1-.33.17c-.17,0-.27-.15-.33-.31-.46-1.23-1.56-4.25-1.73-4.7l-.15-.46c-.35-1-1-2.85-1.12-3.06a.75.75,0,0,0-.6-.4H48.5c-.08,0-.1-.06-.1-.12v-.52c0-.06,0-.1.12-.1s1.25.06,1.79.06,1.77-.06,1.89-.06.17,0,.17.14Zm77.51,4c0-.15,0-2.62,0-2.83,0-.44.21-.52.77-.52H131c.1,0,.12-.06.12-.15v-.5c0-.06,0-.1-.12-.1s-1.23.06-1.83.06c-1,0-2.27-.06-2.4-.06a.11.11,0,0,0-.12.12v.48c0,.08,0,.15.12.15h.38c.87,0,1.06.21,1.06.44s0,2.37,0,2.71v.92c0,.71,0,3.35,0,3.54,0,.38-.38.4-.89.4h-.46a.12.12,0,0,0-.12.13V113c0,.1,0,.17.12.17s1.33-.06,2-.06c.94,0,2,.06,2.19.06s.12-.06.12-.15v-.5c0-.06,0-.1-.12-.1h-.31c-.6,0-.85-.29-.89-.77,0-.31,0-2.71,0-2.83v-1Zm3.16.58c0,1.27,0,2.5,0,3.52,0,.46-.25.54-.75.54H132c-.08,0-.12,0-.12.1V113c0,.1,0,.17.12.17s1.21-.06,1.73-.06c.69,0,1.81.06,2,.06s.17,0,.17-.15v-.5c0-.06,0-.1-.12-.1h-.54a.52.52,0,0,1-.58-.52v-2.75a2.14,2.14,0,0,1,.54,0c.87,0,1.19.46,1.94,1.75a13.4,13.4,0,0,0,1.5,2.29c.35,0,.85,0,1.33,0l.65,0,.42,0c.08,0,.12-.06.12-.15v-.42c0-.13,0-.19-.1-.19a1.43,1.43,0,0,1-.94-.23,6.46,6.46,0,0,1-1.17-1.33c-.85-1.21-1.27-1.85-1.75-2v0c1.65-.58,2.46-1.42,2.46-2.85a2.27,2.27,0,0,0-.73-1.52,4.14,4.14,0,0,0-2.7-.81l-2.33.06c-.37,0-1.66-.06-1.77-.06s-.12,0-.12.1v.5c0,.08,0,.15.08.15h.21c.58,0,.77.23.79.65v3.29Zm1.7-3.56c0-.38.31-.46.62-.46a3.46,3.46,0,0,1,2,.54,1.77,1.77,0,0,1,.69,1.43c0,.54-.35,2.17-2.67,2.17a4.23,4.23,0,0,1-.62,0Z" transform="translate(-20 -83.41)"/><path class="cls-1" d="M148.67,110.3c0-.35.4-.44.6-.44h.35a.12.12,0,0,0,.1-.13v-.5c0-.06,0-.1-.12-.1s-1,0-1.79,0c-1.12,0-2.14,0-2.27,0s-.1,0-.1.1v.5c0,.06,0,.1.1.1h.5c.54,0,1,.15,1,.62v.77c0,.42,0,.69-.31.9a2.93,2.93,0,0,1-3.73-.48,5.06,5.06,0,0,1-1.27-3.64,4.4,4.4,0,0,1,1.08-2.73,3,3,0,0,1,2.23-1.06,2.72,2.72,0,0,1,2.1,1,5.25,5.25,0,0,1,1,1.48c.06.17.1.19.17.17l.4-.12c.06,0,.08-.06.08-.17,0-.38-.31-2.31-.31-2.41s0-.23-.23-.23a.26.26,0,0,0-.27.15l-.1.19c0,.06-.13.06-.29-.08a4.55,4.55,0,0,0-2.37-.67,5.61,5.61,0,0,0-3.73,1.27A4.56,4.56,0,0,0,140,108.2a5.08,5.08,0,0,0,1.25,3.66,5.36,5.36,0,0,0,3.73,1.52,7.8,7.8,0,0,0,3.56-.83c.15-.06.23-.12.23-.23s-.06-.23-.06-.42v-1.6h0Z" transform="translate(-20 -83.41)"/><path class="cls-1" d="M152.73,107.8c0-.15,0-2.62,0-2.83,0-.44.21-.52.77-.52h.35c.1,0,.12-.06.12-.15v-.5c0-.06,0-.1-.12-.1s-1.23.06-1.83.06c-1,0-2.27-.06-2.39-.06a.11.11,0,0,0-.12.12v.48c0,.08,0,.15.12.15H150c.87,0,1.06.21,1.06.44s0,2.37,0,2.71v.92c0,.71,0,3.35,0,3.54,0,.38-.37.4-.89.4h-.46a.12.12,0,0,0-.12.13V113c0,.1,0,.17.12.17s1.33-.06,2-.06c.94,0,2,.06,2.18.06s.12-.06.12-.15v-.5c0-.06,0-.1-.12-.1h-.31c-.6,0-.85-.29-.89-.77,0-.31,0-2.71,0-2.83v-1Zm11.21.21c0-.85,0-2.17.06-3.12,0-.29.15-.44.67-.44h.21c.08,0,.12-.06.12-.15v-.44c0-.12,0-.17-.15-.17s-.87.06-1.31.06c-.67,0-1.56-.06-1.71-.06s-.15,0-.15.1v.5c0,.1,0,.15.15.15h.35a.79.79,0,0,1,.77.38,10.3,10.3,0,0,1,.17,2c0,.67.06,1.31.06,2.5v1.37h-.08c-.25-.27-2.18-2.71-2.56-3.14s-2.83-3.54-2.89-3.62-.21-.17-.5-.17-.69,0-1,0-.56,0-.83,0l-.54,0a.12.12,0,0,0-.12.12v.5a.11.11,0,0,0,.12.12h.19a1,1,0,0,1,1.1,1.1v2.18c0,2.35,0,3.83-.06,4.08a.64.64,0,0,1-.6.62h-.48c-.06,0-.08,0-.08.06V113c0,.1,0,.15.06.15s1.1-.06,1.39-.06c.6,0,1.44.06,1.58.06s.1,0,.1-.12v-.5c0-.08,0-.13-.1-.13h-.44c-.21,0-.44-.23-.5-.71,0-.19-.12-2.27-.12-3.52v-2.85h0c.33.38,2,2.62,2.52,3.21l2.08,2.48c.85,1,1.56,1.87,1.71,2a.94.94,0,0,0,.48.21c.25,0,.31-.21.31-.4V108h0Zm8.94.85h2.83c-.08-.29-1.06-3.41-1.1-3.58s-.06-.21-.12-.21-.1.06-.17.23-1.33,3.35-1.44,3.56Zm-4.32-1.06v1c0,.12,0,2.52,0,2.83a.77.77,0,0,0,.9.77h.24a1.12,1.12,0,0,0,.85-.44c.15-.17,1.21-2.66,1.71-3.7.15-.29,1.37-3.12,1.5-3.48,0-.13.17-.35,0-.42s-.1-.15-.08-.21,0-.1.21-.15a3,3,0,0,0,1.16-.6.27.27,0,0,1,.25-.15c.12,0,.17.08.21.23.29.83,1.35,3.81,1.62,4.64a39.33,39.33,0,0,0,1.35,3.7,1.22,1.22,0,0,0,1,.56h.4c.08,0,.1.06.1.13V113c0,.06,0,.19-.15.19s-1.35-.06-1.83-.06-1.62.06-1.89.06-.17-.1-.17-.19v-.44c0-.06,0-.13.1-.13h.33a.32.32,0,0,0,.33-.35c-.08-.42-.65-2.08-.81-2.56h-3.35c-.08.25-.75,2-.83,2.23-.12.42-.06.69.38.69h.52c.12,0,.15.06.15.15V113c0,.08,0,.15-.12.15s-1.27-.06-1.6-.06H167.6c-.71,0-1.92.06-2,.06s-.12-.06-.12-.17v-.46a.12.12,0,0,1,.12-.13H166c.52,0,.85,0,.89-.4,0-.19,0-2.83,0-3.54v-.92c0-.33,0-2.41,0-2.71s-.19-.44-1.06-.44h-.38c-.1,0-.12-.06-.12-.15v-.48a.11.11,0,0,1,.12-.12c.13,0,1.42.08,2.39.06.6,0,1.67-.06,1.83-.06s.12,0,.12.1v.5c0,.08,0,.15-.12.15h-.35c-.56,0-.75.08-.77.52,0,.21,0,2.69,0,2.83Z" transform="translate(-20 -83.41)"/><path class="cls-2" d="M103.65,98.54V91.48h1.48v7.06Zm-8,0V91.48h1.43v7.06Zm1.93,0V91.48H99.1v7.06Zm2,0V91.48h1.53v7.06Zm3.56-7.06v7.06h-1.53V91.48Zm1.34-.5H96.25l4.23-2.6ZM95.3,91H91.77V88.35h7.81Zm6.05-2.63H109V91H105.4Zm6.52-.5h-15a8.56,8.56,0,0,1,15,0ZM94.22,98.12l-.09.26.22-.16.22.16-.09-.26.22-.16h-.28l-.09-.26-.09.26H94ZM93,96.49l-.09.26.22-.16.22.16-.09-.26.22-.16h-.28l-.09-.26-.09.26h-.28Zm-.84-2-.09.26.22-.16.22.16-.09-.26.22-.16h-.28l-.09-.26-.09.26h-.28Zm3,4H91.77v-6.3l.11.08-.09.26.22-.16.22.16-.09-.26.22-.16H92.1L92,91.89l-.09.26h-.17v-.67h3.38v7.06h0Zm0,.5v1.87H91.77V99Zm10.47,0H109v1.87h-3.34Zm-3,1.33.23-.16h-.28l-.09-.26-.09.26h-.28l.22.16-.09.26.22-.16.22.16Zm2-.8.22-.16h-.28l-.09-.26-.09.26h-.28l.22.16-.09.26.22-.16.22.16Zm-6.57.8-.09.26.22-.16.22.16-.09-.26.22-.16h-.28l-.09-.26-.09.26h-.28Zm-2-.8-.09.26.22-.16.22.16-.09-.26.22-.16h-.28l-.09-.26-.09.26h-.28Zm9-.54v1.87h-4.54l-.08-.24.22-.16h-.28l-.09-.26-.09.26H100l.22.16-.08.24H95.65V99Zm-4.56,1.87h-.39l.19-.14.19.14Zm5.94-2.79.22-.16h-.28l-.09-.26-.09.26H106l.23.16-.09.26.22-.16.23.16Zm1.23-1.63.22-.16h-.28l-.09-.26-.09.26h-.28l.22.16-.09.26.22-.16.22.16Zm.84-2,.22-.16h-.28l-.09-.26-.09.26h-.28l.22.16-.09.26.22-.16.22.16Zm.38,4h-3.34V91.48H109v.67h-.17l-.09-.26-.09.26h-.28l.22.16-.09.26.22-.16.22.16-.09-.26.11-.08v6.3Z" transform="translate(-20 -83.41)"/></svg>