<svg id="Layer_1" data-name="Layer 1" xmlns="http://www.w3.org/2000/svg" viewBox="0 0 160 33.27" preserveAspectRatio="xMinYMin"><defs><style>.cls-1{fill:#ff5200;}.cls-2{fill:#53565a;}</style></defs><title>Vertafore</title><path class="cls-1" d="M62.5,84.35,24.37,112.56V86.11l14.3,13.72s.29.26,1.22-.43.65-1,.65-1c-6.13-5.91-13.79-13.27-14.64-14h0a4,4,0,0,0-2.67-1A3,3,0,0,0,20,86.17v26.25c0,3.87,3.63,5.53,7.35,3L65.3,86.94v22.92L57.7,94.81s-.19-.39-1.11.29-.68,1-.68,1c2.94,5.83,6.2,12.28,7.25,14.34,1.15,2.25,4.48,1.5,4.48-.85V86.07c0-2.62-2.48-3.59-5.15-1.72" transform="translate(-20 -83.37)"/><path class="cls-1" d="M49.43,100.48c-1.13.85-1.13,1.39-1.13,1.39v4.08l-2.38-2.29s-.29-.27-1.21.42-.63,1-.63,1l2.53,2.41c1.61,1.49,3.94.51,3.94-1.28v-6s0-.54-1.13.3" transform="translate(-20 -83.37)"/><path class="cls-1" d="M49.43,92.34c1.13-.83,1.13-1.31,1.13-1.31V85.54l2,4s.14.29,1-.36.78-1,.78-1l-1.9-3.77c-.91-1.79-4.16-1.26-4.16.9v7.35s0,.48,1.13-.35" transform="translate(-20 -83.37)"/><polygon class="cls-2" points="68.8 24.68 67.16 24.68 60.98 5.87 63.09 5.87 67.98 21.09 72.86 5.87 74.98 5.87 68.8 24.68"/><path class="cls-2" d="M102.35,98.46a3.34,3.34,0,0,0-6.08,0,5.46,5.46,0,0,0-.4,2.17h6.87a5.48,5.48,0,0,0-.4-2.17m-6.47,3.59c0,2.85,1.35,4.49,3.83,4.49a4.27,4.27,0,0,0,3.41-1.48l1.29,1.14a6,6,0,0,1-4.75,2c-3.43,0-5.68-2.06-5.68-6.66,0-4.2,2-6.66,5.34-6.66s5.34,2.43,5.34,6.29v.87Z" transform="translate(-20 -83.37)"/><path class="cls-2" d="M114.06,97.53a2.72,2.72,0,0,0-2.25-1c-1.9,0-3.12,1.51-3.12,3.49v8h-1.9v-13h1.9v1.59a4.37,4.37,0,0,1,3.65-1.74,4,4,0,0,1,3.12,1.22Z" transform="translate(-20 -83.37)"/><path class="cls-2" d="M121.51,108a3.19,3.19,0,0,1-3.33-3.49v-8h-1.64V95.13h1.64V91.06h1.9v4.07h2.77v1.45h-2.77v7.93c0,1.19.56,1.9,1.77,1.9h1V108Z" transform="translate(-20 -83.37)"/><path class="cls-2" d="M132.43,102.05h-3.65c-2,0-2.91.79-2.91,2.3s.92,2.22,3,2.22a3.8,3.8,0,0,0,2.91-.87,3,3,0,0,0,.66-2.25Zm0,6v-1.24a4.57,4.57,0,0,1-3.75,1.4c-1.8,0-2.85-.34-3.67-1.19a3.75,3.75,0,0,1-1-2.64c0-2.27,1.59-3.75,4.49-3.75h3.91V99.38c0-1.9-1-2.85-3.33-2.85A3.41,3.41,0,0,0,125.83,98l-1.29-1.19c1.16-1.51,2.48-1.93,4.6-1.93,3.49,0,5.2,1.51,5.2,4.33V108Z" transform="translate(-20 -83.37)"/><path class="cls-2" d="M139.29,96.58V108h-1.9V96.58h-1.66V95.13h1.66V92.67a3.17,3.17,0,0,1,3.3-3.49h1.37v1.64h-1c-1.21,0-1.74.71-1.74,1.9v2.4h2.77v1.45Z" transform="translate(-20 -83.37)"/><path class="cls-2" d="M150.42,97.53a3.33,3.33,0,0,0-2.38-1,3.27,3.27,0,0,0-2.35,1c-1,1-1.06,2.56-1.06,4s.11,3.06,1.06,4a3.27,3.27,0,0,0,2.35,1,3.34,3.34,0,0,0,2.38-1c1-1,1-2.56,1-4s-.08-3.06-1-4m1.35,9.19a5.43,5.43,0,0,1-7.45,0c-1.32-1.35-1.58-3.17-1.58-5.18s.26-3.83,1.58-5.18a5.43,5.43,0,0,1,7.45,0c1.32,1.35,1.59,3.17,1.59,5.18s-.26,3.83-1.59,5.18" transform="translate(-20 -83.37)"/><path class="cls-2" d="M162.36,97.53a2.72,2.72,0,0,0-2.25-1c-1.9,0-3.12,1.51-3.12,3.49v8h-1.9v-13H157v1.59a4.36,4.36,0,0,1,3.65-1.74,4,4,0,0,1,3.12,1.22Z" transform="translate(-20 -83.37)"/><path class="cls-2" d="M172.21,98.46a3.34,3.34,0,0,0-6.08,0,5.47,5.47,0,0,0-.4,2.17h6.87a5.48,5.48,0,0,0-.4-2.17m-6.47,3.59c0,2.85,1.35,4.49,3.83,4.49a4.27,4.27,0,0,0,3.41-1.48l1.29,1.14a6,6,0,0,1-4.75,2c-3.43,0-5.68-2.06-5.68-6.66,0-4.2,2-6.66,5.34-6.66s5.34,2.43,5.34,6.29v.87Z" transform="translate(-20 -83.37)"/><path class="cls-2" d="M178.21,98.48A1.79,1.79,0,1,1,180,96.69,1.79,1.79,0,0,1,178.21,98.48Zm0-3.25a1.46,1.46,0,1,0,1.43,1.46A1.44,1.44,0,0,0,178.21,95.22Zm.38,2.43-.4-.77h-.25v.77h-.36V95.71h.73a.6.6,0,0,1,.62.59.54.54,0,0,1-.38.53l.43.82ZM178.27,96h-.33v.58h.33a.29.29,0,1,0,0-.58Z" transform="translate(-20 -83.37)"/></svg>
