<svg id="Layer_1" data-name="Layer 1" xmlns="http://www.w3.org/2000/svg" xmlns:xlink="http://www.w3.org/1999/xlink" viewBox="0 0 160 37.13"><defs><style>.cls-1{fill:url(#linear-gradient);}.cls-2{fill:#6700e8;}.cls-3{fill:url(#linear-gradient-2);}.cls-4{fill:url(#linear-gradient-3);}.cls-5{fill:url(#linear-gradient-4);}.cls-6{fill:url(#linear-gradient-5);}.cls-7{fill:url(#linear-gradient-6);}.cls-8{fill:url(#linear-gradient-7);}.cls-9{fill:url(#linear-gradient-8);}.cls-10{fill:url(#linear-gradient-9);}.cls-11{fill:url(#linear-gradient-10);}.cls-12{fill:url(#linear-gradient-11);}.cls-13{fill:#200045;}.cls-14{fill:url(#linear-gradient-12);}.cls-15{fill:url(#linear-gradient-13);}.cls-16{fill:url(#linear-gradient-14);}.cls-17{fill:url(#linear-gradient-15);}.cls-18{fill:url(#linear-gradient-16);}.cls-19{fill:url(#linear-gradient-17);}.cls-20{fill:url(#linear-gradient-18);}.cls-21{fill:url(#linear-gradient-19);}.cls-22{fill:url(#linear-gradient-20);}.cls-23{fill:url(#radial-gradient);}.cls-24{fill:url(#linear-gradient-21);}.cls-25{fill:url(#linear-gradient-22);}.cls-26{fill:url(#radial-gradient-2);}</style><linearGradient id="linear-gradient" x1="-4324.48" y1="-3140.87" x2="-4321.46" y2="-3124.21" gradientTransform="matrix(1.53, 0, 0, -1.53, 6771.72, -4682.02)" gradientUnits="userSpaceOnUse"><stop offset="0" stop-color="#210045"/><stop offset="0.59" stop-color="#430085"/><stop offset="1" stop-color="#5000b2"/></linearGradient><linearGradient id="linear-gradient-2" x1="-4401.58" y1="-3125.47" x2="-4392.63" y2="-3143.73" gradientTransform="matrix(1.53, 0, 0, -1.53, 6771.72, -4682.02)" gradientUnits="userSpaceOnUse"><stop offset="0" stop-color="#5500bd"/><stop offset="1" stop-color="#5000ac"/></linearGradient><linearGradient id="linear-gradient-3" x1="-4398.69" y1="-3134.76" x2="-4397.53" y2="-3134.32" gradientTransform="matrix(1.53, 0, 0, -1.53, 6771.72, -4682.02)" gradientUnits="userSpaceOnUse"><stop offset="0" stop-color="#2a005a"/><stop offset="1" stop-color="#210046"/></linearGradient><linearGradient id="linear-gradient-4" x1="-4408.49" y1="-3143.45" x2="-4402.33" y2="-3127.53" gradientTransform="matrix(1.53, 0, 0, -1.53, 6771.72, -4682.02)" gradientUnits="userSpaceOnUse"><stop offset="0" stop-color="#21004e"/><stop offset="1" stop-color="#39007f"/></linearGradient><linearGradient id="linear-gradient-5" x1="-4411.65" y1="-3128.75" x2="-4410.45" y2="-3129.47" gradientTransform="matrix(1.53, 0, 0, -1.53, 6771.72, -4682.02)" gradientUnits="userSpaceOnUse"><stop offset="0" stop-color="#1b0041"/><stop offset="1" stop-color="#21004f"/></linearGradient><linearGradient id="linear-gradient-6" x1="-4409.19" y1="-3122.08" x2="-4415.6" y2="-3135.48" gradientTransform="matrix(1.53, 0, 0, -1.53, 6771.72, -4682.02)" gradientUnits="userSpaceOnUse"><stop offset="0" stop-color="#5500bd"/><stop offset="1" stop-color="#47008d"/></linearGradient><linearGradient id="linear-gradient-7" x1="-4422.25" y1="-3122.29" x2="-4415.87" y2="-3135.6" gradientTransform="matrix(1.53, 0, 0, -1.53, 6771.72, -4682.02)" gradientUnits="userSpaceOnUse"><stop offset="0" stop-color="#5100b2"/><stop offset="1" stop-color="#5500bd"/></linearGradient><linearGradient id="linear-gradient-8" x1="-4421.12" y1="-3129.48" x2="-4419.97" y2="-3128.72" gradientTransform="matrix(1.53, 0, 0, -1.53, 6771.72, -4682.02)" gradientUnits="userSpaceOnUse"><stop offset="0" stop-color="#27005d" stop-opacity="0.98"/><stop offset="0.32" stop-color="#2b005d"/><stop offset="0.6" stop-color="#280055"/><stop offset="0.81" stop-color="#24004d"/><stop offset="1" stop-color="#230049"/></linearGradient><linearGradient id="linear-gradient-9" x1="-4415.94" y1="-3135.52" x2="-4414.56" y2="-3146.41" gradientTransform="matrix(1.53, 0, 0, -1.53, 6771.72, -4682.02)" gradientUnits="userSpaceOnUse"><stop offset="0" stop-color="#5500bd"/><stop offset="1" stop-color="#5300b5"/></linearGradient><linearGradient id="linear-gradient-10" x1="-4416.4" y1="-3135.58" x2="-4416.4" y2="-3146.35" gradientTransform="matrix(1.53, 0, 0, -1.53, 6771.72, -4682.02)" gradientUnits="userSpaceOnUse"><stop offset="0" stop-color="#210045"/><stop offset="0.25" stop-color="#25004d"/><stop offset="0.5" stop-color="#2b005c"/><stop offset="0.75" stop-color="#340071"/><stop offset="1" stop-color="#3e0088"/></linearGradient><linearGradient id="linear-gradient-11" x1="-4410.4" y1="-3143.7" x2="-4401.24" y2="-3125.35" gradientTransform="matrix(1.53, 0, 0, -1.53, 6771.72, -4682.02)" gradientUnits="userSpaceOnUse"><stop offset="0" stop-color="#4d00a1"/><stop offset="1" stop-color="#5200b4"/></linearGradient><linearGradient id="linear-gradient-12" x1="-4406.27" y1="-3137.38" x2="-4396.34" y2="-3137.38" gradientTransform="matrix(1.53, 0, 0, -1.53, 6771.72, -4682.02)" gradientUnits="userSpaceOnUse"><stop offset="0" stop-color="#6700e8"/><stop offset="0.51" stop-color="#6700e8"/><stop offset="1" stop-color="#6700e8"/></linearGradient><linearGradient id="linear-gradient-13" x1="-4389.22" y1="-3134.24" x2="-4387.6" y2="-3134.24" gradientTransform="matrix(1.53, 0, 0, -1.53, 6771.72, -4682.02)" gradientUnits="userSpaceOnUse"><stop offset="0" stop-color="#5a00c9"/><stop offset="1" stop-color="#4f00a8"/></linearGradient><linearGradient id="linear-gradient-14" x1="-4390.78" y1="-3134.24" x2="-4389.18" y2="-3134.24" gradientTransform="matrix(1.53, 0, 0, -1.53, 6771.72, -4682.02)" gradientUnits="userSpaceOnUse"><stop offset="0" stop-color="#390080"/><stop offset="0.5" stop-color="#31006e"/><stop offset="1" stop-color="#250056"/></linearGradient><linearGradient id="linear-gradient-15" x1="-4377.39" y1="-3134.24" x2="-4375.73" y2="-3134.24" gradientTransform="matrix(1.53, 0, 0, -1.53, 6771.72, -4682.02)" gradientUnits="userSpaceOnUse"><stop offset="0" stop-color="#3f008b"/><stop offset="1" stop-color="#220050"/></linearGradient><linearGradient id="linear-gradient-16" x1="-4389.19" y1="-3134.1" x2="-4375.76" y2="-3134.1" gradientTransform="matrix(1.53, 0, 0, -1.53, 6771.72, -4682.02)" gradientUnits="userSpaceOnUse"><stop offset="0" stop-color="#6700e8"/><stop offset="0.5" stop-color="#6700e8"/><stop offset="1" stop-color="#6700e8"/></linearGradient><linearGradient id="linear-gradient-17" x1="-4357.77" y1="-3126.7" x2="-4368.07" y2="-3141.87" gradientTransform="matrix(1.53, 0, 0, -1.53, 6771.72, -4682.02)" gradientUnits="userSpaceOnUse"><stop offset="0" stop-color="#1c0044"/><stop offset="0.1" stop-color="#2f0065"/><stop offset="0.2" stop-color="#34006d"/><stop offset="0.3" stop-color="#3b007a"/><stop offset="0.4" stop-color="#3c007a"/><stop offset="0.5" stop-color="#490096"/><stop offset="0.6" stop-color="#5000ab"/><stop offset="0.7" stop-color="#5400ba"/><stop offset="0.8" stop-color="#5500bc"/><stop offset="0.9" stop-color="#5700c2"/><stop offset="1" stop-color="#5c00ce"/></linearGradient><linearGradient id="linear-gradient-18" x1="-4369.35" y1="-3142.42" x2="-4356.45" y2="-3126.27" gradientTransform="matrix(1.53, 0, 0, -1.53, 6771.72, -4682.02)" gradientUnits="userSpaceOnUse"><stop offset="0" stop-color="#1b0041"/><stop offset="0.1" stop-color="#1b0041"/><stop offset="0.2" stop-color="#1b0041"/><stop offset="0.3" stop-color="#240052"/><stop offset="0.4" stop-color="#32006a"/><stop offset="0.5" stop-color="#3d007d"/><stop offset="0.6" stop-color="#490098"/><stop offset="0.7" stop-color="#4f00a8"/><stop offset="0.8" stop-color="#5500bc"/><stop offset="0.9" stop-color="#5700c2"/><stop offset="1" stop-color="#6000da"/></linearGradient><linearGradient id="linear-gradient-19" x1="-4334.63" y1="-3125.28" x2="-4344.28" y2="-3143.5" gradientTransform="matrix(1.53, 0, 0, -1.53, 6771.72, -4682.02)" gradientUnits="userSpaceOnUse"><stop offset="0" stop-color="#1e0046"/><stop offset="0.1" stop-color="#2d0061"/><stop offset="0.2" stop-color="#33006b"/><stop offset="0.3" stop-color="#400082"/><stop offset="0.4" stop-color="#490096"/><stop offset="0.5" stop-color="#5000ac"/><stop offset="0.6" stop-color="#5500bd"/><stop offset="0.7" stop-color="#4f00a8"/><stop offset="0.8" stop-color="#5500bc"/><stop offset="0.9" stop-color="#5700c2"/><stop offset="1" stop-color="#6000da"/></linearGradient><linearGradient id="linear-gradient-20" x1="-4345.59" y1="-3144.16" x2="-4333.36" y2="-3124.69" xlink:href="#linear-gradient-18"/><radialGradient id="radial-gradient" cx="-1781.1" cy="-3621.59" r="1.6" gradientTransform="matrix(-0.55, 1.86, 1.96, 0.58, 6282.18, 5519.39)" gradientUnits="userSpaceOnUse"><stop offset="0" stop-color="#6000d8"/><stop offset="0.21" stop-color="#5c00cd"/><stop offset="0.37" stop-color="#5500be"/><stop offset="0.72" stop-color="#2d0062"/><stop offset="1" stop-color="#210045"/></radialGradient><linearGradient id="linear-gradient-21" x1="-4325.24" y1="-3140.97" x2="-4322.84" y2="-3124.41" gradientTransform="matrix(1.53, 0, 0, -1.53, 6771.72, -4682.02)" gradientUnits="userSpaceOnUse"><stop offset="0" stop-color="#47008d"/><stop offset="1" stop-color="#5100b3"/></linearGradient><linearGradient id="linear-gradient-22" x1="-4375.77" y1="-3134.24" x2="-4374.16" y2="-3134.24" gradientTransform="matrix(1.53, 0, 0, -1.53, 6771.72, -4682.02)" gradientUnits="userSpaceOnUse"><stop offset="0" stop-color="#5500bd"/><stop offset="1" stop-color="#5200b2"/></linearGradient><radialGradient id="radial-gradient-2" cx="-1409.05" cy="-933.26" r="1.44" gradientTransform="matrix(-2.02, -0.36, -0.26, 1.44, -2911.8, 921.19)" gradientUnits="userSpaceOnUse"><stop offset="0" stop-color="#6700e8"/><stop offset="0.4" stop-color="#5c00ce"/><stop offset="0.7" stop-color="#5600bf" stop-opacity="0.05"/><stop offset="1" stop-color="#220047" stop-opacity="0"/></radialGradient></defs><title>yahoo</title><path class="cls-1" d="M178,81.86a2.19,2.19,0,0,1,2,2.25,8.16,8.16,0,0,1-.29,1.54c-.82,3.62-4,16.43-5.39,25l-1.24-1.24,4-26.29.92-1.23Z" transform="translate(-20 -81.43)"/><path class="cls-2" d="M97.94,85.34a10.3,10.3,0,0,1-4.88,0L95.59,88l2.34-2.64Zm-25.39,0a10.3,10.3,0,0,0,4.88,0L74.89,88Z" transform="translate(-20 -81.43)"/><path class="cls-3" d="M58.21,85.33c3.75,9.48,9.64,23.82,12.58,29.31l-4.35-1.33L55.69,86.41l2.53-1.08Z" transform="translate(-20 -81.43)"/><path class="cls-2" d="M54.81,85.33a4.84,4.84,0,0,0,3.41,0l-2.42,1.49Z" transform="translate(-20 -81.43)"/><path class="cls-4" d="M56.53,86.36l11,26.88a5.51,5.51,0,0,1-1.57,1.4c-3.18-8.18-6.59-16.37-9.48-24.44L55,87.78l1.51-1.42Z" transform="translate(-20 -81.43)"/><path class="cls-5" d="M47.1,114.64l-3.24-1.15L55.26,86.76l1.27-.39v4C54.76,95.43,50.26,106.65,47.1,114.64Z" transform="translate(-20 -81.43)"/><path class="cls-2" d="M44.42,81.43l1.07,2.44,2.73-1.27,1.11-1.17A10.09,10.09,0,0,1,44.42,81.43Z" transform="translate(-20 -81.43)"/><path class="cls-6" d="M36.7,102.73l-1.86.68-1.17-2.05L45.3,82.8l.83-.28a10.2,10.2,0,0,0,3.21-1.08C47.5,83.93,40.77,95.58,36.7,102.73Z" transform="translate(-20 -81.43)"/><path class="cls-7" d="M34.16,102.43l.49-.49,11.5-19.43-1.73-1.08C43,84,37.91,92.39,34.65,97.75l-1.56,2.93,1.07,1.76Z" transform="translate(-20 -81.43)"/><path class="cls-8" d="M24.88,81.43c2.55,4.52,6.46,10.84,9.77,16.31v4.2l-.78.78L22.44,82.41l2.44-1Z" transform="translate(-20 -81.43)"/><path class="cls-2" d="M23,82.66l1.88-1.23a9.11,9.11,0,0,1-4.88,0l.78.88,2.22.35Z" transform="translate(-20 -81.43)"/><path class="cls-9" d="M34.65,101.95l-.88,1.27-1.17-.49C30.42,99,24,87.47,20,81.43a7.44,7.44,0,0,0,3.17,1.12Z" transform="translate(-20 -81.43)"/><path class="cls-10" d="M37,118.45l-3.32-1.56L34,103l.68-1.07,2.05.78Z" transform="translate(-20 -81.43)"/><path class="cls-11" d="M34.65,117.38l-2.34,1.07.29-15.73,2.05-.78v15.43Z" transform="translate(-20 -81.43)"/><path class="cls-12" d="M42.27,114.64c4.08-8.31,8.61-19.45,12.54-29.32l1.72,1L45.41,113.58l-2.26.77-.88.29Z" transform="translate(-20 -81.43)"/><path class="cls-13" d="M67.37,113.2l3.42,1.44a10,10,0,0,0-4.87,0l.67-1.64Z" transform="translate(-20 -81.43)"/><path class="cls-14" d="M48.91,105l2.4-1q5.2.18,10.39,0l2.44,1.06-2.27.5H50.64L48.91,105Z" transform="translate(-20 -81.43)"/><path class="cls-13" d="M50.51,106l-1.61-1q7.61-.12,15.24,0l-1.61,1c-4-.13-8-.11-12,0Z" transform="translate(-20 -81.43)"/><path class="cls-15" d="M77.43,114.64,74,113.47V87.2l1-.49,2.44-1.37A279.64,279.64,0,0,0,77.43,114.64Z" transform="translate(-20 -81.43)"/><path class="cls-16" d="M75,113.28V114l-2.44.68c.39-9.75.43-19.52,0-29.3L75,86.71Z" transform="translate(-20 -81.43)"/><path class="cls-17" d="M93.05,114.64l3.42-1.17V87.2l-1-.49-2.44-1.37A279.47,279.47,0,0,1,93.05,114.64Z" transform="translate(-20 -81.43)"/><path class="cls-18" d="M75,99.93,77.05,99c5.45.14,10.92.13,16.38,0l2.06.92-2.55.61H77l-2-.61Z" transform="translate(-20 -81.43)"/><path class="cls-19" d="M115.18,85.33c-9.59,0-14.38,6-14.38,14.72,0,10.92,7.25,14.71,14.25,14.71,8.33,0,14.29-4.68,14.29-14.68,0-9.62-5.65-14.75-14.17-14.75Zm-.29,1.39h.27c6.34,0,11,4.32,11,13.33s-4.65,13.32-11,13.32c-6.91,0-11-4.95-11-13.3,0-9.44,5-13.24,10.68-13.36Z" transform="translate(-20 -81.43)"/><path class="cls-20" d="M115.14,84.94c-10.36,0-15.8,6.57-15.8,15.08,0,9.32,5.93,15,15.78,15,10.65,0,15.84-6.41,15.84-14.91C131,90.65,124.76,84.94,115.14,84.94Zm0,1c8.18,0,13.6,4.92,13.6,14.16,0,9.6-5.73,14.1-13.73,14.1-6.73,0-13.69-3.63-13.69-14.12,0-8.37,4.6-14.13,13.81-14.13Z" transform="translate(-20 -81.43)"/><path class="cls-21" d="M151,83.83c-9.74,0-16.41,5.5-16.41,16.23,0,10.52,6.21,16.4,16.45,16.4,7.76,0,16.25-4,16.25-16.25C167.27,87,158,83.83,151,83.83ZM150.92,85c7.75,0,13.45,4.71,13.45,15.09,0,11.28-6.9,14.94-13.44,14.94-7,0-13.35-4.1-13.35-15.17,0-11.47,7.05-14.86,13.34-14.86Z" transform="translate(-20 -81.43)"/><path class="cls-22" d="M150.91,83.18c-10.32,0-18.2,5.86-18.2,16.75,0,9,5.25,16.87,18.29,16.87,11,0,18.25-6.07,18.25-16.71,0-10-6.73-16.91-18.34-16.91Zm.06,1.09c6.82,0,15.85,3.06,15.85,15.94,0,11.94-8.27,15.81-15.81,15.81-10,0-16-5.72-16-16C135,89.63,141.5,84.27,151,84.27Z" transform="translate(-20 -81.43)"/><path class="cls-23" d="M170,116.32a2.26,2.26,0,0,1,2.3-2.43,2.32,2.32,0,0,1,2.57,2.28,2.15,2.15,0,0,1-2.22,2.4C171.23,118.57,170,117.81,170,116.32Z" transform="translate(-20 -81.43)"/><path class="cls-24" d="M172.5,110.35c1.19-8.42,1.92-17.26,2.61-26.09a2.22,2.22,0,0,1,2.33-2.45,4.58,4.58,0,0,1,.51,0L177.63,84l-4.18,26.15-1,.23Z" transform="translate(-20 -81.43)"/><path class="cls-13" d="M32.31,118.45l2.35-1.72L37,118.45a15.72,15.72,0,0,0-2.34-.24A18.05,18.05,0,0,0,32.31,118.45Zm10-3.81,3.28-1.42a5,5,0,0,0,1.56,1.41,10,10,0,0,0-4.83,0h0Zm30.28,0a10.3,10.3,0,0,1,4.88,0L75,113.28ZM77.05,101,75,99.93c6.83.07,13.66.08,20.5,0L93.44,101Q85.25,100.9,77.05,101Z" transform="translate(-20 -81.43)"/><path class="cls-25" d="M95.49,113.28V114l2.44.68c-.39-9.75-.43-19.52,0-29.3l-2.44,1.37Z" transform="translate(-20 -81.43)"/><path class="cls-13" d="M97.94,114.64a10.3,10.3,0,0,0-4.88,0l2.44-1.37Zm75.64-5.28-1.08,1a3.15,3.15,0,0,1,1.83.28l-.75-1.27Z" transform="translate(-20 -81.43)"/><path class="cls-26" d="M179.94,84a2.4,2.4,0,1,1-2.38-2.08A2.25,2.25,0,0,1,179.94,84Z" transform="translate(-20 -81.43)"/></svg>