<svg id="Layer_1" data-name="Layer 1" xmlns="http://www.w3.org/2000/svg" viewBox="0 0 160 77.7"><defs><style>.cls-1{fill:#86983f;}.cls-2{fill:#66513f;}</style></defs><title>yves_rocher</title><path class="cls-1" d="M47.6,64.15a17.35,17.35,0,1,0,17.3,17.4,17.41,17.41,0,0,0-17.3-17.4ZM27.2,81.55a20.35,20.35,0,1,1,20.3,20.4,20.36,20.36,0,0,1-20.3-20.4Zm7-5.9a14.64,14.64,0,1,1,26.2,13c-3.9.4-7.7-1.1-9.6-3.3,5-3.4,6.4-9.7,5.4-15.7-6,1.6-11.3,5.5-12.2,11.9a14.49,14.49,0,0,0-9.8-5.9Zm19.5-2.2c.3,5.1-2.6,9-7,11.2a14.09,14.09,0,0,0,11.7,6.8,14.85,14.85,0,0,1-10.8,4.8,4.87,4.87,0,0,1-1.2-.1V84.45a11.42,11.42,0,0,1,7.3-11ZM43.5,95.55a14.58,14.58,0,0,1-10.2-17.2h0a11.16,11.16,0,0,1,10.2,11.3Z" transform="translate(-20 -61.15)"/><path class="cls-2" d="M180,126.55h-3.3l-2.8-5.7h-3.4v5.7h-2.9v-14.3h7.9a4.35,4.35,0,0,1,4.3,4.4,4.21,4.21,0,0,1-2.8,4Zm-9.6-11.8v3.8h4.4a2,2,0,0,0,0-3.9h-4.4Z" transform="translate(-20 -61.15)"/><path class="cls-2" d="M119.1,119.45a7.73,7.73,0,0,1,7.9-7.6,7.89,7.89,0,0,1,7,4.8l.1.3h-3.2a4.72,4.72,0,0,0-4.1-2.5,4.85,4.85,0,0,0,0,9.7,4.72,4.72,0,0,0,4.1-2.5h3.2l-.1.3a7.6,7.6,0,0,1-7.2,4.8,7.49,7.49,0,0,1-7.7-7.3Q119.1,119.6,119.1,119.45Z" transform="translate(-20 -61.15)"/><polygon class="cls-2" points="5.4 65.4 5.4 59.9 0 51.1 3.4 51.1 6.9 57.3 10.4 51.1 13.8 51.1 8.4 59.9 8.4 65.4 5.4 65.4"/><polygon class="cls-2" points="17.7 51 21.3 61.7 24.9 51 28 51 22.8 65.4 19.7 65.4 14.6 51 17.7 51"/><path class="cls-2" d="M67.5,116c0,.9.2,1.1,3.3,1.9a11.18,11.18,0,0,1,3.5,1.2,3.73,3.73,0,0,1,1.7,3.2c0,2.9-2.3,4.6-5.8,4.6s-5.9-1.8-6.1-4.8H67c.3,1.6,1.3,2.3,3.3,2.3,1.8,0,2.7-.8,2.7-1.9,0-.6-.2-1-1-1.4a5.64,5.64,0,0,0-1.2-.4l-.5-.1-.3-.1a13,13,0,0,1-3.9-1.4,3.28,3.28,0,0,1-1.5-2.9c0-2.7,2.2-4.3,5.4-4.3s5.2,1.5,5.4,4.3H72.5c-.3-1.3-1.1-1.8-2.7-1.8S67.5,115,67.5,116Z" transform="translate(-20 -61.15)"/><polygon class="cls-2" points="125.8 59.7 119.9 59.7 119.9 65.4 117 65.4 117 51.1 119.9 51.1 119.9 57.1 125.8 57.1 125.8 51.1 128.8 51.1 128.8 65.4 125.8 65.4 125.8 59.7"/><polygon class="cls-2" points="136.3 57.2 141.7 57.2 141.7 59.7 136.3 59.7 136.3 62.9 143.8 62.9 143.8 65.4 133.3 65.4 133.3 51.1 143.8 51.1 143.8 53.6 136.3 53.6 136.3 57.2"/><path class="cls-2" d="M116.5,119.35a7.7,7.7,0,1,1-7.9-7.5h.2a7.51,7.51,0,0,1,7.7,7.4Zm-12.4,0a4.7,4.7,0,1,0,4.7-4.8A4.69,4.69,0,0,0,104.1,119.35Z" transform="translate(-20 -61.15)"/><path class="cls-2" d="M98.9,126.55H95.6l-2.8-5.7H89.4v5.7H86.5v-14.3h7.8a4.33,4.33,0,0,1,4.3,4.3,4.21,4.21,0,0,1-2.8,4Zm-9.5-11.8v3.8h4.4a2,2,0,0,0,0-3.9H89.4Z" transform="translate(-20 -61.15)"/><polygon class="cls-2" points="33.8 57.2 39.2 57.2 39.2 59.7 33.8 59.7 33.8 62.9 41.4 62.9 41.4 65.4 30.9 65.4 30.9 51.1 41.4 51.1 41.4 53.6 33.8 53.6 33.8 57.2"/><path class="cls-2" d="M93,136.15h1.7l-.8-2.3Zm2.1,1.1H92.7l-.5,1.4H90.8l2.5-6.6h1.4l2.5,6.6H95.7Z" transform="translate(-20 -61.15)"/><polygon class="cls-2" points="83.9 77.6 82.6 77.6 82.6 70.9 83.9 70.9 86.6 75.1 86.6 70.9 88 70.9 88 77.6 86.6 77.6 83.9 73.5 83.9 77.6"/><polygon class="cls-2" points="50.8 73.8 53.4 73.8 53.4 74.9 50.8 74.9 50.8 77.6 49.4 77.6 49.4 70.9 54.1 70.9 54.1 72.1 50.8 72.1 50.8 73.8"/><path class="cls-2" d="M85.1,138.75H83.6l-1.3-2.6H80.9v2.6H79.5v-6.6H83a2,2,0,0,1,2,2,2.05,2.05,0,0,1-1.3,1.9Zm-4.2-5.5V135h1.8a.9.9,0,1,0,0-1.8Z" transform="translate(-20 -61.15)"/><path class="cls-2" d="M113.5,135.45a3.56,3.56,0,0,1,3.6-3.5,3.48,3.48,0,0,1,3.2,2.2l.1.1h-1.5a2.26,2.26,0,1,0-2,3.4,2.31,2.31,0,0,0,2-1.1h1.5l-.1.1a3.46,3.46,0,0,1-3.3,2.2,3.31,3.31,0,0,1-3.5-3.3Z" transform="translate(-20 -61.15)"/><polygon class="cls-2" points="107.3 73.8 109.8 73.8 109.8 74.9 107.3 74.9 107.3 76.4 110.6 76.4 110.6 77.6 105.9 77.6 105.9 70.9 110.6 70.9 110.6 72.1 107.3 72.1 107.3 73.8"/></svg>