<?xml version="1.0" encoding="UTF-8"?>
<svg width="293px" height="95px" viewBox="0 0 293 95" version="1.1" xmlns="http://www.w3.org/2000/svg" xmlns:xlink="http://www.w3.org/1999/xlink">
    <!-- Generator: Sketch 44 (41411) - http://www.bohemiancoding.com/sketch -->
    <title>Group</title>
    <desc>Created with Sketch.</desc>
    <defs></defs>
    <g id="Page-1" stroke="none" stroke-width="1" fill="none" fill-rule="evenodd">
        <g id="Emma_Tag_Horizontal_b-w" transform="translate(-22.000000, -21.000000)" fill="#FFFFFF">
            <g id="Group" transform="translate(22.000000, 21.000000)">
                <path d="M121.822,50.784 C121.754,50.723 121.714,50.633 121.714,50.537 C121.714,50.506 121.724,49.686 121.797,49.041 C122.335,44.312 124.563,41.327 127.699,40.656 C128.058,40.577 131.052,40.044 132.37,41.952 C133.122,43.037 133.151,44.859 132.435,46.291 C131.3,48.567 128.69,49.417 126.33,50.031 C125.643,50.21 124.094,50.597 123.347,50.708 C122.859,50.784 122.326,50.845 122.145,50.864 C122.191,50.869 122.232,50.872 122.255,50.872 C122.269,50.872 122.069,50.872 122.076,50.872 C122.076,50.872 122.105,50.869 122.145,50.864 C122.026,50.853 121.865,50.826 121.822,50.784 Z M122.146,54.536 C122.222,54.516 130.205,52.915 133.274,51.818 L133.495,51.741 C135.177,51.152 140.308,49.369 140.633,44.466 C140.809,41.896 138.965,38.835 136.257,37.184 C134.17,35.918 131.937,35.276 129.616,35.276 C128.451,35.276 127.246,35.436 126.032,35.76 C118.539,37.743 113.423,44.146 112.997,52.068 C112.766,56.557 113.967,60.551 116.292,63.038 C118.608,65.52 121.578,66.962 124.658,67.102 C124.941,67.114 125.267,67.131 125.625,67.128 C129.788,67.128 133.448,65.784 136.5,63.146 C138.443,61.463 139.861,59.535 140.288,57.99 C140.411,57.541 140.344,57.238 140.253,57.119 C140.215,57.072 140.178,57.05 140.12,57.05 C140.056,57.05 139.881,57.076 139.598,57.342 C139.188,57.724 137.731,58.865 136.938,59.439 C135.393,60.563 132.358,61.825 130.153,61.985 C125.833,62.284 123.498,60.435 122.338,56.616 C122.179,56.089 121.907,54.983 121.897,54.933 C121.874,54.848 121.89,54.758 121.935,54.679 C121.984,54.606 122.061,54.549 122.146,54.536 L122.146,54.536 Z" id="Fill-3"></path>
                <path d="M191.542,37.686 C190.415,36.809 189.284,36.365 187.631,36.152 C187.272,36.113 186.885,36.087 186.484,36.087 C183.036,36.087 178.891,37.701 176.577,39.298 C175.941,39.734 175.592,39.895 175.278,39.895 C174.825,39.895 174.578,39.561 174.259,39.138 C173.883,38.619 173.306,37.844 171.989,36.953 C171.201,36.417 169.856,36.127 168.203,36.127 C166.217,36.127 164.028,36.549 162.353,37.268 C161.517,37.627 160.651,38.06 159.892,38.446 C158.586,39.1 157.558,39.621 156.97,39.621 C156.59,39.621 156.436,39.414 156.376,39.287 C154.895,36.23 151.383,35.772 149.427,35.772 C149.211,35.772 149.002,35.778 148.793,35.788 C147.01,35.871 145.72,36.419 144.19,37.746 C143.673,38.192 143.454,38.708 143.578,38.891 C143.605,38.931 143.692,39.057 144.038,39.057 C144.162,39.057 144.31,39.037 144.464,39.007 C145.398,38.826 146.631,39.226 147.159,39.883 C149.068,42.241 147.476,49.652 146.873,52.443 C146.873,52.443 146.384,54.793 146.147,55.941 C145.559,58.757 144.882,62.046 144.529,63.947 C144.441,64.405 144.536,64.921 144.753,65.191 C145.34,65.925 146.127,65.885 147.826,65.889 C147.826,65.889 149.331,65.889 149.721,65.889 C151.302,65.889 152.215,65.327 152.387,64.52 C152.704,63.061 152.956,61.883 153.162,60.843 C153.351,59.887 153.847,57.642 153.847,57.642 C154.898,53.245 155.507,50.615 156.272,48.058 C157.056,45.417 158.55,43.295 161.102,42.093 C161.812,41.755 163.006,41.529 164.075,41.529 C164.825,41.529 165.486,41.639 165.983,41.848 C167.541,42.493 167.121,44.892 166.844,46.475 L166.824,46.595 C166.274,49.749 165.602,52.892 165.241,54.58 L165.137,55.085 C164.835,56.499 163.857,61.4 163.436,64.064 C163.319,64.792 163.352,65.198 163.539,65.419 C163.805,65.728 164.41,65.894 165.814,65.894 C166.622,65.894 167.961,65.894 168.343,65.889 C169.528,65.873 169.919,65.531 170.197,64.081 C170.532,62.372 172.013,55.683 172.777,52.351 L173.046,51.179 C173.057,51.126 174.282,45.81 175.656,44.273 C176.857,42.94 178.726,41.962 180.662,41.655 C181.001,41.599 181.371,41.565 181.734,41.565 C182.181,41.565 182.838,41.617 183.415,41.851 C184.98,42.485 184.829,44.98 184.636,46.059 C184.187,48.564 183.659,51.304 183.151,53.95 C182.589,56.899 181.789,60.917 181.312,63.746 C180.952,65.889 182.959,65.944 185.207,65.94 C186.506,65.935 188.635,66.108 189.229,64.191 C189.323,63.879 189.667,62.351 189.722,62.054 C190.028,60.414 190.657,57.266 190.977,55.818 C191.122,55.154 192.096,49.837 192.349,48.445 L192.368,48.343 C192.793,46.002 193.503,42.085 192.924,39.989 C192.755,39.359 192.098,38.118 191.542,37.686" id="Fill-4"></path>
                <path d="M244.155,37.686 C243.031,36.809 241.897,36.365 240.244,36.152 C239.883,36.113 239.496,36.087 239.098,36.087 C235.651,36.087 231.502,37.701 229.19,39.298 C228.555,39.734 228.201,39.895 227.891,39.895 C227.44,39.895 227.19,39.561 226.877,39.138 C226.494,38.619 225.918,37.844 224.598,36.953 C223.815,36.417 222.467,36.127 220.815,36.127 C218.828,36.127 216.642,36.549 214.966,37.268 C214.129,37.627 213.265,38.06 212.505,38.446 C211.197,39.1 210.17,39.621 209.585,39.621 C209.206,39.621 209.047,39.414 208.987,39.287 C207.507,36.23 203.998,35.772 202.037,35.772 C201.826,35.772 201.617,35.778 201.406,35.788 C199.622,35.871 198.333,36.419 196.802,37.746 C196.287,38.192 196.065,38.708 196.191,38.891 C196.22,38.931 196.303,39.057 196.65,39.057 C196.775,39.057 196.921,39.037 197.08,39.007 C198.012,38.826 199.244,39.226 199.772,39.883 C201.68,42.241 200.087,49.652 199.484,52.443 C199.484,52.443 198.997,54.793 198.758,55.941 C198.172,58.757 197.497,62.046 197.141,63.947 C197.054,64.405 197.15,64.921 197.364,65.191 C197.953,65.925 198.741,65.885 200.44,65.889 C200.44,65.889 201.947,65.889 202.334,65.889 C203.915,65.889 204.826,65.327 205.002,64.52 C205.312,63.061 205.569,61.883 205.776,60.843 C205.966,59.887 206.464,57.642 206.464,57.642 C207.511,53.245 208.119,50.615 208.885,48.058 C209.673,45.417 211.161,43.295 213.715,42.093 C214.423,41.755 215.617,41.529 216.688,41.529 C217.438,41.529 218.1,41.639 218.593,41.848 C220.154,42.493 219.734,44.892 219.457,46.475 L219.436,46.595 C218.887,49.749 218.214,52.892 217.855,54.58 L217.748,55.085 C217.446,56.499 216.467,61.4 216.046,64.064 C215.932,64.792 215.963,65.198 216.152,65.419 C216.414,65.728 217.022,65.894 218.422,65.894 C219.234,65.894 220.575,65.894 220.957,65.889 C222.142,65.873 222.531,65.531 222.813,64.081 C223.144,62.372 224.626,55.683 225.391,52.351 L225.661,51.179 C225.671,51.126 226.898,45.81 228.27,44.273 C229.469,42.94 231.336,41.962 233.277,41.655 C233.614,41.599 233.983,41.565 234.344,41.565 C234.795,41.565 235.449,41.617 236.026,41.851 C237.593,42.485 237.44,44.98 237.247,46.059 C236.798,48.564 236.273,51.304 235.765,53.95 C235.198,56.899 234.4,60.917 233.924,63.746 C233.565,65.889 235.571,65.944 237.821,65.94 C239.119,65.935 241.25,66.108 241.841,64.191 C241.937,63.879 242.278,62.351 242.335,62.054 C242.637,60.414 243.271,57.266 243.589,55.818 C243.737,55.154 244.708,49.837 244.96,48.445 L244.982,48.343 C245.402,46.002 246.118,42.085 245.54,39.989 C245.364,39.359 244.711,38.118 244.155,37.686" id="Fill-5"></path>
                <path d="M270.592,46.414 C270.38,47.676 270.027,49.484 269.719,50.912 C269.405,52.349 269.095,53.59 268.765,54.906 C268.549,55.766 268.33,56.64 268.109,57.574 C267.542,60 264.159,61.627 261.358,61.627 C260.034,61.627 258.95,61.264 258.3,60.597 C256.017,58.263 256.232,53.881 258.922,47.925 C259.837,45.908 261.725,43.279 263.23,41.936 C264.226,41.048 265.654,40.512 267.053,40.512 C268.954,40.512 270.357,41.444 270.725,42.94 C270.907,43.692 270.864,44.799 270.592,46.414 Z M284.356,60.706 C284.284,60.706 284.199,60.717 284.116,60.734 C283.922,60.768 283.599,60.909 283.25,61.059 C282.523,61.37 281.616,61.765 280.715,61.783 L280.713,61.783 C279.429,61.783 278.213,60.955 277.627,59.725 C276.798,57.986 277.255,56.103 277.74,54.108 L277.824,53.765 C278.126,52.52 281.866,37.58 281.887,37.51 C282.018,37.004 281.961,36.528 281.759,36.356 C281.423,36.068 280.703,36.307 280.008,36.568 C279.359,36.815 278.766,37.024 278.171,37.227 C277.606,37.426 277.048,37.623 276.471,37.839 C275.887,38.055 275.369,38.164 274.89,38.164 C273.822,38.164 273.319,37.663 272.583,37.104 C271.959,36.631 271.118,36.122 270.148,35.849 C268.764,35.469 267.369,35.276 266.001,35.276 C262.566,35.276 259.282,36.495 256.508,38.805 C251.048,43.348 247.412,52.963 248.411,60.226 C249.024,64.669 252.095,66.931 257.803,67.152 C260.726,67.269 262.816,66.288 264.822,65.343 L265.08,65.223 C265.727,64.921 266.447,64.446 267.141,63.992 C268.202,63.295 269.042,62.74 269.633,62.74 C269.905,62.74 270.127,62.861 270.253,63.077 C271.394,64.971 273.703,66.103 276.439,66.103 C277.438,66.103 278.434,65.944 279.321,65.65 C282.2,64.702 284.695,61.584 284.569,60.801 C284.563,60.763 284.555,60.706 284.356,60.706 L284.356,60.706 Z" id="Fill-6"></path>
                <path d="M290.257,40.381 C289.119,40.381 288.201,39.457 288.201,38.318 C288.201,37.182 289.119,36.259 290.257,36.259 C291.396,36.259 292.323,37.182 292.323,38.318 C292.323,39.457 291.396,40.381 290.257,40.381 Z M290.257,35.849 C288.887,35.849 287.792,36.953 287.792,38.318 C287.792,39.684 288.887,40.789 290.257,40.789 C291.626,40.789 292.732,39.684 292.732,38.318 C292.732,36.953 291.626,35.849 290.257,35.849 L290.257,35.849 Z" id="Fill-7"></path>
                <path d="M289.774,38.181 L289.774,37.281 L290.398,37.281 C290.682,37.281 290.866,37.456 290.866,37.73 C290.866,38.002 290.679,38.181 290.398,38.181 L289.774,38.181 Z M291.327,37.73 C291.327,37.214 290.954,36.853 290.418,36.853 L289.328,36.853 L289.328,39.694 L289.774,39.694 L289.774,38.612 L290.181,38.612 L290.916,39.694 L291.458,39.694 L290.682,38.57 C291.028,38.487 291.327,38.217 291.327,37.73 L291.327,37.73 Z" id="Fill-8"></path>
                <path d="M67.339,53.956 L67.088,53.828 C66.12,53.275 65.046,52.598 63.923,52.072 C64.129,52.439 64.243,52.852 64.243,53.297 C64.243,54.722 63.046,55.875 61.565,55.875 C60.088,55.875 58.889,54.722 58.889,53.297 C58.889,52.518 59.25,51.822 59.817,51.352 C58.714,51.594 57.631,52.291 56.624,53.709 C56.161,54.362 55.21,53.554 55.696,52.922 C58.895,48.745 64.472,50.137 67.966,52.539 C68.932,53.204 68.381,54.379 67.339,53.956 Z M62.761,47.453 C50.987,47.453 53.313,51.961 53.745,53.702 C54.174,55.457 55.449,60.343 63.345,60.343 C67.926,60.343 70.156,57.259 70.601,54.075 C70.958,51.535 71.768,47.453 62.761,47.453 L62.761,47.453 Z" id="Fill-9"></path>
                <path d="M61.714,52.568 C61.356,52.568 61.074,52.857 61.074,53.217 C61.074,53.569 61.356,53.863 61.714,53.863 C62.063,53.863 62.35,53.569 62.35,53.217 C62.35,52.857 62.063,52.568 61.714,52.568" id="Fill-10"></path>
                <path d="M36.638,52.562 C36.288,52.562 36.004,52.845 36.004,53.19 C36.004,53.537 36.288,53.823 36.638,53.823 C36.996,53.823 37.282,53.537 37.282,53.19 C37.282,52.845 36.996,52.562 36.638,52.562" id="Fill-11"></path>
                <path d="M82.606,66.021 C82.735,66.048 82.85,66.132 82.832,66.337 C82.559,68.893 80.621,71.127 77.402,71.589 C73.77,72.106 68.172,69.538 69.646,61.691 C70.702,61.203 71.421,60.275 71.831,59.667 C73.123,57.747 73.44,55.434 73.619,53.721 C73.974,50.284 74.953,49.762 75.455,49.666 L76.181,49.504 L76.228,48.744 L76.34,47.154 L76.397,46.15 L75.594,45.971 C75.479,45.943 73.453,45.43 71.069,45.117 C71.001,44.881 71.018,44.932 70.935,44.682 C70.9,44.569 70.865,44.466 70.828,44.36 C70.825,44.355 70.823,44.355 70.823,44.347 C68.462,36.794 60.357,37.147 56.896,34.726 C55.952,34.064 55.656,33.412 55.792,32.133 C56.582,24.826 50.24,21.847 46.799,20.834 C45.416,20.43 43.079,20.372 41.893,20.405 C36.049,20.561 30.592,22.7 26.621,26.918 C23.146,30.616 20.437,35.455 19.816,42.905 C19.714,44.156 19.687,45.51 19.654,46.939 C19.611,49.175 19.763,49.723 19.325,54.246 C17.917,48.896 16.876,45.744 16.533,40.96 C16.037,34.036 18.536,28.123 21.72,24.021 C23.863,21.267 26,19.481 29.544,17.588 C32.085,16.232 33.706,15.712 35.999,15.35 C37.723,15.081 39.346,14.789 42.629,15.194 C44.033,15.368 45.666,15.761 47.458,16.752 C48.213,17.17 48.115,16.32 47.697,15.544 C47.279,14.767 46.67,14.329 46.231,13.963 C45.108,13.01 43.059,12.24 44.179,12.088 C44.244,12.074 44.368,12.068 44.456,12.068 C48.993,12.219 64.643,12.939 73.45,24.502 C76.649,28.698 81.433,37.912 79.689,46.625 C79.252,48.794 78.67,50.965 78.031,52.539 C76.296,56.804 74.379,60.292 74.882,64.528 C75.093,66.305 77.047,67.694 78.195,67.791 C78.994,67.862 80.686,67.998 82.211,66.236 C82.352,66.066 82.506,66.002 82.606,66.021 Z M51.405,53.755 C50.484,51.312 50.74,50.906 49.19,50.881 C47.642,50.906 47.942,51.355 47.017,53.793 C46.049,56.351 44.229,62.011 35.201,61.986 C30.23,61.971 28.121,59.411 27.287,56.683 C27.622,55.832 27.942,54.931 28.264,53.964 C28.285,54.093 28.302,54.222 28.322,54.348 C28.858,57.516 30.44,60.343 35.015,60.343 C42.913,60.343 44.222,55.457 44.657,53.709 C45.093,51.972 46.929,47.453 35.151,47.453 C32.257,47.453 31.058,47.873 29.915,48.528 C30.184,47.635 30.442,46.835 30.689,46.111 C32.297,45.983 33.54,45.891 35.576,45.891 C42.333,45.891 46.404,48.269 49.19,48.269 C51.978,48.269 56.048,45.891 62.808,45.891 C69.564,45.891 74.894,47.086 74.894,47.086 L74.781,48.679 C73.374,48.966 72.546,50.152 72.168,53.622 C71.837,56.683 70.785,61.986 63.184,61.986 C54.153,61.986 52.374,56.31 51.405,53.755 Z M45.531,69.398 C48.779,71.263 50.262,71.344 53.172,69.075 C53.799,68.59 54.524,69.279 53.934,69.881 C51.017,72.831 48.05,72.809 44.896,70.277 C44.211,69.809 44.787,68.976 45.531,69.398 Z M57.961,76.531 C57.448,76.97 56.37,77.456 55.622,77.656 C54.641,77.926 51.949,78.572 49.326,78.574 C46.683,78.574 44.101,77.926 43.114,77.656 C42.369,77.456 41.291,76.97 40.779,76.531 C40.504,76.296 40.756,75.897 41.198,76.063 C41.878,76.32 42.258,76.362 42.94,76.36 C44.939,76.34 45.477,76.134 47.23,75.698 C47.823,75.555 48.813,76.412 49.375,76.415 C49.934,76.412 50.914,75.555 51.506,75.698 C53.26,76.134 53.798,76.34 55.796,76.36 C56.482,76.362 56.862,76.32 57.541,76.063 C57.981,75.897 58.235,76.296 57.961,76.531 Z M55.409,79.215 C54.199,80.087 51.367,82.289 49.341,82.289 C47.305,82.289 44.538,80.079 43.298,79.215 C43.013,78.995 43.122,78.426 43.696,78.667 C45.214,79.302 47.38,80.323 49.356,80.339 C51.331,80.323 53.493,79.302 55.013,78.67 C55.588,78.426 55.762,78.952 55.409,79.215 Z M26.858,70.008 C25.68,71.668 23.726,72.584 21.788,72.676 C20.346,72.748 18.765,72.305 17.537,71.397 C16.745,70.817 16.254,70.367 15.602,69.626 C15.33,69.312 14.831,68.698 14.565,68.124 C14.436,67.834 14.563,67.651 14.63,67.59 C14.719,67.515 14.983,67.464 15.159,67.591 C15.879,68.104 16.915,69.144 18.357,68.973 C20.245,68.756 21.274,67.241 21.25,65.612 C23.012,64.54 24.038,63.848 26.004,60.008 C27.563,62.795 27.983,64.271 28.103,65.927 C28.221,67.591 27.555,69.028 26.858,70.008 Z M39.425,53.239 C39.425,54.661 38.228,55.812 36.748,55.812 C35.272,55.812 34.073,54.661 34.073,53.239 C34.073,52.809 34.182,52.394 34.376,52.041 C33.26,52.553 32.194,53.218 31.23,53.768 L30.973,53.894 C29.931,54.319 29.417,53.184 30.379,52.522 C33.857,50.125 39.422,48.687 42.621,52.86 C43.105,53.494 42.246,54.365 41.77,53.724 C40.759,52.351 39.689,51.646 38.603,51.379 C39.11,51.845 39.425,52.506 39.425,53.239 Z M11.689,61.986 C11.467,61.691 11.449,61.414 11.534,61.328 C11.668,61.179 11.902,61.193 12.253,61.212 C16.277,61.362 17.48,60.058 18.507,58.52 C21.326,54.298 20.694,48.651 21.096,43.789 C21.635,37.398 24.101,31.842 29.032,27.291 C31.461,25.045 34.846,23.423 38.488,22.604 C40.401,22.174 43.059,22.043 44.113,22.138 C49.085,22.602 52.193,25.053 53.493,27.416 C54.284,28.854 54.652,30.907 54.005,32.908 C53.752,33.686 52.67,35.704 49.968,36.907 C46.919,38.262 42.598,38.489 40.25,38.913 C38.314,39.263 33.293,40.355 31.338,42.543 C29.585,44.514 29.221,45.13 27.579,51.352 C22.571,70.331 14.371,65.502 11.689,61.986 Z M48.122,0.222 C21.788,0.222 0.438,21.386 0.438,47.496 C0.438,73.607 21.788,94.778 48.122,94.778 C74.457,94.778 95.809,73.607 95.809,47.496 C95.809,21.386 74.457,0.222 48.122,0.222 L48.122,0.222 Z" id="Fill-12"></path>
            </g>
        </g>
    </g>
</svg>