<?xml version="1.0" encoding="UTF-8"?>
<!-- Generator: Adobe Illustrator 22.0.0, SVG Export Plug-In . SVG Version: 6.00 Build 0)  -->
<svg xmlns="http://www.w3.org/2000/svg" xmlns:xlink="http://www.w3.org/1999/xlink" id="Layer_1" x="0px" y="0px" viewBox="0 0 205.9 44.3" style="enable-background:new 0 0 205.9 44.3;" xml:space="preserve">
<style type="text/css">
	.st0{fill:#FFFFFF;}
</style>
<title>FinServ-2</title>
<path class="st0" d="M62.4,7.9h-7.6v4.5h6.8v1.3h-6.8v5.5h-1.4V6.6h9L62.4,7.9z M64.6,7.9V6.3h1.6v1.5H64.6z M64.6,19.2V9.9H66v9.3  H64.6z M70.3,19.2h-1.4V9.9h1.4v1.6c0.6-1.2,1.9-1.9,3.2-1.8c1.9-0.1,3.5,1.4,3.5,3.3c0,0.2,0,0.3,0,0.5v5.8h-1.3v-5.4  c0-1.7-0.9-2.8-2.6-2.8c-1.5,0-2.8,1.2-2.8,2.7c0,0.1,0,0.2,0,0.2L70.3,19.2z M80.2,11.7l-0.4-1.1c1.1-0.5,2.2-0.8,3.4-0.8  c2.5,0,4,1.3,4,3.8v5.7h-1.4v-1.4c-0.8,1-2,1.6-3.4,1.6c-1.7,0-3.5-1-3.5-2.9s1.6-3,4-3c1,0,1.9,0.1,2.9,0.4v-0.3  c0-1.7-1-2.5-2.8-2.5C82,11,81,11.3,80.2,11.7L80.2,11.7z M80.3,16.4c0,1.2,1.1,1.9,2.3,1.9c1.7,0,3.1-1,3.1-2.5v-0.9  c-0.9-0.3-1.8-0.4-2.8-0.4C81.3,14.5,80.3,15.3,80.3,16.4z M91.1,19.2h-1.4V9.9h1.4v1.6c0.6-1.2,1.9-1.9,3.2-1.8  c1.9-0.1,3.5,1.3,3.6,3.2c0,0.2,0,0.3,0,0.5v5.8h-1.4v-5.4c0-1.7-0.9-2.8-2.6-2.8c-1.5,0-2.8,1.2-2.8,2.7c0,0.1,0,0.2,0,0.2  L91.1,19.2z M104.6,19.4c-2.7,0-4.9-2.2-4.9-4.9c0-2.7,2.2-4.9,4.9-4.9c1.4,0,2.8,0.6,3.7,1.7l-0.9,1c-0.7-0.9-1.7-1.4-2.8-1.4  c-1.9,0.1-3.4,1.6-3.3,3.5c0,0,0,0.1,0,0.1c-0.1,1.9,1.4,3.5,3.3,3.6c0,0,0.1,0,0.1,0c1.1,0,2.1-0.5,2.8-1.4l0.9,0.8  C107.5,18.8,106.1,19.5,104.6,19.4z M110.4,7.9V6.3h1.6v1.5L110.4,7.9z M110.5,19.2V9.9h1.4v9.3H110.5z M115.2,11.7l-0.4-1.1  c1.1-0.5,2.2-0.8,3.4-0.8c2.5,0,4,1.3,4,3.8v5.7h-1.3v-1.4c-0.8,1.1-2,1.7-3.4,1.6c-1.7,0-3.5-1-3.5-2.9s1.6-3,4-3  c1,0,1.9,0.1,2.9,0.4v-0.3c0-1.7-1-2.5-2.8-2.5C117.1,11,116.1,11.3,115.2,11.7z M115.4,16.4c0,1.2,1.1,1.9,2.3,1.9  c1.7,0,3.1-1,3.1-2.5v-0.9c-0.9-0.3-1.8-0.4-2.7-0.4C116.4,14.5,115.4,15.3,115.4,16.4z M124.9,19.2V6.1h1.4v13.1H124.9z   M138.9,12.2c2.8,0.6,4.1,1.6,4.1,3.6c0,2.2-1.8,3.6-4.3,3.6c-1.9,0-3.8-0.7-5.1-2l0.9-1c1.1,1.2,2.7,1.8,4.3,1.8  c1.7,0,2.8-0.9,2.8-2.2s-0.6-1.9-3.3-2.4c-2.9-0.6-4.2-1.6-4.2-3.6s1.8-3.5,4.1-3.5c1.6-0.1,3.2,0.5,4.5,1.6l-0.8,1.1  c-1-0.9-2.3-1.4-3.6-1.4c-1.6,0-2.7,0.9-2.7,2.1S136.2,11.6,138.9,12.2L138.9,12.2z M149.4,18.2c1.1,0,2.2-0.5,2.9-1.3l0.9,0.8  c-0.9,1.1-2.4,1.8-3.8,1.7c-2.6,0-4.6-2-4.7-4.6c0-0.1,0-0.2,0-0.3c-0.1-2.5,1.8-4.7,4.3-4.9c0,0,0.1,0,0.1,0c2.8,0,4.3,2.2,4.3,4.9  c0,0.1,0,0.3,0,0.4h-7.4C146.2,16.8,147.7,18.3,149.4,18.2L149.4,18.2z M152.1,14c-0.1-1.7-1.1-3.2-3-3.2c-1.7,0.1-3,1.5-3,3.2  H152.1z M157,19.2h-1.4V9.9h1.4v2.4c0.6-1.6,2.1-2.6,3.8-2.6v1.5h-0.1c-2,0-3.7,1.5-3.7,4.3V19.2z M169.4,9.9h1.6l-4.1,9.4h-1.2  l-4-9.4h1.5l3.1,7.7L169.4,9.9z M172.8,7.9V6.3h1.6v1.5L172.8,7.9z M172.9,19.3V9.9h1.4v9.3L172.9,19.3z M181.3,19.5  c-2.7,0-4.8-2.2-4.8-4.9s2.2-4.8,4.9-4.8c1.4,0,2.7,0.6,3.6,1.7l-0.9,1c-0.7-0.9-1.7-1.4-2.8-1.4c-1.9,0.1-3.4,1.7-3.3,3.6  c-0.1,1.9,1.4,3.5,3.3,3.6c0,0,0.1,0,0.1,0c1.1,0,2.1-0.5,2.9-1.4l0.9,0.8C184.2,18.8,182.8,19.5,181.3,19.5L181.3,19.5z   M190.9,18.3c1.1,0,2.2-0.5,2.9-1.3l0.9,0.8c-0.9,1.1-2.4,1.8-3.8,1.7c-2.6,0-4.6-2-4.7-4.6c0-0.1,0-0.2,0-0.3  c-0.1-2.5,1.8-4.7,4.3-4.9c0,0,0.1,0,0.1,0c2.8,0,4.3,2.2,4.3,4.9c0,0.1,0,0.3,0,0.4h-7.4C187.7,16.9,189.1,18.2,190.9,18.3  L190.9,18.3z M193.6,14.1c-0.1-1.7-1.1-3.2-3-3.2c-1.7,0.1-3,1.5-3,3.2H193.6z M200.2,19.4c-1.4-0.1-2.8-0.6-3.8-1.4l0.7-1  c0.9,0.7,2.1,1.1,3.2,1.2c1.1,0,1.9-0.6,1.9-1.5l0,0c0-0.9-1.1-1.3-2.3-1.6c-1.5-0.4-3.1-0.9-3.1-2.6l0,0c0-1.6,1.3-2.7,3.2-2.7  c1.2,0,2.3,0.4,3.4,1l-0.6,1.1c-0.8-0.6-1.8-0.9-2.8-0.9c-1.1,0-1.8,0.6-1.8,1.4l0,0c0,0.9,1.2,1.2,2.4,1.6c1.4,0.4,3,1,3,2.7l0,0  C203.5,18.4,202,19.4,200.2,19.4L200.2,19.4z M54.8,25.4V38h-1.4V25.4L54.8,25.4z M59.3,38H58v-9.3h1.4v1.6c0.6-1.2,1.9-1.9,3.2-1.8  c1.9-0.1,3.5,1.3,3.6,3.2c0,0.2,0,0.3,0,0.5V38h-1.4v-5.4c0-1.7-0.9-2.8-2.6-2.8c-1.5,0-2.8,1.2-2.8,2.7c0,0.1,0,0.2,0,0.2L59.3,38z   M76.2,38v-1.8c-0.7,1.3-2.1,2.1-3.6,2.1c-2.5,0-4.5-2.1-4.5-4.6c0-0.1,0-0.1,0-0.2c-0.2-2.5,1.8-4.7,4.3-4.9c0.1,0,0.1,0,0.2,0  c1.5,0,2.8,0.8,3.6,2v-5.6h1.4V38H76.2z M72.8,29.7c-1.8,0-3.3,1.5-3.3,3.3c0,0.1,0,0.2,0,0.3c-0.2,1.8,1.2,3.5,3,3.7  c0.1,0,0.2,0,0.3,0c2-0.1,3.5-1.9,3.3-3.9C76,31.3,74.6,29.9,72.8,29.7L72.8,29.7z M86.8,28.7h1.4V38h-1.3v-1.6  c-0.6,1.1-1.9,1.8-3.2,1.8c-1.9,0.1-3.5-1.3-3.6-3.2c0-0.2,0-0.3,0-0.5v-5.8h1.4v5.4c0,1.7,0.9,2.8,2.6,2.8c1.5,0,2.8-1.2,2.8-2.7  c0-0.1,0-0.1,0-0.2L86.8,28.7z M94,38.2c-1.4,0-2.8-0.5-3.9-1.4l0.7-1c0.9,0.7,2.1,1.1,3.3,1.1c1.1,0,1.9-0.6,1.9-1.5l0,0  c0-0.9-1.1-1.3-2.3-1.6c-1.5-0.4-3.1-0.9-3.1-2.6l0,0c0-1.6,1.3-2.7,3.2-2.7c1.2,0,2.3,0.4,3.3,1l-0.6,1c-0.8-0.5-1.8-0.9-2.8-0.9  c-1.1,0-1.8,0.6-1.8,1.4l0,0c0,0.9,1.2,1.2,2.4,1.6c1.4,0.4,3,1,3,2.7l0,0C97.4,37.2,95.9,38.2,94,38.2L94,38.2z M101.2,35.4  c-0.1,0.8,0.4,1.5,1.2,1.6c0.1,0,0.3,0,0.4,0c0.5,0,0.9-0.1,1.3-0.3v1.2c-0.5,0.3-1.1,0.4-1.7,0.4c-1.3,0.2-2.5-0.8-2.6-2.1  c0-0.2,0-0.4,0-0.6v-5.6h-1.3v-1.2h1.3v-2.8h1.4v2.8h3v1.2h-3V35.4z M107.7,38h-1.4v-9.3h1.4v2.4c0.6-1.6,2.1-2.6,3.8-2.6V30h-0.1  c-2,0-3.7,1.5-3.7,4.3V38z M117.8,38.3c-0.8,2-1.7,2.7-3.1,2.7c-0.7,0-1.4-0.2-2-0.5l0.5-1.1c0.4,0.2,1,0.4,1.5,0.3  c0.8,0,1.3-0.4,1.9-1.8l-4.2-9.3h1.5l3.4,7.8l3-7.8h1.5L117.8,38.3z M22.2,0.2c-12.2,0-22,9.8-22,22s9.8,22,22,22s22-9.8,22-22  S34.3,0.2,22.2,0.2L22.2,0.2z M22.2,43.1c-11.6,0-21-9.4-21-21s9.4-21,21-21s21,9.4,21,21C43.2,33.7,33.8,43.1,22.2,43.1  C22.2,43.1,22.2,43.1,22.2,43.1z M22.4,21.8V12c1.8,0.1,3.4,1,4.4,2.4c0.2,0.2,0.5,0.3,0.7,0.1c0.2-0.2,0.3-0.5,0.1-0.7  c-1.2-1.7-3.1-2.8-5.2-2.9V8.6c0-0.3-0.2-0.5-0.5-0.5s-0.5,0.2-0.5,0.5V11c-3.4,0.2-6.1,2.8-6.1,5.8c0,3.2,2.9,4.7,6.1,5.7v9.8  c-2.2-0.3-4.4-1.3-6.1-2.7c-0.2-0.2-0.5-0.2-0.7,0c-0.2,0.2-0.2,0.5,0,0.7c0,0,0,0,0,0c1.9,1.6,4.3,2.7,6.8,3v2.4  c0,0.3,0.2,0.5,0.5,0.5s0.5-0.2,0.5-0.5v-2.5c3.4-0.2,6.1-2.8,6.1-5.8C28.5,24.1,25.1,22.6,22.4,21.8z M21.4,21.5  c-2.7-0.9-5.1-2.2-5.1-4.7s2.2-4.6,5.1-4.8V21.5z M22.4,32.3v-9.5c3.5,1.1,5.1,2.6,5.1,4.7C27.5,30,25.3,32.1,22.4,32.3z"></path>
</svg>
