<?xml version="1.0" encoding="UTF-8"?>
<!-- Generator: Adobe Illustrator 17.1.0, SVG Export Plug-In . SVG Version: 6.00 Build 0)  -->
<svg xmlns="http://www.w3.org/2000/svg" xmlns:xlink="http://www.w3.org/1999/xlink" id="Layer_1" x="0px" y="0px" viewBox="0 0 250.5 44.8" xml:space="preserve">
<g>
	<path fill="#FFFFFF" d="M37.6,19.3c-0.2,0.2-0.4,0.3-0.6,0.5c-1,0.5-2.3,0.2-3.3-0.4c-1.2-0.8-2-2-2.8-3.3l-0.3-0.5   c-0.4-0.7-0.9-1.4-1.7-1.9c-0.9-0.6-2-0.7-2.8-0.3c-0.9,0.4-1.5,1.4-1.7,2.8c0,0.2-0.1,0.5-0.1,0.7c-0.1,0.6-0.1,1.2-0.3,1.7   c-0.1,0.3-0.4,0.5-0.7,0.6v-4.6c0-0.4-0.3-0.7-0.7-0.7c-0.4,0-0.7,0.3-0.7,0.7v4.7c0,0-0.1,0-0.1,0c-0.3-0.1-0.6-0.3-0.7-0.6   c-0.2-0.5-0.3-1.1-0.3-1.7c0-0.2,0-0.5-0.1-0.7c-0.2-1.4-0.8-2.4-1.7-2.8c-0.9-0.4-1.9-0.3-2.8,0.3c-0.7,0.5-1.2,1.2-1.7,1.9   L13.9,16c-0.9,1.3-1.7,2.5-2.8,3.3c-0.9,0.6-2.3,0.9-3.3,0.4c-0.2-0.1-0.4-0.3-0.6-0.5c-0.3-0.3-0.8-0.2-1,0.1   c-0.3,0.3-0.3,0.7,0,1c0.3,0.3,0.6,0.6,1,0.7c2.2,1.4,5,1.8,7.5,1c0,0.2,0.1,0.3,0.1,0.5c0.4,0.8,1.1,1.3,1.9,1.5   c-0.3,0.5-0.4,1-0.4,1.5c0,0.7,0.3,1.3,0.9,1.8c0.5,0.5,1.2,0.7,1.9,0.6c0.4-0.1,0.7-0.4,0.7-0.8c-0.1-0.4-0.4-0.7-0.8-0.7   c-0.2,0-0.5-0.1-0.8-0.3c-0.2-0.2-0.4-0.5-0.4-0.7c0-0.4,0.2-0.8,0.6-1.2c0.4-0.4,1-0.7,1.5-0.9c0.4-0.2,0.5-0.6,0.4-1   c-0.2-0.4-0.6-0.5-1-0.4c-0.6,0.3-1.3,0.6-1.9,0.6c-0.5,0-1-0.2-1.2-0.6c-0.1-0.1,0-0.3,0-0.5c0.3-0.1,0.5-0.3,0.8-0.5   c0.3-0.2,0.4-0.5,0.3-0.9c-0.1-0.3-0.4-0.5-0.7-0.5c-0.5,0-1,0.2-1.4,0.6c-1.2,0.5-2.6,0.7-4,0.6c0.2-0.1,0.4-0.2,0.7-0.4   c1.4-0.9,2.3-2.4,3.2-3.7l0.3-0.5c0.4-0.6,0.8-1.1,1.3-1.4c0.5-0.3,1-0.4,1.4-0.2c0.6,0.3,0.8,1.2,0.8,1.7c0,0.2,0,0.4,0.1,0.6   c0.1,0.7,0.1,1.5,0.5,2.2c0.3,0.7,1,1.2,1.7,1.4c0.2,0.1,0.4,0.1,0.5,0.1v7.1c-0.8,0.3-1.6,0.7-2.4,1.2c-0.4,0.2-0.9,0.5-1.1,0.9   c-0.3,0.4-0.6,1.2-0.6,1.8c0,0.4,0.4,0.7,0.7,0.7c0,0,0,0,0,0c0.4,0,0.7-0.4,0.7-0.8c0-0.2,0.1-0.6,0.3-0.8   c0.1-0.1,0.4-0.3,0.6-0.5c0.6-0.3,1.2-0.6,1.8-0.9v2.1c-0.7,0.1-1.4,0.3-2.1,0.7c-0.9,0.6-1.5,1.5-1.5,2.5c0,0.4,0.3,0.7,0.7,0.7   c0,0,0,0,0,0c0.4,0,0.7-0.3,0.7-0.8c0-0.4,0.3-0.9,0.8-1.2c0.4-0.2,0.8-0.4,1.2-0.5v2.4c-0.4,0-0.8,0.1-1.1,0.2   c-0.8,0.4-1.6,1.2-1.4,2.2c0.1,0.3,0.4,0.6,0.7,0.6c0.1,0,0.1,0,0.2,0c0.4-0.1,0.7-0.5,0.6-0.9c0-0.1,0.2-0.3,0.5-0.5   c0.2-0.1,0.3-0.1,0.5-0.1v2c0,0.4,0.3,0.7,0.7,0.7c0.4,0,0.7-0.3,0.7-0.7v-2c0.4,0,0.9-0.1,1.3-0.4c0.7-0.5,1.5-1.6,1-2.5   c-0.2-0.4-0.7-0.5-1-0.3c-0.3,0.2-0.5,0.6-0.3,1c0,0.1-0.2,0.4-0.4,0.5c-0.1,0.1-0.3,0.1-0.5,0.2v-2.6c0.5-0.1,1-0.2,1.5-0.4   c0.6-0.2,1-0.5,1.3-0.8c0.3-0.3,0.9-0.9,0.7-1.7c-0.1-0.4-0.5-0.7-0.9-0.6c-0.4,0.1-0.7,0.4-0.6,0.9c0,0,0,0.2-0.3,0.5   c-0.2,0.2-0.4,0.3-0.7,0.4c-0.3,0.1-0.6,0.2-0.9,0.2v-2.5c0.9-0.4,1.8-0.7,2.7-0.9c1.6-0.3,2.5-1.2,2.5-2.4c0-0.5-0.1-1-0.4-1.5   c0.8-0.2,1.6-0.6,1.9-1.5c0.1-0.2,0.1-0.3,0.1-0.5c2.5,0.7,5.3,0.3,7.5-1c0.4-0.2,0.7-0.4,1-0.7c0.3-0.3,0.3-0.7,0-1   C38.4,19,37.9,19,37.6,19.3z M29.6,20.3c-0.4-0.4-0.8-0.6-1.4-0.6c-0.3,0-0.6,0.2-0.7,0.5s0,0.7,0.3,0.9c0.3,0.2,0.5,0.3,0.8,0.5   c0.1,0.2,0.1,0.4,0,0.5c-0.2,0.4-0.7,0.6-1.2,0.6c0,0,0,0,0,0c-0.6,0-1.3-0.3-1.9-0.6c-0.4-0.2-0.8,0-1,0.4c-0.2,0.4,0,0.8,0.4,1   c0.6,0.3,1.1,0.5,1.5,0.9c0.4,0.4,0.6,0.8,0.6,1.2c0,0.7-1,0.9-1.4,1c0,0,0,0-0.1,0c-0.8,0.2-1.6,0.5-2.3,0.8v-6.5   c0.1,0,0.2,0,0.4-0.1c0.7-0.2,1.3-0.8,1.7-1.4c0.4-0.7,0.4-1.5,0.5-2.2c0-0.2,0-0.4,0.1-0.6c0.1-0.5,0.3-1.4,0.8-1.7   c0.4-0.2,0.9-0.1,1.4,0.2c0.5,0.3,0.9,0.9,1.3,1.4l0.3,0.5c0.9,1.4,1.8,2.8,3.2,3.7c0.2,0.1,0.4,0.3,0.7,0.4   C32.2,21.1,30.8,20.9,29.6,20.3z"></path>
</g>
<g>
	<path fill="#FFFFFF" d="M19.6,8.7c0,1.6,1.3,2.9,2.9,2.9c1.6,0,2.9-1.3,2.9-2.9s-1.3-2.9-2.9-2.9C20.9,5.8,19.6,7.1,19.6,8.7z    M23.9,8.7c0,0.8-0.6,1.4-1.4,1.4c-0.8,0-1.4-0.6-1.4-1.4c0-0.8,0.6-1.4,1.4-1.4C23.3,7.3,23.9,8,23.9,8.7z"></path>
</g>
<g>
	<path fill="#FFFFFF" d="M22.4,1.3c11.6,0,21.1,9.5,21.1,21.1S34,43.5,22.4,43.5S1.3,34,1.3,22.4S10.8,1.3,22.4,1.3 M22.4,0   C10.1,0,0,10.1,0,22.4s10.1,22.4,22.4,22.4s22.4-10.1,22.4-22.4S34.8,0,22.4,0L22.4,0z"></path>
</g>
<g>
	<path fill="#FFFFFF" d="M54.9,22.2v6.5h-1.6V14.3h1.6v6.4h8.3v-6.4h1.6v14.4h-1.6v-6.5H54.9z"></path>
	<path fill="#FFFFFF" d="M73.2,27.5c1.5,0,2.5-0.6,3.3-1.5l1,0.9c-1.1,1.2-2.4,2-4.4,2c-2.9,0-5.3-2.2-5.3-5.5   c0-3.1,2.2-5.5,5.1-5.5c3.1,0,4.9,2.5,4.9,5.6c0,0.1,0,0.3,0,0.5h-8.4C69.7,26.2,71.4,27.5,73.2,27.5z M76.3,22.7   c-0.2-1.9-1.3-3.6-3.4-3.6c-1.8,0-3.2,1.5-3.4,3.6H76.3z"></path>
	<path fill="#FFFFFF" d="M81.3,20l-0.5-1.3c1.2-0.5,2.3-0.9,3.9-0.9c2.9,0,4.5,1.5,4.5,4.3v6.5h-1.5V27c-0.7,1-2,1.8-3.8,1.8   c-2,0-4-1.1-4-3.3c0-2.3,1.8-3.4,4.5-3.4c1.4,0,2.3,0.2,3.3,0.5v-0.4c0-1.9-1.2-2.9-3.2-2.9C83.3,19.3,82.3,19.6,81.3,20z    M81.5,25.5c0,1.4,1.2,2.1,2.7,2.1c1.9,0,3.5-1.2,3.5-2.9v-1c-0.8-0.2-1.8-0.5-3.1-0.5C82.6,23.2,81.5,24.1,81.5,25.5z"></path>
	<path fill="#FFFFFF" d="M92.7,28.6v-15h1.6v15H92.7z"></path>
	<path fill="#FFFFFF" d="M100.1,25.6c0,1.3,0.7,1.8,1.8,1.8c0.5,0,1-0.1,1.5-0.4v1.4c-0.6,0.3-1.1,0.5-1.9,0.5c-1.7,0-3-0.8-3-3   v-6.4h-1.5V18h1.5v-3.2h1.6V18h3.4v1.4h-3.4V25.6z"></path>
	<path fill="#FFFFFF" d="M107.9,28.6h-1.6v-15h1.6v6.2c0.7-1.1,1.8-2.1,3.6-2.1c2.6,0,4.1,1.7,4.1,4.2v6.6H114v-6.2   c0-2-1.1-3.2-2.9-3.2c-1.8,0-3.2,1.3-3.2,3.3V28.6z"></path>
	<path fill="#FFFFFF" d="M123.7,28.9c-3.1,0-5.4-2.5-5.4-5.5c0-3,2.3-5.6,5.4-5.6c2,0,3.3,0.8,4.2,1.9l-1,1.1   c-0.8-0.9-1.8-1.6-3.2-1.6c-2.2,0-3.8,1.8-3.8,4.1c0,2.3,1.7,4.1,3.9,4.1c1.4,0,2.4-0.7,3.2-1.6l1,0.9   C126.9,28,125.7,28.9,123.7,28.9z"></path>
	<path fill="#FFFFFF" d="M131.2,20l-0.5-1.3c1.2-0.5,2.3-0.9,3.9-0.9c2.9,0,4.5,1.5,4.5,4.3v6.5h-1.5V27c-0.7,1-2,1.8-3.8,1.8   c-2,0-4-1.1-4-3.3c0-2.3,1.8-3.4,4.5-3.4c1.4,0,2.3,0.2,3.3,0.5v-0.4c0-1.9-1.2-2.9-3.2-2.9C133.2,19.3,132.2,19.6,131.2,20z    M131.4,25.5c0,1.4,1.2,2.1,2.7,2.1c1.9,0,3.5-1.2,3.5-2.9v-1c-0.8-0.2-1.8-0.5-3.1-0.5C132.5,23.2,131.4,24.1,131.4,25.5z"></path>
	<path fill="#FFFFFF" d="M144.1,28.6h-1.6V18h1.6v2.8c0.8-1.8,2.3-3,4.3-3v1.7h-0.1c-2.3,0-4.2,1.7-4.2,4.9V28.6z"></path>
	<path fill="#FFFFFF" d="M155,27.5c1.5,0,2.5-0.6,3.3-1.5l1,0.9c-1.1,1.2-2.4,2-4.4,2c-2.9,0-5.3-2.2-5.3-5.5c0-3.1,2.2-5.5,5.1-5.5   c3.1,0,4.9,2.5,4.9,5.6c0,0.1,0,0.3,0,0.5h-8.4C151.5,26.2,153.2,27.5,155,27.5z M158.1,22.7c-0.2-1.9-1.3-3.6-3.4-3.6   c-1.8,0-3.2,1.5-3.4,3.6H158.1z"></path>
	<path fill="#FFFFFF" d="M170.7,14.3v14.4h-1.6V14.3H170.7z"></path>
	<path fill="#FFFFFF" d="M176.2,28.6h-1.6V18h1.6v1.8c0.7-1.1,1.8-2.1,3.6-2.1c2.6,0,4.1,1.7,4.1,4.2v6.6h-1.6v-6.2   c0-2-1.1-3.2-2.9-3.2c-1.8,0-3.2,1.3-3.2,3.3V28.6z"></path>
	<path fill="#FFFFFF" d="M195.8,28.6v-2.1c-0.9,1.3-2.1,2.4-4.1,2.4c-2.5,0-5.1-2-5.1-5.5c0-3.5,2.5-5.5,5.1-5.5   c2,0,3.2,1.1,4.1,2.3v-6.4h1.6v15H195.8z M192,19.2c-2.1,0-3.7,1.5-3.7,4.1c0,2.5,1.7,4.1,3.7,4.1c2,0,3.8-1.6,3.8-4.1   C195.8,20.8,194,19.2,192,19.2z"></path>
	<path fill="#FFFFFF" d="M208.4,18h1.6v10.6h-1.6v-1.8c-0.7,1.1-1.8,2.1-3.6,2.1c-2.6,0-4.1-1.7-4.1-4.2V18h1.6v6.2   c0,2,1.1,3.2,2.9,3.2c1.8,0,3.2-1.3,3.2-3.3V18z"></path>
	<path fill="#FFFFFF" d="M217,28.8c-1.5,0-3.2-0.6-4.4-1.6l0.8-1.1c1.1,0.9,2.4,1.4,3.7,1.4c1.3,0,2.2-0.7,2.2-1.7v0   c0-1.1-1.3-1.5-2.6-1.9c-1.7-0.5-3.5-1-3.5-3v0c0-1.8,1.5-3,3.6-3c1.3,0,2.7,0.5,3.8,1.2l-0.7,1.2c-1-0.6-2.1-1-3.1-1   c-1.3,0-2.1,0.7-2.1,1.5v0c0,1,1.3,1.4,2.7,1.8c1.6,0.5,3.4,1.1,3.4,3v0C220.8,27.7,219.1,28.8,217,28.8z"></path>
	<path fill="#FFFFFF" d="M225.7,25.6c0,1.3,0.7,1.8,1.8,1.8c0.5,0,1-0.1,1.5-0.4v1.4c-0.6,0.3-1.1,0.5-1.9,0.5c-1.7,0-3-0.8-3-3   v-6.4h-1.5V18h1.5v-3.2h1.6V18h3.4v1.4h-3.4V25.6z"></path>
	<path fill="#FFFFFF" d="M233.4,28.6h-1.6V18h1.6v2.8c0.8-1.8,2.3-3,4.3-3v1.7h-0.1c-2.3,0-4.2,1.7-4.2,4.9V28.6z"></path>
	<path fill="#FFFFFF" d="M245.3,29c-0.9,2.2-1.9,3-3.5,3c-0.9,0-1.5-0.2-2.3-0.5l0.5-1.3c0.5,0.3,1,0.4,1.7,0.4c0.9,0,1.5-0.5,2.2-2   L239,18h1.7l3.9,8.8l3.4-8.8h1.7L245.3,29z"></path>
</g>
</svg>
