<?xml version="1.0" encoding="UTF-8"?>
<svg xmlns="http://www.w3.org/2000/svg" id="Layer_1" viewBox="0 0 205.86 44.32">
  <defs>
    <style>.cls-1{fill:#fff;}</style>
  </defs>
  <title>insurance_industry-icon-reversed</title>
  <path class="cls-1" d="M13.39,34.45c-.34-1-.51-1.6,0-2.24a.57.57,0,0,0,.06-.67.62.62,0,0,0-.6-.28,2.29,2.29,0,0,0-1.54,1.15,17.32,17.32,0,0,1-.15-2.52.61.61,0,0,0-.3-.51.68.68,0,0,0-.59,0c-1.38.83-1.59,2.62-1.74,3.92,0,.12,0,.25-.05.37-.42-.71-.95-1.49-1.29-1.6a.51.51,0,0,0-.51.07.68.68,0,0,0-.21.67,4.61,4.61,0,0,1,.06,1.88c-.13,1.37-.29,3.08,1.51,3.88a4.16,4.16,0,0,0,2,.49,4.3,4.3,0,0,0,2.3-.63,2.74,2.74,0,0,0,1.3-2.61A4,4,0,0,0,13.39,34.45Zm-.69,1.43a1.75,1.75,0,0,1-.84,1.72,3.51,3.51,0,0,1-3.33.09c-1.13-.5-1.1-1.43-1-2.9l.06-.68a11,11,0,0,1,.58,1,.5.5,0,0,0,.61.34.49.49,0,0,0,.3-.21,4.6,4.6,0,0,0,.45-1.85,6.32,6.32,0,0,1,.65-2.56,8,8,0,0,0,.6,3.23.51.51,0,0,0,.93-.1,3.66,3.66,0,0,1,.34-.85,5.13,5.13,0,0,0,.36,1.63,3.28,3.28,0,0,1,.26,1Z"></path>
  <path class="cls-1" d="M19.62,31.38l-1.76-1.51-.07-.06-.42-.36v-4.9a.51.51,0,0,0-.5-.5H13a.5.5,0,0,0-.5.5v.74l-2-1.76a.51.51,0,0,0-.66,0L.7,31.38a.51.51,0,0,0-.06.71.51.51,0,0,0,.71,0l1-.83V41.79a.5.5,0,0,0,.5.5H17.51a.5.5,0,0,0,.5-.5V31.32l1,.82a.51.51,0,0,0,.71,0A.51.51,0,0,0,19.62,31.38Zm-6.08-6.33h2.83v3.54l-2.83-2.44ZM17,41.29H3.32V30.45l6.84-5.88,2.53,2.17.07.06L17,30.46Z"></path>
  <path class="cls-1" d="M36.28,37.26a.48.48,0,0,1-.5-.5.63.63,0,0,1,0-.19.91.91,0,0,1,.11-.16.51.51,0,0,1,.71,0,.57.57,0,0,1,.11.16.65.65,0,0,1,0,.19.53.53,0,0,1-.15.36A.5.5,0,0,1,36.28,37.26Z"></path>
  <path class="cls-1" d="M31.72,36.62h-.65a.51.51,0,0,1-.5-.5.5.5,0,0,1,.5-.5h.65a.5.5,0,0,1,.5.5A.5.5,0,0,1,31.72,36.62Z"></path>
  <path class="cls-1" d="M28.47,36.62h-.65a.51.51,0,0,1-.5-.5.5.5,0,0,1,.5-.5h.65a.5.5,0,0,1,.5.5A.5.5,0,0,1,28.47,36.62Z"></path>
  <path class="cls-1" d="M31.72,38.57h-.65a.51.51,0,0,1-.5-.5.5.5,0,0,1,.5-.5h.65a.5.5,0,0,1,.5.5A.5.5,0,0,1,31.72,38.57Z"></path>
  <path class="cls-1" d="M28.47,38.57h-.65a.51.51,0,0,1-.5-.5.5.5,0,0,1,.5-.5h.65a.5.5,0,0,1,.5.5A.5.5,0,0,1,28.47,38.57Z"></path>
  <path class="cls-1" d="M31.72,40.52h-.65a.51.51,0,0,1-.5-.5.5.5,0,0,1,.5-.5h.65a.5.5,0,0,1,.5.5A.5.5,0,0,1,31.72,40.52Z"></path>
  <path class="cls-1" d="M28.47,40.52h-.65a.51.51,0,0,1-.5-.5.5.5,0,0,1,.5-.5h.65a.5.5,0,0,1,.5.5A.5.5,0,0,1,28.47,40.52Z"></path>
  <path class="cls-1" d="M38.23,37.26a.41.41,0,0,1-.19,0,.36.36,0,0,1-.16-.11.45.45,0,0,1-.15-.35.47.47,0,0,1,.15-.35A.46.46,0,0,1,38,36.3a.49.49,0,0,1,.54.11.51.51,0,0,1,.15.35.45.45,0,0,1-.15.35A.47.47,0,0,1,38.23,37.26Z"></path>
  <path class="cls-1" d="M40.18,37.26a.58.58,0,0,1-.19,0,.48.48,0,0,1-.16-.12.36.36,0,0,1-.11-.16.41.41,0,0,1,0-.19.47.47,0,0,1,.15-.35.51.51,0,0,1,.7,0,.47.47,0,0,1,.15.35.41.41,0,0,1,0,.19.36.36,0,0,1-.11.16.48.48,0,0,1-.16.12A.58.58,0,0,1,40.18,37.26Z"></path>
  <path class="cls-1" d="M42.13,37.26a.63.63,0,0,1-.19,0,.91.91,0,0,1-.16-.11.39.39,0,0,1-.11-.17.41.41,0,0,1,0-.19.47.47,0,0,1,.15-.35.49.49,0,0,1,.54-.11.46.46,0,0,1,.16.11.47.47,0,0,1,.15.35.49.49,0,0,1-.15.36A.48.48,0,0,1,42.13,37.26Z"></path>
  <path class="cls-1" d="M36.28,35.31a.49.49,0,0,1-.36-.15.5.5,0,0,1-.14-.35.63.63,0,0,1,0-.19.64.64,0,0,1,.11-.16.51.51,0,0,1,.71,0,.46.46,0,0,1,.11.16.65.65,0,0,1,0,.19.51.51,0,0,1-.15.35A.49.49,0,0,1,36.28,35.31Z"></path>
  <path class="cls-1" d="M38.23,35.31a.41.41,0,0,1-.19,0,.53.53,0,0,1-.27-.27.41.41,0,0,1,0-.19.47.47,0,0,1,.15-.35.36.36,0,0,1,.16-.11.49.49,0,0,1,.54.11.51.51,0,0,1,.15.35.58.58,0,0,1,0,.19.46.46,0,0,1-.11.16A.47.47,0,0,1,38.23,35.31Z"></path>
  <path class="cls-1" d="M40.18,35.31a.41.41,0,0,1-.19,0,.53.53,0,0,1-.27-.27.41.41,0,0,1,0-.19.47.47,0,0,1,.15-.35.5.5,0,0,1,.7,0,.5.5,0,0,1-.35.85Z"></path>
  <path class="cls-1" d="M42.13,35.31a.43.43,0,0,1-.19,0,.42.42,0,0,1-.16-.11.36.36,0,0,1-.11-.16.41.41,0,0,1,0-.19.47.47,0,0,1,.15-.35.49.49,0,0,1,.54-.11.46.46,0,0,1,.16.11.47.47,0,0,1,.15.35.51.51,0,0,1-.5.5Z"></path>
  <path class="cls-1" d="M32.22,27.57v4.8a.5.5,0,0,1-.5.5.5.5,0,0,1-.5-.5V30.92H28.39v1.45a.5.5,0,0,1-.5.5.5.5,0,0,1-.5-.5v-4.8a.51.51,0,0,1,.5-.5.5.5,0,0,1,.5.5v2.35h2.83V27.57a.51.51,0,0,1,.5-.5A.5.5,0,0,1,32.22,27.57Z"></path>
  <path class="cls-1" d="M44.08,31.71H34.83v-4.4a4.72,4.72,0,0,0-4.71-4.71h-.69a4.71,4.71,0,0,0-4.71,4.71V42a.5.5,0,0,0,.5.5H44.08a.5.5,0,0,0,.5-.5V32.21A.5.5,0,0,0,44.08,31.71ZM33.83,41.47H25.72V27.31a3.71,3.71,0,0,1,3.71-3.71h.69a3.72,3.72,0,0,1,3.71,3.71Zm6.5,0H38.08V39.21h2.25Zm3.25,0H41.33V38.71a.5.5,0,0,0-.5-.5H37.58a.5.5,0,0,0-.5.5v2.76H34.83V32.71h8.75Z"></path>
  <path class="cls-1" d="M24.72,13.88a.5.5,0,0,1-.5.5H20a.5.5,0,0,1-.5-.5.5.5,0,0,1,.5-.5h4.27A.51.51,0,0,1,24.72,13.88Z"></path>
  <path class="cls-1" d="M24.72,11.88a.5.5,0,0,1-.5.5H20a.5.5,0,0,1-.5-.5.5.5,0,0,1,.5-.5h4.27A.51.51,0,0,1,24.72,11.88Z"></path>
  <path class="cls-1" d="M28,11.67a1.72,1.72,0,1,0,1.72,1.71A1.72,1.72,0,0,0,28,11.67Zm0,2.43a.72.72,0,1,1,.72-.72A.72.72,0,0,1,28,14.1Z"></path>
  <path class="cls-1" d="M16.22,11.67a1.72,1.72,0,1,0,1.72,1.71A1.72,1.72,0,0,0,16.22,11.67Zm0,2.43a.72.72,0,1,1,.72-.72A.72.72,0,0,1,16.22,14.1Z"></path>
  <path class="cls-1" d="M31.16,7.15H29.31l-.8-2.69a2.41,2.41,0,0,0-2.42-2h-8a2.43,2.43,0,0,0-2.41,2l-.81,2.73H13a1,1,0,0,0-1,1v.61c0,.72.58.93,1.06,1-.18.92-.37,2.53-.47,3.6v4.94A1.39,1.39,0,0,0,14,19.71h1.66A1.39,1.39,0,0,0,17,18.32V17.11H27v1.21a1.4,1.4,0,0,0,1.4,1.39H30.2a1.39,1.39,0,0,0,1.39-1.39v-5c-.11-1-.29-2.63-.47-3.55.46-.09,1-.3,1-1V8.15A1,1,0,0,0,31.16,7.15ZM16.66,4.67A1.43,1.43,0,0,1,18.1,3.46h8A1.44,1.44,0,0,1,27.54,4.7l.85,2.9c-.06.55-.9.89-1.69.89H17.48c-.78,0-1.63-.34-1.69-.89ZM16,18.32a.39.39,0,0,1-.39.39H14a.39.39,0,0,1-.39-.39V17.11H16Zm14.55,0a.4.4,0,0,1-.39.39H28.41a.4.4,0,0,1-.4-.39V17.11h2.58Zm.1-9.49-.28.05a.49.49,0,0,0-.34.26.51.51,0,0,0,0,.45,34.57,34.57,0,0,1,.54,3.79v2.73h-17V13.43a36,36,0,0,1,.54-3.83.51.51,0,0,0,0-.45.46.46,0,0,0-.36-.27l-.28,0c-.17,0-.45-.06-.48-.08V8.15h1.9a2.75,2.75,0,0,0,2.57,1.34H26.7a2.75,2.75,0,0,0,2.58-1.34h1.88l0,.58A1.74,1.74,0,0,1,30.69,8.83Z"></path>
  <path class="cls-1" d="M23.7,4.71a.5.5,0,0,1-.5.5H21a.5.5,0,0,1-.5-.5.51.51,0,0,1,.5-.5H23.2A.51.51,0,0,1,23.7,4.71Z"></path>
  <path class="cls-1" d="M54.84,5.39V19H53.31V5.39Z"></path>
  <path class="cls-1" d="M60.07,19h-1.5v-10h1.5v1.75a3.77,3.77,0,0,1,3.43-2c2.43,0,3.84,1.63,3.84,4V19H65.85V13.12c0-1.87-1-3-2.78-3a3,3,0,0,0-3,3.14Z"></path>
  <path class="cls-1" d="M73.85,19.17a6.93,6.93,0,0,1-4.16-1.47l.76-1.07a5.84,5.84,0,0,0,3.47,1.28c1.21,0,2.08-.62,2.08-1.59v0c0-1-1.18-1.4-2.5-1.77-1.57-.44-3.32-1-3.32-2.83v0c0-1.73,1.44-2.87,3.41-2.87a6.88,6.88,0,0,1,3.62,1.11L76.53,11a5.71,5.71,0,0,0-3-1c-1.19,0-1.94.62-1.94,1.46v0c0,1,1.24,1.31,2.58,1.72,1.55.47,3.22,1.07,3.22,2.87v0C77.42,18.07,75.85,19.17,73.85,19.17Z"></path>
  <path class="cls-1" d="M87.32,8.94h1.47V19H87.32V17.23a3.82,3.82,0,0,1-3.44,2,3.67,3.67,0,0,1-3.84-4V8.94h1.5v5.87c0,1.86,1,3,2.77,3a3,3,0,0,0,3-3.14Z"></path>
  <path class="cls-1" d="M93.65,19h-1.5v-10h1.5v2.62a4.3,4.3,0,0,1,4.09-2.79v1.61h-.11c-2.2,0-4,1.57-4,4.6Z"></path>
  <path class="cls-1" d="M100.11,10.87l-.45-1.23a8.39,8.39,0,0,1,3.65-.83c2.74,0,4.27,1.4,4.27,4V19h-1.43V17.46a4.39,4.39,0,0,1-3.63,1.73c-1.87,0-3.75-1.05-3.75-3.14s1.75-3.26,4.29-3.26a10.83,10.83,0,0,1,3.09.42v-.35c0-1.8-1.11-2.73-3-2.73A6.93,6.93,0,0,0,100.11,10.87Zm.18,5.12c0,1.28,1.16,2,2.52,2,1.84,0,3.36-1.13,3.36-2.72v-1a10.61,10.61,0,0,0-3-.43C101.33,13.89,100.29,14.71,100.29,16Z"></path>
  <path class="cls-1" d="M112.26,19h-1.49v-10h1.49v1.75a3.8,3.8,0,0,1,3.44-2,3.67,3.67,0,0,1,3.84,4V19h-1.49V13.12c0-1.87-1-3-2.78-3a3,3,0,0,0-3,3.14Z"></path>
  <path class="cls-1" d="M127.25,19.21A5.16,5.16,0,0,1,122.11,14a5.22,5.22,0,0,1,9.16-3.47l-1,1a4.07,4.07,0,0,0-3-1.51,3.71,3.71,0,0,0-3.59,3.9,3.76,3.76,0,0,0,3.69,3.92,4.13,4.13,0,0,0,3.06-1.49l1,.89A5.17,5.17,0,0,1,127.25,19.21Z"></path>
  <path class="cls-1" d="M137.94,17.91a4.15,4.15,0,0,0,3.17-1.42l.93.84a5.19,5.19,0,0,1-4.13,1.88,5,5,0,0,1-5-5.24,5,5,0,0,1,4.81-5.24c3,0,4.68,2.37,4.68,5.32a3.86,3.86,0,0,1,0,.46h-8A3.51,3.51,0,0,0,137.94,17.91Zm2.93-4.5c-.15-1.83-1.2-3.42-3.2-3.42a3.47,3.47,0,0,0-3.26,3.42Z"></path>
  <path class="cls-1" d="M54.84,24.89V38.48H53.31V24.89Z"></path>
  <path class="cls-1" d="M60.07,38.48h-1.5v-10h1.5v1.74a3.79,3.79,0,0,1,3.43-2c2.43,0,3.84,1.63,3.84,4v6.23H65.85V32.62c0-1.86-1-3-2.78-3a3,3,0,0,0-3,3.15Z"></path>
  <path class="cls-1" d="M78.58,38.48v-2a4.51,4.51,0,0,1-3.84,2.23A4.89,4.89,0,0,1,70,33.47a4.92,4.92,0,0,1,4.79-5.24,4.51,4.51,0,0,1,3.84,2.14V24.31h1.5V38.48ZM75,29.57a3.55,3.55,0,0,0-3.53,3.88A3.62,3.62,0,0,0,75,37.35a3.9,3.9,0,0,0,0-7.78Z"></path>
  <path class="cls-1" d="M90.54,28.45H92v10H90.54V36.73a3.82,3.82,0,0,1-3.43,2,3.67,3.67,0,0,1-3.85-4V28.45h1.5v5.86c0,1.86,1,3,2.77,3a3,3,0,0,0,3-3.14Z"></path>
  <path class="cls-1" d="M98.7,38.67a6.93,6.93,0,0,1-4.16-1.47l.76-1.07a5.84,5.84,0,0,0,3.47,1.28c1.21,0,2.08-.62,2.08-1.59v0c0-1-1.18-1.4-2.5-1.76C96.77,33.57,95,33,95,31.18v0c0-1.72,1.43-2.87,3.41-2.87a6.81,6.81,0,0,1,3.61,1.11l-.68,1.12a5.65,5.65,0,0,0-3-1c-1.19,0-2,.62-2,1.46v0c0,.95,1.25,1.32,2.59,1.72,1.55.47,3.22,1.07,3.22,2.88v0C102.27,37.57,100.7,38.67,98.7,38.67Z"></path>
  <path class="cls-1" d="M106.87,35.63a1.49,1.49,0,0,0,1.69,1.67A3.15,3.15,0,0,0,110,37v1.28a3.74,3.74,0,0,1-1.8.43,2.56,2.56,0,0,1-2.84-2.84V29.77H104V28.45h1.39v-3h1.5v3h3.18v1.32h-3.18Z"></path>
  <path class="cls-1" d="M114.19,38.48h-1.5v-10h1.5v2.62a4.29,4.29,0,0,1,4.09-2.8v1.61h-.11c-2.2,0-4,1.57-4,4.6Z"></path>
  <path class="cls-1" d="M125.45,38.81c-.86,2.08-1.83,2.83-3.34,2.83a4.56,4.56,0,0,1-2.14-.5l.51-1.18a3.14,3.14,0,0,0,1.57.36c.89,0,1.46-.46,2.06-1.88l-4.56-10h1.65l3.65,8.36,3.22-8.36h1.59Z"></path>
</svg>
