<?xml version="1.0" encoding="utf-8"?>
<!-- Generator: Adobe Illustrator 19.1.0, SVG Export Plug-In . SVG Version: 6.00 Build 0)  -->
<svg version="1.1" id="Layer_1" xmlns="http://www.w3.org/2000/svg" xmlns:xlink="http://www.w3.org/1999/xlink" x="0px" y="0px"
	 viewBox="0 0 176.6 27.1" enable-background="new 0 0 176.6 27.1" xml:space="preserve">
<g>
	<path fill="#FAA333" d="M27.7,9.7l-9.5-0.2l-3.1-8.9c-0.3-0.8-1.4-0.8-1.6,0l-3.1,8.9L0.8,9.7c-0.8,0-1.1,1.1-0.5,1.6L7.9,17
		l-2.8,9c-0.2,0.8,0.6,1.4,1.3,1l7.8-5.4l7.8,5.4c0.7,0.5,1.5-0.2,1.3-1l-2.8-9l7.6-5.7C28.9,10.8,28.5,9.7,27.7,9.7z"/>
</g>
<g>
	<path fill="#FAA333" d="M64.7,9.7l-9.5-0.2l-3.1-8.9c-0.3-0.8-1.4-0.8-1.6,0l-3.1,8.9l-9.5,0.2c-0.8,0-1.1,1.1-0.5,1.6l7.6,5.7
		l-2.8,9c-0.2,0.8,0.6,1.4,1.3,1l7.8-5.4l7.8,5.4c0.7,0.5,1.5-0.2,1.3-1l-2.8-9l7.6-5.7C65.9,10.8,65.5,9.7,64.7,9.7z"/>
</g>
<g>
	<g>
		<path fill="#C6C8C1" d="M88.3,1.3l3,8.5l0.2,0.7l0.7,0l9.1,0.2L94,16.2l-0.6,0.4l0.2,0.7l2.6,8.7l-7.5-5.2l-0.6-0.4l-0.6,0.4
			l-7.5,5.2l2.6-8.7l0.2-0.7l-0.6-0.4l-7.3-5.5l9.1-0.2l0.7,0l0.2-0.7L88.3,1.3 M88.3,0c-0.3,0-0.7,0.2-0.8,0.6l-3.1,8.9l-9.5,0.2
			c-0.8,0-1.1,1.1-0.5,1.6l7.6,5.7l-2.8,9c-0.2,0.6,0.3,1.1,0.8,1.1c0.2,0,0.3,0,0.5-0.2l7.8-5.4l7.8,5.4c0.2,0.1,0.3,0.2,0.5,0.2
			c0.5,0,1-0.5,0.8-1.1l-2.8-9l7.6-5.7c0.7-0.5,0.3-1.5-0.5-1.6l-9.5-0.2l-3.1-8.9C89,0.2,88.6,0,88.3,0L88.3,0z"/>
	</g>
</g>
<g>
	<g>
		<path fill="#C6C8C1" d="M125.3,1.3l3,8.5l0.2,0.7l0.7,0l9.1,0.2l-7.3,5.5l-0.6,0.4l0.2,0.7l2.6,8.7l-7.5-5.2l-0.6-0.4l-0.6,0.4
			l-7.5,5.2l2.6-8.7l0.2-0.7l-0.6-0.4l-7.3-5.5l9.1-0.2l0.7,0l0.2-0.7L125.3,1.3 M125.3,0c-0.3,0-0.7,0.2-0.8,0.6l-3.1,8.9l-9.5,0.2
			c-0.8,0-1.1,1.1-0.5,1.6l7.6,5.7l-2.8,9c-0.2,0.6,0.3,1.1,0.8,1.1c0.2,0,0.3,0,0.5-0.2l7.8-5.4l7.8,5.4c0.2,0.1,0.3,0.2,0.5,0.2
			c0.5,0,1-0.5,0.8-1.1l-2.8-9l7.6-5.7c0.7-0.5,0.3-1.5-0.5-1.6l-9.5-0.2l-3.1-8.9C126,0.2,125.6,0,125.3,0L125.3,0z"/>
	</g>
</g>
<g>
	<g>
		<path fill="#C6C8C1" d="M162.3,1.3l3,8.5l0.2,0.7l0.7,0l9.1,0.2l-7.3,5.5l-0.6,0.4l0.2,0.7l2.6,8.7l-7.5-5.2l-0.6-0.4l-0.6,0.4
			l-7.5,5.2l2.6-8.7l0.2-0.7l-0.6-0.4l-7.3-5.5l9.1-0.2l0.7,0l0.2-0.7L162.3,1.3 M162.3,0c-0.3,0-0.7,0.2-0.8,0.6l-3.1,8.9l-9.5,0.2
			c-0.8,0-1.1,1.1-0.5,1.6l7.6,5.7l-2.8,9c-0.2,0.6,0.3,1.1,0.8,1.1c0.2,0,0.3,0,0.5-0.2l7.8-5.4l7.8,5.4c0.2,0.1,0.3,0.2,0.5,0.2
			c0.5,0,1-0.5,0.8-1.1l-2.8-9l7.6-5.7c0.7-0.5,0.3-1.5-0.5-1.6l-9.5-0.2l-3.1-8.9C163,0.2,162.6,0,162.3,0L162.3,0z"/>
	</g>
</g>
</svg>
