<?xml version="1.0" encoding="utf-8"?>
<!-- Generator: Adobe Illustrator 19.1.0, SVG Export Plug-In . SVG Version: 6.00 Build 0)  -->
<svg version="1.1" id="Layer_1" xmlns="http://www.w3.org/2000/svg" xmlns:xlink="http://www.w3.org/1999/xlink" x="0px" y="0px"
	 viewBox="0 0 176.6 27.1" enable-background="new 0 0 176.6 27.1" xml:space="preserve">
<g>
	<path fill="#FAA333" d="M27.7,9.7l-9.5-0.2l-3.1-8.9c-0.3-0.8-1.4-0.8-1.6,0l-3.1,8.9L0.8,9.7c-0.8,0-1.1,1.1-0.5,1.6L7.9,17
		l-2.8,9c-0.2,0.8,0.6,1.4,1.3,1l7.8-5.4l7.8,5.4c0.7,0.5,1.5-0.2,1.3-1l-2.8-9l7.6-5.7C28.9,10.8,28.5,9.7,27.7,9.7z"/>
</g>
<g>
	<path fill="#FAA333" d="M64.7,9.7l-9.5-0.2l-3.1-8.9c-0.3-0.8-1.4-0.8-1.6,0l-3.1,8.9l-9.5,0.2c-0.8,0-1.1,1.1-0.5,1.6l7.6,5.7
		l-2.8,9c-0.2,0.8,0.6,1.4,1.3,1l7.8-5.4l7.8,5.4c0.7,0.5,1.5-0.2,1.3-1l-2.8-9l7.6-5.7C65.9,10.8,65.5,9.7,64.7,9.7z"/>
</g>
<g>
	<path fill="#FAA333" d="M101.7,9.7l-9.5-0.2l-3.1-8.9c-0.3-0.8-1.4-0.8-1.6,0l-3.1,8.9l-9.5,0.2c-0.8,0-1.1,1.1-0.5,1.6l7.6,5.7
		l-2.8,9c-0.2,0.8,0.6,1.4,1.3,1l7.8-5.4l7.8,5.4c0.7,0.5,1.5-0.2,1.3-1l-2.8-9l7.6-5.7C102.9,10.8,102.5,9.7,101.7,9.7z"/>
</g>
<g>
	<path fill="#FAA333" d="M138.7,9.7l-9.5-0.2l-3.1-8.9c-0.3-0.8-1.4-0.8-1.6,0l-3.1,8.9l-9.5,0.2c-0.8,0-1.1,1.1-0.5,1.6l7.6,5.7
		l-2.8,9c-0.2,0.8,0.6,1.4,1.3,1l7.8-5.4l7.8,5.4c0.7,0.5,1.5-0.2,1.3-1l-2.8-9l7.6-5.7C139.9,10.8,139.5,9.7,138.7,9.7z"/>
</g>
<g>
	<path fill="#FAA333" d="M175.7,9.7l-9.5-0.2l-3.1-8.9c-0.3-0.8-1.4-0.8-1.6,0l-3.1,8.9l-9.5,0.2c-0.8,0-1.1,1.1-0.5,1.6l7.6,5.7
		l-2.8,9c-0.2,0.8,0.6,1.4,1.3,1l7.8-5.4l7.8,5.4c0.7,0.5,1.5-0.2,1.3-1l-2.8-9l7.6-5.7C176.9,10.8,176.5,9.7,175.7,9.7z"/>
</g>
</svg>
