<?xml version="1.0" encoding="utf-8"?>
<!-- Generator: Adobe Illustrator 18.1.1, SVG Export Plug-In . SVG Version: 6.00 Build 0)  -->
<svg version="1.1" id="Layer_1" xmlns="http://www.w3.org/2000/svg" xmlns:xlink="http://www.w3.org/1999/xlink" x="0px" y="0px"
	 viewBox="0 0 72 72" enable-background="new 0 0 72 72" xml:space="preserve">
<path fill="#272B24" d="M59.5,39.2c0-0.1,0-0.1,0-0.2c0-0.1,0-0.1,0-0.2c0,0,0,0,0,0l-9.1-19.5c0,0,0,0,0,0
	c-0.1-0.1-0.1-0.2-0.2-0.3c0,0-0.1,0-0.1-0.1c-0.1-0.1-0.2-0.1-0.4-0.1c0,0,0,0,0,0s0,0,0,0H37.2v-2.7c0-0.4-0.4-0.8-0.8-0.8
	c-0.4,0-0.8,0.4-0.8,0.8v2.7H23.2c0,0,0,0,0,0c-0.1,0-0.3,0-0.4,0.1c0,0-0.1,0-0.1,0.1c-0.1,0.1-0.2,0.2-0.2,0.3c0,0,0,0,0,0
	l-9.2,19.5c0,0,0,0,0,0c0,0.1,0,0.1,0,0.2c0,0.1,0,0.1,0,0.2c0,0,0,0,0,0c0,4.8,4.3,8.4,10,8.4c5.7,0,10-3.6,10-8.4c0,0,0,0,0,0
	c0-0.1,0-0.1,0-0.2c0-0.1,0-0.1,0-0.2c0,0,0,0,0,0l-8.6-18.3h11.1l0,35.4h-8.4c-0.4,0-0.8,0.4-0.8,0.8c0,0.4,0.4,0.8,0.8,0.8h18.3
	c0.4,0,0.8-0.4,0.8-0.8c0-0.4-0.4-0.8-0.8-0.8h-8.2V20.5h11.1l-8.6,18.3c0,0,0,0,0,0c0,0.1,0,0.1,0,0.2c0,0.1,0,0.1,0,0.1
	c0,0,0,0,0,0c0,4.8,4.3,8.4,10,8.4C55.3,47.6,59.5,44,59.5,39.2C59.5,39.2,59.5,39.2,59.5,39.2z M23.2,45.9c-4.4,0-7.8-2.5-8.3-5.9
	h16.6C31,43.4,27.6,45.9,23.2,45.9z M31,38.4H15.3l7.9-16.7L31,38.4z M49.6,21.6l7.8,16.7H41.7L49.6,21.6z M49.6,45.9
	c-4.4,0-7.8-2.5-8.3-5.9h16.6C57.4,43.4,54,45.9,49.6,45.9z"/>
</svg>
