<?xml version="1.0" encoding="utf-8"?>
<!-- Generator: Adobe Illustrator 18.1.1, SVG Export Plug-In . SVG Version: 6.00 Build 0)  -->
<svg version="1.1" id="Layer_1" xmlns="http://www.w3.org/2000/svg" xmlns:xlink="http://www.w3.org/1999/xlink" x="0px" y="0px"
	 viewBox="0 0 72 72" enable-background="new 0 0 72 72" xml:space="preserve">
<g>
	<path fill="#272B24" d="M55.9,26.1c-0.2-0.9-1.4-1.3-2.1-0.6l-4.4,4.4l-3.8,0.8l-3.2-3.2l0.8-3.8l4.4-4.4c0.3-0.3,0.4-0.8,0.3-1.2
		c-0.1-0.4-0.5-0.8-0.9-0.8c-3.7-0.7-7.6,0.4-10.2,3.1c-3.1,3.1-2.6,8.3-2.1,10.8L18.9,44.8c-2.6,2.6-2.6,6.8,0,9.4
		c1.3,1.3,2.9,1.9,4.7,1.9c1.8,0,3.5-0.7,4.8-2L42,38.5c1.2,0.2,2.4,0.3,3.6,0.3h0c3.1,0,5.6-0.9,7.3-2.5
		C55.5,33.7,56.6,29.8,55.9,26.1z M51.8,35.4c-1.7,1.7-4.4,2.1-6.3,2.1c-1.2,0-2.4-0.1-3.7-0.4c-0.2-0.1-0.5,0-0.7,0.2L27.3,53.2
		c-2,2-5.5,2-7.5,0c-2-2-2-5.4,0-7.4l16-13.9c0.2-0.2,0.3-0.4,0.2-0.7c-0.3-1.6-1.2-7.1,1.7-10c1.9-1.9,4.4-2.9,7-2.9
		c0.5,0,1.1,0,1.6,0.1l-4.3,4.3c-0.1,0.1-0.2,0.2-0.2,0.4l-0.9,4.4c0,0.2,0,0.5,0.2,0.6l3.7,3.7c0.2,0.2,0.4,0.2,0.6,0.2l4.4-0.9
		c0.1,0,0.3-0.1,0.4-0.2l4.3-4.4C55.1,29.8,54.1,33.1,51.8,35.4z"/>
	<path fill="#272B24" d="M22.4,48c-0.7,0.7-0.7,2,0,2.7c0.4,0.4,0.8,0.6,1.3,0.6c0.5,0,1-0.2,1.3-0.6c0.7-0.7,0.7-2,0-2.7
		C24.4,47.3,23.1,47.3,22.4,48z M24.1,49.7c-0.2,0.2-0.5,0.2-0.7,0c-0.2-0.2-0.2-0.5,0-0.7c0.1-0.1,0.2-0.2,0.4-0.2
		c0.1,0,0.3,0.1,0.4,0.2C24.3,49.2,24.3,49.5,24.1,49.7z"/>
</g>
</svg>
