<?xml version="1.0" encoding="utf-8"?>
<!-- Generator: Adobe Illustrator 18.1.1, SVG Export Plug-In . SVG Version: 6.00 Build 0)  -->
<svg version="1.1" id="Layer_1" xmlns="http://www.w3.org/2000/svg" xmlns:xlink="http://www.w3.org/1999/xlink" x="0px" y="0px"
	 viewBox="0 0 72 72" enable-background="new 0 0 72 72" xml:space="preserve">
<g>
	<path fill="#272B24" d="M47.7,27.1c0.3,0.1,0.6,0.1,0.9,0.1c1.3,0,2.4-0.8,2.8-2.1c0.2-0.7,0.2-1.5-0.2-2.2c-0.4-0.7-1-1.2-1.7-1.4
		c-1.5-0.5-3.2,0.4-3.7,1.9C45.3,25,46.1,26.6,47.7,27.1z M46.9,23.8c0.2-0.7,0.9-1.2,1.6-1.2c0.2,0,0.3,0,0.5,0.1
		c0.4,0.1,0.8,0.4,1,0.8c0.2,0.4,0.3,0.9,0.1,1.3c-0.3,0.9-1.2,1.4-2.1,1.1C47.1,25.6,46.6,24.7,46.9,23.8z"/>
	<path fill="#272B24" d="M37.6,39.6c-0.5-0.2-1-0.2-1.6-0.2c-2.3,0-4.3,1.5-5,3.7c-0.4,1.3-0.3,2.8,0.4,4c0.7,1.2,1.8,2.2,3.1,2.6
		c0.5,0.2,1,0.2,1.6,0.2c2.3,0,4.3-1.5,5-3.7c0.4-1.3,0.3-2.8-0.4-4C40,40.9,38.9,40,37.6,39.6z M39.9,45.8
		c-0.5,1.7-2.1,2.8-3.9,2.8c-0.4,0-0.8-0.1-1.2-0.2c-1-0.3-1.9-1-2.4-2c-0.5-1-0.6-2.1-0.3-3.1c0.5-1.7,2.1-2.8,3.9-2.8
		c0.4,0,0.8,0.1,1.2,0.2c1,0.3,1.9,1,2.4,2C40.1,43.7,40.2,44.8,39.9,45.8z"/>
	<path fill="#272B24" d="M59.1,42.2c-0.7-1.3-1.8-2.2-3.1-2.6c-0.5-0.2-1-0.2-1.6-0.2c-2.3,0-4.3,1.5-5,3.7c-0.4,1.3-0.3,2.8,0.4,4
		c0.7,1.3,1.8,2.2,3.1,2.6c0.5,0.2,1,0.2,1.6,0.2c2.3,0,4.3-1.5,5-3.7C59.9,44.8,59.8,43.4,59.1,42.2z M58.3,45.8
		c-0.5,1.7-2.1,2.8-3.9,2.8c-0.4,0-0.8-0.1-1.2-0.2c-1-0.3-1.9-1-2.4-2c-0.5-1-0.6-2.1-0.3-3.1c0.5-1.7,2.1-2.8,3.9-2.8
		c0.4,0,0.8,0.1,1.2,0.2c1,0.3,1.9,1,2.4,2C58.5,43.7,58.6,44.8,58.3,45.8z"/>
	<path fill="#272B24" d="M44.1,30c0.3-0.6,0.8-0.9,1.4-0.9c0.5,0,1,0.3,1.2,0.9l2.5,5.1c0.1,0.2,0.3,0.3,0.6,0.3h3.5
		c0.3,0,0.6-0.3,0.6-0.6c0-0.3-0.3-0.6-0.6-0.6h-3.1l-2.4-4.7c-0.4-0.9-1.3-1.5-2.3-1.6c-1-0.1-2,0.5-2.5,1.5l-2.8,4
		c-0.7,0.9-0.5,2.2,0.4,3.1l4.7,3.7c0.1,0.8,0,3.5,0,5.9c0,0.3,0.3,0.6,0.6,0.6c0,0,0,0,0,0c0.3,0,0.6-0.3,0.6-0.6
		c0.2-6.2,0-6.4-0.1-6.6c0-0.1-0.1-0.1-0.1-0.1l-4.9-3.8c-0.4-0.4-0.5-1-0.1-1.4L44.1,30z"/>
	<path fill="#272B24" d="M35.6,44.2c-0.1,0.1-0.2,0.3-0.2,0.4s0.1,0.3,0.2,0.4c0.1,0.1,0.3,0.2,0.4,0.2c0.2,0,0.3-0.1,0.4-0.2
		c0.1-0.1,0.2-0.3,0.2-0.4s-0.1-0.3-0.2-0.4C36.2,43.9,35.8,43.9,35.6,44.2z"/>
	<path fill="#272B24" d="M29.2,27.1c0.3,0.1,0.6,0.1,0.9,0.1c1.3,0,2.4-0.8,2.8-2.1c0.2-0.7,0.2-1.5-0.2-2.2c-0.4-0.7-1-1.2-1.7-1.4
		c-1.5-0.5-3.2,0.4-3.7,1.9C26.8,25,27.7,26.6,29.2,27.1z M28.5,23.8c0.2-0.7,0.9-1.2,1.6-1.2c0.2,0,0.3,0,0.5,0.1
		c0.4,0.1,0.8,0.4,1,0.8c0.2,0.4,0.3,0.9,0.1,1.3c-0.3,0.9-1.2,1.4-2.1,1.1C28.7,25.6,28.2,24.7,28.5,23.8z"/>
	<path fill="#272B24" d="M19.2,39.6c-0.5-0.2-1-0.2-1.6-0.2c-2.3,0-4.3,1.5-5,3.7c-0.4,1.3-0.3,2.8,0.4,4c0.7,1.2,1.8,2.2,3.1,2.6
		c0.5,0.2,1,0.2,1.6,0.2c2.3,0,4.3-1.5,5-3.7c0.4-1.3,0.3-2.8-0.4-4C21.6,40.9,20.5,40,19.2,39.6z M21.4,45.8
		c-0.5,1.7-2.1,2.8-3.9,2.8c-0.4,0-0.8-0.1-1.2-0.2c-1-0.3-1.9-1-2.4-2c-0.5-1-0.6-2.1-0.3-3.1c0.5-1.7,2.1-2.8,3.9-2.8
		c0.4,0,0.8,0.1,1.2,0.2c1,0.3,1.9,1,2.4,2C21.7,43.7,21.8,44.8,21.4,45.8z"/>
	<path fill="#272B24" d="M25.7,30c0.3-0.6,0.8-0.9,1.4-0.9c0.5,0,1,0.3,1.2,0.9l2.5,5.1c0.1,0.2,0.3,0.3,0.6,0.3h3.5
		c0.3,0,0.6-0.3,0.6-0.6c0-0.3-0.3-0.6-0.6-0.6h-3.1l-2.4-4.7c-0.4-0.9-1.3-1.5-2.3-1.6c-1-0.1-2,0.5-2.5,1.5l-2.8,4
		c-0.7,0.9-0.5,2.2,0.4,3.1l4.7,3.7c0.1,0.8,0,3.5,0,5.9c0,0.3,0.3,0.6,0.6,0.6c0,0,0,0,0,0c0.3,0,0.6-0.3,0.6-0.6
		c0.2-6.2,0-6.4-0.1-6.6c0-0.1-0.1-0.1-0.1-0.1l-4.9-3.8c-0.4-0.4-0.5-1-0.1-1.4L25.7,30z"/>
	<path fill="#272B24" d="M17.1,44.2C17,44.3,17,44.4,17,44.6s0.1,0.3,0.2,0.4c0.1,0.1,0.3,0.2,0.4,0.2c0.2,0,0.3-0.1,0.4-0.2
		c0.1-0.1,0.2-0.3,0.2-0.4s-0.1-0.3-0.2-0.4C17.8,43.9,17.4,43.9,17.1,44.2z"/>
	<path fill="#272B24" d="M54,44.2c-0.1,0.1-0.2,0.3-0.2,0.4s0.1,0.3,0.2,0.4c0.1,0.1,0.3,0.2,0.4,0.2c0.2,0,0.3-0.1,0.4-0.2
		c0.1-0.1,0.2-0.3,0.2-0.4s-0.1-0.3-0.2-0.4C54.6,43.9,54.2,43.9,54,44.2z"/>
</g>
</svg>
