<?xml version="1.0" encoding="utf-8"?>
<!-- Generator: Adobe Illustrator 18.1.1, SVG Export Plug-In . SVG Version: 6.00 Build 0)  -->
<svg version="1.1" id="Layer_1" xmlns="http://www.w3.org/2000/svg" xmlns:xlink="http://www.w3.org/1999/xlink" x="0px" y="0px"
	 viewBox="0 0 29.7 29.7" enable-background="new 0 0 29.7 29.7" xml:space="preserve">
<path fill="#95C83E" d="M14.9,0C6.7,0,0,6.7,0,14.9c0,8.2,6.7,14.9,14.9,14.9c8.2,0,14.9-6.7,14.9-14.9C29.7,6.7,23.1,0,14.9,0z
	 M22.6,9.9l-9,11.3c-0.2,0.2-0.5,0.4-0.8,0.4s-0.6-0.1-0.8-0.4l-4.2-5.2c-0.3-0.4-0.3-1.1,0.2-1.4c0.4-0.3,1.1-0.3,1.4,0.2l3.4,4.3
	l8.2-10.3c0.3-0.4,1-0.5,1.4-0.2C22.9,8.8,23,9.5,22.6,9.9z"/>
</svg>
