<?xml version="1.0" encoding="utf-8"?>
<!-- Generator: Adobe Illustrator 18.1.1, SVG Export Plug-In . SVG Version: 6.00 Build 0)  -->
<svg width="14" height="14" version="1.1" id="Layer_1" xmlns="http://www.w3.org/2000/svg" xmlns:xlink="http://www.w3.org/1999/xlink" x="0px" y="0px"
	 viewBox="0 0 31 30" enable-background="new 0 0 31 30" xml:space="preserve">
<g>
	<path fill="none" stroke="#969B93" stroke-width="2" stroke-linecap="round" stroke-linejoin="round" stroke-miterlimit="10" d="
		M27.5,29h-24C2.1,29,1,27.9,1,26.5v-16C1,9.1,2.1,8,3.5,8h24c1.4,0,2.5,1.1,2.5,2.5v16C30,27.9,28.9,29,27.5,29z"/>
	
		<line fill="none" stroke="#969B93" stroke-width="2" stroke-linecap="round" stroke-linejoin="round" stroke-miterlimit="10" x1="1" y1="15" x2="13" y2="15"/>
	
		<line fill="none" stroke="#969B93" stroke-width="2" stroke-linecap="round" stroke-linejoin="round" stroke-miterlimit="10" x1="18" y1="15" x2="30" y2="15"/>
	
		<rect x="13" y="13" fill="none" stroke="#969B93" stroke-width="2" stroke-linecap="round" stroke-linejoin="round" stroke-miterlimit="10" width="5" height="4"/>
	<path fill="none" stroke="#969B93" stroke-width="2" stroke-linecap="round" stroke-linejoin="round" stroke-miterlimit="10" d="
		M21,5L21,5c0-2.2-1.8-4-4-4h-3c-2.2,0-4,1.8-4,4l0,0"/>
</g>
</svg>
