<?xml version="1.0" encoding="utf-8"?>
<!-- Generator: Adobe Illustrator 18.1.1, SVG Export Plug-In . SVG Version: 6.00 Build 0)  -->
<svg version="1.1" id="Layer_1" xmlns="http://www.w3.org/2000/svg" xmlns:xlink="http://www.w3.org/1999/xlink" x="0px" y="0px"
	 viewBox="0 0 72 72" enable-background="new 0 0 72 72" xml:space="preserve">
<g>
	<path fill="#272B24" d="M56.2,31.9l-3.1-2.1l-3-6.9c-0.1-0.3-0.4-0.4-0.7-0.4h-32c-0.4,0-0.7,0.3-0.7,0.7v4.2
		c0,0.4,0.3,0.7,0.7,0.7c0.4,0,0.7-0.3,0.7-0.7v-3.5h25v16H18.9c0,0,0,0,0,0h-0.8v-3.6c0-0.4-0.3-0.7-0.7-0.7
		c-0.4,0-0.7,0.3-0.7,0.7v4.3c0,0.4,0.3,0.7,0.7,0.7h0.8V45c0,0.4,0.3,0.7,0.7,0.7h2.4c0.3,2,2.1,3.6,4.2,3.6c2.1,0,3.8-1.5,4.2-3.5
		h15.4c0.4,2,2.1,3.5,4.2,3.5c2.1,0,3.8-1.5,4.2-3.5h3.2c0.4,0,0.7-0.3,0.7-0.7V34C57.5,33.2,57,32.4,56.2,31.9z M44.6,23.9h4.4
		l2.9,6.6c0.1,0.1,0.1,0.2,0.3,0.3l3.3,2.2c0.4,0.3,0.7,0.6,0.7,0.9v5.9H44.6V23.9z M45.2,44.3H29.8c-0.2-1.2-0.9-2.3-1.9-3h19.2
		C46.1,42,45.4,43.1,45.2,44.3z M19.6,41.4h3.6c-1,0.6-1.7,1.7-1.9,2.9h-1.7V41.4z M25.6,47.8c-1.6,0-2.8-1.3-2.8-2.8
		c0-1.6,1.3-2.8,2.8-2.8c1.6,0,2.8,1.3,2.8,2.8C28.4,46.5,27.1,47.8,25.6,47.8z M49.4,47.8c-1.6,0-2.8-1.3-2.8-2.8
		c0-1.6,1.3-2.8,2.8-2.8s2.8,1.3,2.8,2.8C52.2,46.5,51,47.8,49.4,47.8z M53.6,44.3c-0.2-1.2-0.9-2.3-1.9-3h4.3v3H53.6z"/>
	<path fill="#272B24" d="M20.9,33.4c0-0.4-0.3-0.7-0.7-0.7H16c-0.4,0-0.7,0.3-0.7,0.7c0,0.4,0.3,0.7,0.7,0.7h4.2
		C20.6,34.1,20.9,33.8,20.9,33.4z"/>
	<path fill="#272B24" d="M22.5,30.5c0-0.4-0.3-0.7-0.7-0.7h-7.3c-0.4,0-0.7,0.3-0.7,0.7c0,0.4,0.3,0.7,0.7,0.7h7.3
		C22.1,31.2,22.5,30.9,22.5,30.5z"/>
</g>
</svg>
