<?xml version="1.0" encoding="utf-8"?>
<!-- Generator: Adobe Illustrator 18.1.1, SVG Export Plug-In . SVG Version: 6.00 Build 0)  -->
<svg version="1.1" id="Layer_1" xmlns="http://www.w3.org/2000/svg" xmlns:xlink="http://www.w3.org/1999/xlink" x="0px" y="0px"
	 viewBox="0 0 72 72" enable-background="new 0 0 72 72" xml:space="preserve">
<path fill="#272B24" d="M30.5,45.1c1.3,1.9,4.5,3.8,7.5,3.8h2.6l7.6,6.7c0.1,0.1,0.3,0.2,0.5,0.2c0.1,0,0.2,0,0.3-0.1
	c0.3-0.1,0.4-0.4,0.4-0.7v-6.5c4.3-1.2,7.4-5.4,7.4-10.4c0-5.9-4.4-10.7-9.8-10.7c-1.1,0-1.3,1.5,0,1.5c4.6,0,8.2,4.1,8.2,9.1
	c0,4.4-2.9,8.2-6.8,9c-0.4,0.1-0.6,0.4-0.6,0.7v5.4l-6.5-5.8c-0.1-0.1-0.3-0.2-0.5-0.2H38c-2.5,0-4.8-1.4-6.4-3.3
	C30.9,43.2,29.7,44,30.5,45.1z"/>
<path fill="#272B24" d="M44.5,29c0-6.3-4.6-11.4-10.2-11.4h-9.5c-5.6,0-10.2,5.1-10.2,11.4c0,5.4,3,9.9,7.5,11.1v7
	c0,0.3,0.2,0.6,0.5,0.7c0.1,0,0.2,0.1,0.3,0.1c0.2,0,0.4-0.1,0.5-0.2l8.3-7.5h2.7C40,40.2,44.5,35.3,44.5,29z M31.3,38.7
	c-0.2,0-0.4,0.1-0.5,0.2l-7.2,6.5v-5.9c0-0.4-0.3-0.7-0.6-0.7c-4.1-0.8-6.9-4.8-6.9-9.8c0-5.5,3.9-9.9,8.7-9.9h9.5
	c4.8,0,8.7,4.4,8.7,9.9c0,5.5-3.8,9.7-8.7,9.7H31.3z"/>
<path fill="#272B24" d="M35.5,24.5c-0.3-0.3-0.8-0.3-1.1,0l-6.9,7.5l-2.9-3.2c-0.3-0.3-0.8-0.3-1.1-0.1c-0.3,0.3-0.3,0.8-0.1,1.1
	l3.4,3.8c0,0,0,0,0,0c0,0,0,0,0,0c0,0,0.1,0.1,0.1,0.1c0,0,0.1,0,0.1,0.1c0.1,0,0.2,0,0.2,0.1c0,0,0,0,0,0c0.1,0,0.2,0,0.3-0.1
	c0,0,0,0,0,0c0.1,0,0.1-0.1,0.2-0.1c0,0,0,0,0,0c0,0,0,0,0,0l7.5-8.1C35.8,25.3,35.8,24.8,35.5,24.5z"/>
</svg>
