<?xml version="1.0" encoding="utf-8"?>
<!-- Generator: Adobe Illustrator 18.1.1, SVG Export Plug-In . SVG Version: 6.00 Build 0)  -->
<svg width="14" height="14" version="1.1" id="Layer_1" xmlns="http://www.w3.org/2000/svg" xmlns:xlink="http://www.w3.org/1999/xlink" x="0px" y="0px"
	 viewBox="0 0 33.5 21.8" enable-background="new 0 0 33.5 21.8" xml:space="preserve">
<path fill="#969B93" d="M33.5,19.5V2.3c0-0.7-0.3-1.3-0.8-1.7c-0.1-0.1-0.1-0.1-0.2-0.2C32.1,0.2,31.7,0,31.2,0L2.3,0
	c-0.5,0-1,0.2-1.4,0.5c0,0,0,0,0,0C0.4,0.9,0,1.6,0,2.3l0,17.2c0,0.6,0.2,1.2,0.7,1.6c0.4,0.4,1,0.7,1.6,0.7h28.9
	c0.6,0,1.2-0.2,1.6-0.7C33.3,20.7,33.5,20.1,33.5,19.5z M29,2l-12.3,9L4.5,2L29,2z M31.2,19.8H2.3c-0.2,0-0.3-0.1-0.3-0.3V2.8
	l14.8,10.5L31.5,2.8l0,16.7c0,0.1-0.1,0.2-0.1,0.2C31.4,19.8,31.3,19.8,31.2,19.8z"/>
<path fill="#969B93" d="M14,9.5c-0.4-0.4-1-0.4-1.4,0L1.7,19.1c-0.4,0.4-0.4,1,0,1.4c0.2,0.2,0.5,0.3,0.7,0.3s0.5-0.1,0.7-0.3
	L14,10.9C14.4,10.5,14.4,9.9,14,9.5z"/>
<path fill="#969B93" d="M20.1,9.4c-0.4,0.4-0.4,1,0,1.4l11,9.8c0.4,0.4,1,0.4,1.4,0c0.2-0.2,0.3-0.5,0.3-0.7s-0.1-0.5-0.3-0.7
	l-11-9.8C21.1,9,20.5,9,20.1,9.4z"/>
</svg>
