<?xml version="1.0" encoding="utf-8"?>
<!-- Generator: Adobe Illustrator 18.1.1, SVG Export Plug-In . SVG Version: 6.00 Build 0)  -->
<svg version="1.1" id="Layer_1" xmlns="http://www.w3.org/2000/svg" xmlns:xlink="http://www.w3.org/1999/xlink" x="0px" y="0px"
	 viewBox="0 0 72 72" enable-background="new 0 0 72 72" xml:space="preserve">
<g>
	<path fill="#272B24" d="M27.6,22.9c0,0,0.1,0,0.2,0c1.8,0,3.4-1.4,3.4-3.3c0-0.9-0.3-1.8-0.9-2.5c-0.6-0.7-1.5-1.1-2.4-1.1
		c0,0-0.1,0-0.2,0c-1.8,0-3.4,1.4-3.4,3.3c0,0.9,0.3,1.8,0.9,2.5C25.8,22.5,26.7,22.9,27.6,22.9z M27.8,17.5
		C27.8,17.5,27.8,17.5,27.8,17.5c1.1,0,1.9,1,1.9,2c0,1-0.9,1.9-1.9,1.9l-0.1,0c-0.5,0-1-0.2-1.4-0.6c-0.4-0.4-0.5-0.9-0.5-1.4
		C25.8,18.3,26.7,17.5,27.8,17.5z"/>
	<path fill="#272B24" d="M29.9,40.7C30,40.8,30,41,30,41.1l-0.3,5.6c0,0.4,0.3,0.8,0.7,0.8c0,0,0,0,0,0c0.4,0,0.7-0.3,0.7-0.7
		l0.3-5.6c0-0.5-0.2-1.1-0.6-1.6l-5.2-4.1c-0.3-0.3-0.5-0.8-0.5-1.3l0.2-5.8c0-1.1,0.9-2,1.9-2c0,0,0,0,0,0c0.5,0,1,0.2,1.4,0.6
		c0.4,0.4,0.6,0.9,0.6,1.6l0.8,5.4c0,0.2,0.1,0.4,0.3,0.5c0.2,0.1,0.4,0.2,0.6,0.1l5.2-1.3c0.4-0.1,0.6-0.5,0.5-0.9
		c-0.1-0.4-0.5-0.6-0.9-0.5L31.4,33l-0.6-4.5c0-0.9-0.3-1.9-1-2.5c-0.7-0.7-1.6-1.1-2.5-1c-1.8,0-3.3,1.5-3.4,3.4l-0.2,5.8
		c0,0.9,0.3,1.8,1,2.5L29.9,40.7z"/>
	<path fill="#272B24" d="M24.7,40.4l-4,12.3c-0.1,0.4,0.1,0.8,0.5,0.9c0.1,0,0.2,0,0.2,0c0.3,0,0.6-0.2,0.7-0.5l4-12.3
		c0.1-0.4-0.1-0.8-0.5-0.9C25.2,39.8,24.8,40,24.7,40.4z"/>
	<path fill="#272B24" d="M21.8,28.5c0.4-0.2,0.5-0.6,0.3-1c-0.2-0.4-0.6-0.5-1-0.3l-2.6,1.4c-0.2,0.1-0.3,0.3-0.4,0.5l-1.6,6.1
		c-0.1,0.4,0.1,0.8,0.5,0.9c0.1,0,0.1,0,0.2,0c0.3,0,0.6-0.2,0.7-0.6l1.5-5.8L21.8,28.5z"/>
	<path fill="#272B24" d="M55.3,40H44.1c-0.4,0-0.7,0.3-0.7,0.7V46h-6.7c-0.4,0-0.7,0.3-0.7,0.7v5.2h-6.7c-0.4,0-0.7,0.3-0.7,0.7v3.7
		h-9c-0.4,0-0.7,0.3-0.7,0.7s0.3,0.7,0.7,0.7h9.7c0.4,0,0.7-0.3,0.7-0.7v-3.7h6.7c0.4,0,0.7-0.3,0.7-0.7v-5.2h6.7
		c0.4,0,0.7-0.3,0.7-0.7v-5.2h10.5c0.4,0,0.7-0.3,0.7-0.7C56,40.3,55.7,40,55.3,40z"/>
</g>
</svg>
