<?xml version="1.0" encoding="utf-8"?>
<!-- Generator: Adobe Illustrator 18.1.1, SVG Export Plug-In . SVG Version: 6.00 Build 0)  -->
<svg version="1.1" id="Layer_1" xmlns="http://www.w3.org/2000/svg" xmlns:xlink="http://www.w3.org/1999/xlink" x="0px" y="0px"
	 viewBox="0 0 72 72" enable-background="new 0 0 72 72" xml:space="preserve">
<g>
	<path fill="#272B24" d="M46.3,33.5c0-5.6-4.7-10.2-10.4-10.2c-5.7,0-10.4,4.6-10.4,10.2c0,2.9,1.2,6.1,3.3,8.6c0,0,0,0,0,0.1
		c0.7,0.9,2.3,3.3,2.6,5.2c-0.3,0.1-0.5,0.3-0.5,0.7V55c0,0.4,0.3,0.7,0.7,0.7h1.5l1.2,1.2c0.1,0.1,0.3,0.2,0.5,0.2H37
		c0.2,0,0.4-0.1,0.5-0.2l1.2-1.2h1.5c0.4,0,0.7-0.3,0.7-0.7v-7.1c0-0.3-0.2-0.6-0.5-0.7c0.4-2.3,2.6-5.2,2.6-5.2
		C45,39.7,46.3,36.4,46.3,33.5z M39.5,54.3h-1.1c-0.2,0-0.4,0.1-0.5,0.2l-1.2,1.2h-1.6l-1.2-1.2c-0.1-0.1-0.3-0.2-0.5-0.2h-1.1v-5.7
		h7.1V54.3z M38.9,47.2h-2.3v-7.8c0.2,0.1,0.4,0.1,0.6,0.1c0.9,0,1.8-0.5,2.6-1.2c0.6-0.6,1-1.3,1.1-2c0.1-0.8-0.1-1.5-0.5-2
		c-0.9-0.9-2.8-0.6-4,0.7c-0.2,0.2-0.3,0.3-0.4,0.5c-0.1-0.2-0.3-0.3-0.4-0.5c-1.2-1.3-3.1-1.6-4-0.7c-1,0.9-0.7,2.7,0.5,4
		c0.7,0.8,1.7,1.2,2.6,1.2c0.2,0,0.4-0.1,0.6-0.1v7.8h-2.3c-0.4-2.5-2.4-5.4-2.9-5.9c0,0-0.1-0.1-0.1-0.1c-1.9-2.2-3-5.1-3-7.7
		c0-4.9,4-8.8,9-8.8c4.9,0,9,4,9,8.8c0,2.6-1.2,5.5-3,7.7C41.7,41.4,39.3,44.5,38.9,47.2z M37.3,36c0.5-0.5,1.1-0.8,1.5-0.8
		c0.2,0,0.3,0,0.4,0.1c0.2,0.2,0.2,0.6,0.1,0.7c-0.1,0.4-0.3,0.9-0.7,1.3c-0.8,0.9-1.7,0.9-2,0.7C36.4,37.6,36.6,36.7,37.3,36z
		 M35,38c-0.3,0.3-1.1,0.2-2-0.7c-0.7-0.8-0.9-1.7-0.6-2c0.1-0.1,0.2-0.1,0.4-0.1c0.4,0,1,0.2,1.5,0.8c0.4,0.4,0.6,0.9,0.7,1.3
		C35.2,37.4,35.2,37.8,35,38z"/>
</g>
<g>
	<g>
		<g>
			<path fill="#272B24" d="M43,23.1c-0.1,0-0.2,0-0.4-0.1c-0.3-0.2-0.4-0.6-0.2-1l2.5-4.3c0.2-0.3,0.6-0.4,1-0.2
				c0.3,0.2,0.4,0.6,0.2,1l-2.5,4.3C43.5,23,43.2,23.1,43,23.1z"/>
		</g>
		<g>
			<path fill="#272B24" d="M36,21.3c-0.4,0-0.7-0.3-0.7-0.7l0-5c0-0.4,0.3-0.7,0.7-0.7c0,0,0,0,0,0c0.4,0,0.7,0.3,0.7,0.7l0,5
				C36.7,21,36.4,21.3,36,21.3C36,21.3,36,21.3,36,21.3z"/>
		</g>
		<g>
			<path fill="#272B24" d="M47.6,28.2c-0.2,0-0.5-0.1-0.6-0.4c-0.2-0.3-0.1-0.8,0.3-1l4.3-2.5c0.3-0.2,0.8-0.1,1,0.3
				c0.2,0.3,0.1,0.8-0.3,1l-4.3,2.5C47.8,28.2,47.7,28.2,47.6,28.2z"/>
		</g>
	</g>
	<g>
		<path fill="#272B24" d="M29,23.1c-0.2,0-0.5-0.1-0.6-0.3l-2.5-4.3c-0.2-0.3-0.1-0.8,0.2-1c0.3-0.2,0.8-0.1,1,0.2l2.5,4.3
			c0.2,0.3,0.1,0.8-0.2,1C29.3,23.1,29.2,23.1,29,23.1z"/>
	</g>
	<g>
		<path fill="#272B24" d="M24.5,28.2c-0.1,0-0.2,0-0.4-0.1l-4.3-2.5c-0.3-0.2-0.5-0.6-0.3-1c0.2-0.3,0.6-0.5,1-0.3l4.3,2.5
			c0.3,0.2,0.5,0.6,0.3,1C24.9,28.1,24.7,28.2,24.5,28.2z"/>
	</g>
</g>
</svg>
