<?xml version="1.0" encoding="utf-8"?>
<!-- Generator: Adobe Illustrator 18.1.1, SVG Export Plug-In . SVG Version: 6.00 Build 0)  -->
<svg width="14" height="14" version="1.1" id="Layer_1" xmlns="http://www.w3.org/2000/svg" xmlns:xlink="http://www.w3.org/1999/xlink" x="0px" y="0px"
	 viewBox="0 0 31 30.8" enable-background="new 0 0 31 30.8" xml:space="preserve">
<g>
	<path fill="none" stroke="#969B93" stroke-width="2" stroke-linecap="round" stroke-linejoin="round" stroke-miterlimit="10" d="
		M29.4,24.2c-4.7-1.8-9.9-4-10.3-5.4v-1.5c1-1,1.7-2.4,2.2-4c1.1-0.8,1.4-2.3,0.5-3.4V6.7c0-3.4-1.9-5.7-6.2-5.7
		c-4.2,0-6.2,2.3-6.2,5.7v3.3c-0.9,1.1-0.6,2.7,0.5,3.4c0.5,1.6,1.2,3,2.2,4v1.5c-0.4,1.4-5.6,3.6-10.3,5.4c-0.4,0.2-0.7,0.5-0.7,1
		v3.6c0,0.6,0.5,1,1,1h27c0.6,0,1-0.5,1-1v-3.6C30,24.7,29.8,24.3,29.4,24.2z"/>
</g>
</svg>
