<?xml version="1.0" encoding="utf-8"?>
<!-- Generator: Adobe Illustrator 18.1.1, SVG Export Plug-In . SVG Version: 6.00 Build 0)  -->
<svg version="1.1" id="Layer_1" xmlns="http://www.w3.org/2000/svg" xmlns:xlink="http://www.w3.org/1999/xlink" x="0px" y="0px"
	 viewBox="0 0 72 72" enable-background="new 0 0 72 72" xml:space="preserve">
<g>
	<path fill="#272B24" d="M28.4,31.8v-1.6c0-0.5-0.3-0.9-0.7-1.1c-2.8-1.2-3.5-1.8-3.6-1.9v-0.2c0.3-0.4,0.6-1,0.8-1.6
		c0.5-0.5,0.6-1.4,0.3-2.1v-1.2c0-2-1.2-3.2-3.1-3.2c-1.9,0-3.1,1.2-3.1,3.2v1.2c-0.4,0.7-0.3,1.5,0.3,2.1c0.2,0.6,0.4,1.2,0.8,1.6
		v0.2c-0.2,0.2-0.9,0.7-3.6,1.9c-0.4,0.2-0.7,0.6-0.7,1.1v1.6c0,0.6,0.5,1.2,1.1,1.2h10.5C27.9,33,28.4,32.5,28.4,31.8z M27,31.6
		h-9.9v-1.2c3.3-1.4,4.1-2.1,4.2-2.8c0-0.1,0-0.1,0-0.2v-0.6c0-0.2-0.1-0.3-0.2-0.5c-0.3-0.4-0.5-0.9-0.7-1.5c0-0.2-0.1-0.3-0.2-0.4
		c-0.1-0.1-0.2-0.4,0-0.5c0.1-0.1,0.1-0.3,0.1-0.4v-1.4c0-1.2,0.6-1.8,1.7-1.8c0.7,0,1.7,0.2,1.7,1.8v1.4c0,0.1,0,0.3,0.1,0.4
		c0.1,0.2,0.1,0.4,0,0.5c-0.1,0.1-0.2,0.2-0.2,0.4c-0.1,0.6-0.4,1.1-0.7,1.5c-0.1,0.1-0.2,0.3-0.2,0.5v0.6c0,0.1,0,0.1,0,0.2
		c0.2,0.6,1,1.3,4.2,2.8V31.6z"/>
	<path fill="#272B24" d="M43.1,51.5c-2.8-1.2-3.5-1.8-3.6-1.9v-0.2c0.3-0.4,0.6-1,0.8-1.6c0.5-0.5,0.6-1.4,0.3-2.1v-1.2
		c0-2-1.2-3.2-3.1-3.2c-1.9,0-3.1,1.2-3.1,3.2v1.2c-0.4,0.7-0.3,1.5,0.3,2.1c0.2,0.6,0.4,1.2,0.8,1.6v0.2c-0.2,0.2-0.9,0.7-3.6,1.9
		c-0.4,0.2-0.7,0.6-0.7,1.1v1.6c0,0.6,0.5,1.2,1.1,1.2h10.5c0.6,0,1.1-0.5,1.1-1.2v-1.6C43.8,52.1,43.5,51.7,43.1,51.5z M42.4,54
		h-9.9v-1.2c3.3-1.4,4.1-2.1,4.2-2.8c0-0.1,0-0.1,0-0.2v-0.6c0-0.2-0.1-0.3-0.2-0.5c-0.3-0.4-0.5-0.9-0.7-1.5c0-0.2-0.1-0.3-0.2-0.4
		c-0.1-0.1-0.2-0.4,0-0.5c0.1-0.1,0.1-0.3,0.1-0.4v-1.4c0-1.2,0.6-1.8,1.7-1.8c0.7,0,1.7,0.2,1.7,1.8v1.4c0,0.1,0,0.3,0.1,0.4
		c0.1,0.2,0.1,0.4,0,0.5C39.1,47,39,47.1,39,47.3c-0.1,0.6-0.4,1.1-0.7,1.5c-0.1,0.1-0.2,0.3-0.2,0.5v0.6c0,0.1,0,0.1,0,0.2
		c0.2,0.6,1,1.3,4.2,2.8V54z"/>
	<path fill="#272B24" d="M57.1,29.2c-2.8-1.2-3.5-1.8-3.6-1.9v-0.2c0.3-0.4,0.6-1,0.8-1.6c0.5-0.5,0.6-1.4,0.3-2.1v-1.2
		c0-2-1.2-3.2-3.1-3.2c-1.9,0-3.1,1.2-3.1,3.2v1.2c-0.4,0.7-0.3,1.5,0.3,2.1c0.2,0.6,0.4,1.2,0.8,1.6v0.2c-0.2,0.2-0.9,0.7-3.6,1.9
		c-0.4,0.2-0.7,0.6-0.7,1.1v1.6c0,0.6,0.5,1.2,1.1,1.2h10.5c0.6,0,1.1-0.5,1.1-1.2v-1.6C57.8,29.8,57.5,29.4,57.1,29.2z M56.4,31.6
		h-9.9v-1.2c3.3-1.4,4.1-2.1,4.2-2.8c0-0.1,0-0.1,0-0.2v-0.6c0-0.2-0.1-0.3-0.2-0.5c-0.3-0.3-0.6-0.9-0.7-1.5c0-0.2-0.1-0.3-0.2-0.4
		c-0.1-0.1-0.2-0.4,0-0.5c0.1-0.1,0.1-0.3,0.1-0.4v-1.4c0-1.2,0.6-1.8,1.7-1.8c0.7,0,1.7,0.2,1.7,1.8v1.4c0,0.1,0,0.3,0.1,0.4
		c0.1,0.2,0.1,0.4,0,0.5c-0.1,0.1-0.2,0.2-0.2,0.4c-0.1,0.6-0.4,1.1-0.7,1.5c-0.1,0.1-0.2,0.3-0.2,0.5v0.6c0,0.1,0,0.1,0,0.2
		c0.2,0.6,1,1.3,4.2,2.8V31.6z"/>
	<path fill="#272B24" d="M45.1,20c0.2-0.3,0.1-0.8-0.3-1c-4.8-2.8-11.1-2.8-15.9,0c-0.3,0.2-0.4,0.6-0.3,1c0.1,0.2,0.4,0.3,0.6,0.3
		c0.1,0,0.2,0,0.4-0.1c4.4-2.6,10.1-2.6,14.5,0C44.5,20.4,44.9,20.3,45.1,20z"/>
	<path fill="#272B24" d="M52,35.1c-0.4,0-0.7,0.2-0.8,0.6c-0.5,4.2-2.8,8-6.4,10.4c-0.2,0.1-0.3,0.4-0.3,0.6c0,0.1,0,0.3,0.1,0.4
		c0.1,0.2,0.4,0.3,0.6,0.3c0.1,0,0.3,0,0.4-0.1c3.9-2.6,6.5-6.7,7-11.4c0,0,0-0.1,0-0.1C52.7,35.5,52.4,35.2,52,35.1z"/>
	<path fill="#272B24" d="M22.6,35.8c0-0.4-0.4-0.7-0.8-0.6c-0.4,0-0.6,0.3-0.6,0.7c0,0,0,0.1,0,0.1c0.5,4.6,3.1,8.8,7,11.4
		c0.1,0.1,0.3,0.1,0.4,0.1c0.2,0,0.4-0.1,0.6-0.3c0.1-0.1,0.1-0.3,0.1-0.4c0-0.2-0.1-0.4-0.3-0.6C25.4,43.8,23.1,40,22.6,35.8z"/>
</g>
</svg>
