<svg id="Layer_1" data-name="Layer 1" xmlns="http://www.w3.org/2000/svg" viewBox="0 0 28.57 27.14"><defs><style>.cls-1{fill:#f9a231;}</style></defs><title>LK_Icons_Stars_(100x100px)_3.0</title><path class="cls-1" d="M14.28,1.29l3,8.55.23.66h.69l9.11.19L20,16.17l-.56.42.2.67,2.64,8.66-7.48-5.18-.57-.39-.57.39L6.24,25.93l2.64-8.67.2-.67-.56-.42L1.26,10.7l9.11-.19h.69l.23-.66,3-8.55m0-1.29a.84.84,0,0,0-.81.58L10.35,9.51.84,9.71a.86.86,0,0,0-.5,1.55L7.92,17,5.17,26A.87.87,0,0,0,6,27.14.84.84,0,0,0,6.47,27l7.81-5.41L22.1,27a.84.84,0,0,0,.48.15A.86.86,0,0,0,23.4,26l-2.75-9,7.58-5.71a.86.86,0,0,0-.5-1.55l-9.51-.19L15.09.58A.84.84,0,0,0,14.29,0Z"/></svg>