<?xml version="1.0" encoding="utf-8"?>
<!-- Generator: Adobe Illustrator 18.1.1, SVG Export Plug-In . SVG Version: 6.00 Build 0)  -->
<svg version="1.1" id="Layer_1" xmlns="http://www.w3.org/2000/svg" xmlns:xlink="http://www.w3.org/1999/xlink" x="0px" y="0px"
	 viewBox="0 0 72 72" enable-background="new 0 0 72 72" xml:space="preserve">
<g>
	<path fill="#272B24" d="M35.4,26.4c-5.5,0-10,4.5-10,10c0,5.5,4.5,10,10,10c5.5,0,10-4.5,10-10C45.4,30.9,40.9,26.4,35.4,26.4z
		 M35.4,44.4c-4.4,0-8-3.6-8-8c0-4.4,3.6-8,8-8c4.4,0,8,3.6,8,8C43.4,40.9,39.8,44.4,35.4,44.4z"/>
	<path fill="#272B24" d="M60,36c-5.1-10-14.5-16.2-24.6-16.2S15.9,26,10.8,36c-0.1,0.3-0.1,0.6,0,0.9c5.1,10,14.5,16.2,24.6,16.2
		S54.9,46.9,60,36.9C60.2,36.6,60.2,36.3,60,36z M35.4,51.1c-9.2,0-17.8-5.6-22.6-14.6c4.8-9,13.4-14.6,22.6-14.6S53.2,27.4,58,36.4
		C53.2,45.5,44.6,51.1,35.4,51.1z"/>
</g>
</svg>
