<?xml version="1.0" encoding="utf-8"?>
<!-- Generator: Adobe Illustrator 18.1.1, SVG Export Plug-In . SVG Version: 6.00 Build 0)  -->
<svg version="1.1" id="Layer_1" xmlns="http://www.w3.org/2000/svg" xmlns:xlink="http://www.w3.org/1999/xlink" x="0px" y="0px"
	 viewBox="0 0 72 72" enable-background="new 0 0 72 72" xml:space="preserve">
<path fill="#272B24" d="M61.2,42.3c0-0.1,0-0.1-0.1-0.2L51.1,23.2c-0.1-0.2-2.6-4.8-6.2-4.8c0,0,0,0,0,0c-2.1,0-4,1.6-5.7,4.8
	c-0.2,0.4-0.1,1,0.4,1.2c0.4,0.2,1,0.1,1.2-0.4c0.9-1.8,2.3-3.9,4.1-3.9c0,0,0,0,0,0c2.1,0,4,2.8,4.6,3.9L57,38
	c-1.9-1-4.2-1.6-6.7-1.6c-4.6,0-8.6,2.1-10.5,5.1c-2.5-0.5-5.1-0.5-7.6,0.2c-1.8-3.1-5.8-5.3-10.6-5.3c-2.5,0-4.7,0.6-6.6,1.6
	l7.4-13.8c0.6-1.1,2.5-3.9,4.6-3.9c0,0,0,0,0,0c1.8,0,3.2,2.1,4.1,3.9c0.2,0.4,0.7,0.6,1.2,0.4c0.4-0.2,0.6-0.8,0.4-1.2
	c-1.6-3.2-3.5-4.8-5.6-4.8c0,0,0,0,0,0c-3.5,0-6.1,4.6-6.2,4.8l-9.8,18.3c-0.1,0.1-0.1,0.3-0.2,0.4l-0.1,0.2c0,0,0,0,0,0.1
	c-0.4,0.9-0.7,1.9-0.7,2.9c0,4.8,5.2,8.7,11.5,8.7s11.5-3.9,11.5-8.7c0-0.6-0.1-1.2-0.3-1.8c2-0.5,4.1-0.5,6.1-0.2
	c-0.2,0.6-0.3,1.3-0.3,2c0,4.8,5.2,8.7,11.5,8.7s11.5-3.9,11.5-8.7C61.9,44.1,61.6,43.2,61.2,42.3z M21.7,52.1c-5.4,0-9.8-3.1-9.8-7
	c0-0.7,0.2-1.4,0.4-2.1c0,0,0,0,0,0l0.4-0.8c1.5-2.4,4.9-4.1,8.9-4.1c5.4,0,9.8,3.1,9.8,7S27.1,52.1,21.7,52.1z M50.3,52.1
	c-5.4,0-9.8-3.1-9.8-7s4.4-7,9.8-7s9.8,3.1,9.8,7S55.7,52.1,50.3,52.1z"/>
</svg>
