<?xml version="1.0" encoding="utf-8"?>
<!-- Generator: Adobe Illustrator 18.1.1, SVG Export Plug-In . SVG Version: 6.00 Build 0)  -->
<svg version="1.1" id="Layer_1" xmlns="http://www.w3.org/2000/svg" xmlns:xlink="http://www.w3.org/1999/xlink" x="0px" y="0px"
	 viewBox="0 0 72 72" enable-background="new 0 0 72 72" xml:space="preserve">
<g>
	<path fill="#272B24" d="M37.3,48.6c-0.1,0-0.2,0-0.2,0l-2.2-8.5c0.8-0.3,1.5-0.9,2-1.6l1,0.6c0.1,0.1,0.2,0.1,0.3,0.1
		c0.2,0,0.5-0.1,0.6-0.3c0.2-0.3,0.1-0.8-0.3-0.9l-1-0.5c0.2-0.6,0.4-1.2,0.4-1.8c0-1.2-0.4-2.2-1.1-3.1l9.4-10
		c0.6,0.4,1.3,0.7,2.1,0.7c2.1,0,3.8-1.7,3.8-3.8c0-2.1-1.7-3.8-3.8-3.8c-2.1,0-3.8,1.7-3.8,3.8c0,0.8,0.3,1.5,0.7,2.2l-9.4,10
		c-0.8-0.6-1.8-0.9-2.9-0.9c-0.6,0-1.2,0.1-1.7,0.3l-0.5-1c-0.2-0.3-0.6-0.5-0.9-0.3c-0.3,0.2-0.5,0.6-0.3,0.9l0.5,1
		c-1.2,0.9-2,2.4-2,4c0,0.6,0.1,1.3,0.4,1.8l-2.5,1.5c0,0,0,0-0.1,0c0,0,0,0-0.1,0l-2.4,1.5c-0.5-0.5-1.2-0.9-2-0.9
		c-1.6,0-2.8,1.3-2.8,2.8c0,1.6,1.3,2.8,2.8,2.8c1.6,0,2.8-1.3,2.8-2.8c0-0.3,0-0.5-0.1-0.7l2.5-1.5c0,0,0,0,0.1-0.1c0,0,0,0,0.1,0
		l2.5-1.5c0.9,1.2,2.3,2,3.9,2c0.2,0,0.4,0,0.5-0.1l2.2,8.5c-1.3,0.6-2.2,1.9-2.2,3.4c0,2.1,1.7,3.8,3.8,3.8c2.1,0,3.8-1.7,3.8-3.8
		C41.1,50.3,39.4,48.6,37.3,48.6z M21.3,43.7c-0.8,0-1.4-0.6-1.4-1.4c0-0.8,0.6-1.4,1.4-1.4c0.8,0,1.4,0.6,1.4,1.4
		C22.8,43.1,22.1,43.7,21.3,43.7z M48.5,16.9c1.3,0,2.4,1.1,2.4,2.4c0,1.3-1.1,2.4-2.4,2.4c-0.6,0-1.2-0.2-1.6-0.6
		c0,0,0-0.1-0.1-0.1c0,0-0.1,0-0.1,0c-0.4-0.4-0.6-1-0.6-1.6C46,18,47.1,16.9,48.5,16.9z M29.4,35.5c0-2,1.6-3.6,3.6-3.6
		c2,0,3.6,1.6,3.6,3.6c0,2-1.6,3.6-3.6,3.6C31,39.1,29.4,37.5,29.4,35.5z M37.3,54.7c-1.3,0-2.4-1.1-2.4-2.4c0-1.3,1.1-2.4,2.4-2.4
		c1.3,0,2.4,1.1,2.4,2.4C39.7,53.7,38.6,54.7,37.3,54.7z"/>
	<path fill="#272B24" d="M51.7,43.3c-0.8,0-1.5,0.3-2,0.9l-1-0.6c-0.3-0.2-0.8-0.1-0.9,0.3c-0.2,0.3-0.1,0.8,0.3,0.9l1,0.6
		c-0.1,0.2-0.1,0.5-0.1,0.7c0,1.6,1.3,2.8,2.8,2.8c1.6,0,2.8-1.3,2.8-2.8C54.5,44.6,53.3,43.3,51.7,43.3z M51.7,47.6
		c-0.8,0-1.4-0.6-1.4-1.4c0-0.8,0.6-1.4,1.4-1.4c0.8,0,1.4,0.6,1.4,1.4C53.1,46.9,52.5,47.6,51.7,47.6z"/>
	<path fill="#272B24" d="M23.8,21.1c0.2,0,0.4,0,0.6-0.1l0.6,1c0.1,0.2,0.4,0.4,0.6,0.4c0.1,0,0.2,0,0.3-0.1
		c0.3-0.2,0.5-0.6,0.3-0.9l-0.5-1c0.6-0.5,1-1.3,1-2.1c0-1.6-1.3-2.8-2.8-2.8c-1.6,0-2.8,1.3-2.8,2.8C21,19.8,22.2,21.1,23.8,21.1z
		 M23.8,16.9c0.8,0,1.4,0.6,1.4,1.4c0,0.6-0.4,1.1-0.9,1.3h0l0,0c-0.2,0.1-0.4,0.1-0.6,0.1c-0.8,0-1.4-0.6-1.4-1.4
		C22.4,17.5,23,16.9,23.8,16.9z"/>
	<path fill="#272B24" d="M26.5,24.9l1.2,2.3c0.1,0.2,0.4,0.4,0.6,0.4c0.1,0,0.2,0,0.3-0.1c0.3-0.2,0.5-0.6,0.3-0.9l-1.2-2.3
		c-0.2-0.3-0.6-0.5-0.9-0.3C26.4,24.1,26.3,24.5,26.5,24.9z"/>
	<path fill="#272B24" d="M45.3,41.7l-2.7-1.5c-0.3-0.2-0.8-0.1-0.9,0.3c-0.2,0.3-0.1,0.8,0.3,0.9l2.7,1.5C44.8,43,44.9,43,45,43
		c0.2,0,0.5-0.1,0.6-0.3C45.8,42.4,45.7,41.9,45.3,41.7z"/>
</g>
</svg>
