<?xml version="1.0" standalone="no"?>
<!DOCTYPE svg PUBLIC "-//W3C//DTD SVG 20010904//EN"
 "http://www.w3.org/TR/2001/REC-SVG-20010904/DTD/svg10.dtd">
<svg version="1.0" xmlns="http://www.w3.org/2000/svg"
 width="1802.000000pt" height="1802.000000pt" viewBox="0 0 1802.000000 1802.000000"
 preserveAspectRatio="xMidYMid meet">
<metadata>
Created by potrace 1.11, written by Peter Selinger 2001-2013
</metadata>
<g transform="translate(0.000000,1802.000000) scale(0.100000,-0.100000)"
fill="#000000" stroke="none">
<path d="M8885 17948 c-135 -79 -122 -72 -345 -200 -91 -52 -253 -146 -360
-208 -107 -62 -215 -124 -240 -137 -25 -14 -65 -38 -90 -53 -25 -15 -184 -107
-355 -205 -170 -97 -327 -188 -347 -201 -21 -13 -40 -24 -42 -24 -3 0 -46 -25
-97 -55 -50 -30 -93 -55 -94 -55 -1 0 -80 -45 -175 -100 -94 -55 -174 -100
-176 -100 -2 0 -33 -17 -67 -39 -34 -21 -186 -110 -337 -196 -398 -229 -505
-290 -695 -400 -93 -54 -183 -106 -200 -115 -48 -28 -274 -159 -345 -200 -68
-40 -608 -352 -1040 -600 -279 -161 -592 -341 -910 -525 -113 -65 -225 -129
-250 -143 -25 -14 -49 -28 -55 -32 -5 -4 -118 -69 -250 -145 -132 -76 -253
-146 -270 -156 -16 -10 -46 -26 -65 -37 -19 -11 -134 -77 -255 -147 -121 -70
-234 -136 -251 -145 -194 -111 -332 -191 -347 -202 -17 -13 -18 -193 -20
-4516 -2 -3112 0 -4506 8 -4511 5 -4 35 -22 65 -38 30 -17 80 -45 110 -63 56
-33 91 -54 158 -91 42 -24 269 -156 322 -188 19 -11 53 -30 75 -42 22 -12 119
-68 215 -124 449 -262 700 -405 710 -405 5 0 10 -3 10 -7 0 -5 10 -13 23 -19
19 -9 688 -395 772 -445 17 -10 41 -24 55 -32 40 -22 79 -45 345 -199 138 -80
270 -156 295 -170 25 -14 169 -97 320 -185 151 -87 525 -304 830 -480 305
-176 571 -330 590 -342 19 -11 42 -24 50 -28 8 -4 55 -31 104 -60 49 -29 90
-53 92 -53 3 0 21 -11 42 -23 20 -13 57 -35 82 -49 25 -14 101 -58 170 -98 69
-40 145 -84 170 -98 25 -14 57 -33 72 -43 14 -11 28 -19 31 -19 3 0 83 -45
178 -101 95 -55 191 -111 213 -123 23 -13 57 -33 76 -44 19 -12 46 -27 60 -35
27 -14 521 -301 580 -336 19 -11 53 -30 75 -42 22 -12 65 -36 95 -54 132 -79
332 -195 336 -195 3 0 122 -70 154 -90 8 -6 22 -13 30 -17 8 -4 75 -42 149
-85 73 -43 135 -78 136 -78 2 0 43 23 92 51 48 28 106 61 128 74 22 12 128 73
235 135 107 62 283 163 390 225 107 62 240 138 295 170 246 143 414 240 465
268 30 17 83 48 118 69 34 21 64 38 67 38 2 0 45 25 95 55 50 30 92 55 94 55
2 0 55 30 117 66 308 179 369 214 378 214 5 0 11 4 13 8 2 4 26 21 53 36 82
46 112 64 539 310 225 130 411 236 413 236 3 0 17 8 31 19 15 10 47 30 72 43
25 14 88 50 140 80 443 255 576 332 585 338 6 4 30 19 55 32 25 14 88 50 140
80 52 30 187 108 300 173 113 65 248 143 300 173 52 30 109 62 125 72 17 9 89
51 160 92 72 42 146 85 165 96 119 68 536 308 706 407 44 25 86 50 94 55 8 6
26 16 40 23 14 7 57 31 95 53 72 43 116 68 195 112 25 13 52 30 60 36 8 6 35
22 60 36 25 13 54 28 65 34 11 6 22 14 25 17 3 4 29 19 59 35 30 16 61 34 70
39 9 6 64 37 121 70 58 33 114 65 125 72 11 7 26 15 34 19 7 4 117 67 243 141
126 73 234 133 239 133 5 0 9 10 9 23 3 169 1 4479 -2 4482 -2 3 -51 -23 -109
-56 -57 -33 -124 -72 -149 -86 -76 -43 -170 -97 -188 -108 -9 -5 -60 -35 -112
-65 -52 -30 -104 -60 -115 -67 -11 -7 -27 -15 -35 -20 -8 -4 -37 -20 -65 -36
-27 -17 -64 -38 -81 -47 -63 -36 -300 -174 -329 -192 -16 -10 -37 -21 -45 -25
-8 -4 -37 -20 -65 -36 -48 -29 -349 -202 -410 -237 -16 -10 -75 -43 -130 -75
-55 -32 -116 -67 -135 -78 -19 -11 -75 -43 -125 -72 -49 -29 -106 -62 -125
-73 -116 -66 -557 -320 -655 -377 -49 -29 -106 -62 -125 -72 -19 -11 -109 -63
-200 -115 -197 -114 -230 -133 -295 -170 -27 -16 -57 -33 -65 -38 -8 -6 -71
-42 -140 -81 -69 -40 -163 -94 -209 -120 -46 -27 -86 -49 -88 -49 -2 0 -20
-11 -41 -23 -20 -13 -201 -119 -402 -234 -201 -116 -381 -220 -400 -232 -19
-11 -41 -24 -49 -28 -8 -3 -64 -35 -125 -71 -61 -36 -131 -76 -156 -90 -25
-14 -57 -33 -72 -43 -14 -11 -30 -19 -35 -19 -5 0 -31 -15 -59 -32 -53 -34
-60 -39 -134 -80 -96 -54 -128 -72 -210 -121 -47 -27 -103 -60 -125 -72 -22
-12 -106 -60 -187 -107 -80 -47 -152 -88 -160 -92 -7 -3 -26 -14 -43 -25 -32
-19 -461 -267 -535 -309 -25 -14 -74 -42 -109 -64 -34 -21 -65 -38 -67 -38 -2
0 -27 -14 -56 -31 -29 -18 -66 -40 -83 -49 -16 -9 -106 -61 -200 -115 -93 -54
-183 -106 -200 -115 -16 -10 -127 -73 -245 -142 -118 -68 -312 -180 -430 -248
-118 -68 -255 -147 -305 -176 -49 -29 -252 -146 -450 -260 -198 -114 -414
-238 -480 -277 -66 -38 -140 -81 -165 -95 -63 -35 -418 -240 -750 -433 -107
-62 -224 -129 -260 -149 -36 -20 -152 -87 -258 -149 -106 -61 -207 -120 -225
-130 -56 -32 -427 -245 -554 -318 -112 -65 -121 -69 -125 -49 -2 11 -3 1504
-2 3316 1 1812 3 4842 4 6733 l2 3437 53 -29 c68 -37 437 -250 533 -308 40
-23 75 -43 78 -43 2 0 21 -11 42 -23 20 -13 172 -102 337 -197 165 -96 413
-239 550 -318 138 -80 268 -155 290 -167 22 -12 150 -87 285 -165 135 -78 263
-152 285 -164 22 -13 121 -70 220 -128 99 -57 200 -116 225 -130 25 -14 128
-74 230 -133 102 -59 203 -117 225 -130 22 -12 112 -64 200 -115 88 -51 174
-101 190 -110 56 -32 490 -283 640 -370 83 -48 166 -97 185 -107 145 -83 752
-434 853 -494 26 -16 49 -29 51 -29 3 0 40 -21 83 -46 43 -26 134 -79 203
-119 137 -79 567 -328 615 -355 17 -10 71 -41 120 -70 50 -29 110 -64 135 -78
25 -14 152 -88 284 -164 131 -76 240 -138 243 -138 3 0 17 -8 31 -19 15 -10
47 -29 72 -43 25 -14 132 -76 239 -138 107 -61 215 -123 240 -137 25 -14 53
-32 62 -39 8 -8 18 -14 22 -14 5 0 344 -192 387 -220 13 -8 199 -116 240 -140
8 -4 49 -29 91 -54 42 -25 80 -46 83 -46 4 0 23 -11 44 -23 33 -21 491 -288
582 -340 44 -25 188 -108 215 -124 11 -7 27 -16 35 -20 8 -4 58 -32 110 -63
52 -31 102 -59 110 -63 8 -4 29 -15 45 -26 17 -10 46 -27 65 -38 19 -11 181
-105 360 -209 345 -200 370 -214 550 -316 25 -14 167 -95 315 -180 149 -86
286 -165 305 -175 19 -11 99 -57 177 -102 77 -44 145 -81 150 -81 4 0 8 1009
8 2242 l0 2241 -465 268 c-256 148 -472 273 -480 279 -8 5 -31 18 -50 28 -19
10 -102 58 -185 106 -82 49 -168 98 -190 111 -22 12 -139 80 -260 150 -121 70
-233 135 -250 145 -16 9 -75 43 -130 75 -55 32 -120 69 -145 83 -25 14 -62 36
-82 49 -21 12 -40 23 -42 23 -3 0 -47 25 -98 56 -51 31 -122 72 -158 92 -36
19 -72 41 -81 48 -8 8 -19 14 -22 14 -4 0 -24 11 -45 23 -35 23 -71 43 -179
103 -27 15 -52 30 -58 34 -5 4 -27 17 -47 29 -57 32 -90 51 -253 146 -82 48
-179 103 -215 122 -36 20 -72 41 -80 47 -8 6 -24 16 -35 22 -65 35 -695 399
-717 415 -15 10 -30 19 -33 19 -3 0 -35 18 -71 40 -36 22 -67 40 -69 40 -2 0
-39 21 -82 47 -43 25 -94 55 -113 65 -19 10 -51 28 -70 39 -58 35 -602 350
-650 377 -25 14 -124 71 -220 127 -96 56 -281 163 -410 237 -129 75 -291 169
-360 208 -69 40 -138 81 -155 90 -274 158 -435 251 -503 291 -45 27 -85 49
-88 49 -4 0 -26 14 -51 30 -24 17 -46 30 -48 30 -3 0 -34 18 -70 40 -36 22
-67 40 -69 40 -2 0 -92 52 -201 115 -108 63 -200 115 -204 115 -3 0 -17 9 -31
20 -14 11 -29 19 -35 19 -5 0 -64 -32 -130 -71z"/>
</g>
</svg>
