<svg xmlns="http://www.w3.org/2000/svg" xmlns:xlink="http://www.w3.org/1999/xlink" viewBox="0 0 880 520"><defs><style>.cls-1,.cls-14,.cls-15,.cls-16,.cls-21,.cls-22,.cls-24,.cls-27,.cls-28,.cls-29,.cls-32,.cls-36,.cls-38,.cls-6,.cls-9{fill:none;}.cls-2{isolation:isolate;}.cls-3{clip-path:url(#clip-path);}.cls-10,.cls-18,.cls-20,.cls-23,.cls-4,.cls-8{fill:#fff;}.cls-11,.cls-17,.cls-25,.cls-5,.cls-7{fill:#ecf1e9;}.cls-10,.cls-11,.cls-12,.cls-15,.cls-16,.cls-17,.cls-18,.cls-19,.cls-23,.cls-24,.cls-25,.cls-26,.cls-27,.cls-28,.cls-6,.cls-7,.cls-8,.cls-9{stroke:#d3d7d0;}.cls-10,.cls-11,.cls-12,.cls-14,.cls-15,.cls-16,.cls-17,.cls-18,.cls-19,.cls-20,.cls-21,.cls-22,.cls-23,.cls-24,.cls-25,.cls-26,.cls-27,.cls-28,.cls-29,.cls-32,.cls-35,.cls-36,.cls-38,.cls-6,.cls-7,.cls-8,.cls-9{stroke-linecap:round;stroke-linejoin:round;}.cls-6{stroke-width:6.25px;}.cls-7{stroke-width:4.73px;}.cls-8,.cls-9{stroke-width:4.17px;}.cls-10,.cls-11,.cls-12,.cls-14,.cls-15{stroke-width:2.08px;}.cls-12,.cls-13,.cls-19,.cls-26,.cls-30{fill:#d3d7d0;}.cls-14,.cls-20,.cls-21,.cls-22{stroke:#fff;}.cls-15{stroke-dasharray:8.33 12.5;}.cls-16{stroke-width:1.5px;}.cls-17{stroke-width:1.14px;}.cls-22,.cls-23,.cls-25,.cls-26,.cls-27,.cls-28{stroke-width:0.5px;}.cls-27{stroke-dasharray:2 3;}.cls-29,.cls-32{stroke:#627f3a;}.cls-29{stroke-width:2px;}.cls-30{mix-blend-mode:multiply;}.cls-31{fill:#8dc03e;}.cls-32,.cls-35,.cls-36,.cls-38{stroke-width:2.31px;}.cls-33{fill:#627f3a;}.cls-34{clip-path:url(#clip-path-2);}.cls-35{fill:#3e423b;stroke:#3e423b;}.cls-36{stroke:#8dc03e;}.cls-37{fill:#ddc621;}.cls-38{stroke:#ecf1e9;}</style><clipPath id="clip-path"><circle class="cls-1" cx="613.66" cy="233.57" r="215.3"/></clipPath><clipPath id="clip-path-2"><path class="cls-1" d="M570.1,194.39H386.31a1.31,1.31,0,0,0-.13.55V197h11.93a1.33,1.33,0,0,1,0,2.65H386.18v2.65h1.33a1.33,1.33,0,0,1,0,2.65h-1.33v2.65h9.28a1.33,1.33,0,0,1,0,2.65h-9.28V213h1.33a1.33,1.33,0,0,1,0,2.65h-1.33v2.65h4a1.33,1.33,0,0,1,0,2.65h-4v2.65h6.63a1.33,1.33,0,0,1,0,2.65h-6.63v2.65h1.33a1.33,1.33,0,0,1,0,2.65h-1.33v2.65h4a1.33,1.33,0,0,1,0,2.65h-4v2.65h6.63a1.33,1.33,0,0,1,0,2.65h-6.63v2.65h9.28a1.33,1.33,0,0,1,0,2.65h-9.28v2.65h6.63a1.33,1.33,0,0,1,0,2.65h-6.63v2.65h1.33a1.33,1.33,0,0,1,0,2.65h-1.33v2.65h9.28a1.33,1.33,0,0,1,0,2.65h-9.28V266h6.63a1.33,1.33,0,0,1,0,2.65h-6.63v2.65h4a1.33,1.33,0,0,1,0,2.65h-4v2.65h1.33a1.33,1.33,0,0,1,0,2.65h-1.33v2.65h1.33a1.33,1.33,0,0,1,0,2.65h-1.33v2.65h4a1.33,1.33,0,0,1,0,2.65h-4v2.65h1.33a1.33,1.33,0,0,1,0,2.65h-1.33v2.65h6.63a1.33,1.33,0,0,1,0,2.65h-6.63v1.33a1.33,1.33,0,0,0,1.33,1.33H570.1a1.33,1.33,0,0,0,1.33-1.33V194.94C571.43,194.2,570.83,193.61,570.1,194.39Z"/></clipPath></defs><title>LKArtboard 5.1</title><g class="cls-2"><g id="Artwork"><g class="cls-3"><rect class="cls-4" x="-1217.07" y="-456.82" width="1975.31" height="1146.78"/><path class="cls-4" d="M766.86-560.33H-1225.7a86.25,86.25,0,0,0-86.25,86.25V776.2H853.11V-474.08A86.25,86.25,0,0,0,766.86-560.33ZM758.24,690H-1217.08V-456.82H758.24Z"/><path class="cls-5" d="M790.82-536.37H-1201.74A86.25,86.25,0,0,0-1288-450.12V776.2H853.11V-474.08a85.82,85.82,0,0,0-14.48-47.81A85.82,85.82,0,0,0,790.82-536.37ZM777.4,709.12H-1197.91L-1217.07,690V-456.82H758.24l19.17,19.17Z"/><path class="cls-6" d="M766.86-560.33H-1225.7a86.25,86.25,0,0,0-86.25,86.25V776.2H853.11V-474.08A86.25,86.25,0,0,0,766.86-560.33ZM758.24,690H-1217.08V-456.82H758.24Z"/><rect class="cls-7" x="-1217.07" y="-456.82" width="1975.31" height="1146.78"/><rect class="cls-8" x="-1199.11" y="-258.01" width="1939.37" height="930"/><rect class="cls-8" x="-657.17" y="-195.26" width="669.91" height="848.57"/><rect class="cls-8" x="-657.17" y="108.32" width="669.91" height="40.39"/><rect class="cls-8" x="-657.17" y="372.58" width="669.91" height="40.39"/><rect class="cls-9" x="-657.17" y="-195.26" width="669.91" height="848.57"/><rect class="cls-8" x="31.96" y="-195.26" width="450.07" height="848.57"/><rect class="cls-8" x="31.96" y="108.32" width="450.07" height="40.39"/><rect class="cls-8" x="31.96" y="372.58" width="450.07" height="40.39"/><line class="cls-10" x1="208.21" y1="128.51" x2="305.77" y2="128.51"/><line class="cls-10" x1="208.21" y1="392.62" x2="305.77" y2="392.62"/><rect class="cls-9" x="31.96" y="-195.26" width="450.07" height="848.57"/><rect class="cls-8" x="501.24" y="-195.69" width="225.33" height="849"/><rect class="cls-8" x="501.24" y="108.32" width="225.33" height="40.39"/><rect class="cls-8" x="501.24" y="372.58" width="225.33" height="40.39"/><rect class="cls-9" x="501.24" y="-195.69" width="225.33" height="849"/><rect class="cls-8" x="-1126.45" y="68.57" width="1853.02" height="39.75"/><rect class="cls-8" x="-1126.45" y="332.84" width="1853.02" height="39.75"/><rect class="cls-11" x="518.88" y="432.03" width="187.43" height="135.2"/><rect class="cls-12" x="518.88" y="432.03" width="187.43" height="26.31"/><line class="cls-10" x1="536.83" y1="479.18" x2="645.2" y2="479.18"/><line class="cls-10" x1="536.83" y1="493.7" x2="608.09" y2="493.7"/><rect class="cls-10" x="686.06" y="444.76" width="40.51" height="40.5"/><path class="cls-12" d="M691.68,482.8c2.47-1.45,12.34-3.73,12.58-4.77v-5a10.18,10.18,0,0,1-1.47-3.79,2.89,2.89,0,0,1-.31-3.27v-3.12c0-3.22,1.35-5.42,4.18-5.42s4.18,2.2,4.18,5.42V466a2.89,2.89,0,0,1-.31,3.27,10.21,10.21,0,0,1-1.47,3.79v5c.23,1,9.84,3.21,12.28,4.64Z"/><rect class="cls-11" x="50.85" y="-97.11" width="187.43" height="135.2"/><line class="cls-10" x1="98.13" y1="8.93" x2="114.24" y2="8.93"/><line class="cls-10" x1="98.13" y1="23.45" x2="154.58" y2="23.45"/><rect class="cls-4" x="64.8" y="7.89" width="17.13" height="16.61" rx="1.04" ry="1.04"/><path class="cls-13" d="M80.88,8.93V23.45h-15V8.93h15m0-2.08h-15a2.08,2.08,0,0,0-2.08,2.08V23.45a2.08,2.08,0,0,0,2.08,2.08h15A2.08,2.08,0,0,0,83,23.45V8.93a2.08,2.08,0,0,0-2.08-2.08Z"/><rect class="cls-10" x="171.86" y="30.71" width="30.73" height="22.85"/><line class="cls-10" x1="183" y1="44.55" x2="191.44" y2="44.55"/><rect class="cls-12" x="171.86" y="23.21" width="30.73" height="7.5"/><line class="cls-14" x1="180.73" y1="20.37" x2="180.73" y2="26.05"/><line class="cls-14" x1="193.71" y1="20.37" x2="193.71" y2="26.05"/><polygon class="cls-10" points="227.15 27.49 231.43 23.21 238.68 20.86 245.9 28.08 243.55 35.33 239.27 39.61 227.15 27.49"/><rect class="cls-12" x="214.25" y="32.83" width="22.22" height="17.14" transform="translate(36.73 171.48) rotate(-45)"/><circle class="cls-10" cx="237.68" cy="29.08" r="1.04" transform="translate(49.05 176.58) rotate(-45)"/><rect class="cls-11" x="274.34" y="-97.11" width="187.43" height="135.2"/><line class="cls-10" x1="321.63" y1="8.93" x2="337.74" y2="8.93"/><line class="cls-10" x1="321.63" y1="23.45" x2="378.07" y2="23.45"/><rect class="cls-4" x="288.29" y="7.89" width="17.13" height="16.61" rx="1.04" ry="1.04"/><path class="cls-13" d="M304.38,8.93V23.45h-15V8.93h15m0-2.08h-15a2.08,2.08,0,0,0-2.08,2.08V23.45a2.08,2.08,0,0,0,2.08,2.08h15a2.08,2.08,0,0,0,2.08-2.08V8.93a2.08,2.08,0,0,0-2.08-2.08Z"/><rect class="cls-10" x="426.16" y="29.38" width="30.73" height="22.85"/><line class="cls-10" x1="437.3" y1="43.22" x2="445.74" y2="43.22"/><rect class="cls-12" x="426.16" y="21.87" width="30.73" height="7.5"/><line class="cls-14" x1="435.03" y1="19.03" x2="435.03" y2="24.72"/><line class="cls-14" x1="448.01" y1="19.03" x2="448.01" y2="24.72"/><rect class="cls-15" x="274.34" y="167.76" width="187.43" height="135.2"/><rect class="cls-15" x="518.88" y="167.76" width="187.43" height="135.2"/><rect class="cls-11" x="50.85" y="167.76" width="187.43" height="135.2"/><rect class="cls-12" x="50.85" y="167.76" width="187.43" height="26.31"/><line class="cls-10" x1="98.13" y1="273.8" x2="114.24" y2="273.8"/><line class="cls-10" x1="98.13" y1="288.33" x2="154.58" y2="288.33"/><line class="cls-10" x1="68.8" y1="214.91" x2="177.17" y2="214.91"/><line class="cls-10" x1="68.8" y1="229.43" x2="140.06" y2="229.43"/><rect class="cls-4" x="64.8" y="272.76" width="17.13" height="16.61" rx="1.04" ry="1.04"/><path class="cls-13" d="M80.88,273.8v14.52h-15V273.8h15m0-2.08h-15a2.08,2.08,0,0,0-2.08,2.08v14.52a2.08,2.08,0,0,0,2.08,2.08h15A2.08,2.08,0,0,0,83,288.33V273.8a2.08,2.08,0,0,0-2.08-2.08Z"/><rect class="cls-10" x="218.03" y="180.49" width="40.51" height="40.5"/><path class="cls-12" d="M223.64,218.54c2.47-1.45,12.34-3.73,12.58-4.77v-5a10.18,10.18,0,0,1-1.47-3.79,2.89,2.89,0,0,1-.31-3.27v-3.12c0-3.22,1.35-5.42,4.18-5.42s4.18,2.2,4.18,5.42v3.12a2.89,2.89,0,0,1-.31,3.27,10.21,10.21,0,0,1-1.47,3.79v5c.23,1,9.84,3.21,12.28,4.64Z"/><rect class="cls-10" x="202.67" y="294.25" width="30.73" height="22.85"/><line class="cls-10" x1="213.81" y1="308.09" x2="222.25" y2="308.09"/><rect class="cls-12" x="202.67" y="286.75" width="30.73" height="7.5"/><line class="cls-14" x1="211.54" y1="283.9" x2="211.54" y2="289.59"/><line class="cls-14" x1="224.52" y1="283.9" x2="224.52" y2="289.59"/><rect class="cls-4" x="308.79" y="159.91" width="265.26" height="151.46"/></g><line class="cls-16" x1="-102.5" y1="485.06" x2="130.58" y2="485.06"/><line class="cls-16" x1="142.61" y1="485.06" x2="147.51" y2="485.06"/><line class="cls-16" x1="110.35" y1="464.93" x2="166.02" y2="464.93"/><line class="cls-16" x1="222.74" y1="464.93" x2="229.47" y2="464.93"/><line class="cls-16" x1="188.01" y1="464.93" x2="207.08" y2="464.93"/><line class="cls-16" x1="45.91" y1="505.2" x2="-9.75" y2="505.2"/><line class="cls-16" x1="55.09" y1="505.2" x2="59.4" y2="505.2"/><path class="cls-4" d="M91.7,480.49,72.17,460.94a15.11,15.11,0,0,1-3.8-11l7.44-62.57A5.61,5.61,0,0,0,70.12,381H-42.06a5.61,5.61,0,0,0-5.69,6.41L-40.31,450h0a15.11,15.11,0,0,1-3.8,11l-19.53,19.55c-2.51,2.52-1.66,4.57,1.89,4.57H89.8C93.35,485.06,94.21,483,91.7,480.49Z"/><polygon class="cls-5" points="-42.91 427.29 70.49 433.02 73.22 410.04 -44.96 410.04 -42.91 427.29"/><path class="cls-16" d="M91.7,480.49,72.17,460.94a15.11,15.11,0,0,1-3.8-11l7.44-62.57A5.61,5.61,0,0,0,70.12,381H-42.06a5.61,5.61,0,0,0-5.69,6.41L-40.31,450h0a15.11,15.11,0,0,1-3.8,11l-19.53,19.55c-2.51,2.52-1.66,4.57,1.89,4.57H89.8C93.35,485.06,94.21,483,91.7,480.49Z"/><line class="cls-16" x1="-44.11" y1="460.94" x2="49.91" y2="460.94"/><rect class="cls-4" x="-223.26" y="67.87" width="474.07" height="275.23"/><path class="cls-4" d="M252.89,410H-225.33a20.7,20.7,0,0,1-20.7-20.7V363.8H273.59v25.54A20.7,20.7,0,0,1,252.89,410Z"/><path class="cls-5" d="M273.59,389.34V367.25H-240.28v25.54A20.64,20.64,0,0,0-233,408.57a20.61,20.61,0,0,0,7.63,1.47H252.89A20.7,20.7,0,0,0,273.59,389.34Z"/><line class="cls-16" x1="-7.04" y1="386.92" x2="34.6" y2="386.92"/><path class="cls-4" d="M252.89,43H-225.33A20.7,20.7,0,0,0-246,63.73V363.8H273.59V63.73A20.7,20.7,0,0,0,252.89,43ZM250.82,343.1H-223.26V67.87H250.82Z"/><path class="cls-5" d="M258.64,48.78H-219.58a20.7,20.7,0,0,0-20.7,20.7V363.8H273.59V63.73a20.6,20.6,0,0,0-3.48-11.47A20.6,20.6,0,0,0,258.64,48.78ZM255.42,347.7H-218.66l-4.6-4.6V67.87H250.82l4.6,4.6Z"/><path class="cls-16" d="M252.89,43H-225.33A20.7,20.7,0,0,0-246,63.73V363.8H273.59V63.73A20.7,20.7,0,0,0,252.89,43ZM250.82,343.1H-223.26V67.87H250.82Z"/><path class="cls-16" d="M252.89,410H-225.33a20.7,20.7,0,0,1-20.7-20.7V363.8H273.59v25.54A20.7,20.7,0,0,1,252.89,410Z"/><rect class="cls-17" x="-223.26" y="67.87" width="474.07" height="275.23"/><rect class="cls-18" x="-218.94" y="115.59" width="465.45" height="223.2"/><rect class="cls-19" x="-218.94" y="100.22" width="465.45" height="15.37"/><rect class="cls-20" x="129.2" y="105.51" width="4.78" height="4.78"/><circle class="cls-20" cx="166.59" cy="107.9" r="2.39"/><circle class="cls-21" cx="238.18" cy="107.9" r="3.98"/><circle class="cls-20" cx="214.85" cy="107.9" r="2.39"/><circle class="cls-20" cx="201.59" cy="107.9" r="2.39"/><circle class="cls-20" cx="188.33" cy="107.9" r="2.39"/><line class="cls-22" x1="225.72" y1="104.72" x2="225.72" y2="111.09"/><rect class="cls-20" x="150.94" y="105.51" width="4.78" height="4.78"/><line class="cls-22" x1="177.46" y1="104.72" x2="177.46" y2="111.09"/><rect class="cls-20" x="115.94" y="105.51" width="4.78" height="4.78"/><line class="cls-22" x1="142.45" y1="104.72" x2="142.45" y2="111.09"/><rect class="cls-18" x="-88.88" y="130.65" width="160.78" height="203.66"/><rect class="cls-18" x="-88.88" y="203.51" width="160.78" height="9.69"/><rect class="cls-18" x="-88.88" y="266.93" width="160.78" height="9.69"/><rect class="cls-18" x="-88.88" y="140.08" width="160.78" height="9.69"/><line class="cls-23" x1="-20.2" y1="144.93" x2="3.22" y2="144.93"/><line class="cls-23" x1="-20.2" y1="208.35" x2="3.22" y2="208.35"/><line class="cls-23" x1="-20.2" y1="271.74" x2="3.22" y2="271.74"/><rect class="cls-23" x="63.28" y="141.86" width="6.13" height="6.13"/><line class="cls-23" x1="65.7" y1="144.93" x2="66.98" y2="144.93"/><rect class="cls-24" x="-88.88" y="130.65" width="160.78" height="203.66"/><rect class="cls-18" x="76.51" y="130.65" width="108.02" height="203.66"/><rect class="cls-18" x="76.51" y="203.51" width="108.02" height="9.69"/><rect class="cls-18" x="76.51" y="266.93" width="108.02" height="9.69"/><rect class="cls-18" x="76.51" y="140.08" width="108.02" height="9.69"/><line class="cls-23" x1="118.81" y1="144.93" x2="142.23" y2="144.93"/><line class="cls-23" x1="118.81" y1="208.35" x2="142.23" y2="208.35"/><line class="cls-23" x1="118.81" y1="271.74" x2="142.23" y2="271.74"/><rect class="cls-23" x="175.9" y="141.86" width="6.13" height="6.13"/><line class="cls-23" x1="178.33" y1="144.93" x2="179.61" y2="144.93"/><rect class="cls-24" x="76.51" y="130.65" width="108.02" height="203.66"/><rect class="cls-18" x="189.14" y="140.08" width="54.08" height="9.69"/><line class="cls-18" x1="209.69" y1="144.93" x2="222.57" y2="144.93"/><rect class="cls-18" x="189.14" y="130.54" width="54.08" height="203.76"/><rect class="cls-18" x="189.14" y="140.08" width="54.08" height="9.69"/><line class="cls-23" x1="209.69" y1="144.93" x2="222.57" y2="144.93"/><rect class="cls-18" x="189.14" y="203.51" width="54.08" height="9.69"/><line class="cls-23" x1="209.69" y1="208.35" x2="222.57" y2="208.35"/><rect class="cls-18" x="189.14" y="266.93" width="54.08" height="9.69"/><line class="cls-23" x1="209.69" y1="271.78" x2="222.57" y2="271.78"/><rect class="cls-24" x="189.14" y="130.54" width="54.08" height="203.76"/><rect class="cls-18" x="-201.51" y="130.54" width="444.72" height="9.54"/><line class="cls-23" x1="-26.45" y1="135.03" x2="9.47" y2="135.03"/><rect class="cls-18" x="-201.51" y="193.97" width="444.72" height="9.54"/><line class="cls-23" x1="-26.45" y1="198.45" x2="9.47" y2="198.45"/><rect class="cls-18" x="-201.51" y="257.39" width="444.72" height="9.54"/><line class="cls-23" x1="-26.45" y1="261.88" x2="9.47" y2="261.88"/><rect class="cls-25" x="193.37" y="281.2" width="44.98" height="32.45"/><rect class="cls-26" x="193.37" y="281.2" width="44.98" height="6.32"/><line class="cls-23" x1="204.72" y1="306.65" x2="208.59" y2="306.65"/><line class="cls-23" x1="204.72" y1="310.13" x2="218.27" y2="310.13"/><line class="cls-23" x1="197.68" y1="292.51" x2="223.69" y2="292.51"/><line class="cls-23" x1="197.68" y1="296" x2="214.78" y2="296"/><rect class="cls-4" x="196.72" y="306.4" width="4.11" height="3.99" rx="0.25" ry="0.25"/><path class="cls-13" d="M200.58,306.65v3.49H197v-3.49h3.61m0-.5H197a.5.5,0,0,0-.5.5v3.49a.5.5,0,0,0,.5.5h3.61a.5.5,0,0,0,.5-.5v-3.49a.5.5,0,0,0-.5-.5Z"/><rect class="cls-23" x="233.5" y="284.25" width="9.72" height="9.72"/><path class="cls-26" d="M234.84,293.38c.59-.35,3-.89,3-1.15V291a2.44,2.44,0,0,1-.35-.91.69.69,0,0,1-.07-.78v-.75c0-.77.32-1.3,1-1.3s1,.53,1,1.3v.75a.69.69,0,0,1-.07.78,2.45,2.45,0,0,1-.35.91v1.19c.06.25,2.36.8,2.95,1.15Z"/><polygon class="cls-23" points="233.95 310.82 234.97 309.8 236.71 309.23 238.45 310.97 237.88 312.71 236.85 313.73 233.95 310.82"/><rect class="cls-26" x="230.85" y="312.11" width="5.33" height="4.11" transform="translate(-153.75 257.14) rotate(-45)"/><circle class="cls-23" cx="236.47" cy="311.21" r="0.25" transform="translate(-150.8 258.36) rotate(-45)"/><rect class="cls-25" x="81.04" y="154.2" width="44.98" height="32.45"/><rect class="cls-26" x="81.04" y="154.2" width="44.98" height="6.32"/><line class="cls-23" x1="92.39" y1="179.65" x2="96.26" y2="179.65"/><line class="cls-23" x1="92.39" y1="183.14" x2="105.94" y2="183.14"/><line class="cls-23" x1="85.35" y1="165.52" x2="111.36" y2="165.52"/><line class="cls-23" x1="85.35" y1="169" x2="102.45" y2="169"/><rect class="cls-4" x="84.39" y="179.4" width="4.11" height="3.99" rx="0.25" ry="0.25"/><path class="cls-13" d="M88.25,179.65v3.49H84.64v-3.49h3.61m0-.5H84.64a.5.5,0,0,0-.5.5v3.49a.5.5,0,0,0,.5.5h3.61a.5.5,0,0,0,.5-.5v-3.49a.5.5,0,0,0-.5-.5Z"/><rect class="cls-23" x="121.17" y="157.26" width="9.72" height="9.72"/><path class="cls-26" d="M122.52,166.39c.59-.35,3-.89,3-1.15v-1.19a2.44,2.44,0,0,1-.35-.91.69.69,0,0,1-.07-.78v-.75c0-.77.32-1.3,1-1.3s1,.53,1,1.3v.75a.69.69,0,0,1-.07.78,2.45,2.45,0,0,1-.35.91v1.19c.06.25,2.36.8,2.95,1.15Z"/><rect class="cls-23" x="121.17" y="169" width="9.72" height="9.72"/><path class="cls-26" d="M122.52,178.14c.59-.35,3-.89,3-1.15V175.8a2.44,2.44,0,0,1-.35-.91.69.69,0,0,1-.07-.78v-.75c0-.77.32-1.3,1-1.3s1,.53,1,1.3v.75a.69.69,0,0,1-.07.78,2.45,2.45,0,0,1-.35.91V177c.06.25,2.36.8,2.95,1.15Z"/><rect class="cls-23" x="110.09" y="184.88" width="7.37" height="5.48"/><line class="cls-23" x1="112.76" y1="188.2" x2="114.79" y2="188.2"/><rect class="cls-26" x="110.09" y="183.08" width="7.37" height="1.8"/><line class="cls-22" x1="112.22" y1="182.4" x2="112.22" y2="183.76"/><line class="cls-22" x1="115.33" y1="182.4" x2="115.33" y2="183.76"/><polygon class="cls-23" points="123.36 184.11 124.38 183.08 126.12 182.52 127.86 184.25 127.29 185.99 126.27 187.02 123.36 184.11"/><rect class="cls-26" x="120.26" y="185.39" width="5.33" height="4.11" transform="translate(-96.54 141.82) rotate(-45)"/><circle class="cls-23" cx="125.88" cy="184.49" r="0.25" transform="translate(-93.58 143.05) rotate(-45)"/><rect class="cls-25" x="134.68" y="154.2" width="44.98" height="32.45"/><rect class="cls-26" x="134.68" y="154.2" width="44.98" height="6.32"/><line class="cls-23" x1="146.03" y1="179.65" x2="149.9" y2="179.65"/><line class="cls-23" x1="146.03" y1="183.14" x2="159.58" y2="183.14"/><line class="cls-23" x1="138.99" y1="165.52" x2="165" y2="165.52"/><line class="cls-23" x1="138.99" y1="169" x2="156.09" y2="169"/><rect class="cls-4" x="138.03" y="179.4" width="4.11" height="3.99" rx="0.25" ry="0.25"/><path class="cls-13" d="M141.89,179.65v3.49h-3.61v-3.49h3.61m0-.5h-3.61a.5.5,0,0,0-.5.5v3.49a.5.5,0,0,0,.5.5h3.61a.5.5,0,0,0,.5-.5v-3.49a.5.5,0,0,0-.5-.5Z"/><rect class="cls-23" x="174.81" y="157.26" width="9.72" height="9.72"/><path class="cls-26" d="M176.15,166.39c.59-.35,3-.89,3-1.15v-1.19a2.44,2.44,0,0,1-.35-.91.69.69,0,0,1-.07-.78v-.75c0-.77.32-1.3,1-1.3s1,.53,1,1.3v.75a.69.69,0,0,1-.07.78,2.45,2.45,0,0,1-.35.91v1.19c.06.25,2.36.8,2.95,1.15Z"/><rect class="cls-23" x="171.12" y="184.56" width="7.37" height="5.48"/><line class="cls-23" x1="173.79" y1="187.88" x2="175.82" y2="187.88"/><rect class="cls-26" x="171.12" y="182.76" width="7.37" height="1.8"/><line class="cls-22" x1="173.25" y1="182.08" x2="173.25" y2="183.44"/><line class="cls-22" x1="176.36" y1="182.08" x2="176.36" y2="183.44"/><rect class="cls-27" x="193.37" y="217.77" width="44.98" height="32.45"/><rect class="cls-25" x="81.04" y="217.77" width="44.98" height="32.45"/><rect class="cls-26" x="81.04" y="217.77" width="44.98" height="6.32"/><line class="cls-23" x1="92.39" y1="243.22" x2="96.26" y2="243.22"/><line class="cls-23" x1="92.39" y1="246.71" x2="105.94" y2="246.71"/><line class="cls-23" x1="85.35" y1="229.09" x2="111.36" y2="229.09"/><line class="cls-23" x1="85.35" y1="232.57" x2="102.45" y2="232.57"/><rect class="cls-4" x="84.39" y="242.97" width="4.11" height="3.99" rx="0.25" ry="0.25"/><path class="cls-13" d="M88.25,243.22v3.49H84.64v-3.49h3.61m0-.5H84.64a.5.5,0,0,0-.5.5v3.49a.5.5,0,0,0,.5.5h3.61a.5.5,0,0,0,.5-.5v-3.49a.5.5,0,0,0-.5-.5Z"/><rect class="cls-23" x="121.17" y="220.83" width="9.72" height="9.72"/><path class="cls-26" d="M122.52,230c.59-.35,3-.89,3-1.15v-1.19a2.44,2.44,0,0,1-.35-.91.69.69,0,0,1-.07-.78v-.75c0-.77.32-1.3,1-1.3s1,.53,1,1.3v.75a.69.69,0,0,1-.07.78,2.45,2.45,0,0,1-.35.91v1.19c.06.25,2.36.8,2.95,1.15Z"/><rect class="cls-23" x="117.48" y="248.13" width="7.37" height="5.48"/><line class="cls-23" x1="120.15" y1="251.45" x2="122.18" y2="251.45"/><rect class="cls-26" x="117.48" y="246.33" width="7.37" height="1.8"/><line class="cls-22" x1="119.61" y1="245.65" x2="119.61" y2="247.01"/><line class="cls-22" x1="122.73" y1="245.65" x2="122.73" y2="247.01"/><rect class="cls-18" x="-201.51" y="121.01" width="444.72" height="9.54"/><line class="cls-23" x1="-45.03" y1="125.77" x2="28.05" y2="125.77"/><rect class="cls-25" x="-30.99" y="154.2" width="44.98" height="32.45"/><rect class="cls-26" x="-30.99" y="154.2" width="44.98" height="6.32"/><rect class="cls-23" x="9.13" y="157.26" width="9.72" height="9.72"/><path class="cls-26" d="M10.48,166.39c.59-.35,3-.89,3-1.15v-1.19a2.44,2.44,0,0,1-.35-.91.69.69,0,0,1-.07-.78v-.75c0-.77.32-1.3,1-1.3s1,.53,1,1.3v.75a.69.69,0,0,1-.07.78,2.45,2.45,0,0,1-.35.91v1.19c.06.25,2.36.8,2.95,1.15Z"/><rect class="cls-25" x="160.77" y="217.77" width="44.98" height="32.45"/><circle class="cls-26" cx="200.25" cy="250.22" r="4.78"/><polyline class="cls-22" points="197.57 251.56 200.25 248.88 202.94 251.56"/><line class="cls-25" x1="160.77" y1="223.96" x2="205.75" y2="223.96"/><line class="cls-28" x1="172.11" y1="243.22" x2="175.98" y2="243.22"/><line class="cls-28" x1="172.11" y1="246.71" x2="185.66" y2="246.71"/><line class="cls-28" x1="165.07" y1="229.09" x2="191.08" y2="229.09"/><line class="cls-28" x1="165.07" y1="232.57" x2="182.18" y2="232.57"/><rect class="cls-4" x="164.11" y="242.97" width="4.11" height="3.99" rx="0.25" ry="0.25"/><path class="cls-13" d="M168,243.22v3.49h-3.61v-3.49H168m0-.5h-3.61a.5.5,0,0,0-.5.5v3.49a.5.5,0,0,0,.5.5H168a.5.5,0,0,0,.5-.5v-3.49a.5.5,0,0,0-.5-.5Z"/><rect class="cls-26" x="160.77" y="217.77" width="44.89" height="6.32"/><rect class="cls-23" x="200.89" y="220.83" width="9.72" height="9.72"/><path class="cls-26" d="M202.24,230c.59-.35,3-.89,3-1.15v-1.19a2.44,2.44,0,0,1-.35-.91.69.69,0,0,1-.07-.78v-.75c0-.77.32-1.3,1-1.3s1,.53,1,1.3v.75a.69.69,0,0,1-.07.78,2.45,2.45,0,0,1-.35.91v1.19c.06.25,2.36.8,2.95,1.15Z"/><rect class="cls-23" x="200.89" y="232.66" width="9.72" height="9.72"/><path class="cls-26" d="M202.24,241.79c.59-.35,3-.89,3-1.15v-1.19a2.44,2.44,0,0,1-.35-.91.69.69,0,0,1-.07-.78V237c0-.77.32-1.3,1-1.3s1,.53,1,1.3v.75a.69.69,0,0,1-.07.78,2.45,2.45,0,0,1-.35.91v1.19c.06.25,2.36.8,2.95,1.15Z"/><circle class="cls-29" cx="216.12" cy="233.57" r="51.67"/><path class="cls-29" d="M411.26,160C441.31,77.33,520.59,18.27,613.66,18.27c118.91,0,215.3,96.39,215.3,215.3s-96.39,215.3-215.3,215.3a215.37,215.37,0,0,1-199.43-134"/><line class="cls-29" x1="190.72" y1="188.58" x2="521.34" y2="39.03"/><line class="cls-29" x1="197.57" y1="281.8" x2="534.65" y2="433.9"/><path class="cls-30" d="M579.68,177.44a1.33,1.33,0,0,0-1.33-1.33H304.15a1.33,1.33,0,1,0,0,2.65h94.26a1.33,1.33,0,1,1,0,2.65H325a1.33,1.33,0,0,0,0,2.65h81.33a1.33,1.33,0,1,1,0,2.65H334.82a1.33,1.33,0,0,0,0,2.65h66.25a1.33,1.33,0,1,1,0,2.65H319.74a1.33,1.33,0,0,0,0,2.65h76a1.33,1.33,0,1,1,0,2.65H342.94a1.33,1.33,0,1,0,0,2.65h58.12a1.33,1.33,0,1,1,0,2.65H331.34a1.33,1.33,0,0,0,0,2.65h75a1.33,1.33,0,1,1,0,2.65H345a1.33,1.33,0,0,0,0,2.65h50.75a1.33,1.33,0,1,1,0,2.65H326.95a1.33,1.33,0,1,0,0,2.65h76.77a1.33,1.33,0,1,1,0,2.65H352.64a1.33,1.33,0,0,0,0,2.65h43.12a1.33,1.33,0,1,1,0,2.65H366.59a1.33,1.33,0,1,0,0,2.65h31.82a1.33,1.33,0,1,1,0,2.65H340.07a1.33,1.33,0,1,0,0,2.65h61a1.33,1.33,0,1,1,0,2.65H361.29a1.33,1.33,0,1,0,0,2.65h34.47a1.33,1.33,0,1,1,0,2.65h-61a1.33,1.33,0,1,0,0,2.65h63.65a1.33,1.33,0,1,1,0,2.65H377.2a1.33,1.33,0,1,0,0,2.65h23.86a1.33,1.33,0,1,1,0,2.65H348a1.33,1.33,0,1,0,0,2.65h55.69a1.33,1.33,0,1,1,0,2.65H329.46a1.33,1.33,0,1,0,0,2.65h71.6a1.33,1.33,0,1,1,0,2.65H366.59a1.33,1.33,0,1,0,0,2.65h29.17a1.33,1.33,0,1,1,0,2.65H353.33a1.33,1.33,0,1,0,0,2.65h50.39a1.33,1.33,0,1,1,0,2.65H361.29a1.33,1.33,0,1,0,0,2.65h39.78a1.33,1.33,0,1,1,0,2.65H337.42a1.33,1.33,0,1,0,0,2.65h61a1.33,1.33,0,1,1,0,2.65H348a1.33,1.33,0,1,0,0,2.65h47.73a1.33,1.33,0,1,1,0,2.65H363.94a1.33,1.33,0,1,0,0,2.65h31.82a1.33,1.33,0,1,1,0,2.65H374.55a1.33,1.33,0,1,0,0,2.65h23.86a1.33,1.33,0,1,1,0,2.65H369.24a1.33,1.33,0,1,0,0,2.65h26.52a1.33,1.33,0,1,1,0,2.65H356a1.33,1.33,0,1,0,0,2.65h45.08a1.33,1.33,0,1,1,0,2.65H363.94a1.33,1.33,0,1,0,0,2.65H578.35a1.33,1.33,0,0,0,1.33-1.33Z"/><path class="cls-13" d="M289,179.95h-3.43a1.33,1.33,0,1,1,0-2.65H289a1.33,1.33,0,1,1,0,2.65Z"/><path class="cls-13" d="M263.69,179.95h-.77a1.33,1.33,0,1,1,0-2.65h.77a1.33,1.33,0,1,1,0,2.65Z"/><path class="cls-13" d="M273.65,184.76h-.77a1.33,1.33,0,0,1,0-2.65h.77a1.33,1.33,0,1,1,0,2.65Z"/><path class="cls-13" d="M281.72,195.86h-.77a1.33,1.33,0,0,1,0-2.65h.77a1.33,1.33,0,1,1,0,2.65Z"/><path class="cls-13" d="M289.4,206.47h-.77a1.33,1.33,0,1,1,0-2.65h.77a1.33,1.33,0,0,1,0,2.65Z"/><path class="cls-13" d="M299.84,211.77h-.77a1.33,1.33,0,1,1,0-2.65h.77a1.33,1.33,0,0,1,0,2.65Z"/><path class="cls-13" d="M310.95,222.38h-.77a1.33,1.33,0,0,1,0-2.65h.77a1.33,1.33,0,1,1,0,2.65Z"/><path class="cls-13" d="M295.47,217.08h-.77a1.33,1.33,0,1,1,0-2.65h.77a1.33,1.33,0,0,1,0,2.65Z"/><path class="cls-13" d="M297.19,201.17h-.77a1.33,1.33,0,1,1,0-2.65h.77a1.33,1.33,0,0,1,0,2.65Z"/><path class="cls-13" d="M292.1,190.56h-.77a1.33,1.33,0,0,1,0-2.65h.77a1.33,1.33,0,0,1,0,2.65Z"/><path class="cls-13" d="M298.51,185.25h-3.43a1.33,1.33,0,0,1,0-2.65h3.43a1.33,1.33,0,1,1,0,2.65Z"/><path class="cls-13" d="M311.89,190.56h-3.43a1.33,1.33,0,0,1,0-2.65h3.43a1.33,1.33,0,0,1,0,2.65Z"/><path class="cls-13" d="M304.59,195.86h-3.43a1.33,1.33,0,0,1,0-2.65h3.43a1.33,1.33,0,1,1,0,2.65Z"/><path class="cls-13" d="M319.67,201.17h-3.43a1.33,1.33,0,0,1,0-2.65h3.43a1.33,1.33,0,1,1,0,2.65Z"/><path class="cls-13" d="M310.17,206.47h-3.43a1.33,1.33,0,0,1,0-2.65h3.43a1.33,1.33,0,1,1,0,2.65Z"/><path class="cls-13" d="M321.87,211.77h-3.43a1.33,1.33,0,0,1,0-2.65h3.43a1.33,1.33,0,1,1,0,2.65Z"/><path class="cls-13" d="M316.34,217.08h-3.43a1.33,1.33,0,0,1,0-2.65h3.43a1.33,1.33,0,1,1,0,2.65Z"/><path class="cls-13" d="M337.27,222.38h-3.43a1.33,1.33,0,1,1,0-2.65h3.43a1.33,1.33,0,1,1,0,2.65Z"/><path class="cls-13" d="M348.29,227.69h-3.43a1.33,1.33,0,0,1,0-2.65h3.43a1.33,1.33,0,1,1,0,2.65Z"/><path class="cls-13" d="M331,233H327.6a1.33,1.33,0,0,1,0-2.65H331a1.33,1.33,0,1,1,0,2.65Z"/><path class="cls-13" d="M326.61,243.6h-3.43a1.33,1.33,0,0,1,0-2.65h3.43a1.33,1.33,0,1,1,0,2.65Z"/><path class="cls-13" d="M339,253.7h-3.43a1.33,1.33,0,0,1,0-2.65H339a1.33,1.33,0,1,1,0,2.65Z"/><path class="cls-13" d="M321.3,259.33h-3.43a1.33,1.33,0,0,1,0-2.65h3.43a1.33,1.33,0,1,1,0,2.65Z"/><path class="cls-13" d="M351.72,264.82h-3.43a1.33,1.33,0,0,1,0-2.65h3.43a1.33,1.33,0,1,1,0,2.65Z"/><path class="cls-13" d="M341.64,270.12h-3.43a1.33,1.33,0,0,1,0-2.65h3.43a1.33,1.33,0,1,1,0,2.65Z"/><path class="cls-13" d="M326.66,280.73h-3.43a1.33,1.33,0,1,1,0-2.65h3.43a1.33,1.33,0,1,1,0,2.65Z"/><path class="cls-13" d="M347.38,275.43H344a1.33,1.33,0,1,1,0-2.65h3.43a1.33,1.33,0,0,1,0,2.65Z"/><path class="cls-13" d="M368.64,248.9h-3.43a1.33,1.33,0,0,1,0-2.65h3.43a1.33,1.33,0,1,1,0,2.65Z"/><path class="cls-13" d="M346.58,238.3h-3.43a1.33,1.33,0,0,1,0-2.65h3.43a1.33,1.33,0,1,1,0,2.65Z"/><path class="cls-31" d="M570.1,194.39H386.31a1.31,1.31,0,0,0-.13.55V197h11.93a1.33,1.33,0,0,1,0,2.65H386.18v2.65h1.33a1.33,1.33,0,0,1,0,2.65h-1.33v2.65h9.28a1.33,1.33,0,0,1,0,2.65h-9.28V213h1.33a1.33,1.33,0,0,1,0,2.65h-1.33v2.65h4a1.33,1.33,0,0,1,0,2.65h-4v2.65h6.63a1.33,1.33,0,0,1,0,2.65h-6.63v2.65h1.33a1.33,1.33,0,0,1,0,2.65h-1.33v2.65h4a1.33,1.33,0,0,1,0,2.65h-4v2.65h6.63a1.33,1.33,0,0,1,0,2.65h-6.63v2.65h9.28a1.33,1.33,0,0,1,0,2.65h-9.28v2.65h6.63a1.33,1.33,0,0,1,0,2.65h-6.63v2.65h1.33a1.33,1.33,0,0,1,0,2.65h-1.33v2.65h9.28a1.33,1.33,0,0,1,0,2.65h-9.28V266h6.63a1.33,1.33,0,0,1,0,2.65h-6.63v2.65h4a1.33,1.33,0,0,1,0,2.65h-4v2.65h1.33a1.33,1.33,0,0,1,0,2.65h-1.33v2.65h1.33a1.33,1.33,0,0,1,0,2.65h-1.33v2.65h4a1.33,1.33,0,0,1,0,2.65h-4v2.65h1.33a1.33,1.33,0,0,1,0,2.65h-1.33v2.65h6.63a1.33,1.33,0,0,1,0,2.65h-6.63v1.33a1.33,1.33,0,0,0,1.33,1.33H570.1a1.33,1.33,0,0,0,1.33-1.33V194.94C571.43,194.2,570.83,193.61,570.1,194.39Z"/><line class="cls-32" x1="434.11" y1="272.61" x2="449.74" y2="272.61"/><line class="cls-32" x1="434.11" y1="286.7" x2="488.88" y2="286.7"/><line class="cls-32" x1="405.64" y1="215.46" x2="510.8" y2="215.46"/><line class="cls-32" x1="405.64" y1="229.55" x2="474.79" y2="229.55"/><path class="cls-30" d="M421.55,273.64H397a1.33,1.33,0,1,0,0,2.65h8.14a1.33,1.33,0,0,1,0,2.65h-10.5a1.33,1.33,0,1,0,0,2.65h10.5a1.33,1.33,0,0,1,0,2.65H401.7a1.33,1.33,0,1,0,0,2.65h3.43a1.33,1.33,0,0,1,0,2.65h-7a1.33,1.33,0,1,0,0,2.65h23.38a1.33,1.33,0,0,0,1.33-1.33V275A1.33,1.33,0,0,0,421.55,273.64Z"/><path class="cls-5" d="M419.19,271.28H402.77a1.33,1.33,0,0,0-1.33,1.33v1.33h1.33a1.33,1.33,0,0,1,0,2.65h-1.33v2.65h1.33a1.33,1.33,0,0,1,0,2.65h-1.33v2.65h1.33a1.33,1.33,0,0,1,0,2.65h-1.33v1.33a1.33,1.33,0,0,0,1.33,1.33h16.42a1.33,1.33,0,0,0,1.33-1.33V272.61A1.33,1.33,0,0,0,419.19,271.28Z"/><path class="cls-5" d="M402.77,273.93h-8.14a1.33,1.33,0,1,1,0-2.65h8.14a1.33,1.33,0,0,1,0,2.65Z"/><path class="cls-5" d="M402.77,279.24h-10.5a1.33,1.33,0,1,1,0-2.65h10.5a1.33,1.33,0,0,1,0,2.65Z"/><path class="cls-5" d="M402.77,284.54h-3.43a1.33,1.33,0,1,1,0-2.65h3.43a1.33,1.33,0,0,1,0,2.65Z"/><path class="cls-5" d="M402.77,289.84h-7a1.33,1.33,0,1,1,0-2.65h7a1.33,1.33,0,0,1,0,2.65Z"/><path class="cls-33" d="M387.51,170.52H295.9a1.33,1.33,0,0,1,0-2.65h91.61a1.33,1.33,0,0,1,0,2.65Z"/><path class="cls-33" d="M387.51,175.82H316.79a1.33,1.33,0,1,1,0-2.65h70.72a1.33,1.33,0,0,1,0,2.65Z"/><path class="cls-33" d="M387.51,186.43h-76a1.33,1.33,0,1,1,0-2.65h76a1.33,1.33,0,0,1,0,2.65Z"/><path class="cls-33" d="M387.51,181.13H326.57a1.33,1.33,0,0,1,0-2.65h60.94a1.33,1.33,0,0,1,0,2.65Z"/><path class="cls-33" d="M387.51,191.74H334.69a1.33,1.33,0,0,1,0-2.65h52.82a1.33,1.33,0,0,1,0,2.65Z"/><path class="cls-33" d="M387.51,197H323.09a1.33,1.33,0,0,1,0-2.65h64.42a1.33,1.33,0,0,1,0,2.65Z"/><path class="cls-31" d="M387.51,202.34H336.76a1.33,1.33,0,0,1,0-2.65h50.75a1.33,1.33,0,0,1,0,2.65Z"/><path class="cls-31" d="M387.51,207.65H318.7a1.33,1.33,0,1,1,0-2.65h68.81a1.33,1.33,0,0,1,0,2.65Z"/><path class="cls-31" d="M387.51,213H344.39a1.33,1.33,0,1,1,0-2.65h43.12a1.33,1.33,0,0,1,0,2.65Z"/><path class="cls-31" d="M387.51,218.26H358.34a1.33,1.33,0,0,1,0-2.65h29.17a1.33,1.33,0,0,1,0,2.65Z"/><path class="cls-31" d="M387.51,223.56H331.82a1.33,1.33,0,0,1,0-2.65h55.69a1.33,1.33,0,0,1,0,2.65Z"/><path class="cls-31" d="M387.51,228.87H353a1.33,1.33,0,0,1,0-2.65h34.47a1.33,1.33,0,0,1,0,2.65Z"/><path class="cls-31" d="M387.51,234.17h-61a1.33,1.33,0,0,1,0-2.65h61a1.33,1.33,0,0,1,0,2.65Z"/><path class="cls-31" d="M387.51,239.48H369a1.33,1.33,0,0,1,0-2.65h18.56a1.33,1.33,0,0,1,0,2.65Z"/><path class="cls-31" d="M387.51,244.78H339.78a1.33,1.33,0,0,1,0-2.65h47.73a1.33,1.33,0,0,1,0,2.65Z"/><path class="cls-31" d="M387.51,250.08h-66.3a1.33,1.33,0,0,1,0-2.65h66.3a1.33,1.33,0,0,1,0,2.65Z"/><path class="cls-31" d="M387.51,255.39H358.34a1.33,1.33,0,0,1,0-2.65h29.17a1.33,1.33,0,0,1,0,2.65Z"/><path class="cls-31" d="M387.51,260.69H345.08a1.33,1.33,0,0,1,0-2.65h42.43a1.33,1.33,0,0,1,0,2.65Z"/><path class="cls-31" d="M387.51,266H353a1.33,1.33,0,0,1,0-2.65h34.47a1.33,1.33,0,0,1,0,2.65Z"/><path class="cls-31" d="M387.51,271.3H329.17a1.33,1.33,0,0,1,0-2.65h58.34a1.33,1.33,0,0,1,0,2.65Z"/><path class="cls-31" d="M387.51,276.61H339.78a1.33,1.33,0,0,1,0-2.65h47.73a1.33,1.33,0,0,1,0,2.65Z"/><path class="cls-31" d="M387.51,281.91H355.69a1.33,1.33,0,0,1,0-2.65h31.82a1.33,1.33,0,0,1,0,2.65Z"/><path class="cls-31" d="M387.51,287.21H366.3a1.33,1.33,0,0,1,0-2.65h21.21a1.33,1.33,0,0,1,0,2.65Z"/><path class="cls-31" d="M387.51,292.52H361a1.33,1.33,0,0,1,0-2.65h26.52a1.33,1.33,0,0,1,0,2.65Z"/><path class="cls-31" d="M387.51,297.82H347.73a1.33,1.33,0,0,1,0-2.65h39.78a1.33,1.33,0,0,1,0,2.65Z"/><path class="cls-31" d="M387.51,303.13H355.69a1.33,1.33,0,0,1,0-2.65h31.82a1.33,1.33,0,0,1,0,2.65Z"/><g class="cls-34"><path class="cls-30" d="M570.1,170.22H387.51a1.33,1.33,0,0,0-1.33,1.33v1.33h4a1.33,1.33,0,0,1,0,2.65h-4v2.65h11.93a1.33,1.33,0,0,1,0,2.65H386.18v2.65h6.63a1.33,1.33,0,0,1,0,2.65h-6.63v2.65h1.33a1.33,1.33,0,0,1,0,2.65h-1.33v2.65h6.63a1.33,1.33,0,0,1,0,2.65h-6.63v1.33a1.33,1.33,0,0,0,1.33,1.33H570.1a1.33,1.33,0,0,0,1.33-1.33V171.55A1.33,1.33,0,0,0,570.1,170.22Z"/></g><path class="cls-33" d="M570.1,167.87H387.51a1.33,1.33,0,0,0-1.33,1.33v1.33h4a1.33,1.33,0,0,1,0,2.65h-4v2.65h11.93a1.33,1.33,0,0,1,0,2.65H386.18v2.65h6.63a1.33,1.33,0,0,1,0,2.65h-6.63v2.65h1.33a1.33,1.33,0,0,1,0,2.65h-1.33v2.65h6.63a1.33,1.33,0,0,1,0,2.65h-6.63v1.33a1.33,1.33,0,0,0,1.33,1.33H570.1a1.33,1.33,0,0,0,1.33-1.33V169.19A1.33,1.33,0,0,0,570.1,167.87Z"/><path class="cls-30" d="M571.42,186.63h24.22A1.33,1.33,0,0,1,597,188v42.44a1.33,1.33,0,0,1-1.33,1.33H571.42v-3.54H538.33a1.33,1.33,0,0,1,0-2.65h15.83a1.33,1.33,0,1,0,0-2.65H526.55a1.33,1.33,0,0,1,0-2.65h27.62a1.33,1.33,0,1,0,0-2.65H540.69a1.33,1.33,0,0,1,0-2.65h17a1.33,1.33,0,1,0,0-2.65H546.58a1.33,1.33,0,0,1,0-2.65h8.76a1.33,1.33,0,1,0,0-2.65H533.62a1.33,1.33,0,0,1,0-2.65h20.54a1.33,1.33,0,1,0,0-2.65H520.65a1.33,1.33,0,0,1,0-2.65h35.87a1.33,1.33,0,1,0,0-2.65H540.69a1.33,1.33,0,0,1,0-2.65h13.47a1.33,1.33,0,1,0,0-2.65H528.9a1.33,1.33,0,0,1,0-2.65h31.15a1.33,1.33,0,1,0,0-2.65h-45.3a1.33,1.33,0,0,1,0-2.65h56.67Z"/><path class="cls-5" d="M589.75,180.73H550.45a1.33,1.33,0,0,0-1.33,1.33v1.33h8.58a1.33,1.33,0,1,1,0,2.65h-8.58v2.65h2.68a1.33,1.33,0,1,1,0,2.65h-2.68V194h5a1.33,1.33,0,1,1,0,2.65h-5v2.65h2.68a1.33,1.33,0,1,1,0,2.65h-2.68v2.65H553a1.33,1.33,0,1,1,0,2.65h-3.86v2.65h6.22a1.33,1.33,0,1,1,0,2.65h-6.22v2.65h2.68a1.33,1.33,0,1,1,0,2.65h-2.68v2.65h2.68a1.33,1.33,0,1,1,0,2.65h-2.68v1.33a1.33,1.33,0,0,0,1.33,1.33h39.31a1.33,1.33,0,0,0,1.33-1.33V182.06A1.33,1.33,0,0,0,589.75,180.73Z"/><path class="cls-35" d="M555.9,219c2.4-1.4,12-3.62,12.2-4.63v-4.82a9.88,9.88,0,0,1-1.43-3.68,2.8,2.8,0,0,1-.3-3.17v-3c0-3.12,1.31-5.26,4.05-5.26s4.05,2.14,4.05,5.26v3a2.8,2.8,0,0,1-.3,3.17,9.91,9.91,0,0,1-1.43,3.68v4.82c.22,1,9.55,3.24,11.92,4.63Z"/><path class="cls-5" d="M551.8,183.39H512.4a1.33,1.33,0,0,1,0-2.65h39.4a1.33,1.33,0,1,1,0,2.65Z"/><path class="cls-5" d="M551.8,188.69H526.55a1.33,1.33,0,0,1,0-2.65H551.8a1.33,1.33,0,1,1,0,2.65Z"/><path class="cls-5" d="M551.8,194H538.33a1.33,1.33,0,0,1,0-2.65H551.8a1.33,1.33,0,1,1,0,2.65Z"/><path class="cls-5" d="M551.8,199.3H518.29a1.33,1.33,0,0,1,0-2.65H551.8a1.33,1.33,0,1,1,0,2.65Z"/><path class="cls-5" d="M551.8,204.6H531.26a1.33,1.33,0,0,1,0-2.65H551.8a1.33,1.33,0,1,1,0,2.65Z"/><path class="cls-5" d="M551.8,209.91h-7.58a1.33,1.33,0,0,1,0-2.65h7.58a1.33,1.33,0,1,1,0,2.65Z"/><path class="cls-5" d="M551.8,215.21H538.33a1.33,1.33,0,0,1,0-2.65H551.8a1.33,1.33,0,1,1,0,2.65Z"/><path class="cls-5" d="M551.8,220.52H524.19a1.33,1.33,0,0,1,0-2.65H551.8a1.33,1.33,0,1,1,0,2.65Z"/><path class="cls-5" d="M551.8,225.82H536a1.33,1.33,0,0,1,0-2.65H551.8a1.33,1.33,0,1,1,0,2.65Z"/><path class="cls-30" d="M571.42,235.44h24.22a1.33,1.33,0,0,1,1.33,1.33v42.44a1.33,1.33,0,0,1-1.33,1.33H571.42V277H538.33a1.33,1.33,0,0,1,0-2.65h15.83a1.33,1.33,0,1,0,0-2.65H526.55a1.33,1.33,0,0,1,0-2.65h27.62a1.33,1.33,0,1,0,0-2.65H540.69a1.33,1.33,0,0,1,0-2.65h17a1.33,1.33,0,1,0,0-2.65H546.58a1.33,1.33,0,0,1,0-2.65h8.76a1.33,1.33,0,1,0,0-2.65H533.62a1.33,1.33,0,0,1,0-2.65h20.54a1.33,1.33,0,1,0,0-2.65H520.65a1.33,1.33,0,0,1,0-2.65h35.87a1.33,1.33,0,1,0,0-2.65H540.69a1.33,1.33,0,0,1,0-2.65h13.47a1.33,1.33,0,1,0,0-2.65H528.9a1.33,1.33,0,0,1,0-2.65h31.15a1.33,1.33,0,1,0,0-2.65h-45.3a1.33,1.33,0,0,1,0-2.65h56.67Z"/><path class="cls-5" d="M589.75,229.55H550.45a1.33,1.33,0,0,0-1.33,1.33v1.33h8.58a1.33,1.33,0,1,1,0,2.65h-8.58v2.65h2.68a1.33,1.33,0,1,1,0,2.65h-2.68v2.65h5a1.33,1.33,0,1,1,0,2.65h-5v2.65h2.68a1.33,1.33,0,1,1,0,2.65h-2.68v2.65H553a1.33,1.33,0,1,1,0,2.65h-3.86v2.65h6.22a1.33,1.33,0,1,1,0,2.65h-6.22V264h2.68a1.33,1.33,0,1,1,0,2.65h-2.68v2.65h2.68a1.33,1.33,0,1,1,0,2.65h-2.68v1.33a1.33,1.33,0,0,0,1.33,1.33h39.31a1.33,1.33,0,0,0,1.33-1.33V230.88A1.33,1.33,0,0,0,589.75,229.55Z"/><path class="cls-35" d="M555.9,267.8c2.4-1.4,12-3.62,12.2-4.63v-4.82a9.88,9.88,0,0,1-1.43-3.68,2.8,2.8,0,0,1-.3-3.17v-3c0-3.12,1.31-5.26,4.05-5.26s4.05,2.14,4.05,5.26v3a2.8,2.8,0,0,1-.3,3.17,9.91,9.91,0,0,1-1.43,3.68v4.82c.22,1,9.55,3.24,11.92,4.63Z"/><path class="cls-5" d="M551.8,232.2H512.4a1.33,1.33,0,0,1,0-2.65h39.4a1.33,1.33,0,1,1,0,2.65Z"/><path class="cls-5" d="M551.8,237.51H526.55a1.33,1.33,0,0,1,0-2.65H551.8a1.33,1.33,0,1,1,0,2.65Z"/><path class="cls-5" d="M551.8,242.81H538.33a1.33,1.33,0,0,1,0-2.65H551.8a1.33,1.33,0,1,1,0,2.65Z"/><path class="cls-5" d="M551.8,248.12H518.29a1.33,1.33,0,0,1,0-2.65H551.8a1.33,1.33,0,1,1,0,2.65Z"/><path class="cls-5" d="M551.8,253.42H531.26a1.33,1.33,0,0,1,0-2.65H551.8a1.33,1.33,0,1,1,0,2.65Z"/><path class="cls-5" d="M551.8,258.72h-7.58a1.33,1.33,0,0,1,0-2.65h7.58a1.33,1.33,0,1,1,0,2.65Z"/><path class="cls-5" d="M551.8,264H538.33a1.33,1.33,0,0,1,0-2.65H551.8a1.33,1.33,0,1,1,0,2.65Z"/><path class="cls-5" d="M551.8,269.33H524.19a1.33,1.33,0,0,1,0-2.65H551.8a1.33,1.33,0,1,1,0,2.65Z"/><path class="cls-5" d="M551.8,274.64H536a1.33,1.33,0,0,1,0-2.65H551.8a1.33,1.33,0,1,1,0,2.65Z"/><line class="cls-32" x1="279.58" y1="169.19" x2="276.15" y2="169.19"/><line class="cls-32" x1="254.26" y1="169.19" x2="253.49" y2="169.19"/><line class="cls-32" x1="264.22" y1="174" x2="263.45" y2="174"/><line class="cls-32" x1="272.29" y1="185.11" x2="271.51" y2="185.11"/><line class="cls-32" x1="279.97" y1="195.71" x2="279.19" y2="195.71"/><line class="cls-36" x1="290.41" y1="201.02" x2="289.64" y2="201.02"/><line class="cls-36" x1="301.52" y1="211.63" x2="300.74" y2="211.63"/><line class="cls-36" x1="286.04" y1="206.32" x2="285.27" y2="206.32"/><line class="cls-32" x1="287.76" y1="190.41" x2="286.98" y2="190.41"/><line class="cls-32" x1="282.67" y1="179.8" x2="281.9" y2="179.8"/><line class="cls-32" x1="289.08" y1="174.5" x2="285.66" y2="174.5"/><line class="cls-32" x1="302.45" y1="179.8" x2="299.03" y2="179.8"/><line class="cls-32" x1="295.16" y1="185.11" x2="291.74" y2="185.11"/><line class="cls-32" x1="310.24" y1="190.41" x2="306.81" y2="190.41"/><line class="cls-32" x1="300.74" y1="195.71" x2="297.32" y2="195.71"/><line class="cls-36" x1="312.44" y1="201.02" x2="309.01" y2="201.02"/><line class="cls-36" x1="306.91" y1="206.32" x2="303.49" y2="206.32"/><line class="cls-36" x1="327.84" y1="211.63" x2="324.42" y2="211.63"/><line class="cls-36" x1="338.86" y1="216.93" x2="335.44" y2="216.93"/><line class="cls-36" x1="321.6" y1="222.24" x2="318.17" y2="222.24"/><line class="cls-36" x1="317.18" y1="232.84" x2="313.75" y2="232.84"/><line class="cls-36" x1="329.55" y1="242.94" x2="326.13" y2="242.94"/><line class="cls-36" x1="311.87" y1="248.57" x2="308.45" y2="248.57"/><line class="cls-36" x1="342.29" y1="254.06" x2="338.86" y2="254.06"/><line class="cls-36" x1="332.21" y1="259.37" x2="328.78" y2="259.37"/><line class="cls-36" x1="317.23" y1="269.98" x2="313.81" y2="269.98"/><line class="cls-36" x1="337.95" y1="264.67" x2="334.53" y2="264.67"/><line class="cls-36" x1="359.21" y1="238.15" x2="355.79" y2="238.15"/><line class="cls-36" x1="337.15" y1="227.54" x2="333.73" y2="227.54"/><path class="cls-30" d="M534,301.79a1.33,1.33,0,0,0-1.33-1.33H513.93a1.33,1.33,0,1,1,0-2.65H534a1.32,1.32,0,0,0-.13-2.63l-1.08,0h-9.45a1.33,1.33,0,1,1,0-2.65h14a1.33,1.33,0,0,0,0-2.65H519.83a1.33,1.33,0,1,1,0-2.65h23.46a1.33,1.33,0,0,0,0-2.65H528.08a1.33,1.33,0,1,1,0-2.65h23.46a19.91,19.91,0,0,1,19.89,19.89h0a7.06,7.06,0,0,1,1.93,6.42A19.93,19.93,0,0,1,553.9,324H537.51a1.33,1.33,0,1,1,0-2.65h11.68a1.33,1.33,0,0,0,0-2.65H526.9a1.33,1.33,0,1,1,0-2.65h15.21a1.33,1.33,0,0,0,0-2.65H519.83a1.33,1.33,0,1,1,0-2.65h18.75a1.33,1.33,0,0,0,0-2.65h-27a1.33,1.33,0,1,1,0-2.65H535a1.33,1.33,0,0,0,1.33-1.33Z"/><path class="cls-37" d="M549.18,279.55a19.74,19.74,0,0,0-9.88,2.65h1.63a1.33,1.33,0,0,1,0,2.65h-5.23a20,20,0,0,0-2.4,2.65H535a1.33,1.33,0,0,1,0,2.65H531.6a19.78,19.78,0,0,0-1.15,2.65l1.08,0a1.33,1.33,0,1,1,0,2.65l-1.84,0a19.89,19.89,0,0,0-.33,2.65h1a1.33,1.33,0,0,1,0,2.65h-1a19.89,19.89,0,0,0,.33,2.65h4.17a1.33,1.33,0,0,1,0,2.65h-3.41a19.78,19.78,0,0,0,1.15,2.65h5.79a1.33,1.33,0,0,1,0,2.65h-4.09a20,20,0,0,0,2.4,2.65h8.76a1.33,1.33,0,0,1,0,2.65H539.3a19.88,19.88,0,1,0,9.88-37.13Z"/><path class="cls-37" d="M550.84,282.2H527.38a1.33,1.33,0,1,1,0-2.65h23.46a1.33,1.33,0,0,1,0,2.65Z"/><path class="cls-37" d="M550.84,287.5H519.13a1.33,1.33,0,1,1,0-2.65h31.72a1.33,1.33,0,0,1,0,2.65Z"/><path class="cls-37" d="M550.84,292.81H522.66a1.33,1.33,0,1,1,0-2.65h28.18a1.33,1.33,0,0,1,0,2.65Z"/><path class="cls-37" d="M550.84,298.11H513.23a1.33,1.33,0,1,1,0-2.65h37.61a1.33,1.33,0,0,1,0,2.65Z"/><path class="cls-37" d="M550.84,303.42H508.52a1.33,1.33,0,1,1,0-2.65h42.32a1.33,1.33,0,0,1,0,2.65Z"/><path class="cls-37" d="M550.84,308.72H516.77a1.33,1.33,0,1,1,0-2.65h34.07a1.33,1.33,0,0,1,0,2.65Z"/><path class="cls-37" d="M550.84,314h-27a1.33,1.33,0,1,1,0-2.65h27a1.33,1.33,0,0,1,0,2.65Z"/><path class="cls-37" d="M550.84,319.33H534.45a1.33,1.33,0,1,1,0-2.65h16.39a1.33,1.33,0,0,1,0,2.65Z"/><polyline class="cls-38" points="539.49 304.29 549.18 294.59 558.88 304.29"/><path class="cls-13" d="M582.73,136.46h-6v-16.1h6c5.06,0,8.55,3.47,8.55,8S587.79,136.46,582.73,136.46Zm0-13.52h-3.17v10.95h3.17a5.47,5.47,0,1,0,0-10.95Z"/><path class="cls-13" d="M604.69,136.74a8.32,8.32,0,1,1,8.44-8.35A8.18,8.18,0,0,1,604.69,136.74Zm0-14a5.44,5.44,0,0,0-5.43,5.7,5.52,5.52,0,0,0,5.47,5.75,5.45,5.45,0,0,0,5.43-5.7A5.52,5.52,0,0,0,604.69,122.69Z"/><path class="cls-13" d="M630.11,120.37h2.78v16.1h-2.37L621.64,125v11.45h-2.78v-16.1h2.62l8.62,11.13Z"/><path class="cls-13" d="M651.27,122.9h-9.11v4.19h8.07v2.53h-8.07v4.32h9.22v2.53h-12v-16.1h11.93Z"/><path class="cls-13" d="M582.73,401h-6v-16.1h6c5.06,0,8.55,3.47,8.55,8S587.79,401,582.73,401Zm0-13.52h-3.17v10.95h3.17a5.47,5.47,0,1,0,0-10.95Z"/><path class="cls-13" d="M604.69,401.24a8.32,8.32,0,1,1,8.44-8.35A8.18,8.18,0,0,1,604.69,401.24Zm0-14a5.44,5.44,0,0,0-5.43,5.7,5.52,5.52,0,0,0,5.47,5.75,5.45,5.45,0,0,0,5.43-5.7A5.52,5.52,0,0,0,604.69,387.19Z"/><path class="cls-13" d="M630.11,384.87h2.78V401h-2.37l-8.88-11.45V401h-2.78v-16.1h2.62L630.11,396Z"/><path class="cls-13" d="M651.27,387.4h-9.11v4.19h8.07v2.53h-8.07v4.32h9.22V401h-12v-16.1h11.93Z"/><line class="cls-16" x1="484.09" y1="464.93" x2="786.94" y2="464.93"/><line class="cls-16" x1="458.62" y1="464.93" x2="439.07" y2="464.93"/><line class="cls-16" x1="423.73" y1="464.93" x2="416.26" y2="464.93"/><line class="cls-16" x1="803.59" y1="464.93" x2="811.07" y2="464.93"/></g></g></svg>