<svg xmlns="http://www.w3.org/2000/svg" viewBox="0 0 880 520"><defs><style>.cls-1{isolation:isolate;}.cls-19,.cls-2,.cls-20,.cls-26,.cls-28,.cls-29,.cls-30,.cls-33,.cls-38,.cls-40,.cls-42,.cls-45,.cls-48,.cls-50,.cls-53,.cls-58,.cls-59,.cls-60,.cls-61,.cls-65,.cls-66{fill:none;}.cls-14,.cls-16,.cls-2,.cls-25,.cls-40,.cls-5,.cls-55,.cls-63,.cls-64,.cls-66,.cls-67,.cls-68,.cls-7,.cls-9{stroke:#d3d7d0;}.cls-14,.cls-15,.cls-16,.cls-17,.cls-18,.cls-19,.cls-2,.cls-20,.cls-25,.cls-26,.cls-27,.cls-28,.cls-29,.cls-30,.cls-31,.cls-32,.cls-33,.cls-34,.cls-35,.cls-36,.cls-37,.cls-38,.cls-39,.cls-40,.cls-41,.cls-42,.cls-43,.cls-44,.cls-45,.cls-46,.cls-47,.cls-48,.cls-49,.cls-5,.cls-50,.cls-51,.cls-53,.cls-54,.cls-55,.cls-56,.cls-58,.cls-59,.cls-60,.cls-61,.cls-63,.cls-64,.cls-65,.cls-66,.cls-67,.cls-68,.cls-7,.cls-8,.cls-9{stroke-linecap:round;stroke-linejoin:round;}.cls-2,.cls-5,.cls-54,.cls-55,.cls-56,.cls-58,.cls-59,.cls-61,.cls-65,.cls-7,.cls-8{stroke-width:1.5px;}.cls-3,.cls-63,.cls-67,.cls-7{fill:#fff;}.cls-18,.cls-35,.cls-4,.cls-5,.cls-64,.cls-68,.cls-8{fill:#ecf1e9;}.cls-13,.cls-14,.cls-16,.cls-25,.cls-55,.cls-6,.cls-9{fill:#d3d7d0;}.cls-18,.cls-19,.cls-20,.cls-35,.cls-47,.cls-8{stroke:#ecf1e9;}.cls-14,.cls-20,.cls-28,.cls-29,.cls-31,.cls-32,.cls-33,.cls-34,.cls-35,.cls-36,.cls-37,.cls-38,.cls-39,.cls-40,.cls-41,.cls-42,.cls-43,.cls-44,.cls-45,.cls-46,.cls-47,.cls-48,.cls-49,.cls-50,.cls-51,.cls-53,.cls-63,.cls-68,.cls-9{stroke-width:0.5px;}.cls-10{fill:#eb6361;}.cls-11{fill:#e0ca21;}.cls-12{fill:#8fc23d;}.cls-13,.cls-14,.cls-16,.cls-52,.cls-55{mix-blend-mode:multiply;}.cls-15,.cls-54{fill:#a7aaa3;stroke:#a7aaa3;}.cls-17{fill:#272b24;}.cls-17,.cls-38,.cls-59{stroke:#272b24;}.cls-21,.cls-51{fill:#617e39;}.cls-22{fill:#f0f4ed;}.cls-23{fill:#91c53d;}.cls-24{fill:#bdc0b9;}.cls-26,.cls-27,.cls-28,.cls-37,.cls-58{stroke:#ebefe8;}.cls-27,.cls-37,.cls-62{fill:#ebefe8;}.cls-29,.cls-30,.cls-36{stroke:#3e423b;}.cls-31,.cls-47{fill:#5dc0d8;}.cls-31,.cls-48{stroke:#5dc0d8;}.cls-32{fill:#8dc03e;stroke:#8dc03e;}.cls-33,.cls-34{stroke:#378a96;}.cls-34{fill:#378a96;}.cls-36,.cls-57{fill:#3e423b;}.cls-39{fill:#e86360;stroke:#e86360;}.cls-41{fill:#f19a31;stroke:#f19a31;}.cls-42,.cls-43{stroke:#b6792a;}.cls-43{fill:#b6792a;}.cls-44{fill:#ddc621;stroke:#ddc621;}.cls-45,.cls-46{stroke:#9c8a32;}.cls-46{fill:#9c8a32;}.cls-49{fill:#8cc03d;stroke:#8cc03d;}.cls-50,.cls-51{stroke:#617e39;}.cls-53,.cls-60,.cls-65{stroke:#fff;}.cls-56{fill:#80807f;stroke:#80807f;}.cls-60{stroke-width:10px;}.cls-61{stroke:#627f3a;}</style></defs><title>LKArtboard 3.1</title><g class="cls-1"><g id="Artwork"><line class="cls-2" x1="668.13" y1="470.11" x2="759.35" y2="470.11"/><line class="cls-2" x1="762.95" y1="470.11" x2="765.44" y2="470.11"/><polygon class="cls-3" points="754.38 470.11 762.95 467.66 754.38 465.2 681.8 465.2 681.8 470.11 754.38 470.11"/><rect class="cls-3" x="674.96" y="465.2" width="6.83" height="4.91"/><polygon class="cls-4" points="674.96 467.36 761.92 467.36 754.38 470.11 674.96 470.11 674.96 467.36"/><rect class="cls-2" x="674.96" y="465.2" width="6.83" height="4.91"/><path class="cls-4" d="M669.93,467.66h0a2.46,2.46,0,0,1,2.46-2.46H675v4.91h-2.58A2.46,2.46,0,0,1,669.93,467.66Z"/><path class="cls-3" d="M672.39,465.2a2.45,2.45,0,0,0-2.24,3.46,2.45,2.45,0,0,1,2.24-1.46H675v-2Z"/><polygon class="cls-2" points="754.38 470.11 762.95 467.66 754.38 465.2 681.8 465.2 681.8 470.11 754.38 470.11"/><path class="cls-2" d="M669.93,467.66h0a2.46,2.46,0,0,1,2.46-2.46H675v4.91h-2.58A2.46,2.46,0,0,1,669.93,467.66Z"/><line class="cls-2" x1="754.38" y1="470.11" x2="754.38" y2="467.66"/><circle class="cls-4" cx="760.26" cy="242.88" r="53.81"/><circle class="cls-5" cx="755.76" cy="233.88" r="53.81"/><path class="cls-3" d="M755.76,283.2a49.31,49.31,0,1,1,49.31-49.31A49.37,49.37,0,0,1,755.76,283.2Z"/><path class="cls-4" d="M712.45,239.88a49.28,49.28,0,0,1,81-37.72A49.28,49.28,0,1,0,724,271.6,49.08,49.08,0,0,1,712.45,239.88Z"/><path class="cls-2" d="M755.76,283.2a49.31,49.31,0,1,1,49.31-49.31A49.37,49.37,0,0,1,755.76,283.2Z"/><line class="cls-2" x1="755.76" y1="233.88" x2="713.81" y2="233.88"/><line class="cls-2" x1="755.76" y1="233.88" x2="747.15" y2="257.54"/><path class="cls-6" d="M755.79,191.18a.75.75,0,0,1,0,1.5A.75.75,0,0,1,755.79,191.18Z"/><path class="cls-6" d="M777.14,196.91a.75.75,0,0,1-.75,1.3A.75.75,0,0,1,777.14,196.91Z"/><path class="cls-6" d="M792.76,212.55a.75.75,0,0,1-1.3.75A.75.75,0,0,1,792.76,212.55Z"/><path class="cls-6" d="M798.47,233.91a.75.75,0,0,1-1.5,0A.75.75,0,0,1,798.47,233.91Z"/><path class="cls-6" d="M792.74,255.26a.75.75,0,0,1-1.3-.75A.75.75,0,0,1,792.74,255.26Z"/><path class="cls-6" d="M777.1,270.88a.75.75,0,0,1-.75-1.3A.75.75,0,0,1,777.1,270.88Z"/><path class="cls-6" d="M755.74,276.59a.75.75,0,0,1,0-1.5A.75.75,0,0,1,755.74,276.59Z"/><path class="cls-6" d="M734.39,270.86a.75.75,0,0,1,.75-1.3A.75.75,0,0,1,734.39,270.86Z"/><path class="cls-6" d="M718.77,255.22a.75.75,0,0,1,1.3-.75A.75.75,0,0,1,718.77,255.22Z"/><path class="cls-6" d="M713.06,233.86a.75.75,0,0,1,1.5,0A.75.75,0,0,1,713.06,233.86Z"/><path class="cls-6" d="M718.79,212.51a.75.75,0,0,1,1.3.75A.75.75,0,0,1,718.79,212.51Z"/><path class="cls-6" d="M734.43,196.89a.75.75,0,0,1,.75,1.3A.75.75,0,0,1,734.43,196.89Z"/><line class="cls-7" x1="7.79" y1="470.11" x2="134.38" y2="470.11"/><line class="cls-2" x1="153.02" y1="470.11" x2="165.97" y2="470.11"/><line class="cls-2" x1="176.33" y1="470.11" x2="180" y2="470.11"/><rect class="cls-5" x="108.37" y="186.72" width="10" height="28.96" transform="translate(-88.59 89.19) rotate(-31.59)"/><rect class="cls-5" x="64.95" y="436.78" width="9.67" height="16.67"/><rect class="cls-5" x="62.53" y="451.55" width="14.5" height="1.9"/><polygon class="cls-3" points="-30.61 274.33 87.21 197.41 90.63 202.34 -27.33 279.36 -30.61 274.33"/><polygon class="cls-4" points="-28.9 277.59 88.92 200.66 90.63 202.34 -27.33 279.36 -28.9 277.59"/><polygon class="cls-2" points="-30.61 274.33 87.21 197.41 90.63 202.34 -27.33 279.36 -30.61 274.33"/><polygon class="cls-4" points="108.52 193.05 91.77 203.99 88.28 198.77 105.03 187.84 108.52 193.05"/><rect class="cls-2" x="87.41" y="189.33" width="20" height="10" transform="translate(-90.39 84.86) rotate(-33.14)"/><rect class="cls-3" x="2.81" y="269.8" width="6" height="165.63" transform="translate(-218.13 80.18) rotate(-38.48)"/><rect class="cls-2" x="2.81" y="269.8" width="6" height="165.63" transform="translate(-218.13 80.18) rotate(-38.48)"/><rect class="cls-4" x="59.4" y="417.71" width="10" height="17.29" transform="translate(-251.5 132.87) rotate(-38.52)"/><rect class="cls-2" x="58.56" y="415.28" width="10" height="20" transform="translate(-250.81 131.9) rotate(-38.48)"/><circle class="cls-7" cx="69.78" cy="433.11" r="9.5"/><circle class="cls-8" cx="69.78" cy="435.11" r="3.67"/><circle class="cls-7" cx="69.78" cy="433.11" r="3.67"/><circle class="cls-7" cx="105.78" cy="188.86" r="9.5"/><circle class="cls-8" cx="105.78" cy="190.86" r="3.67"/><circle class="cls-7" cx="105.78" cy="188.86" r="3.67"/><ellipse class="cls-5" cx="162.31" cy="280.19" rx="34.95" ry="2.02" transform="translate(-123.81 128.59) rotate(-32)"/><circle class="cls-7" cx="158.02" cy="273.33" r="16.02" transform="translate(-120.83 125.27) rotate(-32)"/><path class="cls-8" d="M148.82,286.45a16,16,0,0,0,3.86,2c3.34-2,6.95-4.18,10.69-6.52s7.3-4.62,10.55-6.75a16,16,0,0,0-.08-4.34c-3.87,2.27-8.14,4.86-12.61,7.66S152.56,284,148.82,286.45Z"/><circle class="cls-2" cx="158.02" cy="273.33" r="16.02" transform="translate(-120.83 125.27) rotate(-32)"/><path class="cls-3" d="M192,261.67c-.59-.95-14.34,6.58-30.71,16.81s-29.16,19.29-28.57,20.24q-1.33-2-2.63-4.12c-18.4-29.44-27.93-59-26.48-77.75l27.85-17.13c17.41,7,39.69,28.48,58,57.78Q190.71,259.58,192,261.67Z"/><path class="cls-8" d="M104.75,234.18C116.89,222,154.23,213.91,178,268.41c-4.85,2.77-10.62,6.23-16.76,10.06-16.37,10.23-29.16,19.29-28.57,20.24q-1.33-2-2.63-4.12c-13.43-21.49-22.13-43.05-25.29-60.41Z"/><path class="cls-2" d="M192,261.67c-.59-.95-14.34,6.58-30.71,16.81s-29.16,19.29-28.57,20.24q-1.33-2-2.63-4.12c-18.4-29.44-27.93-59-26.48-77.75l27.85-17.13c17.41,7,39.69,28.48,58,57.78Q190.71,259.58,192,261.67Z"/><rect class="cls-4" x="24.28" y="453.45" width="91" height="16.67"/><path class="cls-3" d="M115.28,453.45h-91v16.67H31.1v-3.26a10,10,0,0,1,10-10h74.18Z"/><rect class="cls-2" x="24.28" y="453.45" width="91" height="16.67"/><path class="cls-6" d="M88.73,134.75H86.49V124.19h-4v-2.05H92.72v2.05h-4Z"/><path class="cls-6" d="M106.2,124.12H99.07v3.28h6.32v2H99.07v3.38h7.22v2H96.86v-12.6h9.34Z"/><path class="cls-6" d="M122.78,134.75h-2.34l-1.28-3h-6l-1.3,3h-2.27l5.55-12.69h2.05Zm-6.61-10-2.16,5h4.34Z"/><path class="cls-6" d="M132.93,131.65h-.07l-3.94-5.91v9h-2.18v-12.6h2.36l3.83,6,3.83-6h2.36v12.6h-2.21v-9Z"/><path class="cls-6" d="M153.6,122.05h1.55v12.69h-2.2V124.3l-2.27.63-.47-1.8Z"/><path class="cls-6" d="M724.37,134.75h-2.23V124.19h-4v-2.05h10.23v2.05h-4Z"/><path class="cls-6" d="M741.85,124.12h-7.13v3.28H741v2h-6.32v3.38h7.22v2h-9.44v-12.6h9.34Z"/><path class="cls-6" d="M758.43,134.75h-2.34l-1.28-3h-6l-1.3,3h-2.27l5.55-12.69h2.05Zm-6.61-10-2.16,5H754Z"/><path class="cls-6" d="M768.58,131.65h-.07l-3.94-5.91v9h-2.18v-12.6h2.36l3.83,6,3.83-6h2.36v12.6h-2.21v-9Z"/><path class="cls-6" d="M788,125.83l-1.57-1.22c1.21-1.69,2.39-2.65,4.65-2.65,2.52,0,4.16,1.53,4.16,3.78,0,2-1,3.08-3.28,4.9l-2.59,2.16h6v1.94h-9.11V133l4.34-3.69c1.73-1.46,2.36-2.27,2.36-3.4a1.89,1.89,0,0,0-2-2C789.78,123.94,789,124.57,788,125.83Z"/><rect class="cls-9" x="238.22" y="107.65" width="411.19" height="238.72"/><path class="cls-10" d="M248,120.83a3.06,3.06,0,1,1-3.06-3.06,3.06,3.06,0,0,1,3.06,3.06"/><path class="cls-11" d="M257.41,120.83a3.06,3.06,0,1,1-3.06-3.06,3.06,3.06,0,0,1,3.06,3.06"/><path class="cls-12" d="M266.87,120.83a3.06,3.06,0,1,1-3.06-3.06,3.06,3.06,0,0,1,3.06,3.06"/><path class="cls-13" d="M262.22,123.43a3,3,0,0,1,4.19-4.19,3.05,3.05,0,1,0-4.19,4.19Z"/><path class="cls-13" d="M252.76,123.43a3,3,0,0,1,4.19-4.19,3.05,3.05,0,1,0-4.19,4.19Z"/><path class="cls-13" d="M243.3,123.43a3,3,0,0,1,4.19-4.19,3.05,3.05,0,1,0-4.19,4.19Z"/><rect class="cls-14" x="242.96" y="136.7" width="403.71" height="206.92"/><rect class="cls-15" x="241.96" y="149.03" width="403.71" height="193.59"/><rect class="cls-16" x="241.96" y="136.7" width="403.71" height="13.33"/><rect class="cls-17" x="241.96" y="135.7" width="403.71" height="13.33"/><rect class="cls-18" x="543.92" y="140.29" width="4.14" height="4.14"/><circle class="cls-18" cx="576.35" cy="142.37" r="2.07"/><circle class="cls-19" cx="638.44" cy="142.37" r="3.45"/><circle class="cls-18" cx="618.21" cy="142.37" r="2.07"/><circle class="cls-18" cx="606.7" cy="142.37" r="2.07"/><circle class="cls-18" cx="595.2" cy="142.37" r="2.07"/><line class="cls-20" x1="627.63" y1="139.6" x2="627.63" y2="145.13"/><rect class="cls-18" x="562.77" y="140.29" width="4.14" height="4.14"/><line class="cls-20" x1="585.78" y1="139.6" x2="585.78" y2="145.13"/><rect class="cls-18" x="532.42" y="140.29" width="4.14" height="4.14"/><line class="cls-20" x1="555.42" y1="139.6" x2="555.42" y2="145.13"/><polygon class="cls-21" points="249.61 145.54 249.61 144.95 249.61 144.94 249.61 142.34 249.61 139.8 249.61 139.2 247.78 140.26 247.78 144.49 249.61 145.55 249.62 145.54 249.61 145.54"/><polygon class="cls-22" points="255.09 144.49 255.09 142.38 254.59 142.67 252.35 143.96 250.12 145.24 249.62 145.54 249.61 145.55 251.43 146.6 255.09 144.49"/><polygon class="cls-23" points="250.13 139.5 252.35 140.79 254.59 142.07 255.09 142.37 255.1 140.26 251.44 138.15 249.61 139.2 250.13 139.5"/><line class="cls-19" x1="258.81" y1="142.38" x2="281.89" y2="142.38"/><rect class="cls-16" x="342.76" y="154.61" width="93.81" height="184.91"/><rect class="cls-24" x="341.97" y="153.82" width="93.81" height="184.91"/><rect class="cls-16" x="342.09" y="162.8" width="93.69" height="8.41"/><rect class="cls-25" x="342.09" y="162" width="93.69" height="8.41"/><line class="cls-26" x1="388.94" y1="162.07" x2="388.94" y2="250.46"/><rect class="cls-16" x="342.09" y="154.52" width="93.69" height="8.27"/><rect class="cls-27" x="342.09" y="153.73" width="93.69" height="8.27"/><rect class="cls-28" x="381.24" y="164.27" width="5.32" height="5.32"/><line class="cls-29" x1="383.34" y1="166.93" x2="384.45" y2="166.93"/><line class="cls-30" x1="344.73" y1="157.87" x2="346.63" y2="157.87"/><line class="cls-29" x1="371.96" y1="166.93" x2="355.13" y2="166.93"/><rect class="cls-26" x="341.97" y="153.82" width="93.81" height="184.91"/><line class="cls-29" x1="379.32" y1="157.62" x2="398.43" y2="157.62"/><rect class="cls-16" x="342.09" y="251.25" width="93.69" height="8.27"/><rect class="cls-27" x="342.09" y="250.46" width="93.69" height="8.27"/><line class="cls-29" x1="379.32" y1="254.35" x2="398.43" y2="254.35"/><rect class="cls-28" x="428.08" y="164.27" width="5.32" height="5.32"/><line class="cls-29" x1="430.18" y1="166.93" x2="431.3" y2="166.93"/><line class="cls-29" x1="418.8" y1="166.93" x2="401.97" y2="166.93"/><rect class="cls-16" x="244.95" y="154.61" width="93.81" height="184.91"/><rect class="cls-24" x="244.16" y="153.82" width="93.81" height="184.91"/><rect class="cls-16" x="244.28" y="162.8" width="93.69" height="8.41"/><rect class="cls-25" x="244.28" y="162" width="93.69" height="8.41"/><rect class="cls-28" x="283.43" y="164.27" width="5.32" height="5.32"/><line class="cls-29" x1="285.53" y1="166.93" x2="286.64" y2="166.93"/><line class="cls-29" x1="274.15" y1="166.93" x2="257.32" y2="166.93"/><rect class="cls-28" x="330.27" y="164.27" width="5.32" height="5.32"/><line class="cls-29" x1="332.37" y1="166.93" x2="333.49" y2="166.93"/><line class="cls-29" x1="321" y1="166.93" x2="304.17" y2="166.93"/><line class="cls-26" x1="291.13" y1="162.07" x2="291.13" y2="338.73"/><rect class="cls-16" x="244.28" y="154.52" width="93.69" height="8.27"/><rect class="cls-27" x="244.28" y="153.73" width="93.69" height="8.27"/><line class="cls-30" x1="246.92" y1="157.87" x2="248.82" y2="157.87"/><rect class="cls-26" x="244.16" y="153.82" width="93.81" height="184.91"/><line class="cls-29" x1="281.51" y1="157.62" x2="300.62" y2="157.62"/><rect class="cls-16" x="635.98" y="154.61" width="8.27" height="184.91"/><rect class="cls-27" x="635.19" y="153.82" width="8.27" height="184.91"/><line class="cls-30" x1="638.19" y1="157.87" x2="640.47" y2="157.87"/><line class="cls-30" x1="639.33" y1="159.01" x2="639.33" y2="156.73"/><rect class="cls-16" x="440.15" y="154.61" width="93.81" height="184.91"/><rect class="cls-24" x="439.35" y="153.82" width="93.81" height="184.91"/><rect class="cls-16" x="439.48" y="162.8" width="93.69" height="8.41"/><rect class="cls-25" x="439.48" y="162" width="93.69" height="8.41"/><line class="cls-26" x1="486.32" y1="162.07" x2="486.32" y2="338.73"/><rect class="cls-16" x="439.48" y="154.52" width="93.69" height="8.27"/><rect class="cls-27" x="439.48" y="153.73" width="93.69" height="8.27"/><line class="cls-30" x1="442.11" y1="157.87" x2="444.01" y2="157.87"/><rect class="cls-26" x="439.35" y="153.82" width="93.81" height="184.91"/><line class="cls-29" x1="476.71" y1="157.62" x2="495.81" y2="157.62"/><rect class="cls-28" x="478.41" y="164.27" width="5.32" height="5.32"/><line class="cls-29" x1="480.51" y1="166.93" x2="481.63" y2="166.93"/><line class="cls-29" x1="469.13" y1="166.93" x2="452.3" y2="166.93"/><rect class="cls-28" x="525.25" y="164.27" width="5.32" height="5.32"/><line class="cls-29" x1="527.36" y1="166.93" x2="528.47" y2="166.93"/><line class="cls-29" x1="515.98" y1="166.93" x2="499.15" y2="166.93"/><rect class="cls-16" x="443.53" y="174.04" width="39.02" height="28.14"/><rect class="cls-31" x="443.03" y="173.54" width="39.02" height="28.14"/><line class="cls-32" x1="443.03" y1="178.9" x2="482.04" y2="178.9"/><line class="cls-33" x1="452.87" y1="195.61" x2="456.22" y2="195.61"/><line class="cls-33" x1="452.87" y1="198.64" x2="464.62" y2="198.64"/><line class="cls-33" x1="446.76" y1="183.35" x2="469.32" y2="183.35"/><line class="cls-33" x1="446.76" y1="186.38" x2="461.6" y2="186.38"/><rect class="cls-4" x="445.9" y="195.36" width="3.63" height="3.52" rx="0.25" ry="0.25"/><path class="cls-4" d="M449.28,195.61v3h-3.13v-3h3.13m0-.5h-3.13a.5.5,0,0,0-.5.5v3a.5.5,0,0,0,.5.5h3.13a.5.5,0,0,0,.5-.5v-3a.5.5,0,0,0-.5-.5Z"/><rect class="cls-34" x="443.03" y="173.54" width="38.93" height="5.48"/><rect class="cls-35" x="477.83" y="176.19" width="8.43" height="8.43"/><path class="cls-36" d="M479,184.11c.52-.3,2.57-.78,2.62-1v-1a2.12,2.12,0,0,1-.31-.79.6.6,0,0,1-.06-.68V180c0-.67.28-1.13.87-1.13s.87.46.87,1.13v.65a.6.6,0,0,1-.06.68,2.13,2.13,0,0,1-.31.79v1c0,.22,2,.67,2.56,1Z"/><rect class="cls-37" x="474.63" y="200.15" width="6.4" height="4.76"/><line class="cls-38" x1="476.95" y1="203.03" x2="478.71" y2="203.03"/><rect class="cls-39" x="474.63" y="198.59" width="6.4" height="1.56"/><line class="cls-40" x1="476.48" y1="197.99" x2="476.48" y2="199.18"/><line class="cls-40" x1="479.18" y1="197.99" x2="479.18" y2="199.18"/><rect class="cls-16" x="346.14" y="208.75" width="39.02" height="28.14"/><rect class="cls-41" x="345.64" y="208.25" width="39.02" height="28.14"/><line class="cls-32" x1="345.64" y1="213.61" x2="384.66" y2="213.61"/><line class="cls-42" x1="355.48" y1="230.32" x2="358.84" y2="230.32"/><line class="cls-42" x1="355.48" y1="233.34" x2="367.23" y2="233.34"/><line class="cls-42" x1="349.38" y1="218.06" x2="371.94" y2="218.06"/><line class="cls-42" x1="349.38" y1="221.08" x2="364.21" y2="221.08"/><rect class="cls-4" x="348.51" y="230.07" width="3.63" height="3.52" rx="0.25" ry="0.25"/><path class="cls-4" d="M351.89,230.32v3h-3.13v-3h3.13m0-.5h-3.13a.5.5,0,0,0-.5.5v3a.5.5,0,0,0,.5.5h3.13a.5.5,0,0,0,.5-.5v-3a.5.5,0,0,0-.5-.5Z"/><rect class="cls-43" x="345.64" y="208.25" width="38.93" height="5.48"/><rect class="cls-35" x="380.44" y="210.9" width="8.43" height="8.43"/><path class="cls-36" d="M381.61,218.82c.52-.3,2.57-.78,2.62-1v-1a2.12,2.12,0,0,1-.31-.79.6.6,0,0,1-.06-.68v-.65c0-.67.28-1.13.87-1.13s.87.46.87,1.13v.65a.6.6,0,0,1-.06.68,2.13,2.13,0,0,1-.31.79v1c0,.22,2,.67,2.56,1Z"/><rect class="cls-37" x="377.24" y="234.86" width="6.4" height="4.76"/><line class="cls-38" x1="379.56" y1="237.74" x2="381.32" y2="237.74"/><rect class="cls-39" x="377.24" y="233.29" width="6.4" height="1.56"/><line class="cls-40" x1="379.09" y1="232.7" x2="379.09" y2="233.89"/><line class="cls-40" x1="381.79" y1="232.7" x2="381.79" y2="233.89"/><rect class="cls-16" x="443.5" y="208.88" width="39.02" height="28.14"/><rect class="cls-44" x="443" y="208.38" width="39.02" height="28.14"/><line class="cls-32" x1="443" y1="213.75" x2="482.02" y2="213.75"/><line class="cls-45" x1="452.85" y1="230.46" x2="456.2" y2="230.46"/><line class="cls-45" x1="452.85" y1="233.48" x2="464.59" y2="233.48"/><line class="cls-45" x1="446.74" y1="218.2" x2="469.3" y2="218.2"/><line class="cls-45" x1="446.74" y1="221.22" x2="461.57" y2="221.22"/><rect class="cls-4" x="445.87" y="230.21" width="3.63" height="3.52" rx="0.25" ry="0.25"/><path class="cls-4" d="M449.25,230.46v3h-3.13v-3h3.13m0-.5h-3.13a.5.5,0,0,0-.5.5v3a.5.5,0,0,0,.5.5h3.13a.5.5,0,0,0,.5-.5v-3a.5.5,0,0,0-.5-.5Z"/><rect class="cls-46" x="443" y="208.38" width="38.93" height="5.48"/><polygon class="cls-35" points="478.19 234.08 479.08 233.19 480.59 232.7 482.1 234.2 481.61 235.71 480.72 236.6 478.19 234.08"/><rect class="cls-47" x="475.51" y="235.19" width="4.62" height="3.57" transform="translate(-27.62 407.28) rotate(-45)"/><circle class="cls-48" cx="480.38" cy="234.41" r="0.22" transform="translate(-25.05 408.34) rotate(-45)"/><rect class="cls-35" x="477.8" y="211.03" width="8.43" height="8.43"/><path class="cls-36" d="M479,219c.52-.3,2.57-.78,2.62-1v-1a2.12,2.12,0,0,1-.31-.79.6.6,0,0,1-.06-.68v-.65c0-.67.28-1.13.87-1.13s.87.46.87,1.13v.65a.6.6,0,0,1-.06.68,2.13,2.13,0,0,1-.31.79v1c0,.22,2,.67,2.56,1Z"/><rect class="cls-16" x="295.24" y="174.04" width="39.02" height="28.14"/><rect class="cls-41" x="294.74" y="173.54" width="39.02" height="28.14"/><line class="cls-32" x1="294.74" y1="178.9" x2="333.75" y2="178.9"/><line class="cls-42" x1="304.58" y1="195.61" x2="307.93" y2="195.61"/><line class="cls-42" x1="304.58" y1="198.64" x2="316.33" y2="198.64"/><line class="cls-42" x1="298.47" y1="183.35" x2="321.03" y2="183.35"/><line class="cls-42" x1="298.47" y1="186.38" x2="313.31" y2="186.38"/><rect class="cls-4" x="297.61" y="195.36" width="3.63" height="3.52" rx="0.25" ry="0.25"/><path class="cls-4" d="M301,195.61v3h-3.13v-3H301m0-.5h-3.13a.5.5,0,0,0-.5.5v3a.5.5,0,0,0,.5.5H301a.5.5,0,0,0,.5-.5v-3a.5.5,0,0,0-.5-.5Z"/><rect class="cls-43" x="294.74" y="173.54" width="38.93" height="5.48"/><rect class="cls-35" x="329.54" y="176.19" width="8.43" height="8.43"/><path class="cls-36" d="M330.71,184.11c.52-.3,2.57-.78,2.62-1v-1a2.12,2.12,0,0,1-.31-.79.6.6,0,0,1-.06-.68V180c0-.67.28-1.13.87-1.13s.87.46.87,1.13v.65a.6.6,0,0,1-.06.68,2.13,2.13,0,0,1-.31.79v1c0,.22,2,.67,2.56,1Z"/><rect class="cls-16" x="443.5" y="243.86" width="39.02" height="28.14"/><rect class="cls-31" x="443" y="243.36" width="39.02" height="28.14"/><line class="cls-32" x1="443" y1="248.73" x2="482.02" y2="248.73"/><line class="cls-33" x1="452.85" y1="265.44" x2="456.2" y2="265.44"/><line class="cls-33" x1="452.85" y1="268.46" x2="464.59" y2="268.46"/><line class="cls-33" x1="446.74" y1="253.18" x2="469.3" y2="253.18"/><line class="cls-33" x1="446.74" y1="256.2" x2="461.57" y2="256.2"/><rect class="cls-4" x="445.87" y="265.19" width="3.63" height="3.52" rx="0.25" ry="0.25"/><path class="cls-4" d="M449.25,265.44v3h-3.13v-3h3.13m0-.5h-3.13a.5.5,0,0,0-.5.5v3a.5.5,0,0,0,.5.5h3.13a.5.5,0,0,0,.5-.5v-3a.5.5,0,0,0-.5-.5Z"/><rect class="cls-34" x="443" y="243.36" width="38.93" height="5.48"/><rect class="cls-35" x="477.8" y="246.01" width="8.43" height="8.43"/><path class="cls-36" d="M479,253.93c.52-.3,2.57-.78,2.62-1v-1a2.12,2.12,0,0,1-.31-.79.6.6,0,0,1-.06-.68v-.65c0-.67.28-1.13.87-1.13s.87.46.87,1.13v.65a.6.6,0,0,1-.06.68,2.13,2.13,0,0,1-.31.79v1c0,.22,2,.67,2.56,1Z"/><rect class="cls-16" x="490.58" y="174.27" width="39.02" height="28.14"/><rect class="cls-44" x="490.08" y="173.77" width="39.02" height="28.14"/><line class="cls-32" x1="490.08" y1="179.13" x2="529.1" y2="179.13"/><line class="cls-45" x1="499.92" y1="195.84" x2="503.28" y2="195.84"/><line class="cls-45" x1="499.92" y1="198.86" x2="511.67" y2="198.86"/><line class="cls-45" x1="493.82" y1="183.58" x2="516.37" y2="183.58"/><line class="cls-45" x1="493.82" y1="186.6" x2="508.65" y2="186.6"/><rect class="cls-4" x="492.95" y="195.59" width="3.63" height="3.52" rx="0.25" ry="0.25"/><path class="cls-4" d="M496.33,195.84v3H493.2v-3h3.13m0-.5H493.2a.5.5,0,0,0-.5.5v3a.5.5,0,0,0,.5.5h3.13a.5.5,0,0,0,.5-.5v-3a.5.5,0,0,0-.5-.5Z"/><rect class="cls-46" x="490.08" y="173.77" width="38.93" height="5.48"/><rect class="cls-35" x="524.88" y="176.42" width="8.43" height="8.43"/><path class="cls-36" d="M526,184.34c.52-.3,2.57-.78,2.62-1v-1a2.12,2.12,0,0,1-.31-.79.6.6,0,0,1-.06-.68v-.65c0-.67.28-1.13.87-1.13s.87.46.87,1.13v.65a.6.6,0,0,1-.06.68,2.13,2.13,0,0,1-.31.79v1c0,.22,2,.67,2.56,1Z"/><rect class="cls-16" x="346.14" y="174.08" width="39.02" height="28.14"/><rect class="cls-49" x="345.64" y="173.58" width="39.02" height="28.14"/><line class="cls-32" x1="345.64" y1="178.95" x2="384.66" y2="178.95"/><line class="cls-50" x1="355.48" y1="195.66" x2="358.84" y2="195.66"/><line class="cls-50" x1="355.48" y1="198.68" x2="367.23" y2="198.68"/><line class="cls-50" x1="349.38" y1="183.4" x2="371.94" y2="183.4"/><line class="cls-50" x1="349.38" y1="186.42" x2="364.21" y2="186.42"/><rect class="cls-4" x="348.51" y="195.41" width="3.63" height="3.52" rx="0.25" ry="0.25"/><path class="cls-4" d="M351.89,195.66v3h-3.13v-3h3.13m0-.5h-3.13a.5.5,0,0,0-.5.5v3a.5.5,0,0,0,.5.5h3.13a.5.5,0,0,0,.5-.5v-3a.5.5,0,0,0-.5-.5Z"/><rect class="cls-51" x="345.64" y="173.58" width="38.93" height="5.48"/><rect class="cls-35" x="380.44" y="176.23" width="8.43" height="8.43"/><path class="cls-36" d="M381.61,184.15c.52-.3,2.57-.78,2.62-1v-1a2.12,2.12,0,0,1-.31-.79.6.6,0,0,1-.06-.68V180c0-.67.28-1.13.87-1.13s.87.46.87,1.13v.65a.6.6,0,0,1-.06.68,2.13,2.13,0,0,1-.31.79v1c0,.22,2,.67,2.56,1Z"/><polygon class="cls-35" points="380.83 199.28 381.72 198.39 383.23 197.9 384.74 199.41 384.25 200.91 383.36 201.8 380.83 199.28"/><rect class="cls-47" x="378.15" y="200.39" width="4.62" height="3.57" transform="translate(-31.53 328.24) rotate(-45)"/><circle class="cls-48" cx="383.02" cy="199.61" r="0.22" transform="translate(-28.96 329.3) rotate(-45)"/><rect class="cls-35" x="477.8" y="211.03" width="8.43" height="8.43"/><path class="cls-36" d="M479,219c.52-.3,2.57-.78,2.62-1v-1a2.12,2.12,0,0,1-.31-.79.6.6,0,0,1-.06-.68v-.65c0-.67.28-1.13.87-1.13s.87.46.87,1.13v.65a.6.6,0,0,1-.06.68,2.13,2.13,0,0,1-.31.79v1c0,.22,2,.67,2.56,1Z"/><rect class="cls-16" x="393.05" y="174.08" width="39.02" height="28.14"/><rect class="cls-49" x="392.55" y="173.58" width="39.02" height="28.14"/><line class="cls-32" x1="392.55" y1="178.95" x2="431.56" y2="178.95"/><line class="cls-50" x1="402.39" y1="195.66" x2="405.74" y2="195.66"/><line class="cls-50" x1="402.39" y1="198.68" x2="414.14" y2="198.68"/><line class="cls-50" x1="396.28" y1="183.4" x2="418.84" y2="183.4"/><line class="cls-50" x1="396.28" y1="186.42" x2="411.12" y2="186.42"/><rect class="cls-4" x="395.42" y="195.41" width="3.63" height="3.52" rx="0.25" ry="0.25"/><path class="cls-4" d="M398.8,195.66v3h-3.13v-3h3.13m0-.5h-3.13a.5.5,0,0,0-.5.5v3a.5.5,0,0,0,.5.5h3.13a.5.5,0,0,0,.5-.5v-3a.5.5,0,0,0-.5-.5Z"/><rect class="cls-51" x="392.55" y="173.58" width="38.93" height="5.48"/><rect class="cls-35" x="427.35" y="176.23" width="8.43" height="8.43"/><path class="cls-36" d="M428.52,184.15c.52-.3,2.57-.78,2.62-1v-1a2.12,2.12,0,0,1-.31-.79.6.6,0,0,1-.06-.68V180c0-.67.28-1.13.87-1.13s.87.46.87,1.13v.65a.6.6,0,0,1-.06.68,2.13,2.13,0,0,1-.31.79v1c0,.22,2,.67,2.56,1Z"/><rect class="cls-16" x="537.87" y="154.61" width="93.81" height="184.91"/><rect class="cls-24" x="537.07" y="153.82" width="93.81" height="184.91"/><rect class="cls-16" x="537.2" y="162.8" width="93.69" height="8.41"/><rect class="cls-25" x="537.2" y="162" width="93.69" height="8.41"/><line class="cls-26" x1="584.04" y1="162.07" x2="584.04" y2="250.46"/><rect class="cls-16" x="537.2" y="154.52" width="93.69" height="8.27"/><rect class="cls-27" x="537.2" y="153.73" width="93.69" height="8.27"/><line class="cls-30" x1="539.83" y1="157.87" x2="541.73" y2="157.87"/><rect class="cls-26" x="537.07" y="153.82" width="93.81" height="184.91"/><line class="cls-29" x1="574.43" y1="157.62" x2="593.53" y2="157.62"/><rect class="cls-16" x="537.2" y="251.25" width="93.69" height="8.27"/><rect class="cls-27" x="537.2" y="250.46" width="93.69" height="8.27"/><line class="cls-29" x1="574.43" y1="254.35" x2="593.53" y2="254.35"/><rect class="cls-28" x="576.34" y="164.27" width="5.32" height="5.32"/><line class="cls-29" x1="578.44" y1="166.93" x2="579.56" y2="166.93"/><line class="cls-29" x1="567.06" y1="166.93" x2="550.23" y2="166.93"/><rect class="cls-28" x="623.19" y="164.27" width="5.32" height="5.32"/><line class="cls-29" x1="625.29" y1="166.93" x2="626.4" y2="166.93"/><line class="cls-29" x1="613.91" y1="166.93" x2="597.08" y2="166.93"/><rect class="cls-16" x="541.28" y="174.08" width="39.02" height="28.14"/><rect class="cls-44" x="540.78" y="173.58" width="39.02" height="28.14"/><line class="cls-32" x1="540.78" y1="178.95" x2="579.8" y2="178.95"/><line class="cls-45" x1="550.63" y1="195.66" x2="553.98" y2="195.66"/><line class="cls-45" x1="550.63" y1="198.68" x2="562.37" y2="198.68"/><line class="cls-45" x1="544.52" y1="183.4" x2="567.08" y2="183.4"/><line class="cls-45" x1="544.52" y1="186.42" x2="559.35" y2="186.42"/><rect class="cls-4" x="543.65" y="195.41" width="3.63" height="3.52" rx="0.25" ry="0.25"/><path class="cls-4" d="M547,195.66v3H543.9v-3H547m0-.5H543.9a.5.5,0,0,0-.5.5v3a.5.5,0,0,0,.5.5H547a.5.5,0,0,0,.5-.5v-3a.5.5,0,0,0-.5-.5Z"/><rect class="cls-46" x="540.78" y="173.58" width="38.93" height="5.48"/><rect class="cls-35" x="575.58" y="176.23" width="8.43" height="8.43"/><path class="cls-36" d="M576.75,184.15c.52-.3,2.57-.78,2.62-1v-1a2.12,2.12,0,0,1-.31-.79.6.6,0,0,1-.06-.68V180c0-.67.28-1.13.87-1.13s.87.46.87,1.13v.65a.6.6,0,0,1-.06.68,2.13,2.13,0,0,1-.31.79v1c0,.22,2,.67,2.56,1Z"/><rect class="cls-37" x="565.97" y="200.19" width="6.4" height="4.76"/><line class="cls-38" x1="568.29" y1="203.07" x2="570.05" y2="203.07"/><rect class="cls-39" x="565.97" y="198.63" width="6.4" height="1.56"/><line class="cls-40" x1="567.82" y1="198.04" x2="567.82" y2="199.22"/><line class="cls-40" x1="570.52" y1="198.04" x2="570.52" y2="199.22"/><polygon class="cls-35" points="577.48 199.52 578.37 198.63 579.88 198.14 581.38 199.65 580.9 201.15 580 202.04 577.48 199.52"/><rect class="cls-47" x="574.8" y="200.63" width="4.62" height="3.57" transform="translate(25.9 467.36) rotate(-45)"/><circle class="cls-48" cx="579.67" cy="199.85" r="0.22" transform="translate(28.47 468.43) rotate(-45)"/><rect class="cls-16" x="248.33" y="174.04" width="39.02" height="28.14"/><rect class="cls-49" x="247.83" y="173.54" width="39.02" height="28.14"/><line class="cls-32" x1="247.83" y1="178.9" x2="286.85" y2="178.9"/><line class="cls-50" x1="257.67" y1="195.61" x2="261.03" y2="195.61"/><line class="cls-50" x1="257.67" y1="198.64" x2="269.42" y2="198.64"/><line class="cls-50" x1="251.57" y1="183.35" x2="274.13" y2="183.35"/><line class="cls-50" x1="251.57" y1="186.38" x2="266.4" y2="186.38"/><rect class="cls-4" x="250.7" y="195.36" width="3.63" height="3.52" rx="0.25" ry="0.25"/><path class="cls-4" d="M254.08,195.61v3H251v-3h3.13m0-.5H251a.5.5,0,0,0-.5.5v3a.5.5,0,0,0,.5.5h3.13a.5.5,0,0,0,.5-.5v-3a.5.5,0,0,0-.5-.5Z"/><rect class="cls-51" x="247.83" y="173.54" width="38.93" height="5.48"/><rect class="cls-35" x="282.63" y="176.19" width="8.43" height="8.43"/><path class="cls-36" d="M283.8,184.11c.52-.3,2.57-.78,2.62-1v-1a2.12,2.12,0,0,1-.31-.79.6.6,0,0,1-.06-.68V180c0-.67.28-1.13.87-1.13s.87.46.87,1.13v.65a.6.6,0,0,1-.06.68,2.13,2.13,0,0,1-.31.79v1c0,.22,2,.67,2.56,1Z"/><rect class="cls-37" x="273.02" y="200.15" width="6.4" height="4.76"/><line class="cls-38" x1="275.34" y1="203.03" x2="277.1" y2="203.03"/><rect class="cls-39" x="273.02" y="198.59" width="6.4" height="1.56"/><line class="cls-40" x1="274.87" y1="197.99" x2="274.87" y2="199.18"/><line class="cls-40" x1="277.57" y1="197.99" x2="277.57" y2="199.18"/><polygon class="cls-35" points="284.53 199.48 285.42 198.59 286.93 198.1 288.44 199.6 287.95 201.11 287.06 202 284.53 199.48"/><rect class="cls-47" x="281.85" y="200.59" width="4.62" height="3.57" transform="translate(-59.87 260.2) rotate(-45)"/><circle class="cls-48" cx="286.72" cy="199.81" r="0.22" transform="translate(-57.31 261.27) rotate(-45)"/><g class="cls-52"><rect class="cls-25" x="541.28" y="262.74" width="39.02" height="28.14"/></g><rect class="cls-31" x="540.78" y="262.24" width="39.02" height="28.14"/><rect class="cls-34" x="540.78" y="262.24" width="39.02" height="5.48"/><line class="cls-33" x1="550.63" y1="284.31" x2="553.98" y2="284.31"/><line class="cls-33" x1="550.63" y1="287.33" x2="562.37" y2="287.33"/><line class="cls-33" x1="544.52" y1="272.05" x2="567.08" y2="272.05"/><line class="cls-33" x1="544.52" y1="275.07" x2="559.35" y2="275.07"/><rect class="cls-4" x="543.65" y="284.06" width="3.63" height="3.52" rx="0.25" ry="0.25"/><path class="cls-4" d="M547,284.31v3H543.9v-3H547m0-.5H543.9a.5.5,0,0,0-.5.5v3a.5.5,0,0,0,.5.5H547a.5.5,0,0,0,.5-.5v-3a.5.5,0,0,0-.5-.5Z"/><polygon class="cls-39" points="576.87 287.52 573.85 287.52 571.71 289.66 571.71 292.68 573.85 294.82 576.87 294.82 579.01 292.68 579.01 289.66 576.87 287.52"/><rect class="cls-35" x="575.58" y="264.89" width="8.43" height="8.43"/><path class="cls-36" d="M576.75,272.81c.52-.3,2.57-.78,2.62-1v-1a2.12,2.12,0,0,1-.31-.79.6.6,0,0,1-.06-.68v-.65c0-.67.28-1.13.87-1.13s.87.46.87,1.13v.65a.6.6,0,0,1-.06.68,2.13,2.13,0,0,1-.31.79v1c0,.22,2,.67,2.56,1Z"/><line class="cls-53" x1="574.03" y1="289.84" x2="576.69" y2="292.5"/><line class="cls-53" x1="574.03" y1="292.5" x2="576.69" y2="289.84"/><line class="cls-2" x1="342.7" y1="470.11" x2="545.38" y2="470.11"/><line class="cls-2" x1="555.84" y1="470.11" x2="560.1" y2="470.11"/><line class="cls-2" x1="527.79" y1="452.6" x2="576.19" y2="452.6"/><line class="cls-2" x1="625.51" y1="452.6" x2="631.36" y2="452.6"/><line class="cls-2" x1="595.32" y1="452.6" x2="611.9" y2="452.6"/><line class="cls-2" x1="359.83" y1="452.6" x2="311.43" y2="452.6"/><line class="cls-2" x1="298.3" y1="452.6" x2="289.22" y2="452.6"/><line class="cls-2" x1="471.75" y1="487.62" x2="423.35" y2="487.62"/><line class="cls-2" x1="411.72" y1="487.62" x2="404.14" y2="487.62"/><line class="cls-2" x1="479.73" y1="487.62" x2="483.48" y2="487.62"/><path class="cls-54" d="M511.57,466.14l-17-17a13.14,13.14,0,0,1-3.3-9.55l6.47-54.4a4.88,4.88,0,0,0-5-5.57H395.26a4.88,4.88,0,0,0-5,5.57l6.47,54.4h0a13.13,13.13,0,0,1-3.3,9.55l-17,17c-2.18,2.19-1.44,4,1.65,4H509.92C513,470.11,513.75,468.33,511.57,466.14Z"/><polygon class="cls-55" points="394.52 419.88 493.12 424.86 495.5 404.88 392.73 404.88 394.52 419.88"/><line class="cls-56" x1="393.47" y1="449.14" x2="475.22" y2="449.14"/><polygon class="cls-14" points="239.69 346.67 239.69 109.34 649.93 109.34 649.93 107.34 237.69 107.34 237.69 346.67 239.69 346.67"/><path class="cls-57" d="M651.73,85.74H235.89a18,18,0,0,0-18,18V364.67H669.73V103.74A18,18,0,0,0,651.73,85.74Zm-1.8,260.93H237.69V107.34H649.93Z"/><path class="cls-54" d="M651.73,404.88H235.89a18,18,0,0,1-18-18V364.67H669.73v22.21A18,18,0,0,1,651.73,404.88Z"/><path class="cls-55" d="M669.73,386.88V367.67H222.89v22.21a18,18,0,0,0,6.37,13.72,17.92,17.92,0,0,0,6.63,1.28H651.73A18,18,0,0,0,669.73,386.88Z"/><line class="cls-58" x1="425.71" y1="384.77" x2="461.91" y2="384.77"/><path class="cls-55" d="M656.73,90.74H240.89a18,18,0,0,0-18,18V364.67H669.73V103.74a17.91,17.91,0,0,0-3-10A17.91,17.91,0,0,0,656.73,90.74Zm-2.8,259.93H241.69l-4-4V107.34H649.93l4,4Z"/><path class="cls-59" d="M651.73,85.74H235.89a18,18,0,0,0-18,18V364.67H669.73V103.74A18,18,0,0,0,651.73,85.74Zm-1.8,260.93H237.69V107.34H649.93Z"/><line class="cls-60" x1="438.12" y1="28.31" x2="438.12" y2="474.21"/><line class="cls-2" x1="438.12" y1="28.31" x2="438.12" y2="487.65"/><polyline class="cls-61" points="114.14 102.31 119.32 107.5 124.5 102.31"/><rect class="cls-61" x="228.44" y="130.3" width="206.69" height="223.41" rx="10" ry="10"/><path class="cls-61" d="M338.81,130.3V86.56a20,20,0,0,0-20-20H139.32a20,20,0,0,0-20,20V107.5"/><polyline class="cls-61" points="762.11 102.31 756.92 107.5 751.74 102.31"/><path class="cls-61" d="M537.44,130.3V86.56a20,20,0,0,1,20-20H736.92a20,20,0,0,1,20,20V107.5"/><rect class="cls-61" x="441.13" y="130.3" width="216.69" height="223.41" rx="10" ry="10" transform="translate(1098.95 484.01) rotate(-180)"/><line class="cls-2" x1="404.49" y1="28.31" x2="452.9" y2="28.31"/><line class="cls-2" x1="464.52" y1="28.31" x2="472.11" y2="28.31"/><line class="cls-2" x1="396.52" y1="28.31" x2="392.77" y2="28.31"/><line class="cls-2" x1="195.13" y1="487.62" x2="242.83" y2="487.62"/><line class="cls-2" x1="191.63" y1="487.62" x2="189.45" y2="487.62"/><rect class="cls-62" x="196.93" y="394.92" width="44.1" height="92.7" rx="5.4" ry="5.4"/><path class="cls-3" d="M199.93,485.22v-81.9a5.42,5.42,0,0,1,5.4-5.4h33.3a5.34,5.34,0,0,1,2,.39,5.42,5.42,0,0,0-5-3.39h-33.3a5.42,5.42,0,0,0-5.4,5.4v81.9a5.42,5.42,0,0,0,3.39,5A5.34,5.34,0,0,1,199.93,485.22Z"/><rect class="cls-2" x="196.93" y="394.92" width="44.1" height="92.7" rx="5.4" ry="5.4"/><rect class="cls-63" x="199.74" y="408.2" width="38.48" height="64.8"/><polygon class="cls-64" points="221.58 422.27 205.96 422.27 203.34 424.07 203.34 411.8 221.58 411.8 221.58 422.27"/><polygon class="cls-64" points="221.58 454.68 205.96 454.68 203.34 456.48 203.34 444.2 221.58 444.2 221.58 454.68"/><polygon class="cls-64" points="216.38 438.15 232 438.15 234.62 439.95 234.62 427.68 216.38 427.68 216.38 438.15"/><path class="cls-63" d="M219.81,432h11.37m-11.37,2.47h11.37m-24.41-18.35h11.37m-11.37,2.47h11.37"/><path class="cls-6" d="M208.92,448.42a.9.9,0,0,0,0,1.8.9.9,0,0,0,0-1.8"/><path class="cls-6" d="M212.46,448.46a.9.9,0,0,0,0,1.8.9.9,0,0,0,0-1.8"/><path class="cls-6" d="M216,448.46a.9.9,0,0,0,0,1.8.9.9,0,0,0,0-1.8"/><path class="cls-63" d="M215.27,403h7.43m0,78.3a3.71,3.71,0,1,1-3.71-3.71A3.71,3.71,0,0,1,222.69,481.32Z"/><line class="cls-63" x1="212.84" y1="403.02" x2="211.96" y2="403.02"/><line class="cls-2" x1="657.19" y1="487.72" x2="615.51" y2="487.72"/><line class="cls-2" x1="660.38" y1="487.72" x2="661.12" y2="487.72"/><line class="cls-2" x1="611.82" y1="487.72" x2="611.08" y2="487.72"/><ellipse class="cls-7" cx="636.6" cy="441.7" rx="22.78" ry="1.14"/><path class="cls-3" d="M613.07,422l5.44,65.75c0,.63,8.1,1.14,18.09,1.14s18.09-.51,18.09-1.14L660.13,422Z"/><path class="cls-27" d="M613.34,425.31l-.28-3.34h47.06l-5.44,65.75c0,.63-8.1,1.14-18.09,1.14s-18.09-.51-18.09-1.14v-3c0,.08.47.15,1.3.22a32.17,32.17,0,0,0,34.55-29.5l2.49-30.13Z"/><path class="cls-2" d="M613.07,422l5.44,65.75c0,.63,8.1,1.14,18.09,1.14s18.09-.51,18.09-1.14L660.13,422Z"/><line class="cls-63" x1="617.61" y1="428.55" x2="621.96" y2="481.15"/><path class="cls-5" d="M659.38,441.7c0,.63-10.2,1.14-22.78,1.14s-22.78-.51-22.78-1.14L616,468c0,.63,9.23,1.14,20.61,1.14s20.61-.51,20.61-1.14Z"/><line class="cls-63" x1="617.63" y1="446.96" x2="618.94" y2="462.74"/><polygon class="cls-7" points="658.88 417.72 614.32 417.72 615.82 412.22 657.38 412.22 658.88 417.72"/><path class="cls-7" d="M612.53,417.72h48.13a.5.5,0,0,1,.5.5v1.62a0,0,0,0,1,0,0H612a0,0,0,0,1,0,0v-1.62A.5.5,0,0,1,612.53,417.72Z"/><path class="cls-7" d="M611.72,419.85h49.75a1,1,0,0,1,1,1V422a0,0,0,0,1,0,0H610.72a0,0,0,0,1,0,0v-1.12A1,1,0,0,1,611.72,419.85Z"/><line class="cls-7" x1="610.13" y1="421.97" x2="663.07" y2="421.97"/><path class="cls-65" d="M617.75,393.85c0-7.55,6.45-6.8,6.45-14"/><path class="cls-65" d="M621,402.86c0-7.55,6.45-6.8,6.45-14"/><line class="cls-2" x1="703.74" y1="452.79" x2="828.84" y2="452.79"/><line class="cls-7" x1="832.17" y1="452.79" x2="834.5" y2="452.79"/><rect class="cls-5" x="706.98" y="344.66" width="118.62" height="108.14"/><rect class="cls-3" x="711.84" y="346.28" width="108.9" height="104.9"/><polygon class="cls-4" points="711.84 451.17 820.74 451.17 820.74 441.6 766.29 447.52 711.84 436.6 711.84 451.17"/><rect class="cls-66" x="711.84" y="346.28" width="108.9" height="104.9"/><line class="cls-63" x1="822.19" y1="451.17" x2="822.19" y2="346.28"/><line class="cls-63" x1="823.17" y1="451.17" x2="823.17" y2="346.28"/><line class="cls-63" x1="824.15" y1="451.17" x2="824.15" y2="346.28"/><line class="cls-63" x1="710.39" y1="346.28" x2="710.39" y2="451.17"/><line class="cls-63" x1="709.41" y1="346.28" x2="709.41" y2="451.17"/><line class="cls-63" x1="708.43" y1="346.28" x2="708.43" y2="451.17"/><line class="cls-67" x1="766.29" y1="344.93" x2="766.29" y2="452.52"/><path class="cls-63" d="M792.45,426.6h17.68m-17.68-16.06h17.68l-17.68,5.94m0-23.08h17.68l-17.68,6.75h17.68m-17.68-28.41h17.68l-17.68,5.73,17.68,2.16-17.68,4.72h17.68"/><polygon class="cls-68" points="758.13 409.95 760.59 408.33 763.05 409.95 763.05 344.75 758.13 344.75 758.13 409.95"/><line class="cls-2" x1="698.72" y1="452.79" x2="695.66" y2="452.79"/><line class="cls-65" x1="272.55" y1="234.87" x2="387.45" y2="139.14"/><line class="cls-65" x1="273.4" y1="189.17" x2="342.34" y2="131.73"/></g></g></svg>