<?xml version="1.0" encoding="UTF-8" standalone="no"?>
<svg
   xmlns:dc="http://purl.org/dc/elements/1.1/"
   xmlns:cc="http://creativecommons.org/ns#"
   xmlns:rdf="http://www.w3.org/1999/02/22-rdf-syntax-ns#"
   xmlns:svg="http://www.w3.org/2000/svg"
   xmlns="http://www.w3.org/2000/svg"
   viewBox="0 0 223.88 71.146667"
   height="71.146667"
   width="223.88"
   xml:space="preserve"
   id="svg2"
   version="1.1"><metadata
     id="metadata8"><rdf:RDF><cc:Work
         rdf:about=""><dc:format>image/svg+xml</dc:format><dc:type
           rdf:resource="http://purl.org/dc/dcmitype/StillImage" /></cc:Work></rdf:RDF></metadata><defs
     id="defs6" /><g
     transform="matrix(1.3333333,0,0,-1.3333333,0,71.146667)"
     id="g10"><g
       transform="scale(0.1)"
       id="g12"><path
         id="path14"
         style="fill:#2f2d2e;fill-opacity:1;fill-rule:nonzero;stroke:none"
         d="m 688.016,457.859 c 0,-11.699 -4.114,-20.722 -12.207,-26.816 -8.313,-6.23 -20.832,-9.387 -37.2,-9.387 h -34.101 v 71.797 h 34.101 c 15.813,0 28.215,-2.937 36.868,-8.719 8.437,-5.675 12.539,-14.464 12.539,-26.875 z m 5.937,44.766 h -0.012 c -6.543,4.863 -14.453,8.535 -23.503,10.898 -8.985,2.344 -19.094,3.536 -30.032,3.536 h -47.097 c -9.934,0 -15.403,-5.469 -15.403,-15.403 V 312.059 c 0,-3.008 0.508,-5.469 1.496,-7.325 0.946,-1.796 2.118,-3.254 3.457,-4.336 1.368,-1.144 2.86,-1.914 4.434,-2.316 1.387,-0.352 2.664,-0.527 3.914,-0.527 0.977,0 2.188,0.168 3.731,0.519 1.699,0.399 3.253,1.18 4.601,2.305 1.367,1.121 2.539,2.586 3.477,4.355 0.984,1.856 1.492,4.317 1.492,7.325 v 86.296 h 35.305 c 10.945,0 21.113,1.243 30.195,3.684 9.219,2.5 17.168,6.219 23.64,11.055 6.582,4.91 11.778,11.172 15.461,18.601 3.653,7.422 5.508,16.231 5.508,26.164 0,9.93 -1.808,18.719 -5.363,26.121 -3.563,7.442 -8.711,13.711 -15.301,18.645" /><path
         id="path16"
         style="fill:#2f2d2e;fill-opacity:1;fill-rule:nonzero;stroke:none"
         d="m 746.676,299.949 c 1.269,-0.879 2.656,-1.504 4.113,-1.867 1.387,-0.352 2.566,-0.527 3.613,-0.527 1.036,0 2.215,0.175 3.621,0.527 1.457,0.371 2.832,0.996 4.133,1.875 1.297,0.918 2.461,2.324 3.457,4.172 0.996,1.875 1.485,4.18 1.485,7.031 v 208.789 c 0,2.852 -0.489,5.156 -1.485,7.031 -0.988,1.836 -2.16,3.25 -3.476,4.18 l -0.02,0.02 c -1.25,0.847 -2.629,1.472 -4.113,1.855 -2.91,0.731 -4.305,0.723 -7.234,0 -1.465,-0.39 -2.844,-1.015 -4.102,-1.875 -1.348,-0.957 -2.492,-2.324 -3.477,-4.18 -0.996,-1.875 -1.484,-4.179 -1.484,-7.031 V 311.16 c 0,-2.851 0.488,-5.156 1.484,-7.031 0.985,-1.856 2.157,-3.262 3.485,-4.18" /><path
         id="path18"
         style="fill:#2f2d2e;fill-opacity:1;fill-rule:nonzero;stroke:none"
         d="m 893.098,369.852 v -7.989 c 0,-5.879 -0.957,-11.554 -2.864,-16.867 -1.875,-5.273 -4.636,-10 -8.211,-14.031 -3.527,-3.996 -7.98,-7.219 -13.234,-9.57 -5.254,-2.344 -11.367,-3.536 -18.187,-3.536 -3.817,0 -7.606,0.43 -11.278,1.289 -3.594,0.821 -6.906,2.215 -9.844,4.141 -2.871,1.895 -5.167,4.375 -6.835,7.402 -1.692,2.997 -2.54,6.817 -2.54,11.368 0,5.918 1.895,10.507 5.782,14.043 4.09,3.73 9.472,6.628 15.996,8.621 6.699,2.023 14.289,3.398 22.562,4.082 8.438,0.695 16.903,1.047 25.157,1.047 z m 22.156,-69.27 c 2.355,2.102 3.547,5.156 3.547,9.074 0,0.664 -0.047,1.532 -0.168,2.664 -0.106,1.035 -0.254,2.18 -0.449,3.41 -0.399,2.684 -0.645,5.36 -0.743,7.969 -0.097,2.664 -0.136,5.996 -0.136,9.961 v 61.492 c 0,8.899 -1.485,16.797 -4.422,23.496 -2.942,6.739 -7.11,12.395 -12.383,16.829 -5.215,4.394 -11.359,7.722 -18.234,9.91 -6.844,2.168 -14.266,3.273 -22.071,3.273 -10.812,0 -20.773,-1.515 -29.593,-4.492 -8.868,-2.988 -16.122,-6.945 -21.59,-11.777 -3.125,-2.883 -4.707,-6.016 -4.707,-9.336 0,-3.313 1.074,-5.996 3.203,-7.989 4.297,-4.003 9.531,-3.937 16.043,0.254 10.508,7.45 22.129,11.231 34.547,11.231 11.492,0 20.3,-2.793 26.179,-8.313 5.852,-5.488 8.821,-14.062 8.821,-25.476 v -2.012 c -11.856,-0.059 -23.535,-0.52 -34.739,-1.348 -12.074,-0.918 -22.933,-2.98 -32.257,-6.132 -9.59,-3.235 -17.375,-8.223 -23.125,-14.825 -5.891,-6.73 -8.868,-15.91 -8.868,-27.285 0,-8.222 1.68,-15.305 4.981,-21.055 3.262,-5.683 7.43,-10.39 12.402,-13.984 4.91,-3.547 10.438,-6.152 16.426,-7.734 5.867,-1.543 11.68,-2.324 17.285,-2.324 11.731,0 21.957,2.156 30.383,6.414 6.867,3.468 13.203,8.82 18.887,15.929 0.148,-2.843 0.402,-5.683 0.742,-8.476 0.723,-5.274 2.453,-8.625 5.285,-10.235 2.5,-1.437 4.727,-2.14 6.805,-2.14 3.008,0 5.683,1.015 7.949,3.027" /><path
         id="path20"
         style="fill:#2f2d2e;fill-opacity:1;fill-rule:nonzero;stroke:none"
         d="m 952.551,422.938 c 0.097,-2.168 0.144,-4.219 0.144,-6.184 V 311.16 c 0,-2.812 0.508,-5.176 1.496,-7.031 0.985,-1.856 2.157,-3.262 3.485,-4.18 1.25,-0.871 2.637,-1.504 4.113,-1.867 2.734,-0.703 4.422,-0.703 7.215,0 1.465,0.363 2.851,0.988 4.141,1.875 1.3,0.918 2.46,2.324 3.457,4.172 0.996,1.875 1.503,4.238 1.503,7.031 v 62.996 c 0,9.114 1.165,17.063 3.458,23.625 2.285,6.563 5.343,12.032 9.113,16.27 3.719,4.199 8.015,7.363 12.764,9.402 4.75,2.063 9.72,3.098 14.76,3.098 7,0 12.83,-1.125 17.36,-3.34 4.46,-2.188 8.07,-5.285 10.72,-9.199 2.71,-4.016 4.65,-8.907 5.77,-14.551 1.16,-5.773 1.75,-12.363 1.75,-19.609 V 311.16 c 0,-2.812 0.51,-5.176 1.49,-7.043 1,-1.844 2.17,-3.25 3.48,-4.168 1.23,-0.859 2.62,-1.484 4.12,-1.867 1.39,-0.352 2.6,-0.527 3.62,-0.527 1.01,0 2.22,0.175 3.59,0.527 1.47,0.363 2.86,0.988 4.12,1.867 1.33,0.918 2.5,2.324 3.49,4.18 0.99,1.875 1.49,4.238 1.49,7.031 v 77.09 c 0,17.918 -4.69,32.598 -13.93,43.613 -9.36,11.141 -23.48,16.797 -41.97,16.797 -10.39,0 -20.4,-2.687 -29.726,-7.988 -6.933,-3.918 -12.519,-8.801 -16.66,-14.563 l -0.312,8.047 c 0,2.824 -0.528,5.129 -1.571,6.875 -0.957,1.535 -2.062,2.805 -3.273,3.782 -1.27,1.023 -2.703,1.707 -4.266,2.011 -2.472,0.449 -4.133,0.547 -6.808,-0.215 -1.375,-0.371 -2.696,-0.996 -3.907,-1.855 -1.347,-0.949 -2.48,-2.316 -3.359,-4.074 -0.887,-1.746 -1.316,-3.887 -1.316,-6.524 0,-1.238 0.046,-2.879 0.144,-4.91 l 0.305,-6.308" /><path
         id="path22"
         style="fill:#2f2d2e;fill-opacity:1;fill-rule:nonzero;stroke:none"
         d="m 1234.59,435.055 c 0,3.496 -1.22,6.425 -3.63,8.722 -2.37,2.246 -5.52,3.379 -9.36,3.379 -2.28,0 -4.54,-0.683 -6.72,-2.023 -2.29,-1.406 -4.15,-3.992 -5.5,-7.664 l -42.98,-107.715 -42.7,107.754 c -1.62,3.945 -3.67,6.582 -6.1,7.851 -2.27,1.192 -4.42,1.797 -6.41,1.797 -3.84,0 -7.05,-1.191 -9.51,-3.535 -2.51,-2.363 -3.79,-5.344 -3.79,-8.867 0,-1.887 0.45,-4.055 1.41,-6.68 l 49.49,-117.578 c 2.22,-5.351 5.04,-8.906 8.4,-10.566 3.12,-1.575 6.12,-2.375 8.91,-2.375 2.76,0 5.77,0.793 8.91,2.355 3.38,1.688 6.12,5.145 8.39,10.567 l 49.84,118.32 c 0.9,2.449 1.35,4.558 1.35,6.258" /><path
         id="path24"
         style="fill:#2f2d2e;fill-opacity:1;fill-rule:nonzero;stroke:none"
         d="m 1282.43,444.754 c -1.24,0.867 -2.62,1.492 -4.14,1.875 -2.85,0.723 -4.33,0.723 -7.18,0 -1.51,-0.363 -2.9,-0.996 -4.14,-1.875 -1.35,-0.938 -2.5,-2.305 -3.48,-4.172 -0.99,-1.844 -1.5,-4.207 -1.5,-7.019 V 311.16 c 0,-2.812 0.51,-5.176 1.5,-7.031 0.98,-1.856 2.16,-3.262 3.48,-4.18 1.25,-0.871 2.64,-1.504 4.12,-1.867 1.4,-0.352 2.57,-0.527 3.6,-0.527 1,0 2.23,0.175 3.63,0.527 1.5,0.383 2.87,1.016 4.12,1.875 1.3,0.918 2.46,2.324 3.46,4.172 0.99,1.855 1.49,4.219 1.49,7.031 v 122.403 c 0,2.812 -0.5,5.175 -1.49,7.011 -0.99,1.844 -2.15,3.242 -3.47,4.18" /><path
         id="path26"
         style="fill:#2f2d2e;fill-opacity:1;fill-rule:nonzero;stroke:none"
         d="m 1274.69,479.656 c 4.23,0 8.12,1.571 11.58,4.688 3.53,3.172 5.32,7.285 5.32,12.207 0,4.941 -1.79,9.043 -5.32,12.207 -6.91,6.238 -16.22,6.219 -23.15,0 h -0.01 c -3.53,-3.184 -5.32,-7.297 -5.32,-12.207 0,-4.903 1.79,-9.016 5.33,-12.207 3.45,-3.117 7.35,-4.688 11.57,-4.688" /><path
         id="path28"
         style="fill:#2f2d2e;fill-opacity:1;fill-rule:nonzero;stroke:none"
         d="m 1341.25,385.652 c 0.59,4.707 1.94,9.305 4.01,13.68 2.45,5.215 5.81,9.914 9.98,13.977 4.17,4.07 9.06,7.332 14.55,9.687 5.46,2.363 11.48,3.555 17.91,3.555 13.8,0 24.53,-4.113 31.89,-12.227 6.93,-7.629 10.95,-17.265 11.94,-28.672 z m -5.45,-67.832 c 6.6,-6.828 14.61,-12.218 23.79,-16.015 9.12,-3.809 19.19,-5.742 29.9,-5.742 11.08,0 21.56,2.031 31.14,6.035 9.58,4.023 18.1,10.144 25.36,18.222 1.41,1.641 2.38,3.243 2.87,4.746 0.5,1.454 0.73,2.793 0.73,4.09 0,3.555 -1.26,6.418 -3.73,8.508 -2.35,1.981 -5.07,2.988 -8.07,2.988 -3.51,0 -6.76,-1.593 -9.68,-4.757 -3.79,-4.364 -8.93,-8.426 -15.27,-12.071 -6.19,-3.562 -14.04,-5.371 -23.35,-5.371 -6.81,0 -13.24,1.289 -19.1,3.84 -5.88,2.559 -11.06,6.062 -15.43,10.437 -4.35,4.348 -7.81,9.524 -10.26,15.403 -2.15,5.097 -3.45,10.586 -3.88,16.328 h 102.97 c 8.77,0 13.6,4.609 13.6,12.988 0,10.645 -1.67,20.438 -4.95,29.102 -3.33,8.679 -8.1,16.238 -14.22,22.461 -6.12,6.218 -13.52,11.101 -21.99,14.511 -8.48,3.407 -18.08,5.137 -28.53,5.137 -10.28,0 -19.99,-1.933 -28.9,-5.754 -8.88,-3.828 -16.72,-9.218 -23.3,-16.015 -6.58,-6.766 -11.81,-14.911 -15.53,-24.2 -3.7,-9.238 -5.57,-19.453 -5.57,-30.339 0,-10.891 1.93,-21.094 5.74,-30.352 3.8,-9.25 9.07,-17.395 15.66,-24.18" /><path
         id="path30"
         style="fill:#2f2d2e;fill-opacity:1;fill-rule:nonzero;stroke:none"
         d="m 1675.27,443.816 h -0.01 c -2.48,2.215 -5.56,3.34 -9.16,3.34 -2.24,0 -4.54,-0.664 -6.8,-1.984 -2.51,-1.445 -4.31,-4.129 -5.49,-8.172 l -31.03,-101.23 -33.84,99.55 c -1.87,5.078 -4.23,8.282 -7.24,9.785 -5.5,2.723 -9.97,2.715 -15.43,-0.011 -3.02,-1.504 -5.38,-4.715 -7.25,-9.832 l -33.24,-99.473 -31.29,101.172 c -1.18,4.023 -3.09,6.797 -5.69,8.23 -2.36,1.301 -4.59,1.965 -6.61,1.965 -3.57,0 -6.67,-1.047 -9.23,-3.117 -2.7,-2.207 -4.07,-5.332 -4.07,-9.285 0,-1.672 0.33,-3.496 1.01,-5.586 l 38.71,-118.137 c 0.86,-2.871 2.02,-5.222 3.43,-6.992 1.43,-1.766 2.86,-3.086 4.39,-4.012 1.56,-0.957 3.08,-1.601 4.65,-1.964 1.48,-0.34 2.79,-0.508 4.01,-0.508 2.34,0 5.08,0.703 8.39,2.16 3.56,1.621 6.29,5.418 8.09,11.258 l 32.13,97.832 32.71,-97.782 c 0.89,-2.941 2.02,-5.214 3.43,-6.953 1.34,-1.718 2.83,-3.086 4.39,-4.043 1.5,-0.929 3.07,-1.582 4.64,-1.964 1.5,-0.34 2.81,-0.508 4.02,-0.508 2.28,0 5,0.695 8.12,2.05 l 0.26,0.11 c 3.57,1.621 6.3,5.418 8.11,11.258 l 38.63,118.039 c 0.5,1.238 0.8,2.449 0.92,3.699 0.11,1.105 0.16,1.906 0.16,2.344 0,3.527 -1.29,6.465 -3.82,8.761" /><path
         id="path32"
         style="fill:#2f2d2e;fill-opacity:1;fill-rule:nonzero;stroke:none"
         d="M 410.816,131.73 226.719,23.5859 c -3.379,-1.9921 -10.246,-1.9843 -13.645,0.0118 l -75.715,44.5664 280.469,165.0779 -0.039,-89.324 c 0,-4.004 -3.519,-10.156 -6.973,-12.188 z m -381.7262,0.165 c -3.4531,2.023 -6.9726,8.195 -6.9726,12.191 l 0.1094,216.859 c 0,4.02 3.5312,10.176 6.9843,12.211 l 75.5741,44.403 -0.14,-314.493 c 0,-0.007 0.003,-0.007 0.003,-0.007 0,-0.008 -0.003,-0.008 -0.003,-0.02 l 0.031,-15.6445 z M 213.289,481.309 c 3.367,1.972 10.258,1.972 13.645,-0.02 L 410.918,372.984 c 3.453,-2.035 6.973,-8.191 6.965,-12.203 L 417.848,271.926 137.711,436.922 Z M 126.777,87.5898 126.758,103.066 126.902,417.625 407.105,252.578 Z M 422.137,392.043 238.156,500.348 c -10.277,6.047 -25.785,6.086 -36.066,0.019 l -91.777,-53.91 c -0.016,-0.012 -0.028,-0.023 -0.043,-0.039 -0.004,0 -0.008,0 -0.02,-0.004 L 18.0039,392.215 C 7.82031,386.223 0.132813,372.789 0.113281,360.965 L 0,144.094 c 0,-11.817 7.67578,-25.242 17.8711,-31.25 L 97.8398,65.7539 c 6.6442,-3.9141 10.5982,-6.2226 13.4182,-7.4883 2.879,-2.0429 6.605,-4.2812 11.449,-7.1211 L 201.855,4.54297 C 207,1.52344 213.461,0.00390625 219.902,0.00390625 c 6.442,0 12.883,1.51172375 18.02,4.52734375 L 422.012,112.668 c 10.199,6.008 17.89,19.434 17.89,31.238 l 0.051,108.664 0.051,108.196 c 0.008,11.82 -7.664,25.269 -17.867,31.277" /><path
         id="path34"
         style="fill:#2f2d2e;fill-opacity:1;fill-rule:nonzero;stroke:none"
         d="m 1545.27,152.727 c -16.99,0 -30.76,13.769 -30.76,30.761 0,16.992 13.77,30.774 30.76,30.774 17,0 30.78,-13.782 30.78,-30.774 0,-16.992 -13.78,-30.761 -30.78,-30.761 z m 0,68.171 c -20.6,0 -37.4,-16.796 -37.4,-37.41 0,-20.605 16.8,-37.402 37.4,-37.402 20.62,0 37.42,16.797 37.42,37.402 0,20.614 -16.8,37.41 -37.42,37.41" /><path
         id="path36"
         style="fill:#2f2d2e;fill-opacity:1;fill-rule:nonzero;stroke:none"
         d="m 1538.74,186.508 v 11.961 h 5.73 c 4.83,0.105 10.16,-0.196 10.16,-5.93 0,-5.73 -5.33,-6.031 -10.16,-6.031 z m 23.73,5.73 c 0,8.242 -4.82,12.871 -15.09,12.871 h -16.48 v -42.734 h 7.84 v 17.5 h 5.73 l 10.67,-17.5 h 8.24 l -11.16,18.105 c 5.83,0.696 10.25,4.317 10.25,11.758" /><path
         id="path38"
         style="fill:#2f2d2e;fill-opacity:1;fill-rule:nonzero;stroke:none"
         d="m 701.727,23.1367 c -0.918,1.2969 -2.262,2.4024 -3.985,3.2617 -1.715,0.8672 -3.867,1.3086 -6.414,1.3086 h -88.074 v 180.527 c 0,5.868 -1.762,9.817 -5.219,11.731 -6.129,3.394 -9.547,3.418 -15.695,0 -3.465,-1.914 -5.231,-5.863 -5.231,-11.731 V 19.1211 c 0,-9.92188 5.25,-15.16407 15.168,-15.16407 h 99.051 c 5.27,0 8.817,1.60938 10.543,4.79688 1.488,2.75389 2.219,5.06639 2.219,7.07809 0,1.0469 -0.188,2.2188 -0.535,3.4375 -0.352,1.3086 -0.957,2.5977 -1.828,3.8672" /><path
         id="path40"
         style="fill:#2f2d2e;fill-opacity:1;fill-rule:nonzero;stroke:none"
         d="m 776.305,130.527 c 13.824,0 24.574,-4.121 31.972,-12.254 6.985,-7.707 11.008,-17.429 11.969,-28.9332 h -90.488 c 0.586,4.8125 1.937,9.4883 4.043,13.9332 2.453,5.188 5.816,9.903 10,14.004 4.16,4.063 9.062,7.332 14.566,9.7 5.461,2.363 11.504,3.55 17.938,3.55 z m 50.265,2.114 c -6.101,6.187 -13.465,11.05 -21.882,14.422 -8.411,3.386 -17.969,5.117 -28.383,5.117 -10.242,0 -19.907,-1.934 -28.719,-5.735 -8.84,-3.789 -16.641,-9.136 -23.184,-15.906 -6.566,-6.777 -11.769,-14.883 -15.449,-24.082 -3.683,-9.1992 -5.562,-19.3554 -5.562,-30.1875 0,-10.8086 1.929,-20.9726 5.707,-30.1953 3.808,-9.2344 9.058,-17.332 15.597,-24.0586 6.571,-6.789 14.532,-12.15232 23.657,-15.94919 9.125,-3.78125 19.128,-5.703129 29.746,-5.703129 11.031,0 21.449,2.023439 30.965,6.015629 9.539,4.00389 18.023,10.09769 25.25,18.12499 1.371,1.6094 2.32,3.1758 2.832,4.6797 0.48,1.4609 0.714,2.7695 0.714,4 0,3.4883 -1.238,6.2812 -3.664,8.332 -5.035,4.2383 -12.09,4.0625 -17.425,-1.75 -3.809,-4.375 -8.95,-8.4375 -15.274,-12.0703 -6.187,-3.582 -14.055,-5.3789 -23.398,-5.3789 -6.836,0 -13.266,1.2969 -19.125,3.8477 -5.907,2.5664 -11.102,6.0742 -15.45,10.4375 -4.347,4.3476 -7.804,9.5351 -10.281,15.4218 -2.179,5.1875 -3.484,10.7422 -3.894,16.5625 h 102.918 c 8.621,0 13.375,4.543 13.375,12.7657 0,10.6132 -1.664,20.3474 -4.946,28.9534 -3.297,8.652 -8.047,16.164 -14.125,22.336" /><path
         id="path42"
         style="fill:#2f2d2e;fill-opacity:1;fill-rule:nonzero;stroke:none"
         d="m 957.941,73.9688 h 3.68 v -8.1641 c 0,-5.8789 -0.957,-11.5547 -2.851,-16.8867 -1.891,-5.293 -4.657,-10.0196 -8.243,-14.0625 -3.535,-4.0117 -8.007,-7.2461 -13.269,-9.6094 -8.184,-3.6445 -19.043,-4.6797 -29.524,-2.2344 -3.621,0.8281 -6.953,2.2227 -9.871,4.1602 -2.883,1.8906 -5.207,4.4023 -6.894,7.4297 -1.692,3.0156 -2.551,6.875 -2.551,11.457 0,5.957 1.906,10.582 5.832,14.1602 4.121,3.7382 9.512,6.6367 16.035,8.6328 6.68,2.0195 14.266,3.4062 22.559,4.0898 8.41,0.6836 16.855,1.0274 25.097,1.0274 z m 28.313,-54.2227 c -0.402,2.6953 -0.649,5.3828 -0.746,7.9805 -0.098,2.6757 -0.125,5.9765 -0.125,9.9414 v 61.3476 c 0,8.8364 -1.485,16.6994 -4.395,23.3714 -2.929,6.676 -7.07,12.293 -12.304,16.676 -5.188,4.375 -11.289,7.687 -18.125,9.867 -6.77,2.144 -14.153,3.25 -21.946,3.25 -10.777,0 -20.691,-1.504 -29.461,-4.461 -8.828,-2.973 -16.035,-6.906 -21.464,-11.711 -3.067,-2.832 -4.641,-5.906 -4.641,-9.16 0,-3.243 1.055,-5.871 3.125,-7.813 3.84,-3.594 8.75,-4.258 15.762,0.242 10.527,7.473 22.152,11.25 34.582,11.25 11.504,0 20.339,-2.808 26.257,-8.347 5.879,-5.508 8.848,-14.114 8.848,-25.5667 v -2.1992 c -11.961,-0.0469 -23.672,-0.5078 -34.824,-1.3477 -11.992,-0.8945 -22.801,-2.957 -32.129,-6.0898 -9.52,-3.2149 -17.254,-8.168 -22.988,-14.7305 -5.84,-6.6797 -8.797,-15.8008 -8.797,-27.0977 0,-8.1562 1.668,-15.1836 4.953,-20.8867 3.238,-5.6562 7.379,-10.3242 12.301,-13.8906 4.902,-3.54297 10.402,-6.1211 16.328,-7.6836 5.851,-1.53516 11.621,-2.324219 17.187,-2.324219 11.684,0 21.848,2.148439 30.215,6.386719 6.953,3.5156 13.36,8.9766 19.102,16.25 0.16,-3.0195 0.41,-6.0234 0.773,-8.9844 0.711,-5.17576 2.41,-8.47654 5.176,-10.04685 6.035,-3.46875 10.711,-2.46094 14.48,0.86719 2.305,2.05078 3.469,5.03906 3.469,8.89456 0,0.6562 -0.058,1.5273 -0.168,2.6484 -0.105,1.0234 -0.261,2.168 -0.445,3.3672" /><path
         id="path44"
         style="fill:#2f2d2e;fill-opacity:1;fill-rule:nonzero;stroke:none"
         d="m 1091.28,152.18 c -10.33,0 -20.28,-2.664 -29.55,-7.93 -7.09,-4.016 -12.75,-9.031 -16.9,-14.949 l -0.33,8.621 c 0,2.773 -0.51,5.039 -1.54,6.75 -0.95,1.492 -2.03,2.754 -3.21,3.711 -1.28,1.023 -2.68,1.676 -4.17,1.961 -2.62,0.469 -4.11,0.5 -6.71,-0.196 -1.35,-0.382 -2.65,-0.988 -3.84,-1.828 -1.31,-0.918 -2.41,-2.261 -3.29,-3.992 -0.86,-1.726 -1.29,-3.816 -1.29,-6.406 0,-1.231 0.06,-2.871 0.16,-4.902 l 0.3,-6.27 c 0.1,-2.18 0.14,-4.23 0.14,-6.191 V 15.2266 c 0,-2.7539 0.49,-5.086 1.47,-6.9141 1,-1.84375 2.1,-3.18359 3.41,-4.08984 1.23,-0.86328 2.59,-1.47657 4.04,-1.83594 2.71,-0.69531 4.35,-0.71484 7.11,0 1.45,0.35937 2.8,0.97266 4.05,1.84375 1.28,0.88672 2.42,2.26562 3.39,4.08203 0.99,1.8359 1.49,4.168 1.49,6.9141 v 62.8398 c 0,9.1055 1.15,17.0508 3.44,23.6326 2.29,6.567 5.36,12.055 9.13,16.289 3.74,4.211 8.04,7.383 12.8,9.438 4.77,2.058 9.75,3.101 14.81,3.101 6.98,0 12.83,-1.121 17.4,-3.347 4.49,-2.207 8.12,-5.325 10.78,-9.246 2.7,-4.028 4.65,-8.938 5.77,-14.59 1.17,-5.7737 1.76,-12.3674 1.76,-19.5901 V 15.2266 c 0,-2.7539 0.49,-5.086 1.46,-6.9141 0.98,-1.81641 2.12,-3.19531 3.41,-4.08984 1.2,-0.85157 2.57,-1.46485 4.03,-1.83594 1.37,-0.35547 2.57,-0.53125 3.58,-0.53125 0.98,0 2.18,0.17578 3.53,0.53125 1.46,0.35937 2.82,0.97266 4.05,1.83594 1.3,0.90625 2.42,2.24609 3.41,4.09765 0.97,1.84769 1.47,4.17189 1.47,6.90629 v 76.9062 c 0,17.8082 -4.67,32.3982 -13.86,43.3552 -9.29,11.067 -23.32,16.692 -41.7,16.692" /><path
         id="path46"
         style="fill:#2f2d2e;fill-opacity:1;fill-rule:nonzero;stroke:none"
         d="m 1231.37,121.934 91.98,77.921 c 2.38,1.915 3.86,3.836 4.5,5.887 0.57,1.836 0.86,3.344 0.86,4.594 0,3.394 -1.18,6.305 -3.52,8.648 -2.36,2.336 -5.36,3.52 -8.95,3.52 -1.26,0 -2.72,-0.293 -4.48,-0.871 -1.81,-0.617 -3.73,-1.824 -5.73,-3.606 l -100.9,-90.203 v 80.41 c 0,5.868 -1.77,9.817 -5.23,11.731 -6.12,3.394 -9.54,3.418 -15.69,0 -3.47,-1.914 -5.22,-5.863 -5.22,-11.731 V 16.1367 c 0,-3.0195 0.48,-5.3828 1.46,-7.21873 0.93,-1.74609 2.08,-3.20313 3.42,-4.28516 1.34,-1.10547 2.79,-1.85937 4.32,-2.24609 2.5,-0.64844 4.29,-0.76563 7.51,-0.01172 1.64,0.37109 3.16,1.13281 4.55,2.25781 1.32,1.07032 2.47,2.52735 3.4,4.28516 0.98,1.83593 1.48,4.25783 1.48,7.21873 V 113.762 L 1310.42,7.03125 c 3.42,-3.42578 6.98,-5.17578 10.6,-5.17578 3.99,0 7.34,1.28125 9.96,3.77344 2.65,2.53515 4.01,5.86719 4.01,9.89839 0,3.6055 -1.74,7.168 -5.18,10.625 l -98.44,95.7817" /><path
         id="path48"
         style="fill:#2f2d2e;fill-opacity:1;fill-rule:nonzero;stroke:none"
         d="m 1357.5,212.18 c -3.48,-3.117 -5.26,-7.168 -5.26,-12.032 0,-4.843 1.78,-8.886 5.26,-12.031 3.41,-3.066 7.25,-4.621 11.41,-4.621 4.15,0 7.99,1.555 11.41,4.621 3.48,3.153 5.24,7.207 5.24,12.031 0,4.856 -1.76,8.899 -5.25,12.032 -6.82,6.152 -16.01,6.125 -22.81,0" /><path
         id="path50"
         style="fill:#2f2d2e;fill-opacity:1;fill-rule:nonzero;stroke:none"
         d="m 1376.51,148.313 c -1.23,0.871 -2.59,1.484 -4.08,1.855 -2.8,0.684 -4.21,0.691 -7.09,-0.012 -1.48,-0.371 -2.85,-0.984 -4.05,-1.843 -1.29,-0.911 -2.43,-2.286 -3.39,-4.083 -0.97,-1.828 -1.47,-4.152 -1.47,-6.914 V 15.2266 c 0,-2.7539 0.5,-5.086 1.47,-6.9141 0.97,-1.81641 2.11,-3.19531 3.4,-4.08984 1.21,-0.85157 2.57,-1.46485 4.04,-1.83594 1.36,-0.35547 2.56,-0.53125 3.57,-0.53125 0.98,0 2.19,0.17578 3.53,0.53125 1.46,0.35937 2.83,0.97266 4.06,1.83594 1.29,0.90625 2.41,2.24609 3.4,4.09765 0.98,1.84769 1.47,4.17189 1.47,6.90629 V 137.316 c 0,2.743 -0.49,5.071 -1.47,6.914 -0.97,1.829 -2.1,3.172 -3.39,4.083" /><path
         id="path52"
         style="fill:#2f2d2e;fill-opacity:1;fill-rule:nonzero;stroke:none"
         d="m 1485.54,26.8086 c -1.24,0 -2.85,-0.332 -5.04,-1.0664 -2.72,-1.0938 -5.34,-1.6289 -7.82,-1.6289 -5.45,0 -9.74,1.5039 -13.12,4.6289 -3.28,3.0078 -4.94,9.3359 -4.94,18.7969 v 79.3949 h 29.73 c 4.85,0 8.13,1.457 9.76,4.296 1.42,2.473 2.1,4.551 2.1,6.387 0,2.024 -0.68,4.211 -2.1,6.672 -1.63,2.852 -4.92,4.309 -9.76,4.309 h -29.73 v 28.211 c 0,2.761 -0.5,5.086 -1.46,6.933 -0.99,1.817 -2.1,3.153 -3.4,4.071 -1.23,0.863 -2.59,1.488 -4.07,1.859 -2.88,0.691 -4.18,0.711 -7.09,-0.012 -1.47,-0.371 -2.84,-0.996 -4.06,-1.855 -1.29,-0.899 -2.43,-2.278 -3.4,-4.075 -0.96,-1.824 -1.46,-4.148 -1.46,-6.921 v -28.211 h -19.24 c -4.85,0 -8.13,-1.457 -9.78,-4.321 -1.41,-2.468 -2.1,-4.656 -2.1,-6.66 0,-1.812 0.69,-3.894 2.11,-6.394 1.63,-2.84 4.92,-4.289 9.77,-4.289 h 19.24 V 41.8555 c 0,-8.0742 1.24,-14.7461 3.67,-19.8399 2.44,-5.1015 5.64,-9.2031 9.48,-12.19138 3.86,-2.99609 8.09,-5.04688 12.56,-6.10156 4.37,-1.04297 8.58,-1.57422 12.5,-1.57422 3.65,0 7.29,0.26562 10.81,0.78515 3.66,0.54297 6.59,1.34375 8.98,2.41797 3.27,1.41016 5.43,3.10938 6.6,5.16014 1.09,1.9297 1.64,3.8164 1.64,5.625 0,3.2031 -0.98,5.7969 -2.92,7.7422 -1.92,1.9336 -4.44,2.9297 -7.46,2.9297" /></g></g></svg>