<?xml version="1.0" encoding="UTF-8"?>
<svg viewBox="0 0 318 116" preserveAspectRatio="xMinYMin" version="1.1" xmlns="http://www.w3.org/2000/svg" xmlns:xlink="http://www.w3.org/1999/xlink">
    <!-- Generator: Sketch 43.1 (39012) - http://www.bohemiancoding.com/sketch -->
    <title>logo-leankit-by-planview-dark</title>
    <desc>Created with Sketch.</desc>
    <defs></defs>
    <g stroke="none" stroke-width="1" fill="none" fill-rule="evenodd">
        <g fill-rule="nonzero">
            <g transform="translate(170.000000, 84.000000)" fill="#333333">
                <path d="M53,11.2 C52.3,10.5 51.5,9.9 50.6,9.5 C49.7,9.1 48.7,8.9 47.6,8.9 C46.2,8.9 44.9,9.3 43.7,10 C43.3,10.2 43,10.5 42.6,10.8 L42.6,10.2 C42.6,9.7 42.2,9.3 41.7,9.3 L41,9.3 C40.5,9.3 40.1,9.7 40.1,10.2 L40.1,30 C40.1,30.5 40.5,30.9 41,30.9 L41.7,30.9 C42.2,30.9 42.6,30.5 42.6,30 L42.6,22.6 C42.9,22.9 43.2,23.2 43.6,23.4 C44.2,23.8 44.8,24.1 45.5,24.3 C47.2,24.8 49,24.7 50.6,24 C51.5,23.6 52.3,23 53,22.3 C53.7,21.6 54.2,20.8 54.5,19.8 C54.9,18.9 55,17.8 55,16.7 C55,15.6 54.8,14.6 54.5,13.6 C54.2,12.8 53.7,11.9 53,11.2 Z M43,14.7 C43.3,14 43.6,13.5 44.1,13 C44.5,12.5 45.1,12.1 45.7,11.8 C46.3,11.5 47,11.4 47.7,11.4 C48.5,11.4 49.1,11.5 49.7,11.8 C50.3,12.1 50.8,12.5 51.2,13 C51.6,13.5 52,14.1 52.2,14.7 C52.4,15.4 52.6,16.1 52.6,16.8 C52.6,17.5 52.5,18.2 52.2,18.9 C52,19.6 51.6,20.1 51.2,20.6 C50.8,21.1 50.3,21.5 49.7,21.7 C49.1,22 48.4,22.1 47.7,22.1 C47,22.1 46.3,22 45.7,21.7 C45.1,21.4 44.6,21 44.1,20.5 C43.7,20 43.3,19.4 43,18.8 C42.7,18.1 42.6,17.4 42.6,16.7 C42.6,16 42.7,15.3 43,14.7 Z"></path>
                <path d="M59.4,1 L58.8,1 C58.3,1 57.9,1.4 57.9,1.9 L57.9,23.3 C57.9,23.8 58.3,24.2 58.8,24.2 L59.4,24.2 C59.9,24.2 60.3,23.8 60.3,23.3 L60.3,1.9 C60.3,1.4 59.9,1 59.4,1 Z"></path>
                <path d="M75.1,21.8 C75.1,21.3 75,20.8 75,20.3 L75,14.6 C75,12.7 74.5,11.2 73.4,10.3 C72.4,9.4 71,8.9 69.2,8.9 C68.4,8.9 67.5,9.1 66.6,9.4 C65.7,9.7 64.9,10.2 64.2,10.8 C63.8,11.1 63.8,11.7 64.1,12.1 L64.4,12.6 C64.6,12.8 64.8,13 65.1,13 C65.4,13 65.6,12.9 65.8,12.8 C66.2,12.4 66.8,12.1 67.3,11.8 C67.9,11.6 68.5,11.5 69.1,11.5 C70.1,11.5 70.9,11.8 71.5,12.3 C72.1,12.8 72.3,13.6 72.3,14.8 L72.3,14.9 L71,14.9 C70.3,14.9 69.5,15 68.6,15 C67.7,15.1 66.8,15.3 66,15.7 C65.2,16.1 64.4,16.6 63.9,17.3 C63.3,18 63,19 63,20.1 C63,20.9 63.2,21.6 63.5,22.2 C63.8,22.8 64.3,23.3 64.8,23.7 C65.3,24.1 65.9,24.3 66.5,24.5 C67.1,24.7 67.7,24.8 68.3,24.8 C69.5,24.8 70.7,24.5 71.8,23.8 C72.1,23.6 72.3,23.4 72.6,23.2 C72.6,23.4 72.6,23.5 72.7,23.6 C72.8,24 73.2,24.4 73.6,24.4 L74.2,24.4 L74.2,24.4 C74.7,24.4 75.1,24 75.1,23.5 L75.1,23.2 C75.2,22.7 75.1,22.3 75.1,21.8 Z M72.5,17.4 C72.5,18 72.4,18.6 72.3,19.2 C72.2,19.7 72,20.3 71.6,20.7 C71.3,21.1 70.9,21.5 70.4,21.8 C69.9,22.1 69.2,22.2 68.5,22.2 C68.2,22.2 67.8,22.2 67.5,22.1 C67.2,22 66.9,21.9 66.6,21.7 C66.4,21.5 66.1,21.3 66,21 C65.9,20.7 65.8,20.4 65.8,20 C65.8,19.4 65.9,19 66.2,18.6 C66.5,18.2 66.9,17.9 67.5,17.7 C68.1,17.5 68.7,17.3 69.4,17.2 C70.2,17.1 70.9,17.1 71.6,17.1 L72.7,17.1 L72.7,17.4 L72.5,17.4 Z"></path>
                <path d="M90,11.1 C89.6,10.4 89,9.9 88.2,9.5 C87.5,9.1 86.6,8.9 85.5,8.9 C84.8,8.9 84.2,9 83.6,9.2 C83,9.4 82.4,9.7 81.9,10.1 C81.7,10.3 81.4,10.5 81.2,10.7 L81.2,10.2 C81.2,9.7 80.7,9.4 80.3,9.4 L79.7,9.4 C79.4,9.4 79.2,9.5 79,9.7 C78.8,9.9 78.7,10.2 78.8,10.4 C78.8,10.6 78.8,10.8 78.9,11.1 L78.9,12 L78.9,12.9 L78.9,13.6 L78.9,23.3 C78.9,23.8 79.3,24.2 79.8,24.2 L80.4,24.2 C80.9,24.2 81.3,23.8 81.3,23.3 L81.3,16.8 C81.3,15.9 81.4,15.1 81.7,14.4 C81.9,13.7 82.2,13.2 82.6,12.7 C83,12.3 83.4,11.9 83.9,11.7 C84.4,11.5 85,11.3 85.5,11.3 C86.1,11.3 86.6,11.4 87,11.7 C87.4,12 87.7,12.3 88,12.6 C88.2,13 88.4,13.4 88.5,13.9 C88.6,14.4 88.7,15 88.7,15.4 L88.7,23.2 C88.7,23.7 89.1,24.1 89.6,24.1 L90.2,24.1 C90.7,24.1 91.1,23.7 91.1,23.2 L91.1,15.3 C91.1,14.6 91,13.8 90.8,13.1 C90.7,12.4 90.4,11.7 90,11.1 Z"></path>
                <path d="M104.5,9.3 L103.8,9.3 C103.4,9.3 103.1,9.5 102.9,9.9 L99.1,20.1 L95.1,9.9 C95,9.5 94.6,9.3 94.2,9.3 L93.5,9.3 C93.2,9.3 92.9,9.5 92.7,9.7 C92.5,10 92.5,10.3 92.6,10.6 L97.7,23.6 C97.8,24 98.2,24.2 98.6,24.2 L99.4,24.2 C99.8,24.2 100.1,24 100.3,23.6 L105.3,10.6 C105.4,10.3 105.4,10 105.2,9.7 C105.1,9.5 104.8,9.3 104.5,9.3 Z"></path>
                <path d="M108.7,9.3 L108.1,9.3 C107.6,9.3 107.2,9.7 107.2,10.2 L107.2,23.2 C107.2,23.7 107.6,24.1 108.1,24.1 L108.7,24.1 C109.2,24.1 109.6,23.7 109.6,23.2 L109.6,10.2 C109.7,9.8 109.2,9.3 108.7,9.3 Z"></path>
                <path d="M107.3,3.5 C107,3.8 106.8,4.2 106.8,4.7 C106.8,5.3 107.1,5.7 107.3,5.9 C107.6,6.2 108,6.4 108.4,6.4 C108.7,6.4 109.1,6.3 109.5,5.9 C109.8,5.6 110,5.2 110,4.7 C110,4.2 109.8,3.8 109.5,3.5 C108.9,2.9 107.9,2.9 107.3,3.5 Z"></path>
                <path d="M124.8,11.2 C124.2,10.5 123.5,10 122.6,9.5 C121.7,9.1 120.7,8.9 119.5,8.9 C118.5,8.9 117.6,9.1 116.7,9.5 C115.8,9.9 115.1,10.4 114.4,11.1 C113.8,11.8 113.3,12.6 112.9,13.5 C112.5,14.4 112.4,15.5 112.4,16.6 C112.4,17.7 112.6,18.8 112.9,19.7 C113.3,20.7 113.8,21.5 114.4,22.3 C115.1,23 115.9,23.6 116.8,24 C117.7,24.4 118.7,24.6 119.8,24.6 C121.1,24.6 122.2,24.3 123.2,23.8 C124.2,23.3 125,22.6 125.8,21.6 C126.1,21.2 126,20.6 125.7,20.3 L125.2,19.9 C125,19.7 124.7,19.6 124.5,19.7 C124.2,19.7 124,19.9 123.8,20.1 C123.3,20.8 122.7,21.3 122.1,21.6 C121.4,21.9 120.7,22.1 119.8,22.1 C119,22.1 118.2,21.9 117.6,21.6 C117,21.3 116.5,20.9 116.1,20.4 C115.7,19.9 115.4,19.3 115.2,18.6 C115.1,18.2 115,17.8 115,17.5 L125.6,17.5 C126.1,17.5 126.5,17.1 126.5,16.6 L126.5,16.1 C126.5,15.2 126.4,14.4 126.1,13.5 C125.9,12.7 125.4,11.9 124.8,11.2 Z M116.1,13.1 C116.5,12.6 116.9,12.2 117.5,11.9 C118,11.6 118.7,11.4 119.5,11.4 C120.2,11.4 120.8,11.5 121.3,11.7 C121.8,11.9 122.3,12.2 122.7,12.6 C123.1,13 123.4,13.5 123.6,14.1 C123.7,14.4 123.8,14.8 123.9,15.1 L115,15.1 C115,14.9 115.1,14.8 115.1,14.6 C115.4,14.1 115.7,13.6 116.1,13.1 Z"></path>
                <path d="M146.9,9.7 C146.7,9.5 146.4,9.3 146.1,9.3 L145.4,9.3 C145,9.3 144.6,9.6 144.5,10 L141.7,19.6 L138.4,10 C138.3,9.6 137.9,9.4 137.5,9.4 L136.6,9.4 C136.2,9.4 135.8,9.7 135.7,10 L132.4,19.6 L129.6,10 C129.5,9.6 129.1,9.3 128.7,9.3 L128,9.3 C127.7,9.3 127.4,9.4 127.2,9.7 C127,9.9 127,10.2 127,10.5 L130.8,23.5 C130.9,23.9 131.3,24.2 131.7,24.2 L132.5,24.2 C132.9,24.2 133.3,23.9 133.4,23.6 L136.8,13.8 L140.2,23.6 C140.3,24 140.7,24.2 141.1,24.2 L141.9,24.2 C142.3,24.2 142.7,23.9 142.8,23.5 L146.6,10.5 C147.1,10.3 147.1,10 146.9,9.7 Z"></path>
                <path d="M13.4,11.2 C12.7,10.5 11.9,9.9 11,9.5 C10.1,9.1 9.1,8.9 8,8.9 C6.6,8.9 5.3,9.3 4.1,10 C3.7,10.2 3.4,10.5 3,10.8 L3,1.3 C3,0.8 2.6,0.4 2.1,0.4 L1.5,0.4 C1,0.4 0.6,0.8 0.6,1.3 L0.6,23.2 C0.6,23.7 1,24.1 1.5,24.1 L2.2,24.1 C2.7,24.1 3.1,23.7 3.1,23.2 L3.1,22.6 C3.4,22.9 3.7,23.2 4.1,23.4 C4.7,23.8 5.3,24.1 6,24.3 C7.7,24.8 9.5,24.7 11.1,24 C12,23.6 12.8,23 13.5,22.3 C14.2,21.6 14.7,20.8 15,19.8 C15.4,18.9 15.5,17.8 15.5,16.7 C15.5,15.6 15.3,14.6 15,13.6 C14.5,12.8 14,11.9 13.4,11.2 Z M3.3,14.7 C3.6,14 3.9,13.5 4.4,13 C4.8,12.5 5.4,12.1 6,11.8 C6.6,11.5 7.3,11.4 8,11.4 C8.8,11.4 9.4,11.5 10,11.8 C10.6,12.1 11.1,12.5 11.5,13 C11.9,13.5 12.3,14.1 12.5,14.7 C12.7,15.4 12.9,16.1 12.9,16.8 C12.9,17.5 12.8,18.2 12.5,18.9 C12.3,19.6 11.9,20.1 11.5,20.6 C11.1,21.1 10.6,21.5 10,21.7 C9.4,22 8.7,22.1 8,22.1 C7.3,22.1 6.6,22 6,21.7 C5.4,21.4 4.9,21 4.4,20.5 C4,20 3.6,19.4 3.3,18.8 C3,18.1 2.9,17.4 2.9,16.7 C3,16 3.1,15.3 3.3,14.7 Z"></path>
                <path d="M18.1,9.3 L19,9.3 C19.4,9.3 19.8,9.6 19.9,9.9 L24.2,20.8 L24.3,20.8 L28.3,9.9 C28.4,9.5 28.8,9.3 29.2,9.3 L30.1,9.3 C30.8,9.3 31.3,10 31,10.6 L24.5,27.3 C24.3,27.9 24,28.5 23.7,29.1 C23.4,29.6 23.1,30.1 22.7,30.5 C22.3,30.9 21.9,31.2 21.3,31.4 C20.8,31.6 20.1,31.7 19.4,31.7 L18.9,31.7 C18.3,31.7 17.7,31.4 17.8,30.7 L17.9,30 C18,29.4 18.4,29.1 19,29.2 L19.4,29.2 C19.6,29.2 19.8,29.2 20.1,29 C20.4,28.9 20.7,28.7 20.9,28.5 C21.1,28.3 21.3,28 21.4,27.7 C21.5,27.4 21.7,27.1 21.8,26.7 L22.6,24.7 C22.7,24.5 22.7,24.2 22.6,24 L17.2,10.8 C17,10 17.5,9.3 18.1,9.3 Z"></path>
            </g>
            <polygon fill="#617D38" points="21.9 89.8 21.9 82.5 21.9 82.5 22 50.9 22 20 22 12.8 0.1 25.6 0.1 76.9 22 89.8 22 89.7"></polygon>
            <polygon fill="#262926" points="87.4 77 87.4 51.3 81.3 54.9 54.7 70.5 28.1 86.2 22 89.7 22 89.8 43.7 102.6"></polygon>
            <path d="M146.2,45.8 C150.8,45.8 154.2,48.7 155.3,53.6 L136.6,53.6 C137.8,48.7 141.3,45.8 146.2,45.8 M146.3,37.8 C135.4,37.8 127.5,46.2 127.5,57.8 C127.5,69.6 135.4,77.8 146.6,77.8 C152.9,77.8 157.8,75.9 161.9,71.8 L162.9,70.8 L158.1,64.6 L156.9,65.7 C154.1,68.3 150.6,69.7 146.9,69.7 C141.5,69.7 137.6,66.5 136.4,61.3 L163.8,61.3 L164,59.9 C164.1,59.2 164.1,58.4 164.1,57.6 C164.1,46.1 156.6,37.8 146.3,37.8" fill="#262926"></path>
            <path d="M198.1,57.7 C198.1,64.4 193.5,69.3 187.3,69.3 C181,69.3 176.4,64.4 176.4,57.7 C176.4,51 181,46.1 187.3,46.1 C193.6,46.1 198.1,51 198.1,57.7 M187,37.8 C176.2,37.8 167.7,46.6 167.7,57.8 C167.7,69.2 175.8,77.8 186.6,77.8 C191,77.8 194.8,76.5 197.8,74.1 L197.8,77.1 L206.3,77.1 L206.3,58.4 C206.3,43.1 195.9,37.8 187,37.8" fill="#262926"></path>
            <path d="M229,37.8 C218.8,37.8 211.6,44.5 211.6,54 L211.6,77 L220.2,77 L220.2,55.5 C220.2,50 223.9,46.2 229.3,46.2 C234.8,46.2 237.8,49.4 237.8,55.3 L237.8,77 L246.3,77 L246.3,53.5 C246.3,44.1 239.4,37.8 229,37.8" fill="#262926"></path>
            <polygon fill="#262926" points="284.7 38.5 273.6 38.5 260.2 52.8 260 52.8 260 25.6 251.4 25.6 251.4 77 260 77 260 61 260.1 61 273.7 77 284.7 77 267.4 56.8"></polygon>
            <rect fill="#262926" x="286.8" y="38.5" width="8.6" height="38.5"></rect>
            <rect fill="#262926" x="286.8" y="25.6" width="8.5" height="8.4"></rect>
            <path d="M125.9,69 L124.2,69.2 C123.9,69.2 123.5,69.3 123.1,69.3 C119.5,69.3 117.7,67.1 117.7,62.9 L117.7,25.6 L109.2,25.6 L109.2,63 C109.2,72.5 114,77.7 122.7,77.7 C123.3,77.7 123.8,77.6 124.8,77.5 L125.9,77.4 L125.9,69 L125.9,69 Z" fill="#262926"></path>
            <path d="M317.1,69 L315.4,69.2 C315,69.2 314.7,69.3 314.3,69.3 C310.7,69.3 308.9,67.1 308.9,62.9 L308.9,46.6 L317,46.6 L317,38.4 L308.9,38.4 L308.9,25.6 L300.4,25.6 L300.4,63 C300.4,72.4 305.2,77.6 313.9,77.6 C314.5,77.6 315,77.5 316,77.4 L317.1,77.3 L317.1,69 Z" fill="#262926"></path>
            <polygon fill="#94C73D" points="28.1 16.4 54.7 32 81.3 47.7 87.4 51.2 87.4 25.6 43.8 0 22 12.7"></polygon>
        </g>
    </g>
</svg>
