<svg preserveAspectRatio="xMidYMid slice" width="700px" height="480px" xmlns="http://www.w3.org/2000/svg" xmlns:xlink="http://www.w3.org/1999/xlink" viewBox="0 0 1440 565"><defs><style>.cls-1{isolation:isolate;}.cls-2,.cls-49{fill:#fff;}.cls-12,.cls-13,.cls-17,.cls-19,.cls-22,.cls-23,.cls-27,.cls-3,.cls-32,.cls-35,.cls-38,.cls-4,.cls-40,.cls-42,.cls-45,.cls-48,.cls-50,.cls-52,.cls-53,.cls-7{fill:none;}.cls-3{stroke:#f3f7f0;}.cls-10,.cls-11,.cls-12,.cls-13,.cls-17,.cls-18,.cls-19,.cls-20,.cls-21,.cls-22,.cls-23,.cls-25,.cls-26,.cls-27,.cls-29,.cls-3,.cls-30,.cls-31,.cls-32,.cls-33,.cls-34,.cls-35,.cls-36,.cls-37,.cls-38,.cls-39,.cls-4,.cls-40,.cls-41,.cls-42,.cls-43,.cls-44,.cls-45,.cls-46,.cls-47,.cls-48,.cls-49,.cls-50,.cls-51,.cls-52,.cls-53,.cls-56,.cls-7,.cls-8,.cls-9{stroke-linecap:round;stroke-linejoin:round;}.cls-3,.cls-51,.cls-53,.cls-7{stroke-width:2px;}.cls-4,.cls-54,.cls-56{stroke:#dbdfd8;}.cls-4,.cls-52,.cls-54,.cls-56{stroke-width:1.5px;}.cls-5,.cls-55{fill:#f3f7f0;}.cls-24,.cls-6,.cls-9{mix-blend-mode:multiply;}.cls-6{fill:url(#linear-gradient);}.cls-19,.cls-22,.cls-30,.cls-51,.cls-7{stroke:#3e423b;}.cls-8{fill:#a7aaa3;stroke:#a7aaa3;}.cls-21,.cls-9{fill:#d3d7d0;}.cls-21,.cls-42,.cls-9{stroke:#d3d7d0;}.cls-10{fill:#272b24;}.cls-10,.cls-40,.cls-53{stroke:#272b24;}.cls-11,.cls-28,.cls-29{fill:#ecf1e9;}.cls-11,.cls-12,.cls-13,.cls-29,.cls-31{stroke:#ecf1e9;}.cls-13,.cls-22,.cls-25,.cls-26,.cls-27,.cls-29,.cls-30,.cls-31,.cls-32,.cls-33,.cls-34,.cls-35,.cls-36,.cls-37,.cls-38,.cls-39,.cls-40,.cls-41,.cls-42,.cls-43,.cls-44,.cls-45,.cls-46,.cls-47,.cls-48,.cls-50{stroke-width:0.5px;}.cls-14,.cls-26{fill:#617e39;}.cls-15{fill:#f0f4ed;}.cls-16{fill:#91c53d;}.cls-17,.cls-49,.cls-50,.cls-52{stroke:#fff;}.cls-18,.cls-39{fill:#ebefe8;}.cls-18,.cls-20,.cls-23,.cls-39{stroke:#ebefe8;}.cls-20{fill:#bdc0b9;}.cls-25{fill:#8cc03d;stroke:#8cc03d;}.cls-26,.cls-27{stroke:#617e39;}.cls-30,.cls-51{fill:#3e423b;}.cls-31,.cls-36{fill:#5dc0d8;}.cls-32,.cls-36{stroke:#5dc0d8;}.cls-33{fill:#ddc621;stroke:#ddc621;}.cls-34{fill:#9c8a32;}.cls-34,.cls-35{stroke:#9c8a32;}.cls-37{fill:#378a96;}.cls-37,.cls-38{stroke:#378a96;}.cls-41{fill:#e86360;stroke:#e86360;}.cls-43{fill:#f19a31;stroke:#f19a31;}.cls-44{fill:#b6792a;}.cls-44,.cls-45{stroke:#b6792a;}.cls-46{fill:#8dc03e;stroke:#8dc03e;}.cls-47{fill:#627f3a;}.cls-47,.cls-48{stroke:#627f3a;}.cls-54{fill:#dbdfd8;stroke-miterlimit:10;}.cls-55{opacity:0.15;mix-blend-mode:soft-light;}.cls-56{fill:#f4f9f1;}</style><linearGradient id="linear-gradient" x1="798.06" y1="398.82" x2="703.99" y2="91.13" gradientUnits="userSpaceOnUse"><stop offset="0" stop-color="#c2c5be"/><stop offset="1" stop-color="#fff"/></linearGradient></defs><title>LKArtboard 1.1</title><g class="cls-1"><g id="Bg"><rect class="cls-2" width="1440" height="565"/></g><g id="Floor"><line class="cls-3" x1="231.87" y1="442.71" x2="-136.83" y2="623.83"/><line class="cls-3" x1="272.58" y1="442.71" x2="-65.4" y2="623.83"/><line class="cls-3" x1="313.28" y1="442.71" x2="6.03" y2="623.83"/><line class="cls-3" x1="353.99" y1="442.71" x2="77.46" y2="623.83"/><line class="cls-3" x1="394.69" y1="442.71" x2="148.89" y2="623.83"/><line class="cls-3" x1="435.4" y1="442.71" x2="220.32" y2="623.83"/><line class="cls-3" x1="476.1" y1="442.71" x2="291.75" y2="623.83"/><line class="cls-3" x1="516.81" y1="442.71" x2="363.18" y2="623.83"/><line class="cls-3" x1="557.51" y1="442.71" x2="434.61" y2="623.83"/><line class="cls-3" x1="598.22" y1="442.71" x2="506.04" y2="623.83"/><line class="cls-3" x1="638.92" y1="442.71" x2="577.47" y2="623.83"/><line class="cls-3" x1="679.63" y1="442.71" x2="648.9" y2="623.83"/><line class="cls-3" x1="720.33" y1="442.71" x2="720.33" y2="623.83"/><line class="cls-3" x1="761.03" y1="442.71" x2="791.76" y2="623.83"/><line class="cls-3" x1="801.74" y1="442.71" x2="863.19" y2="623.83"/><line class="cls-3" x1="842.44" y1="442.71" x2="934.62" y2="623.83"/><line class="cls-3" x1="883.15" y1="442.71" x2="1006.05" y2="623.83"/><line class="cls-3" x1="923.85" y1="442.71" x2="1077.48" y2="623.83"/><line class="cls-3" x1="964.56" y1="442.71" x2="1148.91" y2="623.83"/><line class="cls-3" x1="1005.26" y1="442.71" x2="1220.34" y2="623.83"/><line class="cls-3" x1="1045.97" y1="442.71" x2="1291.77" y2="623.83"/><line class="cls-3" x1="1086.67" y1="442.71" x2="1363.2" y2="623.83"/><line class="cls-3" x1="1127.38" y1="442.71" x2="1434.63" y2="623.83"/><line class="cls-3" x1="1168.08" y1="442.71" x2="1506.06" y2="623.83"/><line class="cls-3" x1="1577.49" y1="623.83" x2="1208.79" y2="442.71"/><polygon class="cls-4" points="1577.49 630.92 1577.49 623.83 1242.3 459.18 1186.04 459.18 1155.42 441.5 285.24 441.5 254.62 459.18 198.36 459.18 -136.83 623.83 -136.83 630.92 1577.49 630.92"/></g><g id="Artwork"><rect class="cls-5" x="178.02" y="50.55" width="10" height="408.63"/><rect class="cls-5" x="285.24" y="-65.12" width="9.8" height="506.62"/><polygon class="cls-5" points="275.62 -74.75 285.24 -65.13 285.24 441.5 275.62 447.06 275.62 -74.75"/><polygon class="cls-5" points="1165.42 447.06 1165.42 -75.13 1155.42 -65.13 1155.42 441.5 1165.42 447.06"/><line class="cls-4" x1="1186.04" y1="459.18" x2="1155.42" y2="441.5"/><polygon class="cls-5" points="-146.83 623.83 188.36 459.18 178.36 459.18 -156.83 623.83 -146.83 623.83"/><polygon class="cls-5" points="-79.34 -69.13 198.47 50.55 179.02 50.55 -98.8 -69.13 -79.34 -69.13"/><path class="cls-6" d="M991.56,3.21l1.83,319.61a5,5,0,0,1-5,5l-540.62-1.76,7.62,6.61a10,10,0,0,0,6.56,2.45h543.46a6,6,0,0,0,6-6v-304a10,10,0,0,0-3.41-7.52Z"/><line class="cls-7" x1="294.71" y1="71.51" x2="482.35" y2="71.51"/><line class="cls-7" x1="294.71" y1="169.26" x2="482.35" y2="169.26"/><line class="cls-7" x1="294.71" y1="267" x2="482.35" y2="267"/><line class="cls-7" x1="1145.29" y1="364.75" x2="294.71" y2="364.75"/><line class="cls-7" x1="1145.29" y1="71.51" x2="957.65" y2="71.51"/><line class="cls-7" x1="1145.29" y1="169.26" x2="957.65" y2="169.26"/><line class="cls-7" x1="1145.29" y1="267" x2="957.65" y2="267"/><polygon class="cls-5" points="260.62 455.71 285.24 441.5 285.24 -65.13 260.62 -89.75 260.62 455.71"/><polyline class="cls-4" points="1155.42 441.5 285.24 441.5 254.62 459.18"/><rect class="cls-5" x="1218.04" y="-95.75" width="24.26" height="554.93" transform="translate(2460.35 363.43) rotate(-180)"/><rect class="cls-5" x="1238.04" y="-95.75" width="4.26" height="554.93" transform="translate(2480.35 363.43) rotate(-180)"/><rect class="cls-5" x="243.09" y="-95.75" width="11.53" height="554.93"/><polyline class="cls-4" points="197.7 -95.75 -143.76 -382.26 -143.76 630.92"/><polyline class="cls-4" points="285.24 441.5 285.24 -65.13 254.62 -95.75"/><line class="cls-4" x1="178.36" y1="459.18" x2="-156.83" y2="623.83"/><line class="cls-4" x1="188.36" y1="459.18" x2="178.36" y2="459.18"/><line class="cls-4" x1="178.36" y1="50.55" x2="-99.46" y2="-69.12"/><line class="cls-4" x1="178.36" y1="50.55" x2="178.36" y2="459.18"/><line class="cls-4" x1="188.36" y1="50.55" x2="178.36" y2="50.55"/><line class="cls-4" x1="197.81" y1="29.55" x2="-80" y2="-90.12"/><path class="cls-2" d="M80.07,245.52H59.57a3.5,3.5,0,0,0-3.5,3.5v64.55a3.5,3.5,0,0,0,3.5,3.5h20.5c1.07,0,1.94-1.57,1.94-3.5s-.87-3.5-1.94-3.5h-17V252.52h17c1.07,0,1.94-1.57,1.94-3.5S81.14,245.52,80.07,245.52Z"/><path class="cls-5" d="M80.07,245.52H59.57a3.5,3.5,0,0,0-3.5,3.5v64.55a3.5,3.5,0,0,0,3.5,3.5h20.5c1.07,0,1.94-1.57,1.94-3.5s-.87-3.5-1.94-3.5h-17V252.52h17c1.07,0,1.94-1.57,1.94-3.5S81.14,245.52,80.07,245.52Z"/><path class="cls-4" d="M80.07,245.52H59.57a3.5,3.5,0,0,0-3.5,3.5v64.55a3.5,3.5,0,0,0,3.5,3.5h20.5c1.07,0,1.94-1.57,1.94-3.5s-.87-3.5-1.94-3.5h-17V252.52h17c1.07,0,1.94-1.57,1.94-3.5S81.14,245.52,80.07,245.52Z"/><path class="cls-2" d="M80.94,321.54c-2.44,0-4.42-3.57-4.42-8s2-8,4.42-8h4.42v15.94Z"/><path class="cls-5" d="M85.36,313.57v8H80.94c-2.44,0-4.42-3.57-4.42-8Z"/><path class="cls-4" d="M80.94,321.54c-2.44,0-4.42-3.57-4.42-8s2-8,4.42-8h4.42v15.94Z"/><path class="cls-4" d="M59.57,249h0a3.5,3.5,0,0,1,3.5,3.5"/><path class="cls-4" d="M63.07,310.07a3.5,3.5,0,0,1-3.5,3.5h0"/><path class="cls-2" d="M80.94,257c-2.44,0-4.42-3.57-4.42-8s2-8,4.42-8h4.42V257Z"/><path class="cls-5" d="M85.36,249v8H80.94c-2.44,0-4.42-3.57-4.42-8Z"/><path class="cls-4" d="M80.94,257c-2.44,0-4.42-3.57-4.42-8s2-8,4.42-8h4.42V257Z"/><path class="cls-2" d="M85.36,257c-2.44,0-4.42-3.57-4.42-8s2-8,4.42-8h4.42V257Z"/><path class="cls-5" d="M89.78,249v8H85.36c-2.44,0-4.42-3.57-4.42-8Z"/><path class="cls-4" d="M85.36,257c-2.44,0-4.42-3.57-4.42-8s2-8,4.42-8h4.42V257Z"/><path class="cls-2" d="M85.36,321.54c-2.44,0-4.42-3.57-4.42-8s2-8,4.42-8h4.42v15.94Z"/><path class="cls-5" d="M89.78,313.57v8H85.36c-2.44,0-4.42-3.57-4.42-8Z"/><path class="cls-4" d="M85.36,321.54c-2.44,0-4.42-3.57-4.42-8s2-8,4.42-8h4.42v15.94Z"/><ellipse class="cls-2" cx="89.78" cy="313.57" rx="4.42" ry="7.97"/><ellipse class="cls-4" cx="89.78" cy="313.57" rx="4.42" ry="7.97"/><ellipse class="cls-2" cx="89.78" cy="249.02" rx="4.42" ry="7.97"/><ellipse class="cls-4" cx="89.78" cy="249.02" rx="4.42" ry="7.97"/><path class="cls-2" d="M90.66,245.52h20.5a3.5,3.5,0,0,1,3.5,3.5v64.55a3.5,3.5,0,0,1-3.5,3.5H90.66c-1.07,0-1.94-1.57-1.94-3.5s.87-3.5,1.94-3.5h17V252.52h-17c-1.07,0-1.94-1.57-1.94-3.5S89.59,245.52,90.66,245.52Z"/><path class="cls-5" d="M88.72,249c0,1.93.87,3.5,1.94,3.5h17v57.55h-17c-1.07,0-1.94,1.57-1.94,3.5h20.44a2,2,0,0,0,2-2V251a2,2,0,0,0-2-2Z"/><path class="cls-4" d="M90.66,245.52h20.5a3.5,3.5,0,0,1,3.5,3.5v64.55a3.5,3.5,0,0,1-3.5,3.5H90.66c-1.07,0-1.94-1.57-1.94-3.5s.87-3.5,1.94-3.5h17V252.52h-17c-1.07,0-1.94-1.57-1.94-3.5S89.59,245.52,90.66,245.52Z"/><path class="cls-4" d="M111.16,245.52h0a3.5,3.5,0,0,0-3.5,3.5"/><path class="cls-4" d="M107.66,313.57a3.5,3.5,0,0,0,3.5,3.5h0"/><line class="cls-4" x1="69.43" y1="517.27" x2="69.43" y2="-0.03"/><line class="cls-4" x1="70.43" y1="516.78" x2="70.43" y2="-0.59"/><line class="cls-4" x1="197.81" y1="50.55" x2="-80" y2="-69.12"/><line class="cls-4" x1="188.36" y1="50.55" x2="-89.46" y2="-69.12"/><line class="cls-4" x1="197.81" y1="49.55" x2="-80" y2="-70.12"/><line class="cls-3" x1="91.19" y1="86.43" x2="162.46" y2="181.01"/><line class="cls-3" x1="89.29" y1="111.99" x2="136.91" y2="175.83"/><line class="cls-3" x1="-31.49" y1="376.43" x2="39.77" y2="471.01"/><line class="cls-3" x1="-33.39" y1="401.99" x2="14.23" y2="465.83"/><line class="cls-4" x1="188.36" y1="50.55" x2="188.36" y2="459.18"/><line class="cls-4" x1="188.36" y1="459.18" x2="-146.83" y2="623.83"/><line class="cls-4" x1="197.81" y1="50.55" x2="188.36" y2="50.55"/><line class="cls-4" x1="198.36" y1="459.18" x2="188.36" y2="459.18"/><line class="cls-4" x1="1251.64" y1="459.18" x2="1261.64" y2="459.18"/><line class="cls-4" x1="1251.64" y1="50.55" x2="1261.64" y2="50.55"/><line class="cls-4" x1="1242.19" y1="29.55" x2="1520" y2="-90.12"/><path class="cls-2" d="M1360.59,245.52h20.5a3.5,3.5,0,0,1,3.5,3.5v64.55a3.5,3.5,0,0,1-3.5,3.5h-20.5c-1.07,0-1.94-1.57-1.94-3.5s.87-3.5,1.94-3.5h17V252.52h-17c-1.07,0-1.94-1.57-1.94-3.5S1359.52,245.52,1360.59,245.52Z"/><path class="cls-5" d="M1360.59,245.52h20.5a3.5,3.5,0,0,1,3.5,3.5v64.55a3.5,3.5,0,0,1-3.5,3.5h-20.5c-1.07,0-1.94-1.57-1.94-3.5s.87-3.5,1.94-3.5h17V252.52h-17c-1.07,0-1.94-1.57-1.94-3.5S1359.52,245.52,1360.59,245.52Z"/><path class="cls-4" d="M1360.59,245.52h20.5a3.5,3.5,0,0,1,3.5,3.5v64.55a3.5,3.5,0,0,1-3.5,3.5h-20.5c-1.07,0-1.94-1.57-1.94-3.5s.87-3.5,1.94-3.5h17V252.52h-17c-1.07,0-1.94-1.57-1.94-3.5S1359.52,245.52,1360.59,245.52Z"/><path class="cls-2" d="M1359.72,321.54c2.44,0,4.42-3.57,4.42-8s-2-8-4.42-8h-4.42v15.94Z"/><path class="cls-5" d="M1355.3,313.57v8h4.42c2.44,0,4.42-3.57,4.42-8Z"/><path class="cls-4" d="M1359.72,321.54c2.44,0,4.42-3.57,4.42-8s-2-8-4.42-8h-4.42v15.94Z"/><path class="cls-4" d="M1381.09,249h0a3.5,3.5,0,0,0-3.5,3.5"/><path class="cls-4" d="M1377.59,310.07a3.5,3.5,0,0,0,3.5,3.5h0"/><path class="cls-2" d="M1359.72,257c2.44,0,4.42-3.57,4.42-8s-2-8-4.42-8h-4.42V257Z"/><path class="cls-5" d="M1355.3,249v8h4.42c2.44,0,4.42-3.57,4.42-8Z"/><path class="cls-4" d="M1359.72,257c2.44,0,4.42-3.57,4.42-8s-2-8-4.42-8h-4.42V257Z"/><path class="cls-2" d="M1355.3,257c2.44,0,4.42-3.57,4.42-8s-2-8-4.42-8h-4.42V257Z"/><path class="cls-5" d="M1350.88,249v8h4.42c2.44,0,4.42-3.57,4.42-8Z"/><path class="cls-4" d="M1355.3,257c2.44,0,4.42-3.57,4.42-8s-2-8-4.42-8h-4.42V257Z"/><path class="cls-2" d="M1355.3,321.54c2.44,0,4.42-3.57,4.42-8s-2-8-4.42-8h-4.42v15.94Z"/><path class="cls-5" d="M1350.88,313.57v8h4.42c2.44,0,4.42-3.57,4.42-8Z"/><path class="cls-4" d="M1355.3,321.54c2.44,0,4.42-3.57,4.42-8s-2-8-4.42-8h-4.42v15.94Z"/><ellipse class="cls-2" cx="1350.88" cy="313.57" rx="4.42" ry="7.97"/><ellipse class="cls-4" cx="1350.88" cy="313.57" rx="4.42" ry="7.97"/><ellipse class="cls-2" cx="1350.88" cy="249.02" rx="4.42" ry="7.97"/><ellipse class="cls-4" cx="1350.88" cy="249.02" rx="4.42" ry="7.97"/><path class="cls-2" d="M1350,245.52h-20.5a3.5,3.5,0,0,0-3.5,3.5v64.55a3.5,3.5,0,0,0,3.5,3.5H1350c1.07,0,1.94-1.57,1.94-3.5s-.87-3.5-1.94-3.5h-17V252.52h17c1.07,0,1.94-1.57,1.94-3.5S1351.07,245.52,1350,245.52Z"/><path class="cls-5" d="M1351.94,249c0,1.93-.87,3.5-1.94,3.5h-17v57.55h17c1.07,0,1.94,1.57,1.94,3.5H1331.5a2,2,0,0,1-2-2V251a2,2,0,0,1,2-2Z"/><path class="cls-4" d="M1350,245.52h-20.5a3.5,3.5,0,0,0-3.5,3.5v64.55a3.5,3.5,0,0,0,3.5,3.5H1350c1.07,0,1.94-1.57,1.94-3.5s-.87-3.5-1.94-3.5h-17V252.52h17c1.07,0,1.94-1.57,1.94-3.5S1351.07,245.52,1350,245.52Z"/><path class="cls-4" d="M1329.5,245.52h0a3.5,3.5,0,0,1,3.5,3.5"/><path class="cls-4" d="M1333,313.57a3.5,3.5,0,0,1-3.5,3.5h0"/><line class="cls-4" x1="1370.57" y1="517.27" x2="1370.57" y2="-0.03"/><line class="cls-4" x1="1369.57" y1="516.78" x2="1369.57" y2="-0.59"/><polygon class="cls-5" points="1520 -69.13 1242.19 50.55 1261.64 50.55 1539.45 -69.13 1520 -69.13"/><polygon class="cls-4" points="1520 -69.13 1242.19 50.55 1261.64 50.55 1539.45 -69.13 1520 -69.13"/><line class="cls-4" x1="1251.64" y1="50.55" x2="1529.46" y2="-69.12"/><line class="cls-4" x1="1242.19" y1="49.55" x2="1520" y2="-70.12"/><line class="cls-3" x1="1348.81" y1="86.43" x2="1277.54" y2="181.01"/><line class="cls-3" x1="1350.71" y1="111.99" x2="1303.09" y2="175.83"/><line class="cls-3" x1="1471.49" y1="376.43" x2="1400.23" y2="471.01"/><line class="cls-3" x1="1473.39" y1="401.99" x2="1425.77" y2="465.83"/><rect class="cls-5" x="1251.64" y="50.55" width="10" height="408.63"/><rect class="cls-4" x="1251.64" y="50.55" width="10" height="408.63"/><polygon class="cls-5" points="1586.83 623.83 1251.64 459.18 1261.64 459.18 1596.83 623.83 1586.83 623.83"/><polygon class="cls-4" points="1586.83 623.83 1251.64 459.18 1261.64 459.18 1596.83 623.83 1586.83 623.83"/><line class="cls-4" x1="1242.19" y1="50.55" x2="1251.64" y2="50.55"/><line class="cls-4" x1="1241.64" y1="459.18" x2="1251.64" y2="459.18"/><rect class="cls-4" x="198.36" y="-95.75" width="56.26" height="554.93"/><polyline class="cls-4" points="1155.42 441.5 1155.42 -65.13 1186.04 -95.75"/><line class="cls-4" x1="1243.3" y1="458.75" x2="1243.3" y2="-95.75"/><polygon class="cls-4" points="1185.96 459.18 1186.04 -95.75 1242.3 -95.75 1242.3 459.18 1185.96 459.18"/><rect class="cls-2" y="-189" width="1440" height="190"/><line class="cls-7" y1="1" x2="400.19" y2="1"/><line class="cls-7" x1="1440" y1="1" x2="1039.81" y2="1"/></g><g id="TV"><rect class="cls-8" x="465.51" y="37.23" width="508.98" height="254.43"/><rect class="cls-9" x="465.51" y="21.69" width="508.98" height="16.81"/><rect class="cls-10" x="465.51" y="20.43" width="508.98" height="16.81"/><rect class="cls-11" x="846.21" y="26.22" width="5.22" height="5.22"/><circle class="cls-11" cx="887.09" cy="28.83" r="2.61"/><circle class="cls-12" cx="965.39" cy="28.83" r="4.35"/><circle class="cls-11" cx="939.87" cy="28.83" r="2.61"/><circle class="cls-11" cx="925.37" cy="28.83" r="2.61"/><circle class="cls-11" cx="910.87" cy="28.83" r="2.61"/><line class="cls-13" x1="951.76" y1="25.35" x2="951.76" y2="32.31"/><rect class="cls-11" x="869.98" y="26.22" width="5.22" height="5.22"/><line class="cls-13" x1="898.98" y1="25.35" x2="898.98" y2="32.31"/><rect class="cls-11" x="831.71" y="26.22" width="5.22" height="5.22"/><line class="cls-13" x1="860.71" y1="25.35" x2="860.71" y2="32.31"/><polygon class="cls-14" points="475.16 32.83 475.16 32.08 475.16 32.08 475.16 28.8 475.16 25.59 475.16 24.84 472.85 26.18 472.85 31.5 475.16 32.84 475.17 32.83 475.16 32.83"/><polygon class="cls-15" points="482.07 31.51 482.07 28.84 481.43 29.21 478.62 30.84 475.81 32.46 475.17 32.83 475.16 32.84 477.46 34.17 482.07 31.51"/><polygon class="cls-16" points="475.81 25.21 478.62 26.84 481.43 28.46 482.07 28.83 482.07 26.18 477.46 23.51 475.16 24.84 475.81 25.21"/><line class="cls-17" x1="486.76" y1="28.84" x2="515.86" y2="28.84"/><rect class="cls-9" x="470.11" y="44.27" width="10.43" height="243.49"/><rect class="cls-18" x="469.11" y="43.27" width="10.43" height="243.49"/><line class="cls-19" x1="472.88" y1="48.37" x2="475.76" y2="48.37"/><line class="cls-19" x1="474.32" y1="49.81" x2="474.32" y2="46.94"/><rect class="cls-9" x="608.74" y="54.7" width="175.81" height="233.06"/><rect class="cls-20" x="607.74" y="53.7" width="175.81" height="233.06"/><rect class="cls-9" x="607.74" y="134.38" width="175.81" height="10.6"/><rect class="cls-21" x="607.74" y="133.38" width="175.81" height="10.6"/><rect class="cls-9" x="607.74" y="203.73" width="175.81" height="10.6"/><rect class="cls-21" x="607.74" y="202.73" width="175.81" height="10.6"/><rect class="cls-9" x="607.74" y="65.02" width="175.81" height="10.6"/><rect class="cls-21" x="607.74" y="64.02" width="175.81" height="10.6"/><line class="cls-22" x1="682.85" y1="69.32" x2="708.45" y2="69.32"/><line class="cls-22" x1="682.85" y1="138.68" x2="708.45" y2="138.68"/><line class="cls-22" x1="682.85" y1="207.99" x2="708.45" y2="207.99"/><rect class="cls-23" x="774.12" y="66.88" width="6.71" height="6.71"/><line class="cls-19" x1="776.77" y1="70.23" x2="778.18" y2="70.23"/><rect class="cls-23" x="607.74" y="53.7" width="175.81" height="233.06"/><rect class="cls-9" x="789.6" y="54.7" width="118.12" height="233.06"/><rect class="cls-20" x="788.6" y="53.7" width="118.12" height="233.06"/><rect class="cls-9" x="788.6" y="134.38" width="118.12" height="10.6"/><rect class="cls-21" x="788.6" y="133.38" width="118.12" height="10.6"/><rect class="cls-9" x="788.6" y="203.73" width="118.12" height="10.6"/><rect class="cls-21" x="788.6" y="202.73" width="118.12" height="10.6"/><rect class="cls-9" x="788.6" y="65.02" width="118.12" height="10.6"/><rect class="cls-21" x="788.6" y="64.02" width="118.12" height="10.6"/><line class="cls-22" x1="834.85" y1="69.32" x2="860.46" y2="69.32"/><line class="cls-22" x1="834.85" y1="138.68" x2="860.46" y2="138.68"/><line class="cls-22" x1="834.85" y1="207.99" x2="860.46" y2="207.99"/><rect class="cls-23" x="897.28" y="66.88" width="6.71" height="6.71"/><line class="cls-19" x1="899.93" y1="70.23" x2="901.34" y2="70.23"/><rect class="cls-23" x="788.6" y="53.7" width="118.12" height="233.06"/><rect class="cls-9" x="485.58" y="54.7" width="118.12" height="233.06"/><rect class="cls-20" x="484.58" y="53.7" width="118.12" height="233.06"/><rect class="cls-9" x="484.58" y="134.38" width="118.12" height="10.6"/><rect class="cls-21" x="484.58" y="133.38" width="118.12" height="10.6"/><rect class="cls-9" x="484.58" y="203.73" width="118.12" height="10.6"/><rect class="cls-21" x="484.58" y="202.73" width="118.12" height="10.6"/><rect class="cls-9" x="484.58" y="65.02" width="118.12" height="10.6"/><rect class="cls-21" x="484.58" y="64.02" width="118.12" height="10.6"/><line class="cls-22" x1="530.84" y1="69.32" x2="556.44" y2="69.32"/><line class="cls-22" x1="530.84" y1="138.68" x2="556.44" y2="138.68"/><line class="cls-22" x1="530.84" y1="207.99" x2="556.44" y2="207.99"/><rect class="cls-23" x="593.27" y="66.88" width="6.71" height="6.71"/><line class="cls-19" x1="595.92" y1="70.23" x2="597.32" y2="70.23"/><rect class="cls-23" x="484.58" y="53.7" width="118.12" height="233.06"/><rect class="cls-20" x="911.76" y="64.02" width="59.14" height="10.6"/><line class="cls-20" x1="934.23" y1="69.32" x2="948.31" y2="69.32"/><rect class="cls-9" x="912.76" y="54.59" width="59.14" height="233.17"/><rect class="cls-20" x="911.76" y="53.59" width="59.14" height="233.17"/><rect class="cls-9" x="911.76" y="65.02" width="59.14" height="10.6"/><rect class="cls-21" x="911.76" y="64.02" width="59.14" height="10.6"/><line class="cls-22" x1="934.23" y1="69.32" x2="948.31" y2="69.32"/><rect class="cls-9" x="911.76" y="134.38" width="59.14" height="10.6"/><rect class="cls-21" x="911.76" y="133.38" width="59.14" height="10.6"/><line class="cls-22" x1="934.23" y1="138.68" x2="948.31" y2="138.68"/><rect class="cls-9" x="911.76" y="203.73" width="59.14" height="10.6"/><rect class="cls-21" x="911.76" y="202.73" width="59.14" height="10.6"/><line class="cls-22" x1="934.23" y1="208.03" x2="948.31" y2="208.03"/><rect class="cls-23" x="911.76" y="53.59" width="59.14" height="233.17"/><rect class="cls-9" x="484.58" y="54.59" width="486.31" height="10.43"/><rect class="cls-18" x="484.58" y="53.59" width="486.31" height="10.43"/><line class="cls-22" x1="676.01" y1="58.49" x2="715.29" y2="58.49"/><rect class="cls-9" x="484.58" y="123.94" width="486.31" height="10.43"/><rect class="cls-18" x="484.58" y="122.94" width="486.31" height="10.43"/><line class="cls-22" x1="676.01" y1="127.85" x2="715.29" y2="127.85"/><rect class="cls-9" x="484.58" y="193.3" width="486.31" height="10.43"/><rect class="cls-18" x="484.58" y="192.3" width="486.31" height="10.43"/><line class="cls-22" x1="676.01" y1="197.2" x2="715.29" y2="197.2"/><g class="cls-24"><rect class="cls-21" x="612.43" y="79.96" width="49.19" height="35.48"/></g><rect class="cls-25" x="611.93" y="79.46" width="49.19" height="35.48"/><rect class="cls-26" x="611.93" y="79.46" width="49.19" height="6.91"/><line class="cls-27" x1="624.34" y1="107.29" x2="628.56" y2="107.29"/><line class="cls-27" x1="624.34" y1="111.1" x2="639.15" y2="111.1"/><line class="cls-27" x1="616.64" y1="91.84" x2="645.08" y2="91.84"/><line class="cls-27" x1="616.64" y1="95.65" x2="635.34" y2="95.65"/><rect class="cls-28" x="615.61" y="107.04" width="4.45" height="4.31" rx="0.25" ry="0.25"/><path class="cls-28" d="M619.81,107.29v3.81h-3.95v-3.81h3.95m0-.5h-3.95a.5.5,0,0,0-.5.5v3.81a.5.5,0,0,0,.5.5h3.95a.5.5,0,0,0,.5-.5v-3.81a.5.5,0,0,0-.5-.5Z"/><rect class="cls-29" x="655.8" y="82.8" width="10.63" height="10.63"/><path class="cls-30" d="M657.28,92.79c.65-.38,3.24-1,3.3-1.25v-1.3a2.67,2.67,0,0,1-.39-1,.76.76,0,0,1-.08-.86v-.82c0-.84.35-1.42,1.1-1.42s1.1.58,1.1,1.42v.82a.76.76,0,0,1-.08.86,2.68,2.68,0,0,1-.39,1v1.3c.06.27,2.58.84,3.22,1.22Z"/><polygon class="cls-29" points="656.29 111.86 657.42 110.74 659.32 110.12 661.22 112.02 660.6 113.92 659.48 115.04 656.29 111.86"/><rect class="cls-31" x="652.91" y="113.26" width="5.83" height="4.5" transform="translate(110.41 497.57) rotate(-45)"/><circle class="cls-32" cx="659.06" cy="112.28" r="0.27" transform="translate(113.64 498.91) rotate(-45)"/><g class="cls-24"><rect class="cls-21" x="916.89" y="218.83" width="49.19" height="35.48"/></g><rect class="cls-33" x="916.39" y="218.33" width="49.19" height="35.48"/><rect class="cls-34" x="916.39" y="218.33" width="49.19" height="6.91"/><line class="cls-35" x1="928.8" y1="246.16" x2="933.02" y2="246.16"/><line class="cls-35" x1="928.8" y1="249.97" x2="943.61" y2="249.97"/><line class="cls-35" x1="921.1" y1="230.71" x2="949.54" y2="230.71"/><line class="cls-35" x1="921.1" y1="234.52" x2="939.8" y2="234.52"/><rect class="cls-28" x="920.07" y="245.91" width="4.45" height="4.31" rx="0.25" ry="0.25"/><path class="cls-28" d="M924.27,246.16V250h-3.95v-3.81h3.95m0-.5h-3.95a.5.5,0,0,0-.5.5V250a.5.5,0,0,0,.5.5h3.95a.5.5,0,0,0,.5-.5v-3.81a.5.5,0,0,0-.5-.5Z"/><rect class="cls-29" x="960.26" y="221.67" width="10.63" height="10.63"/><path class="cls-30" d="M961.74,231.66c.65-.38,3.24-1,3.3-1.25v-1.3a2.67,2.67,0,0,1-.39-1,.76.76,0,0,1-.08-.86v-.82c0-.84.35-1.42,1.1-1.42s1.1.58,1.1,1.42v.82a.76.76,0,0,1-.08.86,2.68,2.68,0,0,1-.39,1v1.3c.06.27,2.58.84,3.22,1.22Z"/><polygon class="cls-29" points="960.75 250.73 961.88 249.61 963.78 248.99 965.67 250.88 965.06 252.79 963.93 253.91 960.75 250.73"/><rect class="cls-31" x="957.37" y="252.13" width="5.83" height="4.5" transform="translate(101.39 753.53) rotate(-45)"/><circle class="cls-32" cx="963.52" cy="251.15" r="0.27" transform="translate(104.62 754.87) rotate(-45)"/><g class="cls-24"><rect class="cls-21" x="548.69" y="79.96" width="49.19" height="35.48"/></g><rect class="cls-36" x="548.19" y="79.46" width="49.19" height="35.48"/><rect class="cls-37" x="548.19" y="79.46" width="49.19" height="6.91"/><line class="cls-38" x1="560.6" y1="107.29" x2="564.83" y2="107.29"/><line class="cls-38" x1="560.6" y1="111.1" x2="575.41" y2="111.1"/><line class="cls-38" x1="552.9" y1="91.84" x2="581.34" y2="91.84"/><line class="cls-38" x1="552.9" y1="95.65" x2="571.6" y2="95.65"/><rect class="cls-28" x="551.88" y="107.04" width="4.45" height="4.31" rx="0.25" ry="0.25"/><path class="cls-28" d="M556.07,107.29v3.81h-3.95v-3.81h3.95m0-.5h-3.95a.5.5,0,0,0-.5.5v3.81a.5.5,0,0,0,.5.5h3.95a.5.5,0,0,0,.5-.5v-3.81a.5.5,0,0,0-.5-.5Z"/><rect class="cls-29" x="592.07" y="82.8" width="10.63" height="10.63"/><path class="cls-30" d="M593.54,92.79c.65-.38,3.24-1,3.3-1.25v-1.3a2.67,2.67,0,0,1-.39-1,.76.76,0,0,1-.08-.86v-.82c0-.84.35-1.42,1.1-1.42s1.1.58,1.1,1.42v.82a.76.76,0,0,1-.08.86,2.68,2.68,0,0,1-.39,1v1.3c.06.27,2.58.84,3.22,1.22Z"/><rect class="cls-39" x="579.95" y="113.01" width="8.06" height="6"/><line class="cls-40" x1="582.87" y1="116.64" x2="585.09" y2="116.64"/><rect class="cls-41" x="579.95" y="111.04" width="8.06" height="1.97"/><line class="cls-42" x1="582.28" y1="110.29" x2="582.28" y2="111.79"/><line class="cls-42" x1="585.68" y1="110.29" x2="585.68" y2="111.79"/><polygon class="cls-29" points="594.46 112.16 595.58 111.04 597.49 110.42 599.38 112.32 598.76 114.22 597.64 115.34 594.46 112.16"/><rect class="cls-31" x="591.08" y="113.56" width="5.83" height="4.5" transform="translate(92.08 453.94) rotate(-45)"/><circle class="cls-32" cx="597.22" cy="112.58" r="0.27" transform="translate(95.32 455.28) rotate(-45)"/><g class="cls-24"><rect class="cls-21" x="612.43" y="218.83" width="49.19" height="35.48"/></g><rect class="cls-43" x="611.93" y="218.33" width="49.19" height="35.48"/><rect class="cls-44" x="611.93" y="218.33" width="49.19" height="6.91"/><line class="cls-45" x1="624.34" y1="246.16" x2="628.56" y2="246.16"/><line class="cls-45" x1="624.34" y1="249.97" x2="639.15" y2="249.97"/><line class="cls-45" x1="616.64" y1="230.71" x2="645.08" y2="230.71"/><line class="cls-45" x1="616.64" y1="234.52" x2="635.34" y2="234.52"/><rect class="cls-28" x="615.61" y="245.91" width="4.45" height="4.31" rx="0.25" ry="0.25"/><path class="cls-28" d="M619.81,246.16V250h-3.95v-3.81h3.95m0-.5h-3.95a.5.5,0,0,0-.5.5V250a.5.5,0,0,0,.5.5h3.95a.5.5,0,0,0,.5-.5v-3.81a.5.5,0,0,0-.5-.5Z"/><rect class="cls-29" x="655.8" y="221.67" width="10.63" height="10.63"/><path class="cls-30" d="M657.28,231.66c.65-.38,3.24-1,3.3-1.25v-1.3a2.67,2.67,0,0,1-.39-1,.76.76,0,0,1-.08-.86v-.82c0-.84.35-1.42,1.1-1.42s1.1.58,1.1,1.42v.82a.76.76,0,0,1-.08.86,2.68,2.68,0,0,1-.39,1v1.3c.06.27,2.58.84,3.22,1.22Z"/><rect class="cls-39" x="651.77" y="251.53" width="8.06" height="6"/><line class="cls-40" x1="654.69" y1="255.16" x2="656.91" y2="255.16"/><rect class="cls-41" x="651.77" y="249.56" width="8.06" height="1.97"/><line class="cls-42" x1="654.1" y1="248.81" x2="654.1" y2="250.3"/><line class="cls-42" x1="657.51" y1="248.81" x2="657.51" y2="250.3"/><g class="cls-24"><rect class="cls-21" x="794.05" y="79.96" width="49.19" height="35.48"/></g><rect class="cls-43" x="793.55" y="79.46" width="49.19" height="35.48"/><rect class="cls-44" x="793.55" y="79.46" width="49.19" height="6.91"/><line class="cls-45" x1="805.96" y1="107.29" x2="810.19" y2="107.29"/><line class="cls-45" x1="805.96" y1="111.1" x2="820.78" y2="111.1"/><line class="cls-45" x1="798.26" y1="91.84" x2="826.71" y2="91.84"/><line class="cls-45" x1="798.26" y1="95.65" x2="816.97" y2="95.65"/><rect class="cls-28" x="797.24" y="107.04" width="4.45" height="4.31" rx="0.25" ry="0.25"/><path class="cls-28" d="M801.44,107.29v3.81h-3.95v-3.81h3.95m0-.5h-3.95a.5.5,0,0,0-.5.5v3.81a.5.5,0,0,0,.5.5h3.95a.5.5,0,0,0,.5-.5v-3.81a.5.5,0,0,0-.5-.5Z"/><rect class="cls-29" x="837.43" y="82.8" width="10.63" height="10.63"/><path class="cls-30" d="M838.9,92.79c.65-.38,3.24-1,3.3-1.25v-1.3a2.67,2.67,0,0,1-.39-1,.76.76,0,0,1-.08-.86v-.82c0-.84.35-1.42,1.1-1.42s1.1.58,1.1,1.42v.82a.76.76,0,0,1-.08.86,2.68,2.68,0,0,1-.39,1v1.3c.06.27,2.58.84,3.22,1.22Z"/><rect class="cls-29" x="837.43" y="95.65" width="10.63" height="10.63"/><path class="cls-30" d="M838.9,105.63c.65-.38,3.24-1,3.3-1.25v-1.3a2.67,2.67,0,0,1-.39-1,.76.76,0,0,1-.08-.86v-.82c0-.84.35-1.42,1.1-1.42s1.1.58,1.1,1.42v.82a.76.76,0,0,1-.08.86,2.68,2.68,0,0,1-.39,1v1.3c.06.27,2.58.84,3.22,1.22Z"/><rect class="cls-39" x="825.31" y="113.01" width="8.06" height="6"/><line class="cls-40" x1="828.24" y1="116.64" x2="830.45" y2="116.64"/><rect class="cls-41" x="825.31" y="111.04" width="8.06" height="1.97"/><line class="cls-42" x1="827.64" y1="110.29" x2="827.64" y2="111.79"/><line class="cls-42" x1="831.05" y1="110.29" x2="831.05" y2="111.79"/><polygon class="cls-29" points="839.82 112.16 840.95 111.04 842.85 110.42 844.75 112.32 844.13 114.22 843 115.34 839.82 112.16"/><rect class="cls-31" x="836.44" y="113.56" width="5.83" height="4.5" transform="translate(163.95 627.43) rotate(-45)"/><circle class="cls-32" cx="842.59" cy="112.58" r="0.27" transform="translate(167.18 628.77) rotate(-45)"/><g class="cls-24"><rect class="cls-21" x="852.71" y="79.96" width="49.19" height="35.48"/></g><rect class="cls-46" x="852.21" y="79.46" width="49.19" height="35.48"/><rect class="cls-47" x="852.21" y="79.46" width="49.19" height="6.91"/><line class="cls-48" x1="864.62" y1="107.29" x2="868.85" y2="107.29"/><line class="cls-48" x1="864.62" y1="111.1" x2="879.43" y2="111.1"/><line class="cls-48" x1="856.92" y1="91.84" x2="885.36" y2="91.84"/><line class="cls-48" x1="856.92" y1="95.65" x2="875.62" y2="95.65"/><rect class="cls-28" x="855.89" y="107.04" width="4.45" height="4.31" rx="0.25" ry="0.25"/><path class="cls-28" d="M860.09,107.29v3.81h-3.95v-3.81h3.95m0-.5h-3.95a.5.5,0,0,0-.5.5v3.81a.5.5,0,0,0,.5.5h3.95a.5.5,0,0,0,.5-.5v-3.81a.5.5,0,0,0-.5-.5Z"/><rect class="cls-29" x="896.08" y="82.8" width="10.63" height="10.63"/><path class="cls-30" d="M897.56,92.79c.65-.38,3.24-1,3.3-1.25v-1.3a2.67,2.67,0,0,1-.39-1,.76.76,0,0,1-.08-.86v-.82c0-.84.35-1.42,1.1-1.42s1.1.58,1.1,1.42v.82a.76.76,0,0,1-.08.86,2.68,2.68,0,0,1-.39,1v1.3c.06.27,2.58.84,3.22,1.22Z"/><rect class="cls-39" x="892.05" y="112.66" width="8.06" height="6"/><line class="cls-40" x1="894.98" y1="116.29" x2="897.19" y2="116.29"/><rect class="cls-41" x="892.05" y="110.69" width="8.06" height="1.97"/><line class="cls-42" x1="894.38" y1="109.94" x2="894.38" y2="111.43"/><line class="cls-42" x1="897.79" y1="109.94" x2="897.79" y2="111.43"/><g class="cls-24"><rect class="cls-21" x="794.05" y="149.48" width="49.19" height="35.48"/></g><rect class="cls-36" x="793.55" y="148.98" width="49.19" height="35.48"/><rect class="cls-37" x="793.55" y="148.98" width="49.19" height="6.91"/><line class="cls-38" x1="805.96" y1="176.81" x2="810.19" y2="176.81"/><line class="cls-38" x1="805.96" y1="180.62" x2="820.78" y2="180.62"/><line class="cls-38" x1="798.26" y1="161.35" x2="826.71" y2="161.35"/><line class="cls-38" x1="798.26" y1="165.16" x2="816.97" y2="165.16"/><rect class="cls-28" x="797.24" y="176.56" width="4.45" height="4.31" rx="0.25" ry="0.25"/><path class="cls-28" d="M801.44,176.81v3.81h-3.95v-3.81h3.95m0-.5h-3.95a.5.5,0,0,0-.5.5v3.81a.5.5,0,0,0,.5.5h3.95a.5.5,0,0,0,.5-.5v-3.81a.5.5,0,0,0-.5-.5Z"/><rect class="cls-29" x="837.43" y="152.32" width="10.63" height="10.63"/><path class="cls-30" d="M838.9,162.3c.65-.38,3.24-1,3.3-1.25v-1.3a2.67,2.67,0,0,1-.39-1,.76.76,0,0,1-.08-.86v-.82c0-.84.35-1.42,1.1-1.42s1.1.58,1.1,1.42v.82a.76.76,0,0,1-.08.86,2.68,2.68,0,0,1-.39,1V161c.06.27,2.58.84,3.22,1.22Z"/><rect class="cls-39" x="833.4" y="182.17" width="8.06" height="6"/><line class="cls-40" x1="836.32" y1="185.8" x2="838.54" y2="185.8"/><rect class="cls-41" x="833.4" y="180.2" width="8.06" height="1.97"/><line class="cls-42" x1="835.73" y1="179.46" x2="835.73" y2="180.95"/><line class="cls-42" x1="839.13" y1="179.46" x2="839.13" y2="180.95"/><rect class="cls-9" x="484.58" y="44.16" width="486.31" height="10.43"/><rect class="cls-49" x="484.58" y="43.16" width="486.31" height="10.43"/><line class="cls-22" x1="655.69" y1="48.37" x2="735.6" y2="48.37"/><g class="cls-24"><rect class="cls-21" x="548.69" y="149.48" width="49.19" height="35.48"/></g><rect class="cls-43" x="548.19" y="148.98" width="49.19" height="35.48"/><rect class="cls-44" x="548.19" y="148.98" width="49.19" height="6.91"/><line class="cls-45" x1="560.6" y1="176.81" x2="564.83" y2="176.81"/><line class="cls-45" x1="560.6" y1="180.62" x2="575.41" y2="180.62"/><line class="cls-45" x1="552.9" y1="161.35" x2="581.34" y2="161.35"/><line class="cls-45" x1="552.9" y1="165.16" x2="571.6" y2="165.16"/><rect class="cls-28" x="551.88" y="176.56" width="4.45" height="4.31" rx="0.25" ry="0.25"/><path class="cls-28" d="M556.07,176.81v3.81h-3.95v-3.81h3.95m0-.5h-3.95a.5.5,0,0,0-.5.5v3.81a.5.5,0,0,0,.5.5h3.95a.5.5,0,0,0,.5-.5v-3.81a.5.5,0,0,0-.5-.5Z"/><polygon class="cls-41" points="593.69 180.86 589.88 180.86 587.18 183.55 587.18 187.36 589.88 190.06 593.69 190.06 596.38 187.36 596.38 183.55 593.69 180.86"/><rect class="cls-29" x="592.07" y="152.32" width="10.63" height="10.63"/><path class="cls-30" d="M593.54,162.3c.65-.38,3.24-1,3.3-1.25v-1.3a2.67,2.67,0,0,1-.39-1,.76.76,0,0,1-.08-.86v-.82c0-.84.35-1.42,1.1-1.42s1.1.58,1.1,1.42v.82a.76.76,0,0,1-.08.86,2.68,2.68,0,0,1-.39,1V161c.06.27,2.58.84,3.22,1.22Z"/><line class="cls-50" x1="590.11" y1="183.78" x2="593.46" y2="187.13"/><line class="cls-50" x1="590.11" y1="187.13" x2="593.46" y2="183.78"/><g class="cls-24"><rect class="cls-21" x="612.43" y="149.48" width="49.19" height="35.48"/></g><rect class="cls-33" x="611.93" y="148.98" width="49.19" height="35.48"/><rect class="cls-34" x="611.93" y="148.98" width="49.19" height="6.91"/><line class="cls-35" x1="624.34" y1="176.81" x2="628.56" y2="176.81"/><line class="cls-35" x1="624.34" y1="180.62" x2="639.15" y2="180.62"/><line class="cls-35" x1="616.64" y1="161.35" x2="645.08" y2="161.35"/><line class="cls-35" x1="616.64" y1="165.16" x2="635.34" y2="165.16"/><rect class="cls-28" x="615.61" y="176.56" width="4.45" height="4.31" rx="0.25" ry="0.25"/><path class="cls-28" d="M619.81,176.81v3.81h-3.95v-3.81h3.95m0-.5h-3.95a.5.5,0,0,0-.5.5v3.81a.5.5,0,0,0,.5.5h3.95a.5.5,0,0,0,.5-.5v-3.81a.5.5,0,0,0-.5-.5Z"/><rect class="cls-29" x="655.8" y="152.32" width="10.63" height="10.63"/><path class="cls-30" d="M657.28,162.3c.65-.38,3.24-1,3.3-1.25v-1.3a2.67,2.67,0,0,1-.39-1,.76.76,0,0,1-.08-.86v-.82c0-.84.35-1.42,1.1-1.42s1.1.58,1.1,1.42v.82a.76.76,0,0,1-.08.86,2.68,2.68,0,0,1-.39,1V161c.06.27,2.58.84,3.22,1.22Z"/><g class="cls-24"><rect class="cls-21" x="670.89" y="79.96" width="49.19" height="35.48"/></g><rect class="cls-43" x="670.39" y="79.46" width="49.19" height="35.48"/><rect class="cls-44" x="670.39" y="79.46" width="49.19" height="6.91"/><line class="cls-45" x1="682.8" y1="107.29" x2="687.03" y2="107.29"/><line class="cls-45" x1="682.8" y1="111.1" x2="697.62" y2="111.1"/><line class="cls-45" x1="675.1" y1="91.84" x2="703.54" y2="91.84"/><line class="cls-45" x1="675.1" y1="95.65" x2="693.81" y2="95.65"/><rect class="cls-28" x="674.08" y="107.04" width="4.45" height="4.31" rx="0.25" ry="0.25"/><path class="cls-28" d="M678.28,107.29v3.81h-3.95v-3.81h3.95m0-.5h-3.95a.5.5,0,0,0-.5.5v3.81a.5.5,0,0,0,.5.5h3.95a.5.5,0,0,0,.5-.5v-3.81a.5.5,0,0,0-.5-.5Z"/><rect class="cls-29" x="714.27" y="82.8" width="10.63" height="10.63"/><path class="cls-30" d="M715.74,92.79c.65-.38,3.24-1,3.3-1.25v-1.3a2.67,2.67,0,0,1-.39-1,.76.76,0,0,1-.08-.86v-.82c0-.84.35-1.42,1.1-1.42s1.1.58,1.1,1.42v.82a.76.76,0,0,1-.08.86,2.68,2.68,0,0,1-.39,1v1.3c.06.27,2.58.84,3.22,1.22Z"/><g class="cls-24"><rect class="cls-21" x="670.89" y="149.48" width="49.19" height="35.48"/></g><rect class="cls-25" x="670.39" y="148.98" width="49.19" height="35.48"/><rect class="cls-26" x="670.39" y="148.98" width="49.19" height="6.91"/><line class="cls-27" x1="682.8" y1="176.81" x2="687.03" y2="176.81"/><line class="cls-27" x1="682.8" y1="180.62" x2="697.62" y2="180.62"/><line class="cls-27" x1="675.1" y1="161.35" x2="703.54" y2="161.35"/><line class="cls-27" x1="675.1" y1="165.16" x2="693.81" y2="165.16"/><rect class="cls-28" x="674.08" y="176.56" width="4.45" height="4.31" rx="0.25" ry="0.25"/><path class="cls-28" d="M678.28,176.81v3.81h-3.95v-3.81h3.95m0-.5h-3.95a.5.5,0,0,0-.5.5v3.81a.5.5,0,0,0,.5.5h3.95a.5.5,0,0,0,.5-.5v-3.81a.5.5,0,0,0-.5-.5Z"/><rect class="cls-29" x="714.27" y="152.32" width="10.63" height="10.63"/><path class="cls-30" d="M715.74,162.3c.65-.38,3.24-1,3.3-1.25v-1.3a2.67,2.67,0,0,1-.39-1,.76.76,0,0,1-.08-.86v-.82c0-.84.35-1.42,1.1-1.42s1.1.58,1.1,1.42v.82a.76.76,0,0,1-.08.86,2.68,2.68,0,0,1-.39,1V161c.06.27,2.58.84,3.22,1.22Z"/><rect class="cls-29" x="714.27" y="165.05" width="10.63" height="10.63"/><path class="cls-30" d="M715.74,175c.65-.38,3.24-1,3.3-1.25v-1.3a2.67,2.67,0,0,1-.39-1,.76.76,0,0,1-.08-.86v-.82c0-.84.35-1.42,1.1-1.42s1.1.58,1.1,1.42v.82a.76.76,0,0,1-.08.86,2.68,2.68,0,0,1-.39,1v1.3c.06.27,2.58.84,3.22,1.22Z"/><circle class="cls-33" cx="713.98" cy="183.46" r="4.6"/><polyline class="cls-50" points="711.51 184.69 713.99 182.22 716.46 184.69"/><line class="cls-19" x1="487.58" y1="48.37" x2="489.97" y2="48.37"/><path class="cls-51" d="M446.58,7.1V322.85a5,5,0,0,0,5,5H988.42a5,5,0,0,0,5-5V7.1a5,5,0,0,0-5-5H451.58A5,5,0,0,0,446.58,7.1Zm529.2,285.47H464.22V19.74H975.78Z"/><line class="cls-52" x1="506.81" y1="162.59" x2="621.7" y2="66.86"/><line class="cls-52" x1="507.66" y1="116.89" x2="576.6" y2="59.45"/><path class="cls-53" d="M446.58,7.1V322.85a5,5,0,0,0,5,5H988.42a5,5,0,0,0,5-5V7.1a5,5,0,0,0-5-5H451.58A5,5,0,0,0,446.58,7.1Zm529.2,285.47H464.22V19.74H975.78Z"/><line class="cls-3" x1="693.95" y1="309.71" x2="741.54" y2="309.71"/></g><g id="Chairs"><line class="cls-4" x1="423.37" y1="319.38" x2="427.77" y2="318.31"/><polygon class="cls-4" points="426.38 392.46 433.26 389.32 433.62 391.93 426.38 392.46"/><path class="cls-2" d="M563.1,379.42c-5.31-7.6-11.69-10.3-20.27-10.3H478.17a2.77,2.77,0,1,0,0,5.55h62.43c7.57,0,13,2.53,17.59,8.87Z"/><path class="cls-5" d="M542.83,372H478.17a1.56,1.56,0,1,0,0,2.67h62.43c7.57,0,13,2.53,17.59,8.87l2.77-2.33C555.92,375,550.71,372,542.83,372Z"/><path class="cls-4" d="M563.1,379.42c-5.31-7.6-11.69-10.3-20.27-10.3H478.17a2.77,2.77,0,1,0,0,5.55h62.43c7.57,0,13,2.53,17.59,8.87Z"/><path class="cls-2" d="M478.67,305.69c-1.24-8.79-7-14.16-11.54-17.08a14.32,14.32,0,0,0-10.24-2.06l-27.23,4.75a7.19,7.19,0,0,0-4.13,11.89,26.13,26.13,0,0,1,6.64,14.06c2.4,17.07,11.2,79.48,11.2,79.48l45-21.91S480.75,320.54,478.67,305.69Z"/><path class="cls-5" d="M475.79,308.57c-1.24-8.79-7-14.16-11.54-17.08A14.32,14.32,0,0,0,454,289.43l-27.23,4.75a7.23,7.23,0,0,0-2.2.77,7.11,7.11,0,0,0,.95,8.24,26.13,26.13,0,0,1,6.64,14.06c2.4,17.07,11.2,79.48,11.2,79.48l-6.18,45.43h0L480.32,416l5.21-38.28S477.87,323.42,475.79,308.57Z"/><path class="cls-4" d="M478.67,305.69c-1.24-8.79-7-14.16-11.54-17.08a14.32,14.32,0,0,0-10.24-2.06l-27.23,4.75a7.19,7.19,0,0,0-4.13,11.89,26.13,26.13,0,0,1,6.64,14.06c2.4,17.07,11.2,79.48,11.2,79.48l45-21.91S480.75,320.54,478.67,305.69Z"/><path class="cls-2" d="M423.37,319.38a27.92,27.92,0,0,0-6.66-14.59,7.19,7.19,0,0,1,4.13-11.89l8.83-1.54v-.06a7.19,7.19,0,0,0-4.13,11.89,26.13,26.13,0,0,1,6.64,14.06c2.4,17.07,11.2,79.48,11.2,79.48l-6.18,45.43h0a35.17,35.17,0,0,0,10.45-.33,258.63,258.63,0,0,1,33.78-3.31,43.43,43.43,0,0,1,10.21.86l-9.58,8s-.46,0-1.9,0a235.53,235.53,0,0,0-32.75,2.93c-14.27,2.3-21.38-2.4-19.77-10.94,1.79-9.57,6.67-42.67,6.67-42.67Z"/><path class="cls-5" d="M479.26,440.67A258.63,258.63,0,0,0,445.48,444a35.17,35.17,0,0,1-10.45.33h0l6.18-45.43s-8.8-62.41-11.2-79.48a26.13,26.13,0,0,0-6.64-14.06,7.19,7.19,0,0,1,1.48-10.86c.13-.2.27-.39.42-.58l-6.59,1.15a5.18,5.18,0,0,0-2,9.73,27.92,27.92,0,0,1,6.66,14.59l10.94,77.35s-4.87,33.11-6.67,42.67c-1.6,8.53,5.51,13.24,19.77,10.94a235.54,235.54,0,0,1,32.75-2.93c1.44,0,1.9,0,1.9,0l7.09-5.95A45.49,45.49,0,0,0,479.26,440.67Z"/><path class="cls-4" d="M423.37,319.38a27.92,27.92,0,0,0-6.66-14.59,7.19,7.19,0,0,1,4.13-11.89l8.83-1.54v-.06a7.19,7.19,0,0,0-4.13,11.89,26.13,26.13,0,0,1,6.64,14.06c2.4,17.07,11.2,79.48,11.2,79.48l-6.18,45.43h0a35.17,35.17,0,0,0,10.45-.33,258.63,258.63,0,0,1,33.78-3.31,43.43,43.43,0,0,1,10.21.86l-9.58,8s-.46,0-1.9,0a235.53,235.53,0,0,0-32.75,2.93c-14.27,2.3-21.38-2.4-19.77-10.94,1.79-9.57,6.67-42.67,6.67-42.67Z"/><polygon class="cls-4" points="488.41 374.82 483.04 414.33 483.04 414.33 437.19 442.16 437.19 442.16 443.37 396.73 488.41 374.82"/><line class="cls-4" x1="432.17" y1="317.24" x2="469.37" y2="308"/><path class="cls-2" d="M533,404.65c-6.56-9.38-14.43-12.72-25-12.72H428.17a3.43,3.43,0,1,0,0,6.85h77.08c9.34,0,16,3.13,21.71,11Z"/><path class="cls-5" d="M508,395.52H424.76c-1.23,0,1.11.65.51,1.63a3.41,3.41,0,0,0,2.9,1.63h77.08c9.34,0,16,3.13,21.71,11l3.3-2.77C524,399.26,517.71,395.52,508,395.52Z"/><path class="cls-4" d="M533,404.65c-6.56-9.38-14.43-12.72-25-12.72H428.17a3.43,3.43,0,1,0,0,6.85h77.08c9.34,0,16,3.13,21.71,11Z"/><path class="cls-5" d="M523,413.09h-1.52c-11.52,0-18.7.77-31.33,2.81a33.65,33.65,0,0,1-10,.32l-42.76,26a35.43,35.43,0,0,0,10.29-.35,258.63,258.63,0,0,1,33.78-3.31,43.43,43.43,0,0,1,10.21.86Z"/><path class="cls-4" d="M524.87,411.49H520.6c-10.47,0-17,.7-28.48,2.55a30.59,30.59,0,0,1-9.08.29L437.2,442.16a35.17,35.17,0,0,0,10.45-.33,258.63,258.63,0,0,1,33.78-3.31,43.43,43.43,0,0,1,10.21.86Z"/><path class="cls-54" d="M472.64,447.67v17.76h7.42v-18C477.81,447.45,475.32,447.54,472.64,447.67Z"/><line class="cls-4" x1="316.58" y1="340.24" x2="322.7" y2="338.76"/><polygon class="cls-4" points="320.77 441.75 330.32 437.39 330.83 441 320.77 441.75"/><path class="cls-2" d="M510.65,423.63c-7.38-10.55-16.24-14.31-28.15-14.31H392.7a3.85,3.85,0,1,0,0,7.71h86.71c10.51,0,18,3.52,24.43,12.32Z"/><path class="cls-5" d="M482.5,413.32H392.7a2.16,2.16,0,1,0,0,3.71h86.71c10.51,0,18,3.52,24.43,12.32l3.85-3.23C500.69,417.44,493.44,413.32,482.5,413.32Z"/><path class="cls-4" d="M510.65,423.63c-7.38-10.55-16.24-14.31-28.15-14.31H392.7a3.85,3.85,0,1,0,0,7.71h86.71c10.51,0,18,3.52,24.43,12.32Z"/><path class="cls-2" d="M393.39,321.24c-1.72-12.21-9.76-19.67-16-23.73a19.89,19.89,0,0,0-14.23-2.86l-37.82,6.6a10,10,0,0,0-5.73,16.51,36.3,36.3,0,0,1,9.23,19.52c3.33,23.71,15.56,110.39,15.56,110.39l62.55-30.43S396.29,341.86,393.39,321.24Z"/><path class="cls-5" d="M389.39,325.24c-1.72-12.21-9.76-19.67-16-23.73a19.89,19.89,0,0,0-14.23-2.86l-37.82,6.6a10,10,0,0,0-3.05,1.07,9.88,9.88,0,0,0,1.32,11.44,36.3,36.3,0,0,1,9.23,19.52c3.33,23.71,15.56,110.39,15.56,110.39l-8.58,63.1h0l59.9-36.36,7.23-53.16S392.29,345.86,389.39,325.24Z"/><path class="cls-4" d="M393.39,321.24c-1.72-12.21-9.76-19.67-16-23.73a19.89,19.89,0,0,0-14.23-2.86l-37.82,6.6a10,10,0,0,0-5.73,16.51,36.3,36.3,0,0,1,9.23,19.52c3.33,23.71,15.56,110.39,15.56,110.39l62.55-30.43S396.29,341.86,393.39,321.24Z"/><path class="cls-2" d="M316.58,340.24A38.78,38.78,0,0,0,307.33,320a10,10,0,0,1,5.73-16.51l12.26-2.14v-.08a10,10,0,0,0-5.73,16.51,36.3,36.3,0,0,1,9.23,19.52c3.33,23.71,15.56,110.39,15.56,110.39l-8.58,63.1h0a48.85,48.85,0,0,0,14.51-.46,359.21,359.21,0,0,1,46.92-4.6,60.32,60.32,0,0,1,14.18,1.19l-13.3,11.16s-.63,0-2.64,0A327.13,327.13,0,0,0,350,522.13c-19.82,3.2-29.69-3.33-27.47-15.19,2.49-13.29,9.26-59.27,9.26-59.27Z"/><path class="cls-5" d="M394.22,508.71a359.21,359.21,0,0,0-46.92,4.6,48.85,48.85,0,0,1-14.51.46h0l8.58-63.1S329.14,364,325.81,340.28a36.3,36.3,0,0,0-9.23-19.52,10,10,0,0,1,2.05-15.08c.18-.28.38-.54.59-.8l-9.15,1.6A7.2,7.2,0,0,0,307.33,320a38.78,38.78,0,0,1,9.25,20.26l15.19,107.43s-6.77,46-9.26,59.27c-2.22,11.85,7.65,18.39,27.47,15.19a327.13,327.13,0,0,1,45.48-4.07c2,0,2.64,0,2.64,0l9.85-8.26A63.18,63.18,0,0,0,394.22,508.71Z"/><path class="cls-4" d="M316.58,340.24A38.78,38.78,0,0,0,307.33,320a10,10,0,0,1,5.73-16.51l12.26-2.14v-.08a10,10,0,0,0-5.73,16.51,36.3,36.3,0,0,1,9.23,19.52c3.33,23.71,15.56,110.39,15.56,110.39l-8.58,63.1h0a48.85,48.85,0,0,0,14.51-.46,359.21,359.21,0,0,1,46.92-4.6,60.32,60.32,0,0,1,14.18,1.19l-13.3,11.16s-.63,0-2.64,0A327.13,327.13,0,0,0,350,522.13c-19.82,3.2-29.69-3.33-27.47-15.19,2.49-13.29,9.26-59.27,9.26-59.27Z"/><polygon class="cls-4" points="406.92 417.24 399.45 472.12 399.46 472.12 335.79 510.77 335.79 510.77 344.37 447.67 406.92 417.24"/><line class="cls-4" x1="328.81" y1="337.28" x2="380.47" y2="324.45"/><path class="cls-2" d="M468.87,458.67c-9.11-13-20-17.67-34.75-17.67H323.25a4.76,4.76,0,1,0,0,9.51H430.31c13,0,22.26,4.34,30.16,15.22Z"/><path class="cls-5" d="M434.12,446H318.51c-1.71,0,1.55.91.71,2.26a4.74,4.74,0,0,0,4,2.26H430.31c13,0,22.26,4.34,30.16,15.22l4.59-3.85C456.41,451.19,447.61,446,434.12,446Z"/><path class="cls-4" d="M468.87,458.67c-9.11-13-20-17.67-34.75-17.67H323.25a4.76,4.76,0,1,0,0,9.51H430.31c13,0,22.26,4.34,30.16,15.22Z"/><path class="cls-5" d="M454.9,470.4h-2.11c-16,0-26,1.07-43.51,3.9a46.73,46.73,0,0,1-13.88.44L336,510.8a49.21,49.21,0,0,0,14.29-.49,359.21,359.21,0,0,1,46.92-4.6,60.32,60.32,0,0,1,14.18,1.19Z"/><path class="cls-4" d="M457.55,468.17h-5.93c-14.54,0-23.62,1-39.55,3.54a42.48,42.48,0,0,1-12.62.4l-63.67,38.65a48.85,48.85,0,0,0,14.51-.46,359.21,359.21,0,0,1,46.92-4.6,60.32,60.32,0,0,1,14.18,1.19Z"/><path class="cls-54" d="M385,518.43v24.67h10.31v-25C392.2,518.12,388.74,518.24,385,518.43Z"/><line class="cls-4" x1="182.17" y1="379.21" x2="190.12" y2="377.28"/><polygon class="cls-4" points="187.62 511.16 200.03 505.5 200.69 510.2 187.62 511.16"/><path class="cls-2" d="M434.46,487.61c-9.59-13.72-21.11-18.61-36.6-18.61H281.12a5,5,0,1,0,0,10H393.85c13.67,0,23.44,4.57,31.75,16Z"/><path class="cls-5" d="M397.87,474.21H281.12a5,5,0,0,0-4.26,2.41,5,5,0,0,0,4.26,2.41H393.85c13.67,0,23.44,4.57,31.75,16l5-4.2C421.51,479.56,412.09,474.21,397.87,474.21Z"/><path class="cls-4" d="M434.46,487.61c-9.59-13.72-21.11-18.61-36.6-18.61H281.12a5,5,0,1,0,0,10H393.85c13.67,0,23.44,4.57,31.75,16Z"/><path class="cls-2" d="M282,354.5c-2.23-15.87-12.68-25.57-20.84-30.85a25.85,25.85,0,0,0-18.49-3.72l-49.16,8.58A13,13,0,0,0,186.07,350a47.18,47.18,0,0,1,12,25.38c4.33,30.82,20.23,143.51,20.23,143.51l81.32-39.56S285.79,381.31,282,354.5Z"/><path class="cls-5" d="M276.82,359.7c-2.23-15.87-12.68-25.57-20.84-30.85a25.85,25.85,0,0,0-18.49-3.72l-49.16,8.58a13.05,13.05,0,0,0-4,1.39A12.84,12.84,0,0,0,186.07,350a47.18,47.18,0,0,1,12,25.38c4.33,30.82,20.23,143.51,20.23,143.51l-11.16,82h0L285,553.62l9.4-69.11S280.59,386.51,276.82,359.7Z"/><path class="cls-4" d="M282,354.5c-2.23-15.87-12.68-25.57-20.84-30.85a25.85,25.85,0,0,0-18.49-3.72l-49.16,8.58A13,13,0,0,0,186.07,350a47.18,47.18,0,0,1,12,25.38c4.33,30.82,20.23,143.51,20.23,143.51l81.32-39.56S285.79,381.31,282,354.5Z"/><path class="cls-2" d="M182.17,379.21a50.41,50.41,0,0,0-12-26.34,13,13,0,0,1,7.45-21.46l15.94-2.78,0-.11A13,13,0,0,0,186.07,350a47.18,47.18,0,0,1,12,25.38c4.33,30.82,20.23,143.51,20.23,143.51l-11.16,82h0a63.51,63.51,0,0,0,18.86-.6,467,467,0,0,1,61-6,78.42,78.42,0,0,1,18.44,1.55l-17.29,14.51s-.82-.06-3.43,0a425.27,425.27,0,0,0-59.12,5.3c-25.76,4.16-38.59-4.33-35.7-19.74,3.24-17.27,12-77.05,12-77.05Z"/><path class="cls-5" d="M283.09,598.21a467,467,0,0,0-61,6,63.51,63.51,0,0,1-18.86.6h0l11.16-82S198.5,410.08,194.16,379.26a47.18,47.18,0,0,0-12-25.38,13,13,0,0,1,2.67-19.6c.23-.36.49-.71.76-1l-11.9,2.08a13,13,0,0,0-4.79,1.86,12.88,12.88,0,0,0,1.23,15.7,50.41,50.41,0,0,1,12,26.34l19.74,139.66s-8.8,59.78-12,77.05c-2.89,15.41,9.94,23.91,35.7,19.74a425.27,425.27,0,0,1,59.12-5.3c2.61-.05,3.43,0,3.43,0l12.8-10.74A82.14,82.14,0,0,0,283.09,598.21Z"/><path class="cls-4" d="M182.17,379.21a50.41,50.41,0,0,0-12-26.34,13,13,0,0,1,7.45-21.46l15.94-2.78,0-.11A13,13,0,0,0,186.07,350a47.18,47.18,0,0,1,12,25.38c4.33,30.82,20.23,143.51,20.23,143.51l-11.16,82h0a63.51,63.51,0,0,0,18.86-.6,467,467,0,0,1,61-6,78.42,78.42,0,0,1,18.44,1.55l-17.29,14.51s-.82-.06-3.43,0a425.27,425.27,0,0,0-59.12,5.3c-25.76,4.16-38.59-4.33-35.7-19.74,3.24-17.27,12-77.05,12-77.05Z"/><polygon class="cls-4" points="299.61 479.31 289.9 550.64 289.91 550.64 207.14 600.89 207.13 600.89 218.29 518.87 299.61 479.31"/><line class="cls-4" x1="198.06" y1="375.36" x2="265.23" y2="358.67"/><path class="cls-2" d="M380.15,533.17c-11.84-16.94-26.06-23-45.18-23H190.84a6.18,6.18,0,1,0,0,12.37H330c16.87,0,28.94,5.65,39.2,19.78Z"/><path class="cls-5" d="M335,516.7H184.68c-2.22,0,2,1.18.92,2.93a6.16,6.16,0,0,0,5.24,2.93H330c16.87,0,28.94,5.65,39.2,19.78l6-5C363.94,523.44,352.5,516.7,335,516.7Z"/><path class="cls-4" d="M380.15,533.17c-11.84-16.94-26.06-23-45.18-23H190.84a6.18,6.18,0,1,0,0,12.37H330c16.87,0,28.94,5.65,39.2,19.78Z"/><path class="cls-5" d="M362,548.41h-2.74c-20.79,0-33.77,1.39-56.56,5.07a60.75,60.75,0,0,1-18,.57l-77.21,46.88a64,64,0,0,0,18.57-.63,467,467,0,0,1,61-6,78.42,78.42,0,0,1,18.44,1.55Z"/><path class="cls-4" d="M365.43,545.52h-7.7c-18.9,0-30.7,1.26-51.42,4.61a55.23,55.23,0,0,1-16.4.52l-82.77,50.25a63.51,63.51,0,0,0,18.86-.6,467,467,0,0,1,61-6,78.42,78.42,0,0,1,18.44,1.55Z"/><line class="cls-4" x1="1016.63" y1="319.38" x2="1012.23" y2="318.31"/><polygon class="cls-4" points="1013.62 392.46 1006.74 389.32 1006.38 391.93 1013.62 392.46"/><path class="cls-2" d="M876.9,379.42c5.31-7.6,11.69-10.3,20.27-10.3h64.66a2.77,2.77,0,1,1,0,5.55H899.39c-7.57,0-13,2.53-17.59,8.87Z"/><path class="cls-5" d="M897.17,372h64.66a1.56,1.56,0,1,1,0,2.67H899.39c-7.57,0-13,2.53-17.59,8.87L879,381.21C884.08,375,889.29,372,897.17,372Z"/><path class="cls-4" d="M876.9,379.42c5.31-7.6,11.69-10.3,20.27-10.3h64.66a2.77,2.77,0,1,1,0,5.55H899.39c-7.57,0-13,2.53-17.59,8.87Z"/><path class="cls-2" d="M961.33,305.69c1.24-8.79,7-14.16,11.54-17.08a14.32,14.32,0,0,1,10.24-2.06l27.23,4.75a7.19,7.19,0,0,1,4.13,11.89,26.13,26.13,0,0,0-6.64,14.06c-2.4,17.07-11.2,79.48-11.2,79.48l-45-21.91S959.25,320.54,961.33,305.69Z"/><path class="cls-5" d="M964.21,308.57c1.24-8.79,7-14.16,11.54-17.08A14.32,14.32,0,0,1,986,289.43l27.23,4.75a7.23,7.23,0,0,1,2.2.77,7.11,7.11,0,0,1-.95,8.24,26.13,26.13,0,0,0-6.64,14.06c-2.4,17.07-11.2,79.48-11.2,79.48l6.18,45.43h0L959.68,416l-5.21-38.28S962.13,323.42,964.21,308.57Z"/><path class="cls-4" d="M961.33,305.69c1.24-8.79,7-14.16,11.54-17.08a14.32,14.32,0,0,1,10.24-2.06l27.23,4.75a7.19,7.19,0,0,1,4.13,11.89,26.13,26.13,0,0,0-6.64,14.06c-2.4,17.07-11.2,79.48-11.2,79.48l-45-21.91S959.25,320.54,961.33,305.69Z"/><path class="cls-2" d="M1016.63,319.38a27.92,27.92,0,0,1,6.66-14.59,7.19,7.19,0,0,0-4.13-11.89l-8.83-1.54v-.06a7.19,7.19,0,0,1,4.13,11.89,26.13,26.13,0,0,0-6.64,14.06c-2.4,17.07-11.2,79.48-11.2,79.48l6.18,45.43h0a35.17,35.17,0,0,1-10.45-.33,258.63,258.63,0,0,0-33.78-3.31,43.43,43.43,0,0,0-10.21.86l9.58,8s.46,0,1.9,0a235.53,235.53,0,0,1,32.75,2.93c14.27,2.3,21.38-2.4,19.77-10.94-1.79-9.57-6.67-42.67-6.67-42.67Z"/><path class="cls-5" d="M960.74,440.67A258.63,258.63,0,0,1,994.52,444a35.17,35.17,0,0,0,10.45.33h0l-6.18-45.43s8.8-62.41,11.2-79.48a26.13,26.13,0,0,1,6.64-14.06,7.19,7.19,0,0,0-1.48-10.86c-.13-.2-.27-.39-.42-.58l6.59,1.15a5.18,5.18,0,0,1,2,9.73,27.92,27.92,0,0,0-6.66,14.59l-10.94,77.35s4.87,33.11,6.67,42.67c1.6,8.53-5.51,13.24-19.77,10.94a235.54,235.54,0,0,0-32.75-2.93c-1.44,0-1.9,0-1.9,0l-7.09-5.95A45.49,45.49,0,0,1,960.74,440.67Z"/><path class="cls-4" d="M1016.63,319.38a27.92,27.92,0,0,1,6.66-14.59,7.19,7.19,0,0,0-4.13-11.89l-8.83-1.54v-.06a7.19,7.19,0,0,1,4.13,11.89,26.13,26.13,0,0,0-6.64,14.06c-2.4,17.07-11.2,79.48-11.2,79.48l6.18,45.43h0a35.17,35.17,0,0,1-10.45-.33,258.63,258.63,0,0,0-33.78-3.31,43.43,43.43,0,0,0-10.21.86l9.58,8s.46,0,1.9,0a235.53,235.53,0,0,1,32.75,2.93c14.27,2.3,21.38-2.4,19.77-10.94-1.79-9.57-6.67-42.67-6.67-42.67Z"/><polygon class="cls-4" points="951.59 374.82 956.97 414.33 956.96 414.33 1002.8 442.16 1002.81 442.16 996.63 396.73 951.59 374.82"/><line class="cls-4" x1="1007.83" y1="317.24" x2="970.63" y2="308"/><path class="cls-2" d="M907,404.65c6.56-9.38,14.43-12.72,25-12.72h79.83a3.43,3.43,0,0,1,0,6.85H934.75c-9.34,0-16,3.13-21.71,11Z"/><path class="cls-5" d="M932,395.52h83.24c1.23,0-1.11.65-.51,1.63a3.41,3.41,0,0,1-2.9,1.63H934.75c-9.34,0-16,3.13-21.71,11l-3.3-2.77C916,399.26,922.29,395.52,932,395.52Z"/><path class="cls-4" d="M907,404.65c6.56-9.38,14.43-12.72,25-12.72h79.83a3.43,3.43,0,0,1,0,6.85H934.75c-9.34,0-16,3.13-21.71,11Z"/><path class="cls-5" d="M917,413.09h1.52c11.52,0,18.7.77,31.33,2.81a33.65,33.65,0,0,0,10,.32l42.76,26a35.43,35.43,0,0,1-10.29-.35,258.63,258.63,0,0,0-33.78-3.31,43.43,43.43,0,0,0-10.21.86Z"/><path class="cls-4" d="M915.13,411.49h4.27c10.47,0,17,.7,28.48,2.55a30.59,30.59,0,0,0,9.08.29l45.84,27.83a35.17,35.17,0,0,1-10.45-.33,258.63,258.63,0,0,0-33.78-3.31,43.43,43.43,0,0,0-10.21.86Z"/><path class="cls-54" d="M967.36,447.67v17.76h-7.42v-18C962.19,447.45,964.68,447.54,967.36,447.67Z"/><line class="cls-4" x1="1124.42" y1="340.24" x2="1118.3" y2="338.76"/><polygon class="cls-4" points="1120.23 441.75 1110.68 437.39 1110.17 441 1120.23 441.75"/><path class="cls-2" d="M930.35,423.63c7.38-10.55,16.24-14.31,28.15-14.31h89.8a3.85,3.85,0,0,1,0,7.71H961.59c-10.51,0-18,3.52-24.43,12.32Z"/><path class="cls-5" d="M958.5,413.32h89.8a2.16,2.16,0,1,1,0,3.71H961.59c-10.51,0-18,3.52-24.43,12.32l-3.85-3.23C940.31,417.44,947.56,413.32,958.5,413.32Z"/><path class="cls-4" d="M930.35,423.63c7.38-10.55,16.24-14.31,28.15-14.31h89.8a3.85,3.85,0,0,1,0,7.71H961.59c-10.51,0-18,3.52-24.43,12.32Z"/><path class="cls-2" d="M1047.61,321.24c1.72-12.21,9.76-19.67,16-23.73a19.89,19.89,0,0,1,14.23-2.86l37.82,6.6a10,10,0,0,1,5.73,16.51,36.3,36.3,0,0,0-9.23,19.52c-3.33,23.71-15.56,110.39-15.56,110.39l-62.55-30.43S1044.71,341.86,1047.61,321.24Z"/><path class="cls-5" d="M1051.61,325.24c1.72-12.21,9.76-19.67,16-23.73a19.89,19.89,0,0,1,14.23-2.86l37.82,6.6a10,10,0,0,1,3.05,1.07,9.88,9.88,0,0,1-1.32,11.44,36.3,36.3,0,0,0-9.23,19.52c-3.33,23.71-15.56,110.39-15.56,110.39l8.58,63.1h0l-59.9-36.36-7.23-53.16S1048.71,345.86,1051.61,325.24Z"/><path class="cls-4" d="M1047.61,321.24c1.72-12.21,9.76-19.67,16-23.73a19.89,19.89,0,0,1,14.23-2.86l37.82,6.6a10,10,0,0,1,5.73,16.51,36.3,36.3,0,0,0-9.23,19.52c-3.33,23.71-15.56,110.39-15.56,110.39l-62.55-30.43S1044.71,341.86,1047.61,321.24Z"/><path class="cls-2" d="M1124.42,340.24a38.78,38.78,0,0,1,9.25-20.26,10,10,0,0,0-5.73-16.51l-12.26-2.14v-.08a10,10,0,0,1,5.73,16.51,36.3,36.3,0,0,0-9.23,19.52c-3.33,23.71-15.56,110.39-15.56,110.39l8.58,63.1h0a48.85,48.85,0,0,1-14.51-.46,359.21,359.21,0,0,0-46.92-4.6,60.32,60.32,0,0,0-14.18,1.19l13.3,11.16s.63,0,2.64,0a327.13,327.13,0,0,1,45.48,4.07c19.82,3.2,29.69-3.33,27.47-15.19-2.49-13.29-9.26-59.27-9.26-59.27Z"/><path class="cls-5" d="M1046.78,508.71a359.21,359.21,0,0,1,46.92,4.6,48.85,48.85,0,0,0,14.51.46h0l-8.58-63.1s12.22-86.68,15.56-110.39a36.3,36.3,0,0,1,9.23-19.52,10,10,0,0,0-2.05-15.08c-.18-.28-.38-.54-.59-.8l9.15,1.6a7.2,7.2,0,0,1,2.73,13.51,38.78,38.78,0,0,0-9.25,20.26l-15.19,107.43s6.77,46,9.26,59.27c2.22,11.85-7.65,18.39-27.47,15.19a327.13,327.13,0,0,0-45.48-4.07c-2,0-2.64,0-2.64,0l-9.85-8.26A63.18,63.18,0,0,1,1046.78,508.71Z"/><path class="cls-4" d="M1124.42,340.24a38.78,38.78,0,0,1,9.25-20.26,10,10,0,0,0-5.73-16.51l-12.26-2.14v-.08a10,10,0,0,1,5.73,16.51,36.3,36.3,0,0,0-9.23,19.52c-3.33,23.71-15.56,110.39-15.56,110.39l8.58,63.1h0a48.85,48.85,0,0,1-14.51-.46,359.21,359.21,0,0,0-46.92-4.6,60.32,60.32,0,0,0-14.18,1.19l13.3,11.16s.63,0,2.64,0a327.13,327.13,0,0,1,45.48,4.07c19.82,3.2,29.69-3.33,27.47-15.19-2.49-13.29-9.26-59.27-9.26-59.27Z"/><polygon class="cls-4" points="1034.08 417.24 1041.55 472.12 1041.54 472.12 1105.21 510.77 1105.21 510.77 1096.63 447.67 1034.08 417.24"/><line class="cls-4" x1="1112.19" y1="337.28" x2="1060.53" y2="324.45"/><path class="cls-2" d="M972.13,458.67c9.11-13,20-17.67,34.75-17.67h110.87a4.76,4.76,0,0,1,0,9.51H1010.69c-13,0-22.26,4.34-30.16,15.22Z"/><path class="cls-5" d="M1006.88,446h115.61c1.71,0-1.55.91-.71,2.26a4.74,4.74,0,0,1-4,2.26H1010.69c-13,0-22.26,4.34-30.16,15.22L976,461.88C984.59,451.19,993.39,446,1006.88,446Z"/><path class="cls-4" d="M972.13,458.67c9.11-13,20-17.67,34.75-17.67h110.87a4.76,4.76,0,0,1,0,9.51H1010.69c-13,0-22.26,4.34-30.16,15.22Z"/><path class="cls-5" d="M986.1,470.4h2.11c16,0,26,1.07,43.51,3.9a46.73,46.73,0,0,0,13.88.44L1105,510.8a49.21,49.21,0,0,1-14.29-.49,359.21,359.21,0,0,0-46.92-4.6,60.32,60.32,0,0,0-14.18,1.19Z"/><path class="cls-4" d="M983.45,468.17h5.93c14.54,0,23.62,1,39.55,3.54a42.48,42.48,0,0,0,12.62.4l63.67,38.65a48.85,48.85,0,0,1-14.51-.46,359.21,359.21,0,0,0-46.92-4.6,60.32,60.32,0,0,0-14.18,1.19Z"/><path class="cls-54" d="M1056,518.43v24.67h-10.31v-25C1048.8,518.12,1052.26,518.24,1056,518.43Z"/><line class="cls-4" x1="1257.83" y1="379.21" x2="1249.88" y2="377.28"/><polygon class="cls-4" points="1252.38 511.16 1239.97 505.5 1239.31 510.2 1252.38 511.16"/><path class="cls-2" d="M1005.54,487.61c9.59-13.72,21.11-18.61,36.6-18.61h116.74a5,5,0,1,1,0,10H1046.15c-13.67,0-23.44,4.57-31.75,16Z"/><path class="cls-5" d="M1042.13,474.21h116.74a5,5,0,0,1,4.26,2.41,5,5,0,0,1-4.26,2.41H1046.15c-13.67,0-23.44,4.57-31.75,16l-5-4.2C1018.49,479.56,1027.91,474.21,1042.13,474.21Z"/><path class="cls-4" d="M1005.54,487.61c9.59-13.72,21.11-18.61,36.6-18.61h116.74a5,5,0,1,1,0,10H1046.15c-13.67,0-23.44,4.57-31.75,16Z"/><path class="cls-2" d="M1158,354.5c2.23-15.87,12.68-25.57,20.84-30.85a25.85,25.85,0,0,1,18.49-3.72l49.16,8.58a13,13,0,0,1,7.45,21.46,47.18,47.18,0,0,0-12,25.38c-4.33,30.82-20.23,143.51-20.23,143.51l-81.32-39.56S1154.21,381.31,1158,354.5Z"/><path class="cls-5" d="M1163.18,359.7c2.23-15.87,12.68-25.57,20.84-30.85a25.85,25.85,0,0,1,18.49-3.72l49.16,8.58a13.05,13.05,0,0,1,4,1.39,12.84,12.84,0,0,1-1.71,14.87,47.18,47.18,0,0,0-12,25.38c-4.33,30.82-20.23,143.51-20.23,143.51l11.16,82h0L1155,553.62l-9.4-69.11S1159.41,386.51,1163.18,359.7Z"/><path class="cls-4" d="M1158,354.5c2.23-15.87,12.68-25.57,20.84-30.85a25.85,25.85,0,0,1,18.49-3.72l49.16,8.58a13,13,0,0,1,7.45,21.46,47.18,47.18,0,0,0-12,25.38c-4.33,30.82-20.23,143.51-20.23,143.51l-81.32-39.56S1154.21,381.31,1158,354.5Z"/><path class="cls-2" d="M1257.83,379.21a50.41,50.41,0,0,1,12-26.34,13,13,0,0,0-7.45-21.46l-15.94-2.78,0-.11a13,13,0,0,1,7.45,21.46,47.18,47.18,0,0,0-12,25.38c-4.33,30.82-20.23,143.51-20.23,143.51l11.16,82h0a63.51,63.51,0,0,1-18.86-.6,467,467,0,0,0-61-6,78.42,78.42,0,0,0-18.44,1.55l17.29,14.51s.82-.06,3.43,0a425.27,425.27,0,0,1,59.12,5.3c25.76,4.16,38.59-4.33,35.7-19.74-3.24-17.27-12-77.05-12-77.05Z"/><path class="cls-5" d="M1156.91,598.21a467,467,0,0,1,61,6,63.51,63.51,0,0,0,18.86.6h0l-11.16-82s15.89-112.69,20.23-143.51a47.18,47.18,0,0,1,12-25.38,13,13,0,0,0-2.67-19.6c-.23-.36-.49-.71-.76-1l11.9,2.08a13,13,0,0,1,4.79,1.86,12.88,12.88,0,0,1-1.23,15.7,50.41,50.41,0,0,0-12,26.34l-19.74,139.66s8.8,59.78,12,77.05c2.89,15.41-9.94,23.91-35.7,19.74a425.27,425.27,0,0,0-59.12-5.3c-2.61-.05-3.43,0-3.43,0l-12.8-10.74A82.14,82.14,0,0,1,1156.91,598.21Z"/><path class="cls-4" d="M1257.83,379.21a50.41,50.41,0,0,1,12-26.34,13,13,0,0,0-7.45-21.46l-15.94-2.78,0-.11a13,13,0,0,1,7.45,21.46,47.18,47.18,0,0,0-12,25.38c-4.33,30.82-20.23,143.51-20.23,143.51l11.16,82h0a63.51,63.51,0,0,1-18.86-.6,467,467,0,0,0-61-6,78.42,78.42,0,0,0-18.44,1.55l17.29,14.51s.82-.06,3.43,0a425.27,425.27,0,0,1,59.12,5.3c25.76,4.16,38.59-4.33,35.7-19.74-3.24-17.27-12-77.05-12-77.05Z"/><polygon class="cls-4" points="1140.39 479.31 1150.1 550.64 1150.09 550.64 1232.86 600.89 1232.87 600.89 1221.71 518.87 1140.39 479.31"/><line class="cls-4" x1="1241.94" y1="375.36" x2="1174.77" y2="358.67"/><path class="cls-2" d="M1059.85,533.17c11.84-16.94,26.06-23,45.18-23h144.13a6.18,6.18,0,1,1,0,12.37H1110c-16.87,0-28.94,5.65-39.2,19.78Z"/><path class="cls-5" d="M1105,516.7h150.29c2.22,0-2,1.18-.92,2.93a6.16,6.16,0,0,1-5.24,2.93H1110c-16.87,0-28.94,5.65-39.2,19.78l-6-5C1076.06,523.44,1087.5,516.7,1105,516.7Z"/><path class="cls-4" d="M1059.85,533.17c11.84-16.94,26.06-23,45.18-23h144.13a6.18,6.18,0,1,1,0,12.37H1110c-16.87,0-28.94,5.65-39.2,19.78Z"/><path class="cls-5" d="M1078,548.41h2.74c20.79,0,33.77,1.39,56.56,5.07a60.75,60.75,0,0,0,18,.57l77.21,46.88a64,64,0,0,1-18.57-.63,467,467,0,0,0-61-6,78.42,78.42,0,0,0-18.44,1.55Z"/><path class="cls-4" d="M1074.57,545.52h7.7c18.9,0,30.7,1.26,51.42,4.61a55.23,55.23,0,0,0,16.4.52l82.77,50.25a63.51,63.51,0,0,1-18.86-.6,467,467,0,0,0-61-6,78.42,78.42,0,0,0-18.44,1.55Z"/></g><g id="Table"><polygon class="cls-2" points="1176.87 630.92 852.04 358.36 587.96 358.36 263.13 630.92 1176.87 630.92"/><ellipse class="cls-5" cx="594.97" cy="500.58" rx="27.36" ry="3.26"/><polygon class="cls-4" points="1176.87 630.92 852.04 358.36 587.96 358.36 263.13 630.92 1176.87 630.92"/><ellipse class="cls-5" cx="630.99" cy="404.96" rx="17.99" ry="2.14"/><ellipse class="cls-5" cx="917.08" cy="552.11" rx="28.78" ry="3.42"/><polygon class="cls-2" points="455.47 521.29 541.83 521.29 524.84 547.93 430.01 547.93 455.47 521.29"/><polygon class="cls-4" points="455.47 521.29 541.83 521.29 524.84 547.93 430.01 547.93 455.47 521.29"/><line class="cls-4" x1="450.76" y1="541.14" x2="462.59" y2="528.08"/><line class="cls-4" x1="457.89" y1="541.14" x2="469.4" y2="528.08"/><line class="cls-4" x1="465.02" y1="541.14" x2="476.21" y2="528.08"/><line class="cls-4" x1="472.14" y1="541.14" x2="483.02" y2="528.08"/><line class="cls-4" x1="479.27" y1="541.14" x2="489.83" y2="528.08"/><line class="cls-4" x1="486.4" y1="541.14" x2="496.64" y2="528.08"/><line class="cls-4" x1="493.53" y1="541.14" x2="503.45" y2="528.08"/><line class="cls-4" x1="500.66" y1="541.14" x2="510.26" y2="528.08"/><line class="cls-4" x1="507.79" y1="541.14" x2="517.07" y2="528.08"/><line class="cls-4" x1="514.92" y1="541.14" x2="523.88" y2="528.08"/><polygon class="cls-2" points="477.4 510.29 563.77 510.29 547.78 536.93 452.94 536.93 477.4 510.29"/><polygon class="cls-4" points="477.4 510.29 563.77 510.29 547.78 536.93 452.94 536.93 477.4 510.29"/><line class="cls-4" x1="473.44" y1="530.14" x2="484.79" y2="517.08"/><line class="cls-4" x1="480.57" y1="530.14" x2="491.59" y2="517.08"/><line class="cls-4" x1="487.7" y1="530.14" x2="498.4" y2="517.08"/><line class="cls-4" x1="494.82" y1="530.14" x2="505.21" y2="517.08"/><line class="cls-4" x1="501.95" y1="530.14" x2="512.02" y2="517.08"/><line class="cls-4" x1="509.08" y1="530.14" x2="518.83" y2="517.08"/><line class="cls-4" x1="516.21" y1="530.14" x2="525.64" y2="517.08"/><line class="cls-4" x1="523.34" y1="530.14" x2="532.45" y2="517.08"/><line class="cls-4" x1="530.47" y1="530.14" x2="539.26" y2="517.08"/><line class="cls-4" x1="537.6" y1="530.14" x2="546.07" y2="517.08"/><polygon class="cls-4" points="590.11 448.44 572.15 476.6 499.04 476.6 500.66 474.92 572.15 474.92 590.11 446.76 590.11 448.44"/><polygon class="cls-2" points="499.04 474.92 513.3 460.01 581.66 460.01 572.15 474.92 499.04 474.92"/><polygon class="cls-2" points="513.3 460.01 525.95 446.76 590.11 446.76 581.66 460.01 513.3 460.01"/><polygon class="cls-4" points="499.04 474.92 513.3 460.01 581.66 460.01 572.15 474.92 499.04 474.92"/><line class="cls-4" x1="568.53" y1="463.81" x2="563.51" y2="471.12"/><line class="cls-4" x1="563.18" y1="463.81" x2="557.98" y2="471.12"/><line class="cls-4" x1="557.83" y1="463.81" x2="552.45" y2="471.12"/><line class="cls-4" x1="552.48" y1="463.81" x2="546.92" y2="471.12"/><line class="cls-4" x1="547.12" y1="463.81" x2="541.39" y2="471.12"/><line class="cls-4" x1="541.77" y1="463.81" x2="535.86" y2="471.12"/><line class="cls-4" x1="531.07" y1="463.81" x2="524.8" y2="471.12"/><line class="cls-4" x1="525.72" y1="463.81" x2="519.27" y2="471.12"/><line class="cls-4" x1="520.36" y1="463.81" x2="513.74" y2="471.12"/><polygon class="cls-4" points="513.3 460.01 525.95 446.76 590.11 446.76 581.66 460.01 513.3 460.01"/><rect class="cls-4" x="537.02" y="467.49" width="2.18" height="32.26" transform="translate(1021.73 -54.49) rotate(90)"/><rect class="cls-4" x="519.37" y="482.1" width="2.18" height="3.04" transform="translate(1004.08 -36.84) rotate(90)"/><path class="cls-4" d="M516.73,482.5h2.18a0,0,0,0,1,0,0v1.14a1.09,1.09,0,0,1-1.09,1.09h0a1.09,1.09,0,0,1-1.09-1.09V482.5A0,0,0,0,1,516.73,482.5Z" transform="translate(1001.44 -34.2) rotate(90)"/><polygon class="cls-4" points="554.24 482.53 558.05 483.62 554.24 484.71 554.24 482.53"/><polygon class="cls-5" points="806.58 395.06 799.47 382.01 799.47 383.45 806.58 396.5 876.28 396.5 874.77 395.06 806.58 395.06"/><polygon class="cls-2" points="862.6 382.01 799.47 382.01 806.58 395.06 876.28 395.06 862.6 382.01"/><polygon class="cls-4" points="862.6 382.01 799.47 382.01 806.58 395.06 876.28 395.06 862.6 382.01"/><path class="cls-2" d="M629.25,401.39c0,.79-3.64,1.43-8.13,1.43s-8.13-.64-8.13-1.43v4.15c0,.79,3.64,1.43,8.13,1.43s8.13-.64,8.13-1.43Z"/><path class="cls-5" d="M629.25,401.39c0,.79-3.64,1.43-8.13,1.43s-8.13-.64-8.13-1.43v4.15c0,.79,3.64,1.43,8.13,1.43s8.13-.64,8.13-1.43Z"/><ellipse class="cls-55" cx="621.13" cy="372.97" rx="8.13" ry="1.43"/><path class="cls-2" d="M613,401.39c0,.79,3.64,1.43,8.13,1.43s8.13-.64,8.13-1.43V373c0,.79-3.64,1.43-8.13,1.43S613,373.76,613,373Z"/><path class="cls-4" d="M626.14,400.27l.57.09"/><path class="cls-4" d="M623,400c.61,0,1.19.06,1.73.11"/><path class="cls-54" d="M627.88,400.37a.23.23,0,0,0,0,.47A.23.23,0,0,0,627.88,400.37Z"/><path class="cls-4" d="M629.25,401.39c0,.79-3.64,1.43-8.13,1.43s-8.13-.64-8.13-1.43v4.15c0,.79,3.64,1.43,8.13,1.43s8.13-.64,8.13-1.43Z"/><path class="cls-4" d="M613,401.39c0-.79,3.64-1.43,8.13-1.43"/><ellipse class="cls-4" cx="621.13" cy="372.97" rx="8.13" ry="1.43"/><path class="cls-4" d="M613,401.39c0,.79,3.64,1.43,8.13,1.43s8.13-.64,8.13-1.43V373c0,.79-3.64,1.43-8.13,1.43S613,373.76,613,373Z"/><line class="cls-3" x1="616" y1="377.97" x2="616" y2="388.75"/><polygon class="cls-2" points="962.6 510.29 876.23 510.29 892.22 536.93 987.06 536.93 962.6 510.29"/><polygon class="cls-4" points="962.6 510.29 876.23 510.29 892.22 536.93 987.06 536.93 962.6 510.29"/><line class="cls-4" x1="966.56" y1="530.14" x2="955.21" y2="517.08"/><line class="cls-4" x1="959.43" y1="530.14" x2="948.41" y2="517.08"/><line class="cls-4" x1="952.3" y1="530.14" x2="941.6" y2="517.08"/><line class="cls-4" x1="945.18" y1="530.14" x2="934.79" y2="517.08"/><line class="cls-4" x1="938.05" y1="530.14" x2="927.98" y2="517.08"/><line class="cls-4" x1="930.92" y1="530.14" x2="921.17" y2="517.08"/><line class="cls-4" x1="923.79" y1="530.14" x2="914.36" y2="517.08"/><line class="cls-4" x1="916.66" y1="530.14" x2="907.55" y2="517.08"/><line class="cls-4" x1="909.53" y1="530.14" x2="900.74" y2="517.08"/><line class="cls-4" x1="902.4" y1="530.14" x2="893.93" y2="517.08"/><path class="cls-2" d="M917.8,544c0,1.45-6.68,2.62-14.92,2.62S888,545.45,888,544v7.62c0,1.45,6.68,2.62,14.92,2.62s14.92-1.17,14.92-2.62Z"/><path class="cls-5" d="M917.8,544c0,1.45-6.68,2.62-14.92,2.62S888,545.45,888,544v7.62c0,1.45,6.68,2.62,14.92,2.62s14.92-1.17,14.92-2.62Z"/><ellipse class="cls-55" cx="902.88" cy="491.8" rx="14.92" ry="2.62"/><path class="cls-2" d="M888,544c0,1.45,6.68,2.62,14.92,2.62s14.92-1.17,14.92-2.62V491.8c0,1.45-6.68,2.62-14.92,2.62S888,493.25,888,491.8Z"/><path class="cls-4" d="M912.09,541.94l1,.16"/><path class="cls-4" d="M906.29,541.46c1.11,0,2.18.11,3.18.2"/><path class="cls-54" d="M915.28,542.12a.43.43,0,0,0,0,.86A.43.43,0,0,0,915.28,542.12Z"/><path class="cls-4" d="M917.8,544c0,1.45-6.68,2.62-14.92,2.62S888,545.45,888,544v7.62c0,1.45,6.68,2.62,14.92,2.62s14.92-1.17,14.92-2.62Z"/><path class="cls-4" d="M888,544c0-1.45,6.68-2.62,14.92-2.62"/><ellipse class="cls-4" cx="902.88" cy="491.8" rx="14.92" ry="2.62"/><path class="cls-4" d="M888,544c0,1.45,6.68,2.62,14.92,2.62s14.92-1.17,14.92-2.62V491.8c0,1.45-6.68,2.62-14.92,2.62S888,493.25,888,491.8Z"/><line class="cls-3" x1="893.96" y1="500.8" x2="893.96" y2="524.33"/><ellipse class="cls-5" cx="735.4" cy="503.24" rx="40.22" ry="6.34" transform="translate(-17.11 25.97) rotate(-2)"/><path class="cls-2" d="M742.82,486a3.26,3.26,0,0,1-2.84-4.85c20.48-36.63,16.33-46,13.59-48.37-3.58-3.06-6.4-2.06-11.5.14l-.88.38a3.26,3.26,0,1,1-2.56-6l.86-.37c4.85-2.09,11.48-5,18.32.89,8.85,7.57,4.88,26.05-12.14,56.5A3.26,3.26,0,0,1,742.82,486Z"/><path class="cls-5" d="M742.82,486a3.26,3.26,0,0,1-2.84-4.85c20.48-36.63,16.33-46,13.59-48.37-3.58-3.06-6.4-2.06-11.5.14l-.88.38a3.26,3.26,0,1,1-2.56-6l.86-.37c4.85-2.09,11.48-5,18.32.89,8.85,7.57,4.88,26.05-12.14,56.5A3.26,3.26,0,0,1,742.82,486Z"/><path class="cls-4" d="M742.82,486a3.26,3.26,0,0,1-2.84-4.85c20.48-36.63,16.33-46,13.59-48.37-3.58-3.06-6.4-2.06-11.5.14l-.88.38a3.26,3.26,0,1,1-2.56-6l.86-.37c4.85-2.09,11.48-5,18.32.89,8.85,7.57,4.88,26.05-12.14,56.5A3.26,3.26,0,0,1,742.82,486Z"/><path class="cls-5" d="M706.07,423.53a130.24,130.24,0,0,0,15.55.92c9.87,0,17.87-.81,17.87-1.81s-8-1.81-17.87-1.81a100.07,100.07,0,0,0-15.55.92c-2.17.41-14.56,1.26-14.56,1.26S702.6,423.09,706.07,423.53Z"/><line class="cls-2" x1="698.74" y1="439.13" x2="699.1" y2="432.69"/><path class="cls-2" d="M691.5,423s11.1.09,14.56.53a130.24,130.24,0,0,0,15.55.92c9.87,0,17.87-.81,17.87-1.81l4.5,80.94c0,2.91-10.93,5.27-24.41,5.27s-24.41-2.36-24.41-5.27l3.57-64.44Z"/><path class="cls-5" d="M739.49,422.63c0,.67-3.63,1.26-9,1.57l4.26,76.6c0,2.91-10.93,5.27-24.41,5.27a95.27,95.27,0,0,1-14.12-1c3,2.17,12.34,3.75,23.36,3.75,13.48,0,24.41-2.36,24.41-5.27Z"/><path class="cls-4" d="M706.07,423.53a130.24,130.24,0,0,0,15.55.92c9.87,0,17.87-.81,17.87-1.81s-8-1.81-17.87-1.81a100.07,100.07,0,0,0-15.55.92c-2.17.41-14.56,1.26-14.56,1.26S702.6,423.09,706.07,423.53Z"/><line class="cls-4" x1="698.74" y1="439.13" x2="699.24" y2="430.11"/><path class="cls-4" d="M691.5,423s11.1.09,14.56.53a130.24,130.24,0,0,0,15.55.92c9.87,0,17.87-.81,17.87-1.81l4.5,80.94c0,2.91-10.93,5.27-24.41,5.27s-24.41-2.36-24.41-5.27l3.57-64.44Z"/><line class="cls-3" x1="702.52" y1="479.26" x2="704.74" y2="439.13"/><path class="cls-5" d="M903,427.24h-50.9a2,2,0,0,0-1.69,3.08L870.62,462a3,3,0,0,0,2.53,1.38h61a2,2,0,0,0,1.45-3.38l-30.41-31.82A3,3,0,0,0,903,427.24Z"/><path class="cls-2" d="M929.15,454.17V460a1.34,1.34,0,0,1-1.34,1.34H866.15a3,3,0,0,1-2.53-1.39l-21.95-34.41a1.34,1.34,0,0,1-.21-.72v-4.61Z"/><path class="cls-5" d="M929.15,454.17V460a1.34,1.34,0,0,1-1.34,1.34H866.15a3,3,0,0,1-2.53-1.39l-21.95-34.41a1.34,1.34,0,0,1-.21-.72v-4.61Z"/><line class="cls-4" x1="927.14" y1="456.37" x2="927.14" y2="461.37"/><line class="cls-4" x1="866.15" y1="456.37" x2="866.15" y2="461.37"/><path class="cls-4" d="M929.15,454.17V460a1.34,1.34,0,0,1-1.34,1.34H866.15a3,3,0,0,1-2.53-1.39l-21.95-34.41a1.34,1.34,0,0,1-.21-.72v-4.61Z"/><path class="cls-2" d="M896,420.24h-50.9a2,2,0,0,0-1.69,3.08L863.62,455a3,3,0,0,0,2.53,1.38h61a2,2,0,0,0,1.45-3.38l-30.41-31.82A3,3,0,0,0,896,420.24Z"/><path class="cls-5" d="M845.11,420.24a2,2,0,0,0-1.69,3.08L863.62,455a3,3,0,0,0,2.53,1.38h61a2,2,0,0,0,1.45-3.38Z"/><path class="cls-4" d="M896,420.24h-50.9a2,2,0,0,0-1.69,3.08L863.62,455a3,3,0,0,0,2.53,1.38h61a2,2,0,0,0,1.45-3.38l-30.41-31.82A3,3,0,0,0,896,420.24Z"/><polygon class="cls-4" points="905.46 433.79 890.83 433.79 898.74 442.82 914.1 442.82 905.46 433.79"/><polygon class="cls-4" points="874.51 451.85 901.61 451.85 878.34 424.76 855.07 424.76 874.51 451.85"/><line class="cls-4" x1="876.49" y1="449.14" x2="860.43" y2="427.47"/><line class="cls-4" x1="881" y1="449.14" x2="864.43" y2="427.47"/><line class="cls-4" x1="885.57" y1="449.14" x2="868.49" y2="427.47"/><line class="cls-4" x1="890.14" y1="449.14" x2="872.55" y2="427.47"/><line class="cls-4" x1="894.71" y1="449.14" x2="876.61" y2="427.47"/><line class="cls-4" x1="901.61" y1="451.85" x2="878.34" y2="424.76"/><path class="cls-2" d="M843.18,373l20.49,21.37a3,3,0,0,1,.83,2.08v56.46a1,1,0,0,1-1.84.54l-21-33a1,1,0,0,1-.16-.54V373.73A1,1,0,0,1,843.18,373Z"/><path class="cls-4" d="M843.18,373l20.49,21.37a3,3,0,0,1,.83,2.08v56.46a1,1,0,0,1-1.84.54l-21-33a1,1,0,0,1-.16-.54V373.73A1,1,0,0,1,843.18,373Z"/><line class="cls-4" x1="863.62" y1="454.98" x2="863.62" y2="459.98"/><path class="cls-5" d="M575.83,411.61h25.84a.91.91,0,0,1,.74,1.44l-4.32,6a1.82,1.82,0,0,1-1.48.76l-27.09,0a.91.91,0,0,1-.69-1.51l5.62-6.14A1.82,1.82,0,0,1,575.83,411.61Z"/><path class="cls-2" d="M574.83,409.61h25.84a.91.91,0,0,1,.74,1.44l-4.32,6a1.82,1.82,0,0,1-1.48.76l-27.09,0a.91.91,0,0,1-.69-1.51l5.62-6.14A1.82,1.82,0,0,1,574.83,409.61Z"/><path class="cls-4" d="M601.59,408.52v1.92a.91.91,0,0,1-.17.53l-4.32,5.92a1.82,1.82,0,0,1-1.48.76l-27.09.05a.91.91,0,0,1-.91-.91v-1.64"/><path class="cls-2" d="M574.83,407.61h25.84a.91.91,0,0,1,.74,1.44l-4.32,6a1.82,1.82,0,0,1-1.48.76l-27.09,0a.91.91,0,0,1-.69-1.51l5.62-6.14A1.82,1.82,0,0,1,574.83,407.61Z"/><path class="cls-4" d="M574.83,407.61h25.84a.91.91,0,0,1,.74,1.44l-4.32,6a1.82,1.82,0,0,1-1.48.76l-27.09,0a.91.91,0,0,1-.69-1.51l5.62-6.14A1.82,1.82,0,0,1,574.83,407.61Z"/><polygon class="cls-56" points="578.63 409.43 598.9 409.43 595.62 414.01 575.09 414.05 578.63 409.43"/><ellipse class="cls-4" cx="573.94" cy="411.33" rx="0.65" ry="0.26"/><line class="cls-17" x1="586.52" y1="412.32" x2="590.13" y2="410.83"/><line class="cls-17" x1="590.52" y1="412.32" x2="594.13" y2="410.83"/><line class="cls-4" x1="595.62" y1="415.83" x2="595.62" y2="417.65"/><line class="cls-4" x1="597.1" y1="415.07" x2="597.1" y2="416.89"/><line class="cls-4" x1="568.53" y1="415.88" x2="568.53" y2="417.7"/><path class="cls-2" d="M590.44,493.94c0,1.13-5.2,2-11.61,2s-11.61-.91-11.61-2v5.93c0,1.13,5.2,2,11.61,2s11.61-.91,11.61-2Z"/><path class="cls-5" d="M590.44,493.94c0,1.13-5.2,2-11.61,2s-11.61-.91-11.61-2v5.93c0,1.13,5.2,2,11.61,2s11.61-.91,11.61-2Z"/><ellipse class="cls-55" cx="578.83" cy="453.34" rx="11.61" ry="2.04"/><path class="cls-2" d="M567.22,493.94c0,1.13,5.2,2,11.61,2s11.61-.91,11.61-2v-40.6c0,1.13-5.2,2-11.61,2s-11.61-.91-11.61-2Z"/><path class="cls-4" d="M586,492.34l.81.12"/><path class="cls-4" d="M581.49,492c.87,0,1.7.09,2.48.16"/><path class="cls-54" d="M588.48,492.48a.33.33,0,0,0,0,.67A.33.33,0,0,0,588.48,492.48Z"/><path class="cls-4" d="M590.44,493.94c0,1.13-5.2,2-11.61,2s-11.61-.91-11.61-2v5.93c0,1.13,5.2,2,11.61,2s11.61-.91,11.61-2Z"/><path class="cls-4" d="M567.22,493.94c0-1.13,5.2-2,11.61-2"/><ellipse class="cls-2" cx="578.83" cy="453.34" rx="11.61" ry="2.04"/><ellipse class="cls-4" cx="578.83" cy="453.34" rx="11.61" ry="2.04"/><path class="cls-4" d="M567.22,493.94c0,1.13,5.2,2,11.61,2s11.61-.91,11.61-2v-40.6c0,1.13-5.2,2-11.61,2s-11.61-.91-11.61-2Z"/><line class="cls-3" x1="572.22" y1="460.34" x2="572.22" y2="476.63"/><line class="cls-3" x1="844.75" y1="409.75" x2="844.75" y2="387.35"/></g><g id="Frame"><path class="cls-2" d="M-511.2-1111.52V1351.21H1951.53V-1111.52ZM1440,565H0V-189H1440Z"/></g></g></svg>